{
 "cells": [
  {
   "cell_type": "code",
   "execution_count": 1,
   "metadata": {},
   "outputs": [
    {
     "name": "stdout",
     "output_type": "stream",
     "text": [
      "Track 0: \n",
      "<meta message midi_port port=0 time=0>\n",
      "sysex data=(126,127,9,1) time=0\n",
      "<meta message midi_port port=0 time=0>\n",
      "sysex data=(65,16,66,17,72,0,0,0,29,29,16,11) time=0\n",
      "<meta message midi_port port=0 time=0>\n",
      "<meta message time_signature numerator=4 denominator=4 clocks_per_click=24 notated_32nd_notes_per_beat=8 time=0>\n",
      "<meta message key_signature key='C' time=0>\n",
      "<meta message set_tempo tempo=508475 time=0>\n",
      "<meta message marker text='SLEEPING BAG\\\\ZZ Top' time=0>\n",
      "<meta message marker text='CHORUS 1' time=9245>\n",
      "<meta message end_of_track time=0>\n",
      "Track 1: * MUTED LYRICS\n",
      "<meta message midi_port port=0 time=0>\n",
      "<meta message track_name name='* MUTED LYRICS' time=0>\n",
      "program_change channel=3 program=118 time=0\n",
      "control_change channel=3 control=7 value=0 time=0\n",
      "control_change channel=3 control=10 value=64 time=0\n",
      "<meta message lyrics text='SLEEPING`BAG' time=304>\n",
      "note_on channel=3 note=54 velocity=119 time=0\n",
      "note_on channel=3 note=54 velocity=0 time=27\n",
      "<meta message lyrics text='/' time=1646>\n",
      "note_on channel=3 note=54 velocity=104 time=0\n",
      "note_on channel=3 note=54 velocity=0 time=13\n",
      "<meta message lyrics text='ZZ`Top\\n\\n' time=21>\n",
      "note_on channel=3 note=54 velocity=92 time=0\n",
      "note_on channel=3 note=54 velocity=0 time=23\n",
      "<meta message lyrics text='>' time=1990>\n",
      "note_on channel=3 note=54 velocity=114 time=0\n",
      "note_on channel=3 note=54 velocity=0 time=25\n",
      "<meta message lyrics text='Well' time=1113>\n",
      "note_on channel=3 note=49 velocity=109 time=0\n",
      "note_on channel=3 note=49 velocity=0 time=19\n",
      "<meta message lyrics text=\"it's\" time=43>\n",
      "note_on channel=3 note=51 velocity=114 time=0\n",
      "note_on channel=3 note=51 velocity=0 time=20\n",
      "<meta message lyrics text='cold' time=42>\n",
      "note_on channel=3 note=49 velocity=124 time=0\n",
      "note_on channel=3 note=49 velocity=0 time=22\n",
      "<meta message lyrics text='out-' time=96>\n",
      "note_on channel=3 note=51 velocity=119 time=0\n",
      "note_on channel=3 note=51 velocity=0 time=23\n",
      "<meta message lyrics text='side' time=39>\n",
      "note_on channel=3 note=49 velocity=124 time=0\n",
      "note_on channel=3 note=49 velocity=0 time=22\n",
      "<meta message lyrics text='and' time=162>\n",
      "note_on channel=3 note=49 velocity=119 time=0\n",
      "note_on channel=3 note=49 velocity=0 time=18\n",
      "<meta message lyrics text='you' time=40>\n",
      "note_on channel=3 note=51 velocity=119 time=0\n",
      "note_on channel=3 note=51 velocity=0 time=22\n",
      "<meta message lyrics text='want' time=35>\n",
      "note_on channel=3 note=49 velocity=119 time=0\n",
      "note_on channel=3 note=49 velocity=0 time=21\n",
      "<meta message lyrics text='to' time=40>\n",
      "note_on channel=3 note=51 velocity=114 time=0\n",
      "note_on channel=3 note=51 velocity=0 time=21\n",
      "<meta message lyrics text='sleep' time=42>\n",
      "note_on channel=3 note=49 velocity=114 time=0\n",
      "note_on channel=3 note=49 velocity=0 time=20\n",
      "<meta message lyrics text='in..,\\n' time=38>\n",
      "note_on channel=3 note=51 velocity=124 time=0\n",
      "note_on channel=3 note=51 velocity=0 time=20\n",
      "<meta message lyrics text='Go' time=278>\n",
      "note_on channel=3 note=49 velocity=114 time=0\n",
      "note_on channel=3 note=49 velocity=0 time=21\n",
      "<meta message lyrics text='for' time=101>\n",
      "note_on channel=3 note=51 velocity=114 time=0\n",
      "note_on channel=3 note=51 velocity=0 time=21\n",
      "<meta message lyrics text='the' time=72>\n",
      "note_on channel=3 note=49 velocity=104 time=0\n",
      "note_on channel=3 note=49 velocity=0 time=18\n",
      "<meta message lyrics text='pal-' time=6>\n",
      "note_on channel=3 note=51 velocity=109 time=0\n",
      "note_on channel=3 note=51 velocity=0 time=27\n",
      "<meta message lyrics text='ette' time=32>\n",
      "note_on channel=3 note=49 velocity=109 time=0\n",
      "note_on channel=3 note=49 velocity=0 time=22\n",
      "<meta message lyrics text=\"that's\" time=35>\n",
      "note_on channel=3 note=51 velocity=114 time=0\n",
      "note_on channel=3 note=51 velocity=0 time=24\n",
      "<meta message lyrics text='nice' time=97>\n",
      "note_on channel=3 note=49 velocity=114 time=0\n",
      "note_on channel=3 note=49 velocity=0 time=21\n",
      "<meta message lyrics text='and' time=42>\n",
      "note_on channel=3 note=51 velocity=119 time=0\n",
      "note_on channel=3 note=51 velocity=0 time=22\n",
      "<meta message lyrics text='thin.\\n' time=98>\n",
      "note_on channel=3 note=49 velocity=124 time=0\n",
      "note_on channel=3 note=49 velocity=0 time=22\n",
      "<meta message lyrics text='Zip' time=271>\n",
      "note_on channel=3 note=51 velocity=119 time=0\n",
      "note_on channel=3 note=51 velocity=0 time=21\n",
      "<meta message lyrics text='it' time=104>\n",
      "note_on channel=3 note=49 velocity=114 time=0\n",
      "note_on channel=3 note=49 velocity=0 time=21\n",
      "<meta message lyrics text='on' time=44>\n",
      "note_on channel=3 note=51 velocity=114 time=0\n",
      "note_on channel=3 note=51 velocity=0 time=21\n",
      "<meta message lyrics text='around' time=12>\n",
      "note_on channel=3 note=49 velocity=119 time=0\n",
      "note_on channel=3 note=49 velocity=0 time=21\n",
      "<meta message lyrics text='while' time=122>\n",
      "note_on channel=3 note=49 velocity=114 time=0\n",
      "note_on channel=3 note=49 velocity=0 time=21\n",
      "<meta message lyrics text=\"it's\" time=43>\n",
      "note_on channel=3 note=51 velocity=114 time=0\n",
      "note_on channel=3 note=51 velocity=0 time=22\n",
      "<meta message lyrics text='on' time=36>\n",
      "note_on channel=3 note=49 velocity=119 time=0\n",
      "note_on channel=3 note=49 velocity=0 time=22\n",
      "<meta message lyrics text='the' time=100>\n",
      "note_on channel=3 note=51 velocity=119 time=0\n",
      "note_on channel=3 note=51 velocity=0 time=21\n",
      "<meta message lyrics text='ground.\\n' time=40>\n",
      "note_on channel=3 note=49 velocity=119 time=0\n",
      "note_on channel=3 note=49 velocity=0 time=22\n",
      "<meta message lyrics text='Spread' time=277>\n",
      "note_on channel=3 note=49 velocity=119 time=0\n",
      "note_on channel=3 note=49 velocity=0 time=23\n",
      "<meta message lyrics text='it' time=95>\n",
      "note_on channel=3 note=51 velocity=119 time=0\n",
      "note_on channel=3 note=51 velocity=0 time=21\n",
      "<meta message lyrics text='out' time=39>\n",
      "note_on channel=3 note=49 velocity=119 time=0\n",
      "note_on channel=3 note=49 velocity=0 time=20\n",
      "<meta message lyrics text='and' time=157>\n",
      "note_on channel=3 note=49 velocity=119 time=0\n",
      "note_on channel=3 note=49 velocity=0 time=21\n",
      "<meta message lyrics text='lay' time=104>\n",
      "note_on channel=3 note=51 velocity=124 time=0\n",
      "note_on channel=3 note=51 velocity=0 time=21\n",
      "<meta message lyrics text='it' time=37>\n",
      "note_on channel=3 note=49 velocity=119 time=0\n",
      "note_on channel=3 note=49 velocity=0 time=21\n",
      "<meta message lyrics text='all' time=39>\n",
      "note_on channel=3 note=51 velocity=114 time=0\n",
      "note_on channel=3 note=51 velocity=0 time=20\n",
      "<meta message lyrics text='down.\\n\\n' time=41>\n",
      "note_on channel=3 note=49 velocity=119 time=0\n",
      "note_on channel=3 note=49 velocity=0 time=21\n",
      "<meta message lyrics text='Slip' time=514>\n",
      "note_on channel=3 note=49 velocity=114 time=0\n",
      "note_on channel=3 note=49 velocity=0 time=18\n",
      "<meta message lyrics text='in-' time=44>\n",
      "note_on channel=3 note=51 velocity=109 time=0\n",
      "note_on channel=3 note=51 velocity=0 time=22\n",
      "<meta message lyrics text='side' time=44>\n",
      "note_on channel=3 note=49 velocity=109 time=0\n",
      "note_on channel=3 note=49 velocity=0 time=20\n",
      "<meta message lyrics text='my' time=39>\n",
      "note_on channel=3 note=51 velocity=109 time=0\n",
      "note_on channel=3 note=51 velocity=0 time=21\n",
      "<meta message lyrics text='sleep-' time=39>\n",
      "note_on channel=3 note=49 velocity=119 time=0\n",
      "note_on channel=3 note=49 velocity=0 time=24\n",
      "<meta message lyrics text='ing' time=36>\n",
      "note_on channel=3 note=51 velocity=109 time=0\n",
      "note_on channel=3 note=51 velocity=0 time=21\n",
      "<meta message lyrics text='bag...\\n' time=14>\n",
      "note_on channel=3 note=49 velocity=114 time=0\n",
      "note_on channel=3 note=49 velocity=0 time=24\n",
      "<meta message lyrics text='Slip' time=600>\n",
      "note_on channel=3 note=49 velocity=119 time=0\n",
      "note_on channel=3 note=49 velocity=0 time=20\n",
      "<meta message lyrics text='in-' time=38>\n",
      "note_on channel=3 note=51 velocity=109 time=0\n",
      "note_on channel=3 note=51 velocity=0 time=22\n",
      "<meta message lyrics text='side' time=36>\n",
      "note_on channel=3 note=49 velocity=109 time=0\n",
      "note_on channel=3 note=49 velocity=0 time=21\n",
      "<meta message lyrics text='my' time=42>\n",
      "note_on channel=3 note=51 velocity=104 time=0\n",
      "note_on channel=3 note=51 velocity=0 time=22\n",
      "<meta message lyrics text='sleep-' time=40>\n",
      "note_on channel=3 note=49 velocity=114 time=0\n",
      "note_on channel=3 note=49 velocity=0 time=22\n",
      "<meta message lyrics text='ing' time=35>\n",
      "note_on channel=3 note=51 velocity=109 time=0\n",
      "note_on channel=3 note=51 velocity=0 time=19\n",
      "<meta message lyrics text='bag...\\n\\n' time=15>\n",
      "note_on channel=3 note=49 velocity=119 time=0\n",
      "note_on channel=3 note=49 velocity=0 time=21\n",
      "<meta message lyrics text='Your' time=248>\n",
      "note_on channel=3 note=49 velocity=114 time=0\n",
      "note_on channel=3 note=49 velocity=0 time=20\n",
      "<meta message lyrics text='a-' time=41>\n",
      "note_on channel=3 note=51 velocity=109 time=0\n",
      "note_on channel=3 note=51 velocity=0 time=20\n",
      "<meta message lyrics text='fraid' time=37>\n",
      "note_on channel=3 note=49 velocity=114 time=0\n",
      "note_on channel=3 note=49 velocity=0 time=21\n",
      "<meta message lyrics text='of' time=98>\n",
      "note_on channel=3 note=51 velocity=109 time=0\n",
      "note_on channel=3 note=51 velocity=0 time=21\n",
      "<meta message lyrics text='the' time=36>\n",
      "note_on channel=3 note=49 velocity=114 time=0\n",
      "note_on channel=3 note=49 velocity=0 time=18\n",
      "<meta message lyrics text='dark..,' time=12>\n",
      "note_on channel=3 note=51 velocity=114 time=0\n",
      "note_on channel=3 note=51 velocity=0 time=24\n",
      "<meta message lyrics text='bab-' time=132>\n",
      "note_on channel=3 note=49 velocity=109 time=0\n",
      "note_on channel=3 note=49 velocity=0 time=20\n",
      "<meta message lyrics text='y' time=37>\n",
      "note_on channel=3 note=51 velocity=114 time=0\n",
      "note_on channel=3 note=51 velocity=0 time=24\n",
      "<meta message lyrics text=\"don't\" time=37>\n",
      "note_on channel=3 note=49 velocity=114 time=0\n",
      "note_on channel=3 note=49 velocity=0 time=20\n",
      "<meta message lyrics text='be' time=42>\n",
      "note_on channel=3 note=51 velocity=114 time=0\n",
      "note_on channel=3 note=51 velocity=0 time=21\n",
      "<meta message lyrics text='shy.\\n' time=97>\n",
      "note_on channel=3 note=49 velocity=119 time=0\n",
      "note_on channel=3 note=49 velocity=0 time=21\n",
      "<meta message lyrics text=\"We'll\" time=219>\n",
      "note_on channel=3 note=51 velocity=114 time=0\n",
      "note_on channel=3 note=51 velocity=0 time=21\n",
      "<meta message lyrics text='talk' time=37>\n",
      "note_on channel=3 note=49 velocity=114 time=0\n",
      "note_on channel=3 note=49 velocity=0 time=21\n",
      "<meta message lyrics text='a-' time=40>\n",
      "note_on channel=3 note=51 velocity=104 time=0\n",
      "note_on channel=3 note=51 velocity=0 time=23\n",
      "<meta message lyrics text='bout' time=11>\n",
      "note_on channel=3 note=49 velocity=114 time=0\n",
      "note_on channel=3 note=49 velocity=0 time=20\n",
      "<meta message lyrics text='some' time=68>\n",
      "note_on channel=3 note=51 velocity=109 time=0\n",
      "note_on channel=3 note=51 velocity=0 time=22\n",
      "<meta message lyrics text='lov-' time=37>\n",
      "note_on channel=3 note=49 velocity=119 time=0\n",
      "note_on channel=3 note=49 velocity=0 time=23\n",
      "<meta message lyrics text=\"in'\" time=40>\n",
      "note_on channel=3 note=51 velocity=109 time=0\n",
      "note_on channel=3 note=51 velocity=0 time=23\n",
      "<meta message lyrics text='while' time=38>\n",
      "note_on channel=3 note=49 velocity=109 time=0\n",
      "note_on channel=3 note=49 velocity=0 time=21\n",
      "<meta message lyrics text='we' time=37>\n",
      "note_on channel=3 note=51 velocity=114 time=0\n",
      "note_on channel=3 note=51 velocity=0 time=23\n",
      "<meta message lyrics text='look' time=35>\n",
      "note_on channel=3 note=49 velocity=114 time=0\n",
      "note_on channel=3 note=49 velocity=0 time=21\n",
      "<meta message lyrics text='at' time=40>\n",
      "note_on channel=3 note=51 velocity=109 time=0\n",
      "note_on channel=3 note=51 velocity=0 time=23\n",
      "<meta message lyrics text='the' time=10>\n",
      "note_on channel=3 note=49 velocity=104 time=0\n",
      "note_on channel=3 note=49 velocity=0 time=23\n",
      "<meta message lyrics text='sky.\\n' time=59>\n",
      "note_on channel=3 note=51 velocity=114 time=0\n",
      "note_on channel=3 note=51 velocity=0 time=22\n",
      "<meta message lyrics text=\"Don't\" time=276>\n",
      "note_on channel=3 note=49 velocity=114 time=0\n",
      "note_on channel=3 note=49 velocity=0 time=22\n",
      "<meta message lyrics text='be' time=46>\n",
      "note_on channel=3 note=51 velocity=109 time=0\n",
      "note_on channel=3 note=51 velocity=0 time=22\n",
      "<meta message lyrics text='hes-' time=36>\n",
      "note_on channel=3 note=49 velocity=114 time=0\n",
      "note_on channel=3 note=49 velocity=0 time=22\n",
      "<meta message lyrics text='i-' time=36>\n",
      "note_on channel=3 note=51 velocity=109 time=0\n",
      "note_on channel=3 note=51 velocity=0 time=23\n",
      "<meta message lyrics text='tat-' time=10>\n",
      "note_on channel=3 note=49 velocity=114 time=0\n",
      "note_on channel=3 note=49 velocity=0 time=24\n",
      "<meta message lyrics text='ing' time=74>\n",
      "note_on channel=3 note=51 velocity=109 time=0\n",
      "note_on channel=3 note=51 velocity=0 time=22\n",
      "<meta message lyrics text=\"it'-\" time=33>\n",
      "note_on channel=3 note=49 velocity=114 time=0\n",
      "note_on channel=3 note=49 velocity=0 time=23\n",
      "<meta message lyrics text='ll' time=33>\n",
      "note_on channel=3 note=51 velocity=109 time=0\n",
      "note_on channel=3 note=51 velocity=0 time=23\n",
      "<meta message lyrics text='be' time=33>\n",
      "note_on channel=3 note=49 velocity=114 time=0\n",
      "note_on channel=3 note=49 velocity=0 time=22\n",
      "<meta message lyrics text='al-' time=43>\n",
      "note_on channel=3 note=51 velocity=119 time=0\n",
      "note_on channel=3 note=51 velocity=0 time=21\n",
      "<meta message lyrics text='right.\\n' time=93>\n",
      "note_on channel=3 note=49 velocity=119 time=0\n",
      "note_on channel=3 note=49 velocity=0 time=23\n",
      "<meta message lyrics text=\"We'll\" time=280>\n",
      "note_on channel=3 note=51 velocity=114 time=0\n",
      "note_on channel=3 note=51 velocity=0 time=22\n",
      "<meta message lyrics text='tuck' time=101>\n",
      "note_on channel=3 note=49 velocity=114 time=0\n",
      "note_on channel=3 note=49 velocity=0 time=24\n",
      "<meta message lyrics text='it' time=34>\n",
      "note_on channel=3 note=51 velocity=104 time=0\n",
      "note_on channel=3 note=51 velocity=0 time=23\n",
      "<meta message lyrics text='in..,' time=7>\n",
      "note_on channel=3 note=49 velocity=109 time=0\n",
      "note_on channel=3 note=49 velocity=0 time=23\n",
      "<meta message lyrics text=\"till'\" time=130>\n",
      "note_on channel=3 note=49 velocity=114 time=0\n",
      "note_on channel=3 note=49 velocity=0 time=20\n",
      "<meta message lyrics text=\"it's\" time=40>\n",
      "note_on channel=3 note=51 velocity=109 time=0\n",
      "note_on channel=3 note=51 velocity=0 time=22\n",
      "<meta message lyrics text='clean' time=35>\n",
      "note_on channel=3 note=49 velocity=119 time=0\n",
      "note_on channel=3 note=49 velocity=0 time=20\n",
      "<meta message lyrics text='out' time=104>\n",
      "note_on channel=3 note=51 velocity=114 time=0\n",
      "note_on channel=3 note=51 velocity=0 time=20\n",
      "<meta message lyrics text='a' time=38>\n",
      "note_on channel=3 note=49 velocity=114 time=0\n",
      "note_on channel=3 note=49 velocity=0 time=21\n",
      "<meta message lyrics text='sight.\\n\\n' time=6>\n",
      "note_on channel=3 note=51 velocity=109 time=0\n",
      "note_on channel=3 note=51 velocity=0 time=22\n",
      "<meta message lyrics text='Slip' time=493>\n",
      "note_on channel=3 note=49 velocity=114 time=0\n",
      "note_on channel=3 note=49 velocity=0 time=17\n",
      "<meta message lyrics text='in-' time=38>\n",
      "note_on channel=3 note=51 velocity=100 time=0\n",
      "note_on channel=3 note=51 velocity=0 time=21\n",
      "<meta message lyrics text='side' time=39>\n",
      "note_on channel=3 note=49 velocity=114 time=0\n",
      "note_on channel=3 note=49 velocity=0 time=19\n",
      "<meta message lyrics text='my' time=41>\n",
      "note_on channel=3 note=51 velocity=104 time=0\n",
      "note_on channel=3 note=51 velocity=0 time=20\n",
      "<meta message lyrics text='sleep-' time=41>\n",
      "note_on channel=3 note=49 velocity=114 time=0\n",
      "note_on channel=3 note=49 velocity=0 time=19\n",
      "<meta message lyrics text='ing' time=35>\n",
      "note_on channel=3 note=49 velocity=104 time=0\n",
      "note_on channel=3 note=49 velocity=0 time=21\n",
      "<meta message lyrics text='bag..,\\n' time=9>\n",
      "note_on channel=3 note=51 velocity=109 time=0\n",
      "note_on channel=3 note=51 velocity=0 time=23\n",
      "<meta message lyrics text='Slip' time=613>\n",
      "note_on channel=3 note=49 velocity=114 time=0\n",
      "note_on channel=3 note=49 velocity=0 time=24\n",
      "<meta message lyrics text='in-' time=34>\n",
      "note_on channel=3 note=51 velocity=114 time=0\n",
      "note_on channel=3 note=51 velocity=0 time=27\n",
      "<meta message lyrics text='side' time=32>\n",
      "note_on channel=3 note=49 velocity=109 time=0\n",
      "note_on channel=3 note=49 velocity=0 time=27\n",
      "<meta message lyrics text='my' time=33>\n",
      "note_on channel=3 note=51 velocity=109 time=0\n",
      "note_on channel=3 note=51 velocity=0 time=27\n",
      "<meta message lyrics text='sleep-' time=37>\n",
      "note_on channel=3 note=49 velocity=114 time=0\n",
      "note_on channel=3 note=49 velocity=0 time=20\n",
      "<meta message lyrics text='ing' time=38>\n",
      "note_on channel=3 note=49 velocity=109 time=0\n",
      "note_on channel=3 note=49 velocity=0 time=25\n",
      "<meta message lyrics text='bag..,\\n\\n' time=6>\n",
      "note_on channel=3 note=51 velocity=114 time=0\n",
      "note_on channel=3 note=51 velocity=0 time=29\n",
      "<meta message lyrics text='(GUITAR/SOLO)\\n\\n' time=4009>\n",
      "note_on channel=3 note=49 velocity=89 time=0\n",
      "note_on channel=3 note=49 velocity=0 time=20\n",
      "<meta message lyrics text='(Solo/Continued)\\n\\n' time=3582>\n",
      "note_on channel=3 note=49 velocity=100 time=0\n",
      "note_on channel=3 note=49 velocity=0 time=17\n",
      "<meta message lyrics text='>' time=9605>\n",
      "note_on channel=3 note=49 velocity=124 time=0\n",
      "note_on channel=3 note=49 velocity=0 time=25\n",
      "<meta message lyrics text=\"Let's\" time=380>\n",
      "note_on channel=3 note=49 velocity=114 time=0\n",
      "note_on channel=3 note=49 velocity=0 time=21\n",
      "<meta message lyrics text='go' time=41>\n",
      "note_on channel=3 note=51 velocity=100 time=0\n",
      "note_on channel=3 note=51 velocity=0 time=18\n",
      "<meta message lyrics text='out' time=43>\n",
      "note_on channel=3 note=49 velocity=109 time=0\n",
      "note_on channel=3 note=49 velocity=0 time=22\n",
      "<meta message lyrics text='to' time=35>\n",
      "note_on channel=3 note=51 velocity=96 time=0\n",
      "note_on channel=3 note=51 velocity=0 time=23\n",
      "<meta message lyrics text='Eg-' time=10>\n",
      "note_on channel=3 note=49 velocity=114 time=0\n",
      "note_on channel=3 note=49 velocity=0 time=22\n",
      "<meta message lyrics text='ypt' time=65>\n",
      "note_on channel=3 note=51 velocity=114 time=0\n",
      "note_on channel=3 note=51 velocity=0 time=20\n",
      "<meta message lyrics text=\"'cause\" time=44>\n",
      "note_on channel=3 note=49 velocity=109 time=0\n",
      "note_on channel=3 note=49 velocity=0 time=21\n",
      "<meta message lyrics text=\"it's\" time=42>\n",
      "note_on channel=3 note=51 velocity=104 time=0\n",
      "note_on channel=3 note=51 velocity=0 time=21\n",
      "<meta message lyrics text='some-' time=35>\n",
      "note_on channel=3 note=49 velocity=109 time=0\n",
      "note_on channel=3 note=49 velocity=0 time=20\n",
      "<meta message lyrics text='thing' time=43>\n",
      "note_on channel=3 note=51 velocity=114 time=0\n",
      "note_on channel=3 note=51 velocity=0 time=21\n",
      "<meta message lyrics text='I' time=38>\n",
      "note_on channel=3 note=49 velocity=114 time=0\n",
      "note_on channel=3 note=49 velocity=0 time=19\n",
      "<meta message lyrics text='planned.\\n' time=41>\n",
      "note_on channel=3 note=51 velocity=119 time=0\n",
      "note_on channel=3 note=51 velocity=0 time=19\n",
      "<meta message lyrics text='Sleep' time=281>\n",
      "note_on channel=3 note=49 velocity=114 time=0\n",
      "note_on channel=3 note=49 velocity=0 time=20\n",
      "<meta message lyrics text='be-' time=39>\n",
      "note_on channel=3 note=51 velocity=109 time=0\n",
      "note_on channel=3 note=51 velocity=0 time=22\n",
      "<meta message lyrics text='side' time=36>\n",
      "note_on channel=3 note=49 velocity=109 time=0\n",
      "note_on channel=3 note=49 velocity=0 time=24\n",
      "<meta message lyrics text='the' time=35>\n",
      "note_on channel=3 note=51 velocity=100 time=0\n",
      "note_on channel=3 note=51 velocity=0 time=23\n",
      "<meta message lyrics text='Phar-' time=10>\n",
      "note_on channel=3 note=49 velocity=109 time=0\n",
      "note_on channel=3 note=49 velocity=0 time=20\n",
      "<meta message lyrics text='oahs' time=69>\n",
      "note_on channel=3 note=51 velocity=114 time=0\n",
      "note_on channel=3 note=51 velocity=0 time=21\n",
      "<meta message lyrics text='in' time=40>\n",
      "note_on channel=3 note=49 velocity=114 time=0\n",
      "note_on channel=3 note=49 velocity=0 time=23\n",
      "<meta message lyrics text='the' time=39>\n",
      "note_on channel=3 note=51 velocity=109 time=0\n",
      "note_on channel=3 note=51 velocity=0 time=20\n",
      "<meta message lyrics text='shift-' time=39>\n",
      "note_on channel=3 note=49 velocity=114 time=0\n",
      "note_on channel=3 note=49 velocity=0 time=21\n",
      "<meta message lyrics text='ing' time=37>\n",
      "note_on channel=3 note=51 velocity=114 time=0\n",
      "note_on channel=3 note=51 velocity=0 time=21\n",
      "<meta message lyrics text='sand.\\n' time=94>\n",
      "note_on channel=3 note=49 velocity=114 time=0\n",
      "note_on channel=3 note=49 velocity=0 time=22\n",
      "<meta message lyrics text='Look' time=283>\n",
      "note_on channel=3 note=49 velocity=109 time=0\n",
      "note_on channel=3 note=49 velocity=0 time=19\n",
      "<meta message lyrics text='at' time=105>\n",
      "note_on channel=3 note=51 velocity=109 time=0\n",
      "note_on channel=3 note=51 velocity=0 time=17\n",
      "<meta message lyrics text='some' time=39>\n",
      "note_on channel=3 note=51 velocity=92 time=0\n",
      "note_on channel=3 note=51 velocity=0 time=24\n",
      "<meta message lyrics text='pyr-' time=4>\n",
      "note_on channel=3 note=49 velocity=104 time=0\n",
      "note_on channel=3 note=49 velocity=0 time=21\n",
      "<meta message lyrics text='amids' time=75>\n",
      "note_on channel=3 note=51 velocity=109 time=0\n",
      "note_on channel=3 note=51 velocity=0 time=20\n",
      "<meta message lyrics text='and' time=41>\n",
      "note_on channel=3 note=49 velocity=114 time=0\n",
      "note_on channel=3 note=49 velocity=0 time=19\n",
      "<meta message lyrics text='check' time=98>\n",
      "note_on channel=3 note=51 velocity=114 time=0\n",
      "note_on channel=3 note=51 velocity=0 time=19\n",
      "<meta message lyrics text='out' time=40>\n",
      "note_on channel=3 note=49 velocity=109 time=0\n",
      "note_on channel=3 note=49 velocity=0 time=19\n",
      "<meta message lyrics text='some' time=40>\n",
      "note_on channel=3 note=51 velocity=109 time=0\n",
      "note_on channel=3 note=51 velocity=0 time=20\n",
      "<meta message lyrics text='heads.\\n' time=39>\n",
      "note_on channel=3 note=49 velocity=114 time=0\n",
      "note_on channel=3 note=49 velocity=0 time=20\n",
      "<meta message lyrics text='Oh,' time=156>\n",
      "note_on channel=3 note=49 velocity=109 time=0\n",
      "note_on channel=3 note=49 velocity=0 time=22\n",
      "<meta message lyrics text=\"we'll\" time=37>\n",
      "note_on channel=3 note=51 velocity=104 time=0\n",
      "note_on channel=3 note=51 velocity=0 time=22\n",
      "<meta message lyrics text='whip' time=43>\n",
      "note_on channel=3 note=49 velocity=109 time=0\n",
      "note_on channel=3 note=49 velocity=0 time=20\n",
      "<meta message lyrics text='out' time=101>\n",
      "note_on channel=3 note=51 velocity=109 time=0\n",
      "note_on channel=3 note=51 velocity=0 time=19\n",
      "<meta message lyrics text='our' time=43>\n",
      "note_on channel=3 note=51 velocity=100 time=0\n",
      "note_on channel=3 note=51 velocity=0 time=25\n",
      "<meta message lyrics text='matt-' time=3>\n",
      "note_on channel=3 note=49 velocity=104 time=0\n",
      "note_on channel=3 note=49 velocity=0 time=20\n",
      "<meta message lyrics text='ress..,' time=76>\n",
      "note_on channel=3 note=51 velocity=109 time=0\n",
      "note_on channel=3 note=51 velocity=0 time=19\n",
      "<meta message lyrics text='cause' time=40>\n",
      "note_on channel=3 note=49 velocity=114 time=0\n",
      "note_on channel=3 note=49 velocity=0 time=21\n",
      "<meta message lyrics text='there' time=38>\n",
      "note_on channel=3 note=51 velocity=114 time=0\n",
      "note_on channel=3 note=51 velocity=0 time=20\n",
      "<meta message lyrics text=\"ain't\" time=37>\n",
      "note_on channel=3 note=49 velocity=114 time=0\n",
      "note_on channel=3 note=49 velocity=0 time=21\n",
      "<meta message lyrics text='no' time=39>\n",
      "note_on channel=3 note=51 velocity=114 time=0\n",
      "note_on channel=3 note=51 velocity=0 time=21\n",
      "<meta message lyrics text='beds.\\n\\n' time=96>\n",
      "note_on channel=3 note=49 velocity=114 time=0\n",
      "note_on channel=3 note=49 velocity=0 time=21\n",
      "<meta message lyrics text='Slip' time=519>\n",
      "note_on channel=3 note=49 velocity=114 time=0\n",
      "note_on channel=3 note=49 velocity=0 time=21\n",
      "<meta message lyrics text='in-' time=39>\n",
      "note_on channel=3 note=51 velocity=109 time=0\n",
      "note_on channel=3 note=51 velocity=0 time=20\n",
      "<meta message lyrics text='side' time=39>\n",
      "note_on channel=3 note=49 velocity=114 time=0\n",
      "note_on channel=3 note=49 velocity=0 time=22\n",
      "<meta message lyrics text='my' time=37>\n",
      "note_on channel=3 note=51 velocity=109 time=0\n",
      "note_on channel=3 note=51 velocity=0 time=22\n",
      "<meta message lyrics text='sleep-' time=41>\n",
      "note_on channel=3 note=49 velocity=114 time=0\n",
      "note_on channel=3 note=49 velocity=0 time=22\n",
      "<meta message lyrics text='ing' time=33>\n",
      "note_on channel=3 note=51 velocity=104 time=0\n",
      "note_on channel=3 note=51 velocity=0 time=22\n",
      "<meta message lyrics text='bag.\\n' time=5>\n",
      "note_on channel=3 note=49 velocity=109 time=0\n",
      "note_on channel=3 note=49 velocity=0 time=26\n",
      "<meta message lyrics text='Slip' time=608>\n",
      "note_on channel=3 note=49 velocity=114 time=0\n",
      "note_on channel=3 note=49 velocity=0 time=23\n",
      "<meta message lyrics text='in' time=42>\n",
      "note_on channel=3 note=51 velocity=109 time=0\n",
      "note_on channel=3 note=51 velocity=0 time=21\n",
      "<meta message lyrics text='side' time=38>\n",
      "note_on channel=3 note=49 velocity=114 time=0\n",
      "note_on channel=3 note=49 velocity=0 time=23\n",
      "<meta message lyrics text='my' time=36>\n",
      "note_on channel=3 note=51 velocity=109 time=0\n",
      "note_on channel=3 note=51 velocity=0 time=21\n",
      "<meta message lyrics text='sleep-' time=39>\n",
      "note_on channel=3 note=49 velocity=114 time=0\n",
      "note_on channel=3 note=49 velocity=0 time=19\n",
      "<meta message lyrics text='ing' time=38>\n",
      "note_on channel=3 note=49 velocity=104 time=0\n",
      "note_on channel=3 note=49 velocity=0 time=21\n",
      "<meta message lyrics text='bag.\\n\\n' time=12>\n",
      "note_on channel=3 note=51 velocity=119 time=0\n",
      "note_on channel=3 note=51 velocity=0 time=25\n",
      "<meta message lyrics text='(GUITAR/SOLO)\\n\\n' time=459>\n",
      "note_on channel=3 note=54 velocity=100 time=0\n",
      "note_on channel=3 note=54 velocity=0 time=20\n",
      "<meta message lyrics text='(To/End`of`song)\\n\\n' time=873>\n",
      "note_on channel=3 note=54 velocity=100 time=0\n",
      "note_on channel=3 note=54 velocity=0 time=20\n",
      "<meta message lyrics text='(The/End)' time=6315>\n",
      "note_on channel=3 note=54 velocity=124 time=0\n",
      "note_on channel=3 note=54 velocity=0 time=34\n",
      "<meta message end_of_track time=0>\n",
      "Track 2: Split Chan 15 \n",
      "<meta message midi_port port=0 time=0>\n",
      "<meta message track_name name='Split Chan 15 ' time=0>\n",
      "program_change channel=0 program=36 time=0\n",
      "control_change channel=0 control=7 value=120 time=0\n",
      "control_change channel=0 control=10 value=64 time=0\n",
      "program_change channel=0 program=37 time=126\n",
      "note_on channel=0 note=43 velocity=94 time=8994\n",
      "note_on channel=0 note=43 velocity=0 time=170\n",
      "note_on channel=0 note=41 velocity=94 time=10\n",
      "note_on channel=0 note=41 velocity=0 time=135\n",
      "note_on channel=0 note=39 velocity=94 time=45\n",
      "note_on channel=0 note=39 velocity=0 time=40\n",
      "note_on channel=0 note=41 velocity=94 time=20\n",
      "note_on channel=0 note=41 velocity=0 time=90\n",
      "note_on channel=0 note=39 velocity=94 time=30\n",
      "note_on channel=0 note=36 velocity=94 time=0\n",
      "note_on channel=0 note=36 velocity=0 time=15\n",
      "note_on channel=0 note=39 velocity=0 time=0\n",
      "note_on channel=0 note=24 velocity=94 time=45\n",
      "note_on channel=0 note=36 velocity=94 time=0\n",
      "note_on channel=0 note=36 velocity=0 time=10\n",
      "note_on channel=0 note=24 velocity=0 time=5\n",
      "note_on channel=0 note=24 velocity=94 time=15\n",
      "note_on channel=0 note=36 velocity=94 time=0\n",
      "note_on channel=0 note=36 velocity=0 time=15\n",
      "note_on channel=0 note=24 velocity=0 time=0\n",
      "note_on channel=0 note=24 velocity=94 time=15\n",
      "note_on channel=0 note=36 velocity=94 time=0\n",
      "note_on channel=0 note=36 velocity=0 time=10\n",
      "note_on channel=0 note=24 velocity=0 time=10\n",
      "note_on channel=0 note=24 velocity=94 time=10\n",
      "note_on channel=0 note=36 velocity=94 time=0\n",
      "note_on channel=0 note=36 velocity=0 time=15\n",
      "note_on channel=0 note=24 velocity=0 time=0\n",
      "note_on channel=0 note=24 velocity=94 time=15\n",
      "note_on channel=0 note=36 velocity=94 time=0\n",
      "note_on channel=0 note=36 velocity=0 time=15\n",
      "note_on channel=0 note=24 velocity=0 time=0\n",
      "note_on channel=0 note=24 velocity=94 time=15\n",
      "note_on channel=0 note=36 velocity=94 time=0\n",
      "note_on channel=0 note=36 velocity=0 time=15\n",
      "note_on channel=0 note=24 velocity=0 time=5\n",
      "note_on channel=0 note=24 velocity=94 time=10\n",
      "note_on channel=0 note=36 velocity=94 time=0\n",
      "note_on channel=0 note=36 velocity=0 time=15\n",
      "note_on channel=0 note=24 velocity=0 time=0\n",
      "note_on channel=0 note=36 velocity=94 time=15\n",
      "note_on channel=0 note=24 velocity=94 time=0\n",
      "note_on channel=0 note=24 velocity=0 time=15\n",
      "note_on channel=0 note=36 velocity=0 time=0\n",
      "note_on channel=0 note=36 velocity=94 time=15\n",
      "note_on channel=0 note=24 velocity=94 time=0\n",
      "note_on channel=0 note=24 velocity=0 time=15\n",
      "note_on channel=0 note=36 velocity=0 time=0\n",
      "note_on channel=0 note=36 velocity=94 time=15\n",
      "note_on channel=0 note=24 velocity=94 time=0\n",
      "note_on channel=0 note=24 velocity=0 time=15\n",
      "note_on channel=0 note=36 velocity=0 time=0\n",
      "note_on channel=0 note=36 velocity=94 time=15\n",
      "note_on channel=0 note=24 velocity=94 time=0\n",
      "note_on channel=0 note=36 velocity=0 time=15\n",
      "note_on channel=0 note=24 velocity=0 time=5\n",
      "note_on channel=0 note=36 velocity=94 time=10\n",
      "note_on channel=0 note=24 velocity=94 time=0\n",
      "note_on channel=0 note=36 velocity=0 time=20\n",
      "note_on channel=0 note=24 velocity=0 time=5\n",
      "note_on channel=0 note=43 velocity=94 time=5\n",
      "note_on channel=0 note=43 velocity=0 time=155\n",
      "note_on channel=0 note=41 velocity=94 time=25\n",
      "note_on channel=0 note=41 velocity=0 time=135\n",
      "note_on channel=0 note=39 velocity=94 time=45\n",
      "note_on channel=0 note=39 velocity=0 time=35\n",
      "note_on channel=0 note=41 velocity=94 time=25\n",
      "note_on channel=0 note=41 velocity=0 time=85\n",
      "note_on channel=0 note=39 velocity=94 time=35\n",
      "note_on channel=0 note=36 velocity=94 time=0\n",
      "note_on channel=0 note=36 velocity=0 time=15\n",
      "note_on channel=0 note=39 velocity=0 time=30\n",
      "note_on channel=0 note=36 velocity=94 time=15\n",
      "note_on channel=0 note=24 velocity=94 time=0\n",
      "note_on channel=0 note=24 velocity=0 time=10\n",
      "note_on channel=0 note=36 velocity=0 time=0\n",
      "note_on channel=0 note=36 velocity=94 time=20\n",
      "note_on channel=0 note=24 velocity=94 time=0\n",
      "note_on channel=0 note=36 velocity=0 time=10\n",
      "note_on channel=0 note=24 velocity=0 time=5\n",
      "note_on channel=0 note=24 velocity=94 time=15\n",
      "note_on channel=0 note=36 velocity=94 time=0\n",
      "note_on channel=0 note=36 velocity=0 time=10\n",
      "note_on channel=0 note=24 velocity=0 time=0\n",
      "note_on channel=0 note=36 velocity=94 time=20\n",
      "note_on channel=0 note=24 velocity=94 time=0\n",
      "note_on channel=0 note=36 velocity=0 time=10\n",
      "note_on channel=0 note=24 velocity=0 time=5\n",
      "note_on channel=0 note=24 velocity=94 time=15\n",
      "note_on channel=0 note=36 velocity=94 time=0\n",
      "note_on channel=0 note=36 velocity=0 time=10\n",
      "note_on channel=0 note=24 velocity=0 time=5\n",
      "note_on channel=0 note=24 velocity=94 time=15\n",
      "note_on channel=0 note=36 velocity=94 time=0\n",
      "note_on channel=0 note=36 velocity=0 time=15\n",
      "note_on channel=0 note=24 velocity=0 time=0\n",
      "note_on channel=0 note=24 velocity=94 time=15\n",
      "note_on channel=0 note=36 velocity=94 time=0\n",
      "note_on channel=0 note=36 velocity=0 time=10\n",
      "note_on channel=0 note=24 velocity=0 time=5\n",
      "note_on channel=0 note=24 velocity=94 time=15\n",
      "note_on channel=0 note=36 velocity=94 time=0\n",
      "note_on channel=0 note=36 velocity=0 time=15\n",
      "note_on channel=0 note=24 velocity=0 time=0\n",
      "note_on channel=0 note=36 velocity=94 time=15\n",
      "note_on channel=0 note=24 velocity=94 time=0\n",
      "note_on channel=0 note=24 velocity=0 time=15\n",
      "note_on channel=0 note=36 velocity=0 time=0\n",
      "note_on channel=0 note=24 velocity=94 time=15\n",
      "note_on channel=0 note=36 velocity=94 time=0\n",
      "note_on channel=0 note=36 velocity=0 time=15\n",
      "note_on channel=0 note=24 velocity=0 time=0\n",
      "note_on channel=0 note=24 velocity=94 time=15\n",
      "note_on channel=0 note=36 velocity=94 time=0\n",
      "note_on channel=0 note=36 velocity=0 time=15\n",
      "note_on channel=0 note=24 velocity=0 time=0\n",
      "note_on channel=0 note=24 velocity=94 time=15\n",
      "note_on channel=0 note=36 velocity=94 time=0\n",
      "note_on channel=0 note=36 velocity=0 time=15\n",
      "note_on channel=0 note=24 velocity=0 time=5\n",
      "note_on channel=0 note=43 velocity=94 time=3850\n",
      "note_on channel=0 note=43 velocity=0 time=170\n",
      "note_on channel=0 note=41 velocity=94 time=10\n",
      "note_on channel=0 note=41 velocity=0 time=140\n",
      "note_on channel=0 note=39 velocity=94 time=40\n",
      "note_on channel=0 note=39 velocity=0 time=40\n",
      "note_on channel=0 note=41 velocity=94 time=20\n",
      "note_on channel=0 note=41 velocity=0 time=80\n",
      "note_on channel=0 note=39 velocity=94 time=40\n",
      "note_on channel=0 note=36 velocity=94 time=0\n",
      "note_on channel=0 note=36 velocity=0 time=15\n",
      "note_on channel=0 note=39 velocity=0 time=10\n",
      "note_on channel=0 note=24 velocity=94 time=35\n",
      "note_on channel=0 note=36 velocity=94 time=0\n",
      "note_on channel=0 note=36 velocity=0 time=15\n",
      "note_on channel=0 note=24 velocity=0 time=0\n",
      "note_on channel=0 note=24 velocity=94 time=15\n",
      "note_on channel=0 note=36 velocity=94 time=0\n",
      "note_on channel=0 note=36 velocity=0 time=15\n",
      "note_on channel=0 note=24 velocity=0 time=0\n",
      "note_on channel=0 note=24 velocity=94 time=15\n",
      "note_on channel=0 note=36 velocity=94 time=0\n",
      "note_on channel=0 note=36 velocity=0 time=15\n",
      "note_on channel=0 note=24 velocity=0 time=0\n",
      "note_on channel=0 note=24 velocity=94 time=15\n",
      "note_on channel=0 note=36 velocity=94 time=0\n",
      "note_on channel=0 note=36 velocity=0 time=15\n",
      "note_on channel=0 note=24 velocity=0 time=0\n",
      "note_on channel=0 note=24 velocity=94 time=15\n",
      "note_on channel=0 note=36 velocity=94 time=0\n",
      "note_on channel=0 note=36 velocity=0 time=15\n",
      "note_on channel=0 note=24 velocity=0 time=0\n",
      "note_on channel=0 note=24 velocity=94 time=15\n",
      "note_on channel=0 note=36 velocity=94 time=0\n",
      "note_on channel=0 note=36 velocity=0 time=15\n",
      "note_on channel=0 note=24 velocity=0 time=0\n",
      "note_on channel=0 note=24 velocity=94 time=15\n",
      "note_on channel=0 note=36 velocity=94 time=0\n",
      "note_on channel=0 note=36 velocity=0 time=15\n",
      "note_on channel=0 note=24 velocity=0 time=0\n",
      "note_on channel=0 note=24 velocity=94 time=15\n",
      "note_on channel=0 note=36 velocity=94 time=0\n",
      "note_on channel=0 note=36 velocity=0 time=15\n",
      "note_on channel=0 note=24 velocity=0 time=0\n",
      "note_on channel=0 note=24 velocity=94 time=15\n",
      "note_on channel=0 note=36 velocity=94 time=0\n",
      "note_on channel=0 note=36 velocity=0 time=15\n",
      "note_on channel=0 note=24 velocity=0 time=0\n",
      "note_on channel=0 note=24 velocity=94 time=15\n",
      "note_on channel=0 note=36 velocity=94 time=0\n",
      "note_on channel=0 note=36 velocity=0 time=15\n",
      "note_on channel=0 note=24 velocity=0 time=0\n",
      "note_on channel=0 note=24 velocity=94 time=15\n",
      "note_on channel=0 note=36 velocity=94 time=0\n",
      "note_on channel=0 note=24 velocity=0 time=15\n",
      "note_on channel=0 note=36 velocity=0 time=5\n",
      "note_on channel=0 note=24 velocity=94 time=10\n",
      "note_on channel=0 note=36 velocity=94 time=0\n",
      "note_on channel=0 note=36 velocity=0 time=20\n",
      "note_on channel=0 note=24 velocity=0 time=5\n",
      "note_on channel=0 note=43 velocity=94 time=5\n",
      "note_on channel=0 note=43 velocity=0 time=155\n",
      "note_on channel=0 note=41 velocity=94 time=25\n",
      "note_on channel=0 note=41 velocity=0 time=135\n",
      "note_on channel=0 note=39 velocity=94 time=45\n",
      "note_on channel=0 note=39 velocity=0 time=35\n",
      "note_on channel=0 note=41 velocity=94 time=25\n",
      "note_on channel=0 note=41 velocity=0 time=85\n",
      "note_on channel=0 note=39 velocity=94 time=35\n",
      "note_on channel=0 note=36 velocity=94 time=0\n",
      "note_on channel=0 note=36 velocity=0 time=15\n",
      "note_on channel=0 note=39 velocity=0 time=25\n",
      "note_on channel=0 note=24 velocity=94 time=20\n",
      "note_on channel=0 note=36 velocity=94 time=0\n",
      "note_on channel=0 note=36 velocity=0 time=10\n",
      "note_on channel=0 note=24 velocity=0 time=5\n",
      "note_on channel=0 note=24 velocity=94 time=15\n",
      "note_on channel=0 note=36 velocity=94 time=0\n",
      "note_on channel=0 note=36 velocity=0 time=15\n",
      "note_on channel=0 note=24 velocity=0 time=0\n",
      "note_on channel=0 note=36 velocity=94 time=15\n",
      "note_on channel=0 note=24 velocity=94 time=0\n",
      "note_on channel=0 note=24 velocity=0 time=10\n",
      "note_on channel=0 note=36 velocity=0 time=5\n",
      "note_on channel=0 note=24 velocity=94 time=15\n",
      "note_on channel=0 note=36 velocity=94 time=0\n",
      "note_on channel=0 note=36 velocity=0 time=10\n",
      "note_on channel=0 note=24 velocity=0 time=5\n",
      "note_on channel=0 note=24 velocity=94 time=15\n",
      "note_on channel=0 note=36 velocity=94 time=0\n",
      "note_on channel=0 note=36 velocity=0 time=15\n",
      "note_on channel=0 note=24 velocity=0 time=0\n",
      "note_on channel=0 note=24 velocity=94 time=15\n",
      "note_on channel=0 note=36 velocity=94 time=0\n",
      "note_on channel=0 note=36 velocity=0 time=10\n",
      "note_on channel=0 note=24 velocity=0 time=5\n",
      "note_on channel=0 note=24 velocity=94 time=15\n",
      "note_on channel=0 note=36 velocity=94 time=0\n",
      "note_on channel=0 note=36 velocity=0 time=15\n",
      "note_on channel=0 note=24 velocity=0 time=0\n",
      "note_on channel=0 note=24 velocity=94 time=15\n",
      "note_on channel=0 note=36 velocity=94 time=0\n",
      "note_on channel=0 note=36 velocity=0 time=15\n",
      "note_on channel=0 note=24 velocity=0 time=0\n",
      "note_on channel=0 note=24 velocity=94 time=15\n",
      "note_on channel=0 note=36 velocity=94 time=0\n",
      "note_on channel=0 note=36 velocity=0 time=15\n",
      "note_on channel=0 note=24 velocity=0 time=5\n",
      "note_on channel=0 note=24 velocity=94 time=10\n",
      "note_on channel=0 note=36 velocity=94 time=0\n",
      "note_on channel=0 note=36 velocity=0 time=15\n",
      "note_on channel=0 note=24 velocity=0 time=0\n",
      "note_on channel=0 note=24 velocity=94 time=15\n",
      "note_on channel=0 note=36 velocity=94 time=0\n",
      "note_on channel=0 note=24 velocity=0 time=15\n",
      "note_on channel=0 note=36 velocity=0 time=5\n",
      "note_on channel=0 note=24 velocity=94 time=10\n",
      "note_on channel=0 note=36 velocity=94 time=0\n",
      "note_on channel=0 note=36 velocity=0 time=15\n",
      "note_on channel=0 note=24 velocity=0 time=10\n",
      "note_on channel=0 note=17 velocity=94 time=7685\n",
      "note_on channel=0 note=17 velocity=0 time=100\n",
      "note_on channel=0 note=17 velocity=94 time=25\n",
      "note_on channel=0 note=17 velocity=0 time=90\n",
      "note_on channel=0 note=17 velocity=94 time=25\n",
      "note_on channel=0 note=17 velocity=0 time=95\n",
      "note_on channel=0 note=17 velocity=94 time=30\n",
      "note_on channel=0 note=17 velocity=0 time=85\n",
      "note_on channel=0 note=17 velocity=94 time=25\n",
      "note_on channel=0 note=17 velocity=0 time=100\n",
      "note_on channel=0 note=17 velocity=94 time=25\n",
      "note_on channel=0 note=17 velocity=0 time=90\n",
      "note_on channel=0 note=17 velocity=94 time=25\n",
      "note_on channel=0 note=17 velocity=0 time=95\n",
      "note_on channel=0 note=17 velocity=94 time=30\n",
      "note_on channel=0 note=17 velocity=0 time=85\n",
      "note_on channel=0 note=17 velocity=94 time=1000\n",
      "note_on channel=0 note=17 velocity=0 time=90\n",
      "note_on channel=0 note=17 velocity=94 time=25\n",
      "note_on channel=0 note=17 velocity=0 time=90\n",
      "note_on channel=0 note=17 velocity=94 time=30\n",
      "note_on channel=0 note=17 velocity=0 time=90\n",
      "note_on channel=0 note=17 velocity=94 time=30\n",
      "note_on channel=0 note=17 velocity=0 time=90\n",
      "note_on channel=0 note=17 velocity=94 time=30\n",
      "note_on channel=0 note=17 velocity=0 time=100\n",
      "note_on channel=0 note=17 velocity=94 time=25\n",
      "note_on channel=0 note=17 velocity=0 time=85\n",
      "note_on channel=0 note=17 velocity=94 time=30\n",
      "note_on channel=0 note=17 velocity=0 time=85\n",
      "note_on channel=0 note=17 velocity=94 time=35\n",
      "note_on channel=0 note=17 velocity=0 time=95\n",
      "note_on channel=0 note=43 velocity=94 time=985\n",
      "note_on channel=0 note=43 velocity=0 time=170\n",
      "note_on channel=0 note=41 velocity=94 time=10\n",
      "note_on channel=0 note=41 velocity=0 time=130\n",
      "note_on channel=0 note=39 velocity=94 time=50\n",
      "note_on channel=0 note=39 velocity=0 time=40\n",
      "note_on channel=0 note=41 velocity=94 time=20\n",
      "note_on channel=0 note=41 velocity=0 time=95\n",
      "note_on channel=0 note=39 velocity=94 time=25\n",
      "note_on channel=0 note=36 velocity=94 time=0\n",
      "note_on channel=0 note=36 velocity=0 time=20\n",
      "note_on channel=0 note=39 velocity=0 time=20\n",
      "note_on channel=0 note=24 velocity=94 time=20\n",
      "note_on channel=0 note=36 velocity=94 time=0\n",
      "note_on channel=0 note=36 velocity=0 time=15\n",
      "note_on channel=0 note=24 velocity=0 time=0\n",
      "note_on channel=0 note=24 velocity=94 time=15\n",
      "note_on channel=0 note=36 velocity=94 time=0\n",
      "note_on channel=0 note=36 velocity=0 time=15\n",
      "note_on channel=0 note=24 velocity=0 time=5\n",
      "note_on channel=0 note=36 velocity=94 time=10\n",
      "note_on channel=0 note=24 velocity=94 time=0\n",
      "note_on channel=0 note=24 velocity=0 time=15\n",
      "note_on channel=0 note=36 velocity=0 time=0\n",
      "note_on channel=0 note=24 velocity=94 time=15\n",
      "note_on channel=0 note=36 velocity=94 time=0\n",
      "note_on channel=0 note=36 velocity=0 time=15\n",
      "note_on channel=0 note=24 velocity=0 time=0\n",
      "note_on channel=0 note=24 velocity=94 time=15\n",
      "note_on channel=0 note=36 velocity=94 time=0\n",
      "note_on channel=0 note=36 velocity=0 time=15\n",
      "note_on channel=0 note=24 velocity=0 time=0\n",
      "note_on channel=0 note=24 velocity=94 time=15\n",
      "note_on channel=0 note=36 velocity=94 time=0\n",
      "note_on channel=0 note=36 velocity=0 time=15\n",
      "note_on channel=0 note=24 velocity=0 time=0\n",
      "note_on channel=0 note=24 velocity=94 time=15\n",
      "note_on channel=0 note=36 velocity=94 time=0\n",
      "note_on channel=0 note=36 velocity=0 time=15\n",
      "note_on channel=0 note=24 velocity=0 time=5\n",
      "note_on channel=0 note=24 velocity=94 time=10\n",
      "note_on channel=0 note=36 velocity=94 time=0\n",
      "note_on channel=0 note=36 velocity=0 time=15\n",
      "note_on channel=0 note=24 velocity=0 time=0\n",
      "note_on channel=0 note=24 velocity=94 time=15\n",
      "note_on channel=0 note=36 velocity=94 time=0\n",
      "note_on channel=0 note=36 velocity=0 time=15\n",
      "note_on channel=0 note=24 velocity=0 time=5\n",
      "note_on channel=0 note=24 velocity=94 time=10\n",
      "note_on channel=0 note=36 velocity=94 time=0\n",
      "note_on channel=0 note=36 velocity=0 time=15\n",
      "note_on channel=0 note=24 velocity=0 time=0\n",
      "note_on channel=0 note=36 velocity=94 time=15\n",
      "note_on channel=0 note=24 velocity=94 time=0\n",
      "note_on channel=0 note=36 velocity=0 time=15\n",
      "note_on channel=0 note=24 velocity=0 time=5\n",
      "note_on channel=0 note=24 velocity=94 time=10\n",
      "note_on channel=0 note=36 velocity=94 time=0\n",
      "note_on channel=0 note=36 velocity=0 time=20\n",
      "note_on channel=0 note=24 velocity=0 time=5\n",
      "note_on channel=0 note=43 velocity=94 time=5\n",
      "note_on channel=0 note=43 velocity=0 time=145\n",
      "note_on channel=0 note=41 velocity=94 time=35\n",
      "note_on channel=0 note=41 velocity=0 time=135\n",
      "note_on channel=0 note=39 velocity=94 time=45\n",
      "note_on channel=0 note=39 velocity=0 time=35\n",
      "note_on channel=0 note=41 velocity=94 time=25\n",
      "note_on channel=0 note=41 velocity=0 time=85\n",
      "note_on channel=0 note=39 velocity=94 time=35\n",
      "note_on channel=0 note=36 velocity=94 time=0\n",
      "note_on channel=0 note=36 velocity=0 time=15\n",
      "note_on channel=0 note=39 velocity=0 time=25\n",
      "note_on channel=0 note=24 velocity=94 time=20\n",
      "note_on channel=0 note=36 velocity=94 time=0\n",
      "note_on channel=0 note=36 velocity=0 time=10\n",
      "note_on channel=0 note=24 velocity=0 time=5\n",
      "note_on channel=0 note=24 velocity=94 time=15\n",
      "note_on channel=0 note=36 velocity=94 time=0\n",
      "note_on channel=0 note=36 velocity=0 time=10\n",
      "note_on channel=0 note=24 velocity=0 time=10\n",
      "note_on channel=0 note=24 velocity=94 time=10\n",
      "note_on channel=0 note=36 velocity=94 time=0\n",
      "note_on channel=0 note=36 velocity=0 time=10\n",
      "note_on channel=0 note=24 velocity=0 time=5\n",
      "note_on channel=0 note=24 velocity=94 time=15\n",
      "note_on channel=0 note=36 velocity=94 time=0\n",
      "note_on channel=0 note=36 velocity=0 time=10\n",
      "note_on channel=0 note=24 velocity=0 time=5\n",
      "note_on channel=0 note=24 velocity=94 time=15\n",
      "note_on channel=0 note=36 velocity=94 time=0\n",
      "note_on channel=0 note=36 velocity=0 time=15\n",
      "note_on channel=0 note=24 velocity=0 time=0\n",
      "note_on channel=0 note=24 velocity=94 time=15\n",
      "note_on channel=0 note=36 velocity=94 time=0\n",
      "note_on channel=0 note=36 velocity=0 time=10\n",
      "note_on channel=0 note=24 velocity=0 time=5\n",
      "note_on channel=0 note=24 velocity=94 time=15\n",
      "note_on channel=0 note=36 velocity=94 time=0\n",
      "note_on channel=0 note=36 velocity=0 time=15\n",
      "note_on channel=0 note=24 velocity=0 time=0\n",
      "note_on channel=0 note=24 velocity=94 time=15\n",
      "note_on channel=0 note=36 velocity=94 time=0\n",
      "note_on channel=0 note=36 velocity=0 time=15\n",
      "note_on channel=0 note=24 velocity=0 time=0\n",
      "note_on channel=0 note=24 velocity=94 time=15\n",
      "note_on channel=0 note=36 velocity=94 time=0\n",
      "note_on channel=0 note=36 velocity=0 time=15\n",
      "note_on channel=0 note=24 velocity=0 time=5\n",
      "note_on channel=0 note=36 velocity=94 time=10\n",
      "note_on channel=0 note=24 velocity=94 time=0\n",
      "note_on channel=0 note=24 velocity=0 time=15\n",
      "note_on channel=0 note=36 velocity=0 time=0\n",
      "note_on channel=0 note=24 velocity=94 time=15\n",
      "note_on channel=0 note=36 velocity=94 time=0\n",
      "note_on channel=0 note=36 velocity=0 time=15\n",
      "note_on channel=0 note=24 velocity=0 time=0\n",
      "note_on channel=0 note=36 velocity=94 time=15\n",
      "note_on channel=0 note=24 velocity=94 time=0\n",
      "note_on channel=0 note=36 velocity=0 time=15\n",
      "note_on channel=0 note=24 velocity=0 time=5\n",
      "note_on channel=0 note=43 velocity=94 time=7690\n",
      "note_on channel=0 note=43 velocity=0 time=170\n",
      "note_on channel=0 note=41 velocity=94 time=10\n",
      "note_on channel=0 note=41 velocity=0 time=140\n",
      "note_on channel=0 note=39 velocity=94 time=40\n",
      "note_on channel=0 note=39 velocity=0 time=40\n",
      "note_on channel=0 note=41 velocity=94 time=20\n",
      "note_on channel=0 note=41 velocity=0 time=95\n",
      "note_on channel=0 note=39 velocity=94 time=25\n",
      "note_on channel=0 note=39 velocity=0 time=15\n",
      "note_on channel=0 note=36 velocity=94 time=45\n",
      "note_on channel=0 note=24 velocity=94 time=0\n",
      "note_on channel=0 note=36 velocity=0 time=10\n",
      "note_on channel=0 note=24 velocity=0 time=5\n",
      "note_on channel=0 note=24 velocity=94 time=15\n",
      "note_on channel=0 note=36 velocity=94 time=0\n",
      "note_on channel=0 note=36 velocity=0 time=15\n",
      "note_on channel=0 note=24 velocity=0 time=0\n",
      "note_on channel=0 note=36 velocity=94 time=15\n",
      "note_on channel=0 note=24 velocity=94 time=0\n",
      "note_on channel=0 note=24 velocity=0 time=15\n",
      "note_on channel=0 note=36 velocity=0 time=0\n",
      "note_on channel=0 note=36 velocity=94 time=15\n",
      "note_on channel=0 note=24 velocity=94 time=0\n",
      "note_on channel=0 note=24 velocity=0 time=15\n",
      "note_on channel=0 note=36 velocity=0 time=0\n",
      "note_on channel=0 note=36 velocity=94 time=15\n",
      "note_on channel=0 note=24 velocity=94 time=0\n",
      "note_on channel=0 note=36 velocity=0 time=15\n",
      "note_on channel=0 note=24 velocity=0 time=5\n",
      "note_on channel=0 note=36 velocity=94 time=10\n",
      "note_on channel=0 note=24 velocity=94 time=0\n",
      "note_on channel=0 note=24 velocity=0 time=15\n",
      "note_on channel=0 note=36 velocity=0 time=0\n",
      "note_on channel=0 note=24 velocity=94 time=15\n",
      "note_on channel=0 note=36 velocity=94 time=0\n",
      "note_on channel=0 note=36 velocity=0 time=15\n",
      "note_on channel=0 note=24 velocity=0 time=5\n",
      "note_on channel=0 note=36 velocity=94 time=10\n",
      "note_on channel=0 note=24 velocity=94 time=0\n",
      "note_on channel=0 note=24 velocity=0 time=15\n",
      "note_on channel=0 note=36 velocity=0 time=0\n",
      "note_on channel=0 note=24 velocity=94 time=15\n",
      "note_on channel=0 note=36 velocity=94 time=0\n",
      "note_on channel=0 note=36 velocity=0 time=15\n",
      "note_on channel=0 note=24 velocity=0 time=5\n",
      "note_on channel=0 note=36 velocity=94 time=10\n",
      "note_on channel=0 note=24 velocity=94 time=0\n",
      "note_on channel=0 note=24 velocity=0 time=15\n",
      "note_on channel=0 note=36 velocity=0 time=0\n",
      "note_on channel=0 note=24 velocity=94 time=15\n",
      "note_on channel=0 note=36 velocity=94 time=0\n",
      "note_on channel=0 note=36 velocity=0 time=15\n",
      "note_on channel=0 note=24 velocity=0 time=5\n",
      "note_on channel=0 note=24 velocity=94 time=10\n",
      "note_on channel=0 note=36 velocity=94 time=0\n",
      "note_on channel=0 note=36 velocity=0 time=15\n",
      "note_on channel=0 note=31 velocity=94 time=15\n",
      "note_on channel=0 note=43 velocity=94 time=0\n",
      "note_on channel=0 note=24 velocity=0 time=5\n",
      "note_on channel=0 note=43 velocity=0 time=145\n",
      "note_on channel=0 note=31 velocity=0 time=15\n",
      "note_on channel=0 note=41 velocity=94 time=15\n",
      "note_on channel=0 note=29 velocity=94 time=0\n",
      "note_on channel=0 note=41 velocity=0 time=140\n",
      "note_on channel=0 note=29 velocity=0 time=5\n",
      "note_on channel=0 note=27 velocity=94 time=35\n",
      "note_on channel=0 note=39 velocity=94 time=0\n",
      "note_on channel=0 note=39 velocity=0 time=30\n",
      "note_on channel=0 note=27 velocity=0 time=10\n",
      "note_on channel=0 note=41 velocity=94 time=20\n",
      "note_on channel=0 note=29 velocity=94 time=0\n",
      "note_on channel=0 note=29 velocity=0 time=80\n",
      "note_on channel=0 note=41 velocity=0 time=10\n",
      "note_on channel=0 note=39 velocity=94 time=30\n",
      "note_on channel=0 note=24 velocity=94 time=0\n",
      "note_on channel=0 note=39 velocity=0 time=15\n",
      "note_on channel=0 note=24 velocity=0 time=5\n",
      "note_on channel=0 note=36 velocity=94 time=40\n",
      "note_on channel=0 note=24 velocity=94 time=0\n",
      "note_on channel=0 note=24 velocity=0 time=15\n",
      "note_on channel=0 note=36 velocity=0 time=0\n",
      "note_on channel=0 note=36 velocity=94 time=15\n",
      "note_on channel=0 note=24 velocity=94 time=0\n",
      "note_on channel=0 note=36 velocity=0 time=15\n",
      "note_on channel=0 note=24 velocity=0 time=5\n",
      "note_on channel=0 note=24 velocity=94 time=10\n",
      "note_on channel=0 note=36 velocity=94 time=0\n",
      "note_on channel=0 note=36 velocity=0 time=15\n",
      "note_on channel=0 note=24 velocity=0 time=0\n",
      "note_on channel=0 note=36 velocity=94 time=15\n",
      "note_on channel=0 note=24 velocity=94 time=0\n",
      "note_on channel=0 note=36 velocity=0 time=10\n",
      "note_on channel=0 note=24 velocity=0 time=5\n",
      "note_on channel=0 note=24 velocity=94 time=15\n",
      "note_on channel=0 note=36 velocity=94 time=0\n",
      "note_on channel=0 note=36 velocity=0 time=15\n",
      "note_on channel=0 note=24 velocity=0 time=0\n",
      "note_on channel=0 note=36 velocity=94 time=15\n",
      "note_on channel=0 note=24 velocity=94 time=0\n",
      "note_on channel=0 note=24 velocity=0 time=15\n",
      "note_on channel=0 note=36 velocity=0 time=0\n",
      "note_on channel=0 note=24 velocity=94 time=15\n",
      "note_on channel=0 note=36 velocity=94 time=0\n",
      "note_on channel=0 note=36 velocity=0 time=10\n",
      "note_on channel=0 note=24 velocity=0 time=10\n",
      "note_on channel=0 note=36 velocity=94 time=10\n",
      "note_on channel=0 note=24 velocity=94 time=0\n",
      "note_on channel=0 note=24 velocity=0 time=15\n",
      "note_on channel=0 note=36 velocity=0 time=0\n",
      "note_on channel=0 note=36 velocity=94 time=15\n",
      "note_on channel=0 note=24 velocity=94 time=0\n",
      "note_on channel=0 note=36 velocity=0 time=15\n",
      "note_on channel=0 note=24 velocity=0 time=5\n",
      "note_on channel=0 note=36 velocity=94 time=10\n",
      "note_on channel=0 note=24 velocity=94 time=0\n",
      "note_on channel=0 note=24 velocity=0 time=15\n",
      "note_on channel=0 note=36 velocity=0 time=0\n",
      "note_on channel=0 note=36 velocity=94 time=15\n",
      "note_on channel=0 note=24 velocity=94 time=0\n",
      "note_on channel=0 note=24 velocity=0 time=20\n",
      "note_on channel=0 note=36 velocity=0 time=0\n",
      "note_on channel=0 note=36 velocity=94 time=10\n",
      "note_on channel=0 note=24 velocity=94 time=0\n",
      "note_on channel=0 note=36 velocity=0 time=10\n",
      "note_on channel=0 note=24 velocity=0 time=5\n",
      "<meta message end_of_track time=0>\n",
      "Track 3: Split Chan 16 \n",
      "<meta message midi_port port=0 time=0>\n",
      "<meta message track_name name='Split Chan 16 ' time=0>\n",
      "program_change channel=1 program=87 time=0\n",
      "control_change channel=1 control=7 value=105 time=0\n",
      "control_change channel=1 control=10 value=64 time=0\n",
      "program_change channel=1 program=87 time=126\n",
      "note_on channel=1 note=48 velocity=84 time=4194\n",
      "note_on channel=1 note=48 velocity=0 time=25\n",
      "note_on channel=1 note=36 velocity=84 time=5\n",
      "note_on channel=1 note=36 velocity=0 time=30\n",
      "note_on channel=1 note=48 velocity=84 time=0\n",
      "note_on channel=1 note=48 velocity=0 time=5\n",
      "note_on channel=1 note=48 velocity=84 time=25\n",
      "note_on channel=1 note=48 velocity=0 time=20\n",
      "note_on channel=1 note=36 velocity=84 time=10\n",
      "note_on channel=1 note=36 velocity=0 time=20\n",
      "note_on channel=1 note=48 velocity=84 time=10\n",
      "note_on channel=1 note=48 velocity=0 time=20\n",
      "note_on channel=1 note=36 velocity=84 time=10\n",
      "note_on channel=1 note=36 velocity=0 time=10\n",
      "note_on channel=1 note=36 velocity=84 time=20\n",
      "note_on channel=1 note=36 velocity=0 time=15\n",
      "note_on channel=1 note=48 velocity=84 time=15\n",
      "note_on channel=1 note=48 velocity=0 time=20\n",
      "note_on channel=1 note=36 velocity=84 time=10\n",
      "note_on channel=1 note=36 velocity=0 time=20\n",
      "note_on channel=1 note=48 velocity=84 time=10\n",
      "note_on channel=1 note=48 velocity=0 time=10\n",
      "note_on channel=1 note=48 velocity=84 time=20\n",
      "note_on channel=1 note=48 velocity=0 time=20\n",
      "note_on channel=1 note=36 velocity=84 time=10\n",
      "note_on channel=1 note=36 velocity=0 time=20\n",
      "note_on channel=1 note=48 velocity=84 time=10\n",
      "note_on channel=1 note=48 velocity=0 time=25\n",
      "note_on channel=1 note=36 velocity=84 time=5\n",
      "note_on channel=1 note=36 velocity=0 time=10\n",
      "note_on channel=1 note=36 velocity=84 time=20\n",
      "note_on channel=1 note=36 velocity=0 time=15\n",
      "note_on channel=1 note=48 velocity=84 time=15\n",
      "note_on channel=1 note=48 velocity=0 time=25\n",
      "note_on channel=1 note=36 velocity=84 time=5\n",
      "note_on channel=1 note=36 velocity=0 time=25\n",
      "note_on channel=1 note=48 velocity=84 time=5\n",
      "note_on channel=1 note=48 velocity=0 time=5\n",
      "note_on channel=1 note=48 velocity=84 time=25\n",
      "note_on channel=1 note=48 velocity=0 time=20\n",
      "note_on channel=1 note=36 velocity=84 time=10\n",
      "note_on channel=1 note=36 velocity=0 time=15\n",
      "note_on channel=1 note=48 velocity=84 time=15\n",
      "note_on channel=1 note=48 velocity=0 time=25\n",
      "note_on channel=1 note=36 velocity=84 time=5\n",
      "note_on channel=1 note=36 velocity=0 time=10\n",
      "note_on channel=1 note=36 velocity=84 time=20\n",
      "note_on channel=1 note=36 velocity=0 time=15\n",
      "note_on channel=1 note=48 velocity=84 time=15\n",
      "note_on channel=1 note=48 velocity=0 time=20\n",
      "note_on channel=1 note=36 velocity=84 time=10\n",
      "note_on channel=1 note=36 velocity=0 time=25\n",
      "note_on channel=1 note=48 velocity=84 time=5\n",
      "note_on channel=1 note=48 velocity=0 time=10\n",
      "note_on channel=1 note=48 velocity=84 time=20\n",
      "note_on channel=1 note=48 velocity=0 time=20\n",
      "note_on channel=1 note=36 velocity=84 time=10\n",
      "note_on channel=1 note=36 velocity=0 time=20\n",
      "note_on channel=1 note=48 velocity=84 time=10\n",
      "note_on channel=1 note=48 velocity=0 time=25\n",
      "note_on channel=1 note=36 velocity=84 time=5\n",
      "note_on channel=1 note=36 velocity=0 time=10\n",
      "note_on channel=1 note=36 velocity=84 time=20\n",
      "note_on channel=1 note=36 velocity=0 time=20\n",
      "note_on channel=1 note=48 velocity=84 time=10\n",
      "note_on channel=1 note=48 velocity=0 time=20\n",
      "note_on channel=1 note=36 velocity=84 time=10\n",
      "note_on channel=1 note=36 velocity=0 time=20\n",
      "note_on channel=1 note=48 velocity=84 time=10\n",
      "note_on channel=1 note=48 velocity=0 time=10\n",
      "note_on channel=1 note=48 velocity=84 time=20\n",
      "note_on channel=1 note=48 velocity=0 time=20\n",
      "note_on channel=1 note=36 velocity=84 time=10\n",
      "note_on channel=1 note=36 velocity=0 time=20\n",
      "note_on channel=1 note=48 velocity=84 time=10\n",
      "note_on channel=1 note=48 velocity=0 time=25\n",
      "note_on channel=1 note=36 velocity=84 time=5\n",
      "note_on channel=1 note=36 velocity=0 time=5\n",
      "note_on channel=1 note=36 velocity=84 time=25\n",
      "note_on channel=1 note=36 velocity=0 time=15\n",
      "note_on channel=1 note=48 velocity=84 time=15\n",
      "note_on channel=1 note=48 velocity=0 time=20\n",
      "note_on channel=1 note=36 velocity=84 time=10\n",
      "note_on channel=1 note=36 velocity=0 time=20\n",
      "note_on channel=1 note=48 velocity=84 time=10\n",
      "note_on channel=1 note=48 velocity=0 time=10\n",
      "note_on channel=1 note=48 velocity=84 time=20\n",
      "note_on channel=1 note=48 velocity=0 time=20\n",
      "note_on channel=1 note=36 velocity=84 time=10\n",
      "note_on channel=1 note=36 velocity=0 time=20\n",
      "note_on channel=1 note=48 velocity=84 time=10\n",
      "note_on channel=1 note=48 velocity=0 time=25\n",
      "note_on channel=1 note=36 velocity=84 time=5\n",
      "note_on channel=1 note=36 velocity=0 time=10\n",
      "note_on channel=1 note=36 velocity=84 time=20\n",
      "note_on channel=1 note=36 velocity=0 time=15\n",
      "note_on channel=1 note=48 velocity=84 time=15\n",
      "note_on channel=1 note=48 velocity=0 time=20\n",
      "note_on channel=1 note=36 velocity=84 time=10\n",
      "note_on channel=1 note=36 velocity=0 time=20\n",
      "note_on channel=1 note=48 velocity=84 time=10\n",
      "note_on channel=1 note=48 velocity=0 time=10\n",
      "note_on channel=1 note=48 velocity=84 time=20\n",
      "note_on channel=1 note=48 velocity=0 time=20\n",
      "note_on channel=1 note=36 velocity=84 time=10\n",
      "note_on channel=1 note=36 velocity=0 time=20\n",
      "note_on channel=1 note=48 velocity=84 time=10\n",
      "note_on channel=1 note=48 velocity=0 time=25\n",
      "note_on channel=1 note=36 velocity=84 time=5\n",
      "note_on channel=1 note=36 velocity=0 time=10\n",
      "note_on channel=1 note=36 velocity=84 time=20\n",
      "note_on channel=1 note=36 velocity=0 time=15\n",
      "note_on channel=1 note=48 velocity=84 time=15\n",
      "note_on channel=1 note=48 velocity=0 time=20\n",
      "note_on channel=1 note=36 velocity=84 time=10\n",
      "note_on channel=1 note=36 velocity=0 time=20\n",
      "note_on channel=1 note=48 velocity=84 time=10\n",
      "note_on channel=1 note=48 velocity=0 time=10\n",
      "note_on channel=1 note=48 velocity=84 time=20\n",
      "note_on channel=1 note=48 velocity=0 time=20\n",
      "note_on channel=1 note=36 velocity=84 time=10\n",
      "note_on channel=1 note=36 velocity=0 time=20\n",
      "note_on channel=1 note=48 velocity=84 time=10\n",
      "note_on channel=1 note=48 velocity=0 time=25\n",
      "note_on channel=1 note=36 velocity=84 time=5\n",
      "note_on channel=1 note=36 velocity=0 time=10\n",
      "note_on channel=1 note=36 velocity=84 time=20\n",
      "note_on channel=1 note=36 velocity=0 time=15\n",
      "note_on channel=1 note=48 velocity=84 time=15\n",
      "note_on channel=1 note=48 velocity=0 time=20\n",
      "note_on channel=1 note=36 velocity=84 time=10\n",
      "note_on channel=1 note=36 velocity=0 time=20\n",
      "note_on channel=1 note=48 velocity=84 time=10\n",
      "note_on channel=1 note=48 velocity=0 time=10\n",
      "note_on channel=1 note=48 velocity=84 time=20\n",
      "note_on channel=1 note=48 velocity=0 time=15\n",
      "note_on channel=1 note=36 velocity=84 time=15\n",
      "note_on channel=1 note=36 velocity=0 time=20\n",
      "note_on channel=1 note=48 velocity=84 time=10\n",
      "note_on channel=1 note=48 velocity=0 time=25\n",
      "note_on channel=1 note=36 velocity=84 time=5\n",
      "note_on channel=1 note=36 velocity=0 time=10\n",
      "note_on channel=1 note=36 velocity=84 time=20\n",
      "note_on channel=1 note=36 velocity=0 time=15\n",
      "note_on channel=1 note=48 velocity=84 time=15\n",
      "note_on channel=1 note=48 velocity=0 time=20\n",
      "note_on channel=1 note=36 velocity=84 time=10\n",
      "note_on channel=1 note=36 velocity=0 time=20\n",
      "note_on channel=1 note=48 velocity=84 time=10\n",
      "note_on channel=1 note=48 velocity=0 time=10\n",
      "note_on channel=1 note=48 velocity=84 time=20\n",
      "note_on channel=1 note=48 velocity=0 time=20\n",
      "note_on channel=1 note=36 velocity=84 time=10\n",
      "note_on channel=1 note=36 velocity=0 time=20\n",
      "note_on channel=1 note=48 velocity=84 time=10\n",
      "note_on channel=1 note=48 velocity=0 time=25\n",
      "note_on channel=1 note=36 velocity=84 time=5\n",
      "note_on channel=1 note=36 velocity=0 time=10\n",
      "note_on channel=1 note=36 velocity=84 time=20\n",
      "note_on channel=1 note=36 velocity=0 time=20\n",
      "note_on channel=1 note=48 velocity=84 time=10\n",
      "note_on channel=1 note=48 velocity=0 time=25\n",
      "note_on channel=1 note=36 velocity=84 time=5\n",
      "note_on channel=1 note=36 velocity=0 time=20\n",
      "note_on channel=1 note=48 velocity=84 time=10\n",
      "note_on channel=1 note=48 velocity=0 time=10\n",
      "note_on channel=1 note=48 velocity=84 time=20\n",
      "note_on channel=1 note=48 velocity=0 time=20\n",
      "note_on channel=1 note=36 velocity=84 time=10\n",
      "note_on channel=1 note=36 velocity=0 time=20\n",
      "note_on channel=1 note=48 velocity=84 time=10\n",
      "note_on channel=1 note=48 velocity=0 time=25\n",
      "note_on channel=1 note=36 velocity=84 time=5\n",
      "note_on channel=1 note=36 velocity=0 time=10\n",
      "note_on channel=1 note=36 velocity=84 time=20\n",
      "note_on channel=1 note=36 velocity=0 time=20\n",
      "note_on channel=1 note=48 velocity=84 time=10\n",
      "note_on channel=1 note=48 velocity=0 time=20\n",
      "note_on channel=1 note=36 velocity=84 time=10\n",
      "note_on channel=1 note=36 velocity=0 time=20\n",
      "note_on channel=1 note=48 velocity=84 time=10\n",
      "note_on channel=1 note=48 velocity=0 time=5\n",
      "note_on channel=1 note=48 velocity=84 time=25\n",
      "note_on channel=1 note=48 velocity=0 time=20\n",
      "note_on channel=1 note=36 velocity=84 time=10\n",
      "note_on channel=1 note=36 velocity=0 time=20\n",
      "note_on channel=1 note=48 velocity=84 time=10\n",
      "note_on channel=1 note=48 velocity=0 time=25\n",
      "note_on channel=1 note=36 velocity=84 time=5\n",
      "note_on channel=1 note=36 velocity=0 time=5\n",
      "note_on channel=1 note=36 velocity=84 time=25\n",
      "note_on channel=1 note=36 velocity=0 time=15\n",
      "note_on channel=1 note=48 velocity=84 time=15\n",
      "note_on channel=1 note=48 velocity=0 time=20\n",
      "note_on channel=1 note=36 velocity=84 time=10\n",
      "note_on channel=1 note=36 velocity=0 time=20\n",
      "note_on channel=1 note=48 velocity=84 time=10\n",
      "note_on channel=1 note=48 velocity=0 time=5\n",
      "note_on channel=1 note=48 velocity=84 time=25\n",
      "note_on channel=1 note=48 velocity=0 time=15\n",
      "note_on channel=1 note=36 velocity=84 time=15\n",
      "note_on channel=1 note=36 velocity=0 time=20\n",
      "note_on channel=1 note=48 velocity=84 time=10\n",
      "note_on channel=1 note=48 velocity=0 time=25\n",
      "note_on channel=1 note=36 velocity=84 time=5\n",
      "note_on channel=1 note=36 velocity=0 time=10\n",
      "note_on channel=1 note=36 velocity=84 time=20\n",
      "note_on channel=1 note=36 velocity=0 time=15\n",
      "note_on channel=1 note=48 velocity=84 time=15\n",
      "note_on channel=1 note=48 velocity=0 time=20\n",
      "note_on channel=1 note=36 velocity=84 time=10\n",
      "note_on channel=1 note=36 velocity=0 time=20\n",
      "note_on channel=1 note=48 velocity=84 time=10\n",
      "note_on channel=1 note=48 velocity=0 time=10\n",
      "note_on channel=1 note=48 velocity=84 time=20\n",
      "note_on channel=1 note=48 velocity=0 time=20\n",
      "note_on channel=1 note=36 velocity=84 time=10\n",
      "note_on channel=1 note=36 velocity=0 time=20\n",
      "note_on channel=1 note=48 velocity=84 time=10\n",
      "note_on channel=1 note=48 velocity=0 time=25\n",
      "note_on channel=1 note=36 velocity=84 time=5\n",
      "note_on channel=1 note=36 velocity=0 time=10\n",
      "note_on channel=1 note=36 velocity=84 time=20\n",
      "note_on channel=1 note=36 velocity=0 time=15\n",
      "note_on channel=1 note=48 velocity=84 time=15\n",
      "note_on channel=1 note=48 velocity=0 time=20\n",
      "note_on channel=1 note=36 velocity=84 time=10\n",
      "note_on channel=1 note=36 velocity=0 time=20\n",
      "note_on channel=1 note=48 velocity=84 time=10\n",
      "note_on channel=1 note=48 velocity=0 time=5\n",
      "note_on channel=1 note=48 velocity=84 time=25\n",
      "note_on channel=1 note=48 velocity=0 time=20\n",
      "note_on channel=1 note=36 velocity=84 time=10\n",
      "note_on channel=1 note=36 velocity=0 time=20\n",
      "note_on channel=1 note=48 velocity=84 time=10\n",
      "note_on channel=1 note=48 velocity=0 time=20\n",
      "note_on channel=1 note=36 velocity=84 time=10\n",
      "note_on channel=1 note=36 velocity=0 time=5\n",
      "note_on channel=1 note=36 velocity=84 time=25\n",
      "note_on channel=1 note=36 velocity=0 time=15\n",
      "note_on channel=1 note=48 velocity=84 time=15\n",
      "note_on channel=1 note=48 velocity=0 time=20\n",
      "note_on channel=1 note=36 velocity=84 time=10\n",
      "note_on channel=1 note=36 velocity=0 time=20\n",
      "note_on channel=1 note=48 velocity=84 time=10\n",
      "note_on channel=1 note=48 velocity=0 time=10\n",
      "note_on channel=1 note=48 velocity=84 time=20\n",
      "note_on channel=1 note=48 velocity=0 time=20\n",
      "note_on channel=1 note=36 velocity=84 time=10\n",
      "note_on channel=1 note=36 velocity=0 time=20\n",
      "note_on channel=1 note=48 velocity=84 time=10\n",
      "note_on channel=1 note=48 velocity=0 time=25\n",
      "note_on channel=1 note=36 velocity=84 time=5\n",
      "note_on channel=1 note=36 velocity=0 time=10\n",
      "note_on channel=1 note=36 velocity=84 time=20\n",
      "note_on channel=1 note=36 velocity=0 time=15\n",
      "note_on channel=1 note=48 velocity=84 time=15\n",
      "note_on channel=1 note=48 velocity=0 time=20\n",
      "note_on channel=1 note=36 velocity=84 time=10\n",
      "note_on channel=1 note=36 velocity=0 time=20\n",
      "note_on channel=1 note=48 velocity=84 time=10\n",
      "note_on channel=1 note=48 velocity=0 time=10\n",
      "note_on channel=1 note=48 velocity=84 time=20\n",
      "note_on channel=1 note=48 velocity=0 time=20\n",
      "note_on channel=1 note=36 velocity=84 time=10\n",
      "note_on channel=1 note=36 velocity=0 time=15\n",
      "note_on channel=1 note=48 velocity=84 time=15\n",
      "note_on channel=1 note=48 velocity=0 time=25\n",
      "note_on channel=1 note=36 velocity=84 time=5\n",
      "note_on channel=1 note=36 velocity=0 time=5\n",
      "note_on channel=1 note=36 velocity=84 time=25\n",
      "note_on channel=1 note=36 velocity=0 time=15\n",
      "note_on channel=1 note=48 velocity=84 time=15\n",
      "note_on channel=1 note=48 velocity=0 time=20\n",
      "note_on channel=1 note=36 velocity=84 time=10\n",
      "note_on channel=1 note=36 velocity=0 time=20\n",
      "note_on channel=1 note=48 velocity=84 time=10\n",
      "note_on channel=1 note=48 velocity=0 time=10\n",
      "note_on channel=1 note=48 velocity=84 time=20\n",
      "note_on channel=1 note=48 velocity=0 time=20\n",
      "note_on channel=1 note=36 velocity=84 time=10\n",
      "note_on channel=1 note=36 velocity=0 time=25\n",
      "note_on channel=1 note=48 velocity=84 time=5\n",
      "note_on channel=1 note=48 velocity=0 time=20\n",
      "note_on channel=1 note=36 velocity=84 time=10\n",
      "note_on channel=1 note=36 velocity=0 time=10\n",
      "note_on channel=1 note=36 velocity=84 time=20\n",
      "note_on channel=1 note=36 velocity=0 time=10\n",
      "note_on channel=1 note=48 velocity=84 time=20\n",
      "note_on channel=1 note=48 velocity=0 time=20\n",
      "note_on channel=1 note=36 velocity=84 time=10\n",
      "note_on channel=1 note=36 velocity=0 time=15\n",
      "note_on channel=1 note=48 velocity=84 time=15\n",
      "note_on channel=1 note=48 velocity=0 time=10\n",
      "note_on channel=1 note=48 velocity=84 time=20\n",
      "note_on channel=1 note=48 velocity=0 time=20\n",
      "note_on channel=1 note=36 velocity=84 time=10\n",
      "note_on channel=1 note=36 velocity=0 time=20\n",
      "note_on channel=1 note=48 velocity=84 time=10\n",
      "note_on channel=1 note=48 velocity=0 time=20\n",
      "note_on channel=1 note=36 velocity=84 time=10\n",
      "note_on channel=1 note=36 velocity=0 time=10\n",
      "note_on channel=1 note=36 velocity=84 time=20\n",
      "note_on channel=1 note=36 velocity=0 time=15\n",
      "note_on channel=1 note=48 velocity=84 time=15\n",
      "note_on channel=1 note=48 velocity=0 time=20\n",
      "note_on channel=1 note=36 velocity=84 time=10\n",
      "note_on channel=1 note=36 velocity=0 time=15\n",
      "note_on channel=1 note=48 velocity=84 time=15\n",
      "note_on channel=1 note=48 velocity=0 time=5\n",
      "note_on channel=1 note=48 velocity=84 time=25\n",
      "note_on channel=1 note=48 velocity=0 time=15\n",
      "note_on channel=1 note=36 velocity=84 time=15\n",
      "note_on channel=1 note=36 velocity=0 time=20\n",
      "note_on channel=1 note=48 velocity=84 time=10\n",
      "note_on channel=1 note=48 velocity=0 time=20\n",
      "note_on channel=1 note=36 velocity=84 time=10\n",
      "note_on channel=1 note=36 velocity=0 time=10\n",
      "note_on channel=1 note=36 velocity=84 time=20\n",
      "note_on channel=1 note=36 velocity=0 time=15\n",
      "note_on channel=1 note=43 velocity=84 time=15\n",
      "note_on channel=1 note=43 velocity=0 time=170\n",
      "note_on channel=1 note=41 velocity=84 time=10\n",
      "note_on channel=1 note=41 velocity=0 time=140\n",
      "note_on channel=1 note=39 velocity=84 time=40\n",
      "note_on channel=1 note=39 velocity=0 time=55\n",
      "note_on channel=1 note=41 velocity=84 time=5\n",
      "note_on channel=1 note=41 velocity=0 time=95\n",
      "note_on channel=1 note=43 velocity=84 time=445\n",
      "note_on channel=1 note=43 velocity=0 time=165\n",
      "note_on channel=1 note=41 velocity=84 time=15\n",
      "note_on channel=1 note=41 velocity=0 time=140\n",
      "note_on channel=1 note=39 velocity=84 time=40\n",
      "note_on channel=1 note=39 velocity=0 time=50\n",
      "note_on channel=1 note=41 velocity=84 time=10\n",
      "note_on channel=1 note=41 velocity=0 time=95\n",
      "note_on channel=1 note=48 velocity=84 time=445\n",
      "note_on channel=1 note=48 velocity=0 time=25\n",
      "note_on channel=1 note=36 velocity=84 time=5\n",
      "note_on channel=1 note=36 velocity=0 time=30\n",
      "note_on channel=1 note=48 velocity=84 time=0\n",
      "note_on channel=1 note=48 velocity=0 time=10\n",
      "note_on channel=1 note=48 velocity=84 time=20\n",
      "note_on channel=1 note=48 velocity=0 time=15\n",
      "note_on channel=1 note=36 velocity=84 time=15\n",
      "note_on channel=1 note=36 velocity=0 time=25\n",
      "note_on channel=1 note=48 velocity=84 time=5\n",
      "note_on channel=1 note=48 velocity=0 time=25\n",
      "note_on channel=1 note=36 velocity=84 time=5\n",
      "note_on channel=1 note=36 velocity=0 time=10\n",
      "note_on channel=1 note=36 velocity=84 time=20\n",
      "note_on channel=1 note=36 velocity=0 time=15\n",
      "note_on channel=1 note=48 velocity=84 time=15\n",
      "note_on channel=1 note=48 velocity=0 time=20\n",
      "note_on channel=1 note=36 velocity=84 time=10\n",
      "note_on channel=1 note=36 velocity=0 time=25\n",
      "note_on channel=1 note=48 velocity=84 time=5\n",
      "note_on channel=1 note=48 velocity=0 time=10\n",
      "note_on channel=1 note=48 velocity=84 time=20\n",
      "note_on channel=1 note=48 velocity=0 time=20\n",
      "note_on channel=1 note=36 velocity=84 time=10\n",
      "note_on channel=1 note=36 velocity=0 time=20\n",
      "note_on channel=1 note=48 velocity=84 time=10\n",
      "note_on channel=1 note=48 velocity=0 time=25\n",
      "note_on channel=1 note=36 velocity=84 time=5\n",
      "note_on channel=1 note=36 velocity=0 time=10\n",
      "note_on channel=1 note=36 velocity=84 time=20\n",
      "note_on channel=1 note=36 velocity=0 time=15\n",
      "note_on channel=1 note=48 velocity=84 time=15\n",
      "note_on channel=1 note=48 velocity=0 time=20\n",
      "note_on channel=1 note=36 velocity=84 time=10\n",
      "note_on channel=1 note=36 velocity=0 time=25\n",
      "note_on channel=1 note=48 velocity=84 time=5\n",
      "note_on channel=1 note=48 velocity=0 time=5\n",
      "note_on channel=1 note=48 velocity=84 time=25\n",
      "note_on channel=1 note=48 velocity=0 time=15\n",
      "note_on channel=1 note=36 velocity=84 time=15\n",
      "note_on channel=1 note=36 velocity=0 time=20\n",
      "note_on channel=1 note=48 velocity=84 time=10\n",
      "note_on channel=1 note=48 velocity=0 time=30\n",
      "note_on channel=1 note=36 velocity=84 time=0\n",
      "note_on channel=1 note=36 velocity=0 time=10\n",
      "note_on channel=1 note=36 velocity=84 time=20\n",
      "note_on channel=1 note=36 velocity=0 time=20\n",
      "note_on channel=1 note=48 velocity=84 time=10\n",
      "note_on channel=1 note=48 velocity=0 time=25\n",
      "note_on channel=1 note=36 velocity=84 time=5\n",
      "note_on channel=1 note=36 velocity=0 time=25\n",
      "note_on channel=1 note=48 velocity=84 time=5\n",
      "note_on channel=1 note=48 velocity=0 time=10\n",
      "note_on channel=1 note=48 velocity=84 time=20\n",
      "note_on channel=1 note=48 velocity=0 time=20\n",
      "note_on channel=1 note=36 velocity=84 time=10\n",
      "note_on channel=1 note=36 velocity=0 time=20\n",
      "note_on channel=1 note=48 velocity=84 time=10\n",
      "note_on channel=1 note=48 velocity=0 time=30\n",
      "note_on channel=1 note=36 velocity=84 time=0\n",
      "note_on channel=1 note=36 velocity=0 time=10\n",
      "note_on channel=1 note=36 velocity=84 time=20\n",
      "note_on channel=1 note=36 velocity=0 time=20\n",
      "note_on channel=1 note=48 velocity=84 time=10\n",
      "note_on channel=1 note=48 velocity=0 time=20\n",
      "note_on channel=1 note=36 velocity=84 time=10\n",
      "note_on channel=1 note=36 velocity=0 time=20\n",
      "note_on channel=1 note=48 velocity=84 time=10\n",
      "note_on channel=1 note=48 velocity=0 time=10\n",
      "note_on channel=1 note=48 velocity=84 time=20\n",
      "note_on channel=1 note=48 velocity=0 time=20\n",
      "note_on channel=1 note=36 velocity=84 time=10\n",
      "note_on channel=1 note=36 velocity=0 time=20\n",
      "note_on channel=1 note=48 velocity=84 time=10\n",
      "note_on channel=1 note=48 velocity=0 time=25\n",
      "note_on channel=1 note=36 velocity=84 time=5\n",
      "note_on channel=1 note=36 velocity=0 time=10\n",
      "note_on channel=1 note=36 velocity=84 time=20\n",
      "note_on channel=1 note=36 velocity=0 time=20\n",
      "note_on channel=1 note=48 velocity=84 time=10\n",
      "note_on channel=1 note=48 velocity=0 time=20\n",
      "note_on channel=1 note=36 velocity=84 time=10\n",
      "note_on channel=1 note=36 velocity=0 time=20\n",
      "note_on channel=1 note=48 velocity=84 time=10\n",
      "note_on channel=1 note=48 velocity=0 time=5\n",
      "note_on channel=1 note=48 velocity=84 time=25\n",
      "note_on channel=1 note=48 velocity=0 time=20\n",
      "note_on channel=1 note=36 velocity=84 time=10\n",
      "note_on channel=1 note=36 velocity=0 time=20\n",
      "note_on channel=1 note=48 velocity=84 time=10\n",
      "note_on channel=1 note=48 velocity=0 time=25\n",
      "note_on channel=1 note=36 velocity=84 time=5\n",
      "note_on channel=1 note=36 velocity=0 time=10\n",
      "note_on channel=1 note=36 velocity=84 time=20\n",
      "note_on channel=1 note=36 velocity=0 time=15\n",
      "note_on channel=1 note=48 velocity=84 time=15\n",
      "note_on channel=1 note=48 velocity=0 time=20\n",
      "note_on channel=1 note=36 velocity=84 time=10\n",
      "note_on channel=1 note=36 velocity=0 time=25\n",
      "note_on channel=1 note=48 velocity=84 time=5\n",
      "note_on channel=1 note=48 velocity=0 time=10\n",
      "note_on channel=1 note=48 velocity=84 time=20\n",
      "note_on channel=1 note=48 velocity=0 time=20\n",
      "note_on channel=1 note=36 velocity=84 time=10\n",
      "note_on channel=1 note=36 velocity=0 time=20\n",
      "note_on channel=1 note=48 velocity=84 time=10\n",
      "note_on channel=1 note=48 velocity=0 time=25\n",
      "note_on channel=1 note=36 velocity=84 time=5\n",
      "note_on channel=1 note=36 velocity=0 time=10\n",
      "note_on channel=1 note=36 velocity=84 time=20\n",
      "note_on channel=1 note=36 velocity=0 time=20\n",
      "note_on channel=1 note=48 velocity=84 time=10\n",
      "note_on channel=1 note=48 velocity=0 time=25\n",
      "note_on channel=1 note=36 velocity=84 time=5\n",
      "note_on channel=1 note=36 velocity=0 time=20\n",
      "note_on channel=1 note=48 velocity=84 time=10\n",
      "note_on channel=1 note=48 velocity=0 time=10\n",
      "note_on channel=1 note=48 velocity=84 time=20\n",
      "note_on channel=1 note=48 velocity=0 time=20\n",
      "note_on channel=1 note=36 velocity=84 time=10\n",
      "note_on channel=1 note=36 velocity=0 time=20\n",
      "note_on channel=1 note=48 velocity=84 time=10\n",
      "note_on channel=1 note=48 velocity=0 time=30\n",
      "note_on channel=1 note=36 velocity=84 time=0\n",
      "note_on channel=1 note=36 velocity=0 time=10\n",
      "note_on channel=1 note=36 velocity=84 time=20\n",
      "note_on channel=1 note=36 velocity=0 time=20\n",
      "note_on channel=1 note=48 velocity=84 time=10\n",
      "note_on channel=1 note=48 velocity=0 time=20\n",
      "note_on channel=1 note=36 velocity=84 time=10\n",
      "note_on channel=1 note=36 velocity=0 time=20\n",
      "note_on channel=1 note=48 velocity=84 time=10\n",
      "note_on channel=1 note=48 velocity=0 time=10\n",
      "note_on channel=1 note=48 velocity=84 time=20\n",
      "note_on channel=1 note=48 velocity=0 time=20\n",
      "note_on channel=1 note=36 velocity=84 time=10\n",
      "note_on channel=1 note=36 velocity=0 time=20\n",
      "note_on channel=1 note=48 velocity=84 time=10\n",
      "note_on channel=1 note=48 velocity=0 time=25\n",
      "note_on channel=1 note=36 velocity=84 time=5\n",
      "note_on channel=1 note=36 velocity=0 time=10\n",
      "note_on channel=1 note=36 velocity=84 time=20\n",
      "note_on channel=1 note=36 velocity=0 time=20\n",
      "note_on channel=1 note=48 velocity=84 time=10\n",
      "note_on channel=1 note=48 velocity=0 time=20\n",
      "note_on channel=1 note=36 velocity=84 time=10\n",
      "note_on channel=1 note=36 velocity=0 time=20\n",
      "note_on channel=1 note=48 velocity=84 time=10\n",
      "note_on channel=1 note=48 velocity=0 time=10\n",
      "note_on channel=1 note=48 velocity=84 time=20\n",
      "note_on channel=1 note=48 velocity=0 time=20\n",
      "note_on channel=1 note=36 velocity=84 time=10\n",
      "note_on channel=1 note=36 velocity=0 time=25\n",
      "note_on channel=1 note=48 velocity=84 time=5\n",
      "note_on channel=1 note=48 velocity=0 time=25\n",
      "note_on channel=1 note=36 velocity=84 time=5\n",
      "note_on channel=1 note=36 velocity=0 time=10\n",
      "note_on channel=1 note=36 velocity=84 time=20\n",
      "note_on channel=1 note=36 velocity=0 time=15\n",
      "note_on channel=1 note=48 velocity=84 time=15\n",
      "note_on channel=1 note=48 velocity=0 time=25\n",
      "note_on channel=1 note=36 velocity=84 time=5\n",
      "note_on channel=1 note=36 velocity=0 time=20\n",
      "note_on channel=1 note=48 velocity=84 time=10\n",
      "note_on channel=1 note=48 velocity=0 time=10\n",
      "note_on channel=1 note=48 velocity=84 time=20\n",
      "note_on channel=1 note=48 velocity=0 time=20\n",
      "note_on channel=1 note=36 velocity=84 time=10\n",
      "note_on channel=1 note=36 velocity=0 time=20\n",
      "note_on channel=1 note=48 velocity=84 time=10\n",
      "note_on channel=1 note=48 velocity=0 time=25\n",
      "note_on channel=1 note=36 velocity=84 time=5\n",
      "note_on channel=1 note=36 velocity=0 time=10\n",
      "note_on channel=1 note=36 velocity=84 time=20\n",
      "note_on channel=1 note=36 velocity=0 time=15\n",
      "note_on channel=1 note=48 velocity=84 time=15\n",
      "note_on channel=1 note=48 velocity=0 time=20\n",
      "note_on channel=1 note=36 velocity=84 time=10\n",
      "note_on channel=1 note=36 velocity=0 time=20\n",
      "note_on channel=1 note=48 velocity=84 time=10\n",
      "note_on channel=1 note=48 velocity=0 time=10\n",
      "note_on channel=1 note=48 velocity=84 time=20\n",
      "note_on channel=1 note=48 velocity=0 time=20\n",
      "note_on channel=1 note=36 velocity=84 time=10\n",
      "note_on channel=1 note=36 velocity=0 time=20\n",
      "note_on channel=1 note=48 velocity=84 time=10\n",
      "note_on channel=1 note=48 velocity=0 time=25\n",
      "note_on channel=1 note=36 velocity=84 time=5\n",
      "note_on channel=1 note=36 velocity=0 time=10\n",
      "note_on channel=1 note=36 velocity=84 time=20\n",
      "note_on channel=1 note=36 velocity=0 time=20\n",
      "note_on channel=1 note=48 velocity=84 time=10\n",
      "note_on channel=1 note=48 velocity=0 time=20\n",
      "note_on channel=1 note=36 velocity=84 time=10\n",
      "note_on channel=1 note=36 velocity=0 time=20\n",
      "note_on channel=1 note=48 velocity=84 time=10\n",
      "note_on channel=1 note=48 velocity=0 time=10\n",
      "note_on channel=1 note=48 velocity=84 time=20\n",
      "note_on channel=1 note=48 velocity=0 time=20\n",
      "note_on channel=1 note=36 velocity=84 time=10\n",
      "note_on channel=1 note=36 velocity=0 time=20\n",
      "note_on channel=1 note=48 velocity=84 time=10\n",
      "note_on channel=1 note=48 velocity=0 time=25\n",
      "note_on channel=1 note=36 velocity=84 time=5\n",
      "note_on channel=1 note=36 velocity=0 time=10\n",
      "note_on channel=1 note=36 velocity=84 time=20\n",
      "note_on channel=1 note=36 velocity=0 time=15\n",
      "note_on channel=1 note=48 velocity=84 time=15\n",
      "note_on channel=1 note=48 velocity=0 time=20\n",
      "note_on channel=1 note=36 velocity=84 time=10\n",
      "note_on channel=1 note=36 velocity=0 time=20\n",
      "note_on channel=1 note=48 velocity=84 time=10\n",
      "note_on channel=1 note=48 velocity=0 time=10\n",
      "note_on channel=1 note=48 velocity=84 time=20\n",
      "note_on channel=1 note=48 velocity=0 time=20\n",
      "note_on channel=1 note=36 velocity=84 time=10\n",
      "note_on channel=1 note=36 velocity=0 time=20\n",
      "note_on channel=1 note=48 velocity=84 time=10\n",
      "note_on channel=1 note=48 velocity=0 time=25\n",
      "note_on channel=1 note=36 velocity=84 time=5\n",
      "note_on channel=1 note=36 velocity=0 time=10\n",
      "note_on channel=1 note=36 velocity=84 time=20\n",
      "note_on channel=1 note=36 velocity=0 time=15\n",
      "note_on channel=1 note=48 velocity=84 time=15\n",
      "note_on channel=1 note=48 velocity=0 time=20\n",
      "note_on channel=1 note=36 velocity=84 time=10\n",
      "note_on channel=1 note=36 velocity=0 time=20\n",
      "note_on channel=1 note=48 velocity=84 time=10\n",
      "note_on channel=1 note=48 velocity=0 time=5\n",
      "note_on channel=1 note=48 velocity=84 time=25\n",
      "note_on channel=1 note=48 velocity=0 time=20\n",
      "note_on channel=1 note=36 velocity=84 time=10\n",
      "note_on channel=1 note=36 velocity=0 time=20\n",
      "note_on channel=1 note=48 velocity=84 time=10\n",
      "note_on channel=1 note=48 velocity=0 time=25\n",
      "note_on channel=1 note=36 velocity=84 time=5\n",
      "note_on channel=1 note=36 velocity=0 time=5\n",
      "note_on channel=1 note=36 velocity=84 time=25\n",
      "note_on channel=1 note=36 velocity=0 time=15\n",
      "note_on channel=1 note=48 velocity=84 time=15\n",
      "note_on channel=1 note=48 velocity=0 time=20\n",
      "note_on channel=1 note=36 velocity=84 time=10\n",
      "note_on channel=1 note=36 velocity=0 time=20\n",
      "note_on channel=1 note=48 velocity=84 time=10\n",
      "note_on channel=1 note=48 velocity=0 time=10\n",
      "note_on channel=1 note=48 velocity=84 time=20\n",
      "note_on channel=1 note=48 velocity=0 time=20\n",
      "note_on channel=1 note=36 velocity=84 time=10\n",
      "note_on channel=1 note=36 velocity=0 time=20\n",
      "note_on channel=1 note=48 velocity=84 time=10\n",
      "note_on channel=1 note=48 velocity=0 time=25\n",
      "note_on channel=1 note=36 velocity=84 time=5\n",
      "note_on channel=1 note=36 velocity=0 time=10\n",
      "note_on channel=1 note=36 velocity=84 time=20\n",
      "note_on channel=1 note=36 velocity=0 time=20\n",
      "note_on channel=1 note=43 velocity=84 time=10\n",
      "note_on channel=1 note=43 velocity=0 time=165\n",
      "note_on channel=1 note=41 velocity=84 time=15\n",
      "note_on channel=1 note=41 velocity=0 time=145\n",
      "note_on channel=1 note=39 velocity=84 time=35\n",
      "note_on channel=1 note=39 velocity=0 time=55\n",
      "note_on channel=1 note=41 velocity=84 time=5\n",
      "note_on channel=1 note=41 velocity=0 time=100\n",
      "note_on channel=1 note=43 velocity=84 time=440\n",
      "note_on channel=1 note=43 velocity=0 time=150\n",
      "note_on channel=1 note=41 velocity=84 time=30\n",
      "note_on channel=1 note=41 velocity=0 time=140\n",
      "note_on channel=1 note=39 velocity=84 time=40\n",
      "note_on channel=1 note=39 velocity=0 time=45\n",
      "note_on channel=1 note=41 velocity=84 time=15\n",
      "note_on channel=1 note=41 velocity=0 time=85\n",
      "note_on channel=1 note=48 velocity=84 time=455\n",
      "note_on channel=1 note=48 velocity=0 time=20\n",
      "note_on channel=1 note=36 velocity=84 time=10\n",
      "note_on channel=1 note=36 velocity=0 time=25\n",
      "note_on channel=1 note=48 velocity=84 time=5\n",
      "note_on channel=1 note=48 velocity=0 time=10\n",
      "note_on channel=1 note=48 velocity=84 time=20\n",
      "note_on channel=1 note=48 velocity=0 time=20\n",
      "note_on channel=1 note=36 velocity=84 time=10\n",
      "note_on channel=1 note=36 velocity=0 time=20\n",
      "note_on channel=1 note=48 velocity=84 time=10\n",
      "note_on channel=1 note=48 velocity=0 time=30\n",
      "note_on channel=1 note=36 velocity=84 time=0\n",
      "note_on channel=1 note=36 velocity=0 time=10\n",
      "note_on channel=1 note=36 velocity=84 time=20\n",
      "note_on channel=1 note=36 velocity=0 time=15\n",
      "note_on channel=1 note=48 velocity=84 time=15\n",
      "note_on channel=1 note=48 velocity=0 time=20\n",
      "note_on channel=1 note=36 velocity=84 time=10\n",
      "note_on channel=1 note=36 velocity=0 time=20\n",
      "note_on channel=1 note=48 velocity=84 time=10\n",
      "note_on channel=1 note=48 velocity=0 time=10\n",
      "note_on channel=1 note=48 velocity=84 time=20\n",
      "note_on channel=1 note=48 velocity=0 time=20\n",
      "note_on channel=1 note=36 velocity=84 time=10\n",
      "note_on channel=1 note=36 velocity=0 time=20\n",
      "note_on channel=1 note=48 velocity=84 time=10\n",
      "note_on channel=1 note=48 velocity=0 time=30\n",
      "note_on channel=1 note=36 velocity=84 time=0\n",
      "note_on channel=1 note=36 velocity=0 time=10\n",
      "note_on channel=1 note=36 velocity=84 time=20\n",
      "note_on channel=1 note=36 velocity=0 time=15\n",
      "note_on channel=1 note=48 velocity=84 time=15\n",
      "note_on channel=1 note=48 velocity=0 time=25\n",
      "note_on channel=1 note=36 velocity=84 time=5\n",
      "note_on channel=1 note=36 velocity=0 time=20\n",
      "note_on channel=1 note=48 velocity=84 time=10\n",
      "note_on channel=1 note=48 velocity=0 time=10\n",
      "note_on channel=1 note=48 velocity=84 time=20\n",
      "note_on channel=1 note=48 velocity=0 time=20\n",
      "note_on channel=1 note=36 velocity=84 time=10\n",
      "note_on channel=1 note=36 velocity=0 time=20\n",
      "note_on channel=1 note=48 velocity=84 time=10\n",
      "note_on channel=1 note=48 velocity=0 time=25\n",
      "note_on channel=1 note=36 velocity=84 time=5\n",
      "note_on channel=1 note=36 velocity=0 time=10\n",
      "note_on channel=1 note=36 velocity=84 time=20\n",
      "note_on channel=1 note=36 velocity=0 time=15\n",
      "note_on channel=1 note=48 velocity=84 time=15\n",
      "note_on channel=1 note=48 velocity=0 time=20\n",
      "note_on channel=1 note=36 velocity=84 time=10\n",
      "note_on channel=1 note=36 velocity=0 time=20\n",
      "note_on channel=1 note=48 velocity=84 time=10\n",
      "note_on channel=1 note=48 velocity=0 time=10\n",
      "note_on channel=1 note=48 velocity=84 time=20\n",
      "note_on channel=1 note=48 velocity=0 time=20\n",
      "note_on channel=1 note=36 velocity=84 time=10\n",
      "note_on channel=1 note=36 velocity=0 time=20\n",
      "note_on channel=1 note=48 velocity=84 time=10\n",
      "note_on channel=1 note=48 velocity=0 time=25\n",
      "note_on channel=1 note=36 velocity=84 time=5\n",
      "note_on channel=1 note=36 velocity=0 time=10\n",
      "note_on channel=1 note=36 velocity=84 time=20\n",
      "note_on channel=1 note=36 velocity=0 time=15\n",
      "note_on channel=1 note=48 velocity=84 time=15\n",
      "note_on channel=1 note=48 velocity=0 time=15\n",
      "note_on channel=1 note=36 velocity=84 time=15\n",
      "note_on channel=1 note=36 velocity=0 time=20\n",
      "note_on channel=1 note=48 velocity=84 time=10\n",
      "note_on channel=1 note=48 velocity=0 time=5\n",
      "note_on channel=1 note=48 velocity=84 time=25\n",
      "note_on channel=1 note=48 velocity=0 time=15\n",
      "note_on channel=1 note=36 velocity=84 time=15\n",
      "note_on channel=1 note=36 velocity=0 time=15\n",
      "note_on channel=1 note=48 velocity=84 time=15\n",
      "note_on channel=1 note=48 velocity=0 time=15\n",
      "note_on channel=1 note=36 velocity=84 time=15\n",
      "note_on channel=1 note=36 velocity=0 time=5\n",
      "note_on channel=1 note=36 velocity=84 time=25\n",
      "note_on channel=1 note=36 velocity=0 time=10\n",
      "note_on channel=1 note=48 velocity=84 time=20\n",
      "note_on channel=1 note=48 velocity=0 time=15\n",
      "note_on channel=1 note=36 velocity=84 time=15\n",
      "note_on channel=1 note=36 velocity=0 time=15\n",
      "note_on channel=1 note=48 velocity=84 time=15\n",
      "note_on channel=1 note=48 velocity=0 time=10\n",
      "note_on channel=1 note=48 velocity=84 time=20\n",
      "note_on channel=1 note=48 velocity=0 time=20\n",
      "note_on channel=1 note=36 velocity=84 time=10\n",
      "note_on channel=1 note=36 velocity=0 time=20\n",
      "note_on channel=1 note=48 velocity=84 time=10\n",
      "note_on channel=1 note=48 velocity=0 time=20\n",
      "note_on channel=1 note=36 velocity=84 time=10\n",
      "note_on channel=1 note=36 velocity=0 time=10\n",
      "note_on channel=1 note=36 velocity=84 time=20\n",
      "note_on channel=1 note=36 velocity=0 time=15\n",
      "note_on channel=1 note=48 velocity=84 time=15\n",
      "note_on channel=1 note=48 velocity=0 time=20\n",
      "note_on channel=1 note=36 velocity=84 time=10\n",
      "note_on channel=1 note=36 velocity=0 time=20\n",
      "note_on channel=1 note=48 velocity=84 time=10\n",
      "note_on channel=1 note=48 velocity=0 time=10\n",
      "note_on channel=1 note=48 velocity=84 time=20\n",
      "note_on channel=1 note=48 velocity=0 time=20\n",
      "note_on channel=1 note=36 velocity=84 time=10\n",
      "note_on channel=1 note=36 velocity=0 time=20\n",
      "note_on channel=1 note=48 velocity=84 time=10\n",
      "note_on channel=1 note=48 velocity=0 time=25\n",
      "note_on channel=1 note=36 velocity=84 time=5\n",
      "note_on channel=1 note=36 velocity=0 time=10\n",
      "note_on channel=1 note=36 velocity=84 time=20\n",
      "note_on channel=1 note=36 velocity=0 time=15\n",
      "note_on channel=1 note=48 velocity=84 time=15\n",
      "note_on channel=1 note=48 velocity=0 time=20\n",
      "note_on channel=1 note=36 velocity=84 time=10\n",
      "note_on channel=1 note=36 velocity=0 time=20\n",
      "note_on channel=1 note=48 velocity=84 time=10\n",
      "note_on channel=1 note=48 velocity=0 time=10\n",
      "note_on channel=1 note=48 velocity=84 time=20\n",
      "note_on channel=1 note=48 velocity=0 time=15\n",
      "note_on channel=1 note=36 velocity=84 time=15\n",
      "note_on channel=1 note=36 velocity=0 time=20\n",
      "note_on channel=1 note=48 velocity=84 time=10\n",
      "note_on channel=1 note=48 velocity=0 time=30\n",
      "note_on channel=1 note=36 velocity=84 time=0\n",
      "note_on channel=1 note=36 velocity=0 time=10\n",
      "note_on channel=1 note=36 velocity=84 time=20\n",
      "note_on channel=1 note=36 velocity=0 time=20\n",
      "note_on channel=1 note=48 velocity=84 time=10\n",
      "note_on channel=1 note=48 velocity=0 time=20\n",
      "note_on channel=1 note=36 velocity=84 time=10\n",
      "note_on channel=1 note=36 velocity=0 time=25\n",
      "note_on channel=1 note=48 velocity=84 time=5\n",
      "note_on channel=1 note=48 velocity=0 time=10\n",
      "note_on channel=1 note=48 velocity=84 time=20\n",
      "note_on channel=1 note=48 velocity=0 time=20\n",
      "note_on channel=1 note=36 velocity=84 time=10\n",
      "note_on channel=1 note=36 velocity=0 time=20\n",
      "note_on channel=1 note=48 velocity=84 time=10\n",
      "note_on channel=1 note=48 velocity=0 time=25\n",
      "note_on channel=1 note=36 velocity=84 time=5\n",
      "note_on channel=1 note=36 velocity=0 time=10\n",
      "note_on channel=1 note=36 velocity=84 time=20\n",
      "note_on channel=1 note=36 velocity=0 time=20\n",
      "note_on channel=1 note=48 velocity=84 time=10\n",
      "note_on channel=1 note=48 velocity=0 time=20\n",
      "note_on channel=1 note=36 velocity=84 time=10\n",
      "note_on channel=1 note=36 velocity=0 time=20\n",
      "note_on channel=1 note=48 velocity=84 time=10\n",
      "note_on channel=1 note=48 velocity=0 time=10\n",
      "note_on channel=1 note=48 velocity=84 time=20\n",
      "note_on channel=1 note=48 velocity=0 time=20\n",
      "note_on channel=1 note=36 velocity=84 time=10\n",
      "note_on channel=1 note=36 velocity=0 time=20\n",
      "note_on channel=1 note=48 velocity=84 time=10\n",
      "note_on channel=1 note=48 velocity=0 time=25\n",
      "note_on channel=1 note=36 velocity=84 time=5\n",
      "note_on channel=1 note=36 velocity=0 time=10\n",
      "note_on channel=1 note=36 velocity=84 time=20\n",
      "note_on channel=1 note=36 velocity=0 time=15\n",
      "note_on channel=1 note=48 velocity=84 time=15\n",
      "note_on channel=1 note=48 velocity=0 time=20\n",
      "note_on channel=1 note=36 velocity=84 time=10\n",
      "note_on channel=1 note=36 velocity=0 time=20\n",
      "note_on channel=1 note=48 velocity=84 time=10\n",
      "note_on channel=1 note=48 velocity=0 time=10\n",
      "note_on channel=1 note=48 velocity=84 time=20\n",
      "note_on channel=1 note=48 velocity=0 time=20\n",
      "note_on channel=1 note=36 velocity=84 time=10\n",
      "note_on channel=1 note=36 velocity=0 time=20\n",
      "note_on channel=1 note=48 velocity=84 time=10\n",
      "note_on channel=1 note=48 velocity=0 time=25\n",
      "note_on channel=1 note=36 velocity=84 time=5\n",
      "note_on channel=1 note=36 velocity=0 time=10\n",
      "note_on channel=1 note=36 velocity=84 time=20\n",
      "note_on channel=1 note=36 velocity=0 time=20\n",
      "note_on channel=1 note=48 velocity=84 time=10\n",
      "note_on channel=1 note=48 velocity=0 time=25\n",
      "note_on channel=1 note=36 velocity=84 time=5\n",
      "note_on channel=1 note=36 velocity=0 time=20\n",
      "note_on channel=1 note=48 velocity=84 time=10\n",
      "note_on channel=1 note=48 velocity=0 time=10\n",
      "note_on channel=1 note=48 velocity=84 time=20\n",
      "note_on channel=1 note=48 velocity=0 time=20\n",
      "note_on channel=1 note=36 velocity=84 time=10\n",
      "note_on channel=1 note=36 velocity=0 time=20\n",
      "note_on channel=1 note=48 velocity=84 time=10\n",
      "note_on channel=1 note=48 velocity=0 time=25\n",
      "note_on channel=1 note=36 velocity=84 time=5\n",
      "note_on channel=1 note=36 velocity=0 time=10\n",
      "note_on channel=1 note=36 velocity=84 time=20\n",
      "note_on channel=1 note=36 velocity=0 time=15\n",
      "note_on channel=1 note=48 velocity=84 time=15\n",
      "note_on channel=1 note=48 velocity=0 time=20\n",
      "note_on channel=1 note=36 velocity=84 time=10\n",
      "note_on channel=1 note=36 velocity=0 time=20\n",
      "note_on channel=1 note=48 velocity=84 time=10\n",
      "note_on channel=1 note=48 velocity=0 time=5\n",
      "note_on channel=1 note=48 velocity=84 time=25\n",
      "note_on channel=1 note=48 velocity=0 time=15\n",
      "note_on channel=1 note=36 velocity=84 time=15\n",
      "note_on channel=1 note=36 velocity=0 time=15\n",
      "note_on channel=1 note=48 velocity=84 time=15\n",
      "note_on channel=1 note=48 velocity=0 time=20\n",
      "note_on channel=1 note=36 velocity=84 time=10\n",
      "note_on channel=1 note=36 velocity=0 time=10\n",
      "note_on channel=1 note=36 velocity=84 time=20\n",
      "note_on channel=1 note=36 velocity=0 time=15\n",
      "note_on channel=1 note=48 velocity=84 time=15\n",
      "note_on channel=1 note=48 velocity=0 time=15\n",
      "note_on channel=1 note=36 velocity=84 time=15\n",
      "note_on channel=1 note=36 velocity=0 time=20\n",
      "note_on channel=1 note=48 velocity=84 time=10\n",
      "note_on channel=1 note=48 velocity=0 time=10\n",
      "note_on channel=1 note=48 velocity=84 time=20\n",
      "note_on channel=1 note=48 velocity=0 time=15\n",
      "note_on channel=1 note=36 velocity=84 time=15\n",
      "note_on channel=1 note=36 velocity=0 time=20\n",
      "note_on channel=1 note=48 velocity=84 time=10\n",
      "note_on channel=1 note=48 velocity=0 time=20\n",
      "note_on channel=1 note=36 velocity=84 time=10\n",
      "note_on channel=1 note=36 velocity=0 time=10\n",
      "note_on channel=1 note=36 velocity=84 time=20\n",
      "note_on channel=1 note=36 velocity=0 time=15\n",
      "note_on channel=1 note=48 velocity=84 time=15\n",
      "note_on channel=1 note=48 velocity=0 time=20\n",
      "note_on channel=1 note=36 velocity=84 time=10\n",
      "note_on channel=1 note=36 velocity=0 time=25\n",
      "note_on channel=1 note=48 velocity=84 time=5\n",
      "note_on channel=1 note=48 velocity=0 time=10\n",
      "note_on channel=1 note=48 velocity=84 time=20\n",
      "note_on channel=1 note=48 velocity=0 time=20\n",
      "note_on channel=1 note=36 velocity=84 time=10\n",
      "note_on channel=1 note=36 velocity=0 time=20\n",
      "note_on channel=1 note=48 velocity=84 time=10\n",
      "note_on channel=1 note=48 velocity=0 time=25\n",
      "note_on channel=1 note=36 velocity=84 time=5\n",
      "note_on channel=1 note=36 velocity=0 time=5\n",
      "note_on channel=1 note=36 velocity=84 time=25\n",
      "note_on channel=1 note=36 velocity=0 time=20\n",
      "note_on channel=1 note=48 velocity=84 time=10\n",
      "note_on channel=1 note=48 velocity=0 time=20\n",
      "note_on channel=1 note=36 velocity=84 time=10\n",
      "note_on channel=1 note=36 velocity=0 time=25\n",
      "note_on channel=1 note=48 velocity=84 time=5\n",
      "note_on channel=1 note=48 velocity=0 time=15\n",
      "note_on channel=1 note=48 velocity=84 time=15\n",
      "note_on channel=1 note=48 velocity=0 time=20\n",
      "note_on channel=1 note=36 velocity=84 time=10\n",
      "note_on channel=1 note=36 velocity=0 time=20\n",
      "note_on channel=1 note=48 velocity=84 time=10\n",
      "note_on channel=1 note=48 velocity=0 time=30\n",
      "note_on channel=1 note=36 velocity=84 time=0\n",
      "note_on channel=1 note=36 velocity=0 time=10\n",
      "note_on channel=1 note=36 velocity=84 time=20\n",
      "note_on channel=1 note=36 velocity=0 time=20\n",
      "note_on channel=1 note=48 velocity=84 time=10\n",
      "note_on channel=1 note=48 velocity=0 time=20\n",
      "note_on channel=1 note=36 velocity=84 time=10\n",
      "note_on channel=1 note=36 velocity=0 time=25\n",
      "note_on channel=1 note=48 velocity=84 time=5\n",
      "note_on channel=1 note=48 velocity=0 time=10\n",
      "note_on channel=1 note=48 velocity=84 time=20\n",
      "note_on channel=1 note=48 velocity=0 time=15\n",
      "note_on channel=1 note=36 velocity=84 time=15\n",
      "note_on channel=1 note=36 velocity=0 time=20\n",
      "note_on channel=1 note=48 velocity=84 time=10\n",
      "note_on channel=1 note=48 velocity=0 time=25\n",
      "note_on channel=1 note=36 velocity=84 time=5\n",
      "note_on channel=1 note=36 velocity=0 time=5\n",
      "note_on channel=1 note=36 velocity=84 time=25\n",
      "note_on channel=1 note=36 velocity=0 time=15\n",
      "note_on channel=1 note=48 velocity=84 time=15\n",
      "note_on channel=1 note=48 velocity=0 time=15\n",
      "note_on channel=1 note=36 velocity=84 time=15\n",
      "note_on channel=1 note=36 velocity=0 time=20\n",
      "note_on channel=1 note=48 velocity=84 time=10\n",
      "note_on channel=1 note=48 velocity=0 time=10\n",
      "note_on channel=1 note=48 velocity=84 time=20\n",
      "note_on channel=1 note=48 velocity=0 time=15\n",
      "note_on channel=1 note=36 velocity=84 time=15\n",
      "note_on channel=1 note=36 velocity=0 time=15\n",
      "note_on channel=1 note=48 velocity=84 time=15\n",
      "note_on channel=1 note=48 velocity=0 time=25\n",
      "note_on channel=1 note=36 velocity=84 time=5\n",
      "note_on channel=1 note=36 velocity=0 time=5\n",
      "note_on channel=1 note=36 velocity=84 time=25\n",
      "note_on channel=1 note=36 velocity=0 time=15\n",
      "note_on channel=1 note=48 velocity=84 time=15\n",
      "note_on channel=1 note=48 velocity=0 time=20\n",
      "note_on channel=1 note=36 velocity=84 time=10\n",
      "note_on channel=1 note=36 velocity=0 time=20\n",
      "note_on channel=1 note=48 velocity=84 time=10\n",
      "note_on channel=1 note=48 velocity=0 time=10\n",
      "note_on channel=1 note=48 velocity=84 time=20\n",
      "note_on channel=1 note=48 velocity=0 time=15\n",
      "note_on channel=1 note=36 velocity=84 time=15\n",
      "note_on channel=1 note=36 velocity=0 time=20\n",
      "note_on channel=1 note=48 velocity=84 time=10\n",
      "note_on channel=1 note=48 velocity=0 time=25\n",
      "note_on channel=1 note=36 velocity=84 time=5\n",
      "note_on channel=1 note=36 velocity=0 time=10\n",
      "note_on channel=1 note=36 velocity=84 time=20\n",
      "note_on channel=1 note=36 velocity=0 time=15\n",
      "note_on channel=1 note=48 velocity=84 time=15\n",
      "note_on channel=1 note=48 velocity=0 time=15\n",
      "note_on channel=1 note=36 velocity=84 time=15\n",
      "note_on channel=1 note=36 velocity=0 time=20\n",
      "note_on channel=1 note=48 velocity=84 time=10\n",
      "note_on channel=1 note=48 velocity=0 time=10\n",
      "note_on channel=1 note=48 velocity=84 time=20\n",
      "note_on channel=1 note=48 velocity=0 time=15\n",
      "note_on channel=1 note=36 velocity=84 time=15\n",
      "note_on channel=1 note=36 velocity=0 time=20\n",
      "note_on channel=1 note=48 velocity=84 time=10\n",
      "note_on channel=1 note=48 velocity=0 time=20\n",
      "note_on channel=1 note=36 velocity=84 time=10\n",
      "note_on channel=1 note=36 velocity=0 time=10\n",
      "note_on channel=1 note=36 velocity=84 time=20\n",
      "note_on channel=1 note=36 velocity=0 time=15\n",
      "note_on channel=1 note=48 velocity=84 time=15\n",
      "note_on channel=1 note=48 velocity=0 time=20\n",
      "note_on channel=1 note=36 velocity=84 time=10\n",
      "note_on channel=1 note=36 velocity=0 time=25\n",
      "note_on channel=1 note=48 velocity=84 time=5\n",
      "note_on channel=1 note=48 velocity=0 time=10\n",
      "note_on channel=1 note=48 velocity=84 time=20\n",
      "note_on channel=1 note=48 velocity=0 time=20\n",
      "note_on channel=1 note=36 velocity=84 time=10\n",
      "note_on channel=1 note=36 velocity=0 time=20\n",
      "note_on channel=1 note=48 velocity=84 time=10\n",
      "note_on channel=1 note=48 velocity=0 time=25\n",
      "note_on channel=1 note=36 velocity=84 time=5\n",
      "note_on channel=1 note=36 velocity=0 time=10\n",
      "note_on channel=1 note=36 velocity=84 time=20\n",
      "note_on channel=1 note=36 velocity=0 time=15\n",
      "note_on channel=1 note=48 velocity=84 time=15\n",
      "note_on channel=1 note=48 velocity=0 time=20\n",
      "note_on channel=1 note=36 velocity=84 time=10\n",
      "note_on channel=1 note=36 velocity=0 time=25\n",
      "note_on channel=1 note=48 velocity=84 time=5\n",
      "note_on channel=1 note=48 velocity=0 time=10\n",
      "note_on channel=1 note=48 velocity=84 time=20\n",
      "note_on channel=1 note=48 velocity=0 time=20\n",
      "note_on channel=1 note=36 velocity=84 time=10\n",
      "note_on channel=1 note=36 velocity=0 time=20\n",
      "note_on channel=1 note=48 velocity=84 time=10\n",
      "note_on channel=1 note=48 velocity=0 time=25\n",
      "note_on channel=1 note=36 velocity=84 time=5\n",
      "note_on channel=1 note=36 velocity=0 time=10\n",
      "note_on channel=1 note=36 velocity=84 time=20\n",
      "note_on channel=1 note=36 velocity=0 time=15\n",
      "note_on channel=1 note=48 velocity=84 time=15\n",
      "note_on channel=1 note=48 velocity=0 time=20\n",
      "note_on channel=1 note=36 velocity=84 time=10\n",
      "note_on channel=1 note=36 velocity=0 time=20\n",
      "note_on channel=1 note=48 velocity=84 time=10\n",
      "note_on channel=1 note=48 velocity=0 time=10\n",
      "note_on channel=1 note=48 velocity=84 time=20\n",
      "note_on channel=1 note=48 velocity=0 time=20\n",
      "note_on channel=1 note=36 velocity=84 time=10\n",
      "note_on channel=1 note=36 velocity=0 time=25\n",
      "note_on channel=1 note=48 velocity=84 time=5\n",
      "note_on channel=1 note=48 velocity=0 time=20\n",
      "note_on channel=1 note=36 velocity=84 time=10\n",
      "note_on channel=1 note=36 velocity=0 time=10\n",
      "note_on channel=1 note=36 velocity=84 time=20\n",
      "note_on channel=1 note=36 velocity=0 time=15\n",
      "note_on channel=1 note=48 velocity=84 time=15\n",
      "note_on channel=1 note=48 velocity=0 time=20\n",
      "note_on channel=1 note=36 velocity=84 time=10\n",
      "note_on channel=1 note=36 velocity=0 time=20\n",
      "note_on channel=1 note=48 velocity=84 time=10\n",
      "note_on channel=1 note=48 velocity=0 time=10\n",
      "note_on channel=1 note=48 velocity=84 time=20\n",
      "note_on channel=1 note=48 velocity=0 time=15\n",
      "note_on channel=1 note=36 velocity=84 time=15\n",
      "note_on channel=1 note=36 velocity=0 time=20\n",
      "note_on channel=1 note=48 velocity=84 time=10\n",
      "note_on channel=1 note=48 velocity=0 time=20\n",
      "note_on channel=1 note=36 velocity=84 time=10\n",
      "note_on channel=1 note=36 velocity=0 time=10\n",
      "note_on channel=1 note=36 velocity=84 time=20\n",
      "note_on channel=1 note=36 velocity=0 time=15\n",
      "note_on channel=1 note=48 velocity=84 time=15\n",
      "note_on channel=1 note=48 velocity=0 time=15\n",
      "note_on channel=1 note=36 velocity=84 time=15\n",
      "note_on channel=1 note=36 velocity=0 time=25\n",
      "note_on channel=1 note=48 velocity=84 time=5\n",
      "note_on channel=1 note=48 velocity=0 time=10\n",
      "note_on channel=1 note=48 velocity=84 time=20\n",
      "note_on channel=1 note=48 velocity=0 time=15\n",
      "note_on channel=1 note=36 velocity=84 time=15\n",
      "note_on channel=1 note=36 velocity=0 time=20\n",
      "note_on channel=1 note=48 velocity=84 time=10\n",
      "note_on channel=1 note=48 velocity=0 time=20\n",
      "note_on channel=1 note=36 velocity=84 time=10\n",
      "note_on channel=1 note=36 velocity=0 time=10\n",
      "note_on channel=1 note=36 velocity=84 time=20\n",
      "note_on channel=1 note=36 velocity=0 time=20\n",
      "note_on channel=1 note=48 velocity=84 time=10\n",
      "note_on channel=1 note=48 velocity=0 time=20\n",
      "note_on channel=1 note=36 velocity=84 time=10\n",
      "note_on channel=1 note=36 velocity=0 time=20\n",
      "note_on channel=1 note=48 velocity=84 time=10\n",
      "note_on channel=1 note=48 velocity=0 time=10\n",
      "note_on channel=1 note=48 velocity=84 time=20\n",
      "note_on channel=1 note=48 velocity=0 time=15\n",
      "note_on channel=1 note=36 velocity=84 time=15\n",
      "note_on channel=1 note=36 velocity=0 time=20\n",
      "note_on channel=1 note=48 velocity=84 time=10\n",
      "note_on channel=1 note=48 velocity=0 time=20\n",
      "note_on channel=1 note=36 velocity=84 time=10\n",
      "note_on channel=1 note=36 velocity=0 time=10\n",
      "note_on channel=1 note=36 velocity=84 time=20\n",
      "note_on channel=1 note=36 velocity=0 time=20\n",
      "note_on channel=1 note=48 velocity=84 time=10\n",
      "note_on channel=1 note=48 velocity=0 time=20\n",
      "note_on channel=1 note=36 velocity=84 time=10\n",
      "note_on channel=1 note=36 velocity=0 time=20\n",
      "note_on channel=1 note=48 velocity=84 time=10\n",
      "note_on channel=1 note=48 velocity=0 time=10\n",
      "note_on channel=1 note=48 velocity=84 time=20\n",
      "note_on channel=1 note=48 velocity=0 time=15\n",
      "note_on channel=1 note=36 velocity=84 time=15\n",
      "note_on channel=1 note=36 velocity=0 time=20\n",
      "note_on channel=1 note=48 velocity=84 time=10\n",
      "note_on channel=1 note=48 velocity=0 time=20\n",
      "note_on channel=1 note=36 velocity=84 time=10\n",
      "note_on channel=1 note=36 velocity=0 time=5\n",
      "note_on channel=1 note=36 velocity=84 time=25\n",
      "note_on channel=1 note=36 velocity=0 time=15\n",
      "note_on channel=1 note=48 velocity=84 time=15\n",
      "note_on channel=1 note=48 velocity=0 time=20\n",
      "note_on channel=1 note=36 velocity=84 time=10\n",
      "note_on channel=1 note=36 velocity=0 time=20\n",
      "note_on channel=1 note=48 velocity=84 time=10\n",
      "note_on channel=1 note=48 velocity=0 time=10\n",
      "note_on channel=1 note=48 velocity=84 time=20\n",
      "note_on channel=1 note=48 velocity=0 time=15\n",
      "note_on channel=1 note=36 velocity=84 time=15\n",
      "note_on channel=1 note=36 velocity=0 time=20\n",
      "note_on channel=1 note=48 velocity=84 time=10\n",
      "note_on channel=1 note=48 velocity=0 time=20\n",
      "note_on channel=1 note=36 velocity=84 time=10\n",
      "note_on channel=1 note=36 velocity=0 time=10\n",
      "note_on channel=1 note=36 velocity=84 time=20\n",
      "note_on channel=1 note=36 velocity=0 time=15\n",
      "note_on channel=1 note=48 velocity=84 time=15\n",
      "note_on channel=1 note=48 velocity=0 time=15\n",
      "note_on channel=1 note=36 velocity=84 time=15\n",
      "note_on channel=1 note=36 velocity=0 time=15\n",
      "note_on channel=1 note=48 velocity=84 time=15\n",
      "note_on channel=1 note=48 velocity=0 time=10\n",
      "note_on channel=1 note=48 velocity=84 time=20\n",
      "note_on channel=1 note=48 velocity=0 time=15\n",
      "note_on channel=1 note=36 velocity=84 time=15\n",
      "note_on channel=1 note=36 velocity=0 time=20\n",
      "note_on channel=1 note=48 velocity=84 time=10\n",
      "note_on channel=1 note=48 velocity=0 time=20\n",
      "note_on channel=1 note=36 velocity=84 time=10\n",
      "note_on channel=1 note=36 velocity=0 time=10\n",
      "note_on channel=1 note=36 velocity=84 time=20\n",
      "note_on channel=1 note=36 velocity=0 time=15\n",
      "note_on channel=1 note=48 velocity=84 time=15\n",
      "note_on channel=1 note=48 velocity=0 time=15\n",
      "note_on channel=1 note=36 velocity=84 time=15\n",
      "note_on channel=1 note=36 velocity=0 time=20\n",
      "note_on channel=1 note=48 velocity=84 time=10\n",
      "note_on channel=1 note=48 velocity=0 time=10\n",
      "note_on channel=1 note=48 velocity=84 time=20\n",
      "note_on channel=1 note=48 velocity=0 time=15\n",
      "note_on channel=1 note=36 velocity=84 time=15\n",
      "note_on channel=1 note=36 velocity=0 time=20\n",
      "note_on channel=1 note=48 velocity=84 time=10\n",
      "note_on channel=1 note=48 velocity=0 time=25\n",
      "note_on channel=1 note=36 velocity=84 time=5\n",
      "note_on channel=1 note=36 velocity=0 time=5\n",
      "note_on channel=1 note=36 velocity=84 time=25\n",
      "note_on channel=1 note=36 velocity=0 time=20\n",
      "note_on channel=1 note=48 velocity=84 time=10\n",
      "note_on channel=1 note=48 velocity=0 time=20\n",
      "note_on channel=1 note=36 velocity=84 time=10\n",
      "note_on channel=1 note=36 velocity=0 time=20\n",
      "note_on channel=1 note=48 velocity=84 time=10\n",
      "note_on channel=1 note=48 velocity=0 time=10\n",
      "note_on channel=1 note=48 velocity=84 time=20\n",
      "note_on channel=1 note=48 velocity=0 time=15\n",
      "note_on channel=1 note=36 velocity=84 time=15\n",
      "note_on channel=1 note=36 velocity=0 time=20\n",
      "note_on channel=1 note=48 velocity=84 time=10\n",
      "note_on channel=1 note=48 velocity=0 time=25\n",
      "note_on channel=1 note=36 velocity=84 time=5\n",
      "note_on channel=1 note=36 velocity=0 time=10\n",
      "note_on channel=1 note=36 velocity=84 time=20\n",
      "note_on channel=1 note=36 velocity=0 time=15\n",
      "note_on channel=1 note=48 velocity=84 time=15\n",
      "note_on channel=1 note=48 velocity=0 time=20\n",
      "note_on channel=1 note=36 velocity=84 time=10\n",
      "note_on channel=1 note=36 velocity=0 time=20\n",
      "note_on channel=1 note=48 velocity=84 time=10\n",
      "note_on channel=1 note=48 velocity=0 time=10\n",
      "note_on channel=1 note=48 velocity=84 time=20\n",
      "note_on channel=1 note=48 velocity=0 time=15\n",
      "note_on channel=1 note=36 velocity=84 time=15\n",
      "note_on channel=1 note=36 velocity=0 time=15\n",
      "note_on channel=1 note=48 velocity=84 time=15\n",
      "note_on channel=1 note=48 velocity=0 time=25\n",
      "note_on channel=1 note=36 velocity=84 time=5\n",
      "note_on channel=1 note=36 velocity=0 time=15\n",
      "note_on channel=1 note=36 velocity=84 time=15\n",
      "note_on channel=1 note=36 velocity=0 time=15\n",
      "note_on channel=1 note=53 velocity=84 time=15\n",
      "note_on channel=1 note=53 velocity=0 time=20\n",
      "note_on channel=1 note=41 velocity=84 time=10\n",
      "note_on channel=1 note=41 velocity=0 time=20\n",
      "note_on channel=1 note=53 velocity=84 time=10\n",
      "note_on channel=1 note=53 velocity=0 time=10\n",
      "note_on channel=1 note=53 velocity=84 time=20\n",
      "note_on channel=1 note=53 velocity=0 time=20\n",
      "note_on channel=1 note=41 velocity=84 time=10\n",
      "note_on channel=1 note=41 velocity=0 time=20\n",
      "note_on channel=1 note=53 velocity=84 time=10\n",
      "note_on channel=1 note=53 velocity=0 time=30\n",
      "note_on channel=1 note=41 velocity=84 time=0\n",
      "note_on channel=1 note=41 velocity=0 time=10\n",
      "note_on channel=1 note=41 velocity=84 time=20\n",
      "note_on channel=1 note=41 velocity=0 time=20\n",
      "note_on channel=1 note=53 velocity=84 time=10\n",
      "note_on channel=1 note=53 velocity=0 time=20\n",
      "note_on channel=1 note=41 velocity=84 time=10\n",
      "note_on channel=1 note=41 velocity=0 time=25\n",
      "note_on channel=1 note=53 velocity=84 time=5\n",
      "note_on channel=1 note=53 velocity=0 time=10\n",
      "note_on channel=1 note=53 velocity=84 time=20\n",
      "note_on channel=1 note=53 velocity=0 time=20\n",
      "note_on channel=1 note=41 velocity=84 time=10\n",
      "note_on channel=1 note=41 velocity=0 time=20\n",
      "note_on channel=1 note=53 velocity=84 time=10\n",
      "note_on channel=1 note=53 velocity=0 time=25\n",
      "note_on channel=1 note=41 velocity=84 time=5\n",
      "note_on channel=1 note=41 velocity=0 time=10\n",
      "note_on channel=1 note=41 velocity=84 time=20\n",
      "note_on channel=1 note=41 velocity=0 time=20\n",
      "note_on channel=1 note=53 velocity=84 time=10\n",
      "note_on channel=1 note=53 velocity=0 time=20\n",
      "note_on channel=1 note=41 velocity=84 time=10\n",
      "note_on channel=1 note=41 velocity=0 time=15\n",
      "note_on channel=1 note=53 velocity=84 time=15\n",
      "note_on channel=1 note=53 velocity=0 time=10\n",
      "note_on channel=1 note=53 velocity=84 time=20\n",
      "note_on channel=1 note=53 velocity=0 time=15\n",
      "note_on channel=1 note=41 velocity=84 time=15\n",
      "note_on channel=1 note=41 velocity=0 time=20\n",
      "note_on channel=1 note=53 velocity=84 time=10\n",
      "note_on channel=1 note=53 velocity=0 time=20\n",
      "note_on channel=1 note=41 velocity=84 time=10\n",
      "note_on channel=1 note=41 velocity=0 time=10\n",
      "note_on channel=1 note=41 velocity=84 time=20\n",
      "note_on channel=1 note=41 velocity=0 time=15\n",
      "note_on channel=1 note=53 velocity=84 time=15\n",
      "note_on channel=1 note=53 velocity=0 time=15\n",
      "note_on channel=1 note=41 velocity=84 time=15\n",
      "note_on channel=1 note=41 velocity=0 time=20\n",
      "note_on channel=1 note=53 velocity=84 time=10\n",
      "note_on channel=1 note=53 velocity=0 time=10\n",
      "note_on channel=1 note=53 velocity=84 time=20\n",
      "note_on channel=1 note=53 velocity=0 time=15\n",
      "note_on channel=1 note=41 velocity=84 time=15\n",
      "note_on channel=1 note=41 velocity=0 time=20\n",
      "note_on channel=1 note=53 velocity=84 time=10\n",
      "note_on channel=1 note=53 velocity=0 time=20\n",
      "note_on channel=1 note=41 velocity=84 time=10\n",
      "note_on channel=1 note=41 velocity=0 time=10\n",
      "note_on channel=1 note=41 velocity=84 time=20\n",
      "note_on channel=1 note=41 velocity=0 time=10\n",
      "note_on channel=1 note=48 velocity=84 time=20\n",
      "note_on channel=1 note=48 velocity=0 time=20\n",
      "note_on channel=1 note=36 velocity=84 time=10\n",
      "note_on channel=1 note=36 velocity=0 time=30\n",
      "note_on channel=1 note=48 velocity=84 time=0\n",
      "note_on channel=1 note=48 velocity=0 time=10\n",
      "note_on channel=1 note=48 velocity=84 time=20\n",
      "note_on channel=1 note=48 velocity=0 time=20\n",
      "note_on channel=1 note=36 velocity=84 time=10\n",
      "note_on channel=1 note=36 velocity=0 time=20\n",
      "note_on channel=1 note=48 velocity=84 time=10\n",
      "note_on channel=1 note=48 velocity=0 time=30\n",
      "note_on channel=1 note=36 velocity=84 time=0\n",
      "note_on channel=1 note=36 velocity=0 time=10\n",
      "note_on channel=1 note=36 velocity=84 time=20\n",
      "note_on channel=1 note=36 velocity=0 time=15\n",
      "note_on channel=1 note=48 velocity=84 time=15\n",
      "note_on channel=1 note=48 velocity=0 time=20\n",
      "note_on channel=1 note=36 velocity=84 time=10\n",
      "note_on channel=1 note=36 velocity=0 time=20\n",
      "note_on channel=1 note=48 velocity=84 time=10\n",
      "note_on channel=1 note=48 velocity=0 time=5\n",
      "note_on channel=1 note=48 velocity=84 time=25\n",
      "note_on channel=1 note=48 velocity=0 time=15\n",
      "note_on channel=1 note=36 velocity=84 time=15\n",
      "note_on channel=1 note=36 velocity=0 time=20\n",
      "note_on channel=1 note=48 velocity=84 time=10\n",
      "note_on channel=1 note=48 velocity=0 time=30\n",
      "note_on channel=1 note=36 velocity=84 time=0\n",
      "note_on channel=1 note=36 velocity=0 time=10\n",
      "note_on channel=1 note=36 velocity=84 time=20\n",
      "note_on channel=1 note=36 velocity=0 time=15\n",
      "note_on channel=1 note=48 velocity=84 time=15\n",
      "note_on channel=1 note=48 velocity=0 time=20\n",
      "note_on channel=1 note=36 velocity=84 time=10\n",
      "note_on channel=1 note=36 velocity=0 time=20\n",
      "note_on channel=1 note=48 velocity=84 time=10\n",
      "note_on channel=1 note=48 velocity=0 time=10\n",
      "note_on channel=1 note=48 velocity=84 time=20\n",
      "note_on channel=1 note=48 velocity=0 time=15\n",
      "note_on channel=1 note=36 velocity=84 time=15\n",
      "note_on channel=1 note=36 velocity=0 time=20\n",
      "note_on channel=1 note=48 velocity=84 time=10\n",
      "note_on channel=1 note=48 velocity=0 time=20\n",
      "note_on channel=1 note=36 velocity=84 time=10\n",
      "note_on channel=1 note=36 velocity=0 time=10\n",
      "note_on channel=1 note=36 velocity=84 time=20\n",
      "note_on channel=1 note=36 velocity=0 time=15\n",
      "note_on channel=1 note=48 velocity=84 time=15\n",
      "note_on channel=1 note=48 velocity=0 time=20\n",
      "note_on channel=1 note=36 velocity=84 time=10\n",
      "note_on channel=1 note=36 velocity=0 time=20\n",
      "note_on channel=1 note=48 velocity=84 time=10\n",
      "note_on channel=1 note=48 velocity=0 time=10\n",
      "note_on channel=1 note=48 velocity=84 time=20\n",
      "note_on channel=1 note=48 velocity=0 time=15\n",
      "note_on channel=1 note=36 velocity=84 time=15\n",
      "note_on channel=1 note=36 velocity=0 time=15\n",
      "note_on channel=1 note=48 velocity=84 time=15\n",
      "note_on channel=1 note=48 velocity=0 time=20\n",
      "note_on channel=1 note=36 velocity=84 time=10\n",
      "note_on channel=1 note=36 velocity=0 time=10\n",
      "note_on channel=1 note=36 velocity=84 time=20\n",
      "note_on channel=1 note=36 velocity=0 time=15\n",
      "note_on channel=1 note=53 velocity=84 time=15\n",
      "note_on channel=1 note=53 velocity=0 time=20\n",
      "note_on channel=1 note=41 velocity=84 time=10\n",
      "note_on channel=1 note=41 velocity=0 time=30\n",
      "note_on channel=1 note=53 velocity=84 time=0\n",
      "note_on channel=1 note=53 velocity=0 time=10\n",
      "note_on channel=1 note=53 velocity=84 time=20\n",
      "note_on channel=1 note=53 velocity=0 time=20\n",
      "note_on channel=1 note=41 velocity=84 time=10\n",
      "note_on channel=1 note=41 velocity=0 time=20\n",
      "note_on channel=1 note=53 velocity=84 time=10\n",
      "note_on channel=1 note=53 velocity=0 time=30\n",
      "note_on channel=1 note=41 velocity=84 time=0\n",
      "note_on channel=1 note=41 velocity=0 time=10\n",
      "note_on channel=1 note=41 velocity=84 time=20\n",
      "note_on channel=1 note=41 velocity=0 time=20\n",
      "note_on channel=1 note=53 velocity=84 time=10\n",
      "note_on channel=1 note=53 velocity=0 time=20\n",
      "note_on channel=1 note=41 velocity=84 time=10\n",
      "note_on channel=1 note=41 velocity=0 time=25\n",
      "note_on channel=1 note=53 velocity=84 time=5\n",
      "note_on channel=1 note=53 velocity=0 time=10\n",
      "note_on channel=1 note=53 velocity=84 time=20\n",
      "note_on channel=1 note=53 velocity=0 time=20\n",
      "note_on channel=1 note=41 velocity=84 time=10\n",
      "note_on channel=1 note=41 velocity=0 time=20\n",
      "note_on channel=1 note=53 velocity=84 time=10\n",
      "note_on channel=1 note=53 velocity=0 time=30\n",
      "note_on channel=1 note=41 velocity=84 time=0\n",
      "note_on channel=1 note=41 velocity=0 time=10\n",
      "note_on channel=1 note=41 velocity=84 time=20\n",
      "note_on channel=1 note=41 velocity=0 time=20\n",
      "note_on channel=1 note=53 velocity=84 time=10\n",
      "note_on channel=1 note=53 velocity=0 time=20\n",
      "note_on channel=1 note=41 velocity=84 time=10\n",
      "note_on channel=1 note=41 velocity=0 time=25\n",
      "note_on channel=1 note=53 velocity=84 time=5\n",
      "note_on channel=1 note=53 velocity=0 time=10\n",
      "note_on channel=1 note=53 velocity=84 time=20\n",
      "note_on channel=1 note=53 velocity=0 time=20\n",
      "note_on channel=1 note=41 velocity=84 time=10\n",
      "note_on channel=1 note=41 velocity=0 time=20\n",
      "note_on channel=1 note=53 velocity=84 time=10\n",
      "note_on channel=1 note=41 velocity=84 time=30\n",
      "note_on channel=1 note=53 velocity=0 time=5\n",
      "note_on channel=1 note=41 velocity=0 time=5\n",
      "note_on channel=1 note=41 velocity=84 time=20\n",
      "note_on channel=1 note=41 velocity=0 time=15\n",
      "note_on channel=1 note=53 velocity=84 time=15\n",
      "note_on channel=1 note=53 velocity=0 time=20\n",
      "note_on channel=1 note=41 velocity=84 time=10\n",
      "note_on channel=1 note=41 velocity=0 time=20\n",
      "note_on channel=1 note=53 velocity=84 time=10\n",
      "note_on channel=1 note=53 velocity=0 time=10\n",
      "note_on channel=1 note=53 velocity=84 time=20\n",
      "note_on channel=1 note=53 velocity=0 time=15\n",
      "note_on channel=1 note=41 velocity=84 time=15\n",
      "note_on channel=1 note=41 velocity=0 time=20\n",
      "note_on channel=1 note=53 velocity=84 time=10\n",
      "note_on channel=1 note=53 velocity=0 time=25\n",
      "note_on channel=1 note=41 velocity=84 time=5\n",
      "note_on channel=1 note=41 velocity=0 time=15\n",
      "note_on channel=1 note=41 velocity=84 time=15\n",
      "note_on channel=1 note=41 velocity=0 time=15\n",
      "note_on channel=1 note=48 velocity=84 time=15\n",
      "note_on channel=1 note=48 velocity=0 time=20\n",
      "note_on channel=1 note=36 velocity=84 time=10\n",
      "note_on channel=1 note=36 velocity=0 time=30\n",
      "note_on channel=1 note=48 velocity=84 time=0\n",
      "note_on channel=1 note=48 velocity=0 time=10\n",
      "note_on channel=1 note=48 velocity=84 time=20\n",
      "note_on channel=1 note=48 velocity=0 time=15\n",
      "note_on channel=1 note=36 velocity=84 time=15\n",
      "note_on channel=1 note=36 velocity=0 time=20\n",
      "note_on channel=1 note=48 velocity=84 time=10\n",
      "note_on channel=1 note=48 velocity=0 time=25\n",
      "note_on channel=1 note=36 velocity=84 time=5\n",
      "note_on channel=1 note=36 velocity=0 time=10\n",
      "note_on channel=1 note=36 velocity=84 time=20\n",
      "note_on channel=1 note=36 velocity=0 time=20\n",
      "note_on channel=1 note=48 velocity=84 time=10\n",
      "note_on channel=1 note=48 velocity=0 time=20\n",
      "note_on channel=1 note=36 velocity=84 time=10\n",
      "note_on channel=1 note=36 velocity=0 time=25\n",
      "note_on channel=1 note=48 velocity=84 time=5\n",
      "note_on channel=1 note=48 velocity=0 time=10\n",
      "note_on channel=1 note=48 velocity=84 time=20\n",
      "note_on channel=1 note=48 velocity=0 time=20\n",
      "note_on channel=1 note=36 velocity=84 time=10\n",
      "note_on channel=1 note=36 velocity=0 time=20\n",
      "note_on channel=1 note=48 velocity=84 time=10\n",
      "note_on channel=1 note=48 velocity=0 time=20\n",
      "note_on channel=1 note=36 velocity=84 time=10\n",
      "note_on channel=1 note=36 velocity=0 time=10\n",
      "note_on channel=1 note=36 velocity=84 time=20\n",
      "note_on channel=1 note=36 velocity=0 time=15\n",
      "note_on channel=1 note=48 velocity=84 time=15\n",
      "note_on channel=1 note=48 velocity=0 time=15\n",
      "note_on channel=1 note=36 velocity=84 time=15\n",
      "note_on channel=1 note=36 velocity=0 time=20\n",
      "note_on channel=1 note=48 velocity=84 time=10\n",
      "note_on channel=1 note=48 velocity=0 time=10\n",
      "note_on channel=1 note=48 velocity=84 time=20\n",
      "note_on channel=1 note=48 velocity=0 time=15\n",
      "note_on channel=1 note=36 velocity=84 time=15\n",
      "note_on channel=1 note=36 velocity=0 time=20\n",
      "note_on channel=1 note=48 velocity=84 time=10\n",
      "note_on channel=1 note=48 velocity=0 time=20\n",
      "note_on channel=1 note=36 velocity=84 time=10\n",
      "note_on channel=1 note=36 velocity=0 time=10\n",
      "note_on channel=1 note=36 velocity=84 time=20\n",
      "note_on channel=1 note=36 velocity=0 time=15\n",
      "note_on channel=1 note=48 velocity=84 time=15\n",
      "note_on channel=1 note=48 velocity=0 time=15\n",
      "note_on channel=1 note=36 velocity=84 time=15\n",
      "note_on channel=1 note=36 velocity=0 time=20\n",
      "note_on channel=1 note=48 velocity=84 time=10\n",
      "note_on channel=1 note=48 velocity=0 time=10\n",
      "note_on channel=1 note=48 velocity=84 time=20\n",
      "note_on channel=1 note=48 velocity=0 time=15\n",
      "note_on channel=1 note=36 velocity=84 time=15\n",
      "note_on channel=1 note=36 velocity=0 time=20\n",
      "note_on channel=1 note=48 velocity=84 time=10\n",
      "note_on channel=1 note=48 velocity=0 time=20\n",
      "note_on channel=1 note=36 velocity=84 time=10\n",
      "note_on channel=1 note=36 velocity=0 time=5\n",
      "note_on channel=1 note=36 velocity=84 time=25\n",
      "note_on channel=1 note=36 velocity=0 time=15\n",
      "note_on channel=1 note=43 velocity=84 time=15\n",
      "note_on channel=1 note=43 velocity=0 time=150\n",
      "note_on channel=1 note=41 velocity=84 time=30\n",
      "note_on channel=1 note=41 velocity=0 time=150\n",
      "note_on channel=1 note=39 velocity=84 time=30\n",
      "note_on channel=1 note=39 velocity=0 time=40\n",
      "note_on channel=1 note=41 velocity=84 time=20\n",
      "note_on channel=1 note=41 velocity=0 time=90\n",
      "note_on channel=1 note=43 velocity=84 time=450\n",
      "note_on channel=1 note=43 velocity=0 time=145\n",
      "note_on channel=1 note=41 velocity=84 time=35\n",
      "note_on channel=1 note=41 velocity=0 time=135\n",
      "note_on channel=1 note=39 velocity=84 time=45\n",
      "note_on channel=1 note=39 velocity=0 time=40\n",
      "note_on channel=1 note=41 velocity=84 time=20\n",
      "note_on channel=1 note=41 velocity=0 time=85\n",
      "note_on channel=1 note=48 velocity=84 time=455\n",
      "note_on channel=1 note=48 velocity=0 time=20\n",
      "note_on channel=1 note=36 velocity=84 time=10\n",
      "note_on channel=1 note=36 velocity=0 time=30\n",
      "note_on channel=1 note=48 velocity=84 time=0\n",
      "note_on channel=1 note=48 velocity=0 time=10\n",
      "note_on channel=1 note=48 velocity=84 time=20\n",
      "note_on channel=1 note=48 velocity=0 time=15\n",
      "note_on channel=1 note=36 velocity=84 time=15\n",
      "note_on channel=1 note=36 velocity=0 time=20\n",
      "note_on channel=1 note=48 velocity=84 time=10\n",
      "note_on channel=1 note=48 velocity=0 time=25\n",
      "note_on channel=1 note=36 velocity=84 time=5\n",
      "note_on channel=1 note=36 velocity=0 time=10\n",
      "note_on channel=1 note=36 velocity=84 time=20\n",
      "note_on channel=1 note=36 velocity=0 time=15\n",
      "note_on channel=1 note=48 velocity=84 time=15\n",
      "note_on channel=1 note=48 velocity=0 time=20\n",
      "note_on channel=1 note=36 velocity=84 time=10\n",
      "note_on channel=1 note=36 velocity=0 time=25\n",
      "note_on channel=1 note=48 velocity=84 time=5\n",
      "note_on channel=1 note=48 velocity=0 time=10\n",
      "note_on channel=1 note=48 velocity=84 time=20\n",
      "note_on channel=1 note=48 velocity=0 time=20\n",
      "note_on channel=1 note=36 velocity=84 time=10\n",
      "note_on channel=1 note=36 velocity=0 time=20\n",
      "note_on channel=1 note=48 velocity=84 time=10\n",
      "note_on channel=1 note=48 velocity=0 time=25\n",
      "note_on channel=1 note=36 velocity=84 time=5\n",
      "note_on channel=1 note=36 velocity=0 time=10\n",
      "note_on channel=1 note=36 velocity=84 time=20\n",
      "note_on channel=1 note=36 velocity=0 time=15\n",
      "note_on channel=1 note=48 velocity=84 time=15\n",
      "note_on channel=1 note=48 velocity=0 time=20\n",
      "note_on channel=1 note=36 velocity=84 time=10\n",
      "note_on channel=1 note=36 velocity=0 time=25\n",
      "note_on channel=1 note=48 velocity=84 time=5\n",
      "note_on channel=1 note=48 velocity=0 time=10\n",
      "note_on channel=1 note=48 velocity=84 time=20\n",
      "note_on channel=1 note=48 velocity=0 time=15\n",
      "note_on channel=1 note=36 velocity=84 time=15\n",
      "note_on channel=1 note=36 velocity=0 time=20\n",
      "note_on channel=1 note=48 velocity=84 time=10\n",
      "note_on channel=1 note=48 velocity=0 time=25\n",
      "note_on channel=1 note=36 velocity=84 time=5\n",
      "note_on channel=1 note=36 velocity=0 time=10\n",
      "note_on channel=1 note=36 velocity=84 time=20\n",
      "note_on channel=1 note=36 velocity=0 time=15\n",
      "note_on channel=1 note=48 velocity=84 time=15\n",
      "note_on channel=1 note=48 velocity=0 time=20\n",
      "note_on channel=1 note=36 velocity=84 time=10\n",
      "note_on channel=1 note=36 velocity=0 time=20\n",
      "note_on channel=1 note=48 velocity=84 time=10\n",
      "note_on channel=1 note=48 velocity=0 time=10\n",
      "note_on channel=1 note=48 velocity=84 time=20\n",
      "note_on channel=1 note=48 velocity=0 time=15\n",
      "note_on channel=1 note=36 velocity=84 time=15\n",
      "note_on channel=1 note=36 velocity=0 time=20\n",
      "note_on channel=1 note=48 velocity=84 time=10\n",
      "note_on channel=1 note=48 velocity=0 time=25\n",
      "note_on channel=1 note=36 velocity=84 time=5\n",
      "note_on channel=1 note=36 velocity=0 time=10\n",
      "note_on channel=1 note=36 velocity=84 time=20\n",
      "note_on channel=1 note=36 velocity=0 time=15\n",
      "note_on channel=1 note=48 velocity=84 time=15\n",
      "note_on channel=1 note=48 velocity=0 time=15\n",
      "note_on channel=1 note=36 velocity=84 time=15\n",
      "note_on channel=1 note=36 velocity=0 time=25\n",
      "note_on channel=1 note=48 velocity=84 time=5\n",
      "note_on channel=1 note=48 velocity=0 time=5\n",
      "note_on channel=1 note=48 velocity=84 time=25\n",
      "note_on channel=1 note=48 velocity=0 time=15\n",
      "note_on channel=1 note=36 velocity=84 time=15\n",
      "note_on channel=1 note=36 velocity=0 time=20\n",
      "note_on channel=1 note=48 velocity=84 time=10\n",
      "note_on channel=1 note=48 velocity=0 time=20\n",
      "note_on channel=1 note=36 velocity=84 time=10\n",
      "note_on channel=1 note=36 velocity=0 time=10\n",
      "note_on channel=1 note=36 velocity=84 time=20\n",
      "note_on channel=1 note=36 velocity=0 time=15\n",
      "note_on channel=1 note=48 velocity=84 time=15\n",
      "note_on channel=1 note=48 velocity=0 time=20\n",
      "note_on channel=1 note=36 velocity=84 time=10\n",
      "note_on channel=1 note=36 velocity=0 time=20\n",
      "note_on channel=1 note=48 velocity=84 time=10\n",
      "note_on channel=1 note=48 velocity=0 time=10\n",
      "note_on channel=1 note=48 velocity=84 time=20\n",
      "note_on channel=1 note=48 velocity=0 time=15\n",
      "note_on channel=1 note=36 velocity=84 time=15\n",
      "note_on channel=1 note=36 velocity=0 time=20\n",
      "note_on channel=1 note=48 velocity=84 time=10\n",
      "note_on channel=1 note=48 velocity=0 time=20\n",
      "note_on channel=1 note=36 velocity=84 time=10\n",
      "note_on channel=1 note=36 velocity=0 time=10\n",
      "note_on channel=1 note=36 velocity=84 time=20\n",
      "note_on channel=1 note=36 velocity=0 time=15\n",
      "note_on channel=1 note=48 velocity=84 time=15\n",
      "note_on channel=1 note=48 velocity=0 time=20\n",
      "note_on channel=1 note=36 velocity=84 time=10\n",
      "note_on channel=1 note=36 velocity=0 time=20\n",
      "note_on channel=1 note=48 velocity=84 time=10\n",
      "note_on channel=1 note=48 velocity=0 time=10\n",
      "note_on channel=1 note=48 velocity=84 time=20\n",
      "note_on channel=1 note=48 velocity=0 time=15\n",
      "note_on channel=1 note=36 velocity=84 time=15\n",
      "note_on channel=1 note=36 velocity=0 time=20\n",
      "note_on channel=1 note=48 velocity=84 time=10\n",
      "note_on channel=1 note=48 velocity=0 time=20\n",
      "note_on channel=1 note=36 velocity=84 time=10\n",
      "note_on channel=1 note=36 velocity=0 time=10\n",
      "note_on channel=1 note=36 velocity=84 time=20\n",
      "note_on channel=1 note=36 velocity=0 time=20\n",
      "note_on channel=1 note=48 velocity=84 time=10\n",
      "note_on channel=1 note=48 velocity=0 time=20\n",
      "note_on channel=1 note=36 velocity=84 time=10\n",
      "note_on channel=1 note=36 velocity=0 time=25\n",
      "note_on channel=1 note=48 velocity=84 time=5\n",
      "note_on channel=1 note=48 velocity=0 time=10\n",
      "note_on channel=1 note=48 velocity=84 time=20\n",
      "note_on channel=1 note=48 velocity=0 time=15\n",
      "note_on channel=1 note=36 velocity=84 time=15\n",
      "note_on channel=1 note=36 velocity=0 time=20\n",
      "note_on channel=1 note=48 velocity=84 time=10\n",
      "note_on channel=1 note=48 velocity=0 time=20\n",
      "note_on channel=1 note=36 velocity=84 time=10\n",
      "note_on channel=1 note=36 velocity=0 time=10\n",
      "note_on channel=1 note=36 velocity=84 time=20\n",
      "note_on channel=1 note=36 velocity=0 time=15\n",
      "note_on channel=1 note=48 velocity=84 time=15\n",
      "note_on channel=1 note=48 velocity=0 time=20\n",
      "note_on channel=1 note=36 velocity=84 time=10\n",
      "note_on channel=1 note=36 velocity=0 time=30\n",
      "note_on channel=1 note=48 velocity=84 time=0\n",
      "note_on channel=1 note=48 velocity=0 time=10\n",
      "note_on channel=1 note=48 velocity=84 time=20\n",
      "note_on channel=1 note=48 velocity=0 time=15\n",
      "note_on channel=1 note=36 velocity=84 time=15\n",
      "note_on channel=1 note=36 velocity=0 time=20\n",
      "note_on channel=1 note=48 velocity=84 time=10\n",
      "note_on channel=1 note=48 velocity=0 time=25\n",
      "note_on channel=1 note=36 velocity=84 time=5\n",
      "note_on channel=1 note=36 velocity=0 time=10\n",
      "note_on channel=1 note=36 velocity=84 time=20\n",
      "note_on channel=1 note=36 velocity=0 time=15\n",
      "note_on channel=1 note=48 velocity=84 time=15\n",
      "note_on channel=1 note=48 velocity=0 time=20\n",
      "note_on channel=1 note=36 velocity=84 time=10\n",
      "note_on channel=1 note=36 velocity=0 time=20\n",
      "note_on channel=1 note=48 velocity=84 time=10\n",
      "note_on channel=1 note=48 velocity=0 time=5\n",
      "note_on channel=1 note=48 velocity=84 time=25\n",
      "note_on channel=1 note=48 velocity=0 time=15\n",
      "note_on channel=1 note=36 velocity=84 time=15\n",
      "note_on channel=1 note=36 velocity=0 time=20\n",
      "note_on channel=1 note=48 velocity=84 time=10\n",
      "note_on channel=1 note=48 velocity=0 time=20\n",
      "note_on channel=1 note=36 velocity=84 time=10\n",
      "note_on channel=1 note=36 velocity=0 time=10\n",
      "note_on channel=1 note=36 velocity=84 time=20\n",
      "note_on channel=1 note=36 velocity=0 time=15\n",
      "note_on channel=1 note=48 velocity=84 time=15\n",
      "note_on channel=1 note=48 velocity=0 time=20\n",
      "note_on channel=1 note=36 velocity=84 time=10\n",
      "note_on channel=1 note=36 velocity=0 time=20\n",
      "note_on channel=1 note=48 velocity=84 time=10\n",
      "note_on channel=1 note=48 velocity=0 time=5\n",
      "note_on channel=1 note=48 velocity=84 time=25\n",
      "note_on channel=1 note=48 velocity=0 time=15\n",
      "note_on channel=1 note=36 velocity=84 time=15\n",
      "note_on channel=1 note=36 velocity=0 time=20\n",
      "note_on channel=1 note=48 velocity=84 time=10\n",
      "note_on channel=1 note=48 velocity=0 time=20\n",
      "note_on channel=1 note=36 velocity=84 time=10\n",
      "note_on channel=1 note=36 velocity=0 time=10\n",
      "note_on channel=1 note=36 velocity=84 time=20\n",
      "note_on channel=1 note=36 velocity=0 time=15\n",
      "note_on channel=1 note=48 velocity=84 time=15\n",
      "note_on channel=1 note=48 velocity=0 time=15\n",
      "note_on channel=1 note=36 velocity=84 time=15\n",
      "note_on channel=1 note=36 velocity=0 time=20\n",
      "note_on channel=1 note=48 velocity=84 time=10\n",
      "note_on channel=1 note=48 velocity=0 time=10\n",
      "note_on channel=1 note=48 velocity=84 time=20\n",
      "note_on channel=1 note=48 velocity=0 time=15\n",
      "note_on channel=1 note=36 velocity=84 time=15\n",
      "note_on channel=1 note=36 velocity=0 time=15\n",
      "note_on channel=1 note=48 velocity=84 time=15\n",
      "note_on channel=1 note=48 velocity=0 time=20\n",
      "note_on channel=1 note=36 velocity=84 time=10\n",
      "note_on channel=1 note=36 velocity=0 time=10\n",
      "note_on channel=1 note=36 velocity=84 time=20\n",
      "note_on channel=1 note=36 velocity=0 time=10\n",
      "note_on channel=1 note=48 velocity=84 time=20\n",
      "note_on channel=1 note=48 velocity=0 time=15\n",
      "note_on channel=1 note=36 velocity=84 time=15\n",
      "note_on channel=1 note=36 velocity=0 time=20\n",
      "note_on channel=1 note=48 velocity=84 time=10\n",
      "note_on channel=1 note=48 velocity=0 time=10\n",
      "note_on channel=1 note=48 velocity=84 time=20\n",
      "note_on channel=1 note=48 velocity=0 time=15\n",
      "note_on channel=1 note=36 velocity=84 time=15\n",
      "note_on channel=1 note=36 velocity=0 time=15\n",
      "note_on channel=1 note=48 velocity=84 time=15\n",
      "note_on channel=1 note=48 velocity=0 time=20\n",
      "note_on channel=1 note=36 velocity=84 time=10\n",
      "note_on channel=1 note=36 velocity=0 time=10\n",
      "note_on channel=1 note=36 velocity=84 time=20\n",
      "note_on channel=1 note=36 velocity=0 time=15\n",
      "note_on channel=1 note=48 velocity=84 time=15\n",
      "note_on channel=1 note=48 velocity=0 time=15\n",
      "note_on channel=1 note=36 velocity=84 time=15\n",
      "note_on channel=1 note=36 velocity=0 time=20\n",
      "note_on channel=1 note=48 velocity=84 time=10\n",
      "note_on channel=1 note=48 velocity=0 time=5\n",
      "note_on channel=1 note=48 velocity=84 time=25\n",
      "note_on channel=1 note=48 velocity=0 time=15\n",
      "note_on channel=1 note=36 velocity=84 time=15\n",
      "note_on channel=1 note=36 velocity=0 time=20\n",
      "note_on channel=1 note=48 velocity=84 time=10\n",
      "note_on channel=1 note=48 velocity=0 time=20\n",
      "note_on channel=1 note=36 velocity=84 time=10\n",
      "note_on channel=1 note=36 velocity=0 time=10\n",
      "note_on channel=1 note=36 velocity=84 time=20\n",
      "note_on channel=1 note=36 velocity=0 time=15\n",
      "note_on channel=1 note=48 velocity=84 time=15\n",
      "note_on channel=1 note=48 velocity=0 time=15\n",
      "note_on channel=1 note=36 velocity=84 time=15\n",
      "note_on channel=1 note=36 velocity=0 time=20\n",
      "note_on channel=1 note=48 velocity=84 time=10\n",
      "note_on channel=1 note=48 velocity=0 time=10\n",
      "note_on channel=1 note=48 velocity=84 time=20\n",
      "note_on channel=1 note=48 velocity=0 time=15\n",
      "note_on channel=1 note=36 velocity=84 time=15\n",
      "note_on channel=1 note=36 velocity=0 time=20\n",
      "note_on channel=1 note=48 velocity=84 time=10\n",
      "note_on channel=1 note=48 velocity=0 time=20\n",
      "note_on channel=1 note=36 velocity=84 time=10\n",
      "note_on channel=1 note=36 velocity=0 time=10\n",
      "note_on channel=1 note=36 velocity=84 time=20\n",
      "note_on channel=1 note=36 velocity=0 time=15\n",
      "note_on channel=1 note=48 velocity=84 time=15\n",
      "note_on channel=1 note=48 velocity=0 time=15\n",
      "note_on channel=1 note=36 velocity=84 time=15\n",
      "note_on channel=1 note=36 velocity=0 time=20\n",
      "note_on channel=1 note=48 velocity=84 time=10\n",
      "note_on channel=1 note=48 velocity=0 time=5\n",
      "note_on channel=1 note=48 velocity=84 time=25\n",
      "note_on channel=1 note=48 velocity=0 time=15\n",
      "note_on channel=1 note=36 velocity=84 time=15\n",
      "note_on channel=1 note=36 velocity=0 time=15\n",
      "note_on channel=1 note=48 velocity=84 time=15\n",
      "note_on channel=1 note=48 velocity=0 time=15\n",
      "note_on channel=1 note=36 velocity=84 time=15\n",
      "note_on channel=1 note=36 velocity=0 time=10\n",
      "note_on channel=1 note=36 velocity=84 time=20\n",
      "note_on channel=1 note=36 velocity=0 time=15\n",
      "note_on channel=1 note=48 velocity=84 time=15\n",
      "note_on channel=1 note=48 velocity=0 time=10\n",
      "note_on channel=1 note=36 velocity=84 time=20\n",
      "note_on channel=1 note=36 velocity=0 time=15\n",
      "note_on channel=1 note=48 velocity=84 time=15\n",
      "note_on channel=1 note=48 velocity=0 time=5\n",
      "note_on channel=1 note=48 velocity=84 time=25\n",
      "note_on channel=1 note=48 velocity=0 time=15\n",
      "note_on channel=1 note=36 velocity=84 time=15\n",
      "note_on channel=1 note=36 velocity=0 time=15\n",
      "note_on channel=1 note=48 velocity=84 time=15\n",
      "note_on channel=1 note=48 velocity=0 time=15\n",
      "note_on channel=1 note=36 velocity=84 time=15\n",
      "note_on channel=1 note=36 velocity=0 time=10\n",
      "note_on channel=1 note=36 velocity=84 time=20\n",
      "note_on channel=1 note=36 velocity=0 time=15\n",
      "note_on channel=1 note=48 velocity=84 time=15\n",
      "note_on channel=1 note=48 velocity=0 time=15\n",
      "note_on channel=1 note=36 velocity=84 time=15\n",
      "note_on channel=1 note=36 velocity=0 time=20\n",
      "note_on channel=1 note=48 velocity=84 time=10\n",
      "note_on channel=1 note=48 velocity=0 time=10\n",
      "note_on channel=1 note=48 velocity=84 time=20\n",
      "note_on channel=1 note=48 velocity=0 time=15\n",
      "note_on channel=1 note=36 velocity=84 time=15\n",
      "note_on channel=1 note=36 velocity=0 time=20\n",
      "note_on channel=1 note=48 velocity=84 time=10\n",
      "note_on channel=1 note=48 velocity=0 time=20\n",
      "note_on channel=1 note=36 velocity=84 time=10\n",
      "note_on channel=1 note=36 velocity=0 time=10\n",
      "note_on channel=1 note=36 velocity=84 time=20\n",
      "note_on channel=1 note=36 velocity=0 time=10\n",
      "note_on channel=1 note=48 velocity=84 time=20\n",
      "note_on channel=1 note=48 velocity=0 time=15\n",
      "note_on channel=1 note=36 velocity=84 time=15\n",
      "note_on channel=1 note=36 velocity=0 time=20\n",
      "note_on channel=1 note=48 velocity=84 time=10\n",
      "note_on channel=1 note=48 velocity=0 time=10\n",
      "note_on channel=1 note=48 velocity=84 time=20\n",
      "note_on channel=1 note=48 velocity=0 time=15\n",
      "note_on channel=1 note=36 velocity=84 time=15\n",
      "note_on channel=1 note=36 velocity=0 time=20\n",
      "note_on channel=1 note=48 velocity=84 time=10\n",
      "note_on channel=1 note=48 velocity=0 time=20\n",
      "note_on channel=1 note=36 velocity=84 time=10\n",
      "note_on channel=1 note=36 velocity=0 time=10\n",
      "note_on channel=1 note=36 velocity=84 time=20\n",
      "note_on channel=1 note=36 velocity=0 time=15\n",
      "note_on channel=1 note=48 velocity=84 time=15\n",
      "note_on channel=1 note=48 velocity=0 time=15\n",
      "note_on channel=1 note=36 velocity=84 time=15\n",
      "note_on channel=1 note=36 velocity=0 time=20\n",
      "note_on channel=1 note=48 velocity=84 time=10\n",
      "note_on channel=1 note=48 velocity=0 time=10\n",
      "note_on channel=1 note=48 velocity=84 time=20\n",
      "note_on channel=1 note=48 velocity=0 time=15\n",
      "note_on channel=1 note=36 velocity=84 time=15\n",
      "note_on channel=1 note=36 velocity=0 time=20\n",
      "note_on channel=1 note=48 velocity=84 time=10\n",
      "note_on channel=1 note=48 velocity=0 time=20\n",
      "note_on channel=1 note=36 velocity=84 time=10\n",
      "note_on channel=1 note=36 velocity=0 time=10\n",
      "note_on channel=1 note=36 velocity=84 time=20\n",
      "note_on channel=1 note=36 velocity=0 time=15\n",
      "note_on channel=1 note=48 velocity=84 time=15\n",
      "note_on channel=1 note=48 velocity=0 time=15\n",
      "note_on channel=1 note=36 velocity=84 time=15\n",
      "note_on channel=1 note=36 velocity=0 time=20\n",
      "note_on channel=1 note=48 velocity=84 time=10\n",
      "note_on channel=1 note=48 velocity=0 time=10\n",
      "note_on channel=1 note=48 velocity=84 time=20\n",
      "note_on channel=1 note=48 velocity=0 time=15\n",
      "note_on channel=1 note=36 velocity=84 time=15\n",
      "note_on channel=1 note=36 velocity=0 time=20\n",
      "note_on channel=1 note=48 velocity=84 time=10\n",
      "note_on channel=1 note=48 velocity=0 time=20\n",
      "note_on channel=1 note=36 velocity=84 time=10\n",
      "note_on channel=1 note=36 velocity=0 time=10\n",
      "note_on channel=1 note=36 velocity=84 time=20\n",
      "note_on channel=1 note=36 velocity=0 time=15\n",
      "note_on channel=1 note=48 velocity=84 time=15\n",
      "note_on channel=1 note=48 velocity=0 time=15\n",
      "note_on channel=1 note=36 velocity=84 time=15\n",
      "note_on channel=1 note=36 velocity=0 time=20\n",
      "note_on channel=1 note=48 velocity=84 time=10\n",
      "note_on channel=1 note=48 velocity=0 time=10\n",
      "note_on channel=1 note=48 velocity=84 time=20\n",
      "note_on channel=1 note=48 velocity=0 time=15\n",
      "note_on channel=1 note=36 velocity=84 time=15\n",
      "note_on channel=1 note=36 velocity=0 time=15\n",
      "note_on channel=1 note=48 velocity=84 time=15\n",
      "note_on channel=1 note=48 velocity=0 time=20\n",
      "note_on channel=1 note=36 velocity=84 time=10\n",
      "note_on channel=1 note=36 velocity=0 time=10\n",
      "note_on channel=1 note=36 velocity=84 time=20\n",
      "note_on channel=1 note=36 velocity=0 time=15\n",
      "note_on channel=1 note=48 velocity=84 time=15\n",
      "note_on channel=1 note=48 velocity=0 time=15\n",
      "note_on channel=1 note=36 velocity=84 time=15\n",
      "note_on channel=1 note=36 velocity=0 time=20\n",
      "note_on channel=1 note=48 velocity=84 time=10\n",
      "note_on channel=1 note=48 velocity=0 time=10\n",
      "note_on channel=1 note=48 velocity=84 time=20\n",
      "note_on channel=1 note=48 velocity=0 time=15\n",
      "note_on channel=1 note=36 velocity=84 time=15\n",
      "note_on channel=1 note=36 velocity=0 time=20\n",
      "note_on channel=1 note=48 velocity=84 time=10\n",
      "note_on channel=1 note=48 velocity=0 time=20\n",
      "note_on channel=1 note=36 velocity=84 time=10\n",
      "note_on channel=1 note=36 velocity=0 time=10\n",
      "note_on channel=1 note=36 velocity=84 time=20\n",
      "note_on channel=1 note=36 velocity=0 time=15\n",
      "note_on channel=1 note=48 velocity=84 time=15\n",
      "note_on channel=1 note=48 velocity=0 time=15\n",
      "note_on channel=1 note=36 velocity=84 time=15\n",
      "note_on channel=1 note=36 velocity=0 time=20\n",
      "note_on channel=1 note=48 velocity=84 time=10\n",
      "note_on channel=1 note=48 velocity=0 time=10\n",
      "note_on channel=1 note=48 velocity=84 time=20\n",
      "note_on channel=1 note=48 velocity=0 time=15\n",
      "note_on channel=1 note=36 velocity=84 time=15\n",
      "note_on channel=1 note=36 velocity=0 time=15\n",
      "note_on channel=1 note=48 velocity=84 time=15\n",
      "note_on channel=1 note=48 velocity=0 time=20\n",
      "note_on channel=1 note=36 velocity=84 time=10\n",
      "note_on channel=1 note=36 velocity=0 time=10\n",
      "note_on channel=1 note=36 velocity=84 time=20\n",
      "note_on channel=1 note=36 velocity=0 time=15\n",
      "note_on channel=1 note=48 velocity=84 time=15\n",
      "note_on channel=1 note=48 velocity=0 time=20\n",
      "note_on channel=1 note=36 velocity=84 time=10\n",
      "note_on channel=1 note=36 velocity=0 time=20\n",
      "note_on channel=1 note=48 velocity=84 time=10\n",
      "note_on channel=1 note=48 velocity=0 time=10\n",
      "note_on channel=1 note=48 velocity=84 time=20\n",
      "note_on channel=1 note=48 velocity=0 time=15\n",
      "note_on channel=1 note=36 velocity=84 time=15\n",
      "note_on channel=1 note=36 velocity=0 time=20\n",
      "note_on channel=1 note=48 velocity=84 time=10\n",
      "note_on channel=1 note=48 velocity=0 time=20\n",
      "note_on channel=1 note=36 velocity=84 time=10\n",
      "note_on channel=1 note=36 velocity=0 time=10\n",
      "note_on channel=1 note=36 velocity=84 time=20\n",
      "note_on channel=1 note=36 velocity=0 time=15\n",
      "note_on channel=1 note=48 velocity=84 time=15\n",
      "note_on channel=1 note=48 velocity=0 time=15\n",
      "note_on channel=1 note=36 velocity=84 time=15\n",
      "note_on channel=1 note=36 velocity=0 time=20\n",
      "note_on channel=1 note=48 velocity=84 time=10\n",
      "note_on channel=1 note=48 velocity=0 time=10\n",
      "note_on channel=1 note=48 velocity=84 time=20\n",
      "note_on channel=1 note=48 velocity=0 time=15\n",
      "note_on channel=1 note=36 velocity=84 time=15\n",
      "note_on channel=1 note=36 velocity=0 time=15\n",
      "note_on channel=1 note=48 velocity=84 time=15\n",
      "note_on channel=1 note=48 velocity=0 time=20\n",
      "note_on channel=1 note=36 velocity=84 time=10\n",
      "note_on channel=1 note=36 velocity=0 time=10\n",
      "note_on channel=1 note=36 velocity=84 time=20\n",
      "note_on channel=1 note=36 velocity=0 time=15\n",
      "note_on channel=1 note=48 velocity=84 time=15\n",
      "note_on channel=1 note=48 velocity=0 time=15\n",
      "note_on channel=1 note=36 velocity=84 time=15\n",
      "note_on channel=1 note=36 velocity=0 time=20\n",
      "note_on channel=1 note=48 velocity=84 time=10\n",
      "note_on channel=1 note=48 velocity=0 time=10\n",
      "note_on channel=1 note=48 velocity=84 time=20\n",
      "note_on channel=1 note=48 velocity=0 time=15\n",
      "note_on channel=1 note=36 velocity=84 time=15\n",
      "note_on channel=1 note=36 velocity=0 time=20\n",
      "note_on channel=1 note=48 velocity=84 time=10\n",
      "note_on channel=1 note=48 velocity=0 time=15\n",
      "note_on channel=1 note=36 velocity=84 time=15\n",
      "note_on channel=1 note=36 velocity=0 time=10\n",
      "note_on channel=1 note=36 velocity=84 time=20\n",
      "note_on channel=1 note=36 velocity=0 time=15\n",
      "note_on channel=1 note=48 velocity=84 time=15\n",
      "note_on channel=1 note=48 velocity=0 time=15\n",
      "note_on channel=1 note=36 velocity=84 time=15\n",
      "note_on channel=1 note=36 velocity=0 time=20\n",
      "note_on channel=1 note=48 velocity=84 time=10\n",
      "note_on channel=1 note=48 velocity=0 time=10\n",
      "note_on channel=1 note=48 velocity=84 time=20\n",
      "note_on channel=1 note=48 velocity=0 time=15\n",
      "note_on channel=1 note=36 velocity=84 time=15\n",
      "note_on channel=1 note=36 velocity=0 time=20\n",
      "note_on channel=1 note=48 velocity=84 time=10\n",
      "note_on channel=1 note=48 velocity=0 time=15\n",
      "note_on channel=1 note=36 velocity=84 time=15\n",
      "note_on channel=1 note=36 velocity=0 time=10\n",
      "note_on channel=1 note=36 velocity=84 time=20\n",
      "note_on channel=1 note=36 velocity=0 time=15\n",
      "note_on channel=1 note=48 velocity=84 time=15\n",
      "note_on channel=1 note=48 velocity=0 time=15\n",
      "note_on channel=1 note=36 velocity=84 time=15\n",
      "note_on channel=1 note=36 velocity=0 time=20\n",
      "note_on channel=1 note=48 velocity=84 time=10\n",
      "note_on channel=1 note=48 velocity=0 time=10\n",
      "note_on channel=1 note=48 velocity=84 time=20\n",
      "note_on channel=1 note=48 velocity=0 time=15\n",
      "note_on channel=1 note=36 velocity=84 time=15\n",
      "note_on channel=1 note=36 velocity=0 time=20\n",
      "note_on channel=1 note=48 velocity=84 time=10\n",
      "note_on channel=1 note=48 velocity=0 time=20\n",
      "note_on channel=1 note=36 velocity=84 time=10\n",
      "note_on channel=1 note=36 velocity=0 time=10\n",
      "note_on channel=1 note=36 velocity=84 time=20\n",
      "note_on channel=1 note=36 velocity=0 time=15\n",
      "note_on channel=1 note=48 velocity=84 time=15\n",
      "note_on channel=1 note=48 velocity=0 time=15\n",
      "note_on channel=1 note=36 velocity=84 time=15\n",
      "note_on channel=1 note=36 velocity=0 time=15\n",
      "note_on channel=1 note=48 velocity=84 time=15\n",
      "note_on channel=1 note=48 velocity=0 time=10\n",
      "note_on channel=1 note=48 velocity=84 time=20\n",
      "note_on channel=1 note=48 velocity=0 time=15\n",
      "note_on channel=1 note=36 velocity=84 time=15\n",
      "note_on channel=1 note=36 velocity=0 time=15\n",
      "note_on channel=1 note=48 velocity=84 time=15\n",
      "note_on channel=1 note=48 velocity=0 time=20\n",
      "note_on channel=1 note=36 velocity=84 time=10\n",
      "note_on channel=1 note=36 velocity=0 time=5\n",
      "note_on channel=1 note=36 velocity=84 time=25\n",
      "note_on channel=1 note=36 velocity=0 time=15\n",
      "note_on channel=1 note=48 velocity=84 time=15\n",
      "note_on channel=1 note=48 velocity=0 time=15\n",
      "note_on channel=1 note=36 velocity=84 time=15\n",
      "note_on channel=1 note=36 velocity=0 time=20\n",
      "note_on channel=1 note=48 velocity=84 time=10\n",
      "note_on channel=1 note=48 velocity=0 time=5\n",
      "note_on channel=1 note=48 velocity=84 time=25\n",
      "note_on channel=1 note=48 velocity=0 time=15\n",
      "note_on channel=1 note=36 velocity=84 time=15\n",
      "note_on channel=1 note=36 velocity=0 time=20\n",
      "note_on channel=1 note=48 velocity=84 time=10\n",
      "note_on channel=1 note=48 velocity=0 time=15\n",
      "note_on channel=1 note=36 velocity=84 time=15\n",
      "note_on channel=1 note=36 velocity=0 time=10\n",
      "note_on channel=1 note=36 velocity=84 time=20\n",
      "note_on channel=1 note=36 velocity=0 time=20\n",
      "note_on channel=1 note=48 velocity=84 time=10\n",
      "note_on channel=1 note=48 velocity=0 time=15\n",
      "note_on channel=1 note=36 velocity=84 time=15\n",
      "note_on channel=1 note=36 velocity=0 time=20\n",
      "note_on channel=1 note=48 velocity=84 time=10\n",
      "note_on channel=1 note=48 velocity=0 time=10\n",
      "note_on channel=1 note=48 velocity=84 time=20\n",
      "note_on channel=1 note=48 velocity=0 time=15\n",
      "note_on channel=1 note=36 velocity=84 time=15\n",
      "note_on channel=1 note=36 velocity=0 time=20\n",
      "note_on channel=1 note=48 velocity=84 time=10\n",
      "note_on channel=1 note=48 velocity=0 time=20\n",
      "note_on channel=1 note=36 velocity=84 time=10\n",
      "note_on channel=1 note=36 velocity=0 time=15\n",
      "note_on channel=1 note=36 velocity=84 time=15\n",
      "note_on channel=1 note=36 velocity=0 time=15\n",
      "note_on channel=1 note=43 velocity=84 time=15\n",
      "note_on channel=1 note=43 velocity=0 time=165\n",
      "note_on channel=1 note=41 velocity=84 time=15\n",
      "note_on channel=1 note=41 velocity=0 time=150\n",
      "note_on channel=1 note=39 velocity=84 time=30\n",
      "note_on channel=1 note=39 velocity=0 time=45\n",
      "note_on channel=1 note=41 velocity=84 time=15\n",
      "note_on channel=1 note=41 velocity=0 time=90\n",
      "note_on channel=1 note=41 velocity=84 time=630\n",
      "note_on channel=1 note=41 velocity=0 time=140\n",
      "note_on channel=1 note=39 velocity=84 time=40\n",
      "note_on channel=1 note=39 velocity=0 time=40\n",
      "note_on channel=1 note=41 velocity=84 time=20\n",
      "note_on channel=1 note=41 velocity=0 time=80\n",
      "note_on channel=1 note=36 velocity=84 time=40\n",
      "note_on channel=1 note=36 velocity=0 time=30\n",
      "note_on channel=1 note=36 velocity=84 time=30\n",
      "note_on channel=1 note=36 velocity=0 time=325\n",
      "note_on channel=1 note=50 velocity=84 time=35\n",
      "note_on channel=1 note=50 velocity=0 time=25\n",
      "note_on channel=1 note=38 velocity=84 time=5\n",
      "note_on channel=1 note=38 velocity=0 time=30\n",
      "note_on channel=1 note=50 velocity=84 time=0\n",
      "note_on channel=1 note=50 velocity=0 time=10\n",
      "note_on channel=1 note=50 velocity=84 time=20\n",
      "note_on channel=1 note=50 velocity=0 time=20\n",
      "note_on channel=1 note=38 velocity=84 time=10\n",
      "note_on channel=1 note=38 velocity=0 time=20\n",
      "note_on channel=1 note=50 velocity=84 time=10\n",
      "note_on channel=1 note=50 velocity=0 time=30\n",
      "note_on channel=1 note=38 velocity=84 time=0\n",
      "note_on channel=1 note=38 velocity=0 time=10\n",
      "note_on channel=1 note=38 velocity=84 time=20\n",
      "note_on channel=1 note=38 velocity=0 time=20\n",
      "note_on channel=1 note=50 velocity=84 time=10\n",
      "note_on channel=1 note=50 velocity=0 time=25\n",
      "note_on channel=1 note=38 velocity=84 time=5\n",
      "note_on channel=1 note=38 velocity=0 time=25\n",
      "note_on channel=1 note=50 velocity=84 time=5\n",
      "note_on channel=1 note=50 velocity=0 time=10\n",
      "note_on channel=1 note=50 velocity=84 time=20\n",
      "note_on channel=1 note=50 velocity=0 time=20\n",
      "note_on channel=1 note=38 velocity=84 time=10\n",
      "note_on channel=1 note=38 velocity=0 time=20\n",
      "note_on channel=1 note=50 velocity=84 time=10\n",
      "note_on channel=1 note=50 velocity=0 time=30\n",
      "note_on channel=1 note=38 velocity=84 time=0\n",
      "note_on channel=1 note=38 velocity=0 time=10\n",
      "note_on channel=1 note=38 velocity=84 time=20\n",
      "note_on channel=1 note=38 velocity=0 time=15\n",
      "note_on channel=1 note=50 velocity=84 time=15\n",
      "note_on channel=1 note=50 velocity=0 time=20\n",
      "note_on channel=1 note=38 velocity=84 time=10\n",
      "note_on channel=1 note=38 velocity=0 time=20\n",
      "note_on channel=1 note=50 velocity=84 time=10\n",
      "note_on channel=1 note=50 velocity=0 time=10\n",
      "note_on channel=1 note=50 velocity=84 time=20\n",
      "note_on channel=1 note=50 velocity=0 time=20\n",
      "note_on channel=1 note=38 velocity=84 time=10\n",
      "note_on channel=1 note=38 velocity=0 time=20\n",
      "note_on channel=1 note=50 velocity=84 time=10\n",
      "note_on channel=1 note=50 velocity=0 time=30\n",
      "note_on channel=1 note=38 velocity=84 time=0\n",
      "note_on channel=1 note=38 velocity=0 time=10\n",
      "note_on channel=1 note=38 velocity=84 time=20\n",
      "note_on channel=1 note=38 velocity=0 time=15\n",
      "note_on channel=1 note=50 velocity=84 time=15\n",
      "note_on channel=1 note=50 velocity=0 time=20\n",
      "note_on channel=1 note=38 velocity=84 time=10\n",
      "note_on channel=1 note=38 velocity=0 time=20\n",
      "note_on channel=1 note=50 velocity=84 time=10\n",
      "note_on channel=1 note=50 velocity=0 time=10\n",
      "note_on channel=1 note=50 velocity=84 time=20\n",
      "note_on channel=1 note=50 velocity=0 time=15\n",
      "note_on channel=1 note=38 velocity=84 time=15\n",
      "note_on channel=1 note=38 velocity=0 time=20\n",
      "note_on channel=1 note=50 velocity=84 time=10\n",
      "note_on channel=1 note=50 velocity=0 time=25\n",
      "note_on channel=1 note=38 velocity=84 time=5\n",
      "note_on channel=1 note=38 velocity=0 time=5\n",
      "note_on channel=1 note=38 velocity=84 time=25\n",
      "note_on channel=1 note=38 velocity=0 time=15\n",
      "note_on channel=1 note=50 velocity=84 time=15\n",
      "note_on channel=1 note=50 velocity=0 time=20\n",
      "note_on channel=1 note=38 velocity=84 time=10\n",
      "note_on channel=1 note=38 velocity=0 time=20\n",
      "note_on channel=1 note=50 velocity=84 time=10\n",
      "note_on channel=1 note=50 velocity=0 time=10\n",
      "note_on channel=1 note=50 velocity=84 time=20\n",
      "note_on channel=1 note=50 velocity=0 time=15\n",
      "note_on channel=1 note=38 velocity=84 time=15\n",
      "note_on channel=1 note=38 velocity=0 time=15\n",
      "note_on channel=1 note=50 velocity=84 time=15\n",
      "note_on channel=1 note=50 velocity=0 time=25\n",
      "note_on channel=1 note=38 velocity=84 time=5\n",
      "note_on channel=1 note=38 velocity=0 time=10\n",
      "note_on channel=1 note=38 velocity=84 time=20\n",
      "note_on channel=1 note=38 velocity=0 time=15\n",
      "note_on channel=1 note=50 velocity=84 time=15\n",
      "note_on channel=1 note=50 velocity=0 time=20\n",
      "note_on channel=1 note=38 velocity=84 time=10\n",
      "note_on channel=1 note=38 velocity=0 time=20\n",
      "note_on channel=1 note=50 velocity=84 time=10\n",
      "note_on channel=1 note=50 velocity=0 time=10\n",
      "note_on channel=1 note=50 velocity=84 time=20\n",
      "note_on channel=1 note=50 velocity=0 time=15\n",
      "note_on channel=1 note=38 velocity=84 time=15\n",
      "note_on channel=1 note=38 velocity=0 time=20\n",
      "note_on channel=1 note=50 velocity=84 time=10\n",
      "note_on channel=1 note=50 velocity=0 time=25\n",
      "note_on channel=1 note=38 velocity=84 time=5\n",
      "note_on channel=1 note=38 velocity=0 time=10\n",
      "note_on channel=1 note=38 velocity=84 time=20\n",
      "note_on channel=1 note=38 velocity=0 time=15\n",
      "note_on channel=1 note=50 velocity=84 time=15\n",
      "note_on channel=1 note=50 velocity=0 time=20\n",
      "note_on channel=1 note=38 velocity=84 time=10\n",
      "note_on channel=1 note=38 velocity=0 time=20\n",
      "note_on channel=1 note=50 velocity=84 time=10\n",
      "note_on channel=1 note=50 velocity=0 time=10\n",
      "note_on channel=1 note=50 velocity=84 time=20\n",
      "note_on channel=1 note=50 velocity=0 time=20\n",
      "note_on channel=1 note=38 velocity=84 time=10\n",
      "note_on channel=1 note=38 velocity=0 time=20\n",
      "note_on channel=1 note=50 velocity=84 time=10\n",
      "note_on channel=1 note=50 velocity=0 time=25\n",
      "note_on channel=1 note=38 velocity=84 time=5\n",
      "note_on channel=1 note=38 velocity=0 time=10\n",
      "note_on channel=1 note=38 velocity=84 time=20\n",
      "note_on channel=1 note=38 velocity=0 time=20\n",
      "note_on channel=1 note=50 velocity=84 time=10\n",
      "note_on channel=1 note=50 velocity=0 time=20\n",
      "note_on channel=1 note=38 velocity=84 time=10\n",
      "note_on channel=1 note=38 velocity=0 time=20\n",
      "note_on channel=1 note=50 velocity=84 time=10\n",
      "note_on channel=1 note=50 velocity=0 time=10\n",
      "note_on channel=1 note=50 velocity=84 time=20\n",
      "note_on channel=1 note=50 velocity=0 time=20\n",
      "note_on channel=1 note=38 velocity=84 time=10\n",
      "note_on channel=1 note=38 velocity=0 time=20\n",
      "note_on channel=1 note=50 velocity=84 time=10\n",
      "note_on channel=1 note=50 velocity=0 time=25\n",
      "note_on channel=1 note=38 velocity=84 time=5\n",
      "note_on channel=1 note=38 velocity=0 time=10\n",
      "note_on channel=1 note=38 velocity=84 time=20\n",
      "note_on channel=1 note=38 velocity=0 time=15\n",
      "note_on channel=1 note=50 velocity=84 time=15\n",
      "note_on channel=1 note=50 velocity=0 time=20\n",
      "note_on channel=1 note=38 velocity=84 time=10\n",
      "note_on channel=1 note=38 velocity=0 time=20\n",
      "note_on channel=1 note=50 velocity=84 time=10\n",
      "note_on channel=1 note=50 velocity=0 time=10\n",
      "note_on channel=1 note=50 velocity=84 time=20\n",
      "note_on channel=1 note=50 velocity=0 time=20\n",
      "note_on channel=1 note=38 velocity=84 time=10\n",
      "note_on channel=1 note=38 velocity=0 time=20\n",
      "note_on channel=1 note=50 velocity=84 time=10\n",
      "note_on channel=1 note=50 velocity=0 time=20\n",
      "note_on channel=1 note=38 velocity=84 time=10\n",
      "note_on channel=1 note=38 velocity=0 time=15\n",
      "note_on channel=1 note=38 velocity=84 time=15\n",
      "note_on channel=1 note=38 velocity=0 time=15\n",
      "note_on channel=1 note=50 velocity=84 time=15\n",
      "note_on channel=1 note=50 velocity=0 time=20\n",
      "note_on channel=1 note=38 velocity=84 time=10\n",
      "note_on channel=1 note=38 velocity=0 time=20\n",
      "note_on channel=1 note=50 velocity=84 time=10\n",
      "note_on channel=1 note=50 velocity=0 time=10\n",
      "note_on channel=1 note=50 velocity=84 time=20\n",
      "note_on channel=1 note=50 velocity=0 time=20\n",
      "note_on channel=1 note=38 velocity=84 time=10\n",
      "note_on channel=1 note=38 velocity=0 time=20\n",
      "note_on channel=1 note=50 velocity=84 time=10\n",
      "note_on channel=1 note=50 velocity=0 time=20\n",
      "note_on channel=1 note=38 velocity=84 time=10\n",
      "note_on channel=1 note=38 velocity=0 time=10\n",
      "note_on channel=1 note=38 velocity=84 time=20\n",
      "note_on channel=1 note=38 velocity=0 time=15\n",
      "note_on channel=1 note=50 velocity=84 time=15\n",
      "note_on channel=1 note=50 velocity=0 time=20\n",
      "note_on channel=1 note=38 velocity=84 time=10\n",
      "note_on channel=1 note=38 velocity=0 time=20\n",
      "note_on channel=1 note=50 velocity=84 time=10\n",
      "note_on channel=1 note=50 velocity=0 time=10\n",
      "note_on channel=1 note=50 velocity=84 time=20\n",
      "note_on channel=1 note=50 velocity=0 time=15\n",
      "note_on channel=1 note=38 velocity=84 time=15\n",
      "note_on channel=1 note=38 velocity=0 time=20\n",
      "note_on channel=1 note=50 velocity=84 time=10\n",
      "note_on channel=1 note=50 velocity=0 time=25\n",
      "note_on channel=1 note=38 velocity=84 time=5\n",
      "note_on channel=1 note=38 velocity=0 time=10\n",
      "note_on channel=1 note=38 velocity=84 time=20\n",
      "note_on channel=1 note=38 velocity=0 time=15\n",
      "note_on channel=1 note=50 velocity=84 time=15\n",
      "note_on channel=1 note=50 velocity=0 time=20\n",
      "note_on channel=1 note=38 velocity=84 time=10\n",
      "note_on channel=1 note=38 velocity=0 time=20\n",
      "note_on channel=1 note=50 velocity=84 time=10\n",
      "note_on channel=1 note=50 velocity=0 time=10\n",
      "note_on channel=1 note=50 velocity=84 time=20\n",
      "note_on channel=1 note=50 velocity=0 time=15\n",
      "note_on channel=1 note=38 velocity=84 time=15\n",
      "note_on channel=1 note=38 velocity=0 time=25\n",
      "note_on channel=1 note=50 velocity=84 time=5\n",
      "note_on channel=1 note=50 velocity=0 time=25\n",
      "note_on channel=1 note=38 velocity=84 time=5\n",
      "note_on channel=1 note=38 velocity=0 time=10\n",
      "note_on channel=1 note=38 velocity=84 time=20\n",
      "note_on channel=1 note=38 velocity=0 time=15\n",
      "note_on channel=1 note=50 velocity=84 time=15\n",
      "note_on channel=1 note=50 velocity=0 time=20\n",
      "note_on channel=1 note=38 velocity=84 time=10\n",
      "note_on channel=1 note=38 velocity=0 time=20\n",
      "note_on channel=1 note=50 velocity=84 time=10\n",
      "note_on channel=1 note=50 velocity=0 time=10\n",
      "note_on channel=1 note=50 velocity=84 time=20\n",
      "note_on channel=1 note=50 velocity=0 time=20\n",
      "note_on channel=1 note=38 velocity=84 time=10\n",
      "note_on channel=1 note=38 velocity=0 time=20\n",
      "note_on channel=1 note=50 velocity=84 time=10\n",
      "note_on channel=1 note=50 velocity=0 time=25\n",
      "note_on channel=1 note=38 velocity=84 time=5\n",
      "note_on channel=1 note=38 velocity=0 time=15\n",
      "note_on channel=1 note=38 velocity=84 time=15\n",
      "note_on channel=1 note=38 velocity=0 time=15\n",
      "note_on channel=1 note=50 velocity=84 time=15\n",
      "note_on channel=1 note=50 velocity=0 time=20\n",
      "note_on channel=1 note=38 velocity=84 time=10\n",
      "note_on channel=1 note=38 velocity=0 time=20\n",
      "note_on channel=1 note=50 velocity=84 time=10\n",
      "note_on channel=1 note=50 velocity=0 time=10\n",
      "note_on channel=1 note=50 velocity=84 time=20\n",
      "note_on channel=1 note=50 velocity=0 time=15\n",
      "note_on channel=1 note=38 velocity=84 time=15\n",
      "note_on channel=1 note=38 velocity=0 time=20\n",
      "note_on channel=1 note=50 velocity=84 time=10\n",
      "note_on channel=1 note=50 velocity=0 time=20\n",
      "note_on channel=1 note=38 velocity=84 time=10\n",
      "note_on channel=1 note=38 velocity=0 time=10\n",
      "note_on channel=1 note=38 velocity=84 time=20\n",
      "note_on channel=1 note=38 velocity=0 time=15\n",
      "note_on channel=1 note=50 velocity=84 time=15\n",
      "note_on channel=1 note=50 velocity=0 time=15\n",
      "note_on channel=1 note=38 velocity=84 time=15\n",
      "note_on channel=1 note=38 velocity=0 time=20\n",
      "note_on channel=1 note=50 velocity=84 time=10\n",
      "note_on channel=1 note=50 velocity=0 time=10\n",
      "note_on channel=1 note=50 velocity=84 time=20\n",
      "note_on channel=1 note=50 velocity=0 time=20\n",
      "note_on channel=1 note=38 velocity=84 time=10\n",
      "note_on channel=1 note=38 velocity=0 time=20\n",
      "note_on channel=1 note=50 velocity=84 time=10\n",
      "note_on channel=1 note=50 velocity=0 time=25\n",
      "note_on channel=1 note=38 velocity=84 time=5\n",
      "note_on channel=1 note=38 velocity=0 time=10\n",
      "note_on channel=1 note=38 velocity=84 time=20\n",
      "note_on channel=1 note=38 velocity=0 time=20\n",
      "note_on channel=1 note=50 velocity=84 time=10\n",
      "note_on channel=1 note=50 velocity=0 time=20\n",
      "note_on channel=1 note=38 velocity=84 time=10\n",
      "note_on channel=1 note=38 velocity=0 time=20\n",
      "note_on channel=1 note=50 velocity=84 time=10\n",
      "note_on channel=1 note=50 velocity=0 time=15\n",
      "note_on channel=1 note=50 velocity=84 time=15\n",
      "note_on channel=1 note=50 velocity=0 time=20\n",
      "note_on channel=1 note=38 velocity=84 time=10\n",
      "note_on channel=1 note=38 velocity=0 time=20\n",
      "note_on channel=1 note=50 velocity=84 time=10\n",
      "note_on channel=1 note=50 velocity=0 time=25\n",
      "note_on channel=1 note=38 velocity=84 time=5\n",
      "note_on channel=1 note=38 velocity=0 time=10\n",
      "note_on channel=1 note=38 velocity=84 time=20\n",
      "note_on channel=1 note=38 velocity=0 time=20\n",
      "note_on channel=1 note=50 velocity=84 time=10\n",
      "note_on channel=1 note=50 velocity=0 time=20\n",
      "note_on channel=1 note=38 velocity=84 time=10\n",
      "note_on channel=1 note=38 velocity=0 time=20\n",
      "note_on channel=1 note=50 velocity=84 time=10\n",
      "note_on channel=1 note=50 velocity=0 time=10\n",
      "note_on channel=1 note=50 velocity=84 time=20\n",
      "note_on channel=1 note=50 velocity=0 time=15\n",
      "note_on channel=1 note=38 velocity=84 time=15\n",
      "note_on channel=1 note=38 velocity=0 time=20\n",
      "note_on channel=1 note=50 velocity=84 time=10\n",
      "note_on channel=1 note=50 velocity=0 time=25\n",
      "note_on channel=1 note=38 velocity=84 time=5\n",
      "note_on channel=1 note=38 velocity=0 time=10\n",
      "note_on channel=1 note=38 velocity=84 time=20\n",
      "note_on channel=1 note=38 velocity=0 time=15\n",
      "note_on channel=1 note=50 velocity=84 time=15\n",
      "note_on channel=1 note=50 velocity=0 time=20\n",
      "note_on channel=1 note=38 velocity=84 time=10\n",
      "note_on channel=1 note=38 velocity=0 time=20\n",
      "note_on channel=1 note=50 velocity=84 time=10\n",
      "note_on channel=1 note=50 velocity=0 time=10\n",
      "note_on channel=1 note=50 velocity=84 time=20\n",
      "note_on channel=1 note=50 velocity=0 time=20\n",
      "note_on channel=1 note=38 velocity=84 time=10\n",
      "note_on channel=1 note=38 velocity=0 time=20\n",
      "note_on channel=1 note=50 velocity=84 time=10\n",
      "note_on channel=1 note=50 velocity=0 time=20\n",
      "note_on channel=1 note=38 velocity=84 time=10\n",
      "note_on channel=1 note=38 velocity=0 time=10\n",
      "note_on channel=1 note=38 velocity=84 time=20\n",
      "note_on channel=1 note=38 velocity=0 time=15\n",
      "note_on channel=1 note=50 velocity=84 time=15\n",
      "note_on channel=1 note=50 velocity=0 time=20\n",
      "note_on channel=1 note=38 velocity=84 time=10\n",
      "note_on channel=1 note=38 velocity=0 time=20\n",
      "note_on channel=1 note=50 velocity=84 time=10\n",
      "note_on channel=1 note=50 velocity=0 time=15\n",
      "note_on channel=1 note=50 velocity=84 time=15\n",
      "note_on channel=1 note=50 velocity=0 time=20\n",
      "note_on channel=1 note=38 velocity=84 time=10\n",
      "note_on channel=1 note=38 velocity=0 time=25\n",
      "note_on channel=1 note=50 velocity=84 time=5\n",
      "note_on channel=1 note=50 velocity=0 time=20\n",
      "note_on channel=1 note=38 velocity=84 time=10\n",
      "note_on channel=1 note=38 velocity=0 time=10\n",
      "note_on channel=1 note=38 velocity=84 time=20\n",
      "note_on channel=1 note=38 velocity=0 time=15\n",
      "note_on channel=1 note=50 velocity=84 time=15\n",
      "note_on channel=1 note=50 velocity=0 time=20\n",
      "note_on channel=1 note=38 velocity=84 time=10\n",
      "note_on channel=1 note=38 velocity=0 time=20\n",
      "note_on channel=1 note=50 velocity=84 time=10\n",
      "note_on channel=1 note=50 velocity=0 time=10\n",
      "note_on channel=1 note=50 velocity=84 time=20\n",
      "note_on channel=1 note=50 velocity=0 time=15\n",
      "note_on channel=1 note=38 velocity=84 time=15\n",
      "note_on channel=1 note=38 velocity=0 time=20\n",
      "note_on channel=1 note=50 velocity=84 time=10\n",
      "note_on channel=1 note=50 velocity=0 time=25\n",
      "note_on channel=1 note=38 velocity=84 time=5\n",
      "note_on channel=1 note=38 velocity=0 time=5\n",
      "note_on channel=1 note=38 velocity=84 time=25\n",
      "note_on channel=1 note=38 velocity=0 time=15\n",
      "note_on channel=1 note=50 velocity=84 time=15\n",
      "note_on channel=1 note=50 velocity=0 time=20\n",
      "note_on channel=1 note=38 velocity=84 time=10\n",
      "note_on channel=1 note=38 velocity=0 time=15\n",
      "note_on channel=1 note=50 velocity=84 time=15\n",
      "note_on channel=1 note=50 velocity=0 time=10\n",
      "note_on channel=1 note=50 velocity=84 time=20\n",
      "note_on channel=1 note=50 velocity=0 time=20\n",
      "note_on channel=1 note=38 velocity=84 time=10\n",
      "note_on channel=1 note=38 velocity=0 time=20\n",
      "note_on channel=1 note=50 velocity=84 time=10\n",
      "note_on channel=1 note=50 velocity=0 time=20\n",
      "note_on channel=1 note=38 velocity=84 time=10\n",
      "note_on channel=1 note=38 velocity=0 time=10\n",
      "note_on channel=1 note=38 velocity=84 time=20\n",
      "note_on channel=1 note=38 velocity=0 time=15\n",
      "note_on channel=1 note=50 velocity=84 time=15\n",
      "note_on channel=1 note=50 velocity=0 time=20\n",
      "note_on channel=1 note=38 velocity=84 time=10\n",
      "note_on channel=1 note=38 velocity=0 time=20\n",
      "note_on channel=1 note=50 velocity=84 time=10\n",
      "note_on channel=1 note=50 velocity=0 time=10\n",
      "note_on channel=1 note=50 velocity=84 time=20\n",
      "note_on channel=1 note=50 velocity=0 time=20\n",
      "note_on channel=1 note=38 velocity=84 time=10\n",
      "note_on channel=1 note=38 velocity=0 time=20\n",
      "note_on channel=1 note=50 velocity=84 time=10\n",
      "note_on channel=1 note=50 velocity=0 time=20\n",
      "note_on channel=1 note=38 velocity=84 time=10\n",
      "note_on channel=1 note=38 velocity=0 time=10\n",
      "note_on channel=1 note=38 velocity=84 time=20\n",
      "note_on channel=1 note=38 velocity=0 time=15\n",
      "note_on channel=1 note=50 velocity=84 time=15\n",
      "note_on channel=1 note=50 velocity=0 time=20\n",
      "note_on channel=1 note=38 velocity=84 time=10\n",
      "note_on channel=1 note=38 velocity=0 time=15\n",
      "note_on channel=1 note=50 velocity=84 time=15\n",
      "note_on channel=1 note=50 velocity=0 time=10\n",
      "note_on channel=1 note=50 velocity=84 time=20\n",
      "note_on channel=1 note=50 velocity=0 time=20\n",
      "note_on channel=1 note=38 velocity=84 time=10\n",
      "note_on channel=1 note=38 velocity=0 time=20\n",
      "note_on channel=1 note=50 velocity=84 time=10\n",
      "note_on channel=1 note=50 velocity=0 time=20\n",
      "note_on channel=1 note=38 velocity=84 time=10\n",
      "note_on channel=1 note=38 velocity=0 time=10\n",
      "note_on channel=1 note=38 velocity=84 time=20\n",
      "note_on channel=1 note=38 velocity=0 time=15\n",
      "note_on channel=1 note=50 velocity=84 time=15\n",
      "note_on channel=1 note=50 velocity=0 time=20\n",
      "note_on channel=1 note=38 velocity=84 time=10\n",
      "note_on channel=1 note=38 velocity=0 time=15\n",
      "note_on channel=1 note=50 velocity=84 time=15\n",
      "note_on channel=1 note=50 velocity=0 time=10\n",
      "note_on channel=1 note=50 velocity=84 time=20\n",
      "note_on channel=1 note=50 velocity=0 time=15\n",
      "note_on channel=1 note=38 velocity=84 time=15\n",
      "note_on channel=1 note=38 velocity=0 time=20\n",
      "note_on channel=1 note=50 velocity=84 time=10\n",
      "note_on channel=1 note=50 velocity=0 time=25\n",
      "note_on channel=1 note=38 velocity=84 time=5\n",
      "note_on channel=1 note=38 velocity=0 time=10\n",
      "note_on channel=1 note=38 velocity=84 time=20\n",
      "note_on channel=1 note=38 velocity=0 time=15\n",
      "note_on channel=1 note=50 velocity=84 time=15\n",
      "note_on channel=1 note=50 velocity=0 time=15\n",
      "note_on channel=1 note=38 velocity=84 time=15\n",
      "note_on channel=1 note=38 velocity=0 time=15\n",
      "note_on channel=1 note=50 velocity=84 time=15\n",
      "note_on channel=1 note=50 velocity=0 time=10\n",
      "note_on channel=1 note=50 velocity=84 time=20\n",
      "note_on channel=1 note=50 velocity=0 time=20\n",
      "note_on channel=1 note=38 velocity=84 time=10\n",
      "note_on channel=1 note=38 velocity=0 time=15\n",
      "note_on channel=1 note=50 velocity=84 time=15\n",
      "note_on channel=1 note=50 velocity=0 time=25\n",
      "note_on channel=1 note=38 velocity=84 time=5\n",
      "note_on channel=1 note=38 velocity=0 time=5\n",
      "note_on channel=1 note=38 velocity=84 time=25\n",
      "note_on channel=1 note=38 velocity=0 time=15\n",
      "note_on channel=1 note=50 velocity=84 time=15\n",
      "note_on channel=1 note=50 velocity=0 time=20\n",
      "note_on channel=1 note=38 velocity=84 time=10\n",
      "note_on channel=1 note=38 velocity=0 time=20\n",
      "note_on channel=1 note=50 velocity=84 time=10\n",
      "note_on channel=1 note=50 velocity=0 time=15\n",
      "note_on channel=1 note=50 velocity=84 time=15\n",
      "note_on channel=1 note=50 velocity=0 time=20\n",
      "note_on channel=1 note=38 velocity=84 time=10\n",
      "note_on channel=1 note=38 velocity=0 time=20\n",
      "note_on channel=1 note=50 velocity=84 time=10\n",
      "note_on channel=1 note=50 velocity=0 time=20\n",
      "note_on channel=1 note=38 velocity=84 time=10\n",
      "note_on channel=1 note=38 velocity=0 time=5\n",
      "note_on channel=1 note=38 velocity=84 time=25\n",
      "note_on channel=1 note=38 velocity=0 time=10\n",
      "note_on channel=1 note=50 velocity=84 time=20\n",
      "note_on channel=1 note=50 velocity=0 time=20\n",
      "note_on channel=1 note=38 velocity=84 time=10\n",
      "note_on channel=1 note=38 velocity=0 time=20\n",
      "note_on channel=1 note=50 velocity=84 time=10\n",
      "note_on channel=1 note=50 velocity=0 time=10\n",
      "note_on channel=1 note=50 velocity=84 time=20\n",
      "note_on channel=1 note=50 velocity=0 time=20\n",
      "note_on channel=1 note=38 velocity=84 time=10\n",
      "note_on channel=1 note=38 velocity=0 time=20\n",
      "note_on channel=1 note=50 velocity=84 time=10\n",
      "note_on channel=1 note=50 velocity=0 time=25\n",
      "note_on channel=1 note=38 velocity=84 time=5\n",
      "note_on channel=1 note=38 velocity=0 time=10\n",
      "note_on channel=1 note=38 velocity=84 time=20\n",
      "note_on channel=1 note=38 velocity=0 time=20\n",
      "note_on channel=1 note=50 velocity=84 time=10\n",
      "note_on channel=1 note=50 velocity=0 time=20\n",
      "note_on channel=1 note=38 velocity=84 time=10\n",
      "note_on channel=1 note=38 velocity=0 time=20\n",
      "note_on channel=1 note=50 velocity=84 time=10\n",
      "note_on channel=1 note=50 velocity=0 time=15\n",
      "note_on channel=1 note=50 velocity=84 time=15\n",
      "note_on channel=1 note=50 velocity=0 time=20\n",
      "note_on channel=1 note=38 velocity=84 time=10\n",
      "note_on channel=1 note=38 velocity=0 time=20\n",
      "note_on channel=1 note=50 velocity=84 time=10\n",
      "note_on channel=1 note=50 velocity=0 time=25\n",
      "note_on channel=1 note=38 velocity=84 time=5\n",
      "note_on channel=1 note=38 velocity=0 time=10\n",
      "note_on channel=1 note=38 velocity=84 time=20\n",
      "note_on channel=1 note=38 velocity=0 time=15\n",
      "note_on channel=1 note=50 velocity=84 time=15\n",
      "note_on channel=1 note=50 velocity=0 time=20\n",
      "note_on channel=1 note=38 velocity=84 time=10\n",
      "note_on channel=1 note=38 velocity=0 time=15\n",
      "note_on channel=1 note=50 velocity=84 time=15\n",
      "note_on channel=1 note=50 velocity=0 time=15\n",
      "note_on channel=1 note=50 velocity=84 time=15\n",
      "note_on channel=1 note=50 velocity=0 time=20\n",
      "note_on channel=1 note=38 velocity=84 time=10\n",
      "note_on channel=1 note=38 velocity=0 time=20\n",
      "note_on channel=1 note=50 velocity=84 time=10\n",
      "note_on channel=1 note=50 velocity=0 time=25\n",
      "note_on channel=1 note=38 velocity=84 time=5\n",
      "note_on channel=1 note=38 velocity=0 time=10\n",
      "note_on channel=1 note=38 velocity=84 time=20\n",
      "note_on channel=1 note=38 velocity=0 time=15\n",
      "note_on channel=1 note=50 velocity=84 time=15\n",
      "note_on channel=1 note=50 velocity=0 time=20\n",
      "note_on channel=1 note=38 velocity=84 time=10\n",
      "note_on channel=1 note=38 velocity=0 time=15\n",
      "note_on channel=1 note=50 velocity=84 time=15\n",
      "note_on channel=1 note=50 velocity=0 time=15\n",
      "note_on channel=1 note=50 velocity=84 time=15\n",
      "note_on channel=1 note=50 velocity=0 time=20\n",
      "note_on channel=1 note=38 velocity=84 time=10\n",
      "note_on channel=1 note=38 velocity=0 time=20\n",
      "note_on channel=1 note=50 velocity=84 time=10\n",
      "note_on channel=1 note=50 velocity=0 time=25\n",
      "note_on channel=1 note=38 velocity=84 time=5\n",
      "note_on channel=1 note=38 velocity=0 time=10\n",
      "note_on channel=1 note=38 velocity=84 time=20\n",
      "note_on channel=1 note=38 velocity=0 time=20\n",
      "note_on channel=1 note=50 velocity=84 time=10\n",
      "note_on channel=1 note=50 velocity=0 time=20\n",
      "note_on channel=1 note=38 velocity=84 time=10\n",
      "note_on channel=1 note=38 velocity=0 time=20\n",
      "note_on channel=1 note=50 velocity=84 time=10\n",
      "note_on channel=1 note=50 velocity=0 time=10\n",
      "note_on channel=1 note=50 velocity=84 time=20\n",
      "note_on channel=1 note=50 velocity=0 time=20\n",
      "note_on channel=1 note=38 velocity=84 time=10\n",
      "note_on channel=1 note=38 velocity=0 time=15\n",
      "note_on channel=1 note=50 velocity=84 time=15\n",
      "note_on channel=1 note=50 velocity=0 time=25\n",
      "note_on channel=1 note=38 velocity=84 time=5\n",
      "note_on channel=1 note=38 velocity=0 time=5\n",
      "note_on channel=1 note=38 velocity=84 time=25\n",
      "note_on channel=1 note=38 velocity=0 time=15\n",
      "note_on channel=1 note=50 velocity=84 time=15\n",
      "note_on channel=1 note=50 velocity=0 time=20\n",
      "note_on channel=1 note=38 velocity=84 time=10\n",
      "note_on channel=1 note=38 velocity=0 time=20\n",
      "note_on channel=1 note=50 velocity=84 time=10\n",
      "note_on channel=1 note=50 velocity=0 time=10\n",
      "note_on channel=1 note=50 velocity=84 time=20\n",
      "note_on channel=1 note=50 velocity=0 time=20\n",
      "note_on channel=1 note=38 velocity=84 time=10\n",
      "note_on channel=1 note=38 velocity=0 time=20\n",
      "note_on channel=1 note=50 velocity=84 time=10\n",
      "note_on channel=1 note=50 velocity=0 time=30\n",
      "note_on channel=1 note=38 velocity=84 time=0\n",
      "note_on channel=1 note=38 velocity=0 time=10\n",
      "note_on channel=1 note=38 velocity=84 time=20\n",
      "note_on channel=1 note=38 velocity=0 time=15\n",
      "note_on channel=1 note=50 velocity=84 time=15\n",
      "note_on channel=1 note=50 velocity=0 time=0\n",
      "note_on channel=1 note=38 velocity=84 time=0\n",
      "note_on channel=1 note=50 velocity=84 time=0\n",
      "note_on channel=1 note=50 velocity=0 time=65\n",
      "note_on channel=1 note=38 velocity=0 time=0\n",
      "note_on channel=1 note=38 velocity=84 time=415\n",
      "note_on channel=1 note=50 velocity=84 time=0\n",
      "note_on channel=1 note=50 velocity=0 time=65\n",
      "note_on channel=1 note=38 velocity=0 time=0\n",
      "<meta message end_of_track time=0>\n",
      "Track 4: Split Chan 9 \n",
      "<meta message midi_port port=0 time=0>\n",
      "<meta message track_name name='Split Chan 9 ' time=0>\n",
      "program_change channel=2 program=39 time=0\n",
      "control_change channel=2 control=7 value=120 time=0\n",
      "control_change channel=2 control=10 value=64 time=0\n",
      "program_change channel=2 program=39 time=126\n",
      "note_on channel=2 note=36 velocity=84 time=4194\n",
      "note_on channel=2 note=36 velocity=0 time=100\n",
      "note_on channel=2 note=36 velocity=84 time=20\n",
      "note_on channel=2 note=36 velocity=0 time=100\n",
      "note_on channel=2 note=36 velocity=84 time=20\n",
      "note_on channel=2 note=36 velocity=0 time=100\n",
      "note_on channel=2 note=36 velocity=84 time=20\n",
      "note_on channel=2 note=36 velocity=0 time=100\n",
      "note_on channel=2 note=36 velocity=84 time=20\n",
      "note_on channel=2 note=36 velocity=0 time=105\n",
      "note_on channel=2 note=36 velocity=84 time=15\n",
      "note_on channel=2 note=36 velocity=0 time=110\n",
      "note_on channel=2 note=36 velocity=84 time=10\n",
      "note_on channel=2 note=36 velocity=0 time=105\n",
      "note_on channel=2 note=36 velocity=84 time=15\n",
      "note_on channel=2 note=36 velocity=0 time=95\n",
      "note_on channel=2 note=36 velocity=84 time=25\n",
      "note_on channel=2 note=36 velocity=0 time=105\n",
      "note_on channel=2 note=36 velocity=84 time=15\n",
      "note_on channel=2 note=36 velocity=0 time=95\n",
      "note_on channel=2 note=36 velocity=84 time=25\n",
      "note_on channel=2 note=36 velocity=0 time=100\n",
      "note_on channel=2 note=36 velocity=84 time=20\n",
      "note_on channel=2 note=36 velocity=0 time=95\n",
      "note_on channel=2 note=36 velocity=84 time=25\n",
      "note_on channel=2 note=36 velocity=0 time=100\n",
      "note_on channel=2 note=36 velocity=84 time=20\n",
      "note_on channel=2 note=36 velocity=0 time=100\n",
      "note_on channel=2 note=36 velocity=84 time=20\n",
      "note_on channel=2 note=36 velocity=0 time=100\n",
      "note_on channel=2 note=36 velocity=84 time=20\n",
      "note_on channel=2 note=36 velocity=0 time=95\n",
      "note_on channel=2 note=36 velocity=84 time=25\n",
      "note_on channel=2 note=36 velocity=0 time=100\n",
      "note_on channel=2 note=36 velocity=84 time=20\n",
      "note_on channel=2 note=36 velocity=0 time=100\n",
      "note_on channel=2 note=36 velocity=84 time=20\n",
      "note_on channel=2 note=36 velocity=0 time=95\n",
      "note_on channel=2 note=36 velocity=84 time=25\n",
      "note_on channel=2 note=36 velocity=0 time=100\n",
      "note_on channel=2 note=36 velocity=84 time=20\n",
      "note_on channel=2 note=36 velocity=0 time=100\n",
      "note_on channel=2 note=36 velocity=84 time=20\n",
      "note_on channel=2 note=36 velocity=0 time=95\n",
      "note_on channel=2 note=36 velocity=84 time=25\n",
      "note_on channel=2 note=36 velocity=0 time=100\n",
      "note_on channel=2 note=36 velocity=84 time=20\n",
      "note_on channel=2 note=36 velocity=0 time=95\n",
      "note_on channel=2 note=36 velocity=84 time=25\n",
      "note_on channel=2 note=36 velocity=0 time=95\n",
      "note_on channel=2 note=36 velocity=84 time=25\n",
      "note_on channel=2 note=36 velocity=0 time=100\n",
      "note_on channel=2 note=36 velocity=84 time=20\n",
      "note_on channel=2 note=36 velocity=0 time=95\n",
      "note_on channel=2 note=36 velocity=84 time=25\n",
      "note_on channel=2 note=36 velocity=0 time=95\n",
      "note_on channel=2 note=36 velocity=84 time=25\n",
      "note_on channel=2 note=36 velocity=0 time=95\n",
      "note_on channel=2 note=36 velocity=84 time=25\n",
      "note_on channel=2 note=36 velocity=0 time=95\n",
      "note_on channel=2 note=36 velocity=84 time=25\n",
      "note_on channel=2 note=36 velocity=0 time=100\n",
      "note_on channel=2 note=36 velocity=84 time=20\n",
      "note_on channel=2 note=36 velocity=0 time=95\n",
      "note_on channel=2 note=36 velocity=84 time=25\n",
      "note_on channel=2 note=36 velocity=0 time=95\n",
      "note_on channel=2 note=36 velocity=84 time=25\n",
      "note_on channel=2 note=36 velocity=0 time=100\n",
      "note_on channel=2 note=36 velocity=84 time=20\n",
      "note_on channel=2 note=36 velocity=0 time=95\n",
      "note_on channel=2 note=36 velocity=84 time=25\n",
      "note_on channel=2 note=36 velocity=0 time=95\n",
      "note_on channel=2 note=36 velocity=84 time=25\n",
      "note_on channel=2 note=36 velocity=0 time=90\n",
      "note_on channel=2 note=36 velocity=84 time=30\n",
      "note_on channel=2 note=36 velocity=0 time=95\n",
      "note_on channel=2 note=36 velocity=84 time=25\n",
      "note_on channel=2 note=36 velocity=0 time=95\n",
      "note_on channel=2 note=36 velocity=84 time=25\n",
      "note_on channel=2 note=36 velocity=0 time=95\n",
      "note_on channel=2 note=31 velocity=84 time=25\n",
      "note_on channel=2 note=31 velocity=0 time=150\n",
      "note_on channel=2 note=29 velocity=84 time=35\n",
      "note_on channel=2 note=29 velocity=0 time=150\n",
      "note_on channel=2 note=27 velocity=84 time=30\n",
      "note_on channel=2 note=27 velocity=0 time=30\n",
      "note_on channel=2 note=29 velocity=84 time=25\n",
      "note_on channel=2 note=29 velocity=0 time=100\n",
      "note_on channel=2 note=27 velocity=84 time=25\n",
      "note_on channel=2 note=27 velocity=0 time=25\n",
      "note_on channel=2 note=36 velocity=84 time=25\n",
      "note_on channel=2 note=36 velocity=0 time=110\n",
      "note_on channel=2 note=36 velocity=84 time=15\n",
      "note_on channel=2 note=36 velocity=0 time=105\n",
      "note_on channel=2 note=36 velocity=84 time=20\n",
      "note_on channel=2 note=36 velocity=0 time=80\n",
      "note_on channel=2 note=31 velocity=84 time=35\n",
      "note_on channel=2 note=31 velocity=0 time=150\n",
      "note_on channel=2 note=29 velocity=84 time=35\n",
      "note_on channel=2 note=29 velocity=0 time=145\n",
      "note_on channel=2 note=27 velocity=84 time=35\n",
      "note_on channel=2 note=27 velocity=0 time=40\n",
      "note_on channel=2 note=29 velocity=84 time=20\n",
      "note_on channel=2 note=29 velocity=0 time=100\n",
      "note_on channel=2 note=27 velocity=84 time=15\n",
      "note_on channel=2 note=27 velocity=0 time=30\n",
      "note_on channel=2 note=36 velocity=84 time=25\n",
      "note_on channel=2 note=36 velocity=0 time=110\n",
      "note_on channel=2 note=36 velocity=84 time=15\n",
      "note_on channel=2 note=36 velocity=0 time=100\n",
      "note_on channel=2 note=36 velocity=84 time=15\n",
      "note_on channel=2 note=36 velocity=0 time=120\n",
      "note_on channel=2 note=36 velocity=84 time=5\n",
      "note_on channel=2 note=36 velocity=0 time=95\n",
      "note_on channel=2 note=36 velocity=84 time=25\n",
      "note_on channel=2 note=36 velocity=0 time=95\n",
      "note_on channel=2 note=36 velocity=84 time=25\n",
      "note_on channel=2 note=36 velocity=0 time=95\n",
      "note_on channel=2 note=36 velocity=84 time=25\n",
      "note_on channel=2 note=36 velocity=0 time=95\n",
      "note_on channel=2 note=36 velocity=84 time=25\n",
      "note_on channel=2 note=36 velocity=0 time=105\n",
      "note_on channel=2 note=36 velocity=84 time=15\n",
      "note_on channel=2 note=36 velocity=0 time=100\n",
      "note_on channel=2 note=36 velocity=84 time=20\n",
      "note_on channel=2 note=36 velocity=0 time=95\n",
      "note_on channel=2 note=36 velocity=84 time=25\n",
      "note_on channel=2 note=36 velocity=0 time=90\n",
      "note_on channel=2 note=36 velocity=84 time=30\n",
      "note_on channel=2 note=36 velocity=0 time=95\n",
      "note_on channel=2 note=36 velocity=84 time=25\n",
      "note_on channel=2 note=36 velocity=0 time=95\n",
      "note_on channel=2 note=36 velocity=84 time=25\n",
      "note_on channel=2 note=36 velocity=0 time=95\n",
      "note_on channel=2 note=36 velocity=84 time=25\n",
      "note_on channel=2 note=36 velocity=0 time=95\n",
      "note_on channel=2 note=36 velocity=84 time=25\n",
      "note_on channel=2 note=36 velocity=0 time=95\n",
      "note_on channel=2 note=36 velocity=84 time=25\n",
      "note_on channel=2 note=36 velocity=0 time=95\n",
      "note_on channel=2 note=36 velocity=84 time=25\n",
      "note_on channel=2 note=36 velocity=0 time=95\n",
      "note_on channel=2 note=36 velocity=84 time=25\n",
      "note_on channel=2 note=36 velocity=0 time=95\n",
      "note_on channel=2 note=36 velocity=84 time=25\n",
      "note_on channel=2 note=36 velocity=0 time=95\n",
      "note_on channel=2 note=36 velocity=84 time=25\n",
      "note_on channel=2 note=36 velocity=0 time=100\n",
      "note_on channel=2 note=36 velocity=84 time=20\n",
      "note_on channel=2 note=36 velocity=0 time=95\n",
      "note_on channel=2 note=36 velocity=84 time=25\n",
      "note_on channel=2 note=36 velocity=0 time=95\n",
      "note_on channel=2 note=36 velocity=84 time=25\n",
      "note_on channel=2 note=36 velocity=0 time=95\n",
      "note_on channel=2 note=36 velocity=84 time=25\n",
      "note_on channel=2 note=36 velocity=0 time=100\n",
      "note_on channel=2 note=36 velocity=84 time=20\n",
      "note_on channel=2 note=36 velocity=0 time=95\n",
      "note_on channel=2 note=36 velocity=84 time=25\n",
      "note_on channel=2 note=36 velocity=0 time=95\n",
      "note_on channel=2 note=36 velocity=84 time=25\n",
      "note_on channel=2 note=36 velocity=0 time=100\n",
      "note_on channel=2 note=36 velocity=84 time=20\n",
      "note_on channel=2 note=36 velocity=0 time=90\n",
      "note_on channel=2 note=36 velocity=84 time=30\n",
      "note_on channel=2 note=36 velocity=0 time=95\n",
      "note_on channel=2 note=36 velocity=84 time=25\n",
      "note_on channel=2 note=36 velocity=0 time=95\n",
      "note_on channel=2 note=36 velocity=84 time=25\n",
      "note_on channel=2 note=36 velocity=0 time=95\n",
      "note_on channel=2 note=36 velocity=84 time=25\n",
      "note_on channel=2 note=36 velocity=0 time=90\n",
      "note_on channel=2 note=36 velocity=84 time=30\n",
      "note_on channel=2 note=36 velocity=0 time=90\n",
      "note_on channel=2 note=36 velocity=84 time=30\n",
      "note_on channel=2 note=36 velocity=0 time=95\n",
      "note_on channel=2 note=31 velocity=84 time=35\n",
      "note_on channel=2 note=31 velocity=0 time=155\n",
      "note_on channel=2 note=29 velocity=84 time=20\n",
      "note_on channel=2 note=29 velocity=0 time=145\n",
      "note_on channel=2 note=27 velocity=84 time=30\n",
      "note_on channel=2 note=27 velocity=0 time=40\n",
      "note_on channel=2 note=29 velocity=84 time=20\n",
      "note_on channel=2 note=29 velocity=0 time=105\n",
      "note_on channel=2 note=27 velocity=84 time=20\n",
      "note_on channel=2 note=27 velocity=0 time=25\n",
      "note_on channel=2 note=36 velocity=84 time=30\n",
      "note_on channel=2 note=36 velocity=0 time=105\n",
      "note_on channel=2 note=36 velocity=84 time=20\n",
      "note_on channel=2 note=36 velocity=0 time=95\n",
      "note_on channel=2 note=36 velocity=84 time=20\n",
      "note_on channel=2 note=36 velocity=0 time=90\n",
      "note_on channel=2 note=31 velocity=84 time=40\n",
      "note_on channel=2 note=31 velocity=0 time=140\n",
      "note_on channel=2 note=29 velocity=84 time=35\n",
      "note_on channel=2 note=29 velocity=0 time=145\n",
      "note_on channel=2 note=27 velocity=84 time=30\n",
      "note_on channel=2 note=27 velocity=0 time=40\n",
      "note_on channel=2 note=29 velocity=84 time=25\n",
      "note_on channel=2 note=29 velocity=0 time=100\n",
      "note_on channel=2 note=27 velocity=84 time=15\n",
      "note_on channel=2 note=27 velocity=0 time=30\n",
      "note_on channel=2 note=36 velocity=84 time=30\n",
      "note_on channel=2 note=36 velocity=0 time=100\n",
      "note_on channel=2 note=36 velocity=84 time=15\n",
      "note_on channel=2 note=36 velocity=0 time=105\n",
      "note_on channel=2 note=36 velocity=84 time=15\n",
      "note_on channel=2 note=36 velocity=0 time=110\n",
      "note_on channel=2 note=36 velocity=84 time=15\n",
      "note_on channel=2 note=36 velocity=0 time=95\n",
      "note_on channel=2 note=36 velocity=84 time=25\n",
      "note_on channel=2 note=36 velocity=0 time=90\n",
      "note_on channel=2 note=36 velocity=84 time=30\n",
      "note_on channel=2 note=36 velocity=0 time=100\n",
      "note_on channel=2 note=36 velocity=84 time=20\n",
      "note_on channel=2 note=36 velocity=0 time=95\n",
      "note_on channel=2 note=36 velocity=84 time=25\n",
      "note_on channel=2 note=36 velocity=0 time=100\n",
      "note_on channel=2 note=36 velocity=84 time=20\n",
      "note_on channel=2 note=36 velocity=0 time=95\n",
      "note_on channel=2 note=36 velocity=84 time=25\n",
      "note_on channel=2 note=36 velocity=0 time=100\n",
      "note_on channel=2 note=36 velocity=84 time=20\n",
      "note_on channel=2 note=36 velocity=0 time=95\n",
      "note_on channel=2 note=36 velocity=84 time=25\n",
      "note_on channel=2 note=36 velocity=0 time=90\n",
      "note_on channel=2 note=36 velocity=84 time=30\n",
      "note_on channel=2 note=36 velocity=0 time=100\n",
      "note_on channel=2 note=36 velocity=84 time=20\n",
      "note_on channel=2 note=36 velocity=0 time=90\n",
      "note_on channel=2 note=36 velocity=84 time=30\n",
      "note_on channel=2 note=36 velocity=0 time=95\n",
      "note_on channel=2 note=36 velocity=84 time=25\n",
      "note_on channel=2 note=36 velocity=0 time=95\n",
      "note_on channel=2 note=36 velocity=84 time=25\n",
      "note_on channel=2 note=36 velocity=0 time=100\n",
      "note_on channel=2 note=36 velocity=84 time=20\n",
      "note_on channel=2 note=36 velocity=0 time=95\n",
      "note_on channel=2 note=36 velocity=84 time=25\n",
      "note_on channel=2 note=36 velocity=0 time=95\n",
      "note_on channel=2 note=36 velocity=84 time=25\n",
      "note_on channel=2 note=36 velocity=0 time=95\n",
      "note_on channel=2 note=36 velocity=84 time=25\n",
      "note_on channel=2 note=36 velocity=0 time=90\n",
      "note_on channel=2 note=36 velocity=84 time=30\n",
      "note_on channel=2 note=36 velocity=0 time=95\n",
      "note_on channel=2 note=36 velocity=84 time=25\n",
      "note_on channel=2 note=36 velocity=0 time=95\n",
      "note_on channel=2 note=36 velocity=84 time=25\n",
      "note_on channel=2 note=36 velocity=0 time=95\n",
      "note_on channel=2 note=36 velocity=84 time=25\n",
      "note_on channel=2 note=36 velocity=0 time=100\n",
      "note_on channel=2 note=36 velocity=84 time=20\n",
      "note_on channel=2 note=36 velocity=0 time=95\n",
      "note_on channel=2 note=36 velocity=84 time=25\n",
      "note_on channel=2 note=36 velocity=0 time=90\n",
      "note_on channel=2 note=36 velocity=84 time=30\n",
      "note_on channel=2 note=36 velocity=0 time=95\n",
      "note_on channel=2 note=36 velocity=84 time=25\n",
      "note_on channel=2 note=36 velocity=0 time=100\n",
      "note_on channel=2 note=36 velocity=84 time=20\n",
      "note_on channel=2 note=36 velocity=0 time=95\n",
      "note_on channel=2 note=36 velocity=84 time=25\n",
      "note_on channel=2 note=36 velocity=0 time=95\n",
      "note_on channel=2 note=36 velocity=84 time=25\n",
      "note_on channel=2 note=36 velocity=0 time=90\n",
      "note_on channel=2 note=36 velocity=84 time=30\n",
      "note_on channel=2 note=36 velocity=0 time=95\n",
      "note_on channel=2 note=36 velocity=84 time=25\n",
      "note_on channel=2 note=36 velocity=0 time=90\n",
      "note_on channel=2 note=36 velocity=84 time=30\n",
      "note_on channel=2 note=36 velocity=0 time=95\n",
      "note_on channel=2 note=36 velocity=84 time=25\n",
      "note_on channel=2 note=36 velocity=0 time=100\n",
      "note_on channel=2 note=36 velocity=84 time=20\n",
      "note_on channel=2 note=36 velocity=0 time=95\n",
      "note_on channel=2 note=36 velocity=84 time=25\n",
      "note_on channel=2 note=36 velocity=0 time=95\n",
      "note_on channel=2 note=36 velocity=84 time=25\n",
      "note_on channel=2 note=36 velocity=0 time=100\n",
      "note_on channel=2 note=36 velocity=84 time=20\n",
      "note_on channel=2 note=36 velocity=0 time=100\n",
      "note_on channel=2 note=36 velocity=84 time=20\n",
      "note_on channel=2 note=36 velocity=0 time=95\n",
      "note_on channel=2 note=36 velocity=84 time=25\n",
      "note_on channel=2 note=36 velocity=0 time=95\n",
      "note_on channel=2 note=36 velocity=84 time=25\n",
      "note_on channel=2 note=36 velocity=0 time=95\n",
      "note_on channel=2 note=36 velocity=84 time=25\n",
      "note_on channel=2 note=36 velocity=0 time=95\n",
      "note_on channel=2 note=36 velocity=84 time=25\n",
      "note_on channel=2 note=36 velocity=0 time=95\n",
      "note_on channel=2 note=36 velocity=84 time=25\n",
      "note_on channel=2 note=36 velocity=0 time=95\n",
      "note_on channel=2 note=36 velocity=84 time=25\n",
      "note_on channel=2 note=36 velocity=0 time=90\n",
      "note_on channel=2 note=36 velocity=84 time=30\n",
      "note_on channel=2 note=36 velocity=0 time=95\n",
      "note_on channel=2 note=36 velocity=84 time=25\n",
      "note_on channel=2 note=36 velocity=0 time=105\n",
      "note_on channel=2 note=36 velocity=84 time=15\n",
      "note_on channel=2 note=36 velocity=0 time=95\n",
      "note_on channel=2 note=36 velocity=84 time=25\n",
      "note_on channel=2 note=36 velocity=0 time=90\n",
      "note_on channel=2 note=36 velocity=84 time=30\n",
      "note_on channel=2 note=36 velocity=0 time=100\n",
      "note_on channel=2 note=36 velocity=84 time=20\n",
      "note_on channel=2 note=36 velocity=0 time=95\n",
      "note_on channel=2 note=36 velocity=84 time=25\n",
      "note_on channel=2 note=36 velocity=0 time=95\n",
      "note_on channel=2 note=36 velocity=84 time=25\n",
      "note_on channel=2 note=36 velocity=0 time=95\n",
      "note_on channel=2 note=36 velocity=84 time=25\n",
      "note_on channel=2 note=36 velocity=0 time=95\n",
      "note_on channel=2 note=36 velocity=84 time=25\n",
      "note_on channel=2 note=36 velocity=0 time=90\n",
      "note_on channel=2 note=36 velocity=84 time=30\n",
      "note_on channel=2 note=36 velocity=0 time=95\n",
      "note_on channel=2 note=36 velocity=84 time=25\n",
      "note_on channel=2 note=36 velocity=0 time=95\n",
      "note_on channel=2 note=36 velocity=84 time=25\n",
      "note_on channel=2 note=36 velocity=0 time=95\n",
      "note_on channel=2 note=36 velocity=84 time=25\n",
      "note_on channel=2 note=36 velocity=0 time=100\n",
      "note_on channel=2 note=36 velocity=84 time=20\n",
      "note_on channel=2 note=36 velocity=0 time=85\n",
      "note_on channel=2 note=36 velocity=84 time=35\n",
      "note_on channel=2 note=36 velocity=0 time=105\n",
      "note_on channel=2 note=36 velocity=84 time=15\n",
      "note_on channel=2 note=36 velocity=0 time=105\n",
      "note_on channel=2 note=36 velocity=84 time=15\n",
      "note_on channel=2 note=36 velocity=0 time=100\n",
      "note_on channel=2 note=36 velocity=84 time=20\n",
      "note_on channel=2 note=36 velocity=0 time=100\n",
      "note_on channel=2 note=36 velocity=84 time=20\n",
      "note_on channel=2 note=36 velocity=0 time=95\n",
      "note_on channel=2 note=29 velocity=84 time=25\n",
      "note_on channel=2 note=29 velocity=0 time=95\n",
      "note_on channel=2 note=29 velocity=84 time=25\n",
      "note_on channel=2 note=29 velocity=0 time=100\n",
      "note_on channel=2 note=29 velocity=84 time=20\n",
      "note_on channel=2 note=29 velocity=0 time=100\n",
      "note_on channel=2 note=29 velocity=84 time=20\n",
      "note_on channel=2 note=29 velocity=0 time=95\n",
      "note_on channel=2 note=29 velocity=84 time=25\n",
      "note_on channel=2 note=29 velocity=0 time=100\n",
      "note_on channel=2 note=29 velocity=84 time=20\n",
      "note_on channel=2 note=29 velocity=0 time=100\n",
      "note_on channel=2 note=29 velocity=84 time=20\n",
      "note_on channel=2 note=29 velocity=0 time=95\n",
      "note_on channel=2 note=29 velocity=84 time=25\n",
      "note_on channel=2 note=29 velocity=0 time=90\n",
      "note_on channel=2 note=36 velocity=84 time=30\n",
      "note_on channel=2 note=36 velocity=0 time=105\n",
      "note_on channel=2 note=36 velocity=84 time=15\n",
      "note_on channel=2 note=36 velocity=0 time=100\n",
      "note_on channel=2 note=36 velocity=84 time=20\n",
      "note_on channel=2 note=36 velocity=0 time=95\n",
      "note_on channel=2 note=36 velocity=84 time=25\n",
      "note_on channel=2 note=36 velocity=0 time=110\n",
      "note_on channel=2 note=36 velocity=84 time=10\n",
      "note_on channel=2 note=36 velocity=0 time=95\n",
      "note_on channel=2 note=36 velocity=84 time=25\n",
      "note_on channel=2 note=36 velocity=0 time=100\n",
      "note_on channel=2 note=36 velocity=84 time=20\n",
      "note_on channel=2 note=36 velocity=0 time=95\n",
      "note_on channel=2 note=36 velocity=84 time=25\n",
      "note_on channel=2 note=36 velocity=0 time=95\n",
      "note_on channel=2 note=29 velocity=84 time=25\n",
      "note_on channel=2 note=29 velocity=0 time=95\n",
      "note_on channel=2 note=29 velocity=84 time=25\n",
      "note_on channel=2 note=29 velocity=0 time=100\n",
      "note_on channel=2 note=29 velocity=84 time=20\n",
      "note_on channel=2 note=29 velocity=0 time=95\n",
      "note_on channel=2 note=29 velocity=84 time=25\n",
      "note_on channel=2 note=29 velocity=0 time=95\n",
      "note_on channel=2 note=29 velocity=84 time=25\n",
      "note_on channel=2 note=29 velocity=0 time=95\n",
      "note_on channel=2 note=29 velocity=84 time=25\n",
      "note_on channel=2 note=29 velocity=0 time=100\n",
      "note_on channel=2 note=29 velocity=84 time=20\n",
      "note_on channel=2 note=29 velocity=0 time=95\n",
      "note_on channel=2 note=29 velocity=84 time=25\n",
      "note_on channel=2 note=29 velocity=0 time=90\n",
      "note_on channel=2 note=36 velocity=84 time=30\n",
      "note_on channel=2 note=36 velocity=0 time=100\n",
      "note_on channel=2 note=36 velocity=84 time=20\n",
      "note_on channel=2 note=36 velocity=0 time=100\n",
      "note_on channel=2 note=36 velocity=84 time=20\n",
      "note_on channel=2 note=36 velocity=0 time=95\n",
      "note_on channel=2 note=36 velocity=84 time=25\n",
      "note_on channel=2 note=36 velocity=0 time=100\n",
      "note_on channel=2 note=36 velocity=84 time=20\n",
      "note_on channel=2 note=36 velocity=0 time=100\n",
      "note_on channel=2 note=36 velocity=84 time=20\n",
      "note_on channel=2 note=36 velocity=0 time=100\n",
      "note_on channel=2 note=36 velocity=84 time=20\n",
      "note_on channel=2 note=36 velocity=0 time=100\n",
      "note_on channel=2 note=36 velocity=84 time=20\n",
      "note_on channel=2 note=36 velocity=0 time=95\n",
      "note_on channel=2 note=31 velocity=84 time=25\n",
      "note_on channel=2 note=31 velocity=0 time=150\n",
      "note_on channel=2 note=29 velocity=84 time=30\n",
      "note_on channel=2 note=29 velocity=0 time=155\n",
      "note_on channel=2 note=27 velocity=84 time=30\n",
      "note_on channel=2 note=27 velocity=0 time=30\n",
      "note_on channel=2 note=29 velocity=84 time=25\n",
      "note_on channel=2 note=29 velocity=0 time=105\n",
      "note_on channel=2 note=27 velocity=84 time=15\n",
      "note_on channel=2 note=27 velocity=0 time=25\n",
      "note_on channel=2 note=36 velocity=84 time=35\n",
      "note_on channel=2 note=36 velocity=0 time=100\n",
      "note_on channel=2 note=36 velocity=84 time=20\n",
      "note_on channel=2 note=36 velocity=0 time=105\n",
      "note_on channel=2 note=36 velocity=84 time=15\n",
      "note_on channel=2 note=36 velocity=0 time=85\n",
      "note_on channel=2 note=31 velocity=84 time=40\n",
      "note_on channel=2 note=31 velocity=0 time=145\n",
      "note_on channel=2 note=29 velocity=84 time=35\n",
      "note_on channel=2 note=29 velocity=0 time=155\n",
      "note_on channel=2 note=27 velocity=84 time=25\n",
      "note_on channel=2 note=27 velocity=0 time=25\n",
      "note_on channel=2 note=29 velocity=84 time=30\n",
      "note_on channel=2 note=29 velocity=0 time=110\n",
      "note_on channel=2 note=27 velocity=84 time=10\n",
      "note_on channel=2 note=27 velocity=0 time=30\n",
      "note_on channel=2 note=36 velocity=84 time=30\n",
      "note_on channel=2 note=36 velocity=0 time=100\n",
      "note_on channel=2 note=36 velocity=84 time=20\n",
      "note_on channel=2 note=36 velocity=0 time=100\n",
      "note_on channel=2 note=36 velocity=84 time=15\n",
      "note_on channel=2 note=36 velocity=0 time=110\n",
      "note_on channel=2 note=36 velocity=84 time=15\n",
      "note_on channel=2 note=36 velocity=0 time=100\n",
      "note_on channel=2 note=36 velocity=84 time=20\n",
      "note_on channel=2 note=36 velocity=0 time=90\n",
      "note_on channel=2 note=36 velocity=84 time=30\n",
      "note_on channel=2 note=36 velocity=0 time=100\n",
      "note_on channel=2 note=36 velocity=84 time=20\n",
      "note_on channel=2 note=36 velocity=0 time=100\n",
      "note_on channel=2 note=36 velocity=84 time=20\n",
      "note_on channel=2 note=36 velocity=0 time=100\n",
      "note_on channel=2 note=36 velocity=84 time=20\n",
      "note_on channel=2 note=36 velocity=0 time=95\n",
      "note_on channel=2 note=36 velocity=84 time=25\n",
      "note_on channel=2 note=36 velocity=0 time=105\n",
      "note_on channel=2 note=36 velocity=84 time=15\n",
      "note_on channel=2 note=36 velocity=0 time=95\n",
      "note_on channel=2 note=36 velocity=84 time=25\n",
      "note_on channel=2 note=36 velocity=0 time=100\n",
      "note_on channel=2 note=36 velocity=84 time=20\n",
      "note_on channel=2 note=36 velocity=0 time=95\n",
      "note_on channel=2 note=36 velocity=84 time=25\n",
      "note_on channel=2 note=36 velocity=0 time=100\n",
      "note_on channel=2 note=36 velocity=84 time=20\n",
      "note_on channel=2 note=36 velocity=0 time=90\n",
      "note_on channel=2 note=36 velocity=84 time=30\n",
      "note_on channel=2 note=36 velocity=0 time=100\n",
      "note_on channel=2 note=36 velocity=84 time=20\n",
      "note_on channel=2 note=36 velocity=0 time=100\n",
      "note_on channel=2 note=36 velocity=84 time=20\n",
      "note_on channel=2 note=36 velocity=0 time=100\n",
      "note_on channel=2 note=36 velocity=84 time=20\n",
      "note_on channel=2 note=36 velocity=0 time=90\n",
      "note_on channel=2 note=36 velocity=84 time=30\n",
      "note_on channel=2 note=36 velocity=0 time=100\n",
      "note_on channel=2 note=36 velocity=84 time=20\n",
      "note_on channel=2 note=36 velocity=0 time=100\n",
      "note_on channel=2 note=36 velocity=84 time=20\n",
      "note_on channel=2 note=36 velocity=0 time=95\n",
      "note_on channel=2 note=36 velocity=84 time=25\n",
      "note_on channel=2 note=36 velocity=0 time=95\n",
      "note_on channel=2 note=36 velocity=84 time=25\n",
      "note_on channel=2 note=36 velocity=0 time=95\n",
      "note_on channel=2 note=36 velocity=84 time=25\n",
      "note_on channel=2 note=36 velocity=0 time=100\n",
      "note_on channel=2 note=36 velocity=84 time=20\n",
      "note_on channel=2 note=36 velocity=0 time=100\n",
      "note_on channel=2 note=36 velocity=84 time=20\n",
      "note_on channel=2 note=36 velocity=0 time=90\n",
      "note_on channel=2 note=36 velocity=84 time=30\n",
      "note_on channel=2 note=36 velocity=0 time=100\n",
      "note_on channel=2 note=36 velocity=84 time=20\n",
      "note_on channel=2 note=36 velocity=0 time=95\n",
      "note_on channel=2 note=36 velocity=84 time=25\n",
      "note_on channel=2 note=36 velocity=0 time=100\n",
      "note_on channel=2 note=36 velocity=84 time=20\n",
      "note_on channel=2 note=36 velocity=0 time=90\n",
      "note_on channel=2 note=36 velocity=84 time=30\n",
      "note_on channel=2 note=36 velocity=0 time=95\n",
      "note_on channel=2 note=36 velocity=84 time=25\n",
      "note_on channel=2 note=36 velocity=0 time=95\n",
      "note_on channel=2 note=36 velocity=84 time=25\n",
      "note_on channel=2 note=36 velocity=0 time=100\n",
      "note_on channel=2 note=36 velocity=84 time=20\n",
      "note_on channel=2 note=36 velocity=0 time=95\n",
      "note_on channel=2 note=36 velocity=84 time=25\n",
      "note_on channel=2 note=36 velocity=0 time=100\n",
      "note_on channel=2 note=36 velocity=84 time=20\n",
      "note_on channel=2 note=36 velocity=0 time=100\n",
      "note_on channel=2 note=36 velocity=84 time=20\n",
      "note_on channel=2 note=36 velocity=0 time=100\n",
      "note_on channel=2 note=36 velocity=84 time=20\n",
      "note_on channel=2 note=36 velocity=0 time=95\n",
      "note_on channel=2 note=36 velocity=84 time=25\n",
      "note_on channel=2 note=36 velocity=0 time=95\n",
      "note_on channel=2 note=36 velocity=84 time=25\n",
      "note_on channel=2 note=36 velocity=0 time=95\n",
      "note_on channel=2 note=36 velocity=84 time=25\n",
      "note_on channel=2 note=36 velocity=0 time=95\n",
      "note_on channel=2 note=36 velocity=84 time=25\n",
      "note_on channel=2 note=36 velocity=0 time=95\n",
      "note_on channel=2 note=36 velocity=84 time=25\n",
      "note_on channel=2 note=36 velocity=0 time=95\n",
      "note_on channel=2 note=36 velocity=84 time=25\n",
      "note_on channel=2 note=36 velocity=0 time=90\n",
      "note_on channel=2 note=36 velocity=84 time=30\n",
      "note_on channel=2 note=36 velocity=0 time=90\n",
      "note_on channel=2 note=36 velocity=84 time=30\n",
      "note_on channel=2 note=36 velocity=0 time=100\n",
      "note_on channel=2 note=36 velocity=84 time=20\n",
      "note_on channel=2 note=36 velocity=0 time=100\n",
      "note_on channel=2 note=36 velocity=84 time=20\n",
      "note_on channel=2 note=36 velocity=0 time=95\n",
      "note_on channel=2 note=36 velocity=84 time=25\n",
      "note_on channel=2 note=36 velocity=0 time=95\n",
      "note_on channel=2 note=36 velocity=84 time=25\n",
      "note_on channel=2 note=36 velocity=0 time=95\n",
      "note_on channel=2 note=36 velocity=84 time=25\n",
      "note_on channel=2 note=36 velocity=0 time=95\n",
      "note_on channel=2 note=36 velocity=84 time=25\n",
      "note_on channel=2 note=36 velocity=0 time=95\n",
      "note_on channel=2 note=36 velocity=84 time=25\n",
      "note_on channel=2 note=36 velocity=0 time=95\n",
      "note_on channel=2 note=36 velocity=84 time=25\n",
      "note_on channel=2 note=36 velocity=0 time=95\n",
      "note_on channel=2 note=36 velocity=84 time=25\n",
      "note_on channel=2 note=36 velocity=0 time=105\n",
      "note_on channel=2 note=36 velocity=84 time=15\n",
      "note_on channel=2 note=36 velocity=0 time=95\n",
      "note_on channel=2 note=36 velocity=84 time=25\n",
      "note_on channel=2 note=36 velocity=0 time=95\n",
      "note_on channel=2 note=36 velocity=84 time=25\n",
      "note_on channel=2 note=36 velocity=0 time=100\n",
      "note_on channel=2 note=36 velocity=84 time=20\n",
      "note_on channel=2 note=36 velocity=0 time=95\n",
      "note_on channel=2 note=36 velocity=84 time=25\n",
      "note_on channel=2 note=36 velocity=0 time=90\n",
      "note_on channel=2 note=36 velocity=84 time=30\n",
      "note_on channel=2 note=36 velocity=0 time=95\n",
      "note_on channel=2 note=36 velocity=84 time=25\n",
      "note_on channel=2 note=36 velocity=0 time=100\n",
      "note_on channel=2 note=36 velocity=84 time=20\n",
      "note_on channel=2 note=36 velocity=0 time=95\n",
      "note_on channel=2 note=36 velocity=84 time=25\n",
      "note_on channel=2 note=36 velocity=0 time=100\n",
      "note_on channel=2 note=36 velocity=84 time=20\n",
      "note_on channel=2 note=36 velocity=0 time=95\n",
      "note_on channel=2 note=36 velocity=84 time=25\n",
      "note_on channel=2 note=36 velocity=0 time=95\n",
      "note_on channel=2 note=31 velocity=84 time=25\n",
      "note_on channel=2 note=31 velocity=0 time=155\n",
      "note_on channel=2 note=29 velocity=84 time=25\n",
      "note_on channel=2 note=29 velocity=0 time=155\n",
      "note_on channel=2 note=27 velocity=84 time=30\n",
      "note_on channel=2 note=27 velocity=0 time=30\n",
      "note_on channel=2 note=29 velocity=84 time=25\n",
      "note_on channel=2 note=29 velocity=0 time=100\n",
      "note_on channel=2 note=27 velocity=84 time=20\n",
      "note_on channel=2 note=27 velocity=0 time=30\n",
      "note_on channel=2 note=36 velocity=84 time=35\n",
      "note_on channel=2 note=36 velocity=0 time=95\n",
      "note_on channel=2 note=36 velocity=84 time=15\n",
      "note_on channel=2 note=36 velocity=0 time=105\n",
      "note_on channel=2 note=36 velocity=84 time=15\n",
      "note_on channel=2 note=36 velocity=0 time=90\n",
      "note_on channel=2 note=31 velocity=84 time=35\n",
      "note_on channel=2 note=31 velocity=0 time=150\n",
      "note_on channel=2 note=29 velocity=84 time=35\n",
      "note_on channel=2 note=29 velocity=0 time=165\n",
      "note_on channel=2 note=27 velocity=84 time=15\n",
      "note_on channel=2 note=27 velocity=0 time=30\n",
      "note_on channel=2 note=29 velocity=84 time=30\n",
      "note_on channel=2 note=29 velocity=0 time=95\n",
      "note_on channel=2 note=27 velocity=84 time=20\n",
      "note_on channel=2 note=27 velocity=0 time=25\n",
      "note_on channel=2 note=36 velocity=84 time=35\n",
      "note_on channel=2 note=36 velocity=0 time=105\n",
      "note_on channel=2 note=36 velocity=84 time=15\n",
      "note_on channel=2 note=36 velocity=0 time=95\n",
      "note_on channel=2 note=36 velocity=84 time=20\n",
      "note_on channel=2 note=36 velocity=0 time=110\n",
      "note_on channel=2 note=38 velocity=84 time=15\n",
      "note_on channel=2 note=38 velocity=0 time=100\n",
      "note_on channel=2 note=38 velocity=84 time=20\n",
      "note_on channel=2 note=38 velocity=0 time=95\n",
      "note_on channel=2 note=38 velocity=84 time=25\n",
      "note_on channel=2 note=38 velocity=0 time=95\n",
      "note_on channel=2 note=38 velocity=84 time=25\n",
      "note_on channel=2 note=38 velocity=0 time=100\n",
      "note_on channel=2 note=38 velocity=84 time=20\n",
      "note_on channel=2 note=38 velocity=0 time=105\n",
      "note_on channel=2 note=38 velocity=84 time=15\n",
      "note_on channel=2 note=38 velocity=0 time=95\n",
      "note_on channel=2 note=38 velocity=84 time=25\n",
      "note_on channel=2 note=38 velocity=0 time=90\n",
      "note_on channel=2 note=38 velocity=84 time=30\n",
      "note_on channel=2 note=38 velocity=0 time=100\n",
      "note_on channel=2 note=38 velocity=84 time=20\n",
      "note_on channel=2 note=38 velocity=0 time=100\n",
      "note_on channel=2 note=38 velocity=84 time=20\n",
      "note_on channel=2 note=38 velocity=0 time=95\n",
      "note_on channel=2 note=38 velocity=84 time=25\n",
      "note_on channel=2 note=38 velocity=0 time=95\n",
      "note_on channel=2 note=38 velocity=84 time=25\n",
      "note_on channel=2 note=38 velocity=0 time=95\n",
      "note_on channel=2 note=38 velocity=84 time=25\n",
      "note_on channel=2 note=38 velocity=0 time=100\n",
      "note_on channel=2 note=38 velocity=84 time=20\n",
      "note_on channel=2 note=38 velocity=0 time=95\n",
      "note_on channel=2 note=38 velocity=84 time=25\n",
      "note_on channel=2 note=38 velocity=0 time=95\n",
      "note_on channel=2 note=38 velocity=84 time=25\n",
      "note_on channel=2 note=38 velocity=0 time=95\n",
      "note_on channel=2 note=38 velocity=84 time=25\n",
      "note_on channel=2 note=38 velocity=0 time=100\n",
      "note_on channel=2 note=38 velocity=84 time=20\n",
      "note_on channel=2 note=38 velocity=0 time=95\n",
      "note_on channel=2 note=38 velocity=84 time=25\n",
      "note_on channel=2 note=38 velocity=0 time=95\n",
      "note_on channel=2 note=38 velocity=84 time=25\n",
      "note_on channel=2 note=38 velocity=0 time=95\n",
      "note_on channel=2 note=38 velocity=84 time=25\n",
      "note_on channel=2 note=38 velocity=0 time=100\n",
      "note_on channel=2 note=38 velocity=84 time=20\n",
      "note_on channel=2 note=38 velocity=0 time=95\n",
      "note_on channel=2 note=38 velocity=84 time=25\n",
      "note_on channel=2 note=38 velocity=0 time=95\n",
      "note_on channel=2 note=38 velocity=84 time=25\n",
      "note_on channel=2 note=38 velocity=0 time=95\n",
      "note_on channel=2 note=38 velocity=84 time=25\n",
      "note_on channel=2 note=38 velocity=0 time=100\n",
      "note_on channel=2 note=38 velocity=84 time=20\n",
      "note_on channel=2 note=38 velocity=0 time=100\n",
      "note_on channel=2 note=38 velocity=84 time=20\n",
      "note_on channel=2 note=38 velocity=0 time=100\n",
      "note_on channel=2 note=38 velocity=84 time=20\n",
      "note_on channel=2 note=38 velocity=0 time=100\n",
      "note_on channel=2 note=38 velocity=84 time=20\n",
      "note_on channel=2 note=38 velocity=0 time=100\n",
      "note_on channel=2 note=38 velocity=84 time=20\n",
      "note_on channel=2 note=38 velocity=0 time=95\n",
      "note_on channel=2 note=38 velocity=84 time=25\n",
      "note_on channel=2 note=38 velocity=0 time=90\n",
      "note_on channel=2 note=38 velocity=84 time=30\n",
      "note_on channel=2 note=38 velocity=0 time=95\n",
      "note_on channel=2 note=38 velocity=84 time=25\n",
      "note_on channel=2 note=38 velocity=0 time=105\n",
      "note_on channel=2 note=38 velocity=84 time=15\n",
      "note_on channel=2 note=38 velocity=0 time=100\n",
      "note_on channel=2 note=38 velocity=84 time=20\n",
      "note_on channel=2 note=38 velocity=0 time=95\n",
      "note_on channel=2 note=38 velocity=84 time=25\n",
      "note_on channel=2 note=38 velocity=0 time=95\n",
      "note_on channel=2 note=38 velocity=84 time=25\n",
      "note_on channel=2 note=38 velocity=0 time=100\n",
      "note_on channel=2 note=38 velocity=84 time=20\n",
      "note_on channel=2 note=38 velocity=0 time=95\n",
      "note_on channel=2 note=38 velocity=84 time=25\n",
      "note_on channel=2 note=38 velocity=0 time=95\n",
      "note_on channel=2 note=38 velocity=84 time=25\n",
      "note_on channel=2 note=38 velocity=0 time=100\n",
      "note_on channel=2 note=38 velocity=84 time=20\n",
      "note_on channel=2 note=38 velocity=0 time=100\n",
      "note_on channel=2 note=38 velocity=84 time=20\n",
      "note_on channel=2 note=38 velocity=0 time=100\n",
      "note_on channel=2 note=38 velocity=84 time=20\n",
      "note_on channel=2 note=38 velocity=0 time=100\n",
      "note_on channel=2 note=38 velocity=84 time=20\n",
      "note_on channel=2 note=38 velocity=0 time=95\n",
      "note_on channel=2 note=38 velocity=84 time=25\n",
      "note_on channel=2 note=38 velocity=0 time=95\n",
      "note_on channel=2 note=38 velocity=84 time=25\n",
      "note_on channel=2 note=38 velocity=0 time=100\n",
      "note_on channel=2 note=38 velocity=84 time=20\n",
      "note_on channel=2 note=38 velocity=0 time=95\n",
      "note_on channel=2 note=38 velocity=84 time=25\n",
      "note_on channel=2 note=38 velocity=0 time=95\n",
      "note_on channel=2 note=38 velocity=84 time=25\n",
      "note_on channel=2 note=38 velocity=0 time=100\n",
      "note_on channel=2 note=38 velocity=84 time=20\n",
      "note_on channel=2 note=38 velocity=0 time=100\n",
      "note_on channel=2 note=38 velocity=84 time=20\n",
      "note_on channel=2 note=38 velocity=0 time=100\n",
      "note_on channel=2 note=38 velocity=84 time=20\n",
      "note_on channel=2 note=38 velocity=0 time=95\n",
      "note_on channel=2 note=38 velocity=84 time=25\n",
      "note_on channel=2 note=38 velocity=0 time=100\n",
      "note_on channel=2 note=38 velocity=84 time=20\n",
      "note_on channel=2 note=38 velocity=0 time=90\n",
      "note_on channel=2 note=38 velocity=84 time=30\n",
      "note_on channel=2 note=38 velocity=0 time=95\n",
      "note_on channel=2 note=38 velocity=84 time=25\n",
      "note_on channel=2 note=38 velocity=0 time=100\n",
      "note_on channel=2 note=38 velocity=84 time=20\n",
      "note_on channel=2 note=38 velocity=0 time=100\n",
      "note_on channel=2 note=38 velocity=84 time=20\n",
      "note_on channel=2 note=38 velocity=0 time=90\n",
      "note_on channel=2 note=38 velocity=84 time=30\n",
      "note_on channel=2 note=38 velocity=0 time=95\n",
      "note_on channel=2 note=38 velocity=84 time=25\n",
      "note_on channel=2 note=38 velocity=0 time=95\n",
      "note_on channel=2 note=38 velocity=84 time=25\n",
      "note_on channel=2 note=38 velocity=0 time=95\n",
      "note_on channel=2 note=38 velocity=84 time=25\n",
      "note_on channel=2 note=38 velocity=0 time=100\n",
      "note_on channel=2 note=38 velocity=84 time=20\n",
      "note_on channel=2 note=38 velocity=0 time=95\n",
      "note_on channel=2 note=38 velocity=84 time=25\n",
      "note_on channel=2 note=38 velocity=0 time=100\n",
      "note_on channel=2 note=38 velocity=84 time=20\n",
      "note_on channel=2 note=38 velocity=0 time=45\n",
      "note_on channel=2 note=38 velocity=84 time=435\n",
      "note_on channel=2 note=38 velocity=0 time=90\n",
      "<meta message end_of_track time=0>\n",
      "Track 5: Split Chan 10 \n",
      "<meta message midi_port port=0 time=0>\n",
      "<meta message track_name name='Split Chan 10 ' time=0>\n",
      "program_change channel=9 program=16 time=0\n",
      "control_change channel=9 control=7 value=100 time=0\n",
      "control_change channel=9 control=10 value=64 time=0\n",
      "program_change channel=9 program=16 time=126\n",
      "note_on channel=9 note=36 velocity=127 time=354\n",
      "note_on channel=9 note=36 velocity=0 time=0\n",
      "note_on channel=9 note=36 velocity=127 time=120\n",
      "note_on channel=9 note=36 velocity=0 time=0\n",
      "note_on channel=9 note=36 velocity=127 time=120\n",
      "note_on channel=9 note=36 velocity=0 time=0\n",
      "note_on channel=9 note=36 velocity=127 time=120\n",
      "note_on channel=9 note=36 velocity=0 time=0\n",
      "note_on channel=9 note=36 velocity=127 time=120\n",
      "note_on channel=9 note=36 velocity=0 time=0\n",
      "note_on channel=9 note=36 velocity=127 time=120\n",
      "note_on channel=9 note=36 velocity=0 time=0\n",
      "note_on channel=9 note=38 velocity=127 time=90\n",
      "note_on channel=9 note=38 velocity=0 time=0\n",
      "note_on channel=9 note=38 velocity=127 time=60\n",
      "note_on channel=9 note=38 velocity=0 time=0\n",
      "note_on channel=9 note=38 velocity=127 time=30\n",
      "note_on channel=9 note=38 velocity=0 time=0\n",
      "note_on channel=9 note=38 velocity=127 time=30\n",
      "note_on channel=9 note=38 velocity=0 time=0\n",
      "note_on channel=9 note=48 velocity=113 time=30\n",
      "note_on channel=9 note=48 velocity=0 time=0\n",
      "note_on channel=9 note=36 velocity=127 time=0\n",
      "note_on channel=9 note=36 velocity=0 time=0\n",
      "note_on channel=9 note=45 velocity=113 time=30\n",
      "note_on channel=9 note=45 velocity=0 time=0\n",
      "note_on channel=9 note=38 velocity=127 time=0\n",
      "note_on channel=9 note=38 velocity=0 time=0\n",
      "note_on channel=9 note=41 velocity=113 time=30\n",
      "note_on channel=9 note=41 velocity=0 time=0\n",
      "note_on channel=9 note=69 velocity=61 time=60\n",
      "note_on channel=9 note=69 velocity=0 time=0\n",
      "note_on channel=9 note=36 velocity=127 time=0\n",
      "note_on channel=9 note=36 velocity=0 time=0\n",
      "note_on channel=9 note=49 velocity=85 time=0\n",
      "note_on channel=9 note=49 velocity=0 time=0\n",
      "note_on channel=9 note=69 velocity=61 time=30\n",
      "note_on channel=9 note=69 velocity=0 time=0\n",
      "note_on channel=9 note=69 velocity=127 time=30\n",
      "note_on channel=9 note=69 velocity=0 time=0\n",
      "note_on channel=9 note=39 velocity=127 time=0\n",
      "note_on channel=9 note=39 velocity=0 time=0\n",
      "note_on channel=9 note=69 velocity=127 time=30\n",
      "note_on channel=9 note=69 velocity=0 time=0\n",
      "note_on channel=9 note=69 velocity=61 time=30\n",
      "note_on channel=9 note=69 velocity=0 time=0\n",
      "note_on channel=9 note=36 velocity=127 time=0\n",
      "note_on channel=9 note=36 velocity=0 time=0\n",
      "note_on channel=9 note=39 velocity=127 time=0\n",
      "note_on channel=9 note=39 velocity=0 time=0\n",
      "note_on channel=9 note=69 velocity=61 time=30\n",
      "note_on channel=9 note=69 velocity=0 time=0\n",
      "note_on channel=9 note=69 velocity=127 time=30\n",
      "note_on channel=9 note=69 velocity=0 time=0\n",
      "note_on channel=9 note=69 velocity=127 time=30\n",
      "note_on channel=9 note=69 velocity=0 time=0\n",
      "note_on channel=9 note=69 velocity=61 time=30\n",
      "note_on channel=9 note=69 velocity=0 time=0\n",
      "note_on channel=9 note=36 velocity=127 time=0\n",
      "note_on channel=9 note=36 velocity=0 time=0\n",
      "note_on channel=9 note=39 velocity=127 time=0\n",
      "note_on channel=9 note=39 velocity=0 time=0\n",
      "note_on channel=9 note=69 velocity=61 time=30\n",
      "note_on channel=9 note=69 velocity=0 time=0\n",
      "note_on channel=9 note=69 velocity=127 time=30\n",
      "note_on channel=9 note=69 velocity=0 time=0\n",
      "note_on channel=9 note=69 velocity=127 time=30\n",
      "note_on channel=9 note=69 velocity=0 time=0\n",
      "note_on channel=9 note=39 velocity=127 time=0\n",
      "note_on channel=9 note=39 velocity=0 time=0\n",
      "note_on channel=9 note=69 velocity=61 time=30\n",
      "note_on channel=9 note=69 velocity=0 time=0\n",
      "note_on channel=9 note=36 velocity=127 time=0\n",
      "note_on channel=9 note=36 velocity=0 time=0\n",
      "note_on channel=9 note=69 velocity=61 time=30\n",
      "note_on channel=9 note=69 velocity=0 time=0\n",
      "note_on channel=9 note=69 velocity=127 time=30\n",
      "note_on channel=9 note=69 velocity=0 time=0\n",
      "note_on channel=9 note=39 velocity=127 time=0\n",
      "note_on channel=9 note=39 velocity=0 time=0\n",
      "note_on channel=9 note=69 velocity=127 time=30\n",
      "note_on channel=9 note=69 velocity=0 time=0\n",
      "note_on channel=9 note=69 velocity=61 time=30\n",
      "note_on channel=9 note=69 velocity=0 time=0\n",
      "note_on channel=9 note=36 velocity=127 time=0\n",
      "note_on channel=9 note=36 velocity=0 time=0\n",
      "note_on channel=9 note=69 velocity=61 time=30\n",
      "note_on channel=9 note=69 velocity=0 time=0\n",
      "note_on channel=9 note=69 velocity=127 time=30\n",
      "note_on channel=9 note=69 velocity=0 time=0\n",
      "note_on channel=9 note=39 velocity=127 time=0\n",
      "note_on channel=9 note=39 velocity=0 time=0\n",
      "note_on channel=9 note=69 velocity=127 time=30\n",
      "note_on channel=9 note=69 velocity=0 time=0\n",
      "note_on channel=9 note=69 velocity=61 time=30\n",
      "note_on channel=9 note=69 velocity=0 time=0\n",
      "note_on channel=9 note=36 velocity=127 time=0\n",
      "note_on channel=9 note=36 velocity=0 time=0\n",
      "note_on channel=9 note=69 velocity=61 time=30\n",
      "note_on channel=9 note=69 velocity=0 time=0\n",
      "note_on channel=9 note=39 velocity=127 time=0\n",
      "note_on channel=9 note=39 velocity=0 time=0\n",
      "note_on channel=9 note=69 velocity=127 time=30\n",
      "note_on channel=9 note=69 velocity=0 time=0\n",
      "note_on channel=9 note=69 velocity=127 time=30\n",
      "note_on channel=9 note=69 velocity=0 time=0\n",
      "note_on channel=9 note=69 velocity=61 time=30\n",
      "note_on channel=9 note=69 velocity=0 time=0\n",
      "note_on channel=9 note=36 velocity=127 time=0\n",
      "note_on channel=9 note=36 velocity=0 time=0\n",
      "note_on channel=9 note=39 velocity=127 time=0\n",
      "note_on channel=9 note=39 velocity=0 time=0\n",
      "note_on channel=9 note=69 velocity=61 time=30\n",
      "note_on channel=9 note=69 velocity=0 time=0\n",
      "note_on channel=9 note=69 velocity=127 time=30\n",
      "note_on channel=9 note=69 velocity=0 time=0\n",
      "note_on channel=9 note=69 velocity=127 time=30\n",
      "note_on channel=9 note=69 velocity=0 time=0\n",
      "note_on channel=9 note=39 velocity=127 time=0\n",
      "note_on channel=9 note=39 velocity=0 time=0\n",
      "note_on channel=9 note=69 velocity=61 time=30\n",
      "note_on channel=9 note=69 velocity=0 time=0\n",
      "note_on channel=9 note=36 velocity=127 time=0\n",
      "note_on channel=9 note=36 velocity=0 time=0\n",
      "note_on channel=9 note=69 velocity=61 time=30\n",
      "note_on channel=9 note=69 velocity=0 time=0\n",
      "note_on channel=9 note=69 velocity=127 time=30\n",
      "note_on channel=9 note=69 velocity=0 time=0\n",
      "note_on channel=9 note=39 velocity=127 time=0\n",
      "note_on channel=9 note=39 velocity=0 time=0\n",
      "note_on channel=9 note=69 velocity=127 time=30\n",
      "note_on channel=9 note=69 velocity=0 time=0\n",
      "note_on channel=9 note=39 velocity=127 time=0\n",
      "note_on channel=9 note=39 velocity=0 time=0\n",
      "note_on channel=9 note=69 velocity=61 time=30\n",
      "note_on channel=9 note=69 velocity=0 time=0\n",
      "note_on channel=9 note=36 velocity=127 time=0\n",
      "note_on channel=9 note=36 velocity=0 time=0\n",
      "note_on channel=9 note=69 velocity=61 time=30\n",
      "note_on channel=9 note=69 velocity=0 time=0\n",
      "note_on channel=9 note=69 velocity=127 time=30\n",
      "note_on channel=9 note=69 velocity=0 time=0\n",
      "note_on channel=9 note=39 velocity=127 time=0\n",
      "note_on channel=9 note=39 velocity=0 time=0\n",
      "note_on channel=9 note=69 velocity=127 time=30\n",
      "note_on channel=9 note=69 velocity=0 time=0\n",
      "note_on channel=9 note=69 velocity=61 time=30\n",
      "note_on channel=9 note=69 velocity=0 time=0\n",
      "note_on channel=9 note=36 velocity=127 time=0\n",
      "note_on channel=9 note=36 velocity=0 time=0\n",
      "note_on channel=9 note=69 velocity=61 time=30\n",
      "note_on channel=9 note=69 velocity=0 time=0\n",
      "note_on channel=9 note=39 velocity=127 time=0\n",
      "note_on channel=9 note=39 velocity=0 time=0\n",
      "note_on channel=9 note=69 velocity=127 time=30\n",
      "note_on channel=9 note=69 velocity=0 time=0\n",
      "note_on channel=9 note=69 velocity=127 time=30\n",
      "note_on channel=9 note=69 velocity=0 time=0\n",
      "note_on channel=9 note=69 velocity=61 time=30\n",
      "note_on channel=9 note=69 velocity=0 time=0\n",
      "note_on channel=9 note=36 velocity=127 time=0\n",
      "note_on channel=9 note=36 velocity=0 time=0\n",
      "note_on channel=9 note=39 velocity=127 time=0\n",
      "note_on channel=9 note=39 velocity=0 time=0\n",
      "note_on channel=9 note=69 velocity=61 time=30\n",
      "note_on channel=9 note=69 velocity=0 time=0\n",
      "note_on channel=9 note=69 velocity=127 time=30\n",
      "note_on channel=9 note=69 velocity=0 time=0\n",
      "note_on channel=9 note=69 velocity=127 time=30\n",
      "note_on channel=9 note=69 velocity=0 time=0\n",
      "note_on channel=9 note=39 velocity=127 time=0\n",
      "note_on channel=9 note=39 velocity=0 time=0\n",
      "note_on channel=9 note=69 velocity=61 time=30\n",
      "note_on channel=9 note=69 velocity=0 time=0\n",
      "note_on channel=9 note=36 velocity=127 time=0\n",
      "note_on channel=9 note=36 velocity=0 time=0\n",
      "note_on channel=9 note=69 velocity=61 time=30\n",
      "note_on channel=9 note=69 velocity=0 time=0\n",
      "note_on channel=9 note=69 velocity=127 time=30\n",
      "note_on channel=9 note=69 velocity=0 time=0\n",
      "note_on channel=9 note=39 velocity=127 time=0\n",
      "note_on channel=9 note=39 velocity=0 time=0\n",
      "note_on channel=9 note=69 velocity=127 time=30\n",
      "note_on channel=9 note=69 velocity=0 time=0\n",
      "note_on channel=9 note=69 velocity=61 time=30\n",
      "note_on channel=9 note=69 velocity=0 time=0\n",
      "note_on channel=9 note=38 velocity=127 time=0\n",
      "note_on channel=9 note=38 velocity=0 time=0\n",
      "note_on channel=9 note=36 velocity=127 time=0\n",
      "note_on channel=9 note=36 velocity=0 time=0\n",
      "note_on channel=9 note=69 velocity=61 time=30\n",
      "note_on channel=9 note=69 velocity=0 time=0\n",
      "note_on channel=9 note=38 velocity=127 time=0\n",
      "note_on channel=9 note=38 velocity=0 time=0\n",
      "note_on channel=9 note=69 velocity=127 time=30\n",
      "note_on channel=9 note=69 velocity=0 time=0\n",
      "note_on channel=9 note=38 velocity=127 time=0\n",
      "note_on channel=9 note=38 velocity=0 time=0\n",
      "note_on channel=9 note=39 velocity=127 time=0\n",
      "note_on channel=9 note=39 velocity=0 time=0\n",
      "note_on channel=9 note=69 velocity=127 time=30\n",
      "note_on channel=9 note=69 velocity=0 time=0\n",
      "note_on channel=9 note=38 velocity=127 time=0\n",
      "note_on channel=9 note=38 velocity=0 time=0\n",
      "note_on channel=9 note=69 velocity=61 time=30\n",
      "note_on channel=9 note=69 velocity=0 time=0\n",
      "note_on channel=9 note=38 velocity=127 time=0\n",
      "note_on channel=9 note=38 velocity=0 time=0\n",
      "note_on channel=9 note=36 velocity=127 time=0\n",
      "note_on channel=9 note=36 velocity=0 time=0\n",
      "note_on channel=9 note=69 velocity=61 time=30\n",
      "note_on channel=9 note=69 velocity=0 time=0\n",
      "note_on channel=9 note=39 velocity=127 time=0\n",
      "note_on channel=9 note=39 velocity=0 time=0\n",
      "note_on channel=9 note=69 velocity=127 time=30\n",
      "note_on channel=9 note=69 velocity=0 time=0\n",
      "note_on channel=9 note=48 velocity=113 time=30\n",
      "note_on channel=9 note=48 velocity=0 time=0\n",
      "note_on channel=9 note=69 velocity=127 time=0\n",
      "note_on channel=9 note=69 velocity=0 time=0\n",
      "note_on channel=9 note=39 velocity=127 time=0\n",
      "note_on channel=9 note=39 velocity=0 time=0\n",
      "note_on channel=9 note=48 velocity=113 time=30\n",
      "note_on channel=9 note=48 velocity=0 time=0\n",
      "note_on channel=9 note=69 velocity=61 time=0\n",
      "note_on channel=9 note=69 velocity=0 time=0\n",
      "note_on channel=9 note=36 velocity=127 time=0\n",
      "note_on channel=9 note=36 velocity=0 time=0\n",
      "note_on channel=9 note=39 velocity=127 time=0\n",
      "note_on channel=9 note=39 velocity=0 time=0\n",
      "note_on channel=9 note=48 velocity=113 time=30\n",
      "note_on channel=9 note=48 velocity=0 time=0\n",
      "note_on channel=9 note=69 velocity=61 time=0\n",
      "note_on channel=9 note=69 velocity=0 time=0\n",
      "note_on channel=9 note=48 velocity=113 time=30\n",
      "note_on channel=9 note=48 velocity=0 time=0\n",
      "note_on channel=9 note=69 velocity=127 time=0\n",
      "note_on channel=9 note=69 velocity=0 time=0\n",
      "note_on channel=9 note=39 velocity=127 time=0\n",
      "note_on channel=9 note=39 velocity=0 time=0\n",
      "note_on channel=9 note=48 velocity=113 time=30\n",
      "note_on channel=9 note=48 velocity=0 time=0\n",
      "note_on channel=9 note=69 velocity=127 time=0\n",
      "note_on channel=9 note=69 velocity=0 time=0\n",
      "note_on channel=9 note=48 velocity=113 time=30\n",
      "note_on channel=9 note=48 velocity=0 time=0\n",
      "note_on channel=9 note=69 velocity=61 time=0\n",
      "note_on channel=9 note=69 velocity=0 time=0\n",
      "note_on channel=9 note=36 velocity=127 time=0\n",
      "note_on channel=9 note=36 velocity=0 time=0\n",
      "note_on channel=9 note=39 velocity=127 time=0\n",
      "note_on channel=9 note=39 velocity=0 time=0\n",
      "note_on channel=9 note=45 velocity=113 time=30\n",
      "note_on channel=9 note=45 velocity=0 time=0\n",
      "note_on channel=9 note=69 velocity=61 time=0\n",
      "note_on channel=9 note=69 velocity=0 time=0\n",
      "note_on channel=9 note=39 velocity=127 time=0\n",
      "note_on channel=9 note=39 velocity=0 time=0\n",
      "note_on channel=9 note=69 velocity=127 time=30\n",
      "note_on channel=9 note=69 velocity=0 time=0\n",
      "note_on channel=9 note=41 velocity=113 time=0\n",
      "note_on channel=9 note=41 velocity=0 time=0\n",
      "note_on channel=9 note=69 velocity=127 time=30\n",
      "note_on channel=9 note=69 velocity=0 time=0\n",
      "note_on channel=9 note=69 velocity=61 time=30\n",
      "note_on channel=9 note=69 velocity=0 time=0\n",
      "note_on channel=9 note=36 velocity=127 time=0\n",
      "note_on channel=9 note=36 velocity=0 time=0\n",
      "note_on channel=9 note=42 velocity=77 time=0\n",
      "note_on channel=9 note=42 velocity=0 time=0\n",
      "note_on channel=9 note=49 velocity=85 time=0\n",
      "note_on channel=9 note=49 velocity=0 time=0\n",
      "note_on channel=9 note=69 velocity=61 time=30\n",
      "note_on channel=9 note=69 velocity=0 time=0\n",
      "note_on channel=9 note=69 velocity=127 time=30\n",
      "note_on channel=9 note=69 velocity=0 time=0\n",
      "note_on channel=9 note=42 velocity=77 time=0\n",
      "note_on channel=9 note=42 velocity=0 time=0\n",
      "note_on channel=9 note=69 velocity=127 time=30\n",
      "note_on channel=9 note=69 velocity=0 time=0\n",
      "note_on channel=9 note=69 velocity=61 time=30\n",
      "note_on channel=9 note=69 velocity=0 time=0\n",
      "note_on channel=9 note=38 velocity=127 time=0\n",
      "note_on channel=9 note=38 velocity=0 time=0\n",
      "note_on channel=9 note=36 velocity=127 time=0\n",
      "note_on channel=9 note=36 velocity=0 time=0\n",
      "note_on channel=9 note=42 velocity=127 time=0\n",
      "note_on channel=9 note=42 velocity=0 time=0\n",
      "note_on channel=9 note=69 velocity=61 time=30\n",
      "note_on channel=9 note=69 velocity=0 time=0\n",
      "note_on channel=9 note=69 velocity=127 time=30\n",
      "note_on channel=9 note=69 velocity=0 time=0\n",
      "note_on channel=9 note=42 velocity=77 time=0\n",
      "note_on channel=9 note=42 velocity=0 time=0\n",
      "note_on channel=9 note=69 velocity=127 time=30\n",
      "note_on channel=9 note=69 velocity=0 time=0\n",
      "note_on channel=9 note=69 velocity=61 time=30\n",
      "note_on channel=9 note=69 velocity=0 time=0\n",
      "note_on channel=9 note=36 velocity=127 time=0\n",
      "note_on channel=9 note=36 velocity=0 time=0\n",
      "note_on channel=9 note=42 velocity=77 time=0\n",
      "note_on channel=9 note=42 velocity=0 time=0\n",
      "note_on channel=9 note=69 velocity=61 time=30\n",
      "note_on channel=9 note=69 velocity=0 time=0\n",
      "note_on channel=9 note=69 velocity=127 time=30\n",
      "note_on channel=9 note=69 velocity=0 time=0\n",
      "note_on channel=9 note=42 velocity=77 time=0\n",
      "note_on channel=9 note=42 velocity=0 time=0\n",
      "note_on channel=9 note=69 velocity=127 time=30\n",
      "note_on channel=9 note=69 velocity=0 time=0\n",
      "note_on channel=9 note=69 velocity=61 time=30\n",
      "note_on channel=9 note=69 velocity=0 time=0\n",
      "note_on channel=9 note=38 velocity=127 time=0\n",
      "note_on channel=9 note=38 velocity=0 time=0\n",
      "note_on channel=9 note=36 velocity=127 time=0\n",
      "note_on channel=9 note=36 velocity=0 time=0\n",
      "note_on channel=9 note=42 velocity=127 time=0\n",
      "note_on channel=9 note=42 velocity=0 time=0\n",
      "note_on channel=9 note=69 velocity=61 time=30\n",
      "note_on channel=9 note=69 velocity=0 time=0\n",
      "note_on channel=9 note=69 velocity=127 time=30\n",
      "note_on channel=9 note=69 velocity=0 time=0\n",
      "note_on channel=9 note=42 velocity=77 time=0\n",
      "note_on channel=9 note=42 velocity=0 time=0\n",
      "note_on channel=9 note=69 velocity=127 time=30\n",
      "note_on channel=9 note=69 velocity=0 time=0\n",
      "note_on channel=9 note=69 velocity=61 time=30\n",
      "note_on channel=9 note=69 velocity=0 time=0\n",
      "note_on channel=9 note=36 velocity=127 time=0\n",
      "note_on channel=9 note=36 velocity=0 time=0\n",
      "note_on channel=9 note=42 velocity=77 time=0\n",
      "note_on channel=9 note=42 velocity=0 time=0\n",
      "note_on channel=9 note=69 velocity=61 time=30\n",
      "note_on channel=9 note=69 velocity=0 time=0\n",
      "note_on channel=9 note=69 velocity=127 time=30\n",
      "note_on channel=9 note=69 velocity=0 time=0\n",
      "note_on channel=9 note=42 velocity=77 time=0\n",
      "note_on channel=9 note=42 velocity=0 time=0\n",
      "note_on channel=9 note=69 velocity=127 time=30\n",
      "note_on channel=9 note=69 velocity=0 time=0\n",
      "note_on channel=9 note=69 velocity=61 time=30\n",
      "note_on channel=9 note=69 velocity=0 time=0\n",
      "note_on channel=9 note=38 velocity=127 time=0\n",
      "note_on channel=9 note=38 velocity=0 time=0\n",
      "note_on channel=9 note=36 velocity=127 time=0\n",
      "note_on channel=9 note=36 velocity=0 time=0\n",
      "note_on channel=9 note=42 velocity=127 time=0\n",
      "note_on channel=9 note=42 velocity=0 time=0\n",
      "note_on channel=9 note=69 velocity=61 time=30\n",
      "note_on channel=9 note=69 velocity=0 time=0\n",
      "note_on channel=9 note=69 velocity=127 time=30\n",
      "note_on channel=9 note=69 velocity=0 time=0\n",
      "note_on channel=9 note=42 velocity=77 time=0\n",
      "note_on channel=9 note=42 velocity=0 time=0\n",
      "note_on channel=9 note=69 velocity=127 time=30\n",
      "note_on channel=9 note=69 velocity=0 time=0\n",
      "note_on channel=9 note=69 velocity=61 time=30\n",
      "note_on channel=9 note=69 velocity=0 time=0\n",
      "note_on channel=9 note=36 velocity=127 time=0\n",
      "note_on channel=9 note=36 velocity=0 time=0\n",
      "note_on channel=9 note=42 velocity=77 time=0\n",
      "note_on channel=9 note=42 velocity=0 time=0\n",
      "note_on channel=9 note=69 velocity=61 time=30\n",
      "note_on channel=9 note=69 velocity=0 time=0\n",
      "note_on channel=9 note=69 velocity=127 time=30\n",
      "note_on channel=9 note=69 velocity=0 time=0\n",
      "note_on channel=9 note=42 velocity=77 time=0\n",
      "note_on channel=9 note=42 velocity=0 time=0\n",
      "note_on channel=9 note=69 velocity=127 time=30\n",
      "note_on channel=9 note=69 velocity=0 time=0\n",
      "note_on channel=9 note=69 velocity=61 time=30\n",
      "note_on channel=9 note=69 velocity=0 time=0\n",
      "note_on channel=9 note=38 velocity=127 time=0\n",
      "note_on channel=9 note=38 velocity=0 time=0\n",
      "note_on channel=9 note=36 velocity=127 time=0\n",
      "note_on channel=9 note=36 velocity=0 time=0\n",
      "note_on channel=9 note=42 velocity=127 time=0\n",
      "note_on channel=9 note=42 velocity=0 time=0\n",
      "note_on channel=9 note=69 velocity=61 time=30\n",
      "note_on channel=9 note=69 velocity=0 time=0\n",
      "note_on channel=9 note=69 velocity=127 time=30\n",
      "note_on channel=9 note=69 velocity=0 time=0\n",
      "note_on channel=9 note=42 velocity=77 time=0\n",
      "note_on channel=9 note=42 velocity=0 time=0\n",
      "note_on channel=9 note=69 velocity=127 time=30\n",
      "note_on channel=9 note=69 velocity=0 time=0\n",
      "note_on channel=9 note=69 velocity=61 time=30\n",
      "note_on channel=9 note=69 velocity=0 time=0\n",
      "note_on channel=9 note=36 velocity=127 time=0\n",
      "note_on channel=9 note=36 velocity=0 time=0\n",
      "note_on channel=9 note=36 velocity=127 time=0\n",
      "note_on channel=9 note=36 velocity=0 time=0\n",
      "note_on channel=9 note=42 velocity=77 time=0\n",
      "note_on channel=9 note=42 velocity=0 time=0\n",
      "note_on channel=9 note=69 velocity=61 time=30\n",
      "note_on channel=9 note=69 velocity=0 time=0\n",
      "note_on channel=9 note=69 velocity=127 time=30\n",
      "note_on channel=9 note=69 velocity=0 time=0\n",
      "note_on channel=9 note=42 velocity=77 time=0\n",
      "note_on channel=9 note=42 velocity=0 time=0\n",
      "note_on channel=9 note=69 velocity=127 time=30\n",
      "note_on channel=9 note=69 velocity=0 time=0\n",
      "note_on channel=9 note=69 velocity=61 time=30\n",
      "note_on channel=9 note=69 velocity=0 time=0\n",
      "note_on channel=9 note=38 velocity=127 time=0\n",
      "note_on channel=9 note=38 velocity=0 time=0\n",
      "note_on channel=9 note=36 velocity=127 time=0\n",
      "note_on channel=9 note=36 velocity=0 time=0\n",
      "note_on channel=9 note=42 velocity=127 time=0\n",
      "note_on channel=9 note=42 velocity=0 time=0\n",
      "note_on channel=9 note=69 velocity=61 time=30\n",
      "note_on channel=9 note=69 velocity=0 time=0\n",
      "note_on channel=9 note=69 velocity=127 time=30\n",
      "note_on channel=9 note=69 velocity=0 time=0\n",
      "note_on channel=9 note=42 velocity=77 time=0\n",
      "note_on channel=9 note=42 velocity=0 time=0\n",
      "note_on channel=9 note=69 velocity=127 time=30\n",
      "note_on channel=9 note=69 velocity=0 time=0\n",
      "note_on channel=9 note=69 velocity=61 time=30\n",
      "note_on channel=9 note=69 velocity=0 time=0\n",
      "note_on channel=9 note=36 velocity=127 time=0\n",
      "note_on channel=9 note=36 velocity=0 time=0\n",
      "note_on channel=9 note=42 velocity=77 time=0\n",
      "note_on channel=9 note=42 velocity=0 time=0\n",
      "note_on channel=9 note=69 velocity=61 time=30\n",
      "note_on channel=9 note=69 velocity=0 time=0\n",
      "note_on channel=9 note=69 velocity=127 time=30\n",
      "note_on channel=9 note=69 velocity=0 time=0\n",
      "note_on channel=9 note=42 velocity=77 time=0\n",
      "note_on channel=9 note=42 velocity=0 time=0\n",
      "note_on channel=9 note=69 velocity=127 time=30\n",
      "note_on channel=9 note=69 velocity=0 time=0\n",
      "note_on channel=9 note=69 velocity=61 time=30\n",
      "note_on channel=9 note=69 velocity=0 time=0\n",
      "note_on channel=9 note=38 velocity=127 time=0\n",
      "note_on channel=9 note=38 velocity=0 time=0\n",
      "note_on channel=9 note=36 velocity=127 time=0\n",
      "note_on channel=9 note=36 velocity=0 time=0\n",
      "note_on channel=9 note=42 velocity=127 time=0\n",
      "note_on channel=9 note=42 velocity=0 time=0\n",
      "note_on channel=9 note=69 velocity=61 time=30\n",
      "note_on channel=9 note=69 velocity=0 time=0\n",
      "note_on channel=9 note=69 velocity=127 time=30\n",
      "note_on channel=9 note=69 velocity=0 time=0\n",
      "note_on channel=9 note=42 velocity=77 time=0\n",
      "note_on channel=9 note=42 velocity=0 time=0\n",
      "note_on channel=9 note=69 velocity=127 time=30\n",
      "note_on channel=9 note=69 velocity=0 time=0\n",
      "note_on channel=9 note=69 velocity=61 time=30\n",
      "note_on channel=9 note=69 velocity=0 time=0\n",
      "note_on channel=9 note=36 velocity=127 time=0\n",
      "note_on channel=9 note=36 velocity=0 time=0\n",
      "note_on channel=9 note=42 velocity=77 time=0\n",
      "note_on channel=9 note=42 velocity=0 time=0\n",
      "note_on channel=9 note=69 velocity=61 time=30\n",
      "note_on channel=9 note=69 velocity=0 time=0\n",
      "note_on channel=9 note=69 velocity=127 time=30\n",
      "note_on channel=9 note=69 velocity=0 time=0\n",
      "note_on channel=9 note=42 velocity=77 time=0\n",
      "note_on channel=9 note=42 velocity=0 time=0\n",
      "note_on channel=9 note=69 velocity=127 time=30\n",
      "note_on channel=9 note=69 velocity=0 time=0\n",
      "note_on channel=9 note=69 velocity=61 time=30\n",
      "note_on channel=9 note=69 velocity=0 time=0\n",
      "note_on channel=9 note=38 velocity=127 time=0\n",
      "note_on channel=9 note=38 velocity=0 time=0\n",
      "note_on channel=9 note=36 velocity=127 time=0\n",
      "note_on channel=9 note=36 velocity=0 time=0\n",
      "note_on channel=9 note=42 velocity=127 time=0\n",
      "note_on channel=9 note=42 velocity=0 time=0\n",
      "note_on channel=9 note=69 velocity=61 time=30\n",
      "note_on channel=9 note=69 velocity=0 time=0\n",
      "note_on channel=9 note=69 velocity=127 time=30\n",
      "note_on channel=9 note=69 velocity=0 time=0\n",
      "note_on channel=9 note=42 velocity=77 time=0\n",
      "note_on channel=9 note=42 velocity=0 time=0\n",
      "note_on channel=9 note=69 velocity=127 time=30\n",
      "note_on channel=9 note=69 velocity=0 time=0\n",
      "note_on channel=9 note=69 velocity=61 time=30\n",
      "note_on channel=9 note=69 velocity=0 time=0\n",
      "note_on channel=9 note=36 velocity=127 time=0\n",
      "note_on channel=9 note=36 velocity=0 time=0\n",
      "note_on channel=9 note=42 velocity=77 time=0\n",
      "note_on channel=9 note=42 velocity=0 time=0\n",
      "note_on channel=9 note=69 velocity=61 time=30\n",
      "note_on channel=9 note=69 velocity=0 time=0\n",
      "note_on channel=9 note=69 velocity=127 time=30\n",
      "note_on channel=9 note=69 velocity=0 time=0\n",
      "note_on channel=9 note=38 velocity=127 time=0\n",
      "note_on channel=9 note=38 velocity=0 time=0\n",
      "note_on channel=9 note=42 velocity=77 time=0\n",
      "note_on channel=9 note=42 velocity=0 time=0\n",
      "note_on channel=9 note=69 velocity=127 time=30\n",
      "note_on channel=9 note=69 velocity=0 time=0\n",
      "note_on channel=9 note=69 velocity=61 time=30\n",
      "note_on channel=9 note=69 velocity=0 time=0\n",
      "note_on channel=9 note=38 velocity=127 time=0\n",
      "note_on channel=9 note=38 velocity=0 time=0\n",
      "note_on channel=9 note=36 velocity=127 time=0\n",
      "note_on channel=9 note=36 velocity=0 time=0\n",
      "note_on channel=9 note=42 velocity=127 time=0\n",
      "note_on channel=9 note=42 velocity=0 time=0\n",
      "note_on channel=9 note=69 velocity=61 time=30\n",
      "note_on channel=9 note=69 velocity=0 time=0\n",
      "note_on channel=9 note=69 velocity=127 time=30\n",
      "note_on channel=9 note=69 velocity=0 time=0\n",
      "note_on channel=9 note=38 velocity=127 time=0\n",
      "note_on channel=9 note=38 velocity=0 time=0\n",
      "note_on channel=9 note=42 velocity=77 time=0\n",
      "note_on channel=9 note=42 velocity=0 time=0\n",
      "note_on channel=9 note=69 velocity=127 time=30\n",
      "note_on channel=9 note=69 velocity=0 time=0\n",
      "note_on channel=9 note=38 velocity=127 time=0\n",
      "note_on channel=9 note=38 velocity=0 time=0\n",
      "note_on channel=9 note=69 velocity=61 time=30\n",
      "note_on channel=9 note=69 velocity=0 time=0\n",
      "note_on channel=9 note=36 velocity=127 time=0\n",
      "note_on channel=9 note=36 velocity=0 time=0\n",
      "note_on channel=9 note=42 velocity=77 time=0\n",
      "note_on channel=9 note=42 velocity=0 time=0\n",
      "note_on channel=9 note=49 velocity=85 time=0\n",
      "note_on channel=9 note=49 velocity=0 time=0\n",
      "note_on channel=9 note=69 velocity=61 time=30\n",
      "note_on channel=9 note=69 velocity=0 time=0\n",
      "note_on channel=9 note=69 velocity=127 time=30\n",
      "note_on channel=9 note=69 velocity=0 time=0\n",
      "note_on channel=9 note=42 velocity=77 time=0\n",
      "note_on channel=9 note=42 velocity=0 time=0\n",
      "note_on channel=9 note=69 velocity=127 time=30\n",
      "note_on channel=9 note=69 velocity=0 time=0\n",
      "note_on channel=9 note=69 velocity=61 time=30\n",
      "note_on channel=9 note=69 velocity=0 time=0\n",
      "note_on channel=9 note=38 velocity=127 time=0\n",
      "note_on channel=9 note=38 velocity=0 time=0\n",
      "note_on channel=9 note=36 velocity=127 time=0\n",
      "note_on channel=9 note=36 velocity=0 time=0\n",
      "note_on channel=9 note=42 velocity=127 time=0\n",
      "note_on channel=9 note=42 velocity=0 time=0\n",
      "note_on channel=9 note=69 velocity=61 time=30\n",
      "note_on channel=9 note=69 velocity=0 time=0\n",
      "note_on channel=9 note=69 velocity=127 time=30\n",
      "note_on channel=9 note=69 velocity=0 time=0\n",
      "note_on channel=9 note=42 velocity=77 time=0\n",
      "note_on channel=9 note=42 velocity=0 time=0\n",
      "note_on channel=9 note=69 velocity=127 time=30\n",
      "note_on channel=9 note=69 velocity=0 time=0\n",
      "note_on channel=9 note=69 velocity=61 time=30\n",
      "note_on channel=9 note=69 velocity=0 time=0\n",
      "note_on channel=9 note=36 velocity=127 time=0\n",
      "note_on channel=9 note=36 velocity=0 time=0\n",
      "note_on channel=9 note=42 velocity=77 time=0\n",
      "note_on channel=9 note=42 velocity=0 time=0\n",
      "note_on channel=9 note=69 velocity=61 time=30\n",
      "note_on channel=9 note=69 velocity=0 time=0\n",
      "note_on channel=9 note=69 velocity=127 time=30\n",
      "note_on channel=9 note=69 velocity=0 time=0\n",
      "note_on channel=9 note=42 velocity=77 time=0\n",
      "note_on channel=9 note=42 velocity=0 time=0\n",
      "note_on channel=9 note=69 velocity=127 time=30\n",
      "note_on channel=9 note=69 velocity=0 time=0\n",
      "note_on channel=9 note=69 velocity=61 time=30\n",
      "note_on channel=9 note=69 velocity=0 time=0\n",
      "note_on channel=9 note=38 velocity=127 time=0\n",
      "note_on channel=9 note=38 velocity=0 time=0\n",
      "note_on channel=9 note=36 velocity=127 time=0\n",
      "note_on channel=9 note=36 velocity=0 time=0\n",
      "note_on channel=9 note=42 velocity=127 time=0\n",
      "note_on channel=9 note=42 velocity=0 time=0\n",
      "note_on channel=9 note=69 velocity=61 time=30\n",
      "note_on channel=9 note=69 velocity=0 time=0\n",
      "note_on channel=9 note=69 velocity=127 time=30\n",
      "note_on channel=9 note=69 velocity=0 time=0\n",
      "note_on channel=9 note=42 velocity=77 time=0\n",
      "note_on channel=9 note=42 velocity=0 time=0\n",
      "note_on channel=9 note=69 velocity=127 time=30\n",
      "note_on channel=9 note=69 velocity=0 time=0\n",
      "note_on channel=9 note=69 velocity=61 time=30\n",
      "note_on channel=9 note=69 velocity=0 time=0\n",
      "note_on channel=9 note=36 velocity=127 time=0\n",
      "note_on channel=9 note=36 velocity=0 time=0\n",
      "note_on channel=9 note=42 velocity=77 time=0\n",
      "note_on channel=9 note=42 velocity=0 time=0\n",
      "note_on channel=9 note=69 velocity=61 time=30\n",
      "note_on channel=9 note=69 velocity=0 time=0\n",
      "note_on channel=9 note=69 velocity=127 time=30\n",
      "note_on channel=9 note=69 velocity=0 time=0\n",
      "note_on channel=9 note=42 velocity=77 time=0\n",
      "note_on channel=9 note=42 velocity=0 time=0\n",
      "note_on channel=9 note=69 velocity=127 time=30\n",
      "note_on channel=9 note=69 velocity=0 time=0\n",
      "note_on channel=9 note=69 velocity=61 time=30\n",
      "note_on channel=9 note=69 velocity=0 time=0\n",
      "note_on channel=9 note=38 velocity=127 time=0\n",
      "note_on channel=9 note=38 velocity=0 time=0\n",
      "note_on channel=9 note=36 velocity=127 time=0\n",
      "note_on channel=9 note=36 velocity=0 time=0\n",
      "note_on channel=9 note=42 velocity=127 time=0\n",
      "note_on channel=9 note=42 velocity=0 time=5\n",
      "note_on channel=9 note=69 velocity=61 time=25\n",
      "note_on channel=9 note=69 velocity=0 time=0\n",
      "note_on channel=9 note=69 velocity=127 time=30\n",
      "note_on channel=9 note=69 velocity=0 time=0\n",
      "note_on channel=9 note=42 velocity=77 time=0\n",
      "note_on channel=9 note=42 velocity=0 time=0\n",
      "note_on channel=9 note=69 velocity=127 time=30\n",
      "note_on channel=9 note=69 velocity=0 time=0\n",
      "note_on channel=9 note=69 velocity=61 time=30\n",
      "note_on channel=9 note=69 velocity=0 time=0\n",
      "note_on channel=9 note=36 velocity=127 time=0\n",
      "note_on channel=9 note=36 velocity=0 time=0\n",
      "note_on channel=9 note=42 velocity=77 time=0\n",
      "note_on channel=9 note=42 velocity=0 time=0\n",
      "note_on channel=9 note=69 velocity=61 time=30\n",
      "note_on channel=9 note=69 velocity=0 time=0\n",
      "note_on channel=9 note=69 velocity=127 time=30\n",
      "note_on channel=9 note=69 velocity=0 time=0\n",
      "note_on channel=9 note=42 velocity=77 time=0\n",
      "note_on channel=9 note=42 velocity=0 time=0\n",
      "note_on channel=9 note=69 velocity=127 time=30\n",
      "note_on channel=9 note=69 velocity=0 time=0\n",
      "note_on channel=9 note=69 velocity=61 time=30\n",
      "note_on channel=9 note=69 velocity=0 time=0\n",
      "note_on channel=9 note=38 velocity=127 time=0\n",
      "note_on channel=9 note=38 velocity=0 time=0\n",
      "note_on channel=9 note=36 velocity=127 time=0\n",
      "note_on channel=9 note=36 velocity=0 time=0\n",
      "note_on channel=9 note=42 velocity=127 time=0\n",
      "note_on channel=9 note=42 velocity=0 time=0\n",
      "note_on channel=9 note=69 velocity=61 time=30\n",
      "note_on channel=9 note=69 velocity=0 time=0\n",
      "note_on channel=9 note=69 velocity=127 time=30\n",
      "note_on channel=9 note=69 velocity=0 time=0\n",
      "note_on channel=9 note=42 velocity=77 time=0\n",
      "note_on channel=9 note=42 velocity=0 time=0\n",
      "note_on channel=9 note=69 velocity=127 time=30\n",
      "note_on channel=9 note=69 velocity=0 time=0\n",
      "note_on channel=9 note=69 velocity=61 time=30\n",
      "note_on channel=9 note=69 velocity=0 time=0\n",
      "note_on channel=9 note=36 velocity=127 time=0\n",
      "note_on channel=9 note=36 velocity=0 time=0\n",
      "note_on channel=9 note=42 velocity=77 time=0\n",
      "note_on channel=9 note=42 velocity=0 time=0\n",
      "note_on channel=9 note=69 velocity=61 time=30\n",
      "note_on channel=9 note=69 velocity=0 time=0\n",
      "note_on channel=9 note=69 velocity=127 time=30\n",
      "note_on channel=9 note=69 velocity=0 time=0\n",
      "note_on channel=9 note=42 velocity=77 time=0\n",
      "note_on channel=9 note=42 velocity=0 time=0\n",
      "note_on channel=9 note=69 velocity=127 time=30\n",
      "note_on channel=9 note=69 velocity=0 time=0\n",
      "note_on channel=9 note=69 velocity=61 time=30\n",
      "note_on channel=9 note=69 velocity=0 time=0\n",
      "note_on channel=9 note=38 velocity=127 time=0\n",
      "note_on channel=9 note=38 velocity=0 time=0\n",
      "note_on channel=9 note=36 velocity=127 time=0\n",
      "note_on channel=9 note=36 velocity=0 time=0\n",
      "note_on channel=9 note=42 velocity=127 time=0\n",
      "note_on channel=9 note=42 velocity=0 time=5\n",
      "note_on channel=9 note=69 velocity=61 time=25\n",
      "note_on channel=9 note=69 velocity=0 time=0\n",
      "note_on channel=9 note=69 velocity=127 time=30\n",
      "note_on channel=9 note=69 velocity=0 time=0\n",
      "note_on channel=9 note=42 velocity=77 time=0\n",
      "note_on channel=9 note=42 velocity=0 time=0\n",
      "note_on channel=9 note=69 velocity=127 time=30\n",
      "note_on channel=9 note=69 velocity=0 time=0\n",
      "note_on channel=9 note=69 velocity=61 time=30\n",
      "note_on channel=9 note=69 velocity=0 time=0\n",
      "note_on channel=9 note=36 velocity=127 time=0\n",
      "note_on channel=9 note=36 velocity=0 time=0\n",
      "note_on channel=9 note=42 velocity=77 time=0\n",
      "note_on channel=9 note=42 velocity=0 time=0\n",
      "note_on channel=9 note=69 velocity=61 time=30\n",
      "note_on channel=9 note=69 velocity=0 time=0\n",
      "note_on channel=9 note=69 velocity=127 time=30\n",
      "note_on channel=9 note=69 velocity=0 time=0\n",
      "note_on channel=9 note=42 velocity=77 time=0\n",
      "note_on channel=9 note=42 velocity=0 time=0\n",
      "note_on channel=9 note=69 velocity=127 time=30\n",
      "note_on channel=9 note=69 velocity=0 time=0\n",
      "note_on channel=9 note=69 velocity=61 time=30\n",
      "note_on channel=9 note=69 velocity=0 time=0\n",
      "note_on channel=9 note=38 velocity=127 time=0\n",
      "note_on channel=9 note=38 velocity=0 time=0\n",
      "note_on channel=9 note=36 velocity=127 time=0\n",
      "note_on channel=9 note=36 velocity=0 time=0\n",
      "note_on channel=9 note=42 velocity=127 time=0\n",
      "note_on channel=9 note=42 velocity=0 time=0\n",
      "note_on channel=9 note=69 velocity=61 time=30\n",
      "note_on channel=9 note=69 velocity=0 time=0\n",
      "note_on channel=9 note=69 velocity=127 time=30\n",
      "note_on channel=9 note=69 velocity=0 time=0\n",
      "note_on channel=9 note=42 velocity=77 time=0\n",
      "note_on channel=9 note=42 velocity=0 time=0\n",
      "note_on channel=9 note=69 velocity=127 time=30\n",
      "note_on channel=9 note=69 velocity=0 time=0\n",
      "note_on channel=9 note=69 velocity=61 time=30\n",
      "note_on channel=9 note=69 velocity=0 time=0\n",
      "note_on channel=9 note=36 velocity=127 time=0\n",
      "note_on channel=9 note=36 velocity=0 time=0\n",
      "note_on channel=9 note=42 velocity=77 time=0\n",
      "note_on channel=9 note=42 velocity=0 time=0\n",
      "note_on channel=9 note=69 velocity=61 time=30\n",
      "note_on channel=9 note=69 velocity=0 time=0\n",
      "note_on channel=9 note=69 velocity=127 time=30\n",
      "note_on channel=9 note=69 velocity=0 time=0\n",
      "note_on channel=9 note=42 velocity=77 time=0\n",
      "note_on channel=9 note=42 velocity=0 time=0\n",
      "note_on channel=9 note=69 velocity=127 time=30\n",
      "note_on channel=9 note=69 velocity=0 time=0\n",
      "note_on channel=9 note=69 velocity=61 time=30\n",
      "note_on channel=9 note=69 velocity=0 time=0\n",
      "note_on channel=9 note=38 velocity=127 time=0\n",
      "note_on channel=9 note=38 velocity=0 time=0\n",
      "note_on channel=9 note=36 velocity=127 time=0\n",
      "note_on channel=9 note=36 velocity=0 time=0\n",
      "note_on channel=9 note=42 velocity=127 time=0\n",
      "note_on channel=9 note=42 velocity=0 time=0\n",
      "note_on channel=9 note=69 velocity=61 time=30\n",
      "note_on channel=9 note=69 velocity=0 time=0\n",
      "note_on channel=9 note=69 velocity=127 time=30\n",
      "note_on channel=9 note=69 velocity=0 time=0\n",
      "note_on channel=9 note=42 velocity=77 time=0\n",
      "note_on channel=9 note=42 velocity=0 time=0\n",
      "note_on channel=9 note=69 velocity=127 time=30\n",
      "note_on channel=9 note=69 velocity=0 time=0\n",
      "note_on channel=9 note=69 velocity=61 time=30\n",
      "note_on channel=9 note=69 velocity=0 time=0\n",
      "note_on channel=9 note=36 velocity=127 time=0\n",
      "note_on channel=9 note=36 velocity=0 time=0\n",
      "note_on channel=9 note=42 velocity=77 time=0\n",
      "note_on channel=9 note=42 velocity=0 time=0\n",
      "note_on channel=9 note=69 velocity=61 time=30\n",
      "note_on channel=9 note=69 velocity=0 time=0\n",
      "note_on channel=9 note=69 velocity=127 time=30\n",
      "note_on channel=9 note=69 velocity=0 time=0\n",
      "note_on channel=9 note=38 velocity=127 time=0\n",
      "note_on channel=9 note=38 velocity=0 time=0\n",
      "note_on channel=9 note=42 velocity=77 time=0\n",
      "note_on channel=9 note=42 velocity=0 time=0\n",
      "note_on channel=9 note=69 velocity=127 time=30\n",
      "note_on channel=9 note=69 velocity=0 time=0\n",
      "note_on channel=9 note=38 velocity=127 time=0\n",
      "note_on channel=9 note=38 velocity=0 time=0\n",
      "note_on channel=9 note=69 velocity=61 time=30\n",
      "note_on channel=9 note=69 velocity=0 time=0\n",
      "note_on channel=9 note=38 velocity=127 time=0\n",
      "note_on channel=9 note=38 velocity=0 time=0\n",
      "note_on channel=9 note=36 velocity=127 time=0\n",
      "note_on channel=9 note=36 velocity=0 time=0\n",
      "note_on channel=9 note=42 velocity=77 time=0\n",
      "note_on channel=9 note=42 velocity=0 time=0\n",
      "note_on channel=9 note=69 velocity=61 time=30\n",
      "note_on channel=9 note=69 velocity=0 time=0\n",
      "note_on channel=9 note=41 velocity=113 time=0\n",
      "note_on channel=9 note=41 velocity=0 time=0\n",
      "note_on channel=9 note=69 velocity=127 time=30\n",
      "note_on channel=9 note=69 velocity=0 time=0\n",
      "note_on channel=9 note=42 velocity=77 time=0\n",
      "note_on channel=9 note=42 velocity=0 time=0\n",
      "note_on channel=9 note=69 velocity=127 time=30\n",
      "note_on channel=9 note=69 velocity=0 time=0\n",
      "note_on channel=9 note=69 velocity=61 time=30\n",
      "note_on channel=9 note=69 velocity=0 time=0\n",
      "note_on channel=9 note=36 velocity=127 time=0\n",
      "note_on channel=9 note=36 velocity=0 time=0\n",
      "note_on channel=9 note=42 velocity=77 time=0\n",
      "note_on channel=9 note=42 velocity=0 time=0\n",
      "note_on channel=9 note=49 velocity=85 time=5\n",
      "note_on channel=9 note=49 velocity=0 time=0\n",
      "note_on channel=9 note=69 velocity=61 time=25\n",
      "note_on channel=9 note=69 velocity=0 time=0\n",
      "note_on channel=9 note=69 velocity=127 time=30\n",
      "note_on channel=9 note=69 velocity=0 time=0\n",
      "note_on channel=9 note=42 velocity=77 time=0\n",
      "note_on channel=9 note=42 velocity=0 time=0\n",
      "note_on channel=9 note=69 velocity=127 time=30\n",
      "note_on channel=9 note=69 velocity=0 time=0\n",
      "note_on channel=9 note=69 velocity=61 time=30\n",
      "note_on channel=9 note=69 velocity=0 time=0\n",
      "note_on channel=9 note=38 velocity=127 time=0\n",
      "note_on channel=9 note=38 velocity=0 time=0\n",
      "note_on channel=9 note=36 velocity=127 time=0\n",
      "note_on channel=9 note=36 velocity=0 time=0\n",
      "note_on channel=9 note=42 velocity=127 time=0\n",
      "note_on channel=9 note=42 velocity=0 time=5\n",
      "note_on channel=9 note=69 velocity=61 time=25\n",
      "note_on channel=9 note=69 velocity=0 time=0\n",
      "note_on channel=9 note=69 velocity=127 time=30\n",
      "note_on channel=9 note=69 velocity=0 time=0\n",
      "note_on channel=9 note=42 velocity=77 time=0\n",
      "note_on channel=9 note=42 velocity=0 time=0\n",
      "note_on channel=9 note=69 velocity=127 time=30\n",
      "note_on channel=9 note=69 velocity=0 time=0\n",
      "note_on channel=9 note=69 velocity=61 time=30\n",
      "note_on channel=9 note=69 velocity=0 time=0\n",
      "note_on channel=9 note=36 velocity=127 time=0\n",
      "note_on channel=9 note=36 velocity=0 time=0\n",
      "note_on channel=9 note=42 velocity=77 time=0\n",
      "note_on channel=9 note=42 velocity=0 time=0\n",
      "note_on channel=9 note=69 velocity=61 time=30\n",
      "note_on channel=9 note=69 velocity=0 time=0\n",
      "note_on channel=9 note=69 velocity=127 time=30\n",
      "note_on channel=9 note=69 velocity=0 time=0\n",
      "note_on channel=9 note=42 velocity=77 time=0\n",
      "note_on channel=9 note=42 velocity=0 time=0\n",
      "note_on channel=9 note=69 velocity=127 time=30\n",
      "note_on channel=9 note=69 velocity=0 time=0\n",
      "note_on channel=9 note=69 velocity=61 time=30\n",
      "note_on channel=9 note=69 velocity=0 time=0\n",
      "note_on channel=9 note=38 velocity=127 time=0\n",
      "note_on channel=9 note=38 velocity=0 time=0\n",
      "note_on channel=9 note=36 velocity=127 time=0\n",
      "note_on channel=9 note=36 velocity=0 time=0\n",
      "note_on channel=9 note=42 velocity=127 time=0\n",
      "note_on channel=9 note=42 velocity=0 time=0\n",
      "note_on channel=9 note=69 velocity=61 time=30\n",
      "note_on channel=9 note=69 velocity=0 time=0\n",
      "note_on channel=9 note=69 velocity=127 time=30\n",
      "note_on channel=9 note=69 velocity=0 time=0\n",
      "note_on channel=9 note=42 velocity=77 time=0\n",
      "note_on channel=9 note=42 velocity=0 time=0\n",
      "note_on channel=9 note=69 velocity=127 time=30\n",
      "note_on channel=9 note=69 velocity=0 time=0\n",
      "note_on channel=9 note=69 velocity=61 time=30\n",
      "note_on channel=9 note=69 velocity=0 time=0\n",
      "note_on channel=9 note=36 velocity=127 time=0\n",
      "note_on channel=9 note=36 velocity=0 time=0\n",
      "note_on channel=9 note=42 velocity=77 time=0\n",
      "note_on channel=9 note=42 velocity=0 time=0\n",
      "note_on channel=9 note=69 velocity=61 time=30\n",
      "note_on channel=9 note=69 velocity=0 time=0\n",
      "note_on channel=9 note=69 velocity=127 time=30\n",
      "note_on channel=9 note=69 velocity=0 time=0\n",
      "note_on channel=9 note=42 velocity=77 time=0\n",
      "note_on channel=9 note=42 velocity=0 time=0\n",
      "note_on channel=9 note=69 velocity=127 time=30\n",
      "note_on channel=9 note=69 velocity=0 time=0\n",
      "note_on channel=9 note=69 velocity=61 time=30\n",
      "note_on channel=9 note=69 velocity=0 time=0\n",
      "note_on channel=9 note=38 velocity=127 time=0\n",
      "note_on channel=9 note=38 velocity=0 time=0\n",
      "note_on channel=9 note=36 velocity=127 time=0\n",
      "note_on channel=9 note=36 velocity=0 time=0\n",
      "note_on channel=9 note=42 velocity=127 time=0\n",
      "note_on channel=9 note=42 velocity=0 time=0\n",
      "note_on channel=9 note=69 velocity=61 time=30\n",
      "note_on channel=9 note=69 velocity=0 time=0\n",
      "note_on channel=9 note=69 velocity=127 time=30\n",
      "note_on channel=9 note=69 velocity=0 time=0\n",
      "note_on channel=9 note=42 velocity=77 time=0\n",
      "note_on channel=9 note=42 velocity=0 time=0\n",
      "note_on channel=9 note=69 velocity=127 time=30\n",
      "note_on channel=9 note=69 velocity=0 time=0\n",
      "note_on channel=9 note=69 velocity=61 time=30\n",
      "note_on channel=9 note=69 velocity=0 time=0\n",
      "note_on channel=9 note=36 velocity=127 time=0\n",
      "note_on channel=9 note=36 velocity=0 time=0\n",
      "note_on channel=9 note=42 velocity=77 time=0\n",
      "note_on channel=9 note=42 velocity=0 time=0\n",
      "note_on channel=9 note=69 velocity=61 time=30\n",
      "note_on channel=9 note=69 velocity=0 time=0\n",
      "note_on channel=9 note=69 velocity=127 time=30\n",
      "note_on channel=9 note=69 velocity=0 time=0\n",
      "note_on channel=9 note=42 velocity=77 time=0\n",
      "note_on channel=9 note=42 velocity=0 time=0\n",
      "note_on channel=9 note=69 velocity=127 time=30\n",
      "note_on channel=9 note=69 velocity=0 time=0\n",
      "note_on channel=9 note=69 velocity=61 time=30\n",
      "note_on channel=9 note=69 velocity=0 time=0\n",
      "note_on channel=9 note=38 velocity=127 time=0\n",
      "note_on channel=9 note=38 velocity=0 time=0\n",
      "note_on channel=9 note=36 velocity=127 time=0\n",
      "note_on channel=9 note=36 velocity=0 time=0\n",
      "note_on channel=9 note=42 velocity=127 time=0\n",
      "note_on channel=9 note=42 velocity=0 time=0\n",
      "note_on channel=9 note=69 velocity=61 time=30\n",
      "note_on channel=9 note=69 velocity=0 time=0\n",
      "note_on channel=9 note=69 velocity=127 time=30\n",
      "note_on channel=9 note=69 velocity=0 time=0\n",
      "note_on channel=9 note=42 velocity=77 time=0\n",
      "note_on channel=9 note=42 velocity=0 time=0\n",
      "note_on channel=9 note=69 velocity=127 time=30\n",
      "note_on channel=9 note=69 velocity=0 time=0\n",
      "note_on channel=9 note=69 velocity=61 time=30\n",
      "note_on channel=9 note=69 velocity=0 time=0\n",
      "note_on channel=9 note=36 velocity=127 time=0\n",
      "note_on channel=9 note=36 velocity=0 time=0\n",
      "note_on channel=9 note=42 velocity=77 time=0\n",
      "note_on channel=9 note=42 velocity=0 time=0\n",
      "note_on channel=9 note=69 velocity=61 time=30\n",
      "note_on channel=9 note=69 velocity=0 time=0\n",
      "note_on channel=9 note=69 velocity=127 time=30\n",
      "note_on channel=9 note=69 velocity=0 time=0\n",
      "note_on channel=9 note=42 velocity=77 time=0\n",
      "note_on channel=9 note=42 velocity=0 time=0\n",
      "note_on channel=9 note=69 velocity=127 time=30\n",
      "note_on channel=9 note=69 velocity=0 time=0\n",
      "note_on channel=9 note=69 velocity=61 time=30\n",
      "note_on channel=9 note=69 velocity=0 time=0\n",
      "note_on channel=9 note=38 velocity=127 time=0\n",
      "note_on channel=9 note=38 velocity=0 time=0\n",
      "note_on channel=9 note=36 velocity=127 time=0\n",
      "note_on channel=9 note=36 velocity=0 time=0\n",
      "note_on channel=9 note=42 velocity=127 time=0\n",
      "note_on channel=9 note=42 velocity=0 time=0\n",
      "note_on channel=9 note=69 velocity=61 time=30\n",
      "note_on channel=9 note=69 velocity=0 time=0\n",
      "note_on channel=9 note=69 velocity=127 time=30\n",
      "note_on channel=9 note=69 velocity=0 time=0\n",
      "note_on channel=9 note=42 velocity=77 time=0\n",
      "note_on channel=9 note=42 velocity=0 time=0\n",
      "note_on channel=9 note=69 velocity=127 time=30\n",
      "note_on channel=9 note=69 velocity=0 time=0\n",
      "note_on channel=9 note=69 velocity=61 time=30\n",
      "note_on channel=9 note=69 velocity=0 time=0\n",
      "note_on channel=9 note=36 velocity=127 time=0\n",
      "note_on channel=9 note=36 velocity=0 time=0\n",
      "note_on channel=9 note=42 velocity=77 time=0\n",
      "note_on channel=9 note=42 velocity=0 time=0\n",
      "note_on channel=9 note=69 velocity=61 time=30\n",
      "note_on channel=9 note=69 velocity=0 time=0\n",
      "note_on channel=9 note=69 velocity=127 time=30\n",
      "note_on channel=9 note=69 velocity=0 time=0\n",
      "note_on channel=9 note=42 velocity=77 time=0\n",
      "note_on channel=9 note=42 velocity=0 time=0\n",
      "note_on channel=9 note=69 velocity=127 time=30\n",
      "note_on channel=9 note=69 velocity=0 time=0\n",
      "note_on channel=9 note=69 velocity=61 time=30\n",
      "note_on channel=9 note=69 velocity=0 time=0\n",
      "note_on channel=9 note=38 velocity=127 time=0\n",
      "note_on channel=9 note=38 velocity=0 time=0\n",
      "note_on channel=9 note=36 velocity=127 time=0\n",
      "note_on channel=9 note=36 velocity=0 time=0\n",
      "note_on channel=9 note=42 velocity=127 time=0\n",
      "note_on channel=9 note=42 velocity=0 time=0\n",
      "note_on channel=9 note=69 velocity=61 time=30\n",
      "note_on channel=9 note=69 velocity=0 time=0\n",
      "note_on channel=9 note=69 velocity=127 time=30\n",
      "note_on channel=9 note=69 velocity=0 time=0\n",
      "note_on channel=9 note=42 velocity=77 time=0\n",
      "note_on channel=9 note=42 velocity=0 time=0\n",
      "note_on channel=9 note=69 velocity=127 time=30\n",
      "note_on channel=9 note=69 velocity=0 time=0\n",
      "note_on channel=9 note=69 velocity=61 time=30\n",
      "note_on channel=9 note=69 velocity=0 time=0\n",
      "note_on channel=9 note=36 velocity=127 time=0\n",
      "note_on channel=9 note=36 velocity=0 time=0\n",
      "note_on channel=9 note=42 velocity=77 time=0\n",
      "note_on channel=9 note=42 velocity=0 time=0\n",
      "note_on channel=9 note=69 velocity=61 time=30\n",
      "note_on channel=9 note=69 velocity=0 time=0\n",
      "note_on channel=9 note=69 velocity=127 time=30\n",
      "note_on channel=9 note=69 velocity=0 time=0\n",
      "note_on channel=9 note=42 velocity=77 time=0\n",
      "note_on channel=9 note=42 velocity=0 time=0\n",
      "note_on channel=9 note=69 velocity=127 time=30\n",
      "note_on channel=9 note=69 velocity=0 time=0\n",
      "note_on channel=9 note=69 velocity=61 time=30\n",
      "note_on channel=9 note=69 velocity=0 time=0\n",
      "note_on channel=9 note=38 velocity=127 time=0\n",
      "note_on channel=9 note=38 velocity=0 time=0\n",
      "note_on channel=9 note=36 velocity=127 time=0\n",
      "note_on channel=9 note=36 velocity=0 time=0\n",
      "note_on channel=9 note=42 velocity=127 time=0\n",
      "note_on channel=9 note=42 velocity=0 time=5\n",
      "note_on channel=9 note=69 velocity=61 time=25\n",
      "note_on channel=9 note=69 velocity=0 time=0\n",
      "note_on channel=9 note=69 velocity=127 time=30\n",
      "note_on channel=9 note=69 velocity=0 time=0\n",
      "note_on channel=9 note=42 velocity=77 time=0\n",
      "note_on channel=9 note=42 velocity=0 time=0\n",
      "note_on channel=9 note=69 velocity=127 time=30\n",
      "note_on channel=9 note=69 velocity=0 time=0\n",
      "note_on channel=9 note=69 velocity=61 time=30\n",
      "note_on channel=9 note=69 velocity=0 time=0\n",
      "note_on channel=9 note=36 velocity=127 time=0\n",
      "note_on channel=9 note=36 velocity=0 time=0\n",
      "note_on channel=9 note=42 velocity=77 time=0\n",
      "note_on channel=9 note=42 velocity=0 time=0\n",
      "note_on channel=9 note=69 velocity=61 time=30\n",
      "note_on channel=9 note=69 velocity=0 time=0\n",
      "note_on channel=9 note=69 velocity=127 time=30\n",
      "note_on channel=9 note=69 velocity=0 time=0\n",
      "note_on channel=9 note=38 velocity=127 time=0\n",
      "note_on channel=9 note=38 velocity=0 time=0\n",
      "note_on channel=9 note=42 velocity=77 time=0\n",
      "note_on channel=9 note=42 velocity=0 time=0\n",
      "note_on channel=9 note=69 velocity=127 time=30\n",
      "note_on channel=9 note=69 velocity=0 time=0\n",
      "note_on channel=9 note=69 velocity=61 time=30\n",
      "note_on channel=9 note=69 velocity=0 time=0\n",
      "note_on channel=9 note=38 velocity=127 time=0\n",
      "note_on channel=9 note=38 velocity=0 time=0\n",
      "note_on channel=9 note=36 velocity=127 time=0\n",
      "note_on channel=9 note=36 velocity=0 time=0\n",
      "note_on channel=9 note=42 velocity=127 time=0\n",
      "note_on channel=9 note=42 velocity=0 time=0\n",
      "note_on channel=9 note=69 velocity=61 time=30\n",
      "note_on channel=9 note=69 velocity=0 time=0\n",
      "note_on channel=9 note=69 velocity=127 time=30\n",
      "note_on channel=9 note=69 velocity=0 time=0\n",
      "note_on channel=9 note=38 velocity=127 time=0\n",
      "note_on channel=9 note=38 velocity=0 time=0\n",
      "note_on channel=9 note=42 velocity=77 time=0\n",
      "note_on channel=9 note=42 velocity=0 time=0\n",
      "note_on channel=9 note=69 velocity=127 time=30\n",
      "note_on channel=9 note=69 velocity=0 time=0\n",
      "note_on channel=9 note=38 velocity=127 time=0\n",
      "note_on channel=9 note=38 velocity=0 time=0\n",
      "note_on channel=9 note=69 velocity=61 time=30\n",
      "note_on channel=9 note=69 velocity=0 time=0\n",
      "note_on channel=9 note=36 velocity=127 time=0\n",
      "note_on channel=9 note=36 velocity=0 time=0\n",
      "note_on channel=9 note=42 velocity=77 time=0\n",
      "note_on channel=9 note=49 velocity=85 time=0\n",
      "note_on channel=9 note=49 velocity=0 time=5\n",
      "note_on channel=9 note=42 velocity=0 time=0\n",
      "note_on channel=9 note=69 velocity=61 time=25\n",
      "note_on channel=9 note=69 velocity=0 time=0\n",
      "note_on channel=9 note=69 velocity=127 time=30\n",
      "note_on channel=9 note=69 velocity=0 time=0\n",
      "note_on channel=9 note=42 velocity=77 time=0\n",
      "note_on channel=9 note=42 velocity=0 time=0\n",
      "note_on channel=9 note=69 velocity=127 time=30\n",
      "note_on channel=9 note=69 velocity=0 time=0\n",
      "note_on channel=9 note=69 velocity=61 time=30\n",
      "note_on channel=9 note=69 velocity=0 time=0\n",
      "note_on channel=9 note=38 velocity=127 time=0\n",
      "note_on channel=9 note=38 velocity=0 time=0\n",
      "note_on channel=9 note=36 velocity=127 time=0\n",
      "note_on channel=9 note=36 velocity=0 time=0\n",
      "note_on channel=9 note=42 velocity=127 time=0\n",
      "note_on channel=9 note=42 velocity=0 time=0\n",
      "note_on channel=9 note=69 velocity=61 time=30\n",
      "note_on channel=9 note=69 velocity=0 time=0\n",
      "note_on channel=9 note=69 velocity=127 time=30\n",
      "note_on channel=9 note=69 velocity=0 time=0\n",
      "note_on channel=9 note=42 velocity=77 time=0\n",
      "note_on channel=9 note=42 velocity=0 time=0\n",
      "note_on channel=9 note=69 velocity=127 time=30\n",
      "note_on channel=9 note=69 velocity=0 time=0\n",
      "note_on channel=9 note=69 velocity=61 time=30\n",
      "note_on channel=9 note=69 velocity=0 time=0\n",
      "note_on channel=9 note=36 velocity=127 time=0\n",
      "note_on channel=9 note=36 velocity=0 time=0\n",
      "note_on channel=9 note=42 velocity=77 time=0\n",
      "note_on channel=9 note=42 velocity=0 time=0\n",
      "note_on channel=9 note=69 velocity=61 time=30\n",
      "note_on channel=9 note=69 velocity=0 time=0\n",
      "note_on channel=9 note=69 velocity=127 time=30\n",
      "note_on channel=9 note=69 velocity=0 time=0\n",
      "note_on channel=9 note=42 velocity=77 time=0\n",
      "note_on channel=9 note=42 velocity=0 time=0\n",
      "note_on channel=9 note=69 velocity=127 time=30\n",
      "note_on channel=9 note=69 velocity=0 time=0\n",
      "note_on channel=9 note=69 velocity=61 time=30\n",
      "note_on channel=9 note=69 velocity=0 time=0\n",
      "note_on channel=9 note=38 velocity=127 time=0\n",
      "note_on channel=9 note=38 velocity=0 time=0\n",
      "note_on channel=9 note=36 velocity=127 time=0\n",
      "note_on channel=9 note=36 velocity=0 time=0\n",
      "note_on channel=9 note=42 velocity=127 time=0\n",
      "note_on channel=9 note=42 velocity=0 time=0\n",
      "note_on channel=9 note=69 velocity=61 time=30\n",
      "note_on channel=9 note=69 velocity=0 time=0\n",
      "note_on channel=9 note=69 velocity=127 time=30\n",
      "note_on channel=9 note=69 velocity=0 time=0\n",
      "note_on channel=9 note=42 velocity=77 time=0\n",
      "note_on channel=9 note=42 velocity=0 time=0\n",
      "note_on channel=9 note=69 velocity=127 time=30\n",
      "note_on channel=9 note=69 velocity=0 time=0\n",
      "note_on channel=9 note=69 velocity=61 time=30\n",
      "note_on channel=9 note=69 velocity=0 time=0\n",
      "note_on channel=9 note=36 velocity=127 time=0\n",
      "note_on channel=9 note=36 velocity=0 time=0\n",
      "note_on channel=9 note=42 velocity=77 time=0\n",
      "note_on channel=9 note=42 velocity=0 time=0\n",
      "note_on channel=9 note=69 velocity=61 time=30\n",
      "note_on channel=9 note=69 velocity=0 time=0\n",
      "note_on channel=9 note=69 velocity=127 time=30\n",
      "note_on channel=9 note=69 velocity=0 time=0\n",
      "note_on channel=9 note=42 velocity=77 time=0\n",
      "note_on channel=9 note=42 velocity=0 time=0\n",
      "note_on channel=9 note=69 velocity=127 time=30\n",
      "note_on channel=9 note=69 velocity=0 time=0\n",
      "note_on channel=9 note=69 velocity=61 time=30\n",
      "note_on channel=9 note=69 velocity=0 time=0\n",
      "note_on channel=9 note=38 velocity=127 time=0\n",
      "note_on channel=9 note=38 velocity=0 time=0\n",
      "note_on channel=9 note=36 velocity=127 time=0\n",
      "note_on channel=9 note=36 velocity=0 time=0\n",
      "note_on channel=9 note=42 velocity=127 time=0\n",
      "note_on channel=9 note=42 velocity=0 time=0\n",
      "note_on channel=9 note=69 velocity=61 time=30\n",
      "note_on channel=9 note=69 velocity=0 time=0\n",
      "note_on channel=9 note=69 velocity=127 time=30\n",
      "note_on channel=9 note=69 velocity=0 time=0\n",
      "note_on channel=9 note=42 velocity=77 time=0\n",
      "note_on channel=9 note=42 velocity=0 time=0\n",
      "note_on channel=9 note=69 velocity=127 time=30\n",
      "note_on channel=9 note=69 velocity=0 time=0\n",
      "note_on channel=9 note=69 velocity=61 time=30\n",
      "note_on channel=9 note=69 velocity=0 time=0\n",
      "note_on channel=9 note=36 velocity=127 time=0\n",
      "note_on channel=9 note=36 velocity=0 time=0\n",
      "note_on channel=9 note=42 velocity=77 time=0\n",
      "note_on channel=9 note=42 velocity=0 time=0\n",
      "note_on channel=9 note=69 velocity=61 time=30\n",
      "note_on channel=9 note=69 velocity=0 time=0\n",
      "note_on channel=9 note=69 velocity=127 time=30\n",
      "note_on channel=9 note=69 velocity=0 time=0\n",
      "note_on channel=9 note=42 velocity=77 time=0\n",
      "note_on channel=9 note=42 velocity=0 time=0\n",
      "note_on channel=9 note=69 velocity=127 time=30\n",
      "note_on channel=9 note=69 velocity=0 time=0\n",
      "note_on channel=9 note=69 velocity=61 time=30\n",
      "note_on channel=9 note=69 velocity=0 time=0\n",
      "note_on channel=9 note=38 velocity=127 time=0\n",
      "note_on channel=9 note=38 velocity=0 time=0\n",
      "note_on channel=9 note=36 velocity=127 time=0\n",
      "note_on channel=9 note=36 velocity=0 time=0\n",
      "note_on channel=9 note=42 velocity=127 time=0\n",
      "note_on channel=9 note=42 velocity=0 time=5\n",
      "note_on channel=9 note=69 velocity=61 time=25\n",
      "note_on channel=9 note=69 velocity=0 time=0\n",
      "note_on channel=9 note=69 velocity=127 time=30\n",
      "note_on channel=9 note=69 velocity=0 time=0\n",
      "note_on channel=9 note=42 velocity=77 time=0\n",
      "note_on channel=9 note=42 velocity=0 time=0\n",
      "note_on channel=9 note=69 velocity=127 time=30\n",
      "note_on channel=9 note=69 velocity=0 time=0\n",
      "note_on channel=9 note=69 velocity=61 time=30\n",
      "note_on channel=9 note=69 velocity=0 time=0\n",
      "note_on channel=9 note=36 velocity=127 time=0\n",
      "note_on channel=9 note=42 velocity=77 time=0\n",
      "note_on channel=9 note=42 velocity=0 time=0\n",
      "note_on channel=9 note=36 velocity=0 time=5\n",
      "note_on channel=9 note=69 velocity=61 time=25\n",
      "note_on channel=9 note=69 velocity=0 time=0\n",
      "note_on channel=9 note=69 velocity=127 time=30\n",
      "note_on channel=9 note=69 velocity=0 time=0\n",
      "note_on channel=9 note=42 velocity=77 time=0\n",
      "note_on channel=9 note=42 velocity=0 time=0\n",
      "note_on channel=9 note=69 velocity=127 time=30\n",
      "note_on channel=9 note=69 velocity=0 time=0\n",
      "note_on channel=9 note=69 velocity=61 time=30\n",
      "note_on channel=9 note=69 velocity=0 time=0\n",
      "note_on channel=9 note=38 velocity=127 time=0\n",
      "note_on channel=9 note=38 velocity=0 time=0\n",
      "note_on channel=9 note=36 velocity=127 time=0\n",
      "note_on channel=9 note=36 velocity=0 time=0\n",
      "note_on channel=9 note=42 velocity=127 time=0\n",
      "note_on channel=9 note=42 velocity=0 time=0\n",
      "note_on channel=9 note=69 velocity=61 time=30\n",
      "note_on channel=9 note=69 velocity=0 time=0\n",
      "note_on channel=9 note=69 velocity=127 time=30\n",
      "note_on channel=9 note=69 velocity=0 time=0\n",
      "note_on channel=9 note=42 velocity=77 time=0\n",
      "note_on channel=9 note=42 velocity=0 time=0\n",
      "note_on channel=9 note=69 velocity=127 time=30\n",
      "note_on channel=9 note=69 velocity=0 time=0\n",
      "note_on channel=9 note=69 velocity=61 time=30\n",
      "note_on channel=9 note=69 velocity=0 time=0\n",
      "note_on channel=9 note=36 velocity=127 time=0\n",
      "note_on channel=9 note=36 velocity=0 time=0\n",
      "note_on channel=9 note=42 velocity=77 time=0\n",
      "note_on channel=9 note=42 velocity=0 time=0\n",
      "note_on channel=9 note=69 velocity=61 time=30\n",
      "note_on channel=9 note=69 velocity=0 time=0\n",
      "note_on channel=9 note=69 velocity=127 time=30\n",
      "note_on channel=9 note=69 velocity=0 time=0\n",
      "note_on channel=9 note=42 velocity=77 time=0\n",
      "note_on channel=9 note=42 velocity=0 time=0\n",
      "note_on channel=9 note=69 velocity=127 time=30\n",
      "note_on channel=9 note=69 velocity=0 time=0\n",
      "note_on channel=9 note=69 velocity=61 time=30\n",
      "note_on channel=9 note=69 velocity=0 time=0\n",
      "note_on channel=9 note=38 velocity=127 time=0\n",
      "note_on channel=9 note=38 velocity=0 time=0\n",
      "note_on channel=9 note=36 velocity=127 time=0\n",
      "note_on channel=9 note=36 velocity=0 time=0\n",
      "note_on channel=9 note=42 velocity=127 time=0\n",
      "note_on channel=9 note=42 velocity=0 time=0\n",
      "note_on channel=9 note=69 velocity=61 time=30\n",
      "note_on channel=9 note=69 velocity=0 time=0\n",
      "note_on channel=9 note=69 velocity=127 time=30\n",
      "note_on channel=9 note=69 velocity=0 time=0\n",
      "note_on channel=9 note=42 velocity=77 time=0\n",
      "note_on channel=9 note=42 velocity=0 time=0\n",
      "note_on channel=9 note=69 velocity=127 time=30\n",
      "note_on channel=9 note=69 velocity=0 time=0\n",
      "note_on channel=9 note=69 velocity=61 time=30\n",
      "note_on channel=9 note=69 velocity=0 time=0\n",
      "note_on channel=9 note=36 velocity=127 time=0\n",
      "note_on channel=9 note=36 velocity=0 time=0\n",
      "note_on channel=9 note=42 velocity=77 time=0\n",
      "note_on channel=9 note=42 velocity=0 time=0\n",
      "note_on channel=9 note=69 velocity=61 time=30\n",
      "note_on channel=9 note=69 velocity=0 time=0\n",
      "note_on channel=9 note=69 velocity=127 time=30\n",
      "note_on channel=9 note=69 velocity=0 time=0\n",
      "note_on channel=9 note=42 velocity=77 time=0\n",
      "note_on channel=9 note=42 velocity=0 time=0\n",
      "note_on channel=9 note=69 velocity=127 time=30\n",
      "note_on channel=9 note=69 velocity=0 time=0\n",
      "note_on channel=9 note=69 velocity=61 time=30\n",
      "note_on channel=9 note=69 velocity=0 time=0\n",
      "note_on channel=9 note=38 velocity=127 time=0\n",
      "note_on channel=9 note=38 velocity=0 time=0\n",
      "note_on channel=9 note=36 velocity=127 time=0\n",
      "note_on channel=9 note=36 velocity=0 time=0\n",
      "note_on channel=9 note=42 velocity=127 time=0\n",
      "note_on channel=9 note=42 velocity=0 time=0\n",
      "note_on channel=9 note=69 velocity=61 time=30\n",
      "note_on channel=9 note=69 velocity=0 time=0\n",
      "note_on channel=9 note=69 velocity=127 time=30\n",
      "note_on channel=9 note=69 velocity=0 time=0\n",
      "note_on channel=9 note=42 velocity=77 time=0\n",
      "note_on channel=9 note=42 velocity=0 time=0\n",
      "note_on channel=9 note=69 velocity=127 time=30\n",
      "note_on channel=9 note=69 velocity=0 time=0\n",
      "note_on channel=9 note=69 velocity=61 time=30\n",
      "note_on channel=9 note=69 velocity=0 time=0\n",
      "note_on channel=9 note=36 velocity=127 time=0\n",
      "note_on channel=9 note=36 velocity=0 time=0\n",
      "note_on channel=9 note=42 velocity=77 time=0\n",
      "note_on channel=9 note=42 velocity=0 time=0\n",
      "note_on channel=9 note=69 velocity=61 time=30\n",
      "note_on channel=9 note=69 velocity=0 time=0\n",
      "note_on channel=9 note=69 velocity=127 time=30\n",
      "note_on channel=9 note=69 velocity=0 time=0\n",
      "note_on channel=9 note=38 velocity=127 time=0\n",
      "note_on channel=9 note=38 velocity=0 time=0\n",
      "note_on channel=9 note=42 velocity=77 time=0\n",
      "note_on channel=9 note=42 velocity=0 time=0\n",
      "note_on channel=9 note=69 velocity=127 time=30\n",
      "note_on channel=9 note=69 velocity=0 time=0\n",
      "note_on channel=9 note=38 velocity=127 time=0\n",
      "note_on channel=9 note=38 velocity=0 time=0\n",
      "note_on channel=9 note=69 velocity=61 time=30\n",
      "note_on channel=9 note=69 velocity=0 time=0\n",
      "note_on channel=9 note=38 velocity=127 time=0\n",
      "note_on channel=9 note=38 velocity=0 time=0\n",
      "note_on channel=9 note=36 velocity=127 time=0\n",
      "note_on channel=9 note=36 velocity=0 time=0\n",
      "note_on channel=9 note=42 velocity=77 time=0\n",
      "note_on channel=9 note=42 velocity=0 time=0\n",
      "note_on channel=9 note=69 velocity=61 time=30\n",
      "note_on channel=9 note=69 velocity=0 time=0\n",
      "note_on channel=9 note=41 velocity=113 time=0\n",
      "note_on channel=9 note=41 velocity=0 time=0\n",
      "note_on channel=9 note=69 velocity=127 time=30\n",
      "note_on channel=9 note=69 velocity=0 time=0\n",
      "note_on channel=9 note=42 velocity=77 time=0\n",
      "note_on channel=9 note=42 velocity=0 time=0\n",
      "note_on channel=9 note=69 velocity=127 time=30\n",
      "note_on channel=9 note=69 velocity=0 time=0\n",
      "note_on channel=9 note=69 velocity=61 time=30\n",
      "note_on channel=9 note=69 velocity=0 time=0\n",
      "note_on channel=9 note=36 velocity=127 time=0\n",
      "note_on channel=9 note=42 velocity=77 time=0\n",
      "note_on channel=9 note=42 velocity=0 time=0\n",
      "note_on channel=9 note=49 velocity=85 time=0\n",
      "note_on channel=9 note=49 velocity=0 time=0\n",
      "note_on channel=9 note=36 velocity=0 time=5\n",
      "note_on channel=9 note=69 velocity=61 time=25\n",
      "note_on channel=9 note=69 velocity=0 time=0\n",
      "note_on channel=9 note=69 velocity=127 time=30\n",
      "note_on channel=9 note=69 velocity=0 time=0\n",
      "note_on channel=9 note=42 velocity=77 time=0\n",
      "note_on channel=9 note=42 velocity=0 time=0\n",
      "note_on channel=9 note=69 velocity=127 time=30\n",
      "note_on channel=9 note=69 velocity=0 time=0\n",
      "note_on channel=9 note=69 velocity=61 time=30\n",
      "note_on channel=9 note=69 velocity=0 time=0\n",
      "note_on channel=9 note=38 velocity=127 time=0\n",
      "note_on channel=9 note=38 velocity=0 time=0\n",
      "note_on channel=9 note=36 velocity=127 time=0\n",
      "note_on channel=9 note=36 velocity=0 time=0\n",
      "note_on channel=9 note=42 velocity=127 time=0\n",
      "note_on channel=9 note=42 velocity=0 time=0\n",
      "note_on channel=9 note=69 velocity=61 time=30\n",
      "note_on channel=9 note=69 velocity=0 time=0\n",
      "note_on channel=9 note=69 velocity=127 time=30\n",
      "note_on channel=9 note=69 velocity=0 time=0\n",
      "note_on channel=9 note=42 velocity=77 time=0\n",
      "note_on channel=9 note=42 velocity=0 time=0\n",
      "note_on channel=9 note=69 velocity=127 time=30\n",
      "note_on channel=9 note=69 velocity=0 time=0\n",
      "note_on channel=9 note=69 velocity=61 time=30\n",
      "note_on channel=9 note=69 velocity=0 time=0\n",
      "note_on channel=9 note=36 velocity=127 time=0\n",
      "note_on channel=9 note=36 velocity=0 time=0\n",
      "note_on channel=9 note=42 velocity=77 time=0\n",
      "note_on channel=9 note=42 velocity=0 time=0\n",
      "note_on channel=9 note=69 velocity=61 time=30\n",
      "note_on channel=9 note=69 velocity=0 time=0\n",
      "note_on channel=9 note=69 velocity=127 time=30\n",
      "note_on channel=9 note=69 velocity=0 time=0\n",
      "note_on channel=9 note=42 velocity=77 time=0\n",
      "note_on channel=9 note=42 velocity=0 time=0\n",
      "note_on channel=9 note=69 velocity=127 time=30\n",
      "note_on channel=9 note=69 velocity=0 time=0\n",
      "note_on channel=9 note=69 velocity=61 time=30\n",
      "note_on channel=9 note=69 velocity=0 time=0\n",
      "note_on channel=9 note=38 velocity=127 time=0\n",
      "note_on channel=9 note=38 velocity=0 time=0\n",
      "note_on channel=9 note=36 velocity=127 time=0\n",
      "note_on channel=9 note=36 velocity=0 time=0\n",
      "note_on channel=9 note=42 velocity=127 time=0\n",
      "note_on channel=9 note=42 velocity=0 time=0\n",
      "note_on channel=9 note=69 velocity=61 time=30\n",
      "note_on channel=9 note=69 velocity=0 time=0\n",
      "note_on channel=9 note=69 velocity=127 time=30\n",
      "note_on channel=9 note=69 velocity=0 time=0\n",
      "note_on channel=9 note=42 velocity=77 time=0\n",
      "note_on channel=9 note=42 velocity=0 time=0\n",
      "note_on channel=9 note=69 velocity=127 time=30\n",
      "note_on channel=9 note=69 velocity=0 time=0\n",
      "note_on channel=9 note=69 velocity=61 time=30\n",
      "note_on channel=9 note=69 velocity=0 time=0\n",
      "note_on channel=9 note=36 velocity=127 time=0\n",
      "note_on channel=9 note=36 velocity=0 time=0\n",
      "note_on channel=9 note=42 velocity=77 time=0\n",
      "note_on channel=9 note=42 velocity=0 time=0\n",
      "note_on channel=9 note=69 velocity=61 time=30\n",
      "note_on channel=9 note=69 velocity=0 time=0\n",
      "note_on channel=9 note=69 velocity=127 time=30\n",
      "note_on channel=9 note=69 velocity=0 time=0\n",
      "note_on channel=9 note=42 velocity=77 time=0\n",
      "note_on channel=9 note=42 velocity=0 time=0\n",
      "note_on channel=9 note=69 velocity=127 time=30\n",
      "note_on channel=9 note=69 velocity=0 time=0\n",
      "note_on channel=9 note=69 velocity=61 time=30\n",
      "note_on channel=9 note=69 velocity=0 time=0\n",
      "note_on channel=9 note=38 velocity=127 time=0\n",
      "note_on channel=9 note=38 velocity=0 time=0\n",
      "note_on channel=9 note=36 velocity=127 time=0\n",
      "note_on channel=9 note=36 velocity=0 time=0\n",
      "note_on channel=9 note=42 velocity=127 time=0\n",
      "note_on channel=9 note=42 velocity=0 time=0\n",
      "note_on channel=9 note=69 velocity=61 time=30\n",
      "note_on channel=9 note=69 velocity=0 time=0\n",
      "note_on channel=9 note=69 velocity=127 time=30\n",
      "note_on channel=9 note=69 velocity=0 time=0\n",
      "note_on channel=9 note=42 velocity=77 time=0\n",
      "note_on channel=9 note=42 velocity=0 time=0\n",
      "note_on channel=9 note=69 velocity=127 time=30\n",
      "note_on channel=9 note=69 velocity=0 time=0\n",
      "note_on channel=9 note=69 velocity=61 time=30\n",
      "note_on channel=9 note=69 velocity=0 time=0\n",
      "note_on channel=9 note=36 velocity=127 time=0\n",
      "note_on channel=9 note=36 velocity=0 time=0\n",
      "note_on channel=9 note=42 velocity=77 time=0\n",
      "note_on channel=9 note=42 velocity=0 time=0\n",
      "note_on channel=9 note=69 velocity=61 time=30\n",
      "note_on channel=9 note=69 velocity=0 time=0\n",
      "note_on channel=9 note=69 velocity=127 time=30\n",
      "note_on channel=9 note=69 velocity=0 time=0\n",
      "note_on channel=9 note=42 velocity=77 time=0\n",
      "note_on channel=9 note=42 velocity=0 time=0\n",
      "note_on channel=9 note=69 velocity=127 time=30\n",
      "note_on channel=9 note=69 velocity=0 time=0\n",
      "note_on channel=9 note=69 velocity=61 time=30\n",
      "note_on channel=9 note=69 velocity=0 time=0\n",
      "note_on channel=9 note=38 velocity=127 time=0\n",
      "note_on channel=9 note=38 velocity=0 time=0\n",
      "note_on channel=9 note=36 velocity=127 time=0\n",
      "note_on channel=9 note=36 velocity=0 time=0\n",
      "note_on channel=9 note=42 velocity=127 time=0\n",
      "note_on channel=9 note=42 velocity=0 time=0\n",
      "note_on channel=9 note=69 velocity=61 time=30\n",
      "note_on channel=9 note=69 velocity=0 time=0\n",
      "note_on channel=9 note=69 velocity=127 time=30\n",
      "note_on channel=9 note=69 velocity=0 time=0\n",
      "note_on channel=9 note=42 velocity=77 time=0\n",
      "note_on channel=9 note=42 velocity=0 time=0\n",
      "note_on channel=9 note=69 velocity=127 time=30\n",
      "note_on channel=9 note=69 velocity=0 time=0\n",
      "note_on channel=9 note=69 velocity=61 time=30\n",
      "note_on channel=9 note=69 velocity=0 time=0\n",
      "note_on channel=9 note=36 velocity=127 time=0\n",
      "note_on channel=9 note=36 velocity=0 time=0\n",
      "note_on channel=9 note=42 velocity=77 time=0\n",
      "note_on channel=9 note=42 velocity=0 time=0\n",
      "note_on channel=9 note=69 velocity=61 time=30\n",
      "note_on channel=9 note=69 velocity=0 time=0\n",
      "note_on channel=9 note=69 velocity=127 time=30\n",
      "note_on channel=9 note=69 velocity=0 time=0\n",
      "note_on channel=9 note=42 velocity=77 time=0\n",
      "note_on channel=9 note=42 velocity=0 time=0\n",
      "note_on channel=9 note=69 velocity=127 time=30\n",
      "note_on channel=9 note=69 velocity=0 time=0\n",
      "note_on channel=9 note=69 velocity=61 time=30\n",
      "note_on channel=9 note=69 velocity=0 time=0\n",
      "note_on channel=9 note=38 velocity=127 time=0\n",
      "note_on channel=9 note=38 velocity=0 time=0\n",
      "note_on channel=9 note=36 velocity=127 time=0\n",
      "note_on channel=9 note=36 velocity=0 time=0\n",
      "note_on channel=9 note=42 velocity=127 time=0\n",
      "note_on channel=9 note=42 velocity=0 time=0\n",
      "note_on channel=9 note=69 velocity=61 time=30\n",
      "note_on channel=9 note=69 velocity=0 time=0\n",
      "note_on channel=9 note=69 velocity=127 time=30\n",
      "note_on channel=9 note=69 velocity=0 time=0\n",
      "note_on channel=9 note=42 velocity=77 time=0\n",
      "note_on channel=9 note=42 velocity=0 time=0\n",
      "note_on channel=9 note=69 velocity=127 time=30\n",
      "note_on channel=9 note=69 velocity=0 time=0\n",
      "note_on channel=9 note=69 velocity=61 time=30\n",
      "note_on channel=9 note=69 velocity=0 time=0\n",
      "note_on channel=9 note=36 velocity=127 time=0\n",
      "note_on channel=9 note=36 velocity=0 time=0\n",
      "note_on channel=9 note=42 velocity=77 time=0\n",
      "note_on channel=9 note=42 velocity=0 time=0\n",
      "note_on channel=9 note=69 velocity=61 time=30\n",
      "note_on channel=9 note=69 velocity=0 time=0\n",
      "note_on channel=9 note=69 velocity=127 time=30\n",
      "note_on channel=9 note=69 velocity=0 time=0\n",
      "note_on channel=9 note=42 velocity=77 time=0\n",
      "note_on channel=9 note=42 velocity=0 time=0\n",
      "note_on channel=9 note=69 velocity=127 time=30\n",
      "note_on channel=9 note=69 velocity=0 time=0\n",
      "note_on channel=9 note=69 velocity=61 time=30\n",
      "note_on channel=9 note=69 velocity=0 time=0\n",
      "note_on channel=9 note=38 velocity=127 time=0\n",
      "note_on channel=9 note=38 velocity=0 time=0\n",
      "note_on channel=9 note=36 velocity=127 time=0\n",
      "note_on channel=9 note=36 velocity=0 time=0\n",
      "note_on channel=9 note=42 velocity=127 time=0\n",
      "note_on channel=9 note=42 velocity=0 time=0\n",
      "note_on channel=9 note=69 velocity=61 time=30\n",
      "note_on channel=9 note=69 velocity=0 time=0\n",
      "note_on channel=9 note=69 velocity=127 time=30\n",
      "note_on channel=9 note=69 velocity=0 time=0\n",
      "note_on channel=9 note=42 velocity=77 time=0\n",
      "note_on channel=9 note=42 velocity=0 time=0\n",
      "note_on channel=9 note=69 velocity=127 time=30\n",
      "note_on channel=9 note=69 velocity=0 time=0\n",
      "note_on channel=9 note=69 velocity=61 time=30\n",
      "note_on channel=9 note=69 velocity=0 time=0\n",
      "note_on channel=9 note=36 velocity=127 time=0\n",
      "note_on channel=9 note=36 velocity=0 time=0\n",
      "note_on channel=9 note=42 velocity=77 time=0\n",
      "note_on channel=9 note=42 velocity=0 time=0\n",
      "note_on channel=9 note=69 velocity=61 time=30\n",
      "note_on channel=9 note=69 velocity=0 time=0\n",
      "note_on channel=9 note=69 velocity=127 time=30\n",
      "note_on channel=9 note=69 velocity=0 time=0\n",
      "note_on channel=9 note=42 velocity=77 time=0\n",
      "note_on channel=9 note=42 velocity=0 time=0\n",
      "note_on channel=9 note=69 velocity=127 time=30\n",
      "note_on channel=9 note=69 velocity=0 time=0\n",
      "note_on channel=9 note=69 velocity=61 time=30\n",
      "note_on channel=9 note=69 velocity=0 time=0\n",
      "note_on channel=9 note=38 velocity=127 time=0\n",
      "note_on channel=9 note=38 velocity=0 time=0\n",
      "note_on channel=9 note=36 velocity=127 time=0\n",
      "note_on channel=9 note=36 velocity=0 time=0\n",
      "note_on channel=9 note=42 velocity=127 time=0\n",
      "note_on channel=9 note=42 velocity=0 time=0\n",
      "note_on channel=9 note=69 velocity=61 time=30\n",
      "note_on channel=9 note=69 velocity=0 time=0\n",
      "note_on channel=9 note=69 velocity=127 time=30\n",
      "note_on channel=9 note=69 velocity=0 time=0\n",
      "note_on channel=9 note=42 velocity=77 time=0\n",
      "note_on channel=9 note=42 velocity=0 time=0\n",
      "note_on channel=9 note=69 velocity=127 time=30\n",
      "note_on channel=9 note=69 velocity=0 time=0\n",
      "note_on channel=9 note=69 velocity=61 time=30\n",
      "note_on channel=9 note=69 velocity=0 time=0\n",
      "note_on channel=9 note=36 velocity=127 time=0\n",
      "note_on channel=9 note=36 velocity=0 time=0\n",
      "note_on channel=9 note=42 velocity=77 time=0\n",
      "note_on channel=9 note=42 velocity=0 time=0\n",
      "note_on channel=9 note=69 velocity=61 time=30\n",
      "note_on channel=9 note=69 velocity=0 time=0\n",
      "note_on channel=9 note=69 velocity=127 time=30\n",
      "note_on channel=9 note=69 velocity=0 time=0\n",
      "note_on channel=9 note=38 velocity=127 time=0\n",
      "note_on channel=9 note=38 velocity=0 time=0\n",
      "note_on channel=9 note=42 velocity=77 time=0\n",
      "note_on channel=9 note=42 velocity=0 time=0\n",
      "note_on channel=9 note=69 velocity=127 time=30\n",
      "note_on channel=9 note=69 velocity=0 time=0\n",
      "note_on channel=9 note=69 velocity=61 time=30\n",
      "note_on channel=9 note=69 velocity=0 time=0\n",
      "note_on channel=9 note=38 velocity=127 time=0\n",
      "note_on channel=9 note=38 velocity=0 time=0\n",
      "note_on channel=9 note=36 velocity=127 time=0\n",
      "note_on channel=9 note=36 velocity=0 time=0\n",
      "note_on channel=9 note=42 velocity=127 time=0\n",
      "note_on channel=9 note=42 velocity=0 time=5\n",
      "note_on channel=9 note=69 velocity=61 time=25\n",
      "note_on channel=9 note=69 velocity=0 time=0\n",
      "note_on channel=9 note=69 velocity=127 time=30\n",
      "note_on channel=9 note=69 velocity=0 time=0\n",
      "note_on channel=9 note=38 velocity=127 time=0\n",
      "note_on channel=9 note=38 velocity=0 time=0\n",
      "note_on channel=9 note=42 velocity=77 time=0\n",
      "note_on channel=9 note=42 velocity=0 time=0\n",
      "note_on channel=9 note=69 velocity=127 time=30\n",
      "note_on channel=9 note=69 velocity=0 time=0\n",
      "note_on channel=9 note=38 velocity=127 time=0\n",
      "note_on channel=9 note=38 velocity=0 time=0\n",
      "note_on channel=9 note=69 velocity=61 time=30\n",
      "note_on channel=9 note=69 velocity=0 time=0\n",
      "note_on channel=9 note=36 velocity=127 time=0\n",
      "note_on channel=9 note=36 velocity=0 time=0\n",
      "note_on channel=9 note=42 velocity=77 time=0\n",
      "note_on channel=9 note=42 velocity=0 time=0\n",
      "note_on channel=9 note=49 velocity=85 time=0\n",
      "note_on channel=9 note=49 velocity=0 time=0\n",
      "note_on channel=9 note=69 velocity=61 time=30\n",
      "note_on channel=9 note=69 velocity=0 time=0\n",
      "note_on channel=9 note=69 velocity=127 time=30\n",
      "note_on channel=9 note=69 velocity=0 time=0\n",
      "note_on channel=9 note=42 velocity=77 time=0\n",
      "note_on channel=9 note=42 velocity=0 time=0\n",
      "note_on channel=9 note=69 velocity=127 time=30\n",
      "note_on channel=9 note=69 velocity=0 time=0\n",
      "note_on channel=9 note=69 velocity=61 time=30\n",
      "note_on channel=9 note=69 velocity=0 time=0\n",
      "note_on channel=9 note=38 velocity=127 time=0\n",
      "note_on channel=9 note=38 velocity=0 time=0\n",
      "note_on channel=9 note=36 velocity=127 time=0\n",
      "note_on channel=9 note=36 velocity=0 time=0\n",
      "note_on channel=9 note=42 velocity=127 time=0\n",
      "note_on channel=9 note=42 velocity=0 time=0\n",
      "note_on channel=9 note=69 velocity=61 time=30\n",
      "note_on channel=9 note=69 velocity=0 time=0\n",
      "note_on channel=9 note=69 velocity=127 time=30\n",
      "note_on channel=9 note=69 velocity=0 time=0\n",
      "note_on channel=9 note=42 velocity=77 time=0\n",
      "note_on channel=9 note=42 velocity=0 time=0\n",
      "note_on channel=9 note=69 velocity=127 time=30\n",
      "note_on channel=9 note=69 velocity=0 time=0\n",
      "note_on channel=9 note=69 velocity=61 time=30\n",
      "note_on channel=9 note=69 velocity=0 time=0\n",
      "note_on channel=9 note=36 velocity=127 time=0\n",
      "note_on channel=9 note=36 velocity=0 time=0\n",
      "note_on channel=9 note=42 velocity=77 time=0\n",
      "note_on channel=9 note=42 velocity=0 time=0\n",
      "note_on channel=9 note=69 velocity=61 time=30\n",
      "note_on channel=9 note=69 velocity=0 time=0\n",
      "note_on channel=9 note=69 velocity=127 time=30\n",
      "note_on channel=9 note=69 velocity=0 time=0\n",
      "note_on channel=9 note=42 velocity=77 time=0\n",
      "note_on channel=9 note=42 velocity=0 time=0\n",
      "note_on channel=9 note=69 velocity=127 time=30\n",
      "note_on channel=9 note=69 velocity=0 time=0\n",
      "note_on channel=9 note=69 velocity=61 time=30\n",
      "note_on channel=9 note=69 velocity=0 time=0\n",
      "note_on channel=9 note=38 velocity=127 time=0\n",
      "note_on channel=9 note=38 velocity=0 time=0\n",
      "note_on channel=9 note=36 velocity=127 time=0\n",
      "note_on channel=9 note=36 velocity=0 time=0\n",
      "note_on channel=9 note=42 velocity=127 time=0\n",
      "note_on channel=9 note=42 velocity=0 time=0\n",
      "note_on channel=9 note=69 velocity=61 time=30\n",
      "note_on channel=9 note=69 velocity=0 time=0\n",
      "note_on channel=9 note=69 velocity=127 time=30\n",
      "note_on channel=9 note=69 velocity=0 time=0\n",
      "note_on channel=9 note=42 velocity=77 time=0\n",
      "note_on channel=9 note=42 velocity=0 time=0\n",
      "note_on channel=9 note=69 velocity=127 time=30\n",
      "note_on channel=9 note=69 velocity=0 time=0\n",
      "note_on channel=9 note=69 velocity=61 time=30\n",
      "note_on channel=9 note=69 velocity=0 time=0\n",
      "note_on channel=9 note=36 velocity=127 time=0\n",
      "note_on channel=9 note=36 velocity=0 time=0\n",
      "note_on channel=9 note=42 velocity=77 time=0\n",
      "note_on channel=9 note=42 velocity=0 time=0\n",
      "note_on channel=9 note=69 velocity=61 time=30\n",
      "note_on channel=9 note=69 velocity=0 time=0\n",
      "note_on channel=9 note=69 velocity=127 time=30\n",
      "note_on channel=9 note=69 velocity=0 time=0\n",
      "note_on channel=9 note=42 velocity=77 time=0\n",
      "note_on channel=9 note=42 velocity=0 time=0\n",
      "note_on channel=9 note=69 velocity=127 time=30\n",
      "note_on channel=9 note=69 velocity=0 time=0\n",
      "note_on channel=9 note=69 velocity=61 time=30\n",
      "note_on channel=9 note=69 velocity=0 time=0\n",
      "note_on channel=9 note=38 velocity=127 time=0\n",
      "note_on channel=9 note=38 velocity=0 time=0\n",
      "note_on channel=9 note=36 velocity=127 time=0\n",
      "note_on channel=9 note=36 velocity=0 time=0\n",
      "note_on channel=9 note=42 velocity=127 time=0\n",
      "note_on channel=9 note=42 velocity=0 time=0\n",
      "note_on channel=9 note=69 velocity=61 time=30\n",
      "note_on channel=9 note=69 velocity=0 time=0\n",
      "note_on channel=9 note=69 velocity=127 time=30\n",
      "note_on channel=9 note=69 velocity=0 time=0\n",
      "note_on channel=9 note=42 velocity=77 time=0\n",
      "note_on channel=9 note=42 velocity=0 time=0\n",
      "note_on channel=9 note=69 velocity=127 time=30\n",
      "note_on channel=9 note=69 velocity=0 time=0\n",
      "note_on channel=9 note=69 velocity=61 time=30\n",
      "note_on channel=9 note=69 velocity=0 time=0\n",
      "note_on channel=9 note=36 velocity=127 time=0\n",
      "note_on channel=9 note=36 velocity=0 time=0\n",
      "note_on channel=9 note=42 velocity=77 time=0\n",
      "note_on channel=9 note=42 velocity=0 time=0\n",
      "note_on channel=9 note=69 velocity=61 time=30\n",
      "note_on channel=9 note=69 velocity=0 time=0\n",
      "note_on channel=9 note=69 velocity=127 time=30\n",
      "note_on channel=9 note=69 velocity=0 time=0\n",
      "note_on channel=9 note=42 velocity=77 time=0\n",
      "note_on channel=9 note=42 velocity=0 time=0\n",
      "note_on channel=9 note=69 velocity=127 time=30\n",
      "note_on channel=9 note=69 velocity=0 time=0\n",
      "note_on channel=9 note=69 velocity=61 time=30\n",
      "note_on channel=9 note=69 velocity=0 time=0\n",
      "note_on channel=9 note=38 velocity=127 time=0\n",
      "note_on channel=9 note=38 velocity=0 time=0\n",
      "note_on channel=9 note=36 velocity=127 time=0\n",
      "note_on channel=9 note=36 velocity=0 time=0\n",
      "note_on channel=9 note=42 velocity=127 time=0\n",
      "note_on channel=9 note=42 velocity=0 time=0\n",
      "note_on channel=9 note=69 velocity=61 time=30\n",
      "note_on channel=9 note=69 velocity=0 time=0\n",
      "note_on channel=9 note=69 velocity=127 time=30\n",
      "note_on channel=9 note=69 velocity=0 time=0\n",
      "note_on channel=9 note=42 velocity=77 time=0\n",
      "note_on channel=9 note=42 velocity=0 time=0\n",
      "note_on channel=9 note=69 velocity=127 time=30\n",
      "note_on channel=9 note=69 velocity=0 time=0\n",
      "note_on channel=9 note=69 velocity=61 time=30\n",
      "note_on channel=9 note=69 velocity=0 time=0\n",
      "note_on channel=9 note=36 velocity=127 time=0\n",
      "note_on channel=9 note=36 velocity=0 time=0\n",
      "note_on channel=9 note=42 velocity=77 time=0\n",
      "note_on channel=9 note=42 velocity=0 time=0\n",
      "note_on channel=9 note=69 velocity=61 time=30\n",
      "note_on channel=9 note=69 velocity=0 time=0\n",
      "note_on channel=9 note=69 velocity=127 time=30\n",
      "note_on channel=9 note=69 velocity=0 time=0\n",
      "note_on channel=9 note=42 velocity=77 time=0\n",
      "note_on channel=9 note=42 velocity=0 time=0\n",
      "note_on channel=9 note=69 velocity=127 time=30\n",
      "note_on channel=9 note=69 velocity=0 time=0\n",
      "note_on channel=9 note=69 velocity=61 time=30\n",
      "note_on channel=9 note=69 velocity=0 time=0\n",
      "note_on channel=9 note=38 velocity=127 time=0\n",
      "note_on channel=9 note=38 velocity=0 time=0\n",
      "note_on channel=9 note=36 velocity=127 time=0\n",
      "note_on channel=9 note=42 velocity=127 time=0\n",
      "note_on channel=9 note=42 velocity=0 time=0\n",
      "note_on channel=9 note=36 velocity=0 time=5\n",
      "note_on channel=9 note=69 velocity=61 time=25\n",
      "note_on channel=9 note=69 velocity=0 time=0\n",
      "note_on channel=9 note=69 velocity=127 time=30\n",
      "note_on channel=9 note=69 velocity=0 time=0\n",
      "note_on channel=9 note=42 velocity=77 time=0\n",
      "note_on channel=9 note=42 velocity=0 time=0\n",
      "note_on channel=9 note=69 velocity=127 time=30\n",
      "note_on channel=9 note=69 velocity=0 time=0\n",
      "note_on channel=9 note=69 velocity=61 time=30\n",
      "note_on channel=9 note=69 velocity=0 time=0\n",
      "note_on channel=9 note=36 velocity=127 time=0\n",
      "note_on channel=9 note=36 velocity=0 time=0\n",
      "note_on channel=9 note=42 velocity=77 time=0\n",
      "note_on channel=9 note=42 velocity=0 time=0\n",
      "note_on channel=9 note=69 velocity=61 time=30\n",
      "note_on channel=9 note=69 velocity=0 time=0\n",
      "note_on channel=9 note=69 velocity=127 time=30\n",
      "note_on channel=9 note=69 velocity=0 time=0\n",
      "note_on channel=9 note=42 velocity=77 time=0\n",
      "note_on channel=9 note=42 velocity=0 time=0\n",
      "note_on channel=9 note=69 velocity=127 time=30\n",
      "note_on channel=9 note=69 velocity=0 time=0\n",
      "note_on channel=9 note=69 velocity=61 time=30\n",
      "note_on channel=9 note=69 velocity=0 time=0\n",
      "note_on channel=9 note=38 velocity=127 time=0\n",
      "note_on channel=9 note=38 velocity=0 time=0\n",
      "note_on channel=9 note=36 velocity=127 time=0\n",
      "note_on channel=9 note=36 velocity=0 time=0\n",
      "note_on channel=9 note=42 velocity=127 time=0\n",
      "note_on channel=9 note=42 velocity=0 time=0\n",
      "note_on channel=9 note=69 velocity=61 time=30\n",
      "note_on channel=9 note=69 velocity=0 time=0\n",
      "note_on channel=9 note=69 velocity=127 time=30\n",
      "note_on channel=9 note=69 velocity=0 time=0\n",
      "note_on channel=9 note=42 velocity=77 time=0\n",
      "note_on channel=9 note=42 velocity=0 time=0\n",
      "note_on channel=9 note=69 velocity=127 time=30\n",
      "note_on channel=9 note=69 velocity=0 time=0\n",
      "note_on channel=9 note=69 velocity=61 time=30\n",
      "note_on channel=9 note=69 velocity=0 time=0\n",
      "note_on channel=9 note=36 velocity=127 time=0\n",
      "note_on channel=9 note=36 velocity=0 time=0\n",
      "note_on channel=9 note=42 velocity=77 time=0\n",
      "note_on channel=9 note=42 velocity=0 time=0\n",
      "note_on channel=9 note=69 velocity=61 time=30\n",
      "note_on channel=9 note=69 velocity=0 time=0\n",
      "note_on channel=9 note=69 velocity=127 time=30\n",
      "note_on channel=9 note=69 velocity=0 time=0\n",
      "note_on channel=9 note=42 velocity=77 time=0\n",
      "note_on channel=9 note=42 velocity=0 time=0\n",
      "note_on channel=9 note=69 velocity=127 time=30\n",
      "note_on channel=9 note=69 velocity=0 time=0\n",
      "note_on channel=9 note=69 velocity=61 time=30\n",
      "note_on channel=9 note=69 velocity=0 time=0\n",
      "note_on channel=9 note=38 velocity=127 time=0\n",
      "note_on channel=9 note=38 velocity=0 time=0\n",
      "note_on channel=9 note=36 velocity=127 time=0\n",
      "note_on channel=9 note=36 velocity=0 time=0\n",
      "note_on channel=9 note=42 velocity=127 time=0\n",
      "note_on channel=9 note=42 velocity=0 time=0\n",
      "note_on channel=9 note=69 velocity=61 time=30\n",
      "note_on channel=9 note=69 velocity=0 time=0\n",
      "note_on channel=9 note=69 velocity=127 time=30\n",
      "note_on channel=9 note=69 velocity=0 time=0\n",
      "note_on channel=9 note=42 velocity=77 time=0\n",
      "note_on channel=9 note=42 velocity=0 time=0\n",
      "note_on channel=9 note=69 velocity=127 time=30\n",
      "note_on channel=9 note=69 velocity=0 time=0\n",
      "note_on channel=9 note=69 velocity=61 time=30\n",
      "note_on channel=9 note=69 velocity=0 time=0\n",
      "note_on channel=9 note=36 velocity=127 time=0\n",
      "note_on channel=9 note=36 velocity=0 time=0\n",
      "note_on channel=9 note=42 velocity=77 time=0\n",
      "note_on channel=9 note=42 velocity=0 time=0\n",
      "note_on channel=9 note=69 velocity=61 time=30\n",
      "note_on channel=9 note=69 velocity=0 time=0\n",
      "note_on channel=9 note=69 velocity=127 time=30\n",
      "note_on channel=9 note=69 velocity=0 time=0\n",
      "note_on channel=9 note=38 velocity=127 time=0\n",
      "note_on channel=9 note=38 velocity=0 time=0\n",
      "note_on channel=9 note=42 velocity=77 time=0\n",
      "note_on channel=9 note=42 velocity=0 time=0\n",
      "note_on channel=9 note=69 velocity=127 time=30\n",
      "note_on channel=9 note=69 velocity=0 time=0\n",
      "note_on channel=9 note=38 velocity=127 time=0\n",
      "note_on channel=9 note=38 velocity=0 time=0\n",
      "note_on channel=9 note=69 velocity=61 time=30\n",
      "note_on channel=9 note=69 velocity=0 time=0\n",
      "note_on channel=9 note=38 velocity=127 time=0\n",
      "note_on channel=9 note=38 velocity=0 time=0\n",
      "note_on channel=9 note=36 velocity=127 time=0\n",
      "note_on channel=9 note=36 velocity=0 time=0\n",
      "note_on channel=9 note=42 velocity=77 time=0\n",
      "note_on channel=9 note=42 velocity=0 time=0\n",
      "note_on channel=9 note=69 velocity=61 time=30\n",
      "note_on channel=9 note=69 velocity=0 time=0\n",
      "note_on channel=9 note=41 velocity=113 time=0\n",
      "note_on channel=9 note=41 velocity=0 time=0\n",
      "note_on channel=9 note=69 velocity=127 time=30\n",
      "note_on channel=9 note=69 velocity=0 time=0\n",
      "note_on channel=9 note=42 velocity=77 time=0\n",
      "note_on channel=9 note=42 velocity=0 time=0\n",
      "note_on channel=9 note=69 velocity=127 time=30\n",
      "note_on channel=9 note=69 velocity=0 time=0\n",
      "note_on channel=9 note=69 velocity=61 time=30\n",
      "note_on channel=9 note=69 velocity=0 time=0\n",
      "note_on channel=9 note=36 velocity=127 time=0\n",
      "note_on channel=9 note=36 velocity=0 time=0\n",
      "note_on channel=9 note=42 velocity=77 time=0\n",
      "note_on channel=9 note=42 velocity=0 time=0\n",
      "note_on channel=9 note=49 velocity=85 time=5\n",
      "note_on channel=9 note=49 velocity=0 time=0\n",
      "note_on channel=9 note=69 velocity=61 time=25\n",
      "note_on channel=9 note=69 velocity=0 time=0\n",
      "note_on channel=9 note=69 velocity=127 time=30\n",
      "note_on channel=9 note=69 velocity=0 time=0\n",
      "note_on channel=9 note=42 velocity=77 time=0\n",
      "note_on channel=9 note=42 velocity=0 time=0\n",
      "note_on channel=9 note=69 velocity=127 time=30\n",
      "note_on channel=9 note=69 velocity=0 time=0\n",
      "note_on channel=9 note=69 velocity=61 time=30\n",
      "note_on channel=9 note=69 velocity=0 time=0\n",
      "note_on channel=9 note=38 velocity=127 time=0\n",
      "note_on channel=9 note=38 velocity=0 time=0\n",
      "note_on channel=9 note=36 velocity=127 time=0\n",
      "note_on channel=9 note=36 velocity=0 time=0\n",
      "note_on channel=9 note=42 velocity=127 time=0\n",
      "note_on channel=9 note=42 velocity=0 time=0\n",
      "note_on channel=9 note=69 velocity=61 time=30\n",
      "note_on channel=9 note=69 velocity=0 time=0\n",
      "note_on channel=9 note=69 velocity=127 time=30\n",
      "note_on channel=9 note=69 velocity=0 time=0\n",
      "note_on channel=9 note=42 velocity=77 time=0\n",
      "note_on channel=9 note=42 velocity=0 time=0\n",
      "note_on channel=9 note=69 velocity=127 time=30\n",
      "note_on channel=9 note=69 velocity=0 time=0\n",
      "note_on channel=9 note=69 velocity=61 time=30\n",
      "note_on channel=9 note=69 velocity=0 time=0\n",
      "note_on channel=9 note=36 velocity=127 time=0\n",
      "note_on channel=9 note=36 velocity=0 time=0\n",
      "note_on channel=9 note=42 velocity=77 time=0\n",
      "note_on channel=9 note=42 velocity=0 time=0\n",
      "note_on channel=9 note=69 velocity=61 time=30\n",
      "note_on channel=9 note=69 velocity=0 time=0\n",
      "note_on channel=9 note=69 velocity=127 time=30\n",
      "note_on channel=9 note=69 velocity=0 time=0\n",
      "note_on channel=9 note=42 velocity=77 time=0\n",
      "note_on channel=9 note=42 velocity=0 time=0\n",
      "note_on channel=9 note=69 velocity=127 time=30\n",
      "note_on channel=9 note=69 velocity=0 time=0\n",
      "note_on channel=9 note=69 velocity=61 time=30\n",
      "note_on channel=9 note=69 velocity=0 time=0\n",
      "note_on channel=9 note=38 velocity=127 time=0\n",
      "note_on channel=9 note=38 velocity=0 time=0\n",
      "note_on channel=9 note=36 velocity=127 time=0\n",
      "note_on channel=9 note=42 velocity=127 time=0\n",
      "note_on channel=9 note=42 velocity=0 time=5\n",
      "note_on channel=9 note=36 velocity=0 time=0\n",
      "note_on channel=9 note=69 velocity=61 time=25\n",
      "note_on channel=9 note=69 velocity=0 time=0\n",
      "note_on channel=9 note=69 velocity=127 time=30\n",
      "note_on channel=9 note=69 velocity=0 time=0\n",
      "note_on channel=9 note=42 velocity=77 time=0\n",
      "note_on channel=9 note=42 velocity=0 time=0\n",
      "note_on channel=9 note=69 velocity=127 time=30\n",
      "note_on channel=9 note=69 velocity=0 time=0\n",
      "note_on channel=9 note=69 velocity=61 time=30\n",
      "note_on channel=9 note=69 velocity=0 time=0\n",
      "note_on channel=9 note=36 velocity=127 time=0\n",
      "note_on channel=9 note=36 velocity=0 time=0\n",
      "note_on channel=9 note=42 velocity=77 time=0\n",
      "note_on channel=9 note=42 velocity=0 time=0\n",
      "note_on channel=9 note=69 velocity=61 time=30\n",
      "note_on channel=9 note=69 velocity=0 time=0\n",
      "note_on channel=9 note=69 velocity=127 time=30\n",
      "note_on channel=9 note=69 velocity=0 time=0\n",
      "note_on channel=9 note=42 velocity=77 time=0\n",
      "note_on channel=9 note=42 velocity=0 time=0\n",
      "note_on channel=9 note=69 velocity=127 time=30\n",
      "note_on channel=9 note=69 velocity=0 time=0\n",
      "note_on channel=9 note=69 velocity=61 time=30\n",
      "note_on channel=9 note=69 velocity=0 time=0\n",
      "note_on channel=9 note=38 velocity=127 time=0\n",
      "note_on channel=9 note=38 velocity=0 time=0\n",
      "note_on channel=9 note=36 velocity=127 time=0\n",
      "note_on channel=9 note=36 velocity=0 time=0\n",
      "note_on channel=9 note=42 velocity=127 time=0\n",
      "note_on channel=9 note=42 velocity=0 time=0\n",
      "note_on channel=9 note=69 velocity=61 time=30\n",
      "note_on channel=9 note=69 velocity=0 time=0\n",
      "note_on channel=9 note=69 velocity=127 time=30\n",
      "note_on channel=9 note=69 velocity=0 time=0\n",
      "note_on channel=9 note=42 velocity=77 time=0\n",
      "note_on channel=9 note=42 velocity=0 time=0\n",
      "note_on channel=9 note=69 velocity=127 time=30\n",
      "note_on channel=9 note=69 velocity=0 time=0\n",
      "note_on channel=9 note=69 velocity=61 time=30\n",
      "note_on channel=9 note=69 velocity=0 time=0\n",
      "note_on channel=9 note=36 velocity=127 time=0\n",
      "note_on channel=9 note=36 velocity=0 time=0\n",
      "note_on channel=9 note=42 velocity=77 time=0\n",
      "note_on channel=9 note=42 velocity=0 time=0\n",
      "note_on channel=9 note=69 velocity=61 time=30\n",
      "note_on channel=9 note=69 velocity=0 time=0\n",
      "note_on channel=9 note=69 velocity=127 time=30\n",
      "note_on channel=9 note=69 velocity=0 time=0\n",
      "note_on channel=9 note=42 velocity=77 time=0\n",
      "note_on channel=9 note=42 velocity=0 time=0\n",
      "note_on channel=9 note=69 velocity=127 time=30\n",
      "note_on channel=9 note=69 velocity=0 time=0\n",
      "note_on channel=9 note=69 velocity=61 time=30\n",
      "note_on channel=9 note=69 velocity=0 time=0\n",
      "note_on channel=9 note=38 velocity=127 time=0\n",
      "note_on channel=9 note=38 velocity=0 time=0\n",
      "note_on channel=9 note=36 velocity=127 time=0\n",
      "note_on channel=9 note=42 velocity=127 time=0\n",
      "note_on channel=9 note=42 velocity=0 time=5\n",
      "note_on channel=9 note=36 velocity=0 time=0\n",
      "note_on channel=9 note=69 velocity=61 time=25\n",
      "note_on channel=9 note=69 velocity=0 time=0\n",
      "note_on channel=9 note=69 velocity=127 time=30\n",
      "note_on channel=9 note=69 velocity=0 time=0\n",
      "note_on channel=9 note=42 velocity=77 time=0\n",
      "note_on channel=9 note=42 velocity=0 time=0\n",
      "note_on channel=9 note=69 velocity=127 time=30\n",
      "note_on channel=9 note=69 velocity=0 time=0\n",
      "note_on channel=9 note=69 velocity=61 time=30\n",
      "note_on channel=9 note=69 velocity=0 time=0\n",
      "note_on channel=9 note=36 velocity=127 time=0\n",
      "note_on channel=9 note=36 velocity=0 time=0\n",
      "note_on channel=9 note=42 velocity=77 time=0\n",
      "note_on channel=9 note=42 velocity=0 time=0\n",
      "note_on channel=9 note=69 velocity=61 time=30\n",
      "note_on channel=9 note=69 velocity=0 time=0\n",
      "note_on channel=9 note=69 velocity=127 time=30\n",
      "note_on channel=9 note=69 velocity=0 time=0\n",
      "note_on channel=9 note=42 velocity=77 time=0\n",
      "note_on channel=9 note=42 velocity=0 time=0\n",
      "note_on channel=9 note=69 velocity=127 time=30\n",
      "note_on channel=9 note=69 velocity=0 time=0\n",
      "note_on channel=9 note=69 velocity=61 time=30\n",
      "note_on channel=9 note=69 velocity=0 time=0\n",
      "note_on channel=9 note=38 velocity=127 time=0\n",
      "note_on channel=9 note=38 velocity=0 time=0\n",
      "note_on channel=9 note=36 velocity=127 time=0\n",
      "note_on channel=9 note=36 velocity=0 time=0\n",
      "note_on channel=9 note=42 velocity=127 time=0\n",
      "note_on channel=9 note=42 velocity=0 time=0\n",
      "note_on channel=9 note=69 velocity=61 time=30\n",
      "note_on channel=9 note=69 velocity=0 time=0\n",
      "note_on channel=9 note=69 velocity=127 time=30\n",
      "note_on channel=9 note=69 velocity=0 time=0\n",
      "note_on channel=9 note=42 velocity=77 time=0\n",
      "note_on channel=9 note=42 velocity=0 time=0\n",
      "note_on channel=9 note=69 velocity=127 time=30\n",
      "note_on channel=9 note=69 velocity=0 time=0\n",
      "note_on channel=9 note=69 velocity=61 time=30\n",
      "note_on channel=9 note=69 velocity=0 time=0\n",
      "note_on channel=9 note=36 velocity=127 time=0\n",
      "note_on channel=9 note=36 velocity=0 time=0\n",
      "note_on channel=9 note=42 velocity=77 time=0\n",
      "note_on channel=9 note=42 velocity=0 time=0\n",
      "note_on channel=9 note=69 velocity=61 time=30\n",
      "note_on channel=9 note=69 velocity=0 time=0\n",
      "note_on channel=9 note=69 velocity=127 time=30\n",
      "note_on channel=9 note=69 velocity=0 time=0\n",
      "note_on channel=9 note=42 velocity=77 time=0\n",
      "note_on channel=9 note=42 velocity=0 time=0\n",
      "note_on channel=9 note=69 velocity=127 time=30\n",
      "note_on channel=9 note=69 velocity=0 time=0\n",
      "note_on channel=9 note=69 velocity=61 time=30\n",
      "note_on channel=9 note=69 velocity=0 time=0\n",
      "note_on channel=9 note=38 velocity=127 time=0\n",
      "note_on channel=9 note=38 velocity=0 time=0\n",
      "note_on channel=9 note=36 velocity=127 time=0\n",
      "note_on channel=9 note=36 velocity=0 time=0\n",
      "note_on channel=9 note=42 velocity=127 time=0\n",
      "note_on channel=9 note=42 velocity=0 time=0\n",
      "note_on channel=9 note=69 velocity=61 time=30\n",
      "note_on channel=9 note=69 velocity=0 time=0\n",
      "note_on channel=9 note=69 velocity=127 time=30\n",
      "note_on channel=9 note=69 velocity=0 time=0\n",
      "note_on channel=9 note=42 velocity=77 time=0\n",
      "note_on channel=9 note=42 velocity=0 time=0\n",
      "note_on channel=9 note=69 velocity=127 time=30\n",
      "note_on channel=9 note=69 velocity=0 time=0\n",
      "note_on channel=9 note=69 velocity=61 time=30\n",
      "note_on channel=9 note=69 velocity=0 time=0\n",
      "note_on channel=9 note=36 velocity=127 time=0\n",
      "note_on channel=9 note=36 velocity=0 time=0\n",
      "note_on channel=9 note=42 velocity=77 time=0\n",
      "note_on channel=9 note=42 velocity=0 time=0\n",
      "note_on channel=9 note=69 velocity=61 time=30\n",
      "note_on channel=9 note=69 velocity=0 time=0\n",
      "note_on channel=9 note=69 velocity=127 time=30\n",
      "note_on channel=9 note=69 velocity=0 time=0\n",
      "note_on channel=9 note=42 velocity=77 time=0\n",
      "note_on channel=9 note=42 velocity=0 time=0\n",
      "note_on channel=9 note=69 velocity=127 time=30\n",
      "note_on channel=9 note=69 velocity=0 time=0\n",
      "note_on channel=9 note=69 velocity=61 time=30\n",
      "note_on channel=9 note=69 velocity=0 time=0\n",
      "note_on channel=9 note=38 velocity=127 time=0\n",
      "note_on channel=9 note=38 velocity=0 time=0\n",
      "note_on channel=9 note=36 velocity=127 time=0\n",
      "note_on channel=9 note=36 velocity=0 time=0\n",
      "note_on channel=9 note=42 velocity=127 time=5\n",
      "note_on channel=9 note=42 velocity=0 time=0\n",
      "note_on channel=9 note=69 velocity=61 time=25\n",
      "note_on channel=9 note=69 velocity=0 time=0\n",
      "note_on channel=9 note=69 velocity=127 time=30\n",
      "note_on channel=9 note=69 velocity=0 time=0\n",
      "note_on channel=9 note=42 velocity=77 time=0\n",
      "note_on channel=9 note=42 velocity=0 time=0\n",
      "note_on channel=9 note=69 velocity=127 time=30\n",
      "note_on channel=9 note=69 velocity=0 time=0\n",
      "note_on channel=9 note=69 velocity=61 time=30\n",
      "note_on channel=9 note=69 velocity=0 time=0\n",
      "note_on channel=9 note=36 velocity=127 time=0\n",
      "note_on channel=9 note=36 velocity=0 time=0\n",
      "note_on channel=9 note=42 velocity=77 time=0\n",
      "note_on channel=9 note=42 velocity=0 time=0\n",
      "note_on channel=9 note=69 velocity=61 time=30\n",
      "note_on channel=9 note=69 velocity=0 time=0\n",
      "note_on channel=9 note=69 velocity=127 time=30\n",
      "note_on channel=9 note=69 velocity=0 time=0\n",
      "note_on channel=9 note=38 velocity=127 time=0\n",
      "note_on channel=9 note=38 velocity=0 time=0\n",
      "note_on channel=9 note=42 velocity=77 time=0\n",
      "note_on channel=9 note=42 velocity=0 time=0\n",
      "note_on channel=9 note=69 velocity=127 time=30\n",
      "note_on channel=9 note=69 velocity=0 time=0\n",
      "note_on channel=9 note=69 velocity=61 time=30\n",
      "note_on channel=9 note=69 velocity=0 time=0\n",
      "note_on channel=9 note=38 velocity=127 time=0\n",
      "note_on channel=9 note=38 velocity=0 time=0\n",
      "note_on channel=9 note=36 velocity=127 time=0\n",
      "note_on channel=9 note=36 velocity=0 time=0\n",
      "note_on channel=9 note=42 velocity=127 time=0\n",
      "note_on channel=9 note=42 velocity=0 time=0\n",
      "note_on channel=9 note=69 velocity=61 time=30\n",
      "note_on channel=9 note=69 velocity=0 time=0\n",
      "note_on channel=9 note=69 velocity=127 time=30\n",
      "note_on channel=9 note=69 velocity=0 time=0\n",
      "note_on channel=9 note=38 velocity=127 time=0\n",
      "note_on channel=9 note=38 velocity=0 time=0\n",
      "note_on channel=9 note=42 velocity=77 time=0\n",
      "note_on channel=9 note=42 velocity=0 time=0\n",
      "note_on channel=9 note=69 velocity=127 time=30\n",
      "note_on channel=9 note=69 velocity=0 time=0\n",
      "note_on channel=9 note=38 velocity=127 time=0\n",
      "note_on channel=9 note=38 velocity=0 time=0\n",
      "note_on channel=9 note=69 velocity=61 time=30\n",
      "note_on channel=9 note=69 velocity=0 time=0\n",
      "note_on channel=9 note=36 velocity=127 time=0\n",
      "note_on channel=9 note=36 velocity=0 time=0\n",
      "note_on channel=9 note=49 velocity=85 time=0\n",
      "note_on channel=9 note=49 velocity=0 time=0\n",
      "note_on channel=9 note=69 velocity=61 time=30\n",
      "note_on channel=9 note=69 velocity=0 time=0\n",
      "note_on channel=9 note=69 velocity=127 time=30\n",
      "note_on channel=9 note=69 velocity=0 time=0\n",
      "note_on channel=9 note=69 velocity=127 time=30\n",
      "note_on channel=9 note=69 velocity=0 time=0\n",
      "note_on channel=9 note=69 velocity=61 time=30\n",
      "note_on channel=9 note=69 velocity=0 time=0\n",
      "note_on channel=9 note=36 velocity=127 time=0\n",
      "note_on channel=9 note=36 velocity=0 time=0\n",
      "note_on channel=9 note=39 velocity=127 time=0\n",
      "note_on channel=9 note=39 velocity=0 time=0\n",
      "note_on channel=9 note=69 velocity=61 time=30\n",
      "note_on channel=9 note=69 velocity=0 time=0\n",
      "note_on channel=9 note=69 velocity=127 time=30\n",
      "note_on channel=9 note=69 velocity=0 time=0\n",
      "note_on channel=9 note=69 velocity=127 time=30\n",
      "note_on channel=9 note=69 velocity=0 time=0\n",
      "note_on channel=9 note=69 velocity=61 time=30\n",
      "note_on channel=9 note=69 velocity=0 time=0\n",
      "note_on channel=9 note=36 velocity=127 time=0\n",
      "note_on channel=9 note=36 velocity=0 time=0\n",
      "note_on channel=9 note=39 velocity=127 time=0\n",
      "note_on channel=9 note=39 velocity=0 time=0\n",
      "note_on channel=9 note=69 velocity=61 time=30\n",
      "note_on channel=9 note=69 velocity=0 time=0\n",
      "note_on channel=9 note=69 velocity=127 time=30\n",
      "note_on channel=9 note=69 velocity=0 time=0\n",
      "note_on channel=9 note=39 velocity=127 time=0\n",
      "note_on channel=9 note=39 velocity=0 time=0\n",
      "note_on channel=9 note=69 velocity=127 time=30\n",
      "note_on channel=9 note=69 velocity=0 time=0\n",
      "note_on channel=9 note=69 velocity=61 time=30\n",
      "note_on channel=9 note=69 velocity=0 time=0\n",
      "note_on channel=9 note=36 velocity=127 time=0\n",
      "note_on channel=9 note=36 velocity=0 time=0\n",
      "note_on channel=9 note=69 velocity=61 time=30\n",
      "note_on channel=9 note=69 velocity=0 time=0\n",
      "note_on channel=9 note=39 velocity=127 time=0\n",
      "note_on channel=9 note=39 velocity=0 time=0\n",
      "note_on channel=9 note=69 velocity=127 time=30\n",
      "note_on channel=9 note=69 velocity=0 time=0\n",
      "note_on channel=9 note=69 velocity=127 time=30\n",
      "note_on channel=9 note=69 velocity=0 time=0\n",
      "note_on channel=9 note=69 velocity=61 time=30\n",
      "note_on channel=9 note=69 velocity=0 time=0\n",
      "note_on channel=9 note=36 velocity=127 time=0\n",
      "note_on channel=9 note=36 velocity=0 time=0\n",
      "note_on channel=9 note=39 velocity=127 time=0\n",
      "note_on channel=9 note=39 velocity=0 time=0\n",
      "note_on channel=9 note=69 velocity=61 time=30\n",
      "note_on channel=9 note=69 velocity=0 time=0\n",
      "note_on channel=9 note=69 velocity=127 time=30\n",
      "note_on channel=9 note=69 velocity=0 time=0\n",
      "note_on channel=9 note=69 velocity=127 time=30\n",
      "note_on channel=9 note=69 velocity=0 time=0\n",
      "note_on channel=9 note=39 velocity=127 time=0\n",
      "note_on channel=9 note=39 velocity=0 time=0\n",
      "note_on channel=9 note=69 velocity=61 time=30\n",
      "note_on channel=9 note=69 velocity=0 time=0\n",
      "note_on channel=9 note=36 velocity=127 time=0\n",
      "note_on channel=9 note=36 velocity=0 time=0\n",
      "note_on channel=9 note=69 velocity=61 time=30\n",
      "note_on channel=9 note=69 velocity=0 time=0\n",
      "note_on channel=9 note=69 velocity=127 time=30\n",
      "note_on channel=9 note=69 velocity=0 time=0\n",
      "note_on channel=9 note=39 velocity=127 time=0\n",
      "note_on channel=9 note=39 velocity=0 time=0\n",
      "note_on channel=9 note=69 velocity=127 time=30\n",
      "note_on channel=9 note=69 velocity=0 time=0\n",
      "note_on channel=9 note=69 velocity=61 time=30\n",
      "note_on channel=9 note=69 velocity=0 time=0\n",
      "note_on channel=9 note=36 velocity=127 time=0\n",
      "note_on channel=9 note=36 velocity=0 time=0\n",
      "note_on channel=9 note=39 velocity=127 time=0\n",
      "note_on channel=9 note=39 velocity=0 time=0\n",
      "note_on channel=9 note=69 velocity=61 time=30\n",
      "note_on channel=9 note=69 velocity=0 time=0\n",
      "note_on channel=9 note=69 velocity=127 time=30\n",
      "note_on channel=9 note=69 velocity=0 time=0\n",
      "note_on channel=9 note=39 velocity=127 time=0\n",
      "note_on channel=9 note=39 velocity=0 time=0\n",
      "note_on channel=9 note=69 velocity=127 time=30\n",
      "note_on channel=9 note=69 velocity=0 time=0\n",
      "note_on channel=9 note=69 velocity=61 time=30\n",
      "note_on channel=9 note=69 velocity=0 time=0\n",
      "note_on channel=9 note=36 velocity=127 time=0\n",
      "note_on channel=9 note=36 velocity=0 time=0\n",
      "note_on channel=9 note=39 velocity=127 time=0\n",
      "note_on channel=9 note=39 velocity=0 time=0\n",
      "note_on channel=9 note=69 velocity=61 time=30\n",
      "note_on channel=9 note=69 velocity=0 time=0\n",
      "note_on channel=9 note=39 velocity=127 time=0\n",
      "note_on channel=9 note=39 velocity=0 time=0\n",
      "note_on channel=9 note=69 velocity=127 time=30\n",
      "note_on channel=9 note=69 velocity=0 time=0\n",
      "note_on channel=9 note=69 velocity=127 time=30\n",
      "note_on channel=9 note=69 velocity=0 time=0\n",
      "note_on channel=9 note=69 velocity=61 time=30\n",
      "note_on channel=9 note=69 velocity=0 time=0\n",
      "note_on channel=9 note=36 velocity=127 time=0\n",
      "note_on channel=9 note=36 velocity=0 time=0\n",
      "note_on channel=9 note=69 velocity=61 time=30\n",
      "note_on channel=9 note=69 velocity=0 time=0\n",
      "note_on channel=9 note=69 velocity=127 time=30\n",
      "note_on channel=9 note=69 velocity=0 time=0\n",
      "note_on channel=9 note=69 velocity=127 time=30\n",
      "note_on channel=9 note=69 velocity=0 time=0\n",
      "note_on channel=9 note=69 velocity=61 time=30\n",
      "note_on channel=9 note=69 velocity=0 time=0\n",
      "note_on channel=9 note=36 velocity=127 time=0\n",
      "note_on channel=9 note=36 velocity=0 time=0\n",
      "note_on channel=9 note=39 velocity=127 time=0\n",
      "note_on channel=9 note=39 velocity=0 time=0\n",
      "note_on channel=9 note=69 velocity=61 time=30\n",
      "note_on channel=9 note=69 velocity=0 time=0\n",
      "note_on channel=9 note=69 velocity=127 time=30\n",
      "note_on channel=9 note=69 velocity=0 time=0\n",
      "note_on channel=9 note=69 velocity=127 time=30\n",
      "note_on channel=9 note=69 velocity=0 time=0\n",
      "note_on channel=9 note=69 velocity=61 time=30\n",
      "note_on channel=9 note=69 velocity=0 time=0\n",
      "note_on channel=9 note=36 velocity=127 time=0\n",
      "note_on channel=9 note=36 velocity=0 time=0\n",
      "note_on channel=9 note=39 velocity=127 time=0\n",
      "note_on channel=9 note=39 velocity=0 time=0\n",
      "note_on channel=9 note=69 velocity=61 time=30\n",
      "note_on channel=9 note=69 velocity=0 time=0\n",
      "note_on channel=9 note=69 velocity=127 time=30\n",
      "note_on channel=9 note=69 velocity=0 time=0\n",
      "note_on channel=9 note=39 velocity=127 time=0\n",
      "note_on channel=9 note=39 velocity=0 time=0\n",
      "note_on channel=9 note=69 velocity=127 time=30\n",
      "note_on channel=9 note=69 velocity=0 time=0\n",
      "note_on channel=9 note=69 velocity=61 time=30\n",
      "note_on channel=9 note=69 velocity=0 time=0\n",
      "note_on channel=9 note=36 velocity=127 time=0\n",
      "note_on channel=9 note=36 velocity=0 time=0\n",
      "note_on channel=9 note=69 velocity=61 time=30\n",
      "note_on channel=9 note=69 velocity=0 time=0\n",
      "note_on channel=9 note=39 velocity=127 time=0\n",
      "note_on channel=9 note=39 velocity=0 time=0\n",
      "note_on channel=9 note=69 velocity=127 time=30\n",
      "note_on channel=9 note=69 velocity=0 time=0\n",
      "note_on channel=9 note=69 velocity=127 time=30\n",
      "note_on channel=9 note=69 velocity=0 time=0\n",
      "note_on channel=9 note=69 velocity=61 time=30\n",
      "note_on channel=9 note=69 velocity=0 time=0\n",
      "note_on channel=9 note=38 velocity=127 time=0\n",
      "note_on channel=9 note=38 velocity=0 time=0\n",
      "note_on channel=9 note=36 velocity=127 time=0\n",
      "note_on channel=9 note=36 velocity=0 time=0\n",
      "note_on channel=9 note=39 velocity=127 time=0\n",
      "note_on channel=9 note=39 velocity=0 time=0\n",
      "note_on channel=9 note=69 velocity=61 time=30\n",
      "note_on channel=9 note=69 velocity=0 time=0\n",
      "note_on channel=9 note=38 velocity=127 time=0\n",
      "note_on channel=9 note=38 velocity=0 time=0\n",
      "note_on channel=9 note=69 velocity=127 time=30\n",
      "note_on channel=9 note=69 velocity=0 time=0\n",
      "note_on channel=9 note=38 velocity=127 time=0\n",
      "note_on channel=9 note=38 velocity=0 time=0\n",
      "note_on channel=9 note=39 velocity=127 time=0\n",
      "note_on channel=9 note=39 velocity=0 time=0\n",
      "note_on channel=9 note=69 velocity=127 time=30\n",
      "note_on channel=9 note=69 velocity=0 time=0\n",
      "note_on channel=9 note=38 velocity=127 time=0\n",
      "note_on channel=9 note=38 velocity=0 time=0\n",
      "note_on channel=9 note=69 velocity=61 time=30\n",
      "note_on channel=9 note=69 velocity=0 time=0\n",
      "note_on channel=9 note=38 velocity=127 time=0\n",
      "note_on channel=9 note=38 velocity=0 time=0\n",
      "note_on channel=9 note=36 velocity=127 time=0\n",
      "note_on channel=9 note=36 velocity=0 time=0\n",
      "note_on channel=9 note=69 velocity=61 time=30\n",
      "note_on channel=9 note=69 velocity=0 time=0\n",
      "note_on channel=9 note=39 velocity=127 time=0\n",
      "note_on channel=9 note=39 velocity=0 time=0\n",
      "note_on channel=9 note=69 velocity=127 time=30\n",
      "note_on channel=9 note=69 velocity=0 time=0\n",
      "note_on channel=9 note=69 velocity=127 time=30\n",
      "note_on channel=9 note=69 velocity=0 time=0\n",
      "note_on channel=9 note=38 velocity=127 time=0\n",
      "note_on channel=9 note=38 velocity=0 time=0\n",
      "note_on channel=9 note=48 velocity=113 time=30\n",
      "note_on channel=9 note=48 velocity=0 time=0\n",
      "note_on channel=9 note=69 velocity=61 time=0\n",
      "note_on channel=9 note=69 velocity=0 time=0\n",
      "note_on channel=9 note=36 velocity=127 time=0\n",
      "note_on channel=9 note=36 velocity=0 time=0\n",
      "note_on channel=9 note=39 velocity=127 time=0\n",
      "note_on channel=9 note=39 velocity=0 time=0\n",
      "note_on channel=9 note=48 velocity=113 time=30\n",
      "note_on channel=9 note=48 velocity=0 time=0\n",
      "note_on channel=9 note=69 velocity=61 time=0\n",
      "note_on channel=9 note=69 velocity=0 time=0\n",
      "note_on channel=9 note=45 velocity=113 time=30\n",
      "note_on channel=9 note=45 velocity=0 time=0\n",
      "note_on channel=9 note=69 velocity=127 time=0\n",
      "note_on channel=9 note=69 velocity=0 time=0\n",
      "note_on channel=9 note=45 velocity=113 time=30\n",
      "note_on channel=9 note=45 velocity=0 time=0\n",
      "note_on channel=9 note=69 velocity=127 time=0\n",
      "note_on channel=9 note=69 velocity=0 time=0\n",
      "note_on channel=9 note=69 velocity=61 time=30\n",
      "note_on channel=9 note=69 velocity=0 time=0\n",
      "note_on channel=9 note=36 velocity=127 time=0\n",
      "note_on channel=9 note=36 velocity=0 time=0\n",
      "note_on channel=9 note=39 velocity=127 time=0\n",
      "note_on channel=9 note=39 velocity=0 time=0\n",
      "note_on channel=9 note=69 velocity=61 time=30\n",
      "note_on channel=9 note=69 velocity=0 time=0\n",
      "note_on channel=9 note=41 velocity=113 time=0\n",
      "note_on channel=9 note=41 velocity=0 time=0\n",
      "note_on channel=9 note=69 velocity=127 time=30\n",
      "note_on channel=9 note=69 velocity=0 time=0\n",
      "note_on channel=9 note=41 velocity=113 time=0\n",
      "note_on channel=9 note=41 velocity=0 time=0\n",
      "note_on channel=9 note=39 velocity=127 time=0\n",
      "note_on channel=9 note=39 velocity=0 time=0\n",
      "note_on channel=9 note=69 velocity=127 time=30\n",
      "note_on channel=9 note=69 velocity=0 time=0\n",
      "note_on channel=9 note=39 velocity=127 time=0\n",
      "note_on channel=9 note=39 velocity=0 time=0\n",
      "note_on channel=9 note=69 velocity=61 time=30\n",
      "note_on channel=9 note=69 velocity=0 time=0\n",
      "note_on channel=9 note=36 velocity=127 time=0\n",
      "note_on channel=9 note=36 velocity=0 time=0\n",
      "note_on channel=9 note=49 velocity=85 time=0\n",
      "note_on channel=9 note=49 velocity=0 time=0\n",
      "note_on channel=9 note=69 velocity=61 time=30\n",
      "note_on channel=9 note=69 velocity=0 time=0\n",
      "note_on channel=9 note=69 velocity=127 time=30\n",
      "note_on channel=9 note=69 velocity=0 time=0\n",
      "note_on channel=9 note=69 velocity=127 time=30\n",
      "note_on channel=9 note=69 velocity=0 time=0\n",
      "note_on channel=9 note=69 velocity=61 time=30\n",
      "note_on channel=9 note=69 velocity=0 time=0\n",
      "note_on channel=9 note=36 velocity=127 time=0\n",
      "note_on channel=9 note=36 velocity=0 time=0\n",
      "note_on channel=9 note=39 velocity=127 time=0\n",
      "note_on channel=9 note=39 velocity=0 time=0\n",
      "note_on channel=9 note=69 velocity=61 time=30\n",
      "note_on channel=9 note=69 velocity=0 time=0\n",
      "note_on channel=9 note=69 velocity=127 time=30\n",
      "note_on channel=9 note=69 velocity=0 time=0\n",
      "note_on channel=9 note=69 velocity=127 time=30\n",
      "note_on channel=9 note=69 velocity=0 time=0\n",
      "note_on channel=9 note=69 velocity=61 time=30\n",
      "note_on channel=9 note=69 velocity=0 time=0\n",
      "note_on channel=9 note=36 velocity=127 time=0\n",
      "note_on channel=9 note=36 velocity=0 time=0\n",
      "note_on channel=9 note=39 velocity=127 time=0\n",
      "note_on channel=9 note=39 velocity=0 time=0\n",
      "note_on channel=9 note=69 velocity=61 time=30\n",
      "note_on channel=9 note=69 velocity=0 time=0\n",
      "note_on channel=9 note=69 velocity=127 time=30\n",
      "note_on channel=9 note=69 velocity=0 time=0\n",
      "note_on channel=9 note=39 velocity=127 time=0\n",
      "note_on channel=9 note=39 velocity=0 time=0\n",
      "note_on channel=9 note=69 velocity=127 time=30\n",
      "note_on channel=9 note=69 velocity=0 time=0\n",
      "note_on channel=9 note=69 velocity=61 time=30\n",
      "note_on channel=9 note=69 velocity=0 time=0\n",
      "note_on channel=9 note=36 velocity=127 time=0\n",
      "note_on channel=9 note=36 velocity=0 time=0\n",
      "note_on channel=9 note=69 velocity=61 time=30\n",
      "note_on channel=9 note=69 velocity=0 time=0\n",
      "note_on channel=9 note=39 velocity=127 time=0\n",
      "note_on channel=9 note=39 velocity=0 time=0\n",
      "note_on channel=9 note=69 velocity=127 time=30\n",
      "note_on channel=9 note=69 velocity=0 time=0\n",
      "note_on channel=9 note=69 velocity=127 time=30\n",
      "note_on channel=9 note=69 velocity=0 time=0\n",
      "note_on channel=9 note=69 velocity=61 time=30\n",
      "note_on channel=9 note=69 velocity=0 time=0\n",
      "note_on channel=9 note=36 velocity=127 time=0\n",
      "note_on channel=9 note=36 velocity=0 time=0\n",
      "note_on channel=9 note=39 velocity=127 time=0\n",
      "note_on channel=9 note=39 velocity=0 time=0\n",
      "note_on channel=9 note=69 velocity=61 time=30\n",
      "note_on channel=9 note=69 velocity=0 time=0\n",
      "note_on channel=9 note=69 velocity=127 time=30\n",
      "note_on channel=9 note=69 velocity=0 time=0\n",
      "note_on channel=9 note=39 velocity=127 time=0\n",
      "note_on channel=9 note=39 velocity=0 time=0\n",
      "note_on channel=9 note=69 velocity=127 time=30\n",
      "note_on channel=9 note=69 velocity=0 time=0\n",
      "note_on channel=9 note=69 velocity=61 time=30\n",
      "note_on channel=9 note=69 velocity=0 time=0\n",
      "note_on channel=9 note=36 velocity=127 time=0\n",
      "note_on channel=9 note=36 velocity=0 time=0\n",
      "note_on channel=9 note=69 velocity=61 time=30\n",
      "note_on channel=9 note=69 velocity=0 time=0\n",
      "note_on channel=9 note=39 velocity=127 time=0\n",
      "note_on channel=9 note=39 velocity=0 time=0\n",
      "note_on channel=9 note=69 velocity=127 time=30\n",
      "note_on channel=9 note=69 velocity=0 time=0\n",
      "note_on channel=9 note=69 velocity=127 time=30\n",
      "note_on channel=9 note=69 velocity=0 time=0\n",
      "note_on channel=9 note=69 velocity=61 time=30\n",
      "note_on channel=9 note=69 velocity=0 time=0\n",
      "note_on channel=9 note=36 velocity=127 time=0\n",
      "note_on channel=9 note=36 velocity=0 time=0\n",
      "note_on channel=9 note=39 velocity=127 time=0\n",
      "note_on channel=9 note=39 velocity=0 time=0\n",
      "note_on channel=9 note=69 velocity=61 time=30\n",
      "note_on channel=9 note=69 velocity=0 time=0\n",
      "note_on channel=9 note=69 velocity=127 time=30\n",
      "note_on channel=9 note=69 velocity=0 time=0\n",
      "note_on channel=9 note=69 velocity=127 time=30\n",
      "note_on channel=9 note=69 velocity=0 time=0\n",
      "note_on channel=9 note=69 velocity=61 time=30\n",
      "note_on channel=9 note=69 velocity=0 time=0\n",
      "note_on channel=9 note=36 velocity=127 time=0\n",
      "note_on channel=9 note=36 velocity=0 time=0\n",
      "note_on channel=9 note=39 velocity=127 time=0\n",
      "note_on channel=9 note=39 velocity=0 time=0\n",
      "note_on channel=9 note=69 velocity=61 time=30\n",
      "note_on channel=9 note=69 velocity=0 time=0\n",
      "note_on channel=9 note=69 velocity=127 time=30\n",
      "note_on channel=9 note=69 velocity=0 time=0\n",
      "note_on channel=9 note=39 velocity=127 time=0\n",
      "note_on channel=9 note=39 velocity=0 time=0\n",
      "note_on channel=9 note=69 velocity=127 time=30\n",
      "note_on channel=9 note=69 velocity=0 time=0\n",
      "note_on channel=9 note=39 velocity=127 time=0\n",
      "note_on channel=9 note=39 velocity=0 time=0\n",
      "note_on channel=9 note=69 velocity=61 time=30\n",
      "note_on channel=9 note=69 velocity=0 time=0\n",
      "note_on channel=9 note=36 velocity=127 time=0\n",
      "note_on channel=9 note=36 velocity=0 time=0\n",
      "note_on channel=9 note=69 velocity=61 time=30\n",
      "note_on channel=9 note=69 velocity=0 time=0\n",
      "note_on channel=9 note=69 velocity=127 time=30\n",
      "note_on channel=9 note=69 velocity=0 time=0\n",
      "note_on channel=9 note=69 velocity=127 time=30\n",
      "note_on channel=9 note=69 velocity=0 time=0\n",
      "note_on channel=9 note=69 velocity=61 time=30\n",
      "note_on channel=9 note=69 velocity=0 time=0\n",
      "note_on channel=9 note=36 velocity=127 time=0\n",
      "note_on channel=9 note=36 velocity=0 time=0\n",
      "note_on channel=9 note=39 velocity=127 time=0\n",
      "note_on channel=9 note=39 velocity=0 time=0\n",
      "note_on channel=9 note=69 velocity=61 time=30\n",
      "note_on channel=9 note=69 velocity=0 time=0\n",
      "note_on channel=9 note=69 velocity=127 time=30\n",
      "note_on channel=9 note=69 velocity=0 time=0\n",
      "note_on channel=9 note=69 velocity=127 time=30\n",
      "note_on channel=9 note=69 velocity=0 time=0\n",
      "note_on channel=9 note=39 velocity=127 time=0\n",
      "note_on channel=9 note=39 velocity=0 time=0\n",
      "note_on channel=9 note=69 velocity=61 time=30\n",
      "note_on channel=9 note=69 velocity=0 time=0\n",
      "note_on channel=9 note=36 velocity=127 time=0\n",
      "note_on channel=9 note=36 velocity=0 time=0\n",
      "note_on channel=9 note=69 velocity=61 time=30\n",
      "note_on channel=9 note=69 velocity=0 time=0\n",
      "note_on channel=9 note=69 velocity=127 time=30\n",
      "note_on channel=9 note=69 velocity=0 time=0\n",
      "note_on channel=9 note=39 velocity=127 time=0\n",
      "note_on channel=9 note=39 velocity=0 time=0\n",
      "note_on channel=9 note=69 velocity=127 time=30\n",
      "note_on channel=9 note=69 velocity=0 time=0\n",
      "note_on channel=9 note=69 velocity=61 time=30\n",
      "note_on channel=9 note=69 velocity=0 time=0\n",
      "note_on channel=9 note=36 velocity=127 time=0\n",
      "note_on channel=9 note=36 velocity=0 time=0\n",
      "note_on channel=9 note=69 velocity=61 time=30\n",
      "note_on channel=9 note=69 velocity=0 time=0\n",
      "note_on channel=9 note=39 velocity=127 time=0\n",
      "note_on channel=9 note=39 velocity=0 time=0\n",
      "note_on channel=9 note=69 velocity=127 time=30\n",
      "note_on channel=9 note=69 velocity=0 time=0\n",
      "note_on channel=9 note=69 velocity=127 time=30\n",
      "note_on channel=9 note=69 velocity=0 time=0\n",
      "note_on channel=9 note=69 velocity=61 time=30\n",
      "note_on channel=9 note=69 velocity=0 time=0\n",
      "note_on channel=9 note=36 velocity=127 time=0\n",
      "note_on channel=9 note=36 velocity=0 time=0\n",
      "note_on channel=9 note=39 velocity=127 time=0\n",
      "note_on channel=9 note=39 velocity=0 time=0\n",
      "note_on channel=9 note=69 velocity=61 time=30\n",
      "note_on channel=9 note=69 velocity=0 time=0\n",
      "note_on channel=9 note=69 velocity=127 time=30\n",
      "note_on channel=9 note=69 velocity=0 time=0\n",
      "note_on channel=9 note=39 velocity=127 time=0\n",
      "note_on channel=9 note=39 velocity=0 time=0\n",
      "note_on channel=9 note=69 velocity=127 time=30\n",
      "note_on channel=9 note=69 velocity=0 time=0\n",
      "note_on channel=9 note=69 velocity=61 time=30\n",
      "note_on channel=9 note=69 velocity=0 time=0\n",
      "note_on channel=9 note=36 velocity=127 time=0\n",
      "note_on channel=9 note=36 velocity=0 time=0\n",
      "note_on channel=9 note=69 velocity=61 time=30\n",
      "note_on channel=9 note=69 velocity=0 time=0\n",
      "note_on channel=9 note=39 velocity=127 time=0\n",
      "note_on channel=9 note=39 velocity=0 time=0\n",
      "note_on channel=9 note=69 velocity=127 time=30\n",
      "note_on channel=9 note=69 velocity=0 time=0\n",
      "note_on channel=9 note=69 velocity=127 time=30\n",
      "note_on channel=9 note=69 velocity=0 time=0\n",
      "note_on channel=9 note=48 velocity=113 time=30\n",
      "note_on channel=9 note=48 velocity=0 time=0\n",
      "note_on channel=9 note=69 velocity=61 time=0\n",
      "note_on channel=9 note=69 velocity=0 time=0\n",
      "note_on channel=9 note=36 velocity=127 time=0\n",
      "note_on channel=9 note=36 velocity=0 time=0\n",
      "note_on channel=9 note=39 velocity=127 time=0\n",
      "note_on channel=9 note=39 velocity=0 time=0\n",
      "note_on channel=9 note=48 velocity=113 time=30\n",
      "note_on channel=9 note=48 velocity=0 time=0\n",
      "note_on channel=9 note=69 velocity=61 time=0\n",
      "note_on channel=9 note=69 velocity=0 time=0\n",
      "note_on channel=9 note=48 velocity=113 time=30\n",
      "note_on channel=9 note=48 velocity=0 time=0\n",
      "note_on channel=9 note=69 velocity=127 time=0\n",
      "note_on channel=9 note=69 velocity=0 time=0\n",
      "note_on channel=9 note=48 velocity=113 time=30\n",
      "note_on channel=9 note=48 velocity=0 time=0\n",
      "note_on channel=9 note=69 velocity=127 time=0\n",
      "note_on channel=9 note=69 velocity=0 time=0\n",
      "note_on channel=9 note=45 velocity=113 time=30\n",
      "note_on channel=9 note=45 velocity=0 time=0\n",
      "note_on channel=9 note=69 velocity=61 time=0\n",
      "note_on channel=9 note=69 velocity=0 time=0\n",
      "note_on channel=9 note=36 velocity=127 time=0\n",
      "note_on channel=9 note=36 velocity=0 time=0\n",
      "note_on channel=9 note=39 velocity=127 time=0\n",
      "note_on channel=9 note=39 velocity=0 time=5\n",
      "note_on channel=9 note=45 velocity=113 time=25\n",
      "note_on channel=9 note=45 velocity=0 time=0\n",
      "note_on channel=9 note=69 velocity=61 time=0\n",
      "note_on channel=9 note=69 velocity=0 time=0\n",
      "note_on channel=9 note=69 velocity=127 time=30\n",
      "note_on channel=9 note=69 velocity=0 time=0\n",
      "note_on channel=9 note=41 velocity=113 time=0\n",
      "note_on channel=9 note=41 velocity=0 time=0\n",
      "note_on channel=9 note=39 velocity=127 time=0\n",
      "note_on channel=9 note=39 velocity=0 time=0\n",
      "note_on channel=9 note=69 velocity=127 time=30\n",
      "note_on channel=9 note=69 velocity=0 time=0\n",
      "note_on channel=9 note=41 velocity=113 time=0\n",
      "note_on channel=9 note=41 velocity=0 time=0\n",
      "note_on channel=9 note=69 velocity=61 time=30\n",
      "note_on channel=9 note=69 velocity=0 time=0\n",
      "note_on channel=9 note=36 velocity=127 time=0\n",
      "note_on channel=9 note=36 velocity=0 time=0\n",
      "note_on channel=9 note=42 velocity=77 time=0\n",
      "note_on channel=9 note=42 velocity=0 time=0\n",
      "note_on channel=9 note=49 velocity=85 time=5\n",
      "note_on channel=9 note=49 velocity=0 time=0\n",
      "note_on channel=9 note=69 velocity=61 time=25\n",
      "note_on channel=9 note=69 velocity=0 time=0\n",
      "note_on channel=9 note=69 velocity=127 time=30\n",
      "note_on channel=9 note=69 velocity=0 time=0\n",
      "note_on channel=9 note=42 velocity=77 time=0\n",
      "note_on channel=9 note=42 velocity=0 time=0\n",
      "note_on channel=9 note=69 velocity=127 time=30\n",
      "note_on channel=9 note=69 velocity=0 time=0\n",
      "note_on channel=9 note=69 velocity=61 time=30\n",
      "note_on channel=9 note=69 velocity=0 time=0\n",
      "note_on channel=9 note=38 velocity=127 time=0\n",
      "note_on channel=9 note=38 velocity=0 time=0\n",
      "note_on channel=9 note=36 velocity=127 time=0\n",
      "note_on channel=9 note=36 velocity=0 time=0\n",
      "note_on channel=9 note=42 velocity=127 time=0\n",
      "note_on channel=9 note=42 velocity=0 time=0\n",
      "note_on channel=9 note=69 velocity=61 time=30\n",
      "note_on channel=9 note=69 velocity=0 time=0\n",
      "note_on channel=9 note=69 velocity=127 time=30\n",
      "note_on channel=9 note=69 velocity=0 time=0\n",
      "note_on channel=9 note=42 velocity=77 time=0\n",
      "note_on channel=9 note=42 velocity=0 time=0\n",
      "note_on channel=9 note=69 velocity=127 time=30\n",
      "note_on channel=9 note=69 velocity=0 time=0\n",
      "note_on channel=9 note=69 velocity=61 time=30\n",
      "note_on channel=9 note=69 velocity=0 time=0\n",
      "note_on channel=9 note=36 velocity=127 time=0\n",
      "note_on channel=9 note=36 velocity=0 time=0\n",
      "note_on channel=9 note=42 velocity=77 time=0\n",
      "note_on channel=9 note=42 velocity=0 time=0\n",
      "note_on channel=9 note=69 velocity=61 time=30\n",
      "note_on channel=9 note=69 velocity=0 time=0\n",
      "note_on channel=9 note=69 velocity=127 time=30\n",
      "note_on channel=9 note=69 velocity=0 time=0\n",
      "note_on channel=9 note=42 velocity=77 time=0\n",
      "note_on channel=9 note=42 velocity=0 time=0\n",
      "note_on channel=9 note=69 velocity=127 time=30\n",
      "note_on channel=9 note=69 velocity=0 time=0\n",
      "note_on channel=9 note=69 velocity=61 time=30\n",
      "note_on channel=9 note=69 velocity=0 time=0\n",
      "note_on channel=9 note=38 velocity=127 time=0\n",
      "note_on channel=9 note=38 velocity=0 time=0\n",
      "note_on channel=9 note=36 velocity=127 time=0\n",
      "note_on channel=9 note=36 velocity=0 time=0\n",
      "note_on channel=9 note=42 velocity=127 time=0\n",
      "note_on channel=9 note=42 velocity=0 time=0\n",
      "note_on channel=9 note=69 velocity=61 time=30\n",
      "note_on channel=9 note=69 velocity=0 time=0\n",
      "note_on channel=9 note=69 velocity=127 time=30\n",
      "note_on channel=9 note=69 velocity=0 time=0\n",
      "note_on channel=9 note=42 velocity=77 time=0\n",
      "note_on channel=9 note=42 velocity=0 time=0\n",
      "note_on channel=9 note=69 velocity=127 time=30\n",
      "note_on channel=9 note=69 velocity=0 time=0\n",
      "note_on channel=9 note=69 velocity=61 time=30\n",
      "note_on channel=9 note=69 velocity=0 time=0\n",
      "note_on channel=9 note=36 velocity=127 time=0\n",
      "note_on channel=9 note=36 velocity=0 time=0\n",
      "note_on channel=9 note=42 velocity=77 time=0\n",
      "note_on channel=9 note=42 velocity=0 time=0\n",
      "note_on channel=9 note=69 velocity=61 time=30\n",
      "note_on channel=9 note=69 velocity=0 time=0\n",
      "note_on channel=9 note=69 velocity=127 time=30\n",
      "note_on channel=9 note=69 velocity=0 time=0\n",
      "note_on channel=9 note=42 velocity=77 time=0\n",
      "note_on channel=9 note=42 velocity=0 time=0\n",
      "note_on channel=9 note=69 velocity=127 time=30\n",
      "note_on channel=9 note=69 velocity=0 time=0\n",
      "note_on channel=9 note=69 velocity=61 time=30\n",
      "note_on channel=9 note=69 velocity=0 time=0\n",
      "note_on channel=9 note=38 velocity=127 time=0\n",
      "note_on channel=9 note=38 velocity=0 time=0\n",
      "note_on channel=9 note=36 velocity=127 time=0\n",
      "note_on channel=9 note=36 velocity=0 time=0\n",
      "note_on channel=9 note=42 velocity=127 time=0\n",
      "note_on channel=9 note=42 velocity=0 time=0\n",
      "note_on channel=9 note=69 velocity=61 time=30\n",
      "note_on channel=9 note=69 velocity=0 time=0\n",
      "note_on channel=9 note=69 velocity=127 time=30\n",
      "note_on channel=9 note=69 velocity=0 time=0\n",
      "note_on channel=9 note=42 velocity=77 time=0\n",
      "note_on channel=9 note=42 velocity=0 time=0\n",
      "note_on channel=9 note=69 velocity=127 time=30\n",
      "note_on channel=9 note=69 velocity=0 time=0\n",
      "note_on channel=9 note=69 velocity=61 time=30\n",
      "note_on channel=9 note=69 velocity=0 time=0\n",
      "note_on channel=9 note=36 velocity=127 time=0\n",
      "note_on channel=9 note=36 velocity=0 time=0\n",
      "note_on channel=9 note=42 velocity=77 time=0\n",
      "note_on channel=9 note=42 velocity=0 time=0\n",
      "note_on channel=9 note=69 velocity=61 time=30\n",
      "note_on channel=9 note=69 velocity=0 time=0\n",
      "note_on channel=9 note=69 velocity=127 time=30\n",
      "note_on channel=9 note=69 velocity=0 time=0\n",
      "note_on channel=9 note=42 velocity=77 time=0\n",
      "note_on channel=9 note=42 velocity=0 time=0\n",
      "note_on channel=9 note=69 velocity=127 time=30\n",
      "note_on channel=9 note=69 velocity=0 time=0\n",
      "note_on channel=9 note=69 velocity=61 time=30\n",
      "note_on channel=9 note=69 velocity=0 time=0\n",
      "note_on channel=9 note=38 velocity=127 time=0\n",
      "note_on channel=9 note=38 velocity=0 time=0\n",
      "note_on channel=9 note=36 velocity=127 time=0\n",
      "note_on channel=9 note=36 velocity=0 time=0\n",
      "note_on channel=9 note=42 velocity=127 time=0\n",
      "note_on channel=9 note=42 velocity=0 time=5\n",
      "note_on channel=9 note=69 velocity=61 time=25\n",
      "note_on channel=9 note=69 velocity=0 time=0\n",
      "note_on channel=9 note=69 velocity=127 time=30\n",
      "note_on channel=9 note=69 velocity=0 time=0\n",
      "note_on channel=9 note=42 velocity=77 time=0\n",
      "note_on channel=9 note=42 velocity=0 time=0\n",
      "note_on channel=9 note=69 velocity=127 time=30\n",
      "note_on channel=9 note=69 velocity=0 time=0\n",
      "note_on channel=9 note=69 velocity=61 time=30\n",
      "note_on channel=9 note=69 velocity=0 time=0\n",
      "note_on channel=9 note=36 velocity=127 time=0\n",
      "note_on channel=9 note=36 velocity=0 time=0\n",
      "note_on channel=9 note=42 velocity=77 time=0\n",
      "note_on channel=9 note=42 velocity=0 time=0\n",
      "note_on channel=9 note=69 velocity=61 time=30\n",
      "note_on channel=9 note=69 velocity=0 time=0\n",
      "note_on channel=9 note=69 velocity=127 time=30\n",
      "note_on channel=9 note=69 velocity=0 time=0\n",
      "note_on channel=9 note=42 velocity=77 time=0\n",
      "note_on channel=9 note=42 velocity=0 time=0\n",
      "note_on channel=9 note=69 velocity=127 time=30\n",
      "note_on channel=9 note=69 velocity=0 time=0\n",
      "note_on channel=9 note=69 velocity=61 time=30\n",
      "note_on channel=9 note=69 velocity=0 time=0\n",
      "note_on channel=9 note=38 velocity=127 time=0\n",
      "note_on channel=9 note=38 velocity=0 time=0\n",
      "note_on channel=9 note=36 velocity=127 time=0\n",
      "note_on channel=9 note=36 velocity=0 time=0\n",
      "note_on channel=9 note=42 velocity=127 time=0\n",
      "note_on channel=9 note=42 velocity=0 time=5\n",
      "note_on channel=9 note=69 velocity=61 time=25\n",
      "note_on channel=9 note=69 velocity=0 time=0\n",
      "note_on channel=9 note=69 velocity=127 time=30\n",
      "note_on channel=9 note=69 velocity=0 time=0\n",
      "note_on channel=9 note=42 velocity=77 time=0\n",
      "note_on channel=9 note=42 velocity=0 time=0\n",
      "note_on channel=9 note=69 velocity=127 time=30\n",
      "note_on channel=9 note=69 velocity=0 time=0\n",
      "note_on channel=9 note=69 velocity=61 time=30\n",
      "note_on channel=9 note=69 velocity=0 time=0\n",
      "note_on channel=9 note=36 velocity=127 time=0\n",
      "note_on channel=9 note=36 velocity=0 time=0\n",
      "note_on channel=9 note=42 velocity=77 time=0\n",
      "note_on channel=9 note=42 velocity=0 time=0\n",
      "note_on channel=9 note=69 velocity=61 time=30\n",
      "note_on channel=9 note=69 velocity=0 time=0\n",
      "note_on channel=9 note=69 velocity=127 time=30\n",
      "note_on channel=9 note=69 velocity=0 time=0\n",
      "note_on channel=9 note=42 velocity=77 time=0\n",
      "note_on channel=9 note=42 velocity=0 time=0\n",
      "note_on channel=9 note=69 velocity=127 time=30\n",
      "note_on channel=9 note=69 velocity=0 time=0\n",
      "note_on channel=9 note=69 velocity=61 time=30\n",
      "note_on channel=9 note=69 velocity=0 time=0\n",
      "note_on channel=9 note=38 velocity=127 time=0\n",
      "note_on channel=9 note=38 velocity=0 time=0\n",
      "note_on channel=9 note=36 velocity=127 time=0\n",
      "note_on channel=9 note=36 velocity=0 time=0\n",
      "note_on channel=9 note=42 velocity=127 time=0\n",
      "note_on channel=9 note=42 velocity=0 time=0\n",
      "note_on channel=9 note=69 velocity=61 time=30\n",
      "note_on channel=9 note=69 velocity=0 time=0\n",
      "note_on channel=9 note=69 velocity=127 time=30\n",
      "note_on channel=9 note=69 velocity=0 time=0\n",
      "note_on channel=9 note=42 velocity=77 time=0\n",
      "note_on channel=9 note=42 velocity=0 time=0\n",
      "note_on channel=9 note=69 velocity=127 time=30\n",
      "note_on channel=9 note=69 velocity=0 time=0\n",
      "note_on channel=9 note=69 velocity=61 time=30\n",
      "note_on channel=9 note=69 velocity=0 time=0\n",
      "note_on channel=9 note=36 velocity=127 time=0\n",
      "note_on channel=9 note=36 velocity=0 time=0\n",
      "note_on channel=9 note=42 velocity=77 time=0\n",
      "note_on channel=9 note=42 velocity=0 time=0\n",
      "note_on channel=9 note=69 velocity=61 time=30\n",
      "note_on channel=9 note=69 velocity=0 time=0\n",
      "note_on channel=9 note=69 velocity=127 time=30\n",
      "note_on channel=9 note=69 velocity=0 time=0\n",
      "note_on channel=9 note=42 velocity=77 time=0\n",
      "note_on channel=9 note=42 velocity=0 time=0\n",
      "note_on channel=9 note=69 velocity=127 time=30\n",
      "note_on channel=9 note=69 velocity=0 time=0\n",
      "note_on channel=9 note=69 velocity=61 time=30\n",
      "note_on channel=9 note=69 velocity=0 time=0\n",
      "note_on channel=9 note=38 velocity=127 time=0\n",
      "note_on channel=9 note=38 velocity=0 time=0\n",
      "note_on channel=9 note=36 velocity=127 time=0\n",
      "note_on channel=9 note=36 velocity=0 time=0\n",
      "note_on channel=9 note=42 velocity=127 time=0\n",
      "note_on channel=9 note=42 velocity=0 time=0\n",
      "note_on channel=9 note=69 velocity=61 time=30\n",
      "note_on channel=9 note=69 velocity=0 time=0\n",
      "note_on channel=9 note=69 velocity=127 time=30\n",
      "note_on channel=9 note=69 velocity=0 time=0\n",
      "note_on channel=9 note=42 velocity=77 time=0\n",
      "note_on channel=9 note=42 velocity=0 time=0\n",
      "note_on channel=9 note=69 velocity=127 time=30\n",
      "note_on channel=9 note=69 velocity=0 time=0\n",
      "note_on channel=9 note=69 velocity=61 time=30\n",
      "note_on channel=9 note=69 velocity=0 time=0\n",
      "note_on channel=9 note=36 velocity=127 time=0\n",
      "note_on channel=9 note=36 velocity=0 time=0\n",
      "note_on channel=9 note=42 velocity=77 time=0\n",
      "note_on channel=9 note=42 velocity=0 time=0\n",
      "note_on channel=9 note=69 velocity=61 time=30\n",
      "note_on channel=9 note=69 velocity=0 time=0\n",
      "note_on channel=9 note=69 velocity=127 time=30\n",
      "note_on channel=9 note=69 velocity=0 time=0\n",
      "note_on channel=9 note=38 velocity=127 time=0\n",
      "note_on channel=9 note=38 velocity=0 time=0\n",
      "note_on channel=9 note=42 velocity=77 time=0\n",
      "note_on channel=9 note=42 velocity=0 time=0\n",
      "note_on channel=9 note=69 velocity=127 time=30\n",
      "note_on channel=9 note=69 velocity=0 time=0\n",
      "note_on channel=9 note=69 velocity=61 time=30\n",
      "note_on channel=9 note=69 velocity=0 time=0\n",
      "note_on channel=9 note=38 velocity=127 time=0\n",
      "note_on channel=9 note=38 velocity=0 time=0\n",
      "note_on channel=9 note=36 velocity=127 time=0\n",
      "note_on channel=9 note=36 velocity=0 time=0\n",
      "note_on channel=9 note=42 velocity=127 time=0\n",
      "note_on channel=9 note=42 velocity=0 time=0\n",
      "note_on channel=9 note=69 velocity=61 time=30\n",
      "note_on channel=9 note=69 velocity=0 time=0\n",
      "note_on channel=9 note=69 velocity=127 time=30\n",
      "note_on channel=9 note=69 velocity=0 time=0\n",
      "note_on channel=9 note=38 velocity=127 time=0\n",
      "note_on channel=9 note=38 velocity=0 time=0\n",
      "note_on channel=9 note=42 velocity=77 time=0\n",
      "note_on channel=9 note=42 velocity=0 time=0\n",
      "note_on channel=9 note=69 velocity=127 time=30\n",
      "note_on channel=9 note=69 velocity=0 time=0\n",
      "note_on channel=9 note=38 velocity=127 time=0\n",
      "note_on channel=9 note=38 velocity=0 time=0\n",
      "note_on channel=9 note=69 velocity=61 time=30\n",
      "note_on channel=9 note=69 velocity=0 time=0\n",
      "note_on channel=9 note=36 velocity=127 time=0\n",
      "note_on channel=9 note=36 velocity=0 time=0\n",
      "note_on channel=9 note=42 velocity=77 time=0\n",
      "note_on channel=9 note=42 velocity=0 time=0\n",
      "note_on channel=9 note=49 velocity=85 time=5\n",
      "note_on channel=9 note=49 velocity=0 time=0\n",
      "note_on channel=9 note=69 velocity=61 time=25\n",
      "note_on channel=9 note=69 velocity=0 time=0\n",
      "note_on channel=9 note=69 velocity=127 time=30\n",
      "note_on channel=9 note=69 velocity=0 time=0\n",
      "note_on channel=9 note=42 velocity=77 time=0\n",
      "note_on channel=9 note=42 velocity=0 time=0\n",
      "note_on channel=9 note=69 velocity=127 time=30\n",
      "note_on channel=9 note=69 velocity=0 time=0\n",
      "note_on channel=9 note=69 velocity=61 time=30\n",
      "note_on channel=9 note=69 velocity=0 time=0\n",
      "note_on channel=9 note=38 velocity=127 time=0\n",
      "note_on channel=9 note=38 velocity=0 time=0\n",
      "note_on channel=9 note=36 velocity=127 time=0\n",
      "note_on channel=9 note=42 velocity=127 time=0\n",
      "note_on channel=9 note=42 velocity=0 time=0\n",
      "note_on channel=9 note=36 velocity=0 time=5\n",
      "note_on channel=9 note=69 velocity=61 time=25\n",
      "note_on channel=9 note=69 velocity=0 time=0\n",
      "note_on channel=9 note=69 velocity=127 time=30\n",
      "note_on channel=9 note=69 velocity=0 time=0\n",
      "note_on channel=9 note=42 velocity=77 time=0\n",
      "note_on channel=9 note=42 velocity=0 time=0\n",
      "note_on channel=9 note=69 velocity=127 time=30\n",
      "note_on channel=9 note=69 velocity=0 time=0\n",
      "note_on channel=9 note=69 velocity=61 time=30\n",
      "note_on channel=9 note=69 velocity=0 time=0\n",
      "note_on channel=9 note=36 velocity=127 time=0\n",
      "note_on channel=9 note=36 velocity=0 time=0\n",
      "note_on channel=9 note=42 velocity=77 time=0\n",
      "note_on channel=9 note=42 velocity=0 time=0\n",
      "note_on channel=9 note=69 velocity=61 time=30\n",
      "note_on channel=9 note=69 velocity=0 time=0\n",
      "note_on channel=9 note=69 velocity=127 time=30\n",
      "note_on channel=9 note=69 velocity=0 time=0\n",
      "note_on channel=9 note=42 velocity=77 time=0\n",
      "note_on channel=9 note=42 velocity=0 time=0\n",
      "note_on channel=9 note=69 velocity=127 time=30\n",
      "note_on channel=9 note=69 velocity=0 time=0\n",
      "note_on channel=9 note=69 velocity=61 time=30\n",
      "note_on channel=9 note=69 velocity=0 time=0\n",
      "note_on channel=9 note=38 velocity=127 time=0\n",
      "note_on channel=9 note=38 velocity=0 time=0\n",
      "note_on channel=9 note=36 velocity=127 time=0\n",
      "note_on channel=9 note=36 velocity=0 time=0\n",
      "note_on channel=9 note=42 velocity=127 time=0\n",
      "note_on channel=9 note=42 velocity=0 time=0\n",
      "note_on channel=9 note=69 velocity=61 time=30\n",
      "note_on channel=9 note=69 velocity=0 time=0\n",
      "note_on channel=9 note=69 velocity=127 time=30\n",
      "note_on channel=9 note=69 velocity=0 time=0\n",
      "note_on channel=9 note=42 velocity=77 time=0\n",
      "note_on channel=9 note=42 velocity=0 time=0\n",
      "note_on channel=9 note=69 velocity=127 time=30\n",
      "note_on channel=9 note=69 velocity=0 time=0\n",
      "note_on channel=9 note=69 velocity=61 time=30\n",
      "note_on channel=9 note=69 velocity=0 time=0\n",
      "note_on channel=9 note=36 velocity=127 time=0\n",
      "note_on channel=9 note=36 velocity=0 time=0\n",
      "note_on channel=9 note=42 velocity=77 time=0\n",
      "note_on channel=9 note=42 velocity=0 time=0\n",
      "note_on channel=9 note=69 velocity=61 time=30\n",
      "note_on channel=9 note=69 velocity=0 time=0\n",
      "note_on channel=9 note=69 velocity=127 time=30\n",
      "note_on channel=9 note=69 velocity=0 time=0\n",
      "note_on channel=9 note=42 velocity=77 time=0\n",
      "note_on channel=9 note=42 velocity=0 time=0\n",
      "note_on channel=9 note=69 velocity=127 time=30\n",
      "note_on channel=9 note=69 velocity=0 time=0\n",
      "note_on channel=9 note=69 velocity=61 time=30\n",
      "note_on channel=9 note=69 velocity=0 time=0\n",
      "note_on channel=9 note=38 velocity=127 time=0\n",
      "note_on channel=9 note=38 velocity=0 time=0\n",
      "note_on channel=9 note=36 velocity=127 time=0\n",
      "note_on channel=9 note=36 velocity=0 time=0\n",
      "note_on channel=9 note=42 velocity=127 time=0\n",
      "note_on channel=9 note=42 velocity=0 time=0\n",
      "note_on channel=9 note=69 velocity=61 time=30\n",
      "note_on channel=9 note=69 velocity=0 time=0\n",
      "note_on channel=9 note=69 velocity=127 time=30\n",
      "note_on channel=9 note=69 velocity=0 time=0\n",
      "note_on channel=9 note=42 velocity=77 time=0\n",
      "note_on channel=9 note=42 velocity=0 time=0\n",
      "note_on channel=9 note=69 velocity=127 time=30\n",
      "note_on channel=9 note=69 velocity=0 time=0\n",
      "note_on channel=9 note=69 velocity=61 time=30\n",
      "note_on channel=9 note=69 velocity=0 time=0\n",
      "note_on channel=9 note=36 velocity=127 time=0\n",
      "note_on channel=9 note=36 velocity=0 time=0\n",
      "note_on channel=9 note=42 velocity=77 time=0\n",
      "note_on channel=9 note=42 velocity=0 time=0\n",
      "note_on channel=9 note=69 velocity=61 time=30\n",
      "note_on channel=9 note=69 velocity=0 time=0\n",
      "note_on channel=9 note=69 velocity=127 time=30\n",
      "note_on channel=9 note=69 velocity=0 time=0\n",
      "note_on channel=9 note=42 velocity=77 time=0\n",
      "note_on channel=9 note=42 velocity=0 time=0\n",
      "note_on channel=9 note=69 velocity=127 time=30\n",
      "note_on channel=9 note=69 velocity=0 time=0\n",
      "note_on channel=9 note=69 velocity=61 time=30\n",
      "note_on channel=9 note=69 velocity=0 time=0\n",
      "note_on channel=9 note=38 velocity=127 time=0\n",
      "note_on channel=9 note=38 velocity=0 time=0\n",
      "note_on channel=9 note=36 velocity=127 time=0\n",
      "note_on channel=9 note=36 velocity=0 time=0\n",
      "note_on channel=9 note=42 velocity=127 time=0\n",
      "note_on channel=9 note=42 velocity=0 time=0\n",
      "note_on channel=9 note=69 velocity=61 time=30\n",
      "note_on channel=9 note=69 velocity=0 time=0\n",
      "note_on channel=9 note=69 velocity=127 time=30\n",
      "note_on channel=9 note=69 velocity=0 time=0\n",
      "note_on channel=9 note=42 velocity=77 time=0\n",
      "note_on channel=9 note=42 velocity=0 time=0\n",
      "note_on channel=9 note=69 velocity=127 time=30\n",
      "note_on channel=9 note=69 velocity=0 time=0\n",
      "note_on channel=9 note=69 velocity=61 time=30\n",
      "note_on channel=9 note=69 velocity=0 time=0\n",
      "note_on channel=9 note=36 velocity=127 time=0\n",
      "note_on channel=9 note=36 velocity=0 time=0\n",
      "note_on channel=9 note=42 velocity=77 time=0\n",
      "note_on channel=9 note=42 velocity=0 time=0\n",
      "note_on channel=9 note=69 velocity=61 time=30\n",
      "note_on channel=9 note=69 velocity=0 time=0\n",
      "note_on channel=9 note=69 velocity=127 time=30\n",
      "note_on channel=9 note=69 velocity=0 time=0\n",
      "note_on channel=9 note=42 velocity=77 time=0\n",
      "note_on channel=9 note=42 velocity=0 time=0\n",
      "note_on channel=9 note=69 velocity=127 time=30\n",
      "note_on channel=9 note=69 velocity=0 time=0\n",
      "note_on channel=9 note=69 velocity=61 time=30\n",
      "note_on channel=9 note=69 velocity=0 time=0\n",
      "note_on channel=9 note=38 velocity=127 time=0\n",
      "note_on channel=9 note=38 velocity=0 time=0\n",
      "note_on channel=9 note=36 velocity=127 time=0\n",
      "note_on channel=9 note=36 velocity=0 time=0\n",
      "note_on channel=9 note=42 velocity=127 time=0\n",
      "note_on channel=9 note=42 velocity=0 time=0\n",
      "note_on channel=9 note=69 velocity=61 time=30\n",
      "note_on channel=9 note=69 velocity=0 time=0\n",
      "note_on channel=9 note=69 velocity=127 time=30\n",
      "note_on channel=9 note=69 velocity=0 time=0\n",
      "note_on channel=9 note=42 velocity=77 time=0\n",
      "note_on channel=9 note=42 velocity=0 time=0\n",
      "note_on channel=9 note=69 velocity=127 time=30\n",
      "note_on channel=9 note=69 velocity=0 time=0\n",
      "note_on channel=9 note=69 velocity=61 time=30\n",
      "note_on channel=9 note=69 velocity=0 time=0\n",
      "note_on channel=9 note=36 velocity=127 time=0\n",
      "note_on channel=9 note=36 velocity=0 time=0\n",
      "note_on channel=9 note=42 velocity=77 time=0\n",
      "note_on channel=9 note=42 velocity=0 time=0\n",
      "note_on channel=9 note=69 velocity=61 time=30\n",
      "note_on channel=9 note=69 velocity=0 time=0\n",
      "note_on channel=9 note=69 velocity=127 time=30\n",
      "note_on channel=9 note=69 velocity=0 time=0\n",
      "note_on channel=9 note=42 velocity=77 time=0\n",
      "note_on channel=9 note=42 velocity=0 time=0\n",
      "note_on channel=9 note=69 velocity=127 time=30\n",
      "note_on channel=9 note=69 velocity=0 time=0\n",
      "note_on channel=9 note=69 velocity=61 time=30\n",
      "note_on channel=9 note=69 velocity=0 time=0\n",
      "note_on channel=9 note=38 velocity=127 time=0\n",
      "note_on channel=9 note=38 velocity=0 time=0\n",
      "note_on channel=9 note=36 velocity=127 time=0\n",
      "note_on channel=9 note=36 velocity=0 time=0\n",
      "note_on channel=9 note=42 velocity=127 time=0\n",
      "note_on channel=9 note=42 velocity=0 time=0\n",
      "note_on channel=9 note=69 velocity=61 time=30\n",
      "note_on channel=9 note=69 velocity=0 time=0\n",
      "note_on channel=9 note=69 velocity=127 time=30\n",
      "note_on channel=9 note=69 velocity=0 time=0\n",
      "note_on channel=9 note=42 velocity=77 time=0\n",
      "note_on channel=9 note=42 velocity=0 time=0\n",
      "note_on channel=9 note=69 velocity=127 time=30\n",
      "note_on channel=9 note=69 velocity=0 time=0\n",
      "note_on channel=9 note=69 velocity=61 time=30\n",
      "note_on channel=9 note=69 velocity=0 time=0\n",
      "note_on channel=9 note=36 velocity=127 time=0\n",
      "note_on channel=9 note=36 velocity=0 time=0\n",
      "note_on channel=9 note=42 velocity=77 time=0\n",
      "note_on channel=9 note=42 velocity=0 time=0\n",
      "note_on channel=9 note=69 velocity=61 time=30\n",
      "note_on channel=9 note=69 velocity=0 time=0\n",
      "note_on channel=9 note=69 velocity=127 time=30\n",
      "note_on channel=9 note=69 velocity=0 time=0\n",
      "note_on channel=9 note=42 velocity=77 time=0\n",
      "note_on channel=9 note=42 velocity=0 time=0\n",
      "note_on channel=9 note=69 velocity=127 time=30\n",
      "note_on channel=9 note=69 velocity=0 time=0\n",
      "note_on channel=9 note=69 velocity=61 time=30\n",
      "note_on channel=9 note=69 velocity=0 time=0\n",
      "note_on channel=9 note=38 velocity=127 time=0\n",
      "note_on channel=9 note=38 velocity=0 time=0\n",
      "note_on channel=9 note=36 velocity=127 time=0\n",
      "note_on channel=9 note=36 velocity=0 time=0\n",
      "note_on channel=9 note=42 velocity=127 time=0\n",
      "note_on channel=9 note=42 velocity=0 time=0\n",
      "note_on channel=9 note=69 velocity=61 time=30\n",
      "note_on channel=9 note=69 velocity=0 time=0\n",
      "note_on channel=9 note=69 velocity=127 time=30\n",
      "note_on channel=9 note=69 velocity=0 time=0\n",
      "note_on channel=9 note=42 velocity=77 time=0\n",
      "note_on channel=9 note=42 velocity=0 time=0\n",
      "note_on channel=9 note=69 velocity=127 time=30\n",
      "note_on channel=9 note=69 velocity=0 time=0\n",
      "note_on channel=9 note=69 velocity=61 time=30\n",
      "note_on channel=9 note=69 velocity=0 time=0\n",
      "note_on channel=9 note=36 velocity=127 time=0\n",
      "note_on channel=9 note=36 velocity=0 time=0\n",
      "note_on channel=9 note=42 velocity=77 time=0\n",
      "note_on channel=9 note=42 velocity=0 time=0\n",
      "note_on channel=9 note=69 velocity=61 time=30\n",
      "note_on channel=9 note=69 velocity=0 time=0\n",
      "note_on channel=9 note=69 velocity=127 time=30\n",
      "note_on channel=9 note=69 velocity=0 time=0\n",
      "note_on channel=9 note=38 velocity=127 time=0\n",
      "note_on channel=9 note=38 velocity=0 time=0\n",
      "note_on channel=9 note=42 velocity=77 time=0\n",
      "note_on channel=9 note=42 velocity=0 time=0\n",
      "note_on channel=9 note=69 velocity=127 time=30\n",
      "note_on channel=9 note=69 velocity=0 time=0\n",
      "note_on channel=9 note=38 velocity=127 time=0\n",
      "note_on channel=9 note=38 velocity=0 time=0\n",
      "note_on channel=9 note=69 velocity=61 time=30\n",
      "note_on channel=9 note=69 velocity=0 time=0\n",
      "note_on channel=9 note=38 velocity=127 time=0\n",
      "note_on channel=9 note=38 velocity=0 time=0\n",
      "note_on channel=9 note=36 velocity=127 time=0\n",
      "note_on channel=9 note=36 velocity=0 time=0\n",
      "note_on channel=9 note=42 velocity=77 time=0\n",
      "note_on channel=9 note=42 velocity=0 time=0\n",
      "note_on channel=9 note=69 velocity=61 time=30\n",
      "note_on channel=9 note=69 velocity=0 time=0\n",
      "note_on channel=9 note=41 velocity=113 time=0\n",
      "note_on channel=9 note=41 velocity=0 time=0\n",
      "note_on channel=9 note=69 velocity=127 time=30\n",
      "note_on channel=9 note=69 velocity=0 time=0\n",
      "note_on channel=9 note=42 velocity=77 time=0\n",
      "note_on channel=9 note=42 velocity=0 time=0\n",
      "note_on channel=9 note=69 velocity=127 time=30\n",
      "note_on channel=9 note=69 velocity=0 time=0\n",
      "note_on channel=9 note=69 velocity=61 time=30\n",
      "note_on channel=9 note=69 velocity=0 time=0\n",
      "note_on channel=9 note=36 velocity=127 time=0\n",
      "note_on channel=9 note=36 velocity=0 time=0\n",
      "note_on channel=9 note=42 velocity=77 time=0\n",
      "note_on channel=9 note=49 velocity=85 time=0\n",
      "note_on channel=9 note=49 velocity=0 time=5\n",
      "note_on channel=9 note=42 velocity=0 time=0\n",
      "note_on channel=9 note=69 velocity=61 time=25\n",
      "note_on channel=9 note=69 velocity=0 time=0\n",
      "note_on channel=9 note=69 velocity=127 time=30\n",
      "note_on channel=9 note=69 velocity=0 time=0\n",
      "note_on channel=9 note=42 velocity=77 time=0\n",
      "note_on channel=9 note=42 velocity=0 time=0\n",
      "note_on channel=9 note=69 velocity=127 time=30\n",
      "note_on channel=9 note=69 velocity=0 time=0\n",
      "note_on channel=9 note=69 velocity=61 time=30\n",
      "note_on channel=9 note=69 velocity=0 time=0\n",
      "note_on channel=9 note=38 velocity=127 time=0\n",
      "note_on channel=9 note=38 velocity=0 time=0\n",
      "note_on channel=9 note=36 velocity=127 time=0\n",
      "note_on channel=9 note=36 velocity=0 time=0\n",
      "note_on channel=9 note=42 velocity=127 time=0\n",
      "note_on channel=9 note=42 velocity=0 time=0\n",
      "note_on channel=9 note=69 velocity=61 time=30\n",
      "note_on channel=9 note=69 velocity=0 time=0\n",
      "note_on channel=9 note=69 velocity=127 time=30\n",
      "note_on channel=9 note=69 velocity=0 time=0\n",
      "note_on channel=9 note=42 velocity=77 time=0\n",
      "note_on channel=9 note=42 velocity=0 time=0\n",
      "note_on channel=9 note=69 velocity=127 time=30\n",
      "note_on channel=9 note=69 velocity=0 time=0\n",
      "note_on channel=9 note=69 velocity=61 time=30\n",
      "note_on channel=9 note=69 velocity=0 time=0\n",
      "note_on channel=9 note=36 velocity=127 time=0\n",
      "note_on channel=9 note=36 velocity=0 time=0\n",
      "note_on channel=9 note=42 velocity=77 time=0\n",
      "note_on channel=9 note=42 velocity=0 time=0\n",
      "note_on channel=9 note=69 velocity=61 time=30\n",
      "note_on channel=9 note=69 velocity=0 time=0\n",
      "note_on channel=9 note=69 velocity=127 time=30\n",
      "note_on channel=9 note=69 velocity=0 time=0\n",
      "note_on channel=9 note=42 velocity=77 time=0\n",
      "note_on channel=9 note=42 velocity=0 time=0\n",
      "note_on channel=9 note=69 velocity=127 time=30\n",
      "note_on channel=9 note=69 velocity=0 time=0\n",
      "note_on channel=9 note=69 velocity=61 time=30\n",
      "note_on channel=9 note=69 velocity=0 time=0\n",
      "note_on channel=9 note=38 velocity=127 time=0\n",
      "note_on channel=9 note=38 velocity=0 time=0\n",
      "note_on channel=9 note=36 velocity=127 time=0\n",
      "note_on channel=9 note=36 velocity=0 time=0\n",
      "note_on channel=9 note=42 velocity=127 time=0\n",
      "note_on channel=9 note=42 velocity=0 time=0\n",
      "note_on channel=9 note=69 velocity=61 time=30\n",
      "note_on channel=9 note=69 velocity=0 time=0\n",
      "note_on channel=9 note=69 velocity=127 time=30\n",
      "note_on channel=9 note=69 velocity=0 time=0\n",
      "note_on channel=9 note=42 velocity=77 time=0\n",
      "note_on channel=9 note=42 velocity=0 time=0\n",
      "note_on channel=9 note=69 velocity=127 time=30\n",
      "note_on channel=9 note=69 velocity=0 time=0\n",
      "note_on channel=9 note=69 velocity=61 time=30\n",
      "note_on channel=9 note=69 velocity=0 time=0\n",
      "note_on channel=9 note=36 velocity=127 time=0\n",
      "note_on channel=9 note=36 velocity=0 time=0\n",
      "note_on channel=9 note=42 velocity=77 time=0\n",
      "note_on channel=9 note=42 velocity=0 time=0\n",
      "note_on channel=9 note=69 velocity=61 time=30\n",
      "note_on channel=9 note=69 velocity=0 time=0\n",
      "note_on channel=9 note=69 velocity=127 time=30\n",
      "note_on channel=9 note=69 velocity=0 time=0\n",
      "note_on channel=9 note=42 velocity=77 time=0\n",
      "note_on channel=9 note=42 velocity=0 time=0\n",
      "note_on channel=9 note=69 velocity=127 time=30\n",
      "note_on channel=9 note=69 velocity=0 time=0\n",
      "note_on channel=9 note=69 velocity=61 time=30\n",
      "note_on channel=9 note=69 velocity=0 time=0\n",
      "note_on channel=9 note=38 velocity=127 time=0\n",
      "note_on channel=9 note=38 velocity=0 time=0\n",
      "note_on channel=9 note=36 velocity=127 time=0\n",
      "note_on channel=9 note=36 velocity=0 time=0\n",
      "note_on channel=9 note=42 velocity=127 time=5\n",
      "note_on channel=9 note=42 velocity=0 time=0\n",
      "note_on channel=9 note=69 velocity=61 time=25\n",
      "note_on channel=9 note=69 velocity=0 time=0\n",
      "note_on channel=9 note=69 velocity=127 time=30\n",
      "note_on channel=9 note=69 velocity=0 time=0\n",
      "note_on channel=9 note=42 velocity=77 time=0\n",
      "note_on channel=9 note=42 velocity=0 time=0\n",
      "note_on channel=9 note=69 velocity=127 time=30\n",
      "note_on channel=9 note=69 velocity=0 time=0\n",
      "note_on channel=9 note=69 velocity=61 time=30\n",
      "note_on channel=9 note=69 velocity=0 time=0\n",
      "note_on channel=9 note=36 velocity=127 time=0\n",
      "note_on channel=9 note=36 velocity=0 time=0\n",
      "note_on channel=9 note=42 velocity=77 time=0\n",
      "note_on channel=9 note=42 velocity=0 time=0\n",
      "note_on channel=9 note=69 velocity=61 time=30\n",
      "note_on channel=9 note=69 velocity=0 time=0\n",
      "note_on channel=9 note=69 velocity=127 time=30\n",
      "note_on channel=9 note=69 velocity=0 time=0\n",
      "note_on channel=9 note=42 velocity=77 time=0\n",
      "note_on channel=9 note=42 velocity=0 time=0\n",
      "note_on channel=9 note=69 velocity=127 time=30\n",
      "note_on channel=9 note=69 velocity=0 time=0\n",
      "note_on channel=9 note=69 velocity=61 time=30\n",
      "note_on channel=9 note=69 velocity=0 time=0\n",
      "note_on channel=9 note=38 velocity=127 time=0\n",
      "note_on channel=9 note=38 velocity=0 time=0\n",
      "note_on channel=9 note=36 velocity=127 time=0\n",
      "note_on channel=9 note=36 velocity=0 time=0\n",
      "note_on channel=9 note=42 velocity=127 time=5\n",
      "note_on channel=9 note=42 velocity=0 time=0\n",
      "note_on channel=9 note=69 velocity=61 time=25\n",
      "note_on channel=9 note=69 velocity=0 time=0\n",
      "note_on channel=9 note=69 velocity=127 time=30\n",
      "note_on channel=9 note=69 velocity=0 time=0\n",
      "note_on channel=9 note=42 velocity=77 time=0\n",
      "note_on channel=9 note=42 velocity=0 time=0\n",
      "note_on channel=9 note=69 velocity=127 time=30\n",
      "note_on channel=9 note=69 velocity=0 time=0\n",
      "note_on channel=9 note=69 velocity=61 time=30\n",
      "note_on channel=9 note=69 velocity=0 time=0\n",
      "note_on channel=9 note=36 velocity=127 time=0\n",
      "note_on channel=9 note=36 velocity=0 time=0\n",
      "note_on channel=9 note=42 velocity=77 time=0\n",
      "note_on channel=9 note=42 velocity=0 time=0\n",
      "note_on channel=9 note=69 velocity=61 time=30\n",
      "note_on channel=9 note=69 velocity=0 time=0\n",
      "note_on channel=9 note=69 velocity=127 time=30\n",
      "note_on channel=9 note=69 velocity=0 time=0\n",
      "note_on channel=9 note=42 velocity=77 time=0\n",
      "note_on channel=9 note=42 velocity=0 time=0\n",
      "note_on channel=9 note=69 velocity=127 time=30\n",
      "note_on channel=9 note=69 velocity=0 time=0\n",
      "note_on channel=9 note=69 velocity=61 time=30\n",
      "note_on channel=9 note=69 velocity=0 time=0\n",
      "note_on channel=9 note=38 velocity=127 time=0\n",
      "note_on channel=9 note=38 velocity=0 time=0\n",
      "note_on channel=9 note=36 velocity=127 time=0\n",
      "note_on channel=9 note=36 velocity=0 time=0\n",
      "note_on channel=9 note=42 velocity=127 time=0\n",
      "note_on channel=9 note=42 velocity=0 time=0\n",
      "note_on channel=9 note=69 velocity=61 time=30\n",
      "note_on channel=9 note=69 velocity=0 time=0\n",
      "note_on channel=9 note=69 velocity=127 time=30\n",
      "note_on channel=9 note=69 velocity=0 time=0\n",
      "note_on channel=9 note=42 velocity=77 time=0\n",
      "note_on channel=9 note=42 velocity=0 time=0\n",
      "note_on channel=9 note=69 velocity=127 time=30\n",
      "note_on channel=9 note=69 velocity=0 time=0\n",
      "note_on channel=9 note=69 velocity=61 time=30\n",
      "note_on channel=9 note=69 velocity=0 time=0\n",
      "note_on channel=9 note=36 velocity=127 time=0\n",
      "note_on channel=9 note=36 velocity=0 time=0\n",
      "note_on channel=9 note=42 velocity=77 time=0\n",
      "note_on channel=9 note=42 velocity=0 time=0\n",
      "note_on channel=9 note=69 velocity=61 time=30\n",
      "note_on channel=9 note=69 velocity=0 time=0\n",
      "note_on channel=9 note=69 velocity=127 time=30\n",
      "note_on channel=9 note=69 velocity=0 time=0\n",
      "note_on channel=9 note=42 velocity=77 time=0\n",
      "note_on channel=9 note=42 velocity=0 time=0\n",
      "note_on channel=9 note=69 velocity=127 time=30\n",
      "note_on channel=9 note=69 velocity=0 time=0\n",
      "note_on channel=9 note=69 velocity=61 time=30\n",
      "note_on channel=9 note=69 velocity=0 time=0\n",
      "note_on channel=9 note=38 velocity=127 time=0\n",
      "note_on channel=9 note=38 velocity=0 time=0\n",
      "note_on channel=9 note=36 velocity=127 time=0\n",
      "note_on channel=9 note=36 velocity=0 time=0\n",
      "note_on channel=9 note=42 velocity=127 time=0\n",
      "note_on channel=9 note=42 velocity=0 time=0\n",
      "note_on channel=9 note=69 velocity=61 time=30\n",
      "note_on channel=9 note=69 velocity=0 time=0\n",
      "note_on channel=9 note=69 velocity=127 time=30\n",
      "note_on channel=9 note=69 velocity=0 time=0\n",
      "note_on channel=9 note=42 velocity=77 time=0\n",
      "note_on channel=9 note=42 velocity=0 time=0\n",
      "note_on channel=9 note=69 velocity=127 time=30\n",
      "note_on channel=9 note=69 velocity=0 time=0\n",
      "note_on channel=9 note=69 velocity=61 time=30\n",
      "note_on channel=9 note=69 velocity=0 time=0\n",
      "note_on channel=9 note=36 velocity=127 time=0\n",
      "note_on channel=9 note=36 velocity=0 time=0\n",
      "note_on channel=9 note=42 velocity=77 time=0\n",
      "note_on channel=9 note=42 velocity=0 time=0\n",
      "note_on channel=9 note=69 velocity=61 time=30\n",
      "note_on channel=9 note=69 velocity=0 time=0\n",
      "note_on channel=9 note=69 velocity=127 time=30\n",
      "note_on channel=9 note=69 velocity=0 time=0\n",
      "note_on channel=9 note=42 velocity=77 time=0\n",
      "note_on channel=9 note=42 velocity=0 time=0\n",
      "note_on channel=9 note=69 velocity=127 time=30\n",
      "note_on channel=9 note=69 velocity=0 time=0\n",
      "note_on channel=9 note=69 velocity=61 time=30\n",
      "note_on channel=9 note=69 velocity=0 time=0\n",
      "note_on channel=9 note=38 velocity=127 time=0\n",
      "note_on channel=9 note=38 velocity=0 time=0\n",
      "note_on channel=9 note=36 velocity=127 time=0\n",
      "note_on channel=9 note=36 velocity=0 time=0\n",
      "note_on channel=9 note=42 velocity=127 time=0\n",
      "note_on channel=9 note=42 velocity=0 time=0\n",
      "note_on channel=9 note=69 velocity=61 time=30\n",
      "note_on channel=9 note=69 velocity=0 time=0\n",
      "note_on channel=9 note=69 velocity=127 time=30\n",
      "note_on channel=9 note=69 velocity=0 time=0\n",
      "note_on channel=9 note=42 velocity=77 time=0\n",
      "note_on channel=9 note=42 velocity=0 time=0\n",
      "note_on channel=9 note=69 velocity=127 time=30\n",
      "note_on channel=9 note=69 velocity=0 time=0\n",
      "note_on channel=9 note=69 velocity=61 time=30\n",
      "note_on channel=9 note=69 velocity=0 time=0\n",
      "note_on channel=9 note=36 velocity=127 time=0\n",
      "note_on channel=9 note=36 velocity=0 time=0\n",
      "note_on channel=9 note=42 velocity=77 time=0\n",
      "note_on channel=9 note=42 velocity=0 time=0\n",
      "note_on channel=9 note=69 velocity=61 time=30\n",
      "note_on channel=9 note=69 velocity=0 time=0\n",
      "note_on channel=9 note=69 velocity=127 time=30\n",
      "note_on channel=9 note=69 velocity=0 time=0\n",
      "note_on channel=9 note=38 velocity=127 time=0\n",
      "note_on channel=9 note=38 velocity=0 time=0\n",
      "note_on channel=9 note=42 velocity=77 time=0\n",
      "note_on channel=9 note=42 velocity=0 time=0\n",
      "note_on channel=9 note=69 velocity=127 time=30\n",
      "note_on channel=9 note=69 velocity=0 time=0\n",
      "note_on channel=9 note=69 velocity=61 time=30\n",
      "note_on channel=9 note=69 velocity=0 time=0\n",
      "note_on channel=9 note=38 velocity=127 time=0\n",
      "note_on channel=9 note=38 velocity=0 time=0\n",
      "note_on channel=9 note=36 velocity=127 time=0\n",
      "note_on channel=9 note=36 velocity=0 time=0\n",
      "note_on channel=9 note=42 velocity=127 time=0\n",
      "note_on channel=9 note=42 velocity=0 time=0\n",
      "note_on channel=9 note=69 velocity=61 time=30\n",
      "note_on channel=9 note=69 velocity=0 time=0\n",
      "note_on channel=9 note=69 velocity=127 time=30\n",
      "note_on channel=9 note=69 velocity=0 time=0\n",
      "note_on channel=9 note=38 velocity=127 time=0\n",
      "note_on channel=9 note=38 velocity=0 time=0\n",
      "note_on channel=9 note=42 velocity=77 time=0\n",
      "note_on channel=9 note=42 velocity=0 time=0\n",
      "note_on channel=9 note=69 velocity=127 time=30\n",
      "note_on channel=9 note=69 velocity=0 time=0\n",
      "note_on channel=9 note=38 velocity=127 time=0\n",
      "note_on channel=9 note=38 velocity=0 time=0\n",
      "note_on channel=9 note=69 velocity=61 time=30\n",
      "note_on channel=9 note=69 velocity=0 time=0\n",
      "note_on channel=9 note=36 velocity=127 time=0\n",
      "note_on channel=9 note=36 velocity=0 time=0\n",
      "note_on channel=9 note=42 velocity=77 time=0\n",
      "note_on channel=9 note=42 velocity=0 time=0\n",
      "note_on channel=9 note=49 velocity=85 time=5\n",
      "note_on channel=9 note=49 velocity=0 time=0\n",
      "note_on channel=9 note=69 velocity=61 time=25\n",
      "note_on channel=9 note=69 velocity=0 time=0\n",
      "note_on channel=9 note=69 velocity=127 time=30\n",
      "note_on channel=9 note=69 velocity=0 time=0\n",
      "note_on channel=9 note=42 velocity=77 time=0\n",
      "note_on channel=9 note=42 velocity=0 time=0\n",
      "note_on channel=9 note=69 velocity=127 time=30\n",
      "note_on channel=9 note=69 velocity=0 time=0\n",
      "note_on channel=9 note=69 velocity=61 time=30\n",
      "note_on channel=9 note=69 velocity=0 time=0\n",
      "note_on channel=9 note=38 velocity=127 time=0\n",
      "note_on channel=9 note=38 velocity=0 time=0\n",
      "note_on channel=9 note=36 velocity=127 time=0\n",
      "note_on channel=9 note=36 velocity=0 time=0\n",
      "note_on channel=9 note=42 velocity=127 time=0\n",
      "note_on channel=9 note=42 velocity=0 time=0\n",
      "note_on channel=9 note=69 velocity=61 time=30\n",
      "note_on channel=9 note=69 velocity=0 time=0\n",
      "note_on channel=9 note=69 velocity=127 time=30\n",
      "note_on channel=9 note=69 velocity=0 time=0\n",
      "note_on channel=9 note=42 velocity=77 time=0\n",
      "note_on channel=9 note=42 velocity=0 time=0\n",
      "note_on channel=9 note=69 velocity=127 time=30\n",
      "note_on channel=9 note=69 velocity=0 time=0\n",
      "note_on channel=9 note=69 velocity=61 time=30\n",
      "note_on channel=9 note=69 velocity=0 time=0\n",
      "note_on channel=9 note=36 velocity=127 time=0\n",
      "note_on channel=9 note=36 velocity=0 time=0\n",
      "note_on channel=9 note=42 velocity=77 time=0\n",
      "note_on channel=9 note=42 velocity=0 time=0\n",
      "note_on channel=9 note=69 velocity=61 time=30\n",
      "note_on channel=9 note=69 velocity=0 time=0\n",
      "note_on channel=9 note=69 velocity=127 time=30\n",
      "note_on channel=9 note=69 velocity=0 time=0\n",
      "note_on channel=9 note=42 velocity=77 time=0\n",
      "note_on channel=9 note=42 velocity=0 time=0\n",
      "note_on channel=9 note=69 velocity=127 time=30\n",
      "note_on channel=9 note=69 velocity=0 time=0\n",
      "note_on channel=9 note=69 velocity=61 time=30\n",
      "note_on channel=9 note=69 velocity=0 time=0\n",
      "note_on channel=9 note=38 velocity=127 time=0\n",
      "note_on channel=9 note=38 velocity=0 time=0\n",
      "note_on channel=9 note=36 velocity=127 time=0\n",
      "note_on channel=9 note=36 velocity=0 time=0\n",
      "note_on channel=9 note=42 velocity=127 time=0\n",
      "note_on channel=9 note=42 velocity=0 time=0\n",
      "note_on channel=9 note=69 velocity=61 time=30\n",
      "note_on channel=9 note=69 velocity=0 time=0\n",
      "note_on channel=9 note=69 velocity=127 time=30\n",
      "note_on channel=9 note=69 velocity=0 time=0\n",
      "note_on channel=9 note=42 velocity=77 time=0\n",
      "note_on channel=9 note=42 velocity=0 time=0\n",
      "note_on channel=9 note=69 velocity=127 time=30\n",
      "note_on channel=9 note=69 velocity=0 time=0\n",
      "note_on channel=9 note=69 velocity=61 time=30\n",
      "note_on channel=9 note=69 velocity=0 time=0\n",
      "note_on channel=9 note=36 velocity=127 time=0\n",
      "note_on channel=9 note=36 velocity=0 time=0\n",
      "note_on channel=9 note=42 velocity=77 time=0\n",
      "note_on channel=9 note=42 velocity=0 time=0\n",
      "note_on channel=9 note=69 velocity=61 time=30\n",
      "note_on channel=9 note=69 velocity=0 time=0\n",
      "note_on channel=9 note=69 velocity=127 time=30\n",
      "note_on channel=9 note=69 velocity=0 time=0\n",
      "note_on channel=9 note=42 velocity=77 time=0\n",
      "note_on channel=9 note=42 velocity=0 time=0\n",
      "note_on channel=9 note=69 velocity=127 time=30\n",
      "note_on channel=9 note=69 velocity=0 time=0\n",
      "note_on channel=9 note=69 velocity=61 time=30\n",
      "note_on channel=9 note=69 velocity=0 time=0\n",
      "note_on channel=9 note=38 velocity=127 time=0\n",
      "note_on channel=9 note=38 velocity=0 time=0\n",
      "note_on channel=9 note=36 velocity=127 time=0\n",
      "note_on channel=9 note=36 velocity=0 time=0\n",
      "note_on channel=9 note=42 velocity=127 time=0\n",
      "note_on channel=9 note=42 velocity=0 time=5\n",
      "note_on channel=9 note=69 velocity=61 time=25\n",
      "note_on channel=9 note=69 velocity=0 time=0\n",
      "note_on channel=9 note=69 velocity=127 time=30\n",
      "note_on channel=9 note=69 velocity=0 time=0\n",
      "note_on channel=9 note=42 velocity=77 time=0\n",
      "note_on channel=9 note=42 velocity=0 time=0\n",
      "note_on channel=9 note=69 velocity=127 time=30\n",
      "note_on channel=9 note=69 velocity=0 time=0\n",
      "note_on channel=9 note=69 velocity=61 time=30\n",
      "note_on channel=9 note=69 velocity=0 time=0\n",
      "note_on channel=9 note=36 velocity=127 time=0\n",
      "note_on channel=9 note=36 velocity=0 time=0\n",
      "note_on channel=9 note=42 velocity=77 time=0\n",
      "note_on channel=9 note=42 velocity=0 time=0\n",
      "note_on channel=9 note=69 velocity=61 time=30\n",
      "note_on channel=9 note=69 velocity=0 time=0\n",
      "note_on channel=9 note=69 velocity=127 time=30\n",
      "note_on channel=9 note=69 velocity=0 time=0\n",
      "note_on channel=9 note=42 velocity=77 time=0\n",
      "note_on channel=9 note=42 velocity=0 time=0\n",
      "note_on channel=9 note=69 velocity=127 time=30\n",
      "note_on channel=9 note=69 velocity=0 time=0\n",
      "note_on channel=9 note=69 velocity=61 time=30\n",
      "note_on channel=9 note=69 velocity=0 time=0\n",
      "note_on channel=9 note=38 velocity=127 time=0\n",
      "note_on channel=9 note=38 velocity=0 time=0\n",
      "note_on channel=9 note=36 velocity=127 time=0\n",
      "note_on channel=9 note=36 velocity=0 time=0\n",
      "note_on channel=9 note=42 velocity=127 time=0\n",
      "note_on channel=9 note=42 velocity=0 time=0\n",
      "note_on channel=9 note=69 velocity=61 time=30\n",
      "note_on channel=9 note=69 velocity=0 time=0\n",
      "note_on channel=9 note=69 velocity=127 time=30\n",
      "note_on channel=9 note=69 velocity=0 time=0\n",
      "note_on channel=9 note=42 velocity=77 time=0\n",
      "note_on channel=9 note=42 velocity=0 time=0\n",
      "note_on channel=9 note=69 velocity=127 time=30\n",
      "note_on channel=9 note=69 velocity=0 time=0\n",
      "note_on channel=9 note=69 velocity=61 time=30\n",
      "note_on channel=9 note=69 velocity=0 time=0\n",
      "note_on channel=9 note=36 velocity=127 time=0\n",
      "note_on channel=9 note=36 velocity=0 time=0\n",
      "note_on channel=9 note=42 velocity=77 time=0\n",
      "note_on channel=9 note=42 velocity=0 time=0\n",
      "note_on channel=9 note=69 velocity=61 time=30\n",
      "note_on channel=9 note=69 velocity=0 time=0\n",
      "note_on channel=9 note=69 velocity=127 time=30\n",
      "note_on channel=9 note=69 velocity=0 time=0\n",
      "note_on channel=9 note=42 velocity=77 time=0\n",
      "note_on channel=9 note=42 velocity=0 time=0\n",
      "note_on channel=9 note=69 velocity=127 time=30\n",
      "note_on channel=9 note=69 velocity=0 time=0\n",
      "note_on channel=9 note=69 velocity=61 time=30\n",
      "note_on channel=9 note=69 velocity=0 time=0\n",
      "note_on channel=9 note=38 velocity=127 time=0\n",
      "note_on channel=9 note=38 velocity=0 time=0\n",
      "note_on channel=9 note=36 velocity=127 time=0\n",
      "note_on channel=9 note=36 velocity=0 time=0\n",
      "note_on channel=9 note=42 velocity=127 time=0\n",
      "note_on channel=9 note=42 velocity=0 time=5\n",
      "note_on channel=9 note=69 velocity=61 time=25\n",
      "note_on channel=9 note=69 velocity=0 time=0\n",
      "note_on channel=9 note=69 velocity=127 time=30\n",
      "note_on channel=9 note=69 velocity=0 time=0\n",
      "note_on channel=9 note=42 velocity=77 time=0\n",
      "note_on channel=9 note=42 velocity=0 time=0\n",
      "note_on channel=9 note=69 velocity=127 time=30\n",
      "note_on channel=9 note=69 velocity=0 time=0\n",
      "note_on channel=9 note=69 velocity=61 time=30\n",
      "note_on channel=9 note=69 velocity=0 time=0\n",
      "note_on channel=9 note=36 velocity=127 time=0\n",
      "note_on channel=9 note=36 velocity=0 time=0\n",
      "note_on channel=9 note=42 velocity=77 time=0\n",
      "note_on channel=9 note=42 velocity=0 time=0\n",
      "note_on channel=9 note=69 velocity=61 time=30\n",
      "note_on channel=9 note=69 velocity=0 time=0\n",
      "note_on channel=9 note=69 velocity=127 time=30\n",
      "note_on channel=9 note=69 velocity=0 time=0\n",
      "note_on channel=9 note=42 velocity=77 time=0\n",
      "note_on channel=9 note=42 velocity=0 time=0\n",
      "note_on channel=9 note=69 velocity=127 time=30\n",
      "note_on channel=9 note=69 velocity=0 time=0\n",
      "note_on channel=9 note=69 velocity=61 time=30\n",
      "note_on channel=9 note=69 velocity=0 time=0\n",
      "note_on channel=9 note=38 velocity=127 time=0\n",
      "note_on channel=9 note=38 velocity=0 time=0\n",
      "note_on channel=9 note=36 velocity=127 time=0\n",
      "note_on channel=9 note=36 velocity=0 time=0\n",
      "note_on channel=9 note=42 velocity=127 time=0\n",
      "note_on channel=9 note=42 velocity=0 time=0\n",
      "note_on channel=9 note=69 velocity=61 time=30\n",
      "note_on channel=9 note=69 velocity=0 time=0\n",
      "note_on channel=9 note=69 velocity=127 time=30\n",
      "note_on channel=9 note=69 velocity=0 time=0\n",
      "note_on channel=9 note=42 velocity=77 time=0\n",
      "note_on channel=9 note=42 velocity=0 time=0\n",
      "note_on channel=9 note=69 velocity=127 time=30\n",
      "note_on channel=9 note=69 velocity=0 time=0\n",
      "note_on channel=9 note=69 velocity=61 time=30\n",
      "note_on channel=9 note=69 velocity=0 time=0\n",
      "note_on channel=9 note=36 velocity=127 time=0\n",
      "note_on channel=9 note=36 velocity=0 time=0\n",
      "note_on channel=9 note=42 velocity=77 time=0\n",
      "note_on channel=9 note=42 velocity=0 time=0\n",
      "note_on channel=9 note=69 velocity=61 time=30\n",
      "note_on channel=9 note=69 velocity=0 time=0\n",
      "note_on channel=9 note=69 velocity=127 time=30\n",
      "note_on channel=9 note=69 velocity=0 time=0\n",
      "note_on channel=9 note=42 velocity=77 time=0\n",
      "note_on channel=9 note=42 velocity=0 time=0\n",
      "note_on channel=9 note=69 velocity=127 time=30\n",
      "note_on channel=9 note=69 velocity=0 time=0\n",
      "note_on channel=9 note=69 velocity=61 time=30\n",
      "note_on channel=9 note=69 velocity=0 time=0\n",
      "note_on channel=9 note=38 velocity=127 time=0\n",
      "note_on channel=9 note=38 velocity=0 time=0\n",
      "note_on channel=9 note=36 velocity=127 time=0\n",
      "note_on channel=9 note=36 velocity=0 time=0\n",
      "note_on channel=9 note=42 velocity=127 time=0\n",
      "note_on channel=9 note=42 velocity=0 time=0\n",
      "note_on channel=9 note=69 velocity=61 time=30\n",
      "note_on channel=9 note=69 velocity=0 time=0\n",
      "note_on channel=9 note=69 velocity=127 time=30\n",
      "note_on channel=9 note=69 velocity=0 time=0\n",
      "note_on channel=9 note=42 velocity=77 time=0\n",
      "note_on channel=9 note=42 velocity=0 time=0\n",
      "note_on channel=9 note=69 velocity=127 time=30\n",
      "note_on channel=9 note=69 velocity=0 time=0\n",
      "note_on channel=9 note=69 velocity=61 time=30\n",
      "note_on channel=9 note=69 velocity=0 time=0\n",
      "note_on channel=9 note=36 velocity=127 time=0\n",
      "note_on channel=9 note=36 velocity=0 time=0\n",
      "note_on channel=9 note=42 velocity=77 time=0\n",
      "note_on channel=9 note=42 velocity=0 time=0\n",
      "note_on channel=9 note=69 velocity=61 time=30\n",
      "note_on channel=9 note=69 velocity=0 time=0\n",
      "note_on channel=9 note=69 velocity=127 time=30\n",
      "note_on channel=9 note=69 velocity=0 time=0\n",
      "note_on channel=9 note=38 velocity=127 time=0\n",
      "note_on channel=9 note=38 velocity=0 time=0\n",
      "note_on channel=9 note=42 velocity=77 time=0\n",
      "note_on channel=9 note=42 velocity=0 time=0\n",
      "note_on channel=9 note=69 velocity=127 time=30\n",
      "note_on channel=9 note=69 velocity=0 time=0\n",
      "note_on channel=9 note=38 velocity=127 time=0\n",
      "note_on channel=9 note=38 velocity=0 time=0\n",
      "note_on channel=9 note=69 velocity=61 time=30\n",
      "note_on channel=9 note=69 velocity=0 time=0\n",
      "note_on channel=9 note=38 velocity=127 time=0\n",
      "note_on channel=9 note=38 velocity=0 time=0\n",
      "note_on channel=9 note=36 velocity=127 time=0\n",
      "note_on channel=9 note=36 velocity=0 time=0\n",
      "note_on channel=9 note=42 velocity=77 time=0\n",
      "note_on channel=9 note=42 velocity=0 time=0\n",
      "note_on channel=9 note=69 velocity=61 time=30\n",
      "note_on channel=9 note=69 velocity=0 time=0\n",
      "note_on channel=9 note=41 velocity=113 time=0\n",
      "note_on channel=9 note=41 velocity=0 time=0\n",
      "note_on channel=9 note=69 velocity=127 time=30\n",
      "note_on channel=9 note=69 velocity=0 time=0\n",
      "note_on channel=9 note=42 velocity=77 time=0\n",
      "note_on channel=9 note=42 velocity=0 time=0\n",
      "note_on channel=9 note=69 velocity=127 time=30\n",
      "note_on channel=9 note=69 velocity=0 time=0\n",
      "note_on channel=9 note=69 velocity=61 time=30\n",
      "note_on channel=9 note=69 velocity=0 time=0\n",
      "note_on channel=9 note=36 velocity=127 time=0\n",
      "note_on channel=9 note=36 velocity=0 time=0\n",
      "note_on channel=9 note=42 velocity=77 time=0\n",
      "note_on channel=9 note=42 velocity=0 time=0\n",
      "note_on channel=9 note=49 velocity=85 time=5\n",
      "note_on channel=9 note=49 velocity=0 time=0\n",
      "note_on channel=9 note=69 velocity=61 time=25\n",
      "note_on channel=9 note=69 velocity=0 time=0\n",
      "note_on channel=9 note=69 velocity=127 time=30\n",
      "note_on channel=9 note=69 velocity=0 time=0\n",
      "note_on channel=9 note=42 velocity=77 time=0\n",
      "note_on channel=9 note=42 velocity=0 time=0\n",
      "note_on channel=9 note=69 velocity=127 time=30\n",
      "note_on channel=9 note=69 velocity=0 time=0\n",
      "note_on channel=9 note=69 velocity=61 time=30\n",
      "note_on channel=9 note=69 velocity=0 time=0\n",
      "note_on channel=9 note=38 velocity=127 time=0\n",
      "note_on channel=9 note=38 velocity=0 time=0\n",
      "note_on channel=9 note=36 velocity=127 time=0\n",
      "note_on channel=9 note=36 velocity=0 time=0\n",
      "note_on channel=9 note=42 velocity=127 time=0\n",
      "note_on channel=9 note=42 velocity=0 time=0\n",
      "note_on channel=9 note=69 velocity=61 time=30\n",
      "note_on channel=9 note=69 velocity=0 time=0\n",
      "note_on channel=9 note=69 velocity=127 time=30\n",
      "note_on channel=9 note=69 velocity=0 time=0\n",
      "note_on channel=9 note=42 velocity=77 time=0\n",
      "note_on channel=9 note=42 velocity=0 time=0\n",
      "note_on channel=9 note=69 velocity=127 time=30\n",
      "note_on channel=9 note=69 velocity=0 time=0\n",
      "note_on channel=9 note=69 velocity=61 time=30\n",
      "note_on channel=9 note=69 velocity=0 time=0\n",
      "note_on channel=9 note=36 velocity=127 time=0\n",
      "note_on channel=9 note=36 velocity=0 time=0\n",
      "note_on channel=9 note=42 velocity=77 time=0\n",
      "note_on channel=9 note=42 velocity=0 time=0\n",
      "note_on channel=9 note=69 velocity=61 time=30\n",
      "note_on channel=9 note=69 velocity=0 time=0\n",
      "note_on channel=9 note=69 velocity=127 time=30\n",
      "note_on channel=9 note=69 velocity=0 time=0\n",
      "note_on channel=9 note=42 velocity=77 time=0\n",
      "note_on channel=9 note=42 velocity=0 time=0\n",
      "note_on channel=9 note=69 velocity=127 time=30\n",
      "note_on channel=9 note=69 velocity=0 time=0\n",
      "note_on channel=9 note=69 velocity=61 time=30\n",
      "note_on channel=9 note=69 velocity=0 time=0\n",
      "note_on channel=9 note=38 velocity=127 time=0\n",
      "note_on channel=9 note=38 velocity=0 time=0\n",
      "note_on channel=9 note=36 velocity=127 time=0\n",
      "note_on channel=9 note=36 velocity=0 time=0\n",
      "note_on channel=9 note=42 velocity=127 time=0\n",
      "note_on channel=9 note=42 velocity=0 time=0\n",
      "note_on channel=9 note=69 velocity=61 time=30\n",
      "note_on channel=9 note=69 velocity=0 time=0\n",
      "note_on channel=9 note=69 velocity=127 time=30\n",
      "note_on channel=9 note=69 velocity=0 time=0\n",
      "note_on channel=9 note=42 velocity=77 time=0\n",
      "note_on channel=9 note=42 velocity=0 time=0\n",
      "note_on channel=9 note=69 velocity=127 time=30\n",
      "note_on channel=9 note=69 velocity=0 time=0\n",
      "note_on channel=9 note=69 velocity=61 time=30\n",
      "note_on channel=9 note=69 velocity=0 time=0\n",
      "note_on channel=9 note=36 velocity=127 time=0\n",
      "note_on channel=9 note=36 velocity=0 time=0\n",
      "note_on channel=9 note=42 velocity=77 time=0\n",
      "note_on channel=9 note=42 velocity=0 time=0\n",
      "note_on channel=9 note=69 velocity=61 time=30\n",
      "note_on channel=9 note=69 velocity=0 time=0\n",
      "note_on channel=9 note=69 velocity=127 time=30\n",
      "note_on channel=9 note=69 velocity=0 time=0\n",
      "note_on channel=9 note=42 velocity=77 time=0\n",
      "note_on channel=9 note=42 velocity=0 time=0\n",
      "note_on channel=9 note=69 velocity=127 time=30\n",
      "note_on channel=9 note=69 velocity=0 time=0\n",
      "note_on channel=9 note=69 velocity=61 time=30\n",
      "note_on channel=9 note=69 velocity=0 time=0\n",
      "note_on channel=9 note=38 velocity=127 time=0\n",
      "note_on channel=9 note=38 velocity=0 time=0\n",
      "note_on channel=9 note=36 velocity=127 time=0\n",
      "note_on channel=9 note=36 velocity=0 time=0\n",
      "note_on channel=9 note=42 velocity=127 time=0\n",
      "note_on channel=9 note=42 velocity=0 time=0\n",
      "note_on channel=9 note=69 velocity=61 time=30\n",
      "note_on channel=9 note=69 velocity=0 time=0\n",
      "note_on channel=9 note=69 velocity=127 time=30\n",
      "note_on channel=9 note=69 velocity=0 time=0\n",
      "note_on channel=9 note=42 velocity=77 time=0\n",
      "note_on channel=9 note=42 velocity=0 time=0\n",
      "note_on channel=9 note=69 velocity=127 time=30\n",
      "note_on channel=9 note=69 velocity=0 time=0\n",
      "note_on channel=9 note=69 velocity=61 time=30\n",
      "note_on channel=9 note=69 velocity=0 time=0\n",
      "note_on channel=9 note=36 velocity=127 time=0\n",
      "note_on channel=9 note=36 velocity=0 time=0\n",
      "note_on channel=9 note=42 velocity=77 time=0\n",
      "note_on channel=9 note=42 velocity=0 time=0\n",
      "note_on channel=9 note=69 velocity=61 time=30\n",
      "note_on channel=9 note=69 velocity=0 time=0\n",
      "note_on channel=9 note=69 velocity=127 time=30\n",
      "note_on channel=9 note=69 velocity=0 time=0\n",
      "note_on channel=9 note=42 velocity=77 time=0\n",
      "note_on channel=9 note=42 velocity=0 time=0\n",
      "note_on channel=9 note=69 velocity=127 time=30\n",
      "note_on channel=9 note=69 velocity=0 time=0\n",
      "note_on channel=9 note=69 velocity=61 time=30\n",
      "note_on channel=9 note=69 velocity=0 time=0\n",
      "note_on channel=9 note=38 velocity=127 time=0\n",
      "note_on channel=9 note=38 velocity=0 time=0\n",
      "note_on channel=9 note=36 velocity=127 time=0\n",
      "note_on channel=9 note=36 velocity=0 time=0\n",
      "note_on channel=9 note=42 velocity=127 time=0\n",
      "note_on channel=9 note=42 velocity=0 time=0\n",
      "note_on channel=9 note=69 velocity=61 time=30\n",
      "note_on channel=9 note=69 velocity=0 time=0\n",
      "note_on channel=9 note=69 velocity=127 time=30\n",
      "note_on channel=9 note=69 velocity=0 time=0\n",
      "note_on channel=9 note=42 velocity=77 time=0\n",
      "note_on channel=9 note=42 velocity=0 time=0\n",
      "note_on channel=9 note=69 velocity=127 time=30\n",
      "note_on channel=9 note=69 velocity=0 time=0\n",
      "note_on channel=9 note=69 velocity=61 time=30\n",
      "note_on channel=9 note=69 velocity=0 time=0\n",
      "note_on channel=9 note=36 velocity=127 time=0\n",
      "note_on channel=9 note=36 velocity=0 time=0\n",
      "note_on channel=9 note=42 velocity=77 time=0\n",
      "note_on channel=9 note=42 velocity=0 time=0\n",
      "note_on channel=9 note=69 velocity=61 time=30\n",
      "note_on channel=9 note=69 velocity=0 time=0\n",
      "note_on channel=9 note=69 velocity=127 time=30\n",
      "note_on channel=9 note=69 velocity=0 time=0\n",
      "note_on channel=9 note=42 velocity=77 time=0\n",
      "note_on channel=9 note=42 velocity=0 time=0\n",
      "note_on channel=9 note=69 velocity=127 time=30\n",
      "note_on channel=9 note=69 velocity=0 time=0\n",
      "note_on channel=9 note=69 velocity=61 time=30\n",
      "note_on channel=9 note=69 velocity=0 time=0\n",
      "note_on channel=9 note=38 velocity=127 time=0\n",
      "note_on channel=9 note=38 velocity=0 time=0\n",
      "note_on channel=9 note=36 velocity=127 time=0\n",
      "note_on channel=9 note=36 velocity=0 time=0\n",
      "note_on channel=9 note=42 velocity=127 time=0\n",
      "note_on channel=9 note=42 velocity=0 time=0\n",
      "note_on channel=9 note=69 velocity=61 time=30\n",
      "note_on channel=9 note=69 velocity=0 time=0\n",
      "note_on channel=9 note=69 velocity=127 time=30\n",
      "note_on channel=9 note=69 velocity=0 time=0\n",
      "note_on channel=9 note=42 velocity=77 time=0\n",
      "note_on channel=9 note=42 velocity=0 time=0\n",
      "note_on channel=9 note=69 velocity=127 time=30\n",
      "note_on channel=9 note=69 velocity=0 time=0\n",
      "note_on channel=9 note=69 velocity=61 time=30\n",
      "note_on channel=9 note=69 velocity=0 time=0\n",
      "note_on channel=9 note=36 velocity=127 time=0\n",
      "note_on channel=9 note=36 velocity=0 time=0\n",
      "note_on channel=9 note=42 velocity=77 time=0\n",
      "note_on channel=9 note=42 velocity=0 time=0\n",
      "note_on channel=9 note=69 velocity=61 time=30\n",
      "note_on channel=9 note=69 velocity=0 time=0\n",
      "note_on channel=9 note=69 velocity=127 time=30\n",
      "note_on channel=9 note=69 velocity=0 time=0\n",
      "note_on channel=9 note=42 velocity=77 time=0\n",
      "note_on channel=9 note=42 velocity=0 time=0\n",
      "note_on channel=9 note=69 velocity=127 time=30\n",
      "note_on channel=9 note=69 velocity=0 time=0\n",
      "note_on channel=9 note=69 velocity=61 time=30\n",
      "note_on channel=9 note=69 velocity=0 time=0\n",
      "note_on channel=9 note=38 velocity=127 time=0\n",
      "note_on channel=9 note=38 velocity=0 time=0\n",
      "note_on channel=9 note=36 velocity=127 time=0\n",
      "note_on channel=9 note=36 velocity=0 time=0\n",
      "note_on channel=9 note=42 velocity=127 time=0\n",
      "note_on channel=9 note=42 velocity=0 time=0\n",
      "note_on channel=9 note=69 velocity=61 time=30\n",
      "note_on channel=9 note=69 velocity=0 time=0\n",
      "note_on channel=9 note=69 velocity=127 time=30\n",
      "note_on channel=9 note=69 velocity=0 time=0\n",
      "note_on channel=9 note=42 velocity=77 time=0\n",
      "note_on channel=9 note=42 velocity=0 time=0\n",
      "note_on channel=9 note=69 velocity=127 time=30\n",
      "note_on channel=9 note=69 velocity=0 time=0\n",
      "note_on channel=9 note=69 velocity=61 time=30\n",
      "note_on channel=9 note=69 velocity=0 time=0\n",
      "note_on channel=9 note=36 velocity=127 time=0\n",
      "note_on channel=9 note=36 velocity=0 time=0\n",
      "note_on channel=9 note=42 velocity=77 time=0\n",
      "note_on channel=9 note=42 velocity=0 time=0\n",
      "note_on channel=9 note=69 velocity=61 time=30\n",
      "note_on channel=9 note=69 velocity=0 time=0\n",
      "note_on channel=9 note=69 velocity=127 time=30\n",
      "note_on channel=9 note=69 velocity=0 time=0\n",
      "note_on channel=9 note=42 velocity=77 time=0\n",
      "note_on channel=9 note=42 velocity=0 time=0\n",
      "note_on channel=9 note=69 velocity=127 time=30\n",
      "note_on channel=9 note=69 velocity=0 time=0\n",
      "note_on channel=9 note=69 velocity=61 time=30\n",
      "note_on channel=9 note=69 velocity=0 time=0\n",
      "note_on channel=9 note=38 velocity=127 time=0\n",
      "note_on channel=9 note=38 velocity=0 time=0\n",
      "note_on channel=9 note=36 velocity=127 time=0\n",
      "note_on channel=9 note=36 velocity=0 time=0\n",
      "note_on channel=9 note=42 velocity=127 time=5\n",
      "note_on channel=9 note=42 velocity=0 time=0\n",
      "note_on channel=9 note=69 velocity=61 time=25\n",
      "note_on channel=9 note=69 velocity=0 time=0\n",
      "note_on channel=9 note=69 velocity=127 time=30\n",
      "note_on channel=9 note=69 velocity=0 time=0\n",
      "note_on channel=9 note=42 velocity=77 time=0\n",
      "note_on channel=9 note=42 velocity=0 time=0\n",
      "note_on channel=9 note=69 velocity=127 time=30\n",
      "note_on channel=9 note=69 velocity=0 time=0\n",
      "note_on channel=9 note=69 velocity=61 time=30\n",
      "note_on channel=9 note=69 velocity=0 time=0\n",
      "note_on channel=9 note=36 velocity=127 time=0\n",
      "note_on channel=9 note=36 velocity=0 time=0\n",
      "note_on channel=9 note=42 velocity=77 time=0\n",
      "note_on channel=9 note=42 velocity=0 time=0\n",
      "note_on channel=9 note=69 velocity=61 time=30\n",
      "note_on channel=9 note=69 velocity=0 time=0\n",
      "note_on channel=9 note=69 velocity=127 time=30\n",
      "note_on channel=9 note=69 velocity=0 time=0\n",
      "note_on channel=9 note=38 velocity=127 time=0\n",
      "note_on channel=9 note=38 velocity=0 time=0\n",
      "note_on channel=9 note=42 velocity=77 time=0\n",
      "note_on channel=9 note=42 velocity=0 time=0\n",
      "note_on channel=9 note=69 velocity=127 time=30\n",
      "note_on channel=9 note=69 velocity=0 time=0\n",
      "note_on channel=9 note=69 velocity=61 time=30\n",
      "note_on channel=9 note=69 velocity=0 time=0\n",
      "note_on channel=9 note=38 velocity=127 time=0\n",
      "note_on channel=9 note=38 velocity=0 time=0\n",
      "note_on channel=9 note=36 velocity=127 time=0\n",
      "note_on channel=9 note=36 velocity=0 time=0\n",
      "note_on channel=9 note=42 velocity=127 time=0\n",
      "note_on channel=9 note=42 velocity=0 time=0\n",
      "note_on channel=9 note=69 velocity=61 time=30\n",
      "note_on channel=9 note=69 velocity=0 time=0\n",
      "note_on channel=9 note=69 velocity=127 time=30\n",
      "note_on channel=9 note=69 velocity=0 time=0\n",
      "note_on channel=9 note=38 velocity=127 time=0\n",
      "note_on channel=9 note=38 velocity=0 time=0\n",
      "note_on channel=9 note=42 velocity=77 time=0\n",
      "note_on channel=9 note=42 velocity=0 time=0\n",
      "note_on channel=9 note=69 velocity=127 time=30\n",
      "note_on channel=9 note=69 velocity=0 time=0\n",
      "note_on channel=9 note=38 velocity=127 time=0\n",
      "note_on channel=9 note=38 velocity=0 time=0\n",
      "note_on channel=9 note=69 velocity=61 time=30\n",
      "note_on channel=9 note=69 velocity=0 time=0\n",
      "note_on channel=9 note=36 velocity=127 time=0\n",
      "note_on channel=9 note=36 velocity=0 time=0\n",
      "note_on channel=9 note=42 velocity=77 time=0\n",
      "note_on channel=9 note=42 velocity=0 time=0\n",
      "note_on channel=9 note=49 velocity=85 time=0\n",
      "note_on channel=9 note=49 velocity=0 time=0\n",
      "note_on channel=9 note=69 velocity=61 time=30\n",
      "note_on channel=9 note=69 velocity=0 time=0\n",
      "note_on channel=9 note=69 velocity=127 time=30\n",
      "note_on channel=9 note=69 velocity=0 time=0\n",
      "note_on channel=9 note=42 velocity=77 time=0\n",
      "note_on channel=9 note=42 velocity=0 time=0\n",
      "note_on channel=9 note=69 velocity=127 time=30\n",
      "note_on channel=9 note=69 velocity=0 time=0\n",
      "note_on channel=9 note=69 velocity=61 time=30\n",
      "note_on channel=9 note=69 velocity=0 time=0\n",
      "note_on channel=9 note=38 velocity=127 time=0\n",
      "note_on channel=9 note=38 velocity=0 time=0\n",
      "note_on channel=9 note=36 velocity=127 time=0\n",
      "note_on channel=9 note=36 velocity=0 time=0\n",
      "note_on channel=9 note=42 velocity=127 time=0\n",
      "note_on channel=9 note=42 velocity=0 time=0\n",
      "note_on channel=9 note=69 velocity=61 time=30\n",
      "note_on channel=9 note=69 velocity=0 time=0\n",
      "note_on channel=9 note=69 velocity=127 time=30\n",
      "note_on channel=9 note=69 velocity=0 time=0\n",
      "note_on channel=9 note=42 velocity=77 time=0\n",
      "note_on channel=9 note=42 velocity=0 time=0\n",
      "note_on channel=9 note=69 velocity=127 time=30\n",
      "note_on channel=9 note=69 velocity=0 time=0\n",
      "note_on channel=9 note=69 velocity=61 time=30\n",
      "note_on channel=9 note=69 velocity=0 time=0\n",
      "note_on channel=9 note=36 velocity=127 time=0\n",
      "note_on channel=9 note=36 velocity=0 time=0\n",
      "note_on channel=9 note=42 velocity=77 time=0\n",
      "note_on channel=9 note=42 velocity=0 time=0\n",
      "note_on channel=9 note=69 velocity=61 time=30\n",
      "note_on channel=9 note=69 velocity=0 time=0\n",
      "note_on channel=9 note=69 velocity=127 time=30\n",
      "note_on channel=9 note=69 velocity=0 time=0\n",
      "note_on channel=9 note=42 velocity=77 time=0\n",
      "note_on channel=9 note=42 velocity=0 time=0\n",
      "note_on channel=9 note=69 velocity=127 time=30\n",
      "note_on channel=9 note=69 velocity=0 time=0\n",
      "note_on channel=9 note=69 velocity=61 time=30\n",
      "note_on channel=9 note=69 velocity=0 time=0\n",
      "note_on channel=9 note=38 velocity=127 time=0\n",
      "note_on channel=9 note=38 velocity=0 time=0\n",
      "note_on channel=9 note=36 velocity=127 time=0\n",
      "note_on channel=9 note=36 velocity=0 time=0\n",
      "note_on channel=9 note=42 velocity=127 time=0\n",
      "note_on channel=9 note=42 velocity=0 time=0\n",
      "note_on channel=9 note=69 velocity=61 time=30\n",
      "note_on channel=9 note=69 velocity=0 time=0\n",
      "note_on channel=9 note=69 velocity=127 time=30\n",
      "note_on channel=9 note=69 velocity=0 time=0\n",
      "note_on channel=9 note=42 velocity=77 time=0\n",
      "note_on channel=9 note=42 velocity=0 time=0\n",
      "note_on channel=9 note=69 velocity=127 time=30\n",
      "note_on channel=9 note=69 velocity=0 time=0\n",
      "note_on channel=9 note=69 velocity=61 time=30\n",
      "note_on channel=9 note=69 velocity=0 time=0\n",
      "note_on channel=9 note=36 velocity=127 time=0\n",
      "note_on channel=9 note=36 velocity=0 time=0\n",
      "note_on channel=9 note=42 velocity=77 time=0\n",
      "note_on channel=9 note=42 velocity=0 time=0\n",
      "note_on channel=9 note=69 velocity=61 time=30\n",
      "note_on channel=9 note=69 velocity=0 time=0\n",
      "note_on channel=9 note=69 velocity=127 time=30\n",
      "note_on channel=9 note=69 velocity=0 time=0\n",
      "note_on channel=9 note=42 velocity=77 time=0\n",
      "note_on channel=9 note=42 velocity=0 time=0\n",
      "note_on channel=9 note=69 velocity=127 time=30\n",
      "note_on channel=9 note=69 velocity=0 time=0\n",
      "note_on channel=9 note=69 velocity=61 time=30\n",
      "note_on channel=9 note=69 velocity=0 time=0\n",
      "note_on channel=9 note=38 velocity=127 time=0\n",
      "note_on channel=9 note=38 velocity=0 time=0\n",
      "note_on channel=9 note=36 velocity=127 time=0\n",
      "note_on channel=9 note=42 velocity=127 time=0\n",
      "note_on channel=9 note=42 velocity=0 time=0\n",
      "note_on channel=9 note=36 velocity=0 time=5\n",
      "note_on channel=9 note=69 velocity=61 time=25\n",
      "note_on channel=9 note=69 velocity=0 time=0\n",
      "note_on channel=9 note=69 velocity=127 time=30\n",
      "note_on channel=9 note=69 velocity=0 time=0\n",
      "note_on channel=9 note=42 velocity=77 time=0\n",
      "note_on channel=9 note=42 velocity=0 time=0\n",
      "note_on channel=9 note=69 velocity=127 time=30\n",
      "note_on channel=9 note=69 velocity=0 time=0\n",
      "note_on channel=9 note=69 velocity=61 time=30\n",
      "note_on channel=9 note=69 velocity=0 time=0\n",
      "note_on channel=9 note=36 velocity=127 time=0\n",
      "note_on channel=9 note=36 velocity=0 time=0\n",
      "note_on channel=9 note=42 velocity=77 time=0\n",
      "note_on channel=9 note=42 velocity=0 time=0\n",
      "note_on channel=9 note=69 velocity=61 time=30\n",
      "note_on channel=9 note=69 velocity=0 time=0\n",
      "note_on channel=9 note=69 velocity=127 time=30\n",
      "note_on channel=9 note=69 velocity=0 time=0\n",
      "note_on channel=9 note=42 velocity=77 time=0\n",
      "note_on channel=9 note=42 velocity=0 time=0\n",
      "note_on channel=9 note=69 velocity=127 time=30\n",
      "note_on channel=9 note=69 velocity=0 time=0\n",
      "note_on channel=9 note=69 velocity=61 time=30\n",
      "note_on channel=9 note=69 velocity=0 time=0\n",
      "note_on channel=9 note=38 velocity=127 time=0\n",
      "note_on channel=9 note=38 velocity=0 time=0\n",
      "note_on channel=9 note=36 velocity=127 time=0\n",
      "note_on channel=9 note=36 velocity=0 time=0\n",
      "note_on channel=9 note=42 velocity=127 time=0\n",
      "note_on channel=9 note=42 velocity=0 time=5\n",
      "note_on channel=9 note=69 velocity=61 time=25\n",
      "note_on channel=9 note=69 velocity=0 time=0\n",
      "note_on channel=9 note=69 velocity=127 time=30\n",
      "note_on channel=9 note=69 velocity=0 time=0\n",
      "note_on channel=9 note=42 velocity=77 time=0\n",
      "note_on channel=9 note=42 velocity=0 time=0\n",
      "note_on channel=9 note=69 velocity=127 time=30\n",
      "note_on channel=9 note=69 velocity=0 time=0\n",
      "note_on channel=9 note=69 velocity=61 time=30\n",
      "note_on channel=9 note=69 velocity=0 time=0\n",
      "note_on channel=9 note=36 velocity=127 time=0\n",
      "note_on channel=9 note=36 velocity=0 time=0\n",
      "note_on channel=9 note=42 velocity=77 time=0\n",
      "note_on channel=9 note=42 velocity=0 time=0\n",
      "note_on channel=9 note=69 velocity=61 time=30\n",
      "note_on channel=9 note=69 velocity=0 time=0\n",
      "note_on channel=9 note=69 velocity=127 time=30\n",
      "note_on channel=9 note=69 velocity=0 time=0\n",
      "note_on channel=9 note=42 velocity=77 time=0\n",
      "note_on channel=9 note=42 velocity=0 time=0\n",
      "note_on channel=9 note=69 velocity=127 time=30\n",
      "note_on channel=9 note=69 velocity=0 time=0\n",
      "note_on channel=9 note=69 velocity=61 time=30\n",
      "note_on channel=9 note=69 velocity=0 time=0\n",
      "note_on channel=9 note=38 velocity=127 time=0\n",
      "note_on channel=9 note=38 velocity=0 time=0\n",
      "note_on channel=9 note=36 velocity=127 time=0\n",
      "note_on channel=9 note=36 velocity=0 time=0\n",
      "note_on channel=9 note=42 velocity=127 time=0\n",
      "note_on channel=9 note=42 velocity=0 time=0\n",
      "note_on channel=9 note=69 velocity=61 time=30\n",
      "note_on channel=9 note=69 velocity=0 time=0\n",
      "note_on channel=9 note=69 velocity=127 time=30\n",
      "note_on channel=9 note=69 velocity=0 time=0\n",
      "note_on channel=9 note=42 velocity=77 time=0\n",
      "note_on channel=9 note=42 velocity=0 time=0\n",
      "note_on channel=9 note=69 velocity=127 time=30\n",
      "note_on channel=9 note=69 velocity=0 time=0\n",
      "note_on channel=9 note=69 velocity=61 time=30\n",
      "note_on channel=9 note=69 velocity=0 time=0\n",
      "note_on channel=9 note=36 velocity=127 time=0\n",
      "note_on channel=9 note=36 velocity=0 time=0\n",
      "note_on channel=9 note=42 velocity=77 time=0\n",
      "note_on channel=9 note=42 velocity=0 time=0\n",
      "note_on channel=9 note=69 velocity=61 time=30\n",
      "note_on channel=9 note=69 velocity=0 time=0\n",
      "note_on channel=9 note=69 velocity=127 time=30\n",
      "note_on channel=9 note=69 velocity=0 time=0\n",
      "note_on channel=9 note=42 velocity=77 time=0\n",
      "note_on channel=9 note=42 velocity=0 time=0\n",
      "note_on channel=9 note=69 velocity=127 time=30\n",
      "note_on channel=9 note=69 velocity=0 time=0\n",
      "note_on channel=9 note=69 velocity=61 time=30\n",
      "note_on channel=9 note=69 velocity=0 time=0\n",
      "note_on channel=9 note=38 velocity=127 time=0\n",
      "note_on channel=9 note=38 velocity=0 time=0\n",
      "note_on channel=9 note=36 velocity=127 time=0\n",
      "note_on channel=9 note=36 velocity=0 time=0\n",
      "note_on channel=9 note=42 velocity=127 time=0\n",
      "note_on channel=9 note=42 velocity=0 time=0\n",
      "note_on channel=9 note=69 velocity=61 time=30\n",
      "note_on channel=9 note=69 velocity=0 time=0\n",
      "note_on channel=9 note=69 velocity=127 time=30\n",
      "note_on channel=9 note=69 velocity=0 time=0\n",
      "note_on channel=9 note=42 velocity=77 time=0\n",
      "note_on channel=9 note=42 velocity=0 time=0\n",
      "note_on channel=9 note=69 velocity=127 time=30\n",
      "note_on channel=9 note=69 velocity=0 time=0\n",
      "note_on channel=9 note=69 velocity=61 time=30\n",
      "note_on channel=9 note=69 velocity=0 time=0\n",
      "note_on channel=9 note=36 velocity=127 time=0\n",
      "note_on channel=9 note=36 velocity=0 time=0\n",
      "note_on channel=9 note=42 velocity=77 time=0\n",
      "note_on channel=9 note=42 velocity=0 time=0\n",
      "note_on channel=9 note=69 velocity=61 time=30\n",
      "note_on channel=9 note=69 velocity=0 time=0\n",
      "note_on channel=9 note=69 velocity=127 time=30\n",
      "note_on channel=9 note=69 velocity=0 time=0\n",
      "note_on channel=9 note=42 velocity=77 time=0\n",
      "note_on channel=9 note=42 velocity=0 time=0\n",
      "note_on channel=9 note=69 velocity=127 time=30\n",
      "note_on channel=9 note=69 velocity=0 time=0\n",
      "note_on channel=9 note=69 velocity=61 time=30\n",
      "note_on channel=9 note=69 velocity=0 time=0\n",
      "note_on channel=9 note=38 velocity=127 time=0\n",
      "note_on channel=9 note=38 velocity=0 time=0\n",
      "note_on channel=9 note=36 velocity=127 time=0\n",
      "note_on channel=9 note=36 velocity=0 time=0\n",
      "note_on channel=9 note=42 velocity=127 time=0\n",
      "note_on channel=9 note=42 velocity=0 time=5\n",
      "note_on channel=9 note=69 velocity=61 time=25\n",
      "note_on channel=9 note=69 velocity=0 time=0\n",
      "note_on channel=9 note=69 velocity=127 time=30\n",
      "note_on channel=9 note=69 velocity=0 time=0\n",
      "note_on channel=9 note=42 velocity=77 time=0\n",
      "note_on channel=9 note=42 velocity=0 time=0\n",
      "note_on channel=9 note=69 velocity=127 time=30\n",
      "note_on channel=9 note=69 velocity=0 time=0\n",
      "note_on channel=9 note=69 velocity=61 time=30\n",
      "note_on channel=9 note=69 velocity=0 time=0\n",
      "note_on channel=9 note=36 velocity=127 time=0\n",
      "note_on channel=9 note=36 velocity=0 time=0\n",
      "note_on channel=9 note=42 velocity=77 time=0\n",
      "note_on channel=9 note=42 velocity=0 time=0\n",
      "note_on channel=9 note=69 velocity=61 time=30\n",
      "note_on channel=9 note=69 velocity=0 time=0\n",
      "note_on channel=9 note=69 velocity=127 time=30\n",
      "note_on channel=9 note=69 velocity=0 time=0\n",
      "note_on channel=9 note=38 velocity=127 time=0\n",
      "note_on channel=9 note=38 velocity=0 time=0\n",
      "note_on channel=9 note=42 velocity=77 time=0\n",
      "note_on channel=9 note=42 velocity=0 time=0\n",
      "note_on channel=9 note=69 velocity=127 time=30\n",
      "note_on channel=9 note=69 velocity=0 time=0\n",
      "note_on channel=9 note=38 velocity=127 time=0\n",
      "note_on channel=9 note=38 velocity=0 time=0\n",
      "note_on channel=9 note=69 velocity=61 time=30\n",
      "note_on channel=9 note=69 velocity=0 time=0\n",
      "note_on channel=9 note=38 velocity=127 time=0\n",
      "note_on channel=9 note=38 velocity=0 time=0\n",
      "note_on channel=9 note=36 velocity=127 time=0\n",
      "note_on channel=9 note=36 velocity=0 time=0\n",
      "note_on channel=9 note=42 velocity=77 time=0\n",
      "note_on channel=9 note=42 velocity=0 time=0\n",
      "note_on channel=9 note=69 velocity=61 time=30\n",
      "note_on channel=9 note=69 velocity=0 time=0\n",
      "note_on channel=9 note=41 velocity=113 time=0\n",
      "note_on channel=9 note=41 velocity=0 time=0\n",
      "note_on channel=9 note=69 velocity=127 time=30\n",
      "note_on channel=9 note=69 velocity=0 time=0\n",
      "note_on channel=9 note=42 velocity=77 time=0\n",
      "note_on channel=9 note=42 velocity=0 time=0\n",
      "note_on channel=9 note=69 velocity=127 time=30\n",
      "note_on channel=9 note=69 velocity=0 time=0\n",
      "note_on channel=9 note=69 velocity=61 time=30\n",
      "note_on channel=9 note=69 velocity=0 time=0\n",
      "note_on channel=9 note=36 velocity=127 time=0\n",
      "note_on channel=9 note=36 velocity=0 time=0\n",
      "note_on channel=9 note=42 velocity=77 time=0\n",
      "note_on channel=9 note=42 velocity=0 time=0\n",
      "note_on channel=9 note=69 velocity=61 time=30\n",
      "note_on channel=9 note=69 velocity=0 time=0\n",
      "note_on channel=9 note=69 velocity=127 time=30\n",
      "note_on channel=9 note=69 velocity=0 time=0\n",
      "note_on channel=9 note=42 velocity=77 time=0\n",
      "note_on channel=9 note=42 velocity=0 time=0\n",
      "note_on channel=9 note=69 velocity=127 time=30\n",
      "note_on channel=9 note=69 velocity=0 time=0\n",
      "note_on channel=9 note=69 velocity=61 time=30\n",
      "note_on channel=9 note=69 velocity=0 time=0\n",
      "note_on channel=9 note=38 velocity=127 time=0\n",
      "note_on channel=9 note=38 velocity=0 time=0\n",
      "note_on channel=9 note=36 velocity=127 time=0\n",
      "note_on channel=9 note=36 velocity=0 time=0\n",
      "note_on channel=9 note=42 velocity=127 time=0\n",
      "note_on channel=9 note=42 velocity=0 time=0\n",
      "note_on channel=9 note=69 velocity=61 time=30\n",
      "note_on channel=9 note=69 velocity=0 time=0\n",
      "note_on channel=9 note=69 velocity=127 time=30\n",
      "note_on channel=9 note=69 velocity=0 time=0\n",
      "note_on channel=9 note=42 velocity=77 time=0\n",
      "note_on channel=9 note=42 velocity=0 time=0\n",
      "note_on channel=9 note=69 velocity=127 time=30\n",
      "note_on channel=9 note=69 velocity=0 time=0\n",
      "note_on channel=9 note=69 velocity=61 time=30\n",
      "note_on channel=9 note=69 velocity=0 time=0\n",
      "note_on channel=9 note=36 velocity=127 time=0\n",
      "note_on channel=9 note=36 velocity=0 time=0\n",
      "note_on channel=9 note=42 velocity=77 time=0\n",
      "note_on channel=9 note=42 velocity=0 time=0\n",
      "note_on channel=9 note=69 velocity=61 time=30\n",
      "note_on channel=9 note=69 velocity=0 time=0\n",
      "note_on channel=9 note=69 velocity=127 time=30\n",
      "note_on channel=9 note=69 velocity=0 time=0\n",
      "note_on channel=9 note=42 velocity=77 time=0\n",
      "note_on channel=9 note=42 velocity=0 time=0\n",
      "note_on channel=9 note=69 velocity=127 time=30\n",
      "note_on channel=9 note=69 velocity=0 time=0\n",
      "note_on channel=9 note=69 velocity=61 time=30\n",
      "note_on channel=9 note=69 velocity=0 time=0\n",
      "note_on channel=9 note=38 velocity=127 time=0\n",
      "note_on channel=9 note=38 velocity=0 time=0\n",
      "note_on channel=9 note=36 velocity=127 time=0\n",
      "note_on channel=9 note=36 velocity=0 time=0\n",
      "note_on channel=9 note=42 velocity=127 time=0\n",
      "note_on channel=9 note=42 velocity=0 time=0\n",
      "note_on channel=9 note=69 velocity=61 time=30\n",
      "note_on channel=9 note=69 velocity=0 time=0\n",
      "note_on channel=9 note=69 velocity=127 time=30\n",
      "note_on channel=9 note=69 velocity=0 time=0\n",
      "note_on channel=9 note=42 velocity=77 time=0\n",
      "note_on channel=9 note=42 velocity=0 time=0\n",
      "note_on channel=9 note=69 velocity=127 time=30\n",
      "note_on channel=9 note=69 velocity=0 time=0\n",
      "note_on channel=9 note=69 velocity=61 time=30\n",
      "note_on channel=9 note=69 velocity=0 time=0\n",
      "note_on channel=9 note=36 velocity=127 time=0\n",
      "note_on channel=9 note=36 velocity=0 time=0\n",
      "note_on channel=9 note=42 velocity=77 time=0\n",
      "note_on channel=9 note=42 velocity=0 time=0\n",
      "note_on channel=9 note=69 velocity=61 time=30\n",
      "note_on channel=9 note=69 velocity=0 time=0\n",
      "note_on channel=9 note=69 velocity=127 time=30\n",
      "note_on channel=9 note=69 velocity=0 time=0\n",
      "note_on channel=9 note=42 velocity=77 time=0\n",
      "note_on channel=9 note=42 velocity=0 time=0\n",
      "note_on channel=9 note=69 velocity=127 time=30\n",
      "note_on channel=9 note=69 velocity=0 time=0\n",
      "note_on channel=9 note=69 velocity=61 time=30\n",
      "note_on channel=9 note=69 velocity=0 time=0\n",
      "note_on channel=9 note=38 velocity=127 time=0\n",
      "note_on channel=9 note=38 velocity=0 time=0\n",
      "note_on channel=9 note=36 velocity=127 time=0\n",
      "note_on channel=9 note=36 velocity=0 time=0\n",
      "note_on channel=9 note=42 velocity=127 time=0\n",
      "note_on channel=9 note=42 velocity=0 time=0\n",
      "note_on channel=9 note=69 velocity=61 time=30\n",
      "note_on channel=9 note=69 velocity=0 time=0\n",
      "note_on channel=9 note=69 velocity=127 time=30\n",
      "note_on channel=9 note=69 velocity=0 time=0\n",
      "note_on channel=9 note=42 velocity=77 time=0\n",
      "note_on channel=9 note=42 velocity=0 time=0\n",
      "note_on channel=9 note=69 velocity=127 time=30\n",
      "note_on channel=9 note=69 velocity=0 time=0\n",
      "note_on channel=9 note=69 velocity=61 time=30\n",
      "note_on channel=9 note=69 velocity=0 time=0\n",
      "note_on channel=9 note=36 velocity=127 time=0\n",
      "note_on channel=9 note=36 velocity=0 time=0\n",
      "note_on channel=9 note=42 velocity=77 time=0\n",
      "note_on channel=9 note=42 velocity=0 time=0\n",
      "note_on channel=9 note=69 velocity=61 time=30\n",
      "note_on channel=9 note=69 velocity=0 time=0\n",
      "note_on channel=9 note=69 velocity=127 time=30\n",
      "note_on channel=9 note=69 velocity=0 time=0\n",
      "note_on channel=9 note=42 velocity=77 time=0\n",
      "note_on channel=9 note=42 velocity=0 time=0\n",
      "note_on channel=9 note=69 velocity=127 time=30\n",
      "note_on channel=9 note=69 velocity=0 time=0\n",
      "note_on channel=9 note=69 velocity=61 time=30\n",
      "note_on channel=9 note=69 velocity=0 time=0\n",
      "note_on channel=9 note=38 velocity=127 time=0\n",
      "note_on channel=9 note=38 velocity=0 time=0\n",
      "note_on channel=9 note=36 velocity=127 time=0\n",
      "note_on channel=9 note=36 velocity=0 time=0\n",
      "note_on channel=9 note=42 velocity=127 time=0\n",
      "note_on channel=9 note=42 velocity=0 time=0\n",
      "note_on channel=9 note=69 velocity=61 time=30\n",
      "note_on channel=9 note=69 velocity=0 time=0\n",
      "note_on channel=9 note=69 velocity=127 time=30\n",
      "note_on channel=9 note=69 velocity=0 time=0\n",
      "note_on channel=9 note=42 velocity=77 time=0\n",
      "note_on channel=9 note=42 velocity=0 time=0\n",
      "note_on channel=9 note=69 velocity=127 time=30\n",
      "note_on channel=9 note=69 velocity=0 time=0\n",
      "note_on channel=9 note=69 velocity=61 time=30\n",
      "note_on channel=9 note=69 velocity=0 time=0\n",
      "note_on channel=9 note=36 velocity=127 time=0\n",
      "note_on channel=9 note=36 velocity=0 time=0\n",
      "note_on channel=9 note=42 velocity=77 time=0\n",
      "note_on channel=9 note=42 velocity=0 time=0\n",
      "note_on channel=9 note=69 velocity=61 time=30\n",
      "note_on channel=9 note=69 velocity=0 time=0\n",
      "note_on channel=9 note=69 velocity=127 time=30\n",
      "note_on channel=9 note=69 velocity=0 time=0\n",
      "note_on channel=9 note=42 velocity=77 time=0\n",
      "note_on channel=9 note=42 velocity=0 time=0\n",
      "note_on channel=9 note=69 velocity=127 time=30\n",
      "note_on channel=9 note=69 velocity=0 time=0\n",
      "note_on channel=9 note=69 velocity=61 time=30\n",
      "note_on channel=9 note=69 velocity=0 time=0\n",
      "note_on channel=9 note=38 velocity=127 time=0\n",
      "note_on channel=9 note=38 velocity=0 time=0\n",
      "note_on channel=9 note=36 velocity=127 time=0\n",
      "note_on channel=9 note=36 velocity=0 time=0\n",
      "note_on channel=9 note=42 velocity=127 time=0\n",
      "note_on channel=9 note=42 velocity=0 time=0\n",
      "note_on channel=9 note=69 velocity=61 time=30\n",
      "note_on channel=9 note=69 velocity=0 time=0\n",
      "note_on channel=9 note=69 velocity=127 time=30\n",
      "note_on channel=9 note=69 velocity=0 time=0\n",
      "note_on channel=9 note=42 velocity=77 time=0\n",
      "note_on channel=9 note=42 velocity=0 time=0\n",
      "note_on channel=9 note=69 velocity=127 time=30\n",
      "note_on channel=9 note=69 velocity=0 time=0\n",
      "note_on channel=9 note=69 velocity=61 time=30\n",
      "note_on channel=9 note=69 velocity=0 time=0\n",
      "note_on channel=9 note=36 velocity=127 time=0\n",
      "note_on channel=9 note=36 velocity=0 time=0\n",
      "note_on channel=9 note=42 velocity=77 time=0\n",
      "note_on channel=9 note=42 velocity=0 time=0\n",
      "note_on channel=9 note=69 velocity=61 time=30\n",
      "note_on channel=9 note=69 velocity=0 time=0\n",
      "note_on channel=9 note=69 velocity=127 time=30\n",
      "note_on channel=9 note=69 velocity=0 time=0\n",
      "note_on channel=9 note=42 velocity=77 time=0\n",
      "note_on channel=9 note=42 velocity=0 time=0\n",
      "note_on channel=9 note=69 velocity=127 time=30\n",
      "note_on channel=9 note=69 velocity=0 time=0\n",
      "note_on channel=9 note=69 velocity=61 time=30\n",
      "note_on channel=9 note=69 velocity=0 time=0\n",
      "note_on channel=9 note=38 velocity=127 time=0\n",
      "note_on channel=9 note=38 velocity=0 time=0\n",
      "note_on channel=9 note=36 velocity=127 time=0\n",
      "note_on channel=9 note=36 velocity=0 time=0\n",
      "note_on channel=9 note=42 velocity=127 time=0\n",
      "note_on channel=9 note=42 velocity=0 time=0\n",
      "note_on channel=9 note=69 velocity=61 time=30\n",
      "note_on channel=9 note=69 velocity=0 time=0\n",
      "note_on channel=9 note=69 velocity=127 time=30\n",
      "note_on channel=9 note=69 velocity=0 time=0\n",
      "note_on channel=9 note=42 velocity=77 time=0\n",
      "note_on channel=9 note=42 velocity=0 time=0\n",
      "note_on channel=9 note=69 velocity=127 time=30\n",
      "note_on channel=9 note=69 velocity=0 time=0\n",
      "note_on channel=9 note=69 velocity=61 time=30\n",
      "note_on channel=9 note=69 velocity=0 time=0\n",
      "note_on channel=9 note=36 velocity=127 time=0\n",
      "note_on channel=9 note=36 velocity=0 time=0\n",
      "note_on channel=9 note=42 velocity=77 time=0\n",
      "note_on channel=9 note=42 velocity=0 time=0\n",
      "note_on channel=9 note=69 velocity=61 time=30\n",
      "note_on channel=9 note=69 velocity=0 time=0\n",
      "note_on channel=9 note=69 velocity=127 time=30\n",
      "note_on channel=9 note=69 velocity=0 time=0\n",
      "note_on channel=9 note=42 velocity=77 time=0\n",
      "note_on channel=9 note=42 velocity=0 time=0\n",
      "note_on channel=9 note=69 velocity=127 time=30\n",
      "note_on channel=9 note=69 velocity=0 time=0\n",
      "note_on channel=9 note=69 velocity=61 time=30\n",
      "note_on channel=9 note=69 velocity=0 time=0\n",
      "note_on channel=9 note=38 velocity=127 time=0\n",
      "note_on channel=9 note=38 velocity=0 time=0\n",
      "note_on channel=9 note=36 velocity=127 time=0\n",
      "note_on channel=9 note=36 velocity=0 time=0\n",
      "note_on channel=9 note=42 velocity=127 time=0\n",
      "note_on channel=9 note=42 velocity=0 time=0\n",
      "note_on channel=9 note=69 velocity=61 time=30\n",
      "note_on channel=9 note=69 velocity=0 time=0\n",
      "note_on channel=9 note=69 velocity=127 time=30\n",
      "note_on channel=9 note=69 velocity=0 time=0\n",
      "note_on channel=9 note=42 velocity=77 time=0\n",
      "note_on channel=9 note=42 velocity=0 time=0\n",
      "note_on channel=9 note=69 velocity=127 time=30\n",
      "note_on channel=9 note=69 velocity=0 time=0\n",
      "note_on channel=9 note=69 velocity=61 time=30\n",
      "note_on channel=9 note=69 velocity=0 time=0\n",
      "note_on channel=9 note=36 velocity=127 time=0\n",
      "note_on channel=9 note=36 velocity=0 time=0\n",
      "note_on channel=9 note=42 velocity=77 time=0\n",
      "note_on channel=9 note=42 velocity=0 time=0\n",
      "note_on channel=9 note=69 velocity=61 time=30\n",
      "note_on channel=9 note=69 velocity=0 time=0\n",
      "note_on channel=9 note=69 velocity=127 time=30\n",
      "note_on channel=9 note=69 velocity=0 time=0\n",
      "note_on channel=9 note=38 velocity=127 time=0\n",
      "note_on channel=9 note=38 velocity=0 time=0\n",
      "note_on channel=9 note=42 velocity=77 time=0\n",
      "note_on channel=9 note=42 velocity=0 time=0\n",
      "note_on channel=9 note=69 velocity=127 time=30\n",
      "note_on channel=9 note=69 velocity=0 time=0\n",
      "note_on channel=9 note=69 velocity=61 time=30\n",
      "note_on channel=9 note=69 velocity=0 time=0\n",
      "note_on channel=9 note=38 velocity=127 time=0\n",
      "note_on channel=9 note=38 velocity=0 time=0\n",
      "note_on channel=9 note=36 velocity=127 time=0\n",
      "note_on channel=9 note=36 velocity=0 time=0\n",
      "note_on channel=9 note=42 velocity=127 time=0\n",
      "note_on channel=9 note=42 velocity=0 time=0\n",
      "note_on channel=9 note=69 velocity=61 time=30\n",
      "note_on channel=9 note=69 velocity=0 time=0\n",
      "note_on channel=9 note=69 velocity=127 time=30\n",
      "note_on channel=9 note=69 velocity=0 time=0\n",
      "note_on channel=9 note=38 velocity=127 time=0\n",
      "note_on channel=9 note=38 velocity=0 time=0\n",
      "note_on channel=9 note=42 velocity=77 time=0\n",
      "note_on channel=9 note=42 velocity=0 time=0\n",
      "note_on channel=9 note=69 velocity=127 time=30\n",
      "note_on channel=9 note=69 velocity=0 time=0\n",
      "note_on channel=9 note=38 velocity=127 time=0\n",
      "note_on channel=9 note=38 velocity=0 time=0\n",
      "note_on channel=9 note=69 velocity=61 time=30\n",
      "note_on channel=9 note=69 velocity=0 time=0\n",
      "note_on channel=9 note=36 velocity=127 time=0\n",
      "note_on channel=9 note=42 velocity=77 time=0\n",
      "note_on channel=9 note=42 velocity=0 time=0\n",
      "note_on channel=9 note=49 velocity=85 time=0\n",
      "note_on channel=9 note=49 velocity=0 time=0\n",
      "note_on channel=9 note=36 velocity=0 time=5\n",
      "note_on channel=9 note=69 velocity=61 time=25\n",
      "note_on channel=9 note=69 velocity=0 time=0\n",
      "note_on channel=9 note=69 velocity=127 time=30\n",
      "note_on channel=9 note=69 velocity=0 time=0\n",
      "note_on channel=9 note=42 velocity=77 time=0\n",
      "note_on channel=9 note=42 velocity=0 time=0\n",
      "note_on channel=9 note=69 velocity=127 time=30\n",
      "note_on channel=9 note=69 velocity=0 time=0\n",
      "note_on channel=9 note=69 velocity=61 time=30\n",
      "note_on channel=9 note=69 velocity=0 time=0\n",
      "note_on channel=9 note=38 velocity=127 time=0\n",
      "note_on channel=9 note=38 velocity=0 time=0\n",
      "note_on channel=9 note=36 velocity=127 time=0\n",
      "note_on channel=9 note=36 velocity=0 time=0\n",
      "note_on channel=9 note=42 velocity=127 time=0\n",
      "note_on channel=9 note=42 velocity=0 time=0\n",
      "note_on channel=9 note=69 velocity=61 time=30\n",
      "note_on channel=9 note=69 velocity=0 time=0\n",
      "note_on channel=9 note=69 velocity=127 time=30\n",
      "note_on channel=9 note=69 velocity=0 time=0\n",
      "note_on channel=9 note=42 velocity=77 time=0\n",
      "note_on channel=9 note=42 velocity=0 time=0\n",
      "note_on channel=9 note=69 velocity=127 time=30\n",
      "note_on channel=9 note=69 velocity=0 time=0\n",
      "note_on channel=9 note=69 velocity=61 time=30\n",
      "note_on channel=9 note=69 velocity=0 time=0\n",
      "note_on channel=9 note=36 velocity=127 time=0\n",
      "note_on channel=9 note=36 velocity=0 time=0\n",
      "note_on channel=9 note=42 velocity=77 time=0\n",
      "note_on channel=9 note=42 velocity=0 time=0\n",
      "note_on channel=9 note=69 velocity=61 time=30\n",
      "note_on channel=9 note=69 velocity=0 time=0\n",
      "note_on channel=9 note=69 velocity=127 time=30\n",
      "note_on channel=9 note=69 velocity=0 time=0\n",
      "note_on channel=9 note=42 velocity=77 time=0\n",
      "note_on channel=9 note=42 velocity=0 time=0\n",
      "note_on channel=9 note=69 velocity=127 time=30\n",
      "note_on channel=9 note=69 velocity=0 time=0\n",
      "note_on channel=9 note=69 velocity=61 time=30\n",
      "note_on channel=9 note=69 velocity=0 time=0\n",
      "note_on channel=9 note=38 velocity=127 time=0\n",
      "note_on channel=9 note=38 velocity=0 time=0\n",
      "note_on channel=9 note=36 velocity=127 time=0\n",
      "note_on channel=9 note=36 velocity=0 time=0\n",
      "note_on channel=9 note=42 velocity=127 time=0\n",
      "note_on channel=9 note=42 velocity=0 time=0\n",
      "note_on channel=9 note=69 velocity=61 time=30\n",
      "note_on channel=9 note=69 velocity=0 time=0\n",
      "note_on channel=9 note=69 velocity=127 time=30\n",
      "note_on channel=9 note=69 velocity=0 time=0\n",
      "note_on channel=9 note=42 velocity=77 time=0\n",
      "note_on channel=9 note=42 velocity=0 time=0\n",
      "note_on channel=9 note=69 velocity=127 time=30\n",
      "note_on channel=9 note=69 velocity=0 time=0\n",
      "note_on channel=9 note=69 velocity=61 time=30\n",
      "note_on channel=9 note=69 velocity=0 time=0\n",
      "note_on channel=9 note=36 velocity=127 time=0\n",
      "note_on channel=9 note=36 velocity=0 time=0\n",
      "note_on channel=9 note=42 velocity=77 time=0\n",
      "note_on channel=9 note=42 velocity=0 time=0\n",
      "note_on channel=9 note=69 velocity=61 time=30\n",
      "note_on channel=9 note=69 velocity=0 time=0\n",
      "note_on channel=9 note=69 velocity=127 time=30\n",
      "note_on channel=9 note=69 velocity=0 time=0\n",
      "note_on channel=9 note=42 velocity=77 time=0\n",
      "note_on channel=9 note=42 velocity=0 time=0\n",
      "note_on channel=9 note=69 velocity=127 time=30\n",
      "note_on channel=9 note=69 velocity=0 time=0\n",
      "note_on channel=9 note=69 velocity=61 time=30\n",
      "note_on channel=9 note=69 velocity=0 time=0\n",
      "note_on channel=9 note=38 velocity=127 time=0\n",
      "note_on channel=9 note=38 velocity=0 time=0\n",
      "note_on channel=9 note=36 velocity=127 time=0\n",
      "note_on channel=9 note=36 velocity=0 time=0\n",
      "note_on channel=9 note=42 velocity=127 time=0\n",
      "note_on channel=9 note=42 velocity=0 time=0\n",
      "note_on channel=9 note=69 velocity=61 time=30\n",
      "note_on channel=9 note=69 velocity=0 time=0\n",
      "note_on channel=9 note=69 velocity=127 time=30\n",
      "note_on channel=9 note=69 velocity=0 time=0\n",
      "note_on channel=9 note=42 velocity=77 time=0\n",
      "note_on channel=9 note=42 velocity=0 time=0\n",
      "note_on channel=9 note=69 velocity=127 time=30\n",
      "note_on channel=9 note=69 velocity=0 time=0\n",
      "note_on channel=9 note=69 velocity=61 time=30\n",
      "note_on channel=9 note=69 velocity=0 time=0\n",
      "note_on channel=9 note=36 velocity=127 time=0\n",
      "note_on channel=9 note=36 velocity=0 time=0\n",
      "note_on channel=9 note=42 velocity=77 time=0\n",
      "note_on channel=9 note=42 velocity=0 time=0\n",
      "note_on channel=9 note=69 velocity=61 time=30\n",
      "note_on channel=9 note=69 velocity=0 time=0\n",
      "note_on channel=9 note=69 velocity=127 time=30\n",
      "note_on channel=9 note=69 velocity=0 time=0\n",
      "note_on channel=9 note=42 velocity=77 time=0\n",
      "note_on channel=9 note=42 velocity=0 time=0\n",
      "note_on channel=9 note=69 velocity=127 time=30\n",
      "note_on channel=9 note=69 velocity=0 time=0\n",
      "note_on channel=9 note=69 velocity=61 time=30\n",
      "note_on channel=9 note=69 velocity=0 time=0\n",
      "note_on channel=9 note=38 velocity=127 time=0\n",
      "note_on channel=9 note=38 velocity=0 time=0\n",
      "note_on channel=9 note=36 velocity=127 time=0\n",
      "note_on channel=9 note=36 velocity=0 time=0\n",
      "note_on channel=9 note=42 velocity=127 time=0\n",
      "note_on channel=9 note=42 velocity=0 time=0\n",
      "note_on channel=9 note=69 velocity=61 time=30\n",
      "note_on channel=9 note=69 velocity=0 time=0\n",
      "note_on channel=9 note=69 velocity=127 time=30\n",
      "note_on channel=9 note=69 velocity=0 time=0\n",
      "note_on channel=9 note=42 velocity=77 time=0\n",
      "note_on channel=9 note=42 velocity=0 time=0\n",
      "note_on channel=9 note=69 velocity=127 time=30\n",
      "note_on channel=9 note=69 velocity=0 time=0\n",
      "note_on channel=9 note=69 velocity=61 time=30\n",
      "note_on channel=9 note=69 velocity=0 time=0\n",
      "note_on channel=9 note=36 velocity=127 time=0\n",
      "note_on channel=9 note=36 velocity=0 time=0\n",
      "note_on channel=9 note=42 velocity=77 time=0\n",
      "note_on channel=9 note=42 velocity=0 time=0\n",
      "note_on channel=9 note=69 velocity=61 time=30\n",
      "note_on channel=9 note=69 velocity=0 time=0\n",
      "note_on channel=9 note=69 velocity=127 time=30\n",
      "note_on channel=9 note=69 velocity=0 time=0\n",
      "note_on channel=9 note=42 velocity=77 time=0\n",
      "note_on channel=9 note=42 velocity=0 time=0\n",
      "note_on channel=9 note=69 velocity=127 time=30\n",
      "note_on channel=9 note=69 velocity=0 time=0\n",
      "note_on channel=9 note=69 velocity=61 time=30\n",
      "note_on channel=9 note=69 velocity=0 time=0\n",
      "note_on channel=9 note=38 velocity=127 time=0\n",
      "note_on channel=9 note=38 velocity=0 time=0\n",
      "note_on channel=9 note=36 velocity=127 time=0\n",
      "note_on channel=9 note=36 velocity=0 time=0\n",
      "note_on channel=9 note=42 velocity=127 time=0\n",
      "note_on channel=9 note=42 velocity=0 time=0\n",
      "note_on channel=9 note=69 velocity=61 time=30\n",
      "note_on channel=9 note=69 velocity=0 time=0\n",
      "note_on channel=9 note=69 velocity=127 time=30\n",
      "note_on channel=9 note=69 velocity=0 time=0\n",
      "note_on channel=9 note=42 velocity=77 time=0\n",
      "note_on channel=9 note=42 velocity=0 time=0\n",
      "note_on channel=9 note=69 velocity=127 time=30\n",
      "note_on channel=9 note=69 velocity=0 time=0\n",
      "note_on channel=9 note=69 velocity=61 time=30\n",
      "note_on channel=9 note=69 velocity=0 time=0\n",
      "note_on channel=9 note=36 velocity=127 time=0\n",
      "note_on channel=9 note=36 velocity=0 time=0\n",
      "note_on channel=9 note=42 velocity=77 time=0\n",
      "note_on channel=9 note=42 velocity=0 time=0\n",
      "note_on channel=9 note=69 velocity=61 time=30\n",
      "note_on channel=9 note=69 velocity=0 time=0\n",
      "note_on channel=9 note=69 velocity=127 time=30\n",
      "note_on channel=9 note=69 velocity=0 time=0\n",
      "note_on channel=9 note=42 velocity=77 time=0\n",
      "note_on channel=9 note=42 velocity=0 time=0\n",
      "note_on channel=9 note=69 velocity=127 time=30\n",
      "note_on channel=9 note=69 velocity=0 time=0\n",
      "note_on channel=9 note=69 velocity=61 time=30\n",
      "note_on channel=9 note=69 velocity=0 time=0\n",
      "note_on channel=9 note=38 velocity=127 time=0\n",
      "note_on channel=9 note=38 velocity=0 time=0\n",
      "note_on channel=9 note=36 velocity=127 time=0\n",
      "note_on channel=9 note=36 velocity=0 time=0\n",
      "note_on channel=9 note=42 velocity=127 time=0\n",
      "note_on channel=9 note=42 velocity=0 time=0\n",
      "note_on channel=9 note=69 velocity=61 time=30\n",
      "note_on channel=9 note=69 velocity=0 time=0\n",
      "note_on channel=9 note=69 velocity=127 time=30\n",
      "note_on channel=9 note=69 velocity=0 time=0\n",
      "note_on channel=9 note=42 velocity=77 time=0\n",
      "note_on channel=9 note=42 velocity=0 time=0\n",
      "note_on channel=9 note=69 velocity=127 time=30\n",
      "note_on channel=9 note=69 velocity=0 time=0\n",
      "note_on channel=9 note=69 velocity=61 time=30\n",
      "note_on channel=9 note=69 velocity=0 time=0\n",
      "note_on channel=9 note=36 velocity=127 time=0\n",
      "note_on channel=9 note=36 velocity=0 time=0\n",
      "note_on channel=9 note=42 velocity=77 time=0\n",
      "note_on channel=9 note=42 velocity=0 time=0\n",
      "note_on channel=9 note=69 velocity=61 time=30\n",
      "note_on channel=9 note=69 velocity=0 time=0\n",
      "note_on channel=9 note=69 velocity=127 time=30\n",
      "note_on channel=9 note=69 velocity=0 time=0\n",
      "note_on channel=9 note=42 velocity=77 time=0\n",
      "note_on channel=9 note=42 velocity=0 time=0\n",
      "note_on channel=9 note=69 velocity=127 time=30\n",
      "note_on channel=9 note=69 velocity=0 time=0\n",
      "note_on channel=9 note=69 velocity=61 time=30\n",
      "note_on channel=9 note=69 velocity=0 time=0\n",
      "note_on channel=9 note=38 velocity=127 time=0\n",
      "note_on channel=9 note=38 velocity=0 time=0\n",
      "note_on channel=9 note=36 velocity=127 time=0\n",
      "note_on channel=9 note=36 velocity=0 time=0\n",
      "note_on channel=9 note=42 velocity=127 time=0\n",
      "note_on channel=9 note=42 velocity=0 time=0\n",
      "note_on channel=9 note=69 velocity=61 time=30\n",
      "note_on channel=9 note=69 velocity=0 time=0\n",
      "note_on channel=9 note=69 velocity=127 time=30\n",
      "note_on channel=9 note=69 velocity=0 time=0\n",
      "note_on channel=9 note=42 velocity=77 time=0\n",
      "note_on channel=9 note=42 velocity=0 time=0\n",
      "note_on channel=9 note=69 velocity=127 time=30\n",
      "note_on channel=9 note=69 velocity=0 time=0\n",
      "note_on channel=9 note=69 velocity=61 time=30\n",
      "note_on channel=9 note=69 velocity=0 time=0\n",
      "note_on channel=9 note=36 velocity=127 time=0\n",
      "note_on channel=9 note=36 velocity=0 time=0\n",
      "note_on channel=9 note=42 velocity=77 time=0\n",
      "note_on channel=9 note=42 velocity=0 time=0\n",
      "note_on channel=9 note=69 velocity=61 time=30\n",
      "note_on channel=9 note=69 velocity=0 time=0\n",
      "note_on channel=9 note=69 velocity=127 time=30\n",
      "note_on channel=9 note=69 velocity=0 time=0\n",
      "note_on channel=9 note=38 velocity=127 time=0\n",
      "note_on channel=9 note=38 velocity=0 time=0\n",
      "note_on channel=9 note=42 velocity=77 time=0\n",
      "note_on channel=9 note=42 velocity=0 time=0\n",
      "note_on channel=9 note=69 velocity=127 time=30\n",
      "note_on channel=9 note=69 velocity=0 time=0\n",
      "note_on channel=9 note=38 velocity=127 time=0\n",
      "note_on channel=9 note=38 velocity=0 time=0\n",
      "note_on channel=9 note=69 velocity=61 time=30\n",
      "note_on channel=9 note=69 velocity=0 time=0\n",
      "note_on channel=9 note=38 velocity=127 time=0\n",
      "note_on channel=9 note=38 velocity=0 time=0\n",
      "note_on channel=9 note=36 velocity=127 time=0\n",
      "note_on channel=9 note=36 velocity=0 time=0\n",
      "note_on channel=9 note=42 velocity=77 time=0\n",
      "note_on channel=9 note=42 velocity=0 time=0\n",
      "note_on channel=9 note=69 velocity=61 time=30\n",
      "note_on channel=9 note=69 velocity=0 time=0\n",
      "note_on channel=9 note=41 velocity=113 time=0\n",
      "note_on channel=9 note=41 velocity=0 time=0\n",
      "note_on channel=9 note=69 velocity=127 time=30\n",
      "note_on channel=9 note=69 velocity=0 time=0\n",
      "note_on channel=9 note=42 velocity=77 time=0\n",
      "note_on channel=9 note=42 velocity=0 time=0\n",
      "note_on channel=9 note=69 velocity=127 time=30\n",
      "note_on channel=9 note=69 velocity=0 time=0\n",
      "note_on channel=9 note=69 velocity=61 time=30\n",
      "note_on channel=9 note=69 velocity=0 time=0\n",
      "note_on channel=9 note=36 velocity=127 time=0\n",
      "note_on channel=9 note=42 velocity=77 time=0\n",
      "note_on channel=9 note=42 velocity=0 time=0\n",
      "note_on channel=9 note=49 velocity=85 time=0\n",
      "note_on channel=9 note=49 velocity=0 time=0\n",
      "note_on channel=9 note=36 velocity=0 time=5\n",
      "note_on channel=9 note=69 velocity=61 time=25\n",
      "note_on channel=9 note=69 velocity=0 time=0\n",
      "note_on channel=9 note=69 velocity=127 time=30\n",
      "note_on channel=9 note=69 velocity=0 time=0\n",
      "note_on channel=9 note=42 velocity=77 time=0\n",
      "note_on channel=9 note=42 velocity=0 time=0\n",
      "note_on channel=9 note=69 velocity=127 time=30\n",
      "note_on channel=9 note=69 velocity=0 time=0\n",
      "note_on channel=9 note=69 velocity=61 time=30\n",
      "note_on channel=9 note=69 velocity=0 time=0\n",
      "note_on channel=9 note=38 velocity=127 time=0\n",
      "note_on channel=9 note=38 velocity=0 time=0\n",
      "note_on channel=9 note=36 velocity=127 time=0\n",
      "note_on channel=9 note=36 velocity=0 time=0\n",
      "note_on channel=9 note=42 velocity=127 time=0\n",
      "note_on channel=9 note=42 velocity=0 time=0\n",
      "note_on channel=9 note=69 velocity=61 time=30\n",
      "note_on channel=9 note=69 velocity=0 time=0\n",
      "note_on channel=9 note=69 velocity=127 time=30\n",
      "note_on channel=9 note=69 velocity=0 time=0\n",
      "note_on channel=9 note=42 velocity=77 time=0\n",
      "note_on channel=9 note=42 velocity=0 time=0\n",
      "note_on channel=9 note=69 velocity=127 time=30\n",
      "note_on channel=9 note=69 velocity=0 time=0\n",
      "note_on channel=9 note=69 velocity=61 time=30\n",
      "note_on channel=9 note=69 velocity=0 time=0\n",
      "note_on channel=9 note=36 velocity=127 time=0\n",
      "note_on channel=9 note=36 velocity=0 time=0\n",
      "note_on channel=9 note=42 velocity=77 time=0\n",
      "note_on channel=9 note=42 velocity=0 time=0\n",
      "note_on channel=9 note=69 velocity=61 time=30\n",
      "note_on channel=9 note=69 velocity=0 time=0\n",
      "note_on channel=9 note=69 velocity=127 time=30\n",
      "note_on channel=9 note=69 velocity=0 time=0\n",
      "note_on channel=9 note=42 velocity=77 time=0\n",
      "note_on channel=9 note=42 velocity=0 time=0\n",
      "note_on channel=9 note=69 velocity=127 time=30\n",
      "note_on channel=9 note=69 velocity=0 time=0\n",
      "note_on channel=9 note=69 velocity=61 time=30\n",
      "note_on channel=9 note=69 velocity=0 time=0\n",
      "note_on channel=9 note=38 velocity=127 time=0\n",
      "note_on channel=9 note=38 velocity=0 time=0\n",
      "note_on channel=9 note=36 velocity=127 time=0\n",
      "note_on channel=9 note=36 velocity=0 time=0\n",
      "note_on channel=9 note=42 velocity=127 time=0\n",
      "note_on channel=9 note=42 velocity=0 time=0\n",
      "note_on channel=9 note=69 velocity=61 time=30\n",
      "note_on channel=9 note=69 velocity=0 time=0\n",
      "note_on channel=9 note=69 velocity=127 time=30\n",
      "note_on channel=9 note=69 velocity=0 time=0\n",
      "note_on channel=9 note=42 velocity=77 time=0\n",
      "note_on channel=9 note=42 velocity=0 time=0\n",
      "note_on channel=9 note=69 velocity=127 time=30\n",
      "note_on channel=9 note=69 velocity=0 time=0\n",
      "note_on channel=9 note=69 velocity=61 time=30\n",
      "note_on channel=9 note=69 velocity=0 time=0\n",
      "note_on channel=9 note=36 velocity=127 time=0\n",
      "note_on channel=9 note=36 velocity=0 time=0\n",
      "note_on channel=9 note=42 velocity=77 time=0\n",
      "note_on channel=9 note=42 velocity=0 time=0\n",
      "note_on channel=9 note=69 velocity=61 time=30\n",
      "note_on channel=9 note=69 velocity=0 time=0\n",
      "note_on channel=9 note=69 velocity=127 time=30\n",
      "note_on channel=9 note=69 velocity=0 time=0\n",
      "note_on channel=9 note=42 velocity=77 time=0\n",
      "note_on channel=9 note=42 velocity=0 time=0\n",
      "note_on channel=9 note=69 velocity=127 time=30\n",
      "note_on channel=9 note=69 velocity=0 time=0\n",
      "note_on channel=9 note=69 velocity=61 time=30\n",
      "note_on channel=9 note=69 velocity=0 time=0\n",
      "note_on channel=9 note=38 velocity=127 time=0\n",
      "note_on channel=9 note=38 velocity=0 time=0\n",
      "note_on channel=9 note=36 velocity=127 time=0\n",
      "note_on channel=9 note=36 velocity=0 time=0\n",
      "note_on channel=9 note=42 velocity=127 time=0\n",
      "note_on channel=9 note=42 velocity=0 time=0\n",
      "note_on channel=9 note=69 velocity=61 time=30\n",
      "note_on channel=9 note=69 velocity=0 time=0\n",
      "note_on channel=9 note=69 velocity=127 time=30\n",
      "note_on channel=9 note=69 velocity=0 time=0\n",
      "note_on channel=9 note=42 velocity=77 time=0\n",
      "note_on channel=9 note=42 velocity=0 time=0\n",
      "note_on channel=9 note=69 velocity=127 time=30\n",
      "note_on channel=9 note=69 velocity=0 time=0\n",
      "note_on channel=9 note=69 velocity=61 time=30\n",
      "note_on channel=9 note=69 velocity=0 time=0\n",
      "note_on channel=9 note=36 velocity=127 time=0\n",
      "note_on channel=9 note=36 velocity=0 time=0\n",
      "note_on channel=9 note=42 velocity=77 time=0\n",
      "note_on channel=9 note=42 velocity=0 time=0\n",
      "note_on channel=9 note=69 velocity=61 time=30\n",
      "note_on channel=9 note=69 velocity=0 time=0\n",
      "note_on channel=9 note=69 velocity=127 time=30\n",
      "note_on channel=9 note=69 velocity=0 time=0\n",
      "note_on channel=9 note=42 velocity=77 time=0\n",
      "note_on channel=9 note=42 velocity=0 time=0\n",
      "note_on channel=9 note=69 velocity=127 time=30\n",
      "note_on channel=9 note=69 velocity=0 time=0\n",
      "note_on channel=9 note=69 velocity=61 time=30\n",
      "note_on channel=9 note=69 velocity=0 time=0\n",
      "note_on channel=9 note=38 velocity=127 time=0\n",
      "note_on channel=9 note=38 velocity=0 time=0\n",
      "note_on channel=9 note=36 velocity=127 time=0\n",
      "note_on channel=9 note=36 velocity=0 time=0\n",
      "note_on channel=9 note=42 velocity=127 time=0\n",
      "note_on channel=9 note=42 velocity=0 time=0\n",
      "note_on channel=9 note=69 velocity=61 time=30\n",
      "note_on channel=9 note=69 velocity=0 time=0\n",
      "note_on channel=9 note=69 velocity=127 time=30\n",
      "note_on channel=9 note=69 velocity=0 time=0\n",
      "note_on channel=9 note=42 velocity=77 time=0\n",
      "note_on channel=9 note=42 velocity=0 time=0\n",
      "note_on channel=9 note=69 velocity=127 time=30\n",
      "note_on channel=9 note=69 velocity=0 time=0\n",
      "note_on channel=9 note=69 velocity=61 time=30\n",
      "note_on channel=9 note=69 velocity=0 time=0\n",
      "note_on channel=9 note=36 velocity=127 time=0\n",
      "note_on channel=9 note=36 velocity=0 time=0\n",
      "note_on channel=9 note=42 velocity=77 time=0\n",
      "note_on channel=9 note=42 velocity=0 time=0\n",
      "note_on channel=9 note=69 velocity=61 time=30\n",
      "note_on channel=9 note=69 velocity=0 time=0\n",
      "note_on channel=9 note=69 velocity=127 time=30\n",
      "note_on channel=9 note=69 velocity=0 time=0\n",
      "note_on channel=9 note=42 velocity=77 time=0\n",
      "note_on channel=9 note=42 velocity=0 time=0\n",
      "note_on channel=9 note=69 velocity=127 time=30\n",
      "note_on channel=9 note=69 velocity=0 time=0\n",
      "note_on channel=9 note=69 velocity=61 time=30\n",
      "note_on channel=9 note=69 velocity=0 time=0\n",
      "note_on channel=9 note=38 velocity=127 time=0\n",
      "note_on channel=9 note=38 velocity=0 time=0\n",
      "note_on channel=9 note=36 velocity=127 time=0\n",
      "note_on channel=9 note=36 velocity=0 time=0\n",
      "note_on channel=9 note=42 velocity=127 time=0\n",
      "note_on channel=9 note=42 velocity=0 time=0\n",
      "note_on channel=9 note=69 velocity=61 time=30\n",
      "note_on channel=9 note=69 velocity=0 time=0\n",
      "note_on channel=9 note=69 velocity=127 time=30\n",
      "note_on channel=9 note=69 velocity=0 time=0\n",
      "note_on channel=9 note=42 velocity=77 time=0\n",
      "note_on channel=9 note=42 velocity=0 time=0\n",
      "note_on channel=9 note=69 velocity=127 time=30\n",
      "note_on channel=9 note=69 velocity=0 time=0\n",
      "note_on channel=9 note=69 velocity=61 time=30\n",
      "note_on channel=9 note=69 velocity=0 time=0\n",
      "note_on channel=9 note=36 velocity=127 time=0\n",
      "note_on channel=9 note=36 velocity=0 time=0\n",
      "note_on channel=9 note=42 velocity=77 time=0\n",
      "note_on channel=9 note=42 velocity=0 time=0\n",
      "note_on channel=9 note=69 velocity=61 time=30\n",
      "note_on channel=9 note=69 velocity=0 time=0\n",
      "note_on channel=9 note=69 velocity=127 time=30\n",
      "note_on channel=9 note=69 velocity=0 time=0\n",
      "note_on channel=9 note=42 velocity=77 time=0\n",
      "note_on channel=9 note=42 velocity=0 time=0\n",
      "note_on channel=9 note=69 velocity=127 time=30\n",
      "note_on channel=9 note=69 velocity=0 time=0\n",
      "note_on channel=9 note=69 velocity=61 time=30\n",
      "note_on channel=9 note=69 velocity=0 time=0\n",
      "note_on channel=9 note=38 velocity=127 time=0\n",
      "note_on channel=9 note=38 velocity=0 time=0\n",
      "note_on channel=9 note=36 velocity=127 time=0\n",
      "note_on channel=9 note=36 velocity=0 time=0\n",
      "note_on channel=9 note=42 velocity=127 time=0\n",
      "note_on channel=9 note=42 velocity=0 time=0\n",
      "note_on channel=9 note=69 velocity=61 time=30\n",
      "note_on channel=9 note=69 velocity=0 time=0\n",
      "note_on channel=9 note=69 velocity=127 time=30\n",
      "note_on channel=9 note=69 velocity=0 time=0\n",
      "note_on channel=9 note=42 velocity=77 time=0\n",
      "note_on channel=9 note=42 velocity=0 time=0\n",
      "note_on channel=9 note=69 velocity=127 time=30\n",
      "note_on channel=9 note=69 velocity=0 time=0\n",
      "note_on channel=9 note=69 velocity=61 time=30\n",
      "note_on channel=9 note=69 velocity=0 time=0\n",
      "note_on channel=9 note=36 velocity=127 time=0\n",
      "note_on channel=9 note=36 velocity=0 time=0\n",
      "note_on channel=9 note=42 velocity=77 time=0\n",
      "note_on channel=9 note=42 velocity=0 time=0\n",
      "note_on channel=9 note=69 velocity=61 time=30\n",
      "note_on channel=9 note=69 velocity=0 time=0\n",
      "note_on channel=9 note=69 velocity=127 time=30\n",
      "note_on channel=9 note=69 velocity=0 time=0\n",
      "note_on channel=9 note=42 velocity=77 time=0\n",
      "note_on channel=9 note=42 velocity=0 time=0\n",
      "note_on channel=9 note=69 velocity=127 time=30\n",
      "note_on channel=9 note=69 velocity=0 time=0\n",
      "note_on channel=9 note=69 velocity=61 time=30\n",
      "note_on channel=9 note=69 velocity=0 time=0\n",
      "note_on channel=9 note=38 velocity=127 time=0\n",
      "note_on channel=9 note=38 velocity=0 time=0\n",
      "note_on channel=9 note=36 velocity=127 time=0\n",
      "note_on channel=9 note=36 velocity=0 time=0\n",
      "note_on channel=9 note=42 velocity=127 time=0\n",
      "note_on channel=9 note=42 velocity=0 time=0\n",
      "note_on channel=9 note=69 velocity=61 time=30\n",
      "note_on channel=9 note=69 velocity=0 time=0\n",
      "note_on channel=9 note=69 velocity=127 time=30\n",
      "note_on channel=9 note=69 velocity=0 time=0\n",
      "note_on channel=9 note=42 velocity=77 time=0\n",
      "note_on channel=9 note=42 velocity=0 time=0\n",
      "note_on channel=9 note=69 velocity=127 time=30\n",
      "note_on channel=9 note=69 velocity=0 time=0\n",
      "note_on channel=9 note=69 velocity=61 time=30\n",
      "note_on channel=9 note=69 velocity=0 time=0\n",
      "note_on channel=9 note=36 velocity=127 time=0\n",
      "note_on channel=9 note=36 velocity=0 time=0\n",
      "note_on channel=9 note=42 velocity=77 time=0\n",
      "note_on channel=9 note=42 velocity=0 time=0\n",
      "note_on channel=9 note=69 velocity=61 time=30\n",
      "note_on channel=9 note=69 velocity=0 time=0\n",
      "note_on channel=9 note=69 velocity=127 time=30\n",
      "note_on channel=9 note=69 velocity=0 time=0\n",
      "note_on channel=9 note=38 velocity=127 time=0\n",
      "note_on channel=9 note=38 velocity=0 time=0\n",
      "note_on channel=9 note=42 velocity=77 time=0\n",
      "note_on channel=9 note=42 velocity=0 time=0\n",
      "note_on channel=9 note=69 velocity=127 time=30\n",
      "note_on channel=9 note=69 velocity=0 time=0\n",
      "note_on channel=9 note=69 velocity=61 time=30\n",
      "note_on channel=9 note=69 velocity=0 time=0\n",
      "note_on channel=9 note=38 velocity=127 time=0\n",
      "note_on channel=9 note=38 velocity=0 time=0\n",
      "note_on channel=9 note=36 velocity=127 time=0\n",
      "note_on channel=9 note=36 velocity=0 time=0\n",
      "note_on channel=9 note=42 velocity=127 time=0\n",
      "note_on channel=9 note=42 velocity=0 time=0\n",
      "note_on channel=9 note=69 velocity=61 time=30\n",
      "note_on channel=9 note=69 velocity=0 time=0\n",
      "note_on channel=9 note=69 velocity=127 time=30\n",
      "note_on channel=9 note=69 velocity=0 time=0\n",
      "note_on channel=9 note=38 velocity=127 time=0\n",
      "note_on channel=9 note=38 velocity=0 time=0\n",
      "note_on channel=9 note=42 velocity=77 time=0\n",
      "note_on channel=9 note=42 velocity=0 time=0\n",
      "note_on channel=9 note=69 velocity=127 time=30\n",
      "note_on channel=9 note=69 velocity=0 time=0\n",
      "note_on channel=9 note=38 velocity=127 time=0\n",
      "note_on channel=9 note=38 velocity=0 time=0\n",
      "note_on channel=9 note=69 velocity=61 time=30\n",
      "note_on channel=9 note=69 velocity=0 time=0\n",
      "note_on channel=9 note=36 velocity=127 time=0\n",
      "note_on channel=9 note=42 velocity=77 time=0\n",
      "note_on channel=9 note=49 velocity=85 time=0\n",
      "note_on channel=9 note=49 velocity=0 time=0\n",
      "note_on channel=9 note=42 velocity=0 time=5\n",
      "note_on channel=9 note=36 velocity=0 time=0\n",
      "note_on channel=9 note=69 velocity=61 time=25\n",
      "note_on channel=9 note=69 velocity=0 time=0\n",
      "note_on channel=9 note=69 velocity=127 time=30\n",
      "note_on channel=9 note=69 velocity=0 time=0\n",
      "note_on channel=9 note=42 velocity=77 time=0\n",
      "note_on channel=9 note=42 velocity=0 time=0\n",
      "note_on channel=9 note=69 velocity=127 time=30\n",
      "note_on channel=9 note=69 velocity=0 time=0\n",
      "note_on channel=9 note=69 velocity=61 time=30\n",
      "note_on channel=9 note=69 velocity=0 time=0\n",
      "note_on channel=9 note=38 velocity=127 time=0\n",
      "note_on channel=9 note=38 velocity=0 time=0\n",
      "note_on channel=9 note=36 velocity=127 time=0\n",
      "note_on channel=9 note=36 velocity=0 time=0\n",
      "note_on channel=9 note=42 velocity=127 time=0\n",
      "note_on channel=9 note=42 velocity=0 time=0\n",
      "note_on channel=9 note=69 velocity=61 time=30\n",
      "note_on channel=9 note=69 velocity=0 time=0\n",
      "note_on channel=9 note=69 velocity=127 time=30\n",
      "note_on channel=9 note=69 velocity=0 time=0\n",
      "note_on channel=9 note=42 velocity=77 time=0\n",
      "note_on channel=9 note=42 velocity=0 time=0\n",
      "note_on channel=9 note=69 velocity=127 time=30\n",
      "note_on channel=9 note=69 velocity=0 time=0\n",
      "note_on channel=9 note=69 velocity=61 time=30\n",
      "note_on channel=9 note=69 velocity=0 time=0\n",
      "note_on channel=9 note=36 velocity=127 time=0\n",
      "note_on channel=9 note=36 velocity=0 time=0\n",
      "note_on channel=9 note=42 velocity=77 time=0\n",
      "note_on channel=9 note=42 velocity=0 time=0\n",
      "note_on channel=9 note=69 velocity=61 time=30\n",
      "note_on channel=9 note=69 velocity=0 time=0\n",
      "note_on channel=9 note=69 velocity=127 time=30\n",
      "note_on channel=9 note=69 velocity=0 time=0\n",
      "note_on channel=9 note=42 velocity=77 time=0\n",
      "note_on channel=9 note=42 velocity=0 time=0\n",
      "note_on channel=9 note=69 velocity=127 time=30\n",
      "note_on channel=9 note=69 velocity=0 time=0\n",
      "note_on channel=9 note=69 velocity=61 time=30\n",
      "note_on channel=9 note=69 velocity=0 time=0\n",
      "note_on channel=9 note=38 velocity=127 time=0\n",
      "note_on channel=9 note=38 velocity=0 time=0\n",
      "note_on channel=9 note=36 velocity=127 time=0\n",
      "note_on channel=9 note=36 velocity=0 time=0\n",
      "note_on channel=9 note=42 velocity=127 time=0\n",
      "note_on channel=9 note=42 velocity=0 time=0\n",
      "note_on channel=9 note=69 velocity=61 time=30\n",
      "note_on channel=9 note=69 velocity=0 time=0\n",
      "note_on channel=9 note=69 velocity=127 time=30\n",
      "note_on channel=9 note=69 velocity=0 time=0\n",
      "note_on channel=9 note=42 velocity=77 time=0\n",
      "note_on channel=9 note=42 velocity=0 time=0\n",
      "note_on channel=9 note=69 velocity=127 time=30\n",
      "note_on channel=9 note=69 velocity=0 time=0\n",
      "note_on channel=9 note=69 velocity=61 time=30\n",
      "note_on channel=9 note=69 velocity=0 time=0\n",
      "note_on channel=9 note=36 velocity=127 time=0\n",
      "note_on channel=9 note=36 velocity=0 time=0\n",
      "note_on channel=9 note=42 velocity=77 time=0\n",
      "note_on channel=9 note=42 velocity=0 time=0\n",
      "note_on channel=9 note=69 velocity=61 time=30\n",
      "note_on channel=9 note=69 velocity=0 time=0\n",
      "note_on channel=9 note=69 velocity=127 time=30\n",
      "note_on channel=9 note=69 velocity=0 time=0\n",
      "note_on channel=9 note=42 velocity=77 time=0\n",
      "note_on channel=9 note=42 velocity=0 time=0\n",
      "note_on channel=9 note=69 velocity=127 time=30\n",
      "note_on channel=9 note=69 velocity=0 time=0\n",
      "note_on channel=9 note=69 velocity=61 time=30\n",
      "note_on channel=9 note=69 velocity=0 time=0\n",
      "note_on channel=9 note=38 velocity=127 time=0\n",
      "note_on channel=9 note=38 velocity=0 time=0\n",
      "note_on channel=9 note=36 velocity=127 time=0\n",
      "note_on channel=9 note=36 velocity=0 time=0\n",
      "note_on channel=9 note=42 velocity=127 time=0\n",
      "note_on channel=9 note=42 velocity=0 time=0\n",
      "note_on channel=9 note=69 velocity=61 time=30\n",
      "note_on channel=9 note=69 velocity=0 time=0\n",
      "note_on channel=9 note=69 velocity=127 time=30\n",
      "note_on channel=9 note=69 velocity=0 time=0\n",
      "note_on channel=9 note=42 velocity=77 time=0\n",
      "note_on channel=9 note=42 velocity=0 time=0\n",
      "note_on channel=9 note=69 velocity=127 time=30\n",
      "note_on channel=9 note=69 velocity=0 time=0\n",
      "note_on channel=9 note=69 velocity=61 time=30\n",
      "note_on channel=9 note=69 velocity=0 time=0\n",
      "note_on channel=9 note=36 velocity=127 time=0\n",
      "note_on channel=9 note=36 velocity=0 time=0\n",
      "note_on channel=9 note=42 velocity=77 time=0\n",
      "note_on channel=9 note=42 velocity=0 time=0\n",
      "note_on channel=9 note=69 velocity=61 time=30\n",
      "note_on channel=9 note=69 velocity=0 time=0\n",
      "note_on channel=9 note=69 velocity=127 time=30\n",
      "note_on channel=9 note=69 velocity=0 time=0\n",
      "note_on channel=9 note=42 velocity=77 time=0\n",
      "note_on channel=9 note=42 velocity=0 time=0\n",
      "note_on channel=9 note=69 velocity=127 time=30\n",
      "note_on channel=9 note=69 velocity=0 time=0\n",
      "note_on channel=9 note=69 velocity=61 time=30\n",
      "note_on channel=9 note=69 velocity=0 time=0\n",
      "note_on channel=9 note=38 velocity=127 time=0\n",
      "note_on channel=9 note=38 velocity=0 time=0\n",
      "note_on channel=9 note=36 velocity=127 time=0\n",
      "note_on channel=9 note=36 velocity=0 time=0\n",
      "note_on channel=9 note=42 velocity=127 time=0\n",
      "note_on channel=9 note=42 velocity=0 time=0\n",
      "note_on channel=9 note=69 velocity=61 time=30\n",
      "note_on channel=9 note=69 velocity=0 time=0\n",
      "note_on channel=9 note=69 velocity=127 time=30\n",
      "note_on channel=9 note=69 velocity=0 time=0\n",
      "note_on channel=9 note=42 velocity=77 time=0\n",
      "note_on channel=9 note=42 velocity=0 time=0\n",
      "note_on channel=9 note=69 velocity=127 time=30\n",
      "note_on channel=9 note=69 velocity=0 time=0\n",
      "note_on channel=9 note=69 velocity=61 time=30\n",
      "note_on channel=9 note=69 velocity=0 time=0\n",
      "note_on channel=9 note=36 velocity=127 time=0\n",
      "note_on channel=9 note=36 velocity=0 time=0\n",
      "note_on channel=9 note=42 velocity=77 time=0\n",
      "note_on channel=9 note=42 velocity=0 time=0\n",
      "note_on channel=9 note=69 velocity=61 time=30\n",
      "note_on channel=9 note=69 velocity=0 time=0\n",
      "note_on channel=9 note=69 velocity=127 time=30\n",
      "note_on channel=9 note=69 velocity=0 time=0\n",
      "note_on channel=9 note=42 velocity=77 time=0\n",
      "note_on channel=9 note=42 velocity=0 time=0\n",
      "note_on channel=9 note=69 velocity=127 time=30\n",
      "note_on channel=9 note=69 velocity=0 time=0\n",
      "note_on channel=9 note=69 velocity=61 time=30\n",
      "note_on channel=9 note=69 velocity=0 time=0\n",
      "note_on channel=9 note=38 velocity=127 time=0\n",
      "note_on channel=9 note=38 velocity=0 time=0\n",
      "note_on channel=9 note=36 velocity=127 time=0\n",
      "note_on channel=9 note=36 velocity=0 time=0\n",
      "note_on channel=9 note=42 velocity=127 time=0\n",
      "note_on channel=9 note=42 velocity=0 time=0\n",
      "note_on channel=9 note=69 velocity=61 time=30\n",
      "note_on channel=9 note=69 velocity=0 time=0\n",
      "note_on channel=9 note=69 velocity=127 time=30\n",
      "note_on channel=9 note=69 velocity=0 time=0\n",
      "note_on channel=9 note=42 velocity=77 time=0\n",
      "note_on channel=9 note=42 velocity=0 time=0\n",
      "note_on channel=9 note=69 velocity=127 time=30\n",
      "note_on channel=9 note=69 velocity=0 time=0\n",
      "note_on channel=9 note=69 velocity=61 time=30\n",
      "note_on channel=9 note=69 velocity=0 time=0\n",
      "note_on channel=9 note=36 velocity=127 time=0\n",
      "note_on channel=9 note=36 velocity=0 time=0\n",
      "note_on channel=9 note=42 velocity=77 time=0\n",
      "note_on channel=9 note=42 velocity=0 time=0\n",
      "note_on channel=9 note=69 velocity=61 time=30\n",
      "note_on channel=9 note=69 velocity=0 time=0\n",
      "note_on channel=9 note=69 velocity=127 time=30\n",
      "note_on channel=9 note=69 velocity=0 time=0\n",
      "note_on channel=9 note=42 velocity=77 time=0\n",
      "note_on channel=9 note=42 velocity=0 time=0\n",
      "note_on channel=9 note=69 velocity=127 time=30\n",
      "note_on channel=9 note=69 velocity=0 time=0\n",
      "note_on channel=9 note=69 velocity=61 time=30\n",
      "note_on channel=9 note=69 velocity=0 time=0\n",
      "note_on channel=9 note=38 velocity=127 time=0\n",
      "note_on channel=9 note=38 velocity=0 time=0\n",
      "note_on channel=9 note=36 velocity=127 time=0\n",
      "note_on channel=9 note=36 velocity=0 time=0\n",
      "note_on channel=9 note=42 velocity=127 time=0\n",
      "note_on channel=9 note=42 velocity=0 time=0\n",
      "note_on channel=9 note=69 velocity=61 time=30\n",
      "note_on channel=9 note=69 velocity=0 time=0\n",
      "note_on channel=9 note=69 velocity=127 time=30\n",
      "note_on channel=9 note=69 velocity=0 time=0\n",
      "note_on channel=9 note=42 velocity=77 time=0\n",
      "note_on channel=9 note=42 velocity=0 time=0\n",
      "note_on channel=9 note=69 velocity=127 time=30\n",
      "note_on channel=9 note=69 velocity=0 time=0\n",
      "note_on channel=9 note=69 velocity=61 time=30\n",
      "note_on channel=9 note=69 velocity=0 time=0\n",
      "note_on channel=9 note=36 velocity=127 time=0\n",
      "note_on channel=9 note=36 velocity=0 time=0\n",
      "note_on channel=9 note=42 velocity=77 time=0\n",
      "note_on channel=9 note=42 velocity=0 time=0\n",
      "note_on channel=9 note=69 velocity=61 time=30\n",
      "note_on channel=9 note=69 velocity=0 time=0\n",
      "note_on channel=9 note=69 velocity=127 time=30\n",
      "note_on channel=9 note=69 velocity=0 time=0\n",
      "note_on channel=9 note=42 velocity=77 time=0\n",
      "note_on channel=9 note=42 velocity=0 time=0\n",
      "note_on channel=9 note=69 velocity=127 time=30\n",
      "note_on channel=9 note=69 velocity=0 time=0\n",
      "note_on channel=9 note=69 velocity=61 time=30\n",
      "note_on channel=9 note=69 velocity=0 time=0\n",
      "note_on channel=9 note=38 velocity=127 time=0\n",
      "note_on channel=9 note=38 velocity=0 time=0\n",
      "note_on channel=9 note=36 velocity=127 time=0\n",
      "note_on channel=9 note=42 velocity=127 time=0\n",
      "note_on channel=9 note=42 velocity=0 time=5\n",
      "note_on channel=9 note=36 velocity=0 time=0\n",
      "note_on channel=9 note=69 velocity=61 time=25\n",
      "note_on channel=9 note=69 velocity=0 time=0\n",
      "note_on channel=9 note=69 velocity=127 time=30\n",
      "note_on channel=9 note=69 velocity=0 time=0\n",
      "note_on channel=9 note=42 velocity=77 time=0\n",
      "note_on channel=9 note=42 velocity=0 time=0\n",
      "note_on channel=9 note=69 velocity=127 time=30\n",
      "note_on channel=9 note=69 velocity=0 time=0\n",
      "note_on channel=9 note=69 velocity=61 time=30\n",
      "note_on channel=9 note=69 velocity=0 time=0\n",
      "note_on channel=9 note=36 velocity=127 time=0\n",
      "note_on channel=9 note=36 velocity=0 time=0\n",
      "note_on channel=9 note=42 velocity=77 time=0\n",
      "note_on channel=9 note=42 velocity=0 time=0\n",
      "note_on channel=9 note=69 velocity=61 time=30\n",
      "note_on channel=9 note=69 velocity=0 time=0\n",
      "note_on channel=9 note=69 velocity=127 time=30\n",
      "note_on channel=9 note=69 velocity=0 time=0\n",
      "note_on channel=9 note=38 velocity=127 time=0\n",
      "note_on channel=9 note=38 velocity=0 time=0\n",
      "note_on channel=9 note=42 velocity=77 time=0\n",
      "note_on channel=9 note=42 velocity=0 time=0\n",
      "note_on channel=9 note=69 velocity=127 time=30\n",
      "note_on channel=9 note=69 velocity=0 time=0\n",
      "note_on channel=9 note=38 velocity=127 time=0\n",
      "note_on channel=9 note=38 velocity=0 time=0\n",
      "note_on channel=9 note=69 velocity=61 time=30\n",
      "note_on channel=9 note=69 velocity=0 time=0\n",
      "note_on channel=9 note=38 velocity=127 time=0\n",
      "note_on channel=9 note=38 velocity=0 time=0\n",
      "note_on channel=9 note=36 velocity=127 time=0\n",
      "note_on channel=9 note=36 velocity=0 time=0\n",
      "note_on channel=9 note=42 velocity=77 time=0\n",
      "note_on channel=9 note=42 velocity=0 time=0\n",
      "note_on channel=9 note=69 velocity=61 time=30\n",
      "note_on channel=9 note=69 velocity=0 time=0\n",
      "note_on channel=9 note=41 velocity=113 time=0\n",
      "note_on channel=9 note=41 velocity=0 time=0\n",
      "note_on channel=9 note=69 velocity=127 time=30\n",
      "note_on channel=9 note=69 velocity=0 time=0\n",
      "note_on channel=9 note=42 velocity=77 time=0\n",
      "note_on channel=9 note=42 velocity=0 time=0\n",
      "note_on channel=9 note=69 velocity=127 time=30\n",
      "note_on channel=9 note=69 velocity=0 time=0\n",
      "note_on channel=9 note=69 velocity=61 time=30\n",
      "note_on channel=9 note=69 velocity=0 time=0\n",
      "note_on channel=9 note=36 velocity=127 time=0\n",
      "note_on channel=9 note=36 velocity=0 time=0\n",
      "note_on channel=9 note=69 velocity=61 time=30\n",
      "note_on channel=9 note=69 velocity=0 time=0\n",
      "note_on channel=9 note=69 velocity=127 time=30\n",
      "note_on channel=9 note=69 velocity=0 time=0\n",
      "note_on channel=9 note=69 velocity=127 time=30\n",
      "note_on channel=9 note=69 velocity=0 time=0\n",
      "note_on channel=9 note=36 velocity=127 time=0\n",
      "note_on channel=9 note=36 velocity=0 time=0\n",
      "note_on channel=9 note=69 velocity=61 time=30\n",
      "note_on channel=9 note=69 velocity=0 time=0\n",
      "note_on channel=9 note=38 velocity=127 time=0\n",
      "note_on channel=9 note=38 velocity=0 time=0\n",
      "note_on channel=9 note=69 velocity=61 time=30\n",
      "note_on channel=9 note=69 velocity=0 time=0\n",
      "note_on channel=9 note=36 velocity=127 time=0\n",
      "note_on channel=9 note=36 velocity=0 time=0\n",
      "note_on channel=9 note=69 velocity=127 time=30\n",
      "note_on channel=9 note=69 velocity=0 time=0\n",
      "note_on channel=9 note=69 velocity=127 time=30\n",
      "note_on channel=9 note=69 velocity=0 time=0\n",
      "note_on channel=9 note=36 velocity=127 time=0\n",
      "note_on channel=9 note=36 velocity=0 time=0\n",
      "note_on channel=9 note=69 velocity=61 time=30\n",
      "note_on channel=9 note=69 velocity=0 time=0\n",
      "note_on channel=9 note=69 velocity=61 time=30\n",
      "note_on channel=9 note=69 velocity=0 time=0\n",
      "note_on channel=9 note=69 velocity=127 time=30\n",
      "note_on channel=9 note=69 velocity=0 time=0\n",
      "note_on channel=9 note=36 velocity=127 time=0\n",
      "note_on channel=9 note=36 velocity=0 time=0\n",
      "note_on channel=9 note=69 velocity=127 time=30\n",
      "note_on channel=9 note=69 velocity=0 time=0\n",
      "note_on channel=9 note=69 velocity=61 time=30\n",
      "note_on channel=9 note=69 velocity=0 time=0\n",
      "note_on channel=9 note=38 velocity=127 time=0\n",
      "note_on channel=9 note=38 velocity=0 time=0\n",
      "note_on channel=9 note=69 velocity=61 time=30\n",
      "note_on channel=9 note=69 velocity=0 time=0\n",
      "note_on channel=9 note=69 velocity=127 time=30\n",
      "note_on channel=9 note=69 velocity=0 time=0\n",
      "note_on channel=9 note=69 velocity=127 time=30\n",
      "note_on channel=9 note=69 velocity=0 time=0\n",
      "note_on channel=9 note=69 velocity=61 time=30\n",
      "note_on channel=9 note=69 velocity=0 time=0\n",
      "note_on channel=9 note=36 velocity=127 time=0\n",
      "note_on channel=9 note=36 velocity=0 time=0\n",
      "note_on channel=9 note=69 velocity=61 time=30\n",
      "note_on channel=9 note=69 velocity=0 time=0\n",
      "note_on channel=9 note=69 velocity=127 time=30\n",
      "note_on channel=9 note=69 velocity=0 time=0\n",
      "note_on channel=9 note=69 velocity=127 time=30\n",
      "note_on channel=9 note=69 velocity=0 time=0\n",
      "note_on channel=9 note=38 velocity=127 time=0\n",
      "note_on channel=9 note=38 velocity=0 time=0\n",
      "note_on channel=9 note=36 velocity=127 time=0\n",
      "note_on channel=9 note=36 velocity=0 time=0\n",
      "note_on channel=9 note=69 velocity=61 time=30\n",
      "note_on channel=9 note=69 velocity=0 time=0\n",
      "note_on channel=9 note=69 velocity=61 time=30\n",
      "note_on channel=9 note=69 velocity=0 time=0\n",
      "note_on channel=9 note=36 velocity=127 time=0\n",
      "note_on channel=9 note=36 velocity=0 time=0\n",
      "note_on channel=9 note=69 velocity=127 time=30\n",
      "note_on channel=9 note=69 velocity=0 time=0\n",
      "note_on channel=9 note=69 velocity=127 time=30\n",
      "note_on channel=9 note=69 velocity=0 time=0\n",
      "note_on channel=9 note=36 velocity=127 time=0\n",
      "note_on channel=9 note=36 velocity=0 time=0\n",
      "note_on channel=9 note=69 velocity=61 time=30\n",
      "note_on channel=9 note=69 velocity=0 time=0\n",
      "note_on channel=9 note=69 velocity=61 time=30\n",
      "note_on channel=9 note=69 velocity=0 time=0\n",
      "note_on channel=9 note=36 velocity=127 time=0\n",
      "note_on channel=9 note=36 velocity=0 time=0\n",
      "note_on channel=9 note=69 velocity=127 time=30\n",
      "note_on channel=9 note=69 velocity=0 time=0\n",
      "note_on channel=9 note=36 velocity=127 time=0\n",
      "note_on channel=9 note=36 velocity=0 time=0\n",
      "note_on channel=9 note=69 velocity=127 time=30\n",
      "note_on channel=9 note=69 velocity=0 time=0\n",
      "note_on channel=9 note=36 velocity=127 time=0\n",
      "note_on channel=9 note=36 velocity=0 time=0\n",
      "note_on channel=9 note=69 velocity=61 time=30\n",
      "note_on channel=9 note=69 velocity=0 time=0\n",
      "note_on channel=9 note=38 velocity=127 time=0\n",
      "note_on channel=9 note=38 velocity=0 time=0\n",
      "note_on channel=9 note=69 velocity=61 time=30\n",
      "note_on channel=9 note=69 velocity=0 time=0\n",
      "note_on channel=9 note=69 velocity=127 time=30\n",
      "note_on channel=9 note=69 velocity=0 time=0\n",
      "note_on channel=9 note=69 velocity=127 time=30\n",
      "note_on channel=9 note=69 velocity=0 time=0\n",
      "note_on channel=9 note=69 velocity=61 time=30\n",
      "note_on channel=9 note=69 velocity=0 time=0\n",
      "note_on channel=9 note=36 velocity=127 time=0\n",
      "note_on channel=9 note=36 velocity=0 time=0\n",
      "note_on channel=9 note=69 velocity=61 time=30\n",
      "note_on channel=9 note=69 velocity=0 time=0\n",
      "note_on channel=9 note=69 velocity=127 time=30\n",
      "note_on channel=9 note=69 velocity=0 time=0\n",
      "note_on channel=9 note=69 velocity=127 time=30\n",
      "note_on channel=9 note=69 velocity=0 time=0\n",
      "note_on channel=9 note=36 velocity=127 time=0\n",
      "note_on channel=9 note=36 velocity=0 time=0\n",
      "note_on channel=9 note=69 velocity=61 time=30\n",
      "note_on channel=9 note=69 velocity=0 time=0\n",
      "note_on channel=9 note=38 velocity=127 time=0\n",
      "note_on channel=9 note=38 velocity=0 time=0\n",
      "note_on channel=9 note=69 velocity=61 time=30\n",
      "note_on channel=9 note=69 velocity=0 time=0\n",
      "note_on channel=9 note=36 velocity=127 time=0\n",
      "note_on channel=9 note=36 velocity=0 time=0\n",
      "note_on channel=9 note=69 velocity=127 time=30\n",
      "note_on channel=9 note=69 velocity=0 time=0\n",
      "note_on channel=9 note=69 velocity=127 time=30\n",
      "note_on channel=9 note=69 velocity=0 time=0\n",
      "note_on channel=9 note=36 velocity=127 time=0\n",
      "note_on channel=9 note=36 velocity=0 time=0\n",
      "note_on channel=9 note=69 velocity=61 time=30\n",
      "note_on channel=9 note=69 velocity=0 time=0\n",
      "note_on channel=9 note=69 velocity=61 time=30\n",
      "note_on channel=9 note=69 velocity=0 time=0\n",
      "note_on channel=9 note=69 velocity=127 time=30\n",
      "note_on channel=9 note=69 velocity=0 time=0\n",
      "note_on channel=9 note=36 velocity=127 time=0\n",
      "note_on channel=9 note=36 velocity=0 time=0\n",
      "note_on channel=9 note=69 velocity=127 time=30\n",
      "note_on channel=9 note=69 velocity=0 time=0\n",
      "note_on channel=9 note=69 velocity=61 time=30\n",
      "note_on channel=9 note=69 velocity=0 time=0\n",
      "note_on channel=9 note=38 velocity=127 time=0\n",
      "note_on channel=9 note=38 velocity=0 time=0\n",
      "note_on channel=9 note=69 velocity=61 time=30\n",
      "note_on channel=9 note=69 velocity=0 time=0\n",
      "note_on channel=9 note=69 velocity=127 time=30\n",
      "note_on channel=9 note=69 velocity=0 time=0\n",
      "note_on channel=9 note=69 velocity=127 time=30\n",
      "note_on channel=9 note=69 velocity=0 time=0\n",
      "note_on channel=9 note=69 velocity=61 time=30\n",
      "note_on channel=9 note=69 velocity=0 time=0\n",
      "note_on channel=9 note=36 velocity=127 time=0\n",
      "note_on channel=9 note=36 velocity=0 time=0\n",
      "note_on channel=9 note=69 velocity=61 time=30\n",
      "note_on channel=9 note=69 velocity=0 time=0\n",
      "note_on channel=9 note=69 velocity=127 time=30\n",
      "note_on channel=9 note=69 velocity=0 time=0\n",
      "note_on channel=9 note=69 velocity=127 time=30\n",
      "note_on channel=9 note=69 velocity=0 time=0\n",
      "note_on channel=9 note=38 velocity=127 time=0\n",
      "note_on channel=9 note=38 velocity=0 time=0\n",
      "note_on channel=9 note=36 velocity=127 time=0\n",
      "note_on channel=9 note=36 velocity=0 time=0\n",
      "note_on channel=9 note=69 velocity=61 time=30\n",
      "note_on channel=9 note=69 velocity=0 time=0\n",
      "note_on channel=9 note=69 velocity=61 time=30\n",
      "note_on channel=9 note=69 velocity=0 time=0\n",
      "note_on channel=9 note=36 velocity=127 time=0\n",
      "note_on channel=9 note=36 velocity=0 time=0\n",
      "note_on channel=9 note=69 velocity=127 time=30\n",
      "note_on channel=9 note=69 velocity=0 time=0\n",
      "note_on channel=9 note=69 velocity=127 time=30\n",
      "note_on channel=9 note=69 velocity=0 time=0\n",
      "note_on channel=9 note=36 velocity=127 time=0\n",
      "note_on channel=9 note=36 velocity=0 time=0\n",
      "note_on channel=9 note=69 velocity=61 time=30\n",
      "note_on channel=9 note=69 velocity=0 time=0\n",
      "note_on channel=9 note=69 velocity=61 time=30\n",
      "note_on channel=9 note=69 velocity=0 time=0\n",
      "note_on channel=9 note=36 velocity=127 time=0\n",
      "note_on channel=9 note=36 velocity=0 time=0\n",
      "note_on channel=9 note=69 velocity=127 time=30\n",
      "note_on channel=9 note=69 velocity=0 time=0\n",
      "note_on channel=9 note=36 velocity=127 time=0\n",
      "note_on channel=9 note=36 velocity=0 time=0\n",
      "note_on channel=9 note=69 velocity=127 time=30\n",
      "note_on channel=9 note=69 velocity=0 time=0\n",
      "note_on channel=9 note=36 velocity=127 time=0\n",
      "note_on channel=9 note=36 velocity=0 time=0\n",
      "note_on channel=9 note=69 velocity=61 time=30\n",
      "note_on channel=9 note=69 velocity=0 time=0\n",
      "note_on channel=9 note=38 velocity=127 time=0\n",
      "note_on channel=9 note=38 velocity=0 time=0\n",
      "note_on channel=9 note=69 velocity=61 time=30\n",
      "note_on channel=9 note=69 velocity=0 time=0\n",
      "note_on channel=9 note=69 velocity=127 time=30\n",
      "note_on channel=9 note=69 velocity=0 time=0\n",
      "note_on channel=9 note=69 velocity=127 time=30\n",
      "note_on channel=9 note=69 velocity=0 time=0\n",
      "note_on channel=9 note=69 velocity=61 time=30\n",
      "note_on channel=9 note=69 velocity=0 time=0\n",
      "note_on channel=9 note=36 velocity=127 time=0\n",
      "note_on channel=9 note=36 velocity=0 time=0\n",
      "note_on channel=9 note=69 velocity=61 time=30\n",
      "note_on channel=9 note=69 velocity=0 time=0\n",
      "note_on channel=9 note=69 velocity=127 time=30\n",
      "note_on channel=9 note=69 velocity=0 time=0\n",
      "note_on channel=9 note=69 velocity=127 time=30\n",
      "note_on channel=9 note=69 velocity=0 time=0\n",
      "note_on channel=9 note=36 velocity=127 time=0\n",
      "note_on channel=9 note=36 velocity=0 time=0\n",
      "note_on channel=9 note=69 velocity=61 time=30\n",
      "note_on channel=9 note=69 velocity=0 time=0\n",
      "note_on channel=9 note=38 velocity=127 time=0\n",
      "note_on channel=9 note=38 velocity=0 time=0\n",
      "note_on channel=9 note=69 velocity=61 time=30\n",
      "note_on channel=9 note=69 velocity=0 time=0\n",
      "note_on channel=9 note=36 velocity=127 time=0\n",
      "note_on channel=9 note=36 velocity=0 time=0\n",
      "note_on channel=9 note=69 velocity=127 time=30\n",
      "note_on channel=9 note=69 velocity=0 time=0\n",
      "note_on channel=9 note=69 velocity=127 time=30\n",
      "note_on channel=9 note=69 velocity=0 time=0\n",
      "note_on channel=9 note=36 velocity=127 time=0\n",
      "note_on channel=9 note=36 velocity=0 time=0\n",
      "note_on channel=9 note=69 velocity=61 time=30\n",
      "note_on channel=9 note=69 velocity=0 time=0\n",
      "note_on channel=9 note=69 velocity=61 time=30\n",
      "note_on channel=9 note=69 velocity=0 time=0\n",
      "note_on channel=9 note=69 velocity=127 time=30\n",
      "note_on channel=9 note=69 velocity=0 time=0\n",
      "note_on channel=9 note=36 velocity=127 time=0\n",
      "note_on channel=9 note=36 velocity=0 time=0\n",
      "note_on channel=9 note=69 velocity=127 time=30\n",
      "note_on channel=9 note=69 velocity=0 time=0\n",
      "note_on channel=9 note=69 velocity=61 time=30\n",
      "note_on channel=9 note=69 velocity=0 time=0\n",
      "note_on channel=9 note=38 velocity=127 time=0\n",
      "note_on channel=9 note=38 velocity=0 time=0\n",
      "note_on channel=9 note=69 velocity=61 time=30\n",
      "note_on channel=9 note=69 velocity=0 time=0\n",
      "note_on channel=9 note=69 velocity=127 time=30\n",
      "note_on channel=9 note=69 velocity=0 time=0\n",
      "note_on channel=9 note=69 velocity=127 time=30\n",
      "note_on channel=9 note=69 velocity=0 time=0\n",
      "note_on channel=9 note=69 velocity=61 time=30\n",
      "note_on channel=9 note=69 velocity=0 time=0\n",
      "note_on channel=9 note=36 velocity=127 time=0\n",
      "note_on channel=9 note=36 velocity=0 time=0\n",
      "note_on channel=9 note=69 velocity=61 time=30\n",
      "note_on channel=9 note=69 velocity=0 time=0\n",
      "note_on channel=9 note=69 velocity=127 time=30\n",
      "note_on channel=9 note=69 velocity=0 time=0\n",
      "note_on channel=9 note=69 velocity=127 time=30\n",
      "note_on channel=9 note=69 velocity=0 time=0\n",
      "note_on channel=9 note=38 velocity=127 time=0\n",
      "note_on channel=9 note=38 velocity=0 time=0\n",
      "note_on channel=9 note=36 velocity=127 time=0\n",
      "note_on channel=9 note=36 velocity=0 time=0\n",
      "note_on channel=9 note=69 velocity=61 time=30\n",
      "note_on channel=9 note=69 velocity=0 time=0\n",
      "note_on channel=9 note=69 velocity=61 time=30\n",
      "note_on channel=9 note=69 velocity=0 time=0\n",
      "note_on channel=9 note=36 velocity=127 time=0\n",
      "note_on channel=9 note=36 velocity=0 time=0\n",
      "note_on channel=9 note=69 velocity=127 time=30\n",
      "note_on channel=9 note=69 velocity=0 time=0\n",
      "note_on channel=9 note=69 velocity=127 time=30\n",
      "note_on channel=9 note=69 velocity=0 time=0\n",
      "note_on channel=9 note=36 velocity=127 time=0\n",
      "note_on channel=9 note=36 velocity=0 time=0\n",
      "note_on channel=9 note=69 velocity=61 time=30\n",
      "note_on channel=9 note=69 velocity=0 time=0\n",
      "note_on channel=9 note=69 velocity=61 time=30\n",
      "note_on channel=9 note=69 velocity=0 time=0\n",
      "note_on channel=9 note=36 velocity=127 time=0\n",
      "note_on channel=9 note=36 velocity=0 time=0\n",
      "note_on channel=9 note=69 velocity=127 time=30\n",
      "note_on channel=9 note=69 velocity=0 time=0\n",
      "note_on channel=9 note=36 velocity=127 time=0\n",
      "note_on channel=9 note=36 velocity=0 time=0\n",
      "note_on channel=9 note=69 velocity=127 time=30\n",
      "note_on channel=9 note=69 velocity=0 time=0\n",
      "note_on channel=9 note=36 velocity=127 time=0\n",
      "note_on channel=9 note=36 velocity=0 time=0\n",
      "note_on channel=9 note=69 velocity=61 time=30\n",
      "note_on channel=9 note=69 velocity=0 time=0\n",
      "note_on channel=9 note=38 velocity=127 time=0\n",
      "note_on channel=9 note=38 velocity=0 time=0\n",
      "note_on channel=9 note=69 velocity=61 time=30\n",
      "note_on channel=9 note=69 velocity=0 time=0\n",
      "note_on channel=9 note=69 velocity=127 time=30\n",
      "note_on channel=9 note=69 velocity=0 time=0\n",
      "note_on channel=9 note=69 velocity=127 time=30\n",
      "note_on channel=9 note=69 velocity=0 time=0\n",
      "note_on channel=9 note=69 velocity=61 time=30\n",
      "note_on channel=9 note=69 velocity=0 time=0\n",
      "note_on channel=9 note=36 velocity=127 time=0\n",
      "note_on channel=9 note=36 velocity=0 time=0\n",
      "note_on channel=9 note=69 velocity=61 time=30\n",
      "note_on channel=9 note=69 velocity=0 time=0\n",
      "note_on channel=9 note=69 velocity=127 time=30\n",
      "note_on channel=9 note=69 velocity=0 time=0\n",
      "note_on channel=9 note=69 velocity=127 time=30\n",
      "note_on channel=9 note=69 velocity=0 time=0\n",
      "note_on channel=9 note=36 velocity=127 time=0\n",
      "note_on channel=9 note=36 velocity=0 time=0\n",
      "note_on channel=9 note=69 velocity=61 time=30\n",
      "note_on channel=9 note=69 velocity=0 time=0\n",
      "note_on channel=9 note=38 velocity=127 time=0\n",
      "note_on channel=9 note=38 velocity=0 time=0\n",
      "note_on channel=9 note=69 velocity=61 time=30\n",
      "note_on channel=9 note=69 velocity=0 time=0\n",
      "note_on channel=9 note=36 velocity=127 time=0\n",
      "note_on channel=9 note=36 velocity=0 time=0\n",
      "note_on channel=9 note=69 velocity=127 time=30\n",
      "note_on channel=9 note=69 velocity=0 time=0\n",
      "note_on channel=9 note=69 velocity=127 time=30\n",
      "note_on channel=9 note=69 velocity=0 time=0\n",
      "note_on channel=9 note=36 velocity=127 time=0\n",
      "note_on channel=9 note=36 velocity=0 time=0\n",
      "note_on channel=9 note=69 velocity=61 time=30\n",
      "note_on channel=9 note=69 velocity=0 time=0\n",
      "note_on channel=9 note=69 velocity=61 time=30\n",
      "note_on channel=9 note=69 velocity=0 time=0\n",
      "note_on channel=9 note=69 velocity=127 time=30\n",
      "note_on channel=9 note=69 velocity=0 time=0\n",
      "note_on channel=9 note=36 velocity=127 time=0\n",
      "note_on channel=9 note=36 velocity=0 time=0\n",
      "note_on channel=9 note=69 velocity=127 time=30\n",
      "note_on channel=9 note=69 velocity=0 time=0\n",
      "note_on channel=9 note=69 velocity=61 time=30\n",
      "note_on channel=9 note=69 velocity=0 time=0\n",
      "note_on channel=9 note=38 velocity=127 time=0\n",
      "note_on channel=9 note=38 velocity=0 time=0\n",
      "note_on channel=9 note=69 velocity=61 time=30\n",
      "note_on channel=9 note=69 velocity=0 time=0\n",
      "note_on channel=9 note=69 velocity=127 time=30\n",
      "note_on channel=9 note=69 velocity=0 time=0\n",
      "note_on channel=9 note=69 velocity=127 time=30\n",
      "note_on channel=9 note=69 velocity=0 time=0\n",
      "note_on channel=9 note=69 velocity=61 time=30\n",
      "note_on channel=9 note=69 velocity=0 time=0\n",
      "note_on channel=9 note=36 velocity=127 time=0\n",
      "note_on channel=9 note=36 velocity=0 time=0\n",
      "note_on channel=9 note=69 velocity=61 time=30\n",
      "note_on channel=9 note=69 velocity=0 time=0\n",
      "note_on channel=9 note=69 velocity=127 time=30\n",
      "note_on channel=9 note=69 velocity=0 time=0\n",
      "note_on channel=9 note=69 velocity=127 time=30\n",
      "note_on channel=9 note=69 velocity=0 time=0\n",
      "note_on channel=9 note=38 velocity=127 time=0\n",
      "note_on channel=9 note=38 velocity=0 time=0\n",
      "note_on channel=9 note=36 velocity=127 time=0\n",
      "note_on channel=9 note=36 velocity=0 time=0\n",
      "note_on channel=9 note=69 velocity=61 time=30\n",
      "note_on channel=9 note=69 velocity=0 time=0\n",
      "note_on channel=9 note=69 velocity=61 time=30\n",
      "note_on channel=9 note=69 velocity=0 time=0\n",
      "note_on channel=9 note=36 velocity=127 time=0\n",
      "note_on channel=9 note=36 velocity=0 time=0\n",
      "note_on channel=9 note=69 velocity=127 time=30\n",
      "note_on channel=9 note=69 velocity=0 time=0\n",
      "note_on channel=9 note=69 velocity=127 time=30\n",
      "note_on channel=9 note=69 velocity=0 time=0\n",
      "note_on channel=9 note=36 velocity=127 time=0\n",
      "note_on channel=9 note=36 velocity=0 time=0\n",
      "note_on channel=9 note=69 velocity=61 time=30\n",
      "note_on channel=9 note=69 velocity=0 time=0\n",
      "note_on channel=9 note=69 velocity=61 time=30\n",
      "note_on channel=9 note=69 velocity=0 time=0\n",
      "note_on channel=9 note=36 velocity=127 time=0\n",
      "note_on channel=9 note=36 velocity=0 time=0\n",
      "note_on channel=9 note=69 velocity=127 time=30\n",
      "note_on channel=9 note=69 velocity=0 time=0\n",
      "note_on channel=9 note=36 velocity=127 time=0\n",
      "note_on channel=9 note=36 velocity=0 time=0\n",
      "note_on channel=9 note=69 velocity=127 time=30\n",
      "note_on channel=9 note=69 velocity=0 time=0\n",
      "note_on channel=9 note=36 velocity=127 time=0\n",
      "note_on channel=9 note=36 velocity=0 time=0\n",
      "note_on channel=9 note=69 velocity=61 time=30\n",
      "note_on channel=9 note=69 velocity=0 time=0\n",
      "note_on channel=9 note=38 velocity=127 time=0\n",
      "note_on channel=9 note=38 velocity=0 time=0\n",
      "note_on channel=9 note=69 velocity=61 time=30\n",
      "note_on channel=9 note=69 velocity=0 time=0\n",
      "note_on channel=9 note=69 velocity=127 time=30\n",
      "note_on channel=9 note=69 velocity=0 time=0\n",
      "note_on channel=9 note=69 velocity=127 time=30\n",
      "note_on channel=9 note=69 velocity=0 time=0\n",
      "note_on channel=9 note=69 velocity=61 time=30\n",
      "note_on channel=9 note=69 velocity=0 time=0\n",
      "note_on channel=9 note=36 velocity=127 time=0\n",
      "note_on channel=9 note=36 velocity=0 time=0\n",
      "note_on channel=9 note=69 velocity=61 time=30\n",
      "note_on channel=9 note=69 velocity=0 time=0\n",
      "note_on channel=9 note=69 velocity=127 time=30\n",
      "note_on channel=9 note=69 velocity=0 time=0\n",
      "note_on channel=9 note=69 velocity=127 time=30\n",
      "note_on channel=9 note=69 velocity=0 time=0\n",
      "note_on channel=9 note=36 velocity=127 time=0\n",
      "note_on channel=9 note=36 velocity=0 time=0\n",
      "note_on channel=9 note=69 velocity=61 time=30\n",
      "note_on channel=9 note=69 velocity=0 time=0\n",
      "note_on channel=9 note=38 velocity=127 time=0\n",
      "note_on channel=9 note=38 velocity=0 time=0\n",
      "note_on channel=9 note=69 velocity=61 time=30\n",
      "note_on channel=9 note=69 velocity=0 time=0\n",
      "note_on channel=9 note=36 velocity=127 time=0\n",
      "note_on channel=9 note=36 velocity=0 time=0\n",
      "note_on channel=9 note=69 velocity=127 time=30\n",
      "note_on channel=9 note=69 velocity=0 time=0\n",
      "note_on channel=9 note=69 velocity=127 time=30\n",
      "note_on channel=9 note=69 velocity=0 time=0\n",
      "note_on channel=9 note=36 velocity=127 time=0\n",
      "note_on channel=9 note=36 velocity=0 time=0\n",
      "note_on channel=9 note=69 velocity=61 time=30\n",
      "note_on channel=9 note=69 velocity=0 time=0\n",
      "note_on channel=9 note=69 velocity=61 time=30\n",
      "note_on channel=9 note=69 velocity=0 time=0\n",
      "note_on channel=9 note=69 velocity=127 time=30\n",
      "note_on channel=9 note=69 velocity=0 time=0\n",
      "note_on channel=9 note=36 velocity=127 time=0\n",
      "note_on channel=9 note=36 velocity=0 time=0\n",
      "note_on channel=9 note=69 velocity=127 time=30\n",
      "note_on channel=9 note=69 velocity=0 time=0\n",
      "note_on channel=9 note=69 velocity=61 time=30\n",
      "note_on channel=9 note=69 velocity=0 time=0\n",
      "note_on channel=9 note=38 velocity=127 time=0\n",
      "note_on channel=9 note=38 velocity=0 time=0\n",
      "note_on channel=9 note=69 velocity=61 time=30\n",
      "note_on channel=9 note=69 velocity=0 time=0\n",
      "note_on channel=9 note=69 velocity=127 time=30\n",
      "note_on channel=9 note=69 velocity=0 time=0\n",
      "note_on channel=9 note=69 velocity=127 time=30\n",
      "note_on channel=9 note=69 velocity=0 time=0\n",
      "note_on channel=9 note=69 velocity=61 time=30\n",
      "note_on channel=9 note=69 velocity=0 time=0\n",
      "note_on channel=9 note=36 velocity=127 time=0\n",
      "note_on channel=9 note=36 velocity=0 time=0\n",
      "note_on channel=9 note=69 velocity=61 time=30\n",
      "note_on channel=9 note=69 velocity=0 time=0\n",
      "note_on channel=9 note=69 velocity=127 time=30\n",
      "note_on channel=9 note=69 velocity=0 time=0\n",
      "note_on channel=9 note=69 velocity=127 time=30\n",
      "note_on channel=9 note=69 velocity=0 time=0\n",
      "note_on channel=9 note=38 velocity=127 time=0\n",
      "note_on channel=9 note=38 velocity=0 time=0\n",
      "note_on channel=9 note=36 velocity=127 time=0\n",
      "note_on channel=9 note=36 velocity=0 time=0\n",
      "note_on channel=9 note=69 velocity=61 time=30\n",
      "note_on channel=9 note=69 velocity=0 time=0\n",
      "note_on channel=9 note=69 velocity=61 time=30\n",
      "note_on channel=9 note=69 velocity=0 time=0\n",
      "note_on channel=9 note=36 velocity=127 time=0\n",
      "note_on channel=9 note=36 velocity=0 time=0\n",
      "note_on channel=9 note=69 velocity=127 time=30\n",
      "note_on channel=9 note=69 velocity=0 time=0\n",
      "note_on channel=9 note=69 velocity=127 time=30\n",
      "note_on channel=9 note=69 velocity=0 time=0\n",
      "note_on channel=9 note=36 velocity=127 time=0\n",
      "note_on channel=9 note=36 velocity=0 time=0\n",
      "note_on channel=9 note=69 velocity=61 time=30\n",
      "note_on channel=9 note=69 velocity=0 time=0\n",
      "note_on channel=9 note=69 velocity=61 time=30\n",
      "note_on channel=9 note=69 velocity=0 time=0\n",
      "note_on channel=9 note=36 velocity=127 time=0\n",
      "note_on channel=9 note=36 velocity=0 time=0\n",
      "note_on channel=9 note=69 velocity=127 time=30\n",
      "note_on channel=9 note=69 velocity=0 time=0\n",
      "note_on channel=9 note=36 velocity=127 time=0\n",
      "note_on channel=9 note=36 velocity=0 time=0\n",
      "note_on channel=9 note=69 velocity=127 time=30\n",
      "note_on channel=9 note=69 velocity=0 time=0\n",
      "note_on channel=9 note=36 velocity=127 time=0\n",
      "note_on channel=9 note=36 velocity=0 time=0\n",
      "note_on channel=9 note=69 velocity=61 time=30\n",
      "note_on channel=9 note=69 velocity=0 time=0\n",
      "note_on channel=9 note=38 velocity=127 time=0\n",
      "note_on channel=9 note=38 velocity=0 time=0\n",
      "note_on channel=9 note=69 velocity=61 time=30\n",
      "note_on channel=9 note=69 velocity=0 time=0\n",
      "note_on channel=9 note=69 velocity=127 time=30\n",
      "note_on channel=9 note=69 velocity=0 time=0\n",
      "note_on channel=9 note=69 velocity=127 time=30\n",
      "note_on channel=9 note=69 velocity=0 time=0\n",
      "note_on channel=9 note=69 velocity=61 time=30\n",
      "note_on channel=9 note=69 velocity=0 time=0\n",
      "note_on channel=9 note=36 velocity=127 time=0\n",
      "note_on channel=9 note=36 velocity=0 time=0\n",
      "note_on channel=9 note=69 velocity=61 time=30\n",
      "note_on channel=9 note=69 velocity=0 time=0\n",
      "note_on channel=9 note=69 velocity=127 time=30\n",
      "note_on channel=9 note=69 velocity=0 time=0\n",
      "note_on channel=9 note=69 velocity=127 time=30\n",
      "note_on channel=9 note=69 velocity=0 time=0\n",
      "note_on channel=9 note=36 velocity=127 time=0\n",
      "note_on channel=9 note=36 velocity=0 time=0\n",
      "note_on channel=9 note=69 velocity=61 time=30\n",
      "note_on channel=9 note=69 velocity=0 time=0\n",
      "note_on channel=9 note=38 velocity=127 time=0\n",
      "note_on channel=9 note=38 velocity=0 time=0\n",
      "note_on channel=9 note=69 velocity=61 time=30\n",
      "note_on channel=9 note=69 velocity=0 time=0\n",
      "note_on channel=9 note=36 velocity=127 time=0\n",
      "note_on channel=9 note=36 velocity=0 time=0\n",
      "note_on channel=9 note=69 velocity=127 time=30\n",
      "note_on channel=9 note=69 velocity=0 time=0\n",
      "note_on channel=9 note=69 velocity=127 time=30\n",
      "note_on channel=9 note=69 velocity=0 time=0\n",
      "note_on channel=9 note=36 velocity=127 time=0\n",
      "note_on channel=9 note=36 velocity=0 time=0\n",
      "note_on channel=9 note=69 velocity=61 time=30\n",
      "note_on channel=9 note=69 velocity=0 time=0\n",
      "note_on channel=9 note=69 velocity=61 time=30\n",
      "note_on channel=9 note=69 velocity=0 time=0\n",
      "note_on channel=9 note=69 velocity=127 time=30\n",
      "note_on channel=9 note=69 velocity=0 time=0\n",
      "note_on channel=9 note=36 velocity=127 time=0\n",
      "note_on channel=9 note=36 velocity=0 time=0\n",
      "note_on channel=9 note=69 velocity=127 time=30\n",
      "note_on channel=9 note=69 velocity=0 time=0\n",
      "note_on channel=9 note=69 velocity=61 time=30\n",
      "note_on channel=9 note=69 velocity=0 time=0\n",
      "note_on channel=9 note=38 velocity=127 time=0\n",
      "note_on channel=9 note=38 velocity=0 time=0\n",
      "note_on channel=9 note=69 velocity=61 time=30\n",
      "note_on channel=9 note=69 velocity=0 time=0\n",
      "note_on channel=9 note=69 velocity=127 time=30\n",
      "note_on channel=9 note=69 velocity=0 time=0\n",
      "note_on channel=9 note=69 velocity=127 time=30\n",
      "note_on channel=9 note=69 velocity=0 time=0\n",
      "note_on channel=9 note=69 velocity=61 time=30\n",
      "note_on channel=9 note=69 velocity=0 time=0\n",
      "note_on channel=9 note=36 velocity=127 time=0\n",
      "note_on channel=9 note=36 velocity=0 time=0\n",
      "note_on channel=9 note=69 velocity=61 time=30\n",
      "note_on channel=9 note=69 velocity=0 time=0\n",
      "note_on channel=9 note=69 velocity=127 time=30\n",
      "note_on channel=9 note=69 velocity=0 time=0\n",
      "note_on channel=9 note=69 velocity=127 time=30\n",
      "note_on channel=9 note=69 velocity=0 time=0\n",
      "note_on channel=9 note=38 velocity=127 time=0\n",
      "note_on channel=9 note=38 velocity=0 time=0\n",
      "note_on channel=9 note=36 velocity=127 time=0\n",
      "note_on channel=9 note=36 velocity=0 time=0\n",
      "note_on channel=9 note=69 velocity=61 time=30\n",
      "note_on channel=9 note=69 velocity=0 time=0\n",
      "note_on channel=9 note=69 velocity=61 time=30\n",
      "note_on channel=9 note=69 velocity=0 time=0\n",
      "note_on channel=9 note=36 velocity=127 time=0\n",
      "note_on channel=9 note=36 velocity=0 time=0\n",
      "note_on channel=9 note=69 velocity=127 time=30\n",
      "note_on channel=9 note=69 velocity=0 time=0\n",
      "note_on channel=9 note=69 velocity=127 time=30\n",
      "note_on channel=9 note=69 velocity=0 time=0\n",
      "note_on channel=9 note=36 velocity=127 time=0\n",
      "note_on channel=9 note=36 velocity=0 time=0\n",
      "note_on channel=9 note=69 velocity=61 time=30\n",
      "note_on channel=9 note=69 velocity=0 time=0\n",
      "note_on channel=9 note=69 velocity=61 time=30\n",
      "note_on channel=9 note=69 velocity=0 time=0\n",
      "note_on channel=9 note=36 velocity=127 time=0\n",
      "note_on channel=9 note=36 velocity=0 time=0\n",
      "note_on channel=9 note=69 velocity=127 time=30\n",
      "note_on channel=9 note=69 velocity=0 time=0\n",
      "note_on channel=9 note=36 velocity=127 time=0\n",
      "note_on channel=9 note=36 velocity=0 time=0\n",
      "note_on channel=9 note=69 velocity=127 time=30\n",
      "note_on channel=9 note=69 velocity=0 time=0\n",
      "note_on channel=9 note=36 velocity=127 time=0\n",
      "note_on channel=9 note=36 velocity=0 time=0\n",
      "note_on channel=9 note=69 velocity=61 time=30\n",
      "note_on channel=9 note=69 velocity=0 time=0\n",
      "note_on channel=9 note=38 velocity=127 time=0\n",
      "note_on channel=9 note=38 velocity=0 time=0\n",
      "note_on channel=9 note=69 velocity=61 time=30\n",
      "note_on channel=9 note=69 velocity=0 time=0\n",
      "note_on channel=9 note=69 velocity=127 time=30\n",
      "note_on channel=9 note=69 velocity=0 time=0\n",
      "note_on channel=9 note=69 velocity=127 time=30\n",
      "note_on channel=9 note=69 velocity=0 time=0\n",
      "note_on channel=9 note=69 velocity=61 time=30\n",
      "note_on channel=9 note=69 velocity=0 time=0\n",
      "note_on channel=9 note=36 velocity=127 time=0\n",
      "note_on channel=9 note=36 velocity=0 time=0\n",
      "note_on channel=9 note=69 velocity=61 time=30\n",
      "note_on channel=9 note=69 velocity=0 time=0\n",
      "note_on channel=9 note=69 velocity=127 time=30\n",
      "note_on channel=9 note=69 velocity=0 time=0\n",
      "note_on channel=9 note=69 velocity=127 time=30\n",
      "note_on channel=9 note=69 velocity=0 time=0\n",
      "note_on channel=9 note=36 velocity=127 time=0\n",
      "note_on channel=9 note=36 velocity=0 time=0\n",
      "note_on channel=9 note=69 velocity=61 time=30\n",
      "note_on channel=9 note=69 velocity=0 time=0\n",
      "note_on channel=9 note=38 velocity=127 time=0\n",
      "note_on channel=9 note=38 velocity=0 time=0\n",
      "note_on channel=9 note=69 velocity=61 time=30\n",
      "note_on channel=9 note=69 velocity=0 time=0\n",
      "note_on channel=9 note=36 velocity=127 time=0\n",
      "note_on channel=9 note=36 velocity=0 time=0\n",
      "note_on channel=9 note=69 velocity=127 time=30\n",
      "note_on channel=9 note=69 velocity=0 time=0\n",
      "note_on channel=9 note=69 velocity=127 time=30\n",
      "note_on channel=9 note=69 velocity=0 time=0\n",
      "note_on channel=9 note=36 velocity=127 time=0\n",
      "note_on channel=9 note=36 velocity=0 time=0\n",
      "note_on channel=9 note=69 velocity=61 time=30\n",
      "note_on channel=9 note=69 velocity=0 time=0\n",
      "note_on channel=9 note=69 velocity=61 time=30\n",
      "note_on channel=9 note=69 velocity=0 time=0\n",
      "note_on channel=9 note=69 velocity=127 time=30\n",
      "note_on channel=9 note=69 velocity=0 time=0\n",
      "note_on channel=9 note=36 velocity=127 time=0\n",
      "note_on channel=9 note=36 velocity=0 time=0\n",
      "note_on channel=9 note=69 velocity=127 time=30\n",
      "note_on channel=9 note=69 velocity=0 time=0\n",
      "note_on channel=9 note=69 velocity=61 time=30\n",
      "note_on channel=9 note=69 velocity=0 time=0\n",
      "note_on channel=9 note=38 velocity=127 time=0\n",
      "note_on channel=9 note=38 velocity=0 time=0\n",
      "note_on channel=9 note=69 velocity=61 time=30\n",
      "note_on channel=9 note=69 velocity=0 time=0\n",
      "note_on channel=9 note=69 velocity=127 time=30\n",
      "note_on channel=9 note=69 velocity=0 time=0\n",
      "note_on channel=9 note=69 velocity=127 time=30\n",
      "note_on channel=9 note=69 velocity=0 time=0\n",
      "note_on channel=9 note=69 velocity=61 time=30\n",
      "note_on channel=9 note=69 velocity=0 time=0\n",
      "note_on channel=9 note=36 velocity=127 time=0\n",
      "note_on channel=9 note=36 velocity=0 time=0\n",
      "note_on channel=9 note=69 velocity=61 time=30\n",
      "note_on channel=9 note=69 velocity=0 time=0\n",
      "note_on channel=9 note=69 velocity=127 time=30\n",
      "note_on channel=9 note=69 velocity=0 time=0\n",
      "note_on channel=9 note=69 velocity=127 time=30\n",
      "note_on channel=9 note=69 velocity=0 time=0\n",
      "note_on channel=9 note=38 velocity=127 time=0\n",
      "note_on channel=9 note=38 velocity=0 time=0\n",
      "note_on channel=9 note=36 velocity=127 time=0\n",
      "note_on channel=9 note=36 velocity=0 time=0\n",
      "note_on channel=9 note=69 velocity=61 time=30\n",
      "note_on channel=9 note=69 velocity=0 time=0\n",
      "note_on channel=9 note=69 velocity=61 time=30\n",
      "note_on channel=9 note=69 velocity=0 time=0\n",
      "note_on channel=9 note=36 velocity=127 time=0\n",
      "note_on channel=9 note=36 velocity=0 time=0\n",
      "note_on channel=9 note=69 velocity=127 time=30\n",
      "note_on channel=9 note=69 velocity=0 time=0\n",
      "note_on channel=9 note=69 velocity=127 time=30\n",
      "note_on channel=9 note=69 velocity=0 time=0\n",
      "note_on channel=9 note=36 velocity=127 time=0\n",
      "note_on channel=9 note=36 velocity=0 time=0\n",
      "note_on channel=9 note=69 velocity=61 time=30\n",
      "note_on channel=9 note=69 velocity=0 time=0\n",
      "note_on channel=9 note=69 velocity=61 time=30\n",
      "note_on channel=9 note=69 velocity=0 time=0\n",
      "note_on channel=9 note=36 velocity=127 time=0\n",
      "note_on channel=9 note=36 velocity=0 time=0\n",
      "note_on channel=9 note=69 velocity=127 time=30\n",
      "note_on channel=9 note=69 velocity=0 time=0\n",
      "note_on channel=9 note=36 velocity=127 time=0\n",
      "note_on channel=9 note=36 velocity=0 time=0\n",
      "note_on channel=9 note=69 velocity=127 time=30\n",
      "note_on channel=9 note=69 velocity=0 time=0\n",
      "note_on channel=9 note=36 velocity=127 time=0\n",
      "note_on channel=9 note=36 velocity=0 time=0\n",
      "note_on channel=9 note=69 velocity=61 time=30\n",
      "note_on channel=9 note=69 velocity=0 time=0\n",
      "note_on channel=9 note=38 velocity=127 time=0\n",
      "note_on channel=9 note=38 velocity=0 time=0\n",
      "note_on channel=9 note=69 velocity=61 time=30\n",
      "note_on channel=9 note=69 velocity=0 time=0\n",
      "note_on channel=9 note=69 velocity=127 time=30\n",
      "note_on channel=9 note=69 velocity=0 time=0\n",
      "note_on channel=9 note=69 velocity=127 time=30\n",
      "note_on channel=9 note=69 velocity=0 time=0\n",
      "note_on channel=9 note=69 velocity=61 time=30\n",
      "note_on channel=9 note=69 velocity=0 time=0\n",
      "note_on channel=9 note=36 velocity=127 time=0\n",
      "note_on channel=9 note=36 velocity=0 time=0\n",
      "note_on channel=9 note=69 velocity=61 time=30\n",
      "note_on channel=9 note=69 velocity=0 time=0\n",
      "note_on channel=9 note=69 velocity=127 time=30\n",
      "note_on channel=9 note=69 velocity=0 time=0\n",
      "note_on channel=9 note=69 velocity=127 time=30\n",
      "note_on channel=9 note=69 velocity=0 time=0\n",
      "note_on channel=9 note=36 velocity=127 time=0\n",
      "note_on channel=9 note=36 velocity=0 time=0\n",
      "note_on channel=9 note=69 velocity=61 time=30\n",
      "note_on channel=9 note=69 velocity=0 time=0\n",
      "note_on channel=9 note=38 velocity=127 time=0\n",
      "note_on channel=9 note=38 velocity=0 time=0\n",
      "note_on channel=9 note=69 velocity=61 time=30\n",
      "note_on channel=9 note=69 velocity=0 time=0\n",
      "note_on channel=9 note=36 velocity=127 time=0\n",
      "note_on channel=9 note=36 velocity=0 time=0\n",
      "note_on channel=9 note=69 velocity=127 time=30\n",
      "note_on channel=9 note=69 velocity=0 time=0\n",
      "note_on channel=9 note=69 velocity=127 time=30\n",
      "note_on channel=9 note=69 velocity=0 time=0\n",
      "note_on channel=9 note=36 velocity=127 time=0\n",
      "note_on channel=9 note=36 velocity=0 time=0\n",
      "note_on channel=9 note=69 velocity=61 time=30\n",
      "note_on channel=9 note=69 velocity=0 time=0\n",
      "note_on channel=9 note=69 velocity=61 time=30\n",
      "note_on channel=9 note=69 velocity=0 time=0\n",
      "note_on channel=9 note=69 velocity=127 time=30\n",
      "note_on channel=9 note=69 velocity=0 time=0\n",
      "note_on channel=9 note=36 velocity=127 time=0\n",
      "note_on channel=9 note=36 velocity=0 time=0\n",
      "note_on channel=9 note=69 velocity=127 time=30\n",
      "note_on channel=9 note=69 velocity=0 time=0\n",
      "note_on channel=9 note=69 velocity=61 time=30\n",
      "note_on channel=9 note=69 velocity=0 time=0\n",
      "note_on channel=9 note=38 velocity=127 time=0\n",
      "note_on channel=9 note=38 velocity=0 time=0\n",
      "note_on channel=9 note=69 velocity=61 time=30\n",
      "note_on channel=9 note=69 velocity=0 time=0\n",
      "note_on channel=9 note=69 velocity=127 time=30\n",
      "note_on channel=9 note=69 velocity=0 time=0\n",
      "note_on channel=9 note=69 velocity=127 time=30\n",
      "note_on channel=9 note=69 velocity=0 time=0\n",
      "note_on channel=9 note=69 velocity=61 time=30\n",
      "note_on channel=9 note=69 velocity=0 time=0\n",
      "note_on channel=9 note=36 velocity=127 time=0\n",
      "note_on channel=9 note=36 velocity=0 time=0\n",
      "note_on channel=9 note=69 velocity=61 time=30\n",
      "note_on channel=9 note=69 velocity=0 time=0\n",
      "note_on channel=9 note=69 velocity=127 time=30\n",
      "note_on channel=9 note=69 velocity=0 time=0\n",
      "note_on channel=9 note=69 velocity=127 time=30\n",
      "note_on channel=9 note=69 velocity=0 time=0\n",
      "note_on channel=9 note=38 velocity=127 time=0\n",
      "note_on channel=9 note=38 velocity=0 time=0\n",
      "note_on channel=9 note=36 velocity=127 time=0\n",
      "note_on channel=9 note=36 velocity=0 time=0\n",
      "note_on channel=9 note=69 velocity=61 time=30\n",
      "note_on channel=9 note=69 velocity=0 time=0\n",
      "note_on channel=9 note=69 velocity=61 time=30\n",
      "note_on channel=9 note=69 velocity=0 time=0\n",
      "note_on channel=9 note=36 velocity=127 time=0\n",
      "note_on channel=9 note=36 velocity=0 time=0\n",
      "note_on channel=9 note=69 velocity=127 time=30\n",
      "note_on channel=9 note=69 velocity=0 time=0\n",
      "note_on channel=9 note=69 velocity=127 time=30\n",
      "note_on channel=9 note=69 velocity=0 time=0\n",
      "note_on channel=9 note=36 velocity=127 time=0\n",
      "note_on channel=9 note=36 velocity=0 time=0\n",
      "note_on channel=9 note=69 velocity=61 time=30\n",
      "note_on channel=9 note=69 velocity=0 time=0\n",
      "note_on channel=9 note=69 velocity=61 time=30\n",
      "note_on channel=9 note=69 velocity=0 time=0\n",
      "note_on channel=9 note=36 velocity=127 time=0\n",
      "note_on channel=9 note=36 velocity=0 time=0\n",
      "note_on channel=9 note=69 velocity=127 time=30\n",
      "note_on channel=9 note=69 velocity=0 time=0\n",
      "note_on channel=9 note=36 velocity=127 time=0\n",
      "note_on channel=9 note=36 velocity=0 time=0\n",
      "note_on channel=9 note=69 velocity=127 time=30\n",
      "note_on channel=9 note=69 velocity=0 time=0\n",
      "note_on channel=9 note=36 velocity=127 time=0\n",
      "note_on channel=9 note=36 velocity=0 time=0\n",
      "note_on channel=9 note=69 velocity=61 time=30\n",
      "note_on channel=9 note=69 velocity=0 time=0\n",
      "note_on channel=9 note=38 velocity=127 time=0\n",
      "note_on channel=9 note=38 velocity=0 time=0\n",
      "note_on channel=9 note=69 velocity=61 time=30\n",
      "note_on channel=9 note=69 velocity=0 time=0\n",
      "note_on channel=9 note=69 velocity=127 time=30\n",
      "note_on channel=9 note=69 velocity=0 time=0\n",
      "note_on channel=9 note=69 velocity=127 time=30\n",
      "note_on channel=9 note=69 velocity=0 time=0\n",
      "note_on channel=9 note=38 velocity=127 time=30\n",
      "note_on channel=9 note=38 velocity=0 time=0\n",
      "note_on channel=9 note=36 velocity=127 time=0\n",
      "note_on channel=9 note=36 velocity=0 time=0\n",
      "note_on channel=9 note=38 velocity=127 time=30\n",
      "note_on channel=9 note=38 velocity=0 time=0\n",
      "note_on channel=9 note=48 velocity=113 time=30\n",
      "note_on channel=9 note=48 velocity=0 time=0\n",
      "note_on channel=9 note=42 velocity=77 time=0\n",
      "note_on channel=9 note=42 velocity=0 time=0\n",
      "note_on channel=9 note=48 velocity=113 time=30\n",
      "note_on channel=9 note=48 velocity=0 time=0\n",
      "note_on channel=9 note=38 velocity=127 time=30\n",
      "note_on channel=9 note=38 velocity=0 time=0\n",
      "note_on channel=9 note=36 velocity=127 time=0\n",
      "note_on channel=9 note=36 velocity=0 time=0\n",
      "note_on channel=9 note=38 velocity=127 time=30\n",
      "note_on channel=9 note=38 velocity=0 time=0\n",
      "note_on channel=9 note=45 velocity=113 time=30\n",
      "note_on channel=9 note=45 velocity=0 time=0\n",
      "note_on channel=9 note=42 velocity=77 time=0\n",
      "note_on channel=9 note=42 velocity=0 time=0\n",
      "note_on channel=9 note=45 velocity=113 time=30\n",
      "note_on channel=9 note=45 velocity=0 time=0\n",
      "note_on channel=9 note=38 velocity=127 time=30\n",
      "note_on channel=9 note=38 velocity=0 time=0\n",
      "note_on channel=9 note=36 velocity=127 time=0\n",
      "note_on channel=9 note=36 velocity=0 time=0\n",
      "note_on channel=9 note=38 velocity=127 time=30\n",
      "note_on channel=9 note=38 velocity=0 time=0\n",
      "note_on channel=9 note=48 velocity=113 time=30\n",
      "note_on channel=9 note=48 velocity=0 time=0\n",
      "note_on channel=9 note=42 velocity=77 time=0\n",
      "note_on channel=9 note=42 velocity=0 time=0\n",
      "note_on channel=9 note=48 velocity=113 time=30\n",
      "note_on channel=9 note=48 velocity=0 time=0\n",
      "note_on channel=9 note=38 velocity=127 time=30\n",
      "note_on channel=9 note=38 velocity=0 time=0\n",
      "note_on channel=9 note=36 velocity=127 time=0\n",
      "note_on channel=9 note=36 velocity=0 time=0\n",
      "note_on channel=9 note=38 velocity=127 time=30\n",
      "note_on channel=9 note=38 velocity=0 time=0\n",
      "note_on channel=9 note=41 velocity=113 time=30\n",
      "note_on channel=9 note=41 velocity=0 time=0\n",
      "note_on channel=9 note=42 velocity=77 time=0\n",
      "note_on channel=9 note=42 velocity=0 time=0\n",
      "note_on channel=9 note=41 velocity=113 time=30\n",
      "note_on channel=9 note=41 velocity=0 time=0\n",
      "note_on channel=9 note=36 velocity=127 time=30\n",
      "note_on channel=9 note=36 velocity=0 time=0\n",
      "note_on channel=9 note=49 velocity=85 time=0\n",
      "note_on channel=9 note=49 velocity=0 time=0\n",
      "<meta message end_of_track time=0>\n",
      "Track 6: \n",
      "<meta message midi_port port=0 time=0>\n",
      "control_change channel=4 control=0 value=126 time=0\n",
      "program_change channel=4 program=63 time=0\n",
      "control_change channel=4 control=7 value=127 time=0\n",
      "control_change channel=4 control=10 value=64 time=0\n",
      "note_on channel=4 note=72 velocity=127 time=1560\n",
      "note_on channel=4 note=72 velocity=0 time=90\n",
      "note_on channel=4 note=72 velocity=127 time=1830\n",
      "note_on channel=4 note=72 velocity=0 time=90\n",
      "note_on channel=4 note=72 velocity=127 time=15273\n",
      "note_on channel=4 note=72 velocity=0 time=78\n",
      "note_on channel=4 note=74 velocity=127 time=22959\n",
      "note_on channel=4 note=74 velocity=0 time=90\n",
      "note_on channel=4 note=74 velocity=127 time=1710\n",
      "note_on channel=4 note=74 velocity=0 time=90\n",
      "note_on channel=4 note=74 velocity=127 time=1830\n",
      "note_on channel=4 note=74 velocity=0 time=90\n",
      "note_on channel=4 note=74 velocity=127 time=1830\n",
      "note_on channel=4 note=74 velocity=0 time=90\n",
      "<meta message end_of_track time=0>\n",
      "Track 7: Split Chan 16 \n",
      "<meta message midi_port port=0 time=0>\n",
      "<meta message track_name name='Split Chan 16 ' time=0>\n",
      "program_change channel=5 program=30 time=0\n",
      "control_change channel=5 control=7 value=115 time=0\n",
      "control_change channel=5 control=10 value=64 time=0\n",
      "control_change channel=5 control=0 value=0 time=126\n",
      "program_change channel=5 program=29 time=0\n",
      "note_on channel=5 note=60 velocity=84 time=4194\n",
      "note_on channel=5 note=60 velocity=0 time=25\n",
      "note_on channel=5 note=48 velocity=84 time=5\n",
      "note_on channel=5 note=48 velocity=0 time=30\n",
      "note_on channel=5 note=60 velocity=84 time=0\n",
      "note_on channel=5 note=60 velocity=0 time=5\n",
      "note_on channel=5 note=60 velocity=84 time=25\n",
      "note_on channel=5 note=60 velocity=0 time=20\n",
      "note_on channel=5 note=48 velocity=84 time=10\n",
      "note_on channel=5 note=48 velocity=0 time=20\n",
      "note_on channel=5 note=60 velocity=84 time=10\n",
      "note_on channel=5 note=60 velocity=0 time=20\n",
      "note_on channel=5 note=48 velocity=84 time=10\n",
      "note_on channel=5 note=48 velocity=0 time=10\n",
      "note_on channel=5 note=48 velocity=84 time=20\n",
      "note_on channel=5 note=48 velocity=0 time=15\n",
      "note_on channel=5 note=60 velocity=84 time=15\n",
      "note_on channel=5 note=60 velocity=0 time=20\n",
      "note_on channel=5 note=48 velocity=84 time=10\n",
      "note_on channel=5 note=48 velocity=0 time=20\n",
      "note_on channel=5 note=60 velocity=84 time=10\n",
      "note_on channel=5 note=60 velocity=0 time=10\n",
      "note_on channel=5 note=60 velocity=84 time=20\n",
      "note_on channel=5 note=60 velocity=0 time=20\n",
      "note_on channel=5 note=48 velocity=84 time=10\n",
      "note_on channel=5 note=48 velocity=0 time=20\n",
      "note_on channel=5 note=60 velocity=84 time=10\n",
      "note_on channel=5 note=60 velocity=0 time=25\n",
      "note_on channel=5 note=48 velocity=84 time=5\n",
      "note_on channel=5 note=48 velocity=0 time=10\n",
      "note_on channel=5 note=48 velocity=84 time=20\n",
      "note_on channel=5 note=48 velocity=0 time=15\n",
      "note_on channel=5 note=60 velocity=84 time=15\n",
      "note_on channel=5 note=60 velocity=0 time=25\n",
      "note_on channel=5 note=48 velocity=84 time=5\n",
      "note_on channel=5 note=48 velocity=0 time=25\n",
      "note_on channel=5 note=60 velocity=84 time=5\n",
      "note_on channel=5 note=60 velocity=0 time=5\n",
      "note_on channel=5 note=60 velocity=84 time=25\n",
      "note_on channel=5 note=60 velocity=0 time=20\n",
      "note_on channel=5 note=48 velocity=84 time=10\n",
      "note_on channel=5 note=48 velocity=0 time=15\n",
      "note_on channel=5 note=60 velocity=84 time=15\n",
      "note_on channel=5 note=60 velocity=0 time=25\n",
      "note_on channel=5 note=48 velocity=84 time=5\n",
      "note_on channel=5 note=48 velocity=0 time=10\n",
      "note_on channel=5 note=48 velocity=84 time=20\n",
      "note_on channel=5 note=48 velocity=0 time=15\n",
      "note_on channel=5 note=60 velocity=84 time=15\n",
      "note_on channel=5 note=60 velocity=0 time=20\n",
      "note_on channel=5 note=48 velocity=84 time=10\n",
      "note_on channel=5 note=48 velocity=0 time=25\n",
      "note_on channel=5 note=60 velocity=84 time=5\n",
      "note_on channel=5 note=60 velocity=0 time=10\n",
      "note_on channel=5 note=60 velocity=84 time=20\n",
      "note_on channel=5 note=60 velocity=0 time=20\n",
      "note_on channel=5 note=48 velocity=84 time=10\n",
      "note_on channel=5 note=48 velocity=0 time=20\n",
      "note_on channel=5 note=60 velocity=84 time=10\n",
      "note_on channel=5 note=60 velocity=0 time=25\n",
      "note_on channel=5 note=48 velocity=84 time=5\n",
      "note_on channel=5 note=48 velocity=0 time=10\n",
      "note_on channel=5 note=48 velocity=84 time=20\n",
      "note_on channel=5 note=48 velocity=0 time=20\n",
      "note_on channel=5 note=60 velocity=84 time=10\n",
      "note_on channel=5 note=60 velocity=0 time=20\n",
      "note_on channel=5 note=48 velocity=84 time=10\n",
      "note_on channel=5 note=48 velocity=0 time=20\n",
      "note_on channel=5 note=60 velocity=84 time=10\n",
      "note_on channel=5 note=60 velocity=0 time=10\n",
      "note_on channel=5 note=60 velocity=84 time=20\n",
      "note_on channel=5 note=60 velocity=0 time=20\n",
      "note_on channel=5 note=48 velocity=84 time=10\n",
      "note_on channel=5 note=48 velocity=0 time=20\n",
      "note_on channel=5 note=60 velocity=84 time=10\n",
      "note_on channel=5 note=60 velocity=0 time=25\n",
      "note_on channel=5 note=48 velocity=84 time=5\n",
      "note_on channel=5 note=48 velocity=0 time=5\n",
      "note_on channel=5 note=48 velocity=84 time=25\n",
      "note_on channel=5 note=48 velocity=0 time=15\n",
      "note_on channel=5 note=60 velocity=84 time=15\n",
      "note_on channel=5 note=60 velocity=0 time=20\n",
      "note_on channel=5 note=48 velocity=84 time=10\n",
      "note_on channel=5 note=48 velocity=0 time=20\n",
      "note_on channel=5 note=60 velocity=84 time=10\n",
      "note_on channel=5 note=60 velocity=0 time=10\n",
      "note_on channel=5 note=60 velocity=84 time=20\n",
      "note_on channel=5 note=60 velocity=0 time=20\n",
      "note_on channel=5 note=48 velocity=84 time=10\n",
      "note_on channel=5 note=48 velocity=0 time=20\n",
      "note_on channel=5 note=60 velocity=84 time=10\n",
      "note_on channel=5 note=60 velocity=0 time=25\n",
      "note_on channel=5 note=48 velocity=84 time=5\n",
      "note_on channel=5 note=48 velocity=0 time=10\n",
      "note_on channel=5 note=48 velocity=84 time=20\n",
      "note_on channel=5 note=48 velocity=0 time=15\n",
      "note_on channel=5 note=60 velocity=84 time=15\n",
      "note_on channel=5 note=60 velocity=0 time=20\n",
      "note_on channel=5 note=48 velocity=84 time=10\n",
      "note_on channel=5 note=48 velocity=0 time=20\n",
      "note_on channel=5 note=60 velocity=84 time=10\n",
      "note_on channel=5 note=60 velocity=0 time=10\n",
      "note_on channel=5 note=60 velocity=84 time=20\n",
      "note_on channel=5 note=60 velocity=0 time=20\n",
      "note_on channel=5 note=48 velocity=84 time=10\n",
      "note_on channel=5 note=48 velocity=0 time=20\n",
      "note_on channel=5 note=60 velocity=84 time=10\n",
      "note_on channel=5 note=60 velocity=0 time=25\n",
      "note_on channel=5 note=48 velocity=84 time=5\n",
      "note_on channel=5 note=48 velocity=0 time=10\n",
      "note_on channel=5 note=48 velocity=84 time=20\n",
      "note_on channel=5 note=48 velocity=0 time=15\n",
      "note_on channel=5 note=60 velocity=84 time=15\n",
      "note_on channel=5 note=60 velocity=0 time=20\n",
      "note_on channel=5 note=48 velocity=84 time=10\n",
      "note_on channel=5 note=48 velocity=0 time=20\n",
      "note_on channel=5 note=60 velocity=84 time=10\n",
      "note_on channel=5 note=60 velocity=0 time=10\n",
      "note_on channel=5 note=60 velocity=84 time=20\n",
      "note_on channel=5 note=60 velocity=0 time=20\n",
      "note_on channel=5 note=48 velocity=84 time=10\n",
      "note_on channel=5 note=48 velocity=0 time=20\n",
      "note_on channel=5 note=60 velocity=84 time=10\n",
      "note_on channel=5 note=60 velocity=0 time=25\n",
      "note_on channel=5 note=48 velocity=84 time=5\n",
      "note_on channel=5 note=48 velocity=0 time=10\n",
      "note_on channel=5 note=48 velocity=84 time=20\n",
      "note_on channel=5 note=48 velocity=0 time=15\n",
      "note_on channel=5 note=60 velocity=84 time=15\n",
      "note_on channel=5 note=60 velocity=0 time=20\n",
      "note_on channel=5 note=48 velocity=84 time=10\n",
      "note_on channel=5 note=48 velocity=0 time=20\n",
      "note_on channel=5 note=60 velocity=84 time=10\n",
      "note_on channel=5 note=60 velocity=0 time=10\n",
      "note_on channel=5 note=60 velocity=84 time=20\n",
      "note_on channel=5 note=60 velocity=0 time=15\n",
      "note_on channel=5 note=48 velocity=84 time=15\n",
      "note_on channel=5 note=48 velocity=0 time=20\n",
      "note_on channel=5 note=60 velocity=84 time=10\n",
      "note_on channel=5 note=60 velocity=0 time=25\n",
      "note_on channel=5 note=48 velocity=84 time=5\n",
      "note_on channel=5 note=48 velocity=0 time=10\n",
      "note_on channel=5 note=48 velocity=84 time=20\n",
      "note_on channel=5 note=48 velocity=0 time=15\n",
      "note_on channel=5 note=60 velocity=84 time=15\n",
      "note_on channel=5 note=60 velocity=0 time=20\n",
      "note_on channel=5 note=48 velocity=84 time=10\n",
      "note_on channel=5 note=48 velocity=0 time=20\n",
      "note_on channel=5 note=60 velocity=84 time=10\n",
      "note_on channel=5 note=60 velocity=0 time=10\n",
      "note_on channel=5 note=60 velocity=84 time=20\n",
      "note_on channel=5 note=60 velocity=0 time=20\n",
      "note_on channel=5 note=48 velocity=84 time=10\n",
      "note_on channel=5 note=48 velocity=0 time=20\n",
      "note_on channel=5 note=60 velocity=84 time=10\n",
      "note_on channel=5 note=60 velocity=0 time=25\n",
      "note_on channel=5 note=48 velocity=84 time=5\n",
      "note_on channel=5 note=48 velocity=0 time=10\n",
      "note_on channel=5 note=48 velocity=84 time=20\n",
      "note_on channel=5 note=48 velocity=0 time=20\n",
      "note_on channel=5 note=60 velocity=84 time=10\n",
      "note_on channel=5 note=60 velocity=0 time=25\n",
      "note_on channel=5 note=48 velocity=84 time=5\n",
      "note_on channel=5 note=48 velocity=0 time=20\n",
      "note_on channel=5 note=60 velocity=84 time=10\n",
      "note_on channel=5 note=60 velocity=0 time=10\n",
      "note_on channel=5 note=60 velocity=84 time=20\n",
      "note_on channel=5 note=60 velocity=0 time=20\n",
      "note_on channel=5 note=48 velocity=84 time=10\n",
      "note_on channel=5 note=48 velocity=0 time=20\n",
      "note_on channel=5 note=60 velocity=84 time=10\n",
      "note_on channel=5 note=60 velocity=0 time=25\n",
      "note_on channel=5 note=48 velocity=84 time=5\n",
      "note_on channel=5 note=48 velocity=0 time=10\n",
      "note_on channel=5 note=48 velocity=84 time=20\n",
      "note_on channel=5 note=48 velocity=0 time=20\n",
      "note_on channel=5 note=60 velocity=84 time=10\n",
      "note_on channel=5 note=60 velocity=0 time=20\n",
      "note_on channel=5 note=48 velocity=84 time=10\n",
      "note_on channel=5 note=48 velocity=0 time=20\n",
      "note_on channel=5 note=60 velocity=84 time=10\n",
      "note_on channel=5 note=60 velocity=0 time=5\n",
      "note_on channel=5 note=60 velocity=84 time=25\n",
      "note_on channel=5 note=60 velocity=0 time=20\n",
      "note_on channel=5 note=48 velocity=84 time=10\n",
      "note_on channel=5 note=48 velocity=0 time=20\n",
      "note_on channel=5 note=60 velocity=84 time=10\n",
      "note_on channel=5 note=60 velocity=0 time=25\n",
      "note_on channel=5 note=48 velocity=84 time=5\n",
      "note_on channel=5 note=48 velocity=0 time=5\n",
      "note_on channel=5 note=48 velocity=84 time=25\n",
      "note_on channel=5 note=48 velocity=0 time=15\n",
      "note_on channel=5 note=60 velocity=84 time=15\n",
      "note_on channel=5 note=60 velocity=0 time=20\n",
      "note_on channel=5 note=48 velocity=84 time=10\n",
      "note_on channel=5 note=48 velocity=0 time=20\n",
      "note_on channel=5 note=60 velocity=84 time=10\n",
      "note_on channel=5 note=60 velocity=0 time=5\n",
      "note_on channel=5 note=60 velocity=84 time=25\n",
      "note_on channel=5 note=60 velocity=0 time=15\n",
      "note_on channel=5 note=48 velocity=84 time=15\n",
      "note_on channel=5 note=48 velocity=0 time=20\n",
      "note_on channel=5 note=60 velocity=84 time=10\n",
      "note_on channel=5 note=60 velocity=0 time=25\n",
      "note_on channel=5 note=48 velocity=84 time=5\n",
      "note_on channel=5 note=48 velocity=0 time=10\n",
      "note_on channel=5 note=48 velocity=84 time=20\n",
      "note_on channel=5 note=48 velocity=0 time=15\n",
      "note_on channel=5 note=60 velocity=84 time=15\n",
      "note_on channel=5 note=60 velocity=0 time=20\n",
      "note_on channel=5 note=48 velocity=84 time=10\n",
      "note_on channel=5 note=48 velocity=0 time=20\n",
      "note_on channel=5 note=60 velocity=84 time=10\n",
      "note_on channel=5 note=60 velocity=0 time=10\n",
      "note_on channel=5 note=60 velocity=84 time=20\n",
      "note_on channel=5 note=60 velocity=0 time=20\n",
      "note_on channel=5 note=48 velocity=84 time=10\n",
      "note_on channel=5 note=48 velocity=0 time=20\n",
      "note_on channel=5 note=60 velocity=84 time=10\n",
      "note_on channel=5 note=60 velocity=0 time=25\n",
      "note_on channel=5 note=48 velocity=84 time=5\n",
      "note_on channel=5 note=48 velocity=0 time=10\n",
      "note_on channel=5 note=48 velocity=84 time=20\n",
      "note_on channel=5 note=48 velocity=0 time=15\n",
      "note_on channel=5 note=60 velocity=84 time=15\n",
      "note_on channel=5 note=60 velocity=0 time=20\n",
      "note_on channel=5 note=48 velocity=84 time=10\n",
      "note_on channel=5 note=48 velocity=0 time=20\n",
      "note_on channel=5 note=60 velocity=84 time=10\n",
      "note_on channel=5 note=60 velocity=0 time=5\n",
      "note_on channel=5 note=60 velocity=84 time=25\n",
      "note_on channel=5 note=60 velocity=0 time=20\n",
      "note_on channel=5 note=48 velocity=84 time=10\n",
      "note_on channel=5 note=48 velocity=0 time=20\n",
      "note_on channel=5 note=60 velocity=84 time=10\n",
      "note_on channel=5 note=60 velocity=0 time=20\n",
      "note_on channel=5 note=48 velocity=84 time=10\n",
      "note_on channel=5 note=48 velocity=0 time=5\n",
      "note_on channel=5 note=48 velocity=84 time=25\n",
      "note_on channel=5 note=48 velocity=0 time=15\n",
      "note_on channel=5 note=60 velocity=84 time=15\n",
      "note_on channel=5 note=60 velocity=0 time=20\n",
      "note_on channel=5 note=48 velocity=84 time=10\n",
      "note_on channel=5 note=48 velocity=0 time=20\n",
      "note_on channel=5 note=60 velocity=84 time=10\n",
      "note_on channel=5 note=60 velocity=0 time=10\n",
      "note_on channel=5 note=60 velocity=84 time=20\n",
      "note_on channel=5 note=60 velocity=0 time=20\n",
      "note_on channel=5 note=48 velocity=84 time=10\n",
      "note_on channel=5 note=48 velocity=0 time=20\n",
      "note_on channel=5 note=60 velocity=84 time=10\n",
      "note_on channel=5 note=60 velocity=0 time=25\n",
      "note_on channel=5 note=48 velocity=84 time=5\n",
      "note_on channel=5 note=48 velocity=0 time=10\n",
      "note_on channel=5 note=48 velocity=84 time=20\n",
      "note_on channel=5 note=48 velocity=0 time=15\n",
      "note_on channel=5 note=60 velocity=84 time=15\n",
      "note_on channel=5 note=60 velocity=0 time=20\n",
      "note_on channel=5 note=48 velocity=84 time=10\n",
      "note_on channel=5 note=48 velocity=0 time=20\n",
      "note_on channel=5 note=60 velocity=84 time=10\n",
      "note_on channel=5 note=60 velocity=0 time=10\n",
      "note_on channel=5 note=60 velocity=84 time=20\n",
      "note_on channel=5 note=60 velocity=0 time=20\n",
      "note_on channel=5 note=48 velocity=84 time=10\n",
      "note_on channel=5 note=48 velocity=0 time=15\n",
      "note_on channel=5 note=60 velocity=84 time=15\n",
      "note_on channel=5 note=60 velocity=0 time=25\n",
      "note_on channel=5 note=48 velocity=84 time=5\n",
      "note_on channel=5 note=48 velocity=0 time=5\n",
      "note_on channel=5 note=48 velocity=84 time=25\n",
      "note_on channel=5 note=48 velocity=0 time=15\n",
      "note_on channel=5 note=60 velocity=84 time=15\n",
      "note_on channel=5 note=60 velocity=0 time=20\n",
      "note_on channel=5 note=48 velocity=84 time=10\n",
      "note_on channel=5 note=48 velocity=0 time=20\n",
      "note_on channel=5 note=60 velocity=84 time=10\n",
      "note_on channel=5 note=60 velocity=0 time=10\n",
      "note_on channel=5 note=60 velocity=84 time=20\n",
      "note_on channel=5 note=60 velocity=0 time=20\n",
      "note_on channel=5 note=48 velocity=84 time=10\n",
      "note_on channel=5 note=48 velocity=0 time=25\n",
      "note_on channel=5 note=60 velocity=84 time=5\n",
      "note_on channel=5 note=60 velocity=0 time=20\n",
      "note_on channel=5 note=48 velocity=84 time=10\n",
      "note_on channel=5 note=48 velocity=0 time=10\n",
      "note_on channel=5 note=48 velocity=84 time=20\n",
      "note_on channel=5 note=48 velocity=0 time=10\n",
      "note_on channel=5 note=60 velocity=84 time=20\n",
      "note_on channel=5 note=60 velocity=0 time=20\n",
      "note_on channel=5 note=48 velocity=84 time=10\n",
      "note_on channel=5 note=48 velocity=0 time=15\n",
      "note_on channel=5 note=60 velocity=84 time=15\n",
      "note_on channel=5 note=60 velocity=0 time=10\n",
      "note_on channel=5 note=60 velocity=84 time=20\n",
      "note_on channel=5 note=60 velocity=0 time=20\n",
      "note_on channel=5 note=48 velocity=84 time=10\n",
      "note_on channel=5 note=48 velocity=0 time=20\n",
      "note_on channel=5 note=60 velocity=84 time=10\n",
      "note_on channel=5 note=60 velocity=0 time=20\n",
      "note_on channel=5 note=48 velocity=84 time=10\n",
      "note_on channel=5 note=48 velocity=0 time=10\n",
      "note_on channel=5 note=48 velocity=84 time=20\n",
      "note_on channel=5 note=48 velocity=0 time=15\n",
      "note_on channel=5 note=60 velocity=84 time=15\n",
      "note_on channel=5 note=60 velocity=0 time=20\n",
      "note_on channel=5 note=48 velocity=84 time=10\n",
      "note_on channel=5 note=48 velocity=0 time=15\n",
      "note_on channel=5 note=60 velocity=84 time=15\n",
      "note_on channel=5 note=60 velocity=0 time=5\n",
      "note_on channel=5 note=60 velocity=84 time=25\n",
      "note_on channel=5 note=60 velocity=0 time=15\n",
      "note_on channel=5 note=48 velocity=84 time=15\n",
      "note_on channel=5 note=48 velocity=0 time=20\n",
      "note_on channel=5 note=60 velocity=84 time=10\n",
      "note_on channel=5 note=60 velocity=0 time=20\n",
      "note_on channel=5 note=48 velocity=84 time=10\n",
      "note_on channel=5 note=48 velocity=0 time=10\n",
      "note_on channel=5 note=48 velocity=84 time=20\n",
      "note_on channel=5 note=48 velocity=0 time=15\n",
      "note_on channel=5 note=55 velocity=84 time=15\n",
      "note_on channel=5 note=55 velocity=0 time=170\n",
      "note_on channel=5 note=53 velocity=84 time=10\n",
      "note_on channel=5 note=53 velocity=0 time=140\n",
      "note_on channel=5 note=51 velocity=84 time=40\n",
      "note_on channel=5 note=51 velocity=0 time=55\n",
      "note_on channel=5 note=53 velocity=84 time=5\n",
      "note_on channel=5 note=53 velocity=0 time=95\n",
      "note_on channel=5 note=55 velocity=84 time=445\n",
      "note_on channel=5 note=55 velocity=0 time=165\n",
      "note_on channel=5 note=53 velocity=84 time=15\n",
      "note_on channel=5 note=53 velocity=0 time=140\n",
      "note_on channel=5 note=51 velocity=84 time=40\n",
      "note_on channel=5 note=51 velocity=0 time=50\n",
      "note_on channel=5 note=53 velocity=84 time=10\n",
      "note_on channel=5 note=53 velocity=0 time=95\n",
      "note_on channel=5 note=60 velocity=84 time=445\n",
      "note_on channel=5 note=60 velocity=0 time=25\n",
      "note_on channel=5 note=48 velocity=84 time=5\n",
      "note_on channel=5 note=48 velocity=0 time=30\n",
      "note_on channel=5 note=60 velocity=84 time=0\n",
      "note_on channel=5 note=60 velocity=0 time=10\n",
      "note_on channel=5 note=60 velocity=84 time=20\n",
      "note_on channel=5 note=60 velocity=0 time=15\n",
      "note_on channel=5 note=48 velocity=84 time=15\n",
      "note_on channel=5 note=48 velocity=0 time=25\n",
      "note_on channel=5 note=60 velocity=84 time=5\n",
      "note_on channel=5 note=60 velocity=0 time=25\n",
      "note_on channel=5 note=48 velocity=84 time=5\n",
      "note_on channel=5 note=48 velocity=0 time=10\n",
      "note_on channel=5 note=48 velocity=84 time=20\n",
      "note_on channel=5 note=48 velocity=0 time=15\n",
      "note_on channel=5 note=60 velocity=84 time=15\n",
      "note_on channel=5 note=60 velocity=0 time=20\n",
      "note_on channel=5 note=48 velocity=84 time=10\n",
      "note_on channel=5 note=48 velocity=0 time=25\n",
      "note_on channel=5 note=60 velocity=84 time=5\n",
      "note_on channel=5 note=60 velocity=0 time=10\n",
      "note_on channel=5 note=60 velocity=84 time=20\n",
      "note_on channel=5 note=60 velocity=0 time=20\n",
      "note_on channel=5 note=48 velocity=84 time=10\n",
      "note_on channel=5 note=48 velocity=0 time=20\n",
      "note_on channel=5 note=60 velocity=84 time=10\n",
      "note_on channel=5 note=60 velocity=0 time=25\n",
      "note_on channel=5 note=48 velocity=84 time=5\n",
      "note_on channel=5 note=48 velocity=0 time=10\n",
      "note_on channel=5 note=48 velocity=84 time=20\n",
      "note_on channel=5 note=48 velocity=0 time=15\n",
      "note_on channel=5 note=60 velocity=84 time=15\n",
      "note_on channel=5 note=60 velocity=0 time=20\n",
      "note_on channel=5 note=48 velocity=84 time=10\n",
      "note_on channel=5 note=48 velocity=0 time=25\n",
      "note_on channel=5 note=60 velocity=84 time=5\n",
      "note_on channel=5 note=60 velocity=0 time=5\n",
      "note_on channel=5 note=60 velocity=84 time=25\n",
      "note_on channel=5 note=60 velocity=0 time=15\n",
      "note_on channel=5 note=48 velocity=84 time=15\n",
      "note_on channel=5 note=48 velocity=0 time=20\n",
      "note_on channel=5 note=60 velocity=84 time=10\n",
      "note_on channel=5 note=60 velocity=0 time=30\n",
      "note_on channel=5 note=48 velocity=84 time=0\n",
      "note_on channel=5 note=48 velocity=0 time=10\n",
      "note_on channel=5 note=48 velocity=84 time=20\n",
      "note_on channel=5 note=48 velocity=0 time=20\n",
      "note_on channel=5 note=60 velocity=84 time=10\n",
      "note_on channel=5 note=60 velocity=0 time=25\n",
      "note_on channel=5 note=48 velocity=84 time=5\n",
      "note_on channel=5 note=48 velocity=0 time=25\n",
      "note_on channel=5 note=60 velocity=84 time=5\n",
      "note_on channel=5 note=60 velocity=0 time=10\n",
      "note_on channel=5 note=60 velocity=84 time=20\n",
      "note_on channel=5 note=60 velocity=0 time=20\n",
      "note_on channel=5 note=48 velocity=84 time=10\n",
      "note_on channel=5 note=48 velocity=0 time=20\n",
      "note_on channel=5 note=60 velocity=84 time=10\n",
      "note_on channel=5 note=60 velocity=0 time=30\n",
      "note_on channel=5 note=48 velocity=84 time=0\n",
      "note_on channel=5 note=48 velocity=0 time=10\n",
      "note_on channel=5 note=48 velocity=84 time=20\n",
      "note_on channel=5 note=48 velocity=0 time=20\n",
      "note_on channel=5 note=60 velocity=84 time=10\n",
      "note_on channel=5 note=60 velocity=0 time=20\n",
      "note_on channel=5 note=48 velocity=84 time=10\n",
      "note_on channel=5 note=48 velocity=0 time=20\n",
      "note_on channel=5 note=60 velocity=84 time=10\n",
      "note_on channel=5 note=60 velocity=0 time=10\n",
      "note_on channel=5 note=60 velocity=84 time=20\n",
      "note_on channel=5 note=60 velocity=0 time=20\n",
      "note_on channel=5 note=48 velocity=84 time=10\n",
      "note_on channel=5 note=48 velocity=0 time=20\n",
      "note_on channel=5 note=60 velocity=84 time=10\n",
      "note_on channel=5 note=60 velocity=0 time=25\n",
      "note_on channel=5 note=48 velocity=84 time=5\n",
      "note_on channel=5 note=48 velocity=0 time=10\n",
      "note_on channel=5 note=48 velocity=84 time=20\n",
      "note_on channel=5 note=48 velocity=0 time=20\n",
      "note_on channel=5 note=60 velocity=84 time=10\n",
      "note_on channel=5 note=60 velocity=0 time=20\n",
      "note_on channel=5 note=48 velocity=84 time=10\n",
      "note_on channel=5 note=48 velocity=0 time=20\n",
      "note_on channel=5 note=60 velocity=84 time=10\n",
      "note_on channel=5 note=60 velocity=0 time=5\n",
      "note_on channel=5 note=60 velocity=84 time=25\n",
      "note_on channel=5 note=60 velocity=0 time=20\n",
      "note_on channel=5 note=48 velocity=84 time=10\n",
      "note_on channel=5 note=48 velocity=0 time=20\n",
      "note_on channel=5 note=60 velocity=84 time=10\n",
      "note_on channel=5 note=60 velocity=0 time=25\n",
      "note_on channel=5 note=48 velocity=84 time=5\n",
      "note_on channel=5 note=48 velocity=0 time=10\n",
      "note_on channel=5 note=48 velocity=84 time=20\n",
      "note_on channel=5 note=48 velocity=0 time=15\n",
      "note_on channel=5 note=60 velocity=84 time=15\n",
      "note_on channel=5 note=60 velocity=0 time=20\n",
      "note_on channel=5 note=48 velocity=84 time=10\n",
      "note_on channel=5 note=48 velocity=0 time=25\n",
      "note_on channel=5 note=60 velocity=84 time=5\n",
      "note_on channel=5 note=60 velocity=0 time=10\n",
      "note_on channel=5 note=60 velocity=84 time=20\n",
      "note_on channel=5 note=60 velocity=0 time=20\n",
      "note_on channel=5 note=48 velocity=84 time=10\n",
      "note_on channel=5 note=48 velocity=0 time=20\n",
      "note_on channel=5 note=60 velocity=84 time=10\n",
      "note_on channel=5 note=60 velocity=0 time=25\n",
      "note_on channel=5 note=48 velocity=84 time=5\n",
      "note_on channel=5 note=48 velocity=0 time=10\n",
      "note_on channel=5 note=48 velocity=84 time=20\n",
      "note_on channel=5 note=48 velocity=0 time=20\n",
      "note_on channel=5 note=60 velocity=84 time=10\n",
      "note_on channel=5 note=60 velocity=0 time=25\n",
      "note_on channel=5 note=48 velocity=84 time=5\n",
      "note_on channel=5 note=48 velocity=0 time=20\n",
      "note_on channel=5 note=60 velocity=84 time=10\n",
      "note_on channel=5 note=60 velocity=0 time=10\n",
      "note_on channel=5 note=60 velocity=84 time=20\n",
      "note_on channel=5 note=60 velocity=0 time=20\n",
      "note_on channel=5 note=48 velocity=84 time=10\n",
      "note_on channel=5 note=48 velocity=0 time=20\n",
      "note_on channel=5 note=60 velocity=84 time=10\n",
      "note_on channel=5 note=60 velocity=0 time=30\n",
      "note_on channel=5 note=48 velocity=84 time=0\n",
      "note_on channel=5 note=48 velocity=0 time=10\n",
      "note_on channel=5 note=48 velocity=84 time=20\n",
      "note_on channel=5 note=48 velocity=0 time=20\n",
      "note_on channel=5 note=60 velocity=84 time=10\n",
      "note_on channel=5 note=60 velocity=0 time=20\n",
      "note_on channel=5 note=48 velocity=84 time=10\n",
      "note_on channel=5 note=48 velocity=0 time=20\n",
      "note_on channel=5 note=60 velocity=84 time=10\n",
      "note_on channel=5 note=60 velocity=0 time=10\n",
      "note_on channel=5 note=60 velocity=84 time=20\n",
      "note_on channel=5 note=60 velocity=0 time=20\n",
      "note_on channel=5 note=48 velocity=84 time=10\n",
      "note_on channel=5 note=48 velocity=0 time=20\n",
      "note_on channel=5 note=60 velocity=84 time=10\n",
      "note_on channel=5 note=60 velocity=0 time=25\n",
      "note_on channel=5 note=48 velocity=84 time=5\n",
      "note_on channel=5 note=48 velocity=0 time=10\n",
      "note_on channel=5 note=48 velocity=84 time=20\n",
      "note_on channel=5 note=48 velocity=0 time=20\n",
      "note_on channel=5 note=60 velocity=84 time=10\n",
      "note_on channel=5 note=60 velocity=0 time=20\n",
      "note_on channel=5 note=48 velocity=84 time=10\n",
      "note_on channel=5 note=48 velocity=0 time=20\n",
      "note_on channel=5 note=60 velocity=84 time=10\n",
      "note_on channel=5 note=60 velocity=0 time=10\n",
      "note_on channel=5 note=60 velocity=84 time=20\n",
      "note_on channel=5 note=60 velocity=0 time=20\n",
      "note_on channel=5 note=48 velocity=84 time=10\n",
      "note_on channel=5 note=48 velocity=0 time=25\n",
      "note_on channel=5 note=60 velocity=84 time=5\n",
      "note_on channel=5 note=60 velocity=0 time=25\n",
      "note_on channel=5 note=48 velocity=84 time=5\n",
      "note_on channel=5 note=48 velocity=0 time=10\n",
      "note_on channel=5 note=48 velocity=84 time=20\n",
      "note_on channel=5 note=48 velocity=0 time=15\n",
      "note_on channel=5 note=60 velocity=84 time=15\n",
      "note_on channel=5 note=60 velocity=0 time=25\n",
      "note_on channel=5 note=48 velocity=84 time=5\n",
      "note_on channel=5 note=48 velocity=0 time=20\n",
      "note_on channel=5 note=60 velocity=84 time=10\n",
      "note_on channel=5 note=60 velocity=0 time=10\n",
      "note_on channel=5 note=60 velocity=84 time=20\n",
      "note_on channel=5 note=60 velocity=0 time=20\n",
      "note_on channel=5 note=48 velocity=84 time=10\n",
      "note_on channel=5 note=48 velocity=0 time=20\n",
      "note_on channel=5 note=60 velocity=84 time=10\n",
      "note_on channel=5 note=60 velocity=0 time=25\n",
      "note_on channel=5 note=48 velocity=84 time=5\n",
      "note_on channel=5 note=48 velocity=0 time=10\n",
      "note_on channel=5 note=48 velocity=84 time=20\n",
      "note_on channel=5 note=48 velocity=0 time=15\n",
      "note_on channel=5 note=60 velocity=84 time=15\n",
      "note_on channel=5 note=60 velocity=0 time=20\n",
      "note_on channel=5 note=48 velocity=84 time=10\n",
      "note_on channel=5 note=48 velocity=0 time=20\n",
      "note_on channel=5 note=60 velocity=84 time=10\n",
      "note_on channel=5 note=60 velocity=0 time=10\n",
      "note_on channel=5 note=60 velocity=84 time=20\n",
      "note_on channel=5 note=60 velocity=0 time=20\n",
      "note_on channel=5 note=48 velocity=84 time=10\n",
      "note_on channel=5 note=48 velocity=0 time=20\n",
      "note_on channel=5 note=60 velocity=84 time=10\n",
      "note_on channel=5 note=60 velocity=0 time=25\n",
      "note_on channel=5 note=48 velocity=84 time=5\n",
      "note_on channel=5 note=48 velocity=0 time=10\n",
      "note_on channel=5 note=48 velocity=84 time=20\n",
      "note_on channel=5 note=48 velocity=0 time=20\n",
      "note_on channel=5 note=60 velocity=84 time=10\n",
      "note_on channel=5 note=60 velocity=0 time=20\n",
      "note_on channel=5 note=48 velocity=84 time=10\n",
      "note_on channel=5 note=48 velocity=0 time=20\n",
      "note_on channel=5 note=60 velocity=84 time=10\n",
      "note_on channel=5 note=60 velocity=0 time=10\n",
      "note_on channel=5 note=60 velocity=84 time=20\n",
      "note_on channel=5 note=60 velocity=0 time=20\n",
      "note_on channel=5 note=48 velocity=84 time=10\n",
      "note_on channel=5 note=48 velocity=0 time=20\n",
      "note_on channel=5 note=60 velocity=84 time=10\n",
      "note_on channel=5 note=60 velocity=0 time=25\n",
      "note_on channel=5 note=48 velocity=84 time=5\n",
      "note_on channel=5 note=48 velocity=0 time=10\n",
      "note_on channel=5 note=48 velocity=84 time=20\n",
      "note_on channel=5 note=48 velocity=0 time=15\n",
      "note_on channel=5 note=60 velocity=84 time=15\n",
      "note_on channel=5 note=60 velocity=0 time=20\n",
      "note_on channel=5 note=48 velocity=84 time=10\n",
      "note_on channel=5 note=48 velocity=0 time=20\n",
      "note_on channel=5 note=60 velocity=84 time=10\n",
      "note_on channel=5 note=60 velocity=0 time=10\n",
      "note_on channel=5 note=60 velocity=84 time=20\n",
      "note_on channel=5 note=60 velocity=0 time=20\n",
      "note_on channel=5 note=48 velocity=84 time=10\n",
      "note_on channel=5 note=48 velocity=0 time=20\n",
      "note_on channel=5 note=60 velocity=84 time=10\n",
      "note_on channel=5 note=60 velocity=0 time=25\n",
      "note_on channel=5 note=48 velocity=84 time=5\n",
      "note_on channel=5 note=48 velocity=0 time=10\n",
      "note_on channel=5 note=48 velocity=84 time=20\n",
      "note_on channel=5 note=48 velocity=0 time=15\n",
      "note_on channel=5 note=60 velocity=84 time=15\n",
      "note_on channel=5 note=60 velocity=0 time=20\n",
      "note_on channel=5 note=48 velocity=84 time=10\n",
      "note_on channel=5 note=48 velocity=0 time=20\n",
      "note_on channel=5 note=60 velocity=84 time=10\n",
      "note_on channel=5 note=60 velocity=0 time=5\n",
      "note_on channel=5 note=60 velocity=84 time=25\n",
      "note_on channel=5 note=60 velocity=0 time=20\n",
      "note_on channel=5 note=48 velocity=84 time=10\n",
      "note_on channel=5 note=48 velocity=0 time=20\n",
      "note_on channel=5 note=60 velocity=84 time=10\n",
      "note_on channel=5 note=60 velocity=0 time=25\n",
      "note_on channel=5 note=48 velocity=84 time=5\n",
      "note_on channel=5 note=48 velocity=0 time=5\n",
      "note_on channel=5 note=48 velocity=84 time=25\n",
      "note_on channel=5 note=48 velocity=0 time=15\n",
      "note_on channel=5 note=60 velocity=84 time=15\n",
      "note_on channel=5 note=60 velocity=0 time=20\n",
      "note_on channel=5 note=48 velocity=84 time=10\n",
      "note_on channel=5 note=48 velocity=0 time=20\n",
      "note_on channel=5 note=60 velocity=84 time=10\n",
      "note_on channel=5 note=60 velocity=0 time=10\n",
      "note_on channel=5 note=60 velocity=84 time=20\n",
      "note_on channel=5 note=60 velocity=0 time=20\n",
      "note_on channel=5 note=48 velocity=84 time=10\n",
      "note_on channel=5 note=48 velocity=0 time=20\n",
      "note_on channel=5 note=60 velocity=84 time=10\n",
      "note_on channel=5 note=60 velocity=0 time=25\n",
      "note_on channel=5 note=48 velocity=84 time=5\n",
      "note_on channel=5 note=48 velocity=0 time=10\n",
      "note_on channel=5 note=48 velocity=84 time=20\n",
      "note_on channel=5 note=48 velocity=0 time=20\n",
      "note_on channel=5 note=55 velocity=84 time=10\n",
      "note_on channel=5 note=55 velocity=94 time=0\n",
      "note_on channel=5 note=55 velocity=0 time=165\n",
      "note_on channel=5 note=55 velocity=0 time=5\n",
      "note_on channel=5 note=53 velocity=84 time=10\n",
      "note_on channel=5 note=53 velocity=94 time=0\n",
      "note_on channel=5 note=53 velocity=0 time=140\n",
      "note_on channel=5 note=53 velocity=0 time=5\n",
      "note_on channel=5 note=51 velocity=84 time=35\n",
      "note_on channel=5 note=51 velocity=94 time=0\n",
      "note_on channel=5 note=51 velocity=0 time=40\n",
      "note_on channel=5 note=51 velocity=0 time=15\n",
      "note_on channel=5 note=53 velocity=84 time=5\n",
      "note_on channel=5 note=53 velocity=94 time=0\n",
      "note_on channel=5 note=53 velocity=0 time=80\n",
      "note_on channel=5 note=53 velocity=0 time=20\n",
      "note_on channel=5 note=51 velocity=94 time=20\n",
      "note_on channel=5 note=48 velocity=94 time=0\n",
      "note_on channel=5 note=48 velocity=0 time=15\n",
      "note_on channel=5 note=51 velocity=0 time=10\n",
      "note_on channel=5 note=36 velocity=94 time=35\n",
      "note_on channel=5 note=48 velocity=94 time=0\n",
      "note_on channel=5 note=48 velocity=0 time=15\n",
      "note_on channel=5 note=36 velocity=0 time=0\n",
      "note_on channel=5 note=36 velocity=94 time=15\n",
      "note_on channel=5 note=48 velocity=94 time=0\n",
      "note_on channel=5 note=48 velocity=0 time=15\n",
      "note_on channel=5 note=36 velocity=0 time=0\n",
      "note_on channel=5 note=36 velocity=94 time=15\n",
      "note_on channel=5 note=48 velocity=94 time=0\n",
      "note_on channel=5 note=48 velocity=0 time=15\n",
      "note_on channel=5 note=36 velocity=0 time=0\n",
      "note_on channel=5 note=36 velocity=94 time=15\n",
      "note_on channel=5 note=48 velocity=94 time=0\n",
      "note_on channel=5 note=48 velocity=0 time=15\n",
      "note_on channel=5 note=36 velocity=0 time=0\n",
      "note_on channel=5 note=36 velocity=94 time=15\n",
      "note_on channel=5 note=48 velocity=94 time=0\n",
      "note_on channel=5 note=48 velocity=0 time=15\n",
      "note_on channel=5 note=36 velocity=0 time=0\n",
      "note_on channel=5 note=36 velocity=94 time=15\n",
      "note_on channel=5 note=48 velocity=94 time=0\n",
      "note_on channel=5 note=48 velocity=0 time=15\n",
      "note_on channel=5 note=36 velocity=0 time=0\n",
      "note_on channel=5 note=36 velocity=94 time=15\n",
      "note_on channel=5 note=48 velocity=94 time=0\n",
      "note_on channel=5 note=48 velocity=0 time=15\n",
      "note_on channel=5 note=36 velocity=0 time=0\n",
      "note_on channel=5 note=36 velocity=94 time=15\n",
      "note_on channel=5 note=48 velocity=94 time=0\n",
      "note_on channel=5 note=48 velocity=0 time=15\n",
      "note_on channel=5 note=36 velocity=0 time=0\n",
      "note_on channel=5 note=36 velocity=94 time=15\n",
      "note_on channel=5 note=48 velocity=94 time=0\n",
      "note_on channel=5 note=48 velocity=0 time=15\n",
      "note_on channel=5 note=36 velocity=0 time=0\n",
      "note_on channel=5 note=36 velocity=94 time=15\n",
      "note_on channel=5 note=48 velocity=94 time=0\n",
      "note_on channel=5 note=48 velocity=0 time=15\n",
      "note_on channel=5 note=36 velocity=0 time=0\n",
      "note_on channel=5 note=36 velocity=94 time=15\n",
      "note_on channel=5 note=48 velocity=94 time=0\n",
      "note_on channel=5 note=36 velocity=0 time=15\n",
      "note_on channel=5 note=48 velocity=0 time=5\n",
      "note_on channel=5 note=36 velocity=94 time=10\n",
      "note_on channel=5 note=48 velocity=94 time=0\n",
      "note_on channel=5 note=48 velocity=0 time=20\n",
      "note_on channel=5 note=36 velocity=0 time=5\n",
      "note_on channel=5 note=55 velocity=84 time=5\n",
      "note_on channel=5 note=55 velocity=94 time=0\n",
      "note_on channel=5 note=55 velocity=0 time=150\n",
      "note_on channel=5 note=55 velocity=0 time=5\n",
      "note_on channel=5 note=53 velocity=84 time=25\n",
      "note_on channel=5 note=53 velocity=94 time=0\n",
      "note_on channel=5 note=53 velocity=0 time=135\n",
      "note_on channel=5 note=53 velocity=0 time=5\n",
      "note_on channel=5 note=51 velocity=84 time=40\n",
      "note_on channel=5 note=51 velocity=94 time=0\n",
      "note_on channel=5 note=51 velocity=0 time=35\n",
      "note_on channel=5 note=51 velocity=0 time=10\n",
      "note_on channel=5 note=53 velocity=84 time=15\n",
      "note_on channel=5 note=53 velocity=94 time=0\n",
      "note_on channel=5 note=53 velocity=0 time=85\n",
      "note_on channel=5 note=53 velocity=0 time=0\n",
      "note_on channel=5 note=51 velocity=94 time=35\n",
      "note_on channel=5 note=48 velocity=94 time=0\n",
      "note_on channel=5 note=48 velocity=0 time=15\n",
      "note_on channel=5 note=51 velocity=0 time=25\n",
      "note_on channel=5 note=36 velocity=94 time=20\n",
      "note_on channel=5 note=48 velocity=94 time=0\n",
      "note_on channel=5 note=48 velocity=0 time=10\n",
      "note_on channel=5 note=36 velocity=0 time=5\n",
      "note_on channel=5 note=36 velocity=94 time=15\n",
      "note_on channel=5 note=48 velocity=94 time=0\n",
      "note_on channel=5 note=48 velocity=0 time=15\n",
      "note_on channel=5 note=36 velocity=0 time=0\n",
      "note_on channel=5 note=48 velocity=94 time=15\n",
      "note_on channel=5 note=36 velocity=94 time=0\n",
      "note_on channel=5 note=36 velocity=0 time=10\n",
      "note_on channel=5 note=48 velocity=0 time=5\n",
      "note_on channel=5 note=36 velocity=94 time=15\n",
      "note_on channel=5 note=48 velocity=94 time=0\n",
      "note_on channel=5 note=48 velocity=0 time=10\n",
      "note_on channel=5 note=36 velocity=0 time=5\n",
      "note_on channel=5 note=36 velocity=94 time=15\n",
      "note_on channel=5 note=48 velocity=94 time=0\n",
      "note_on channel=5 note=48 velocity=0 time=15\n",
      "note_on channel=5 note=36 velocity=0 time=0\n",
      "note_on channel=5 note=36 velocity=94 time=15\n",
      "note_on channel=5 note=48 velocity=94 time=0\n",
      "note_on channel=5 note=48 velocity=0 time=10\n",
      "note_on channel=5 note=36 velocity=0 time=5\n",
      "note_on channel=5 note=36 velocity=94 time=15\n",
      "note_on channel=5 note=48 velocity=94 time=0\n",
      "note_on channel=5 note=48 velocity=0 time=15\n",
      "note_on channel=5 note=36 velocity=0 time=0\n",
      "note_on channel=5 note=36 velocity=94 time=15\n",
      "note_on channel=5 note=48 velocity=94 time=0\n",
      "note_on channel=5 note=48 velocity=0 time=15\n",
      "note_on channel=5 note=36 velocity=0 time=0\n",
      "note_on channel=5 note=36 velocity=94 time=15\n",
      "note_on channel=5 note=48 velocity=94 time=0\n",
      "note_on channel=5 note=48 velocity=0 time=15\n",
      "note_on channel=5 note=36 velocity=0 time=5\n",
      "note_on channel=5 note=36 velocity=94 time=10\n",
      "note_on channel=5 note=48 velocity=94 time=0\n",
      "note_on channel=5 note=48 velocity=0 time=15\n",
      "note_on channel=5 note=36 velocity=0 time=0\n",
      "note_on channel=5 note=36 velocity=94 time=15\n",
      "note_on channel=5 note=48 velocity=94 time=0\n",
      "note_on channel=5 note=36 velocity=0 time=15\n",
      "note_on channel=5 note=48 velocity=0 time=5\n",
      "note_on channel=5 note=36 velocity=94 time=10\n",
      "note_on channel=5 note=48 velocity=94 time=0\n",
      "note_on channel=5 note=48 velocity=0 time=15\n",
      "note_on channel=5 note=36 velocity=0 time=10\n",
      "note_on channel=5 note=60 velocity=84 time=5\n",
      "note_on channel=5 note=60 velocity=0 time=20\n",
      "note_on channel=5 note=48 velocity=84 time=10\n",
      "note_on channel=5 note=48 velocity=0 time=25\n",
      "note_on channel=5 note=60 velocity=84 time=5\n",
      "note_on channel=5 note=60 velocity=0 time=10\n",
      "note_on channel=5 note=60 velocity=84 time=20\n",
      "note_on channel=5 note=60 velocity=0 time=20\n",
      "note_on channel=5 note=48 velocity=84 time=10\n",
      "note_on channel=5 note=48 velocity=0 time=20\n",
      "note_on channel=5 note=60 velocity=84 time=10\n",
      "note_on channel=5 note=60 velocity=0 time=30\n",
      "note_on channel=5 note=48 velocity=84 time=0\n",
      "note_on channel=5 note=48 velocity=0 time=10\n",
      "note_on channel=5 note=48 velocity=84 time=20\n",
      "note_on channel=5 note=48 velocity=0 time=15\n",
      "note_on channel=5 note=60 velocity=84 time=15\n",
      "note_on channel=5 note=60 velocity=0 time=20\n",
      "note_on channel=5 note=48 velocity=84 time=10\n",
      "note_on channel=5 note=48 velocity=0 time=20\n",
      "note_on channel=5 note=60 velocity=84 time=10\n",
      "note_on channel=5 note=60 velocity=0 time=10\n",
      "note_on channel=5 note=60 velocity=84 time=20\n",
      "note_on channel=5 note=60 velocity=0 time=20\n",
      "note_on channel=5 note=48 velocity=84 time=10\n",
      "note_on channel=5 note=48 velocity=0 time=20\n",
      "note_on channel=5 note=60 velocity=84 time=10\n",
      "note_on channel=5 note=60 velocity=0 time=30\n",
      "note_on channel=5 note=48 velocity=84 time=0\n",
      "note_on channel=5 note=48 velocity=0 time=10\n",
      "note_on channel=5 note=48 velocity=84 time=20\n",
      "note_on channel=5 note=48 velocity=0 time=15\n",
      "note_on channel=5 note=60 velocity=84 time=15\n",
      "note_on channel=5 note=60 velocity=0 time=25\n",
      "note_on channel=5 note=48 velocity=84 time=5\n",
      "note_on channel=5 note=48 velocity=0 time=20\n",
      "note_on channel=5 note=60 velocity=84 time=10\n",
      "note_on channel=5 note=60 velocity=0 time=10\n",
      "note_on channel=5 note=60 velocity=84 time=20\n",
      "note_on channel=5 note=60 velocity=0 time=20\n",
      "note_on channel=5 note=48 velocity=84 time=10\n",
      "note_on channel=5 note=48 velocity=0 time=20\n",
      "note_on channel=5 note=60 velocity=84 time=10\n",
      "note_on channel=5 note=60 velocity=0 time=25\n",
      "note_on channel=5 note=48 velocity=84 time=5\n",
      "note_on channel=5 note=48 velocity=0 time=10\n",
      "note_on channel=5 note=48 velocity=84 time=20\n",
      "note_on channel=5 note=48 velocity=0 time=15\n",
      "note_on channel=5 note=60 velocity=84 time=15\n",
      "note_on channel=5 note=60 velocity=0 time=20\n",
      "note_on channel=5 note=48 velocity=84 time=10\n",
      "note_on channel=5 note=48 velocity=0 time=20\n",
      "note_on channel=5 note=60 velocity=84 time=10\n",
      "note_on channel=5 note=60 velocity=0 time=10\n",
      "note_on channel=5 note=60 velocity=84 time=20\n",
      "note_on channel=5 note=60 velocity=0 time=20\n",
      "note_on channel=5 note=48 velocity=84 time=10\n",
      "note_on channel=5 note=48 velocity=0 time=20\n",
      "note_on channel=5 note=60 velocity=84 time=10\n",
      "note_on channel=5 note=60 velocity=0 time=25\n",
      "note_on channel=5 note=48 velocity=84 time=5\n",
      "note_on channel=5 note=48 velocity=0 time=10\n",
      "note_on channel=5 note=48 velocity=84 time=20\n",
      "note_on channel=5 note=48 velocity=0 time=15\n",
      "note_on channel=5 note=60 velocity=84 time=15\n",
      "note_on channel=5 note=60 velocity=0 time=15\n",
      "note_on channel=5 note=48 velocity=84 time=15\n",
      "note_on channel=5 note=48 velocity=0 time=20\n",
      "note_on channel=5 note=60 velocity=84 time=10\n",
      "note_on channel=5 note=60 velocity=0 time=5\n",
      "note_on channel=5 note=60 velocity=84 time=25\n",
      "note_on channel=5 note=60 velocity=0 time=15\n",
      "note_on channel=5 note=48 velocity=84 time=15\n",
      "note_on channel=5 note=48 velocity=0 time=15\n",
      "note_on channel=5 note=60 velocity=84 time=15\n",
      "note_on channel=5 note=60 velocity=0 time=15\n",
      "note_on channel=5 note=48 velocity=84 time=15\n",
      "note_on channel=5 note=48 velocity=0 time=5\n",
      "note_on channel=5 note=48 velocity=84 time=25\n",
      "note_on channel=5 note=48 velocity=0 time=10\n",
      "note_on channel=5 note=60 velocity=84 time=20\n",
      "note_on channel=5 note=60 velocity=0 time=15\n",
      "note_on channel=5 note=48 velocity=84 time=15\n",
      "note_on channel=5 note=48 velocity=0 time=15\n",
      "note_on channel=5 note=60 velocity=84 time=15\n",
      "note_on channel=5 note=60 velocity=0 time=10\n",
      "note_on channel=5 note=60 velocity=84 time=20\n",
      "note_on channel=5 note=60 velocity=0 time=20\n",
      "note_on channel=5 note=48 velocity=84 time=10\n",
      "note_on channel=5 note=48 velocity=0 time=20\n",
      "note_on channel=5 note=60 velocity=84 time=10\n",
      "note_on channel=5 note=60 velocity=0 time=20\n",
      "note_on channel=5 note=48 velocity=84 time=10\n",
      "note_on channel=5 note=48 velocity=0 time=10\n",
      "note_on channel=5 note=48 velocity=84 time=20\n",
      "note_on channel=5 note=48 velocity=0 time=15\n",
      "note_on channel=5 note=60 velocity=84 time=15\n",
      "note_on channel=5 note=60 velocity=0 time=20\n",
      "note_on channel=5 note=48 velocity=84 time=10\n",
      "note_on channel=5 note=48 velocity=0 time=20\n",
      "note_on channel=5 note=60 velocity=84 time=10\n",
      "note_on channel=5 note=60 velocity=0 time=10\n",
      "note_on channel=5 note=60 velocity=84 time=20\n",
      "note_on channel=5 note=60 velocity=0 time=20\n",
      "note_on channel=5 note=48 velocity=84 time=10\n",
      "note_on channel=5 note=48 velocity=0 time=20\n",
      "note_on channel=5 note=60 velocity=84 time=10\n",
      "note_on channel=5 note=60 velocity=0 time=25\n",
      "note_on channel=5 note=48 velocity=84 time=5\n",
      "note_on channel=5 note=48 velocity=0 time=10\n",
      "note_on channel=5 note=48 velocity=84 time=20\n",
      "note_on channel=5 note=48 velocity=0 time=15\n",
      "note_on channel=5 note=60 velocity=84 time=15\n",
      "note_on channel=5 note=60 velocity=0 time=20\n",
      "note_on channel=5 note=48 velocity=84 time=10\n",
      "note_on channel=5 note=48 velocity=0 time=20\n",
      "note_on channel=5 note=60 velocity=84 time=10\n",
      "note_on channel=5 note=60 velocity=0 time=10\n",
      "note_on channel=5 note=60 velocity=84 time=20\n",
      "note_on channel=5 note=60 velocity=0 time=15\n",
      "note_on channel=5 note=48 velocity=84 time=15\n",
      "note_on channel=5 note=48 velocity=0 time=20\n",
      "note_on channel=5 note=60 velocity=84 time=10\n",
      "note_on channel=5 note=60 velocity=0 time=30\n",
      "note_on channel=5 note=48 velocity=84 time=0\n",
      "note_on channel=5 note=48 velocity=0 time=10\n",
      "note_on channel=5 note=48 velocity=84 time=20\n",
      "note_on channel=5 note=48 velocity=0 time=20\n",
      "note_on channel=5 note=60 velocity=84 time=10\n",
      "note_on channel=5 note=60 velocity=0 time=20\n",
      "note_on channel=5 note=48 velocity=84 time=10\n",
      "note_on channel=5 note=48 velocity=0 time=25\n",
      "note_on channel=5 note=60 velocity=84 time=5\n",
      "note_on channel=5 note=60 velocity=0 time=10\n",
      "note_on channel=5 note=60 velocity=84 time=20\n",
      "note_on channel=5 note=60 velocity=0 time=20\n",
      "note_on channel=5 note=48 velocity=84 time=10\n",
      "note_on channel=5 note=48 velocity=0 time=20\n",
      "note_on channel=5 note=60 velocity=84 time=10\n",
      "note_on channel=5 note=60 velocity=0 time=25\n",
      "note_on channel=5 note=48 velocity=84 time=5\n",
      "note_on channel=5 note=48 velocity=0 time=10\n",
      "note_on channel=5 note=48 velocity=84 time=20\n",
      "note_on channel=5 note=48 velocity=0 time=20\n",
      "note_on channel=5 note=60 velocity=84 time=10\n",
      "note_on channel=5 note=60 velocity=0 time=20\n",
      "note_on channel=5 note=48 velocity=84 time=10\n",
      "note_on channel=5 note=48 velocity=0 time=20\n",
      "note_on channel=5 note=60 velocity=84 time=10\n",
      "note_on channel=5 note=60 velocity=0 time=10\n",
      "note_on channel=5 note=60 velocity=84 time=20\n",
      "note_on channel=5 note=60 velocity=0 time=20\n",
      "note_on channel=5 note=48 velocity=84 time=10\n",
      "note_on channel=5 note=48 velocity=0 time=20\n",
      "note_on channel=5 note=60 velocity=84 time=10\n",
      "note_on channel=5 note=60 velocity=0 time=25\n",
      "note_on channel=5 note=48 velocity=84 time=5\n",
      "note_on channel=5 note=48 velocity=0 time=10\n",
      "note_on channel=5 note=48 velocity=84 time=20\n",
      "note_on channel=5 note=48 velocity=0 time=15\n",
      "note_on channel=5 note=60 velocity=84 time=15\n",
      "note_on channel=5 note=60 velocity=0 time=20\n",
      "note_on channel=5 note=48 velocity=84 time=10\n",
      "note_on channel=5 note=48 velocity=0 time=20\n",
      "note_on channel=5 note=60 velocity=84 time=10\n",
      "note_on channel=5 note=60 velocity=0 time=10\n",
      "note_on channel=5 note=60 velocity=84 time=20\n",
      "note_on channel=5 note=60 velocity=0 time=20\n",
      "note_on channel=5 note=48 velocity=84 time=10\n",
      "note_on channel=5 note=48 velocity=0 time=20\n",
      "note_on channel=5 note=60 velocity=84 time=10\n",
      "note_on channel=5 note=60 velocity=0 time=25\n",
      "note_on channel=5 note=48 velocity=84 time=5\n",
      "note_on channel=5 note=48 velocity=0 time=10\n",
      "note_on channel=5 note=48 velocity=84 time=20\n",
      "note_on channel=5 note=48 velocity=0 time=20\n",
      "note_on channel=5 note=60 velocity=84 time=10\n",
      "note_on channel=5 note=60 velocity=0 time=25\n",
      "note_on channel=5 note=48 velocity=84 time=5\n",
      "note_on channel=5 note=48 velocity=0 time=20\n",
      "note_on channel=5 note=60 velocity=84 time=10\n",
      "note_on channel=5 note=60 velocity=0 time=10\n",
      "note_on channel=5 note=60 velocity=84 time=20\n",
      "note_on channel=5 note=60 velocity=0 time=20\n",
      "note_on channel=5 note=48 velocity=84 time=10\n",
      "note_on channel=5 note=48 velocity=0 time=20\n",
      "note_on channel=5 note=60 velocity=84 time=10\n",
      "note_on channel=5 note=60 velocity=0 time=25\n",
      "note_on channel=5 note=48 velocity=84 time=5\n",
      "note_on channel=5 note=48 velocity=0 time=10\n",
      "note_on channel=5 note=48 velocity=84 time=20\n",
      "note_on channel=5 note=48 velocity=0 time=15\n",
      "note_on channel=5 note=60 velocity=84 time=15\n",
      "note_on channel=5 note=60 velocity=0 time=20\n",
      "note_on channel=5 note=48 velocity=84 time=10\n",
      "note_on channel=5 note=48 velocity=0 time=20\n",
      "note_on channel=5 note=60 velocity=84 time=10\n",
      "note_on channel=5 note=60 velocity=0 time=5\n",
      "note_on channel=5 note=60 velocity=84 time=25\n",
      "note_on channel=5 note=60 velocity=0 time=15\n",
      "note_on channel=5 note=48 velocity=84 time=15\n",
      "note_on channel=5 note=48 velocity=0 time=15\n",
      "note_on channel=5 note=60 velocity=84 time=15\n",
      "note_on channel=5 note=60 velocity=0 time=20\n",
      "note_on channel=5 note=48 velocity=84 time=10\n",
      "note_on channel=5 note=48 velocity=0 time=10\n",
      "note_on channel=5 note=48 velocity=84 time=20\n",
      "note_on channel=5 note=48 velocity=0 time=15\n",
      "note_on channel=5 note=60 velocity=84 time=15\n",
      "note_on channel=5 note=60 velocity=0 time=15\n",
      "note_on channel=5 note=48 velocity=84 time=15\n",
      "note_on channel=5 note=48 velocity=0 time=20\n",
      "note_on channel=5 note=60 velocity=84 time=10\n",
      "note_on channel=5 note=60 velocity=0 time=10\n",
      "note_on channel=5 note=60 velocity=84 time=20\n",
      "note_on channel=5 note=60 velocity=0 time=15\n",
      "note_on channel=5 note=48 velocity=84 time=15\n",
      "note_on channel=5 note=48 velocity=0 time=20\n",
      "note_on channel=5 note=60 velocity=84 time=10\n",
      "note_on channel=5 note=60 velocity=0 time=20\n",
      "note_on channel=5 note=48 velocity=84 time=10\n",
      "note_on channel=5 note=48 velocity=0 time=10\n",
      "note_on channel=5 note=48 velocity=84 time=20\n",
      "note_on channel=5 note=48 velocity=0 time=15\n",
      "note_on channel=5 note=60 velocity=84 time=15\n",
      "note_on channel=5 note=60 velocity=0 time=20\n",
      "note_on channel=5 note=48 velocity=84 time=10\n",
      "note_on channel=5 note=48 velocity=0 time=25\n",
      "note_on channel=5 note=60 velocity=84 time=5\n",
      "note_on channel=5 note=60 velocity=0 time=10\n",
      "note_on channel=5 note=60 velocity=84 time=20\n",
      "note_on channel=5 note=60 velocity=0 time=20\n",
      "note_on channel=5 note=48 velocity=84 time=10\n",
      "note_on channel=5 note=48 velocity=0 time=20\n",
      "note_on channel=5 note=60 velocity=84 time=10\n",
      "note_on channel=5 note=60 velocity=0 time=25\n",
      "note_on channel=5 note=48 velocity=84 time=5\n",
      "note_on channel=5 note=48 velocity=0 time=5\n",
      "note_on channel=5 note=48 velocity=84 time=25\n",
      "note_on channel=5 note=48 velocity=0 time=20\n",
      "note_on channel=5 note=60 velocity=84 time=10\n",
      "note_on channel=5 note=60 velocity=0 time=20\n",
      "note_on channel=5 note=48 velocity=84 time=10\n",
      "note_on channel=5 note=48 velocity=0 time=25\n",
      "note_on channel=5 note=60 velocity=84 time=5\n",
      "note_on channel=5 note=60 velocity=0 time=15\n",
      "note_on channel=5 note=60 velocity=84 time=15\n",
      "note_on channel=5 note=60 velocity=0 time=20\n",
      "note_on channel=5 note=48 velocity=84 time=10\n",
      "note_on channel=5 note=48 velocity=0 time=20\n",
      "note_on channel=5 note=60 velocity=84 time=10\n",
      "note_on channel=5 note=60 velocity=0 time=30\n",
      "note_on channel=5 note=48 velocity=84 time=0\n",
      "note_on channel=5 note=48 velocity=0 time=10\n",
      "note_on channel=5 note=48 velocity=84 time=20\n",
      "note_on channel=5 note=48 velocity=0 time=20\n",
      "note_on channel=5 note=60 velocity=84 time=10\n",
      "note_on channel=5 note=60 velocity=0 time=20\n",
      "note_on channel=5 note=48 velocity=84 time=10\n",
      "note_on channel=5 note=48 velocity=0 time=25\n",
      "note_on channel=5 note=60 velocity=84 time=5\n",
      "note_on channel=5 note=60 velocity=0 time=10\n",
      "note_on channel=5 note=60 velocity=84 time=20\n",
      "note_on channel=5 note=60 velocity=0 time=15\n",
      "note_on channel=5 note=48 velocity=84 time=15\n",
      "note_on channel=5 note=48 velocity=0 time=20\n",
      "note_on channel=5 note=60 velocity=84 time=10\n",
      "note_on channel=5 note=60 velocity=0 time=25\n",
      "note_on channel=5 note=48 velocity=84 time=5\n",
      "note_on channel=5 note=48 velocity=0 time=5\n",
      "note_on channel=5 note=48 velocity=84 time=25\n",
      "note_on channel=5 note=48 velocity=0 time=15\n",
      "note_on channel=5 note=60 velocity=84 time=15\n",
      "note_on channel=5 note=60 velocity=0 time=15\n",
      "note_on channel=5 note=48 velocity=84 time=15\n",
      "note_on channel=5 note=48 velocity=0 time=20\n",
      "note_on channel=5 note=60 velocity=84 time=10\n",
      "note_on channel=5 note=60 velocity=0 time=10\n",
      "note_on channel=5 note=60 velocity=84 time=20\n",
      "note_on channel=5 note=60 velocity=0 time=15\n",
      "note_on channel=5 note=48 velocity=84 time=15\n",
      "note_on channel=5 note=48 velocity=0 time=15\n",
      "note_on channel=5 note=60 velocity=84 time=15\n",
      "note_on channel=5 note=60 velocity=0 time=25\n",
      "note_on channel=5 note=48 velocity=84 time=5\n",
      "note_on channel=5 note=48 velocity=0 time=5\n",
      "note_on channel=5 note=48 velocity=84 time=25\n",
      "note_on channel=5 note=48 velocity=0 time=15\n",
      "note_on channel=5 note=60 velocity=84 time=15\n",
      "note_on channel=5 note=60 velocity=0 time=20\n",
      "note_on channel=5 note=48 velocity=84 time=10\n",
      "note_on channel=5 note=48 velocity=0 time=20\n",
      "note_on channel=5 note=60 velocity=84 time=10\n",
      "note_on channel=5 note=60 velocity=0 time=10\n",
      "note_on channel=5 note=60 velocity=84 time=20\n",
      "note_on channel=5 note=60 velocity=0 time=15\n",
      "note_on channel=5 note=48 velocity=84 time=15\n",
      "note_on channel=5 note=48 velocity=0 time=20\n",
      "note_on channel=5 note=60 velocity=84 time=10\n",
      "note_on channel=5 note=60 velocity=0 time=25\n",
      "note_on channel=5 note=48 velocity=84 time=5\n",
      "note_on channel=5 note=48 velocity=0 time=10\n",
      "note_on channel=5 note=48 velocity=84 time=20\n",
      "note_on channel=5 note=48 velocity=0 time=15\n",
      "note_on channel=5 note=60 velocity=84 time=15\n",
      "note_on channel=5 note=60 velocity=0 time=15\n",
      "note_on channel=5 note=48 velocity=84 time=15\n",
      "note_on channel=5 note=48 velocity=0 time=20\n",
      "note_on channel=5 note=60 velocity=84 time=10\n",
      "note_on channel=5 note=60 velocity=0 time=10\n",
      "note_on channel=5 note=60 velocity=84 time=20\n",
      "note_on channel=5 note=60 velocity=0 time=15\n",
      "note_on channel=5 note=48 velocity=84 time=15\n",
      "note_on channel=5 note=48 velocity=0 time=20\n",
      "note_on channel=5 note=60 velocity=84 time=10\n",
      "note_on channel=5 note=60 velocity=0 time=20\n",
      "note_on channel=5 note=48 velocity=84 time=10\n",
      "note_on channel=5 note=48 velocity=0 time=10\n",
      "note_on channel=5 note=48 velocity=84 time=20\n",
      "note_on channel=5 note=48 velocity=0 time=15\n",
      "note_on channel=5 note=60 velocity=84 time=15\n",
      "note_on channel=5 note=60 velocity=0 time=20\n",
      "note_on channel=5 note=48 velocity=84 time=10\n",
      "note_on channel=5 note=48 velocity=0 time=25\n",
      "note_on channel=5 note=60 velocity=84 time=5\n",
      "note_on channel=5 note=60 velocity=0 time=10\n",
      "note_on channel=5 note=60 velocity=84 time=20\n",
      "note_on channel=5 note=60 velocity=0 time=20\n",
      "note_on channel=5 note=48 velocity=84 time=10\n",
      "note_on channel=5 note=48 velocity=0 time=20\n",
      "note_on channel=5 note=60 velocity=84 time=10\n",
      "note_on channel=5 note=60 velocity=0 time=25\n",
      "note_on channel=5 note=48 velocity=84 time=5\n",
      "note_on channel=5 note=48 velocity=0 time=10\n",
      "note_on channel=5 note=48 velocity=84 time=20\n",
      "note_on channel=5 note=48 velocity=0 time=15\n",
      "note_on channel=5 note=60 velocity=84 time=15\n",
      "note_on channel=5 note=60 velocity=0 time=20\n",
      "note_on channel=5 note=48 velocity=84 time=10\n",
      "note_on channel=5 note=48 velocity=0 time=25\n",
      "note_on channel=5 note=60 velocity=84 time=5\n",
      "note_on channel=5 note=60 velocity=0 time=10\n",
      "note_on channel=5 note=60 velocity=84 time=20\n",
      "note_on channel=5 note=60 velocity=0 time=20\n",
      "note_on channel=5 note=48 velocity=84 time=10\n",
      "note_on channel=5 note=48 velocity=0 time=20\n",
      "note_on channel=5 note=60 velocity=84 time=10\n",
      "note_on channel=5 note=60 velocity=0 time=25\n",
      "note_on channel=5 note=48 velocity=84 time=5\n",
      "note_on channel=5 note=48 velocity=0 time=10\n",
      "note_on channel=5 note=48 velocity=84 time=20\n",
      "note_on channel=5 note=48 velocity=0 time=15\n",
      "note_on channel=5 note=60 velocity=84 time=15\n",
      "note_on channel=5 note=60 velocity=0 time=20\n",
      "note_on channel=5 note=48 velocity=84 time=10\n",
      "note_on channel=5 note=48 velocity=0 time=20\n",
      "note_on channel=5 note=60 velocity=84 time=10\n",
      "note_on channel=5 note=60 velocity=0 time=10\n",
      "note_on channel=5 note=60 velocity=84 time=20\n",
      "note_on channel=5 note=60 velocity=0 time=20\n",
      "note_on channel=5 note=48 velocity=84 time=10\n",
      "note_on channel=5 note=48 velocity=0 time=25\n",
      "note_on channel=5 note=60 velocity=84 time=5\n",
      "note_on channel=5 note=60 velocity=0 time=20\n",
      "note_on channel=5 note=48 velocity=84 time=10\n",
      "note_on channel=5 note=48 velocity=0 time=10\n",
      "note_on channel=5 note=48 velocity=84 time=20\n",
      "note_on channel=5 note=48 velocity=0 time=15\n",
      "note_on channel=5 note=60 velocity=84 time=15\n",
      "note_on channel=5 note=60 velocity=0 time=20\n",
      "note_on channel=5 note=48 velocity=84 time=10\n",
      "note_on channel=5 note=48 velocity=0 time=20\n",
      "note_on channel=5 note=60 velocity=84 time=10\n",
      "note_on channel=5 note=60 velocity=0 time=10\n",
      "note_on channel=5 note=60 velocity=84 time=20\n",
      "note_on channel=5 note=60 velocity=0 time=15\n",
      "note_on channel=5 note=48 velocity=84 time=15\n",
      "note_on channel=5 note=48 velocity=0 time=20\n",
      "note_on channel=5 note=60 velocity=84 time=10\n",
      "note_on channel=5 note=60 velocity=0 time=20\n",
      "note_on channel=5 note=48 velocity=84 time=10\n",
      "note_on channel=5 note=48 velocity=0 time=10\n",
      "note_on channel=5 note=48 velocity=84 time=20\n",
      "note_on channel=5 note=48 velocity=0 time=15\n",
      "note_on channel=5 note=60 velocity=84 time=15\n",
      "note_on channel=5 note=60 velocity=0 time=15\n",
      "note_on channel=5 note=48 velocity=84 time=15\n",
      "note_on channel=5 note=48 velocity=0 time=25\n",
      "note_on channel=5 note=60 velocity=84 time=5\n",
      "note_on channel=5 note=60 velocity=0 time=10\n",
      "note_on channel=5 note=60 velocity=84 time=20\n",
      "note_on channel=5 note=60 velocity=0 time=15\n",
      "note_on channel=5 note=48 velocity=84 time=15\n",
      "note_on channel=5 note=48 velocity=0 time=20\n",
      "note_on channel=5 note=60 velocity=84 time=10\n",
      "note_on channel=5 note=60 velocity=0 time=20\n",
      "note_on channel=5 note=48 velocity=84 time=10\n",
      "note_on channel=5 note=48 velocity=0 time=10\n",
      "note_on channel=5 note=48 velocity=84 time=20\n",
      "note_on channel=5 note=48 velocity=0 time=20\n",
      "note_on channel=5 note=60 velocity=84 time=10\n",
      "note_on channel=5 note=60 velocity=0 time=20\n",
      "note_on channel=5 note=48 velocity=84 time=10\n",
      "note_on channel=5 note=48 velocity=0 time=20\n",
      "note_on channel=5 note=60 velocity=84 time=10\n",
      "note_on channel=5 note=60 velocity=0 time=10\n",
      "note_on channel=5 note=60 velocity=84 time=20\n",
      "note_on channel=5 note=60 velocity=0 time=15\n",
      "note_on channel=5 note=48 velocity=84 time=15\n",
      "note_on channel=5 note=48 velocity=0 time=20\n",
      "note_on channel=5 note=60 velocity=84 time=10\n",
      "note_on channel=5 note=60 velocity=0 time=20\n",
      "note_on channel=5 note=48 velocity=84 time=10\n",
      "note_on channel=5 note=48 velocity=0 time=10\n",
      "note_on channel=5 note=48 velocity=84 time=20\n",
      "note_on channel=5 note=48 velocity=0 time=20\n",
      "note_on channel=5 note=60 velocity=84 time=10\n",
      "note_on channel=5 note=60 velocity=0 time=20\n",
      "note_on channel=5 note=48 velocity=84 time=10\n",
      "note_on channel=5 note=48 velocity=0 time=20\n",
      "note_on channel=5 note=60 velocity=84 time=10\n",
      "note_on channel=5 note=60 velocity=0 time=10\n",
      "note_on channel=5 note=60 velocity=84 time=20\n",
      "note_on channel=5 note=60 velocity=0 time=15\n",
      "note_on channel=5 note=48 velocity=84 time=15\n",
      "note_on channel=5 note=48 velocity=0 time=20\n",
      "note_on channel=5 note=60 velocity=84 time=10\n",
      "note_on channel=5 note=60 velocity=0 time=20\n",
      "note_on channel=5 note=48 velocity=84 time=10\n",
      "note_on channel=5 note=48 velocity=0 time=5\n",
      "note_on channel=5 note=48 velocity=84 time=25\n",
      "note_on channel=5 note=48 velocity=0 time=15\n",
      "note_on channel=5 note=60 velocity=84 time=15\n",
      "note_on channel=5 note=60 velocity=0 time=20\n",
      "note_on channel=5 note=48 velocity=84 time=10\n",
      "note_on channel=5 note=48 velocity=0 time=20\n",
      "note_on channel=5 note=60 velocity=84 time=10\n",
      "note_on channel=5 note=60 velocity=0 time=10\n",
      "note_on channel=5 note=60 velocity=84 time=20\n",
      "note_on channel=5 note=60 velocity=0 time=15\n",
      "note_on channel=5 note=48 velocity=84 time=15\n",
      "note_on channel=5 note=48 velocity=0 time=20\n",
      "note_on channel=5 note=60 velocity=84 time=10\n",
      "note_on channel=5 note=60 velocity=0 time=20\n",
      "note_on channel=5 note=48 velocity=84 time=10\n",
      "note_on channel=5 note=48 velocity=0 time=10\n",
      "note_on channel=5 note=48 velocity=84 time=20\n",
      "note_on channel=5 note=48 velocity=0 time=15\n",
      "note_on channel=5 note=60 velocity=84 time=15\n",
      "note_on channel=5 note=60 velocity=0 time=15\n",
      "note_on channel=5 note=48 velocity=84 time=15\n",
      "note_on channel=5 note=48 velocity=0 time=15\n",
      "note_on channel=5 note=60 velocity=84 time=15\n",
      "note_on channel=5 note=60 velocity=0 time=10\n",
      "note_on channel=5 note=60 velocity=84 time=20\n",
      "note_on channel=5 note=60 velocity=0 time=15\n",
      "note_on channel=5 note=48 velocity=84 time=15\n",
      "note_on channel=5 note=48 velocity=0 time=20\n",
      "note_on channel=5 note=60 velocity=84 time=10\n",
      "note_on channel=5 note=60 velocity=0 time=20\n",
      "note_on channel=5 note=48 velocity=84 time=10\n",
      "note_on channel=5 note=48 velocity=0 time=10\n",
      "note_on channel=5 note=48 velocity=84 time=20\n",
      "note_on channel=5 note=48 velocity=0 time=15\n",
      "note_on channel=5 note=60 velocity=84 time=15\n",
      "note_on channel=5 note=60 velocity=0 time=15\n",
      "note_on channel=5 note=48 velocity=84 time=15\n",
      "note_on channel=5 note=48 velocity=0 time=20\n",
      "note_on channel=5 note=60 velocity=84 time=10\n",
      "note_on channel=5 note=60 velocity=0 time=10\n",
      "note_on channel=5 note=60 velocity=84 time=20\n",
      "note_on channel=5 note=60 velocity=0 time=15\n",
      "note_on channel=5 note=48 velocity=84 time=15\n",
      "note_on channel=5 note=48 velocity=0 time=20\n",
      "note_on channel=5 note=60 velocity=84 time=10\n",
      "note_on channel=5 note=60 velocity=0 time=25\n",
      "note_on channel=5 note=48 velocity=84 time=5\n",
      "note_on channel=5 note=48 velocity=0 time=5\n",
      "note_on channel=5 note=48 velocity=84 time=25\n",
      "note_on channel=5 note=48 velocity=0 time=20\n",
      "note_on channel=5 note=60 velocity=84 time=10\n",
      "note_on channel=5 note=60 velocity=0 time=20\n",
      "note_on channel=5 note=48 velocity=84 time=10\n",
      "note_on channel=5 note=48 velocity=0 time=20\n",
      "note_on channel=5 note=60 velocity=84 time=10\n",
      "note_on channel=5 note=60 velocity=0 time=10\n",
      "note_on channel=5 note=60 velocity=84 time=20\n",
      "note_on channel=5 note=60 velocity=0 time=15\n",
      "note_on channel=5 note=48 velocity=84 time=15\n",
      "note_on channel=5 note=48 velocity=0 time=20\n",
      "note_on channel=5 note=60 velocity=84 time=10\n",
      "note_on channel=5 note=60 velocity=0 time=25\n",
      "note_on channel=5 note=48 velocity=84 time=5\n",
      "note_on channel=5 note=48 velocity=0 time=10\n",
      "note_on channel=5 note=48 velocity=84 time=20\n",
      "note_on channel=5 note=48 velocity=0 time=15\n",
      "note_on channel=5 note=60 velocity=84 time=15\n",
      "note_on channel=5 note=60 velocity=0 time=20\n",
      "note_on channel=5 note=48 velocity=84 time=10\n",
      "note_on channel=5 note=48 velocity=0 time=20\n",
      "note_on channel=5 note=60 velocity=84 time=10\n",
      "note_on channel=5 note=60 velocity=0 time=10\n",
      "note_on channel=5 note=60 velocity=84 time=20\n",
      "note_on channel=5 note=60 velocity=0 time=15\n",
      "note_on channel=5 note=48 velocity=84 time=15\n",
      "note_on channel=5 note=48 velocity=0 time=15\n",
      "note_on channel=5 note=60 velocity=84 time=15\n",
      "note_on channel=5 note=60 velocity=0 time=25\n",
      "note_on channel=5 note=48 velocity=84 time=5\n",
      "note_on channel=5 note=48 velocity=0 time=15\n",
      "note_on channel=5 note=48 velocity=84 time=15\n",
      "note_on channel=5 note=48 velocity=0 time=15\n",
      "note_on channel=5 note=65 velocity=84 time=15\n",
      "note_on channel=5 note=65 velocity=0 time=20\n",
      "note_on channel=5 note=53 velocity=84 time=10\n",
      "note_on channel=5 note=53 velocity=0 time=20\n",
      "note_on channel=5 note=65 velocity=84 time=10\n",
      "note_on channel=5 note=65 velocity=0 time=10\n",
      "note_on channel=5 note=65 velocity=84 time=20\n",
      "note_on channel=5 note=65 velocity=0 time=20\n",
      "note_on channel=5 note=53 velocity=84 time=10\n",
      "note_on channel=5 note=53 velocity=0 time=20\n",
      "note_on channel=5 note=65 velocity=84 time=10\n",
      "note_on channel=5 note=65 velocity=0 time=30\n",
      "note_on channel=5 note=53 velocity=84 time=0\n",
      "note_on channel=5 note=53 velocity=0 time=10\n",
      "note_on channel=5 note=53 velocity=84 time=20\n",
      "note_on channel=5 note=53 velocity=0 time=20\n",
      "note_on channel=5 note=65 velocity=84 time=10\n",
      "note_on channel=5 note=65 velocity=0 time=20\n",
      "note_on channel=5 note=53 velocity=84 time=10\n",
      "note_on channel=5 note=53 velocity=0 time=25\n",
      "note_on channel=5 note=65 velocity=84 time=5\n",
      "note_on channel=5 note=65 velocity=0 time=10\n",
      "note_on channel=5 note=65 velocity=84 time=20\n",
      "note_on channel=5 note=65 velocity=0 time=20\n",
      "note_on channel=5 note=53 velocity=84 time=10\n",
      "note_on channel=5 note=53 velocity=0 time=20\n",
      "note_on channel=5 note=65 velocity=84 time=10\n",
      "note_on channel=5 note=65 velocity=0 time=25\n",
      "note_on channel=5 note=53 velocity=84 time=5\n",
      "note_on channel=5 note=53 velocity=0 time=10\n",
      "note_on channel=5 note=53 velocity=84 time=20\n",
      "note_on channel=5 note=53 velocity=0 time=20\n",
      "note_on channel=5 note=65 velocity=84 time=10\n",
      "note_on channel=5 note=65 velocity=0 time=20\n",
      "note_on channel=5 note=53 velocity=84 time=10\n",
      "note_on channel=5 note=53 velocity=0 time=15\n",
      "note_on channel=5 note=65 velocity=84 time=15\n",
      "note_on channel=5 note=65 velocity=0 time=10\n",
      "note_on channel=5 note=65 velocity=84 time=20\n",
      "note_on channel=5 note=65 velocity=0 time=15\n",
      "note_on channel=5 note=53 velocity=84 time=15\n",
      "note_on channel=5 note=53 velocity=0 time=20\n",
      "note_on channel=5 note=65 velocity=84 time=10\n",
      "note_on channel=5 note=65 velocity=0 time=20\n",
      "note_on channel=5 note=53 velocity=84 time=10\n",
      "note_on channel=5 note=53 velocity=0 time=10\n",
      "note_on channel=5 note=53 velocity=84 time=20\n",
      "note_on channel=5 note=53 velocity=0 time=15\n",
      "note_on channel=5 note=65 velocity=84 time=15\n",
      "note_on channel=5 note=65 velocity=0 time=15\n",
      "note_on channel=5 note=53 velocity=84 time=15\n",
      "note_on channel=5 note=53 velocity=0 time=20\n",
      "note_on channel=5 note=65 velocity=84 time=10\n",
      "note_on channel=5 note=65 velocity=0 time=10\n",
      "note_on channel=5 note=65 velocity=84 time=20\n",
      "note_on channel=5 note=65 velocity=0 time=15\n",
      "note_on channel=5 note=53 velocity=84 time=15\n",
      "note_on channel=5 note=53 velocity=0 time=20\n",
      "note_on channel=5 note=65 velocity=84 time=10\n",
      "note_on channel=5 note=65 velocity=0 time=20\n",
      "note_on channel=5 note=53 velocity=84 time=10\n",
      "note_on channel=5 note=53 velocity=0 time=10\n",
      "note_on channel=5 note=53 velocity=84 time=20\n",
      "note_on channel=5 note=53 velocity=0 time=10\n",
      "note_on channel=5 note=60 velocity=84 time=20\n",
      "note_on channel=5 note=60 velocity=0 time=20\n",
      "note_on channel=5 note=48 velocity=84 time=10\n",
      "note_on channel=5 note=48 velocity=0 time=30\n",
      "note_on channel=5 note=60 velocity=84 time=0\n",
      "note_on channel=5 note=60 velocity=0 time=10\n",
      "note_on channel=5 note=60 velocity=84 time=20\n",
      "note_on channel=5 note=60 velocity=0 time=20\n",
      "note_on channel=5 note=48 velocity=84 time=10\n",
      "note_on channel=5 note=48 velocity=0 time=20\n",
      "note_on channel=5 note=60 velocity=84 time=10\n",
      "note_on channel=5 note=60 velocity=0 time=30\n",
      "note_on channel=5 note=48 velocity=84 time=0\n",
      "note_on channel=5 note=48 velocity=0 time=10\n",
      "note_on channel=5 note=48 velocity=84 time=20\n",
      "note_on channel=5 note=48 velocity=0 time=15\n",
      "note_on channel=5 note=60 velocity=84 time=15\n",
      "note_on channel=5 note=60 velocity=0 time=20\n",
      "note_on channel=5 note=48 velocity=84 time=10\n",
      "note_on channel=5 note=48 velocity=0 time=20\n",
      "note_on channel=5 note=60 velocity=84 time=10\n",
      "note_on channel=5 note=60 velocity=0 time=5\n",
      "note_on channel=5 note=60 velocity=84 time=25\n",
      "note_on channel=5 note=60 velocity=0 time=15\n",
      "note_on channel=5 note=48 velocity=84 time=15\n",
      "note_on channel=5 note=48 velocity=0 time=20\n",
      "note_on channel=5 note=60 velocity=84 time=10\n",
      "note_on channel=5 note=60 velocity=0 time=30\n",
      "note_on channel=5 note=48 velocity=84 time=0\n",
      "note_on channel=5 note=48 velocity=0 time=10\n",
      "note_on channel=5 note=48 velocity=84 time=20\n",
      "note_on channel=5 note=48 velocity=0 time=15\n",
      "note_on channel=5 note=60 velocity=84 time=15\n",
      "note_on channel=5 note=60 velocity=0 time=20\n",
      "note_on channel=5 note=48 velocity=84 time=10\n",
      "note_on channel=5 note=48 velocity=0 time=20\n",
      "note_on channel=5 note=60 velocity=84 time=10\n",
      "note_on channel=5 note=60 velocity=0 time=10\n",
      "note_on channel=5 note=60 velocity=84 time=20\n",
      "note_on channel=5 note=60 velocity=0 time=15\n",
      "note_on channel=5 note=48 velocity=84 time=15\n",
      "note_on channel=5 note=48 velocity=0 time=20\n",
      "note_on channel=5 note=60 velocity=84 time=10\n",
      "note_on channel=5 note=60 velocity=0 time=20\n",
      "note_on channel=5 note=48 velocity=84 time=10\n",
      "note_on channel=5 note=48 velocity=0 time=10\n",
      "note_on channel=5 note=48 velocity=84 time=20\n",
      "note_on channel=5 note=48 velocity=0 time=15\n",
      "note_on channel=5 note=60 velocity=84 time=15\n",
      "note_on channel=5 note=60 velocity=0 time=20\n",
      "note_on channel=5 note=48 velocity=84 time=10\n",
      "note_on channel=5 note=48 velocity=0 time=20\n",
      "note_on channel=5 note=60 velocity=84 time=10\n",
      "note_on channel=5 note=60 velocity=0 time=10\n",
      "note_on channel=5 note=60 velocity=84 time=20\n",
      "note_on channel=5 note=60 velocity=0 time=15\n",
      "note_on channel=5 note=48 velocity=84 time=15\n",
      "note_on channel=5 note=48 velocity=0 time=15\n",
      "note_on channel=5 note=60 velocity=84 time=15\n",
      "note_on channel=5 note=60 velocity=0 time=20\n",
      "note_on channel=5 note=48 velocity=84 time=10\n",
      "note_on channel=5 note=48 velocity=0 time=10\n",
      "note_on channel=5 note=48 velocity=84 time=20\n",
      "note_on channel=5 note=48 velocity=0 time=15\n",
      "note_on channel=5 note=65 velocity=84 time=15\n",
      "note_on channel=5 note=65 velocity=0 time=20\n",
      "note_on channel=5 note=53 velocity=84 time=10\n",
      "note_on channel=5 note=53 velocity=0 time=30\n",
      "note_on channel=5 note=65 velocity=84 time=0\n",
      "note_on channel=5 note=65 velocity=0 time=10\n",
      "note_on channel=5 note=65 velocity=84 time=20\n",
      "note_on channel=5 note=65 velocity=0 time=20\n",
      "note_on channel=5 note=53 velocity=84 time=10\n",
      "note_on channel=5 note=53 velocity=0 time=20\n",
      "note_on channel=5 note=65 velocity=84 time=10\n",
      "note_on channel=5 note=65 velocity=0 time=30\n",
      "note_on channel=5 note=53 velocity=84 time=0\n",
      "note_on channel=5 note=53 velocity=0 time=10\n",
      "note_on channel=5 note=53 velocity=84 time=20\n",
      "note_on channel=5 note=53 velocity=0 time=20\n",
      "note_on channel=5 note=65 velocity=84 time=10\n",
      "note_on channel=5 note=65 velocity=0 time=20\n",
      "note_on channel=5 note=53 velocity=84 time=10\n",
      "note_on channel=5 note=53 velocity=0 time=25\n",
      "note_on channel=5 note=65 velocity=84 time=5\n",
      "note_on channel=5 note=65 velocity=0 time=10\n",
      "note_on channel=5 note=65 velocity=84 time=20\n",
      "note_on channel=5 note=65 velocity=0 time=20\n",
      "note_on channel=5 note=53 velocity=84 time=10\n",
      "note_on channel=5 note=53 velocity=0 time=20\n",
      "note_on channel=5 note=65 velocity=84 time=10\n",
      "note_on channel=5 note=65 velocity=0 time=30\n",
      "note_on channel=5 note=53 velocity=84 time=0\n",
      "note_on channel=5 note=53 velocity=0 time=10\n",
      "note_on channel=5 note=53 velocity=84 time=20\n",
      "note_on channel=5 note=53 velocity=0 time=20\n",
      "note_on channel=5 note=65 velocity=84 time=10\n",
      "note_on channel=5 note=65 velocity=0 time=20\n",
      "note_on channel=5 note=53 velocity=84 time=10\n",
      "note_on channel=5 note=53 velocity=0 time=25\n",
      "note_on channel=5 note=65 velocity=84 time=5\n",
      "note_on channel=5 note=65 velocity=0 time=10\n",
      "note_on channel=5 note=65 velocity=84 time=20\n",
      "note_on channel=5 note=65 velocity=0 time=20\n",
      "note_on channel=5 note=53 velocity=84 time=10\n",
      "note_on channel=5 note=53 velocity=0 time=20\n",
      "note_on channel=5 note=65 velocity=84 time=10\n",
      "note_on channel=5 note=53 velocity=84 time=30\n",
      "note_on channel=5 note=65 velocity=0 time=5\n",
      "note_on channel=5 note=53 velocity=0 time=5\n",
      "note_on channel=5 note=53 velocity=84 time=20\n",
      "note_on channel=5 note=53 velocity=0 time=15\n",
      "note_on channel=5 note=65 velocity=84 time=15\n",
      "note_on channel=5 note=65 velocity=0 time=20\n",
      "note_on channel=5 note=53 velocity=84 time=10\n",
      "note_on channel=5 note=53 velocity=0 time=20\n",
      "note_on channel=5 note=65 velocity=84 time=10\n",
      "note_on channel=5 note=65 velocity=0 time=10\n",
      "note_on channel=5 note=65 velocity=84 time=20\n",
      "note_on channel=5 note=65 velocity=0 time=15\n",
      "note_on channel=5 note=53 velocity=84 time=15\n",
      "note_on channel=5 note=53 velocity=0 time=20\n",
      "note_on channel=5 note=65 velocity=84 time=10\n",
      "note_on channel=5 note=65 velocity=0 time=25\n",
      "note_on channel=5 note=53 velocity=84 time=5\n",
      "note_on channel=5 note=53 velocity=0 time=15\n",
      "note_on channel=5 note=53 velocity=84 time=15\n",
      "note_on channel=5 note=53 velocity=0 time=15\n",
      "note_on channel=5 note=60 velocity=84 time=15\n",
      "note_on channel=5 note=60 velocity=0 time=20\n",
      "note_on channel=5 note=48 velocity=84 time=10\n",
      "note_on channel=5 note=48 velocity=0 time=30\n",
      "note_on channel=5 note=60 velocity=84 time=0\n",
      "note_on channel=5 note=60 velocity=0 time=10\n",
      "note_on channel=5 note=60 velocity=84 time=20\n",
      "note_on channel=5 note=60 velocity=0 time=15\n",
      "note_on channel=5 note=48 velocity=84 time=15\n",
      "note_on channel=5 note=48 velocity=0 time=20\n",
      "note_on channel=5 note=60 velocity=84 time=10\n",
      "note_on channel=5 note=60 velocity=0 time=25\n",
      "note_on channel=5 note=48 velocity=84 time=5\n",
      "note_on channel=5 note=48 velocity=0 time=10\n",
      "note_on channel=5 note=48 velocity=84 time=20\n",
      "note_on channel=5 note=48 velocity=0 time=20\n",
      "note_on channel=5 note=60 velocity=84 time=10\n",
      "note_on channel=5 note=60 velocity=0 time=20\n",
      "note_on channel=5 note=48 velocity=84 time=10\n",
      "note_on channel=5 note=48 velocity=0 time=25\n",
      "note_on channel=5 note=60 velocity=84 time=5\n",
      "note_on channel=5 note=60 velocity=0 time=10\n",
      "note_on channel=5 note=60 velocity=84 time=20\n",
      "note_on channel=5 note=60 velocity=0 time=20\n",
      "note_on channel=5 note=48 velocity=84 time=10\n",
      "note_on channel=5 note=48 velocity=0 time=20\n",
      "note_on channel=5 note=60 velocity=84 time=10\n",
      "note_on channel=5 note=60 velocity=0 time=20\n",
      "note_on channel=5 note=48 velocity=84 time=10\n",
      "note_on channel=5 note=48 velocity=0 time=10\n",
      "note_on channel=5 note=48 velocity=84 time=20\n",
      "note_on channel=5 note=48 velocity=0 time=15\n",
      "note_on channel=5 note=60 velocity=84 time=15\n",
      "note_on channel=5 note=60 velocity=0 time=15\n",
      "note_on channel=5 note=48 velocity=84 time=15\n",
      "note_on channel=5 note=48 velocity=0 time=20\n",
      "note_on channel=5 note=60 velocity=84 time=10\n",
      "note_on channel=5 note=60 velocity=0 time=10\n",
      "note_on channel=5 note=60 velocity=84 time=20\n",
      "note_on channel=5 note=60 velocity=0 time=15\n",
      "note_on channel=5 note=48 velocity=84 time=15\n",
      "note_on channel=5 note=48 velocity=0 time=20\n",
      "note_on channel=5 note=60 velocity=84 time=10\n",
      "note_on channel=5 note=60 velocity=0 time=20\n",
      "note_on channel=5 note=48 velocity=84 time=10\n",
      "note_on channel=5 note=48 velocity=0 time=10\n",
      "note_on channel=5 note=48 velocity=84 time=20\n",
      "note_on channel=5 note=48 velocity=0 time=15\n",
      "note_on channel=5 note=60 velocity=84 time=15\n",
      "note_on channel=5 note=60 velocity=0 time=15\n",
      "note_on channel=5 note=48 velocity=84 time=15\n",
      "note_on channel=5 note=48 velocity=0 time=20\n",
      "note_on channel=5 note=60 velocity=84 time=10\n",
      "note_on channel=5 note=60 velocity=0 time=10\n",
      "note_on channel=5 note=60 velocity=84 time=20\n",
      "note_on channel=5 note=60 velocity=0 time=15\n",
      "note_on channel=5 note=48 velocity=84 time=15\n",
      "note_on channel=5 note=48 velocity=0 time=20\n",
      "note_on channel=5 note=60 velocity=84 time=10\n",
      "note_on channel=5 note=60 velocity=0 time=20\n",
      "note_on channel=5 note=48 velocity=84 time=10\n",
      "note_on channel=5 note=48 velocity=0 time=5\n",
      "note_on channel=5 note=48 velocity=84 time=25\n",
      "note_on channel=5 note=48 velocity=0 time=15\n",
      "note_on channel=5 note=55 velocity=84 time=15\n",
      "note_on channel=5 note=55 velocity=94 time=0\n",
      "note_on channel=5 note=55 velocity=0 time=150\n",
      "note_on channel=5 note=55 velocity=0 time=20\n",
      "note_on channel=5 note=53 velocity=84 time=10\n",
      "note_on channel=5 note=53 velocity=94 time=0\n",
      "note_on channel=5 note=53 velocity=0 time=130\n",
      "note_on channel=5 note=53 velocity=0 time=20\n",
      "note_on channel=5 note=51 velocity=84 time=30\n",
      "note_on channel=5 note=51 velocity=94 time=0\n",
      "note_on channel=5 note=51 velocity=0 time=40\n",
      "note_on channel=5 note=51 velocity=0 time=0\n",
      "note_on channel=5 note=53 velocity=84 time=20\n",
      "note_on channel=5 note=53 velocity=94 time=0\n",
      "note_on channel=5 note=53 velocity=0 time=90\n",
      "note_on channel=5 note=53 velocity=0 time=5\n",
      "note_on channel=5 note=51 velocity=94 time=25\n",
      "note_on channel=5 note=48 velocity=94 time=0\n",
      "note_on channel=5 note=48 velocity=0 time=20\n",
      "note_on channel=5 note=51 velocity=0 time=20\n",
      "note_on channel=5 note=36 velocity=94 time=20\n",
      "note_on channel=5 note=48 velocity=94 time=0\n",
      "note_on channel=5 note=48 velocity=0 time=15\n",
      "note_on channel=5 note=36 velocity=0 time=0\n",
      "note_on channel=5 note=36 velocity=94 time=15\n",
      "note_on channel=5 note=48 velocity=94 time=0\n",
      "note_on channel=5 note=48 velocity=0 time=15\n",
      "note_on channel=5 note=36 velocity=0 time=5\n",
      "note_on channel=5 note=48 velocity=94 time=10\n",
      "note_on channel=5 note=36 velocity=94 time=0\n",
      "note_on channel=5 note=36 velocity=0 time=15\n",
      "note_on channel=5 note=48 velocity=0 time=0\n",
      "note_on channel=5 note=36 velocity=94 time=15\n",
      "note_on channel=5 note=48 velocity=94 time=0\n",
      "note_on channel=5 note=48 velocity=0 time=15\n",
      "note_on channel=5 note=36 velocity=0 time=0\n",
      "note_on channel=5 note=36 velocity=94 time=15\n",
      "note_on channel=5 note=48 velocity=94 time=0\n",
      "note_on channel=5 note=48 velocity=0 time=15\n",
      "note_on channel=5 note=36 velocity=0 time=0\n",
      "note_on channel=5 note=36 velocity=94 time=15\n",
      "note_on channel=5 note=48 velocity=94 time=0\n",
      "note_on channel=5 note=48 velocity=0 time=15\n",
      "note_on channel=5 note=36 velocity=0 time=0\n",
      "note_on channel=5 note=36 velocity=94 time=15\n",
      "note_on channel=5 note=48 velocity=94 time=0\n",
      "note_on channel=5 note=48 velocity=0 time=15\n",
      "note_on channel=5 note=36 velocity=0 time=5\n",
      "note_on channel=5 note=36 velocity=94 time=10\n",
      "note_on channel=5 note=48 velocity=94 time=0\n",
      "note_on channel=5 note=48 velocity=0 time=15\n",
      "note_on channel=5 note=36 velocity=0 time=0\n",
      "note_on channel=5 note=36 velocity=94 time=15\n",
      "note_on channel=5 note=48 velocity=94 time=0\n",
      "note_on channel=5 note=48 velocity=0 time=15\n",
      "note_on channel=5 note=36 velocity=0 time=5\n",
      "note_on channel=5 note=36 velocity=94 time=10\n",
      "note_on channel=5 note=48 velocity=94 time=0\n",
      "note_on channel=5 note=48 velocity=0 time=15\n",
      "note_on channel=5 note=36 velocity=0 time=0\n",
      "note_on channel=5 note=48 velocity=94 time=15\n",
      "note_on channel=5 note=36 velocity=94 time=0\n",
      "note_on channel=5 note=48 velocity=0 time=15\n",
      "note_on channel=5 note=36 velocity=0 time=5\n",
      "note_on channel=5 note=36 velocity=94 time=10\n",
      "note_on channel=5 note=48 velocity=94 time=0\n",
      "note_on channel=5 note=48 velocity=0 time=20\n",
      "note_on channel=5 note=36 velocity=0 time=5\n",
      "note_on channel=5 note=55 velocity=84 time=5\n",
      "note_on channel=5 note=55 velocity=94 time=0\n",
      "note_on channel=5 note=55 velocity=0 time=145\n",
      "note_on channel=5 note=55 velocity=0 time=0\n",
      "note_on channel=5 note=53 velocity=84 time=35\n",
      "note_on channel=5 note=53 velocity=94 time=0\n",
      "note_on channel=5 note=53 velocity=0 time=135\n",
      "note_on channel=5 note=53 velocity=0 time=0\n",
      "note_on channel=5 note=51 velocity=84 time=45\n",
      "note_on channel=5 note=51 velocity=94 time=0\n",
      "note_on channel=5 note=51 velocity=0 time=35\n",
      "note_on channel=5 note=51 velocity=0 time=5\n",
      "note_on channel=5 note=53 velocity=84 time=20\n",
      "note_on channel=5 note=53 velocity=94 time=0\n",
      "note_on channel=5 note=53 velocity=0 time=85\n",
      "note_on channel=5 note=53 velocity=0 time=0\n",
      "note_on channel=5 note=51 velocity=94 time=35\n",
      "note_on channel=5 note=48 velocity=94 time=0\n",
      "note_on channel=5 note=48 velocity=0 time=15\n",
      "note_on channel=5 note=51 velocity=0 time=25\n",
      "note_on channel=5 note=36 velocity=94 time=20\n",
      "note_on channel=5 note=48 velocity=94 time=0\n",
      "note_on channel=5 note=48 velocity=0 time=10\n",
      "note_on channel=5 note=36 velocity=0 time=5\n",
      "note_on channel=5 note=36 velocity=94 time=15\n",
      "note_on channel=5 note=48 velocity=94 time=0\n",
      "note_on channel=5 note=48 velocity=0 time=10\n",
      "note_on channel=5 note=36 velocity=0 time=10\n",
      "note_on channel=5 note=36 velocity=94 time=10\n",
      "note_on channel=5 note=48 velocity=94 time=0\n",
      "note_on channel=5 note=48 velocity=0 time=10\n",
      "note_on channel=5 note=36 velocity=0 time=5\n",
      "note_on channel=5 note=36 velocity=94 time=15\n",
      "note_on channel=5 note=48 velocity=94 time=0\n",
      "note_on channel=5 note=48 velocity=0 time=10\n",
      "note_on channel=5 note=36 velocity=0 time=5\n",
      "note_on channel=5 note=36 velocity=94 time=15\n",
      "note_on channel=5 note=48 velocity=94 time=0\n",
      "note_on channel=5 note=48 velocity=0 time=15\n",
      "note_on channel=5 note=36 velocity=0 time=0\n",
      "note_on channel=5 note=36 velocity=94 time=15\n",
      "note_on channel=5 note=48 velocity=94 time=0\n",
      "note_on channel=5 note=48 velocity=0 time=10\n",
      "note_on channel=5 note=36 velocity=0 time=5\n",
      "note_on channel=5 note=36 velocity=94 time=15\n",
      "note_on channel=5 note=48 velocity=94 time=0\n",
      "note_on channel=5 note=48 velocity=0 time=15\n",
      "note_on channel=5 note=36 velocity=0 time=0\n",
      "note_on channel=5 note=36 velocity=94 time=15\n",
      "note_on channel=5 note=48 velocity=94 time=0\n",
      "note_on channel=5 note=48 velocity=0 time=15\n",
      "note_on channel=5 note=36 velocity=0 time=0\n",
      "note_on channel=5 note=36 velocity=94 time=15\n",
      "note_on channel=5 note=48 velocity=94 time=0\n",
      "note_on channel=5 note=48 velocity=0 time=15\n",
      "note_on channel=5 note=36 velocity=0 time=5\n",
      "note_on channel=5 note=48 velocity=94 time=10\n",
      "note_on channel=5 note=36 velocity=94 time=0\n",
      "note_on channel=5 note=36 velocity=0 time=15\n",
      "note_on channel=5 note=48 velocity=0 time=0\n",
      "note_on channel=5 note=36 velocity=94 time=15\n",
      "note_on channel=5 note=48 velocity=94 time=0\n",
      "note_on channel=5 note=48 velocity=0 time=15\n",
      "note_on channel=5 note=36 velocity=0 time=0\n",
      "note_on channel=5 note=48 velocity=94 time=15\n",
      "note_on channel=5 note=36 velocity=94 time=0\n",
      "note_on channel=5 note=48 velocity=0 time=15\n",
      "note_on channel=5 note=36 velocity=0 time=5\n",
      "note_on channel=5 note=60 velocity=84 time=10\n",
      "note_on channel=5 note=60 velocity=0 time=20\n",
      "note_on channel=5 note=48 velocity=84 time=10\n",
      "note_on channel=5 note=48 velocity=0 time=30\n",
      "note_on channel=5 note=60 velocity=84 time=0\n",
      "note_on channel=5 note=60 velocity=0 time=10\n",
      "note_on channel=5 note=60 velocity=84 time=20\n",
      "note_on channel=5 note=60 velocity=0 time=15\n",
      "note_on channel=5 note=48 velocity=84 time=15\n",
      "note_on channel=5 note=48 velocity=0 time=20\n",
      "note_on channel=5 note=60 velocity=84 time=10\n",
      "note_on channel=5 note=60 velocity=0 time=25\n",
      "note_on channel=5 note=48 velocity=84 time=5\n",
      "note_on channel=5 note=48 velocity=0 time=10\n",
      "note_on channel=5 note=48 velocity=84 time=20\n",
      "note_on channel=5 note=48 velocity=0 time=15\n",
      "note_on channel=5 note=60 velocity=84 time=15\n",
      "note_on channel=5 note=60 velocity=0 time=20\n",
      "note_on channel=5 note=48 velocity=84 time=10\n",
      "note_on channel=5 note=48 velocity=0 time=25\n",
      "note_on channel=5 note=60 velocity=84 time=5\n",
      "note_on channel=5 note=60 velocity=0 time=10\n",
      "note_on channel=5 note=60 velocity=84 time=20\n",
      "note_on channel=5 note=60 velocity=0 time=20\n",
      "note_on channel=5 note=48 velocity=84 time=10\n",
      "note_on channel=5 note=48 velocity=0 time=20\n",
      "note_on channel=5 note=60 velocity=84 time=10\n",
      "note_on channel=5 note=60 velocity=0 time=25\n",
      "note_on channel=5 note=48 velocity=84 time=5\n",
      "note_on channel=5 note=48 velocity=0 time=10\n",
      "note_on channel=5 note=48 velocity=84 time=20\n",
      "note_on channel=5 note=48 velocity=0 time=15\n",
      "note_on channel=5 note=60 velocity=84 time=15\n",
      "note_on channel=5 note=60 velocity=0 time=20\n",
      "note_on channel=5 note=48 velocity=84 time=10\n",
      "note_on channel=5 note=48 velocity=0 time=25\n",
      "note_on channel=5 note=60 velocity=84 time=5\n",
      "note_on channel=5 note=60 velocity=0 time=10\n",
      "note_on channel=5 note=60 velocity=84 time=20\n",
      "note_on channel=5 note=60 velocity=0 time=15\n",
      "note_on channel=5 note=48 velocity=84 time=15\n",
      "note_on channel=5 note=48 velocity=0 time=20\n",
      "note_on channel=5 note=60 velocity=84 time=10\n",
      "note_on channel=5 note=60 velocity=0 time=25\n",
      "note_on channel=5 note=48 velocity=84 time=5\n",
      "note_on channel=5 note=48 velocity=0 time=10\n",
      "note_on channel=5 note=48 velocity=84 time=20\n",
      "note_on channel=5 note=48 velocity=0 time=15\n",
      "note_on channel=5 note=60 velocity=84 time=15\n",
      "note_on channel=5 note=60 velocity=0 time=20\n",
      "note_on channel=5 note=48 velocity=84 time=10\n",
      "note_on channel=5 note=48 velocity=0 time=20\n",
      "note_on channel=5 note=60 velocity=84 time=10\n",
      "note_on channel=5 note=60 velocity=0 time=10\n",
      "note_on channel=5 note=60 velocity=84 time=20\n",
      "note_on channel=5 note=60 velocity=0 time=15\n",
      "note_on channel=5 note=48 velocity=84 time=15\n",
      "note_on channel=5 note=48 velocity=0 time=20\n",
      "note_on channel=5 note=60 velocity=84 time=10\n",
      "note_on channel=5 note=60 velocity=0 time=25\n",
      "note_on channel=5 note=48 velocity=84 time=5\n",
      "note_on channel=5 note=48 velocity=0 time=10\n",
      "note_on channel=5 note=48 velocity=84 time=20\n",
      "note_on channel=5 note=48 velocity=0 time=15\n",
      "note_on channel=5 note=60 velocity=84 time=15\n",
      "note_on channel=5 note=60 velocity=0 time=15\n",
      "note_on channel=5 note=48 velocity=84 time=15\n",
      "note_on channel=5 note=48 velocity=0 time=25\n",
      "note_on channel=5 note=60 velocity=84 time=5\n",
      "note_on channel=5 note=60 velocity=0 time=5\n",
      "note_on channel=5 note=60 velocity=84 time=25\n",
      "note_on channel=5 note=60 velocity=0 time=15\n",
      "note_on channel=5 note=48 velocity=84 time=15\n",
      "note_on channel=5 note=48 velocity=0 time=20\n",
      "note_on channel=5 note=60 velocity=84 time=10\n",
      "note_on channel=5 note=60 velocity=0 time=20\n",
      "note_on channel=5 note=48 velocity=84 time=10\n",
      "note_on channel=5 note=48 velocity=0 time=10\n",
      "note_on channel=5 note=48 velocity=84 time=20\n",
      "note_on channel=5 note=48 velocity=0 time=15\n",
      "note_on channel=5 note=60 velocity=84 time=15\n",
      "note_on channel=5 note=60 velocity=0 time=20\n",
      "note_on channel=5 note=48 velocity=84 time=10\n",
      "note_on channel=5 note=48 velocity=0 time=20\n",
      "note_on channel=5 note=60 velocity=84 time=10\n",
      "note_on channel=5 note=60 velocity=0 time=10\n",
      "note_on channel=5 note=60 velocity=84 time=20\n",
      "note_on channel=5 note=60 velocity=0 time=15\n",
      "note_on channel=5 note=48 velocity=84 time=15\n",
      "note_on channel=5 note=48 velocity=0 time=20\n",
      "note_on channel=5 note=60 velocity=84 time=10\n",
      "note_on channel=5 note=60 velocity=0 time=20\n",
      "note_on channel=5 note=48 velocity=84 time=10\n",
      "note_on channel=5 note=48 velocity=0 time=10\n",
      "note_on channel=5 note=48 velocity=84 time=20\n",
      "note_on channel=5 note=48 velocity=0 time=15\n",
      "note_on channel=5 note=60 velocity=84 time=15\n",
      "note_on channel=5 note=60 velocity=0 time=20\n",
      "note_on channel=5 note=48 velocity=84 time=10\n",
      "note_on channel=5 note=48 velocity=0 time=20\n",
      "note_on channel=5 note=60 velocity=84 time=10\n",
      "note_on channel=5 note=60 velocity=0 time=10\n",
      "note_on channel=5 note=60 velocity=84 time=20\n",
      "note_on channel=5 note=60 velocity=0 time=15\n",
      "note_on channel=5 note=48 velocity=84 time=15\n",
      "note_on channel=5 note=48 velocity=0 time=20\n",
      "note_on channel=5 note=60 velocity=84 time=10\n",
      "note_on channel=5 note=60 velocity=0 time=20\n",
      "note_on channel=5 note=48 velocity=84 time=10\n",
      "note_on channel=5 note=48 velocity=0 time=10\n",
      "note_on channel=5 note=48 velocity=84 time=20\n",
      "note_on channel=5 note=48 velocity=0 time=20\n",
      "note_on channel=5 note=60 velocity=84 time=10\n",
      "note_on channel=5 note=60 velocity=0 time=20\n",
      "note_on channel=5 note=48 velocity=84 time=10\n",
      "note_on channel=5 note=48 velocity=0 time=25\n",
      "note_on channel=5 note=60 velocity=84 time=5\n",
      "note_on channel=5 note=60 velocity=0 time=10\n",
      "note_on channel=5 note=60 velocity=84 time=20\n",
      "note_on channel=5 note=60 velocity=0 time=15\n",
      "note_on channel=5 note=48 velocity=84 time=15\n",
      "note_on channel=5 note=48 velocity=0 time=20\n",
      "note_on channel=5 note=60 velocity=84 time=10\n",
      "note_on channel=5 note=60 velocity=0 time=20\n",
      "note_on channel=5 note=48 velocity=84 time=10\n",
      "note_on channel=5 note=48 velocity=0 time=10\n",
      "note_on channel=5 note=48 velocity=84 time=20\n",
      "note_on channel=5 note=48 velocity=0 time=15\n",
      "note_on channel=5 note=60 velocity=84 time=15\n",
      "note_on channel=5 note=60 velocity=0 time=20\n",
      "note_on channel=5 note=48 velocity=84 time=10\n",
      "note_on channel=5 note=48 velocity=0 time=30\n",
      "note_on channel=5 note=60 velocity=84 time=0\n",
      "note_on channel=5 note=60 velocity=0 time=10\n",
      "note_on channel=5 note=60 velocity=84 time=20\n",
      "note_on channel=5 note=60 velocity=0 time=15\n",
      "note_on channel=5 note=48 velocity=84 time=15\n",
      "note_on channel=5 note=48 velocity=0 time=20\n",
      "note_on channel=5 note=60 velocity=84 time=10\n",
      "note_on channel=5 note=60 velocity=0 time=25\n",
      "note_on channel=5 note=48 velocity=84 time=5\n",
      "note_on channel=5 note=48 velocity=0 time=10\n",
      "note_on channel=5 note=48 velocity=84 time=20\n",
      "note_on channel=5 note=48 velocity=0 time=15\n",
      "note_on channel=5 note=60 velocity=84 time=15\n",
      "note_on channel=5 note=60 velocity=0 time=20\n",
      "note_on channel=5 note=48 velocity=84 time=10\n",
      "note_on channel=5 note=48 velocity=0 time=20\n",
      "note_on channel=5 note=60 velocity=84 time=10\n",
      "note_on channel=5 note=60 velocity=0 time=5\n",
      "note_on channel=5 note=60 velocity=84 time=25\n",
      "note_on channel=5 note=60 velocity=0 time=15\n",
      "note_on channel=5 note=48 velocity=84 time=15\n",
      "note_on channel=5 note=48 velocity=0 time=20\n",
      "note_on channel=5 note=60 velocity=84 time=10\n",
      "note_on channel=5 note=60 velocity=0 time=20\n",
      "note_on channel=5 note=48 velocity=84 time=10\n",
      "note_on channel=5 note=48 velocity=0 time=10\n",
      "note_on channel=5 note=48 velocity=84 time=20\n",
      "note_on channel=5 note=48 velocity=0 time=15\n",
      "note_on channel=5 note=60 velocity=84 time=15\n",
      "note_on channel=5 note=60 velocity=0 time=20\n",
      "note_on channel=5 note=48 velocity=84 time=10\n",
      "note_on channel=5 note=48 velocity=0 time=20\n",
      "note_on channel=5 note=60 velocity=84 time=10\n",
      "note_on channel=5 note=60 velocity=0 time=5\n",
      "note_on channel=5 note=60 velocity=84 time=25\n",
      "note_on channel=5 note=60 velocity=0 time=15\n",
      "note_on channel=5 note=48 velocity=84 time=15\n",
      "note_on channel=5 note=48 velocity=0 time=20\n",
      "note_on channel=5 note=60 velocity=84 time=10\n",
      "note_on channel=5 note=60 velocity=0 time=20\n",
      "note_on channel=5 note=48 velocity=84 time=10\n",
      "note_on channel=5 note=48 velocity=0 time=10\n",
      "note_on channel=5 note=48 velocity=84 time=20\n",
      "note_on channel=5 note=48 velocity=0 time=15\n",
      "note_on channel=5 note=60 velocity=84 time=15\n",
      "note_on channel=5 note=60 velocity=0 time=15\n",
      "note_on channel=5 note=48 velocity=84 time=15\n",
      "note_on channel=5 note=48 velocity=0 time=20\n",
      "note_on channel=5 note=60 velocity=84 time=10\n",
      "note_on channel=5 note=60 velocity=0 time=10\n",
      "note_on channel=5 note=60 velocity=84 time=20\n",
      "note_on channel=5 note=60 velocity=0 time=15\n",
      "note_on channel=5 note=48 velocity=84 time=15\n",
      "note_on channel=5 note=48 velocity=0 time=15\n",
      "note_on channel=5 note=60 velocity=84 time=15\n",
      "note_on channel=5 note=60 velocity=0 time=20\n",
      "note_on channel=5 note=48 velocity=84 time=10\n",
      "note_on channel=5 note=48 velocity=0 time=10\n",
      "note_on channel=5 note=48 velocity=84 time=20\n",
      "note_on channel=5 note=48 velocity=0 time=10\n",
      "note_on channel=5 note=60 velocity=84 time=20\n",
      "note_on channel=5 note=60 velocity=0 time=15\n",
      "note_on channel=5 note=48 velocity=84 time=15\n",
      "note_on channel=5 note=48 velocity=0 time=20\n",
      "note_on channel=5 note=60 velocity=84 time=10\n",
      "note_on channel=5 note=60 velocity=0 time=10\n",
      "note_on channel=5 note=60 velocity=84 time=20\n",
      "note_on channel=5 note=60 velocity=0 time=15\n",
      "note_on channel=5 note=48 velocity=84 time=15\n",
      "note_on channel=5 note=48 velocity=0 time=15\n",
      "note_on channel=5 note=60 velocity=84 time=15\n",
      "note_on channel=5 note=60 velocity=0 time=20\n",
      "note_on channel=5 note=48 velocity=84 time=10\n",
      "note_on channel=5 note=48 velocity=0 time=10\n",
      "note_on channel=5 note=48 velocity=84 time=20\n",
      "note_on channel=5 note=48 velocity=0 time=15\n",
      "note_on channel=5 note=60 velocity=84 time=15\n",
      "note_on channel=5 note=60 velocity=0 time=15\n",
      "note_on channel=5 note=48 velocity=84 time=15\n",
      "note_on channel=5 note=48 velocity=0 time=20\n",
      "note_on channel=5 note=60 velocity=84 time=10\n",
      "note_on channel=5 note=60 velocity=0 time=5\n",
      "note_on channel=5 note=60 velocity=84 time=25\n",
      "note_on channel=5 note=60 velocity=0 time=15\n",
      "note_on channel=5 note=48 velocity=84 time=15\n",
      "note_on channel=5 note=48 velocity=0 time=20\n",
      "note_on channel=5 note=60 velocity=84 time=10\n",
      "note_on channel=5 note=60 velocity=0 time=20\n",
      "note_on channel=5 note=48 velocity=84 time=10\n",
      "note_on channel=5 note=48 velocity=0 time=10\n",
      "note_on channel=5 note=48 velocity=84 time=20\n",
      "note_on channel=5 note=48 velocity=0 time=15\n",
      "note_on channel=5 note=60 velocity=84 time=15\n",
      "note_on channel=5 note=60 velocity=0 time=15\n",
      "note_on channel=5 note=48 velocity=84 time=15\n",
      "note_on channel=5 note=48 velocity=0 time=20\n",
      "note_on channel=5 note=60 velocity=84 time=10\n",
      "note_on channel=5 note=60 velocity=0 time=10\n",
      "note_on channel=5 note=60 velocity=84 time=20\n",
      "note_on channel=5 note=60 velocity=0 time=15\n",
      "note_on channel=5 note=48 velocity=84 time=15\n",
      "note_on channel=5 note=48 velocity=0 time=20\n",
      "note_on channel=5 note=60 velocity=84 time=10\n",
      "note_on channel=5 note=60 velocity=0 time=20\n",
      "note_on channel=5 note=48 velocity=84 time=10\n",
      "note_on channel=5 note=48 velocity=0 time=10\n",
      "note_on channel=5 note=48 velocity=84 time=20\n",
      "note_on channel=5 note=48 velocity=0 time=15\n",
      "note_on channel=5 note=60 velocity=84 time=15\n",
      "note_on channel=5 note=60 velocity=0 time=15\n",
      "note_on channel=5 note=48 velocity=84 time=15\n",
      "note_on channel=5 note=48 velocity=0 time=20\n",
      "note_on channel=5 note=60 velocity=84 time=10\n",
      "note_on channel=5 note=60 velocity=0 time=5\n",
      "note_on channel=5 note=60 velocity=84 time=25\n",
      "note_on channel=5 note=60 velocity=0 time=15\n",
      "note_on channel=5 note=48 velocity=84 time=15\n",
      "note_on channel=5 note=48 velocity=0 time=15\n",
      "note_on channel=5 note=60 velocity=84 time=15\n",
      "note_on channel=5 note=60 velocity=0 time=15\n",
      "note_on channel=5 note=48 velocity=84 time=15\n",
      "note_on channel=5 note=48 velocity=0 time=10\n",
      "note_on channel=5 note=48 velocity=84 time=20\n",
      "note_on channel=5 note=48 velocity=0 time=15\n",
      "note_on channel=5 note=60 velocity=84 time=15\n",
      "note_on channel=5 note=60 velocity=0 time=10\n",
      "note_on channel=5 note=48 velocity=84 time=20\n",
      "note_on channel=5 note=48 velocity=0 time=15\n",
      "note_on channel=5 note=60 velocity=84 time=15\n",
      "note_on channel=5 note=60 velocity=0 time=5\n",
      "note_on channel=5 note=60 velocity=84 time=25\n",
      "note_on channel=5 note=60 velocity=0 time=15\n",
      "note_on channel=5 note=48 velocity=84 time=15\n",
      "note_on channel=5 note=48 velocity=0 time=15\n",
      "note_on channel=5 note=60 velocity=84 time=15\n",
      "note_on channel=5 note=60 velocity=0 time=15\n",
      "note_on channel=5 note=48 velocity=84 time=15\n",
      "note_on channel=5 note=48 velocity=0 time=10\n",
      "note_on channel=5 note=48 velocity=84 time=20\n",
      "note_on channel=5 note=48 velocity=0 time=15\n",
      "note_on channel=5 note=60 velocity=84 time=15\n",
      "note_on channel=5 note=60 velocity=0 time=15\n",
      "note_on channel=5 note=48 velocity=84 time=15\n",
      "note_on channel=5 note=48 velocity=0 time=20\n",
      "note_on channel=5 note=60 velocity=84 time=10\n",
      "note_on channel=5 note=60 velocity=0 time=10\n",
      "note_on channel=5 note=60 velocity=84 time=20\n",
      "note_on channel=5 note=60 velocity=0 time=15\n",
      "note_on channel=5 note=48 velocity=84 time=15\n",
      "note_on channel=5 note=48 velocity=0 time=20\n",
      "note_on channel=5 note=60 velocity=84 time=10\n",
      "note_on channel=5 note=60 velocity=0 time=20\n",
      "note_on channel=5 note=48 velocity=84 time=10\n",
      "note_on channel=5 note=48 velocity=0 time=10\n",
      "note_on channel=5 note=48 velocity=84 time=20\n",
      "note_on channel=5 note=48 velocity=0 time=10\n",
      "note_on channel=5 note=60 velocity=84 time=20\n",
      "note_on channel=5 note=60 velocity=0 time=15\n",
      "note_on channel=5 note=48 velocity=84 time=15\n",
      "note_on channel=5 note=48 velocity=0 time=20\n",
      "note_on channel=5 note=60 velocity=84 time=10\n",
      "note_on channel=5 note=60 velocity=0 time=10\n",
      "note_on channel=5 note=60 velocity=84 time=20\n",
      "note_on channel=5 note=60 velocity=0 time=15\n",
      "note_on channel=5 note=48 velocity=84 time=15\n",
      "note_on channel=5 note=48 velocity=0 time=20\n",
      "note_on channel=5 note=60 velocity=84 time=10\n",
      "note_on channel=5 note=60 velocity=0 time=20\n",
      "note_on channel=5 note=48 velocity=84 time=10\n",
      "note_on channel=5 note=48 velocity=0 time=10\n",
      "note_on channel=5 note=48 velocity=84 time=20\n",
      "note_on channel=5 note=48 velocity=0 time=15\n",
      "note_on channel=5 note=60 velocity=84 time=15\n",
      "note_on channel=5 note=60 velocity=0 time=15\n",
      "note_on channel=5 note=48 velocity=84 time=15\n",
      "note_on channel=5 note=48 velocity=0 time=20\n",
      "note_on channel=5 note=60 velocity=84 time=10\n",
      "note_on channel=5 note=60 velocity=0 time=10\n",
      "note_on channel=5 note=60 velocity=84 time=20\n",
      "note_on channel=5 note=60 velocity=0 time=15\n",
      "note_on channel=5 note=48 velocity=84 time=15\n",
      "note_on channel=5 note=48 velocity=0 time=20\n",
      "note_on channel=5 note=60 velocity=84 time=10\n",
      "note_on channel=5 note=60 velocity=0 time=20\n",
      "note_on channel=5 note=48 velocity=84 time=10\n",
      "note_on channel=5 note=48 velocity=0 time=10\n",
      "note_on channel=5 note=48 velocity=84 time=20\n",
      "note_on channel=5 note=48 velocity=0 time=15\n",
      "note_on channel=5 note=60 velocity=84 time=15\n",
      "note_on channel=5 note=60 velocity=0 time=15\n",
      "note_on channel=5 note=48 velocity=84 time=15\n",
      "note_on channel=5 note=48 velocity=0 time=20\n",
      "note_on channel=5 note=60 velocity=84 time=10\n",
      "note_on channel=5 note=60 velocity=0 time=10\n",
      "note_on channel=5 note=60 velocity=84 time=20\n",
      "note_on channel=5 note=60 velocity=0 time=15\n",
      "note_on channel=5 note=48 velocity=84 time=15\n",
      "note_on channel=5 note=48 velocity=0 time=20\n",
      "note_on channel=5 note=60 velocity=84 time=10\n",
      "note_on channel=5 note=60 velocity=0 time=20\n",
      "note_on channel=5 note=48 velocity=84 time=10\n",
      "note_on channel=5 note=48 velocity=0 time=10\n",
      "note_on channel=5 note=48 velocity=84 time=20\n",
      "note_on channel=5 note=48 velocity=0 time=15\n",
      "note_on channel=5 note=60 velocity=84 time=15\n",
      "note_on channel=5 note=60 velocity=0 time=15\n",
      "note_on channel=5 note=48 velocity=84 time=15\n",
      "note_on channel=5 note=48 velocity=0 time=20\n",
      "note_on channel=5 note=60 velocity=84 time=10\n",
      "note_on channel=5 note=60 velocity=0 time=10\n",
      "note_on channel=5 note=60 velocity=84 time=20\n",
      "note_on channel=5 note=60 velocity=0 time=15\n",
      "note_on channel=5 note=48 velocity=84 time=15\n",
      "note_on channel=5 note=48 velocity=0 time=15\n",
      "note_on channel=5 note=60 velocity=84 time=15\n",
      "note_on channel=5 note=60 velocity=0 time=20\n",
      "note_on channel=5 note=48 velocity=84 time=10\n",
      "note_on channel=5 note=48 velocity=0 time=10\n",
      "note_on channel=5 note=48 velocity=84 time=20\n",
      "note_on channel=5 note=48 velocity=0 time=15\n",
      "note_on channel=5 note=60 velocity=84 time=15\n",
      "note_on channel=5 note=60 velocity=0 time=15\n",
      "note_on channel=5 note=48 velocity=84 time=15\n",
      "note_on channel=5 note=48 velocity=0 time=20\n",
      "note_on channel=5 note=60 velocity=84 time=10\n",
      "note_on channel=5 note=60 velocity=0 time=10\n",
      "note_on channel=5 note=60 velocity=84 time=20\n",
      "note_on channel=5 note=60 velocity=0 time=15\n",
      "note_on channel=5 note=48 velocity=84 time=15\n",
      "note_on channel=5 note=48 velocity=0 time=20\n",
      "note_on channel=5 note=60 velocity=84 time=10\n",
      "note_on channel=5 note=60 velocity=0 time=20\n",
      "note_on channel=5 note=48 velocity=84 time=10\n",
      "note_on channel=5 note=48 velocity=0 time=10\n",
      "note_on channel=5 note=48 velocity=84 time=20\n",
      "note_on channel=5 note=48 velocity=0 time=15\n",
      "note_on channel=5 note=60 velocity=84 time=15\n",
      "note_on channel=5 note=60 velocity=0 time=15\n",
      "note_on channel=5 note=48 velocity=84 time=15\n",
      "note_on channel=5 note=48 velocity=0 time=20\n",
      "note_on channel=5 note=60 velocity=84 time=10\n",
      "note_on channel=5 note=60 velocity=0 time=10\n",
      "note_on channel=5 note=60 velocity=84 time=20\n",
      "note_on channel=5 note=60 velocity=0 time=15\n",
      "note_on channel=5 note=48 velocity=84 time=15\n",
      "note_on channel=5 note=48 velocity=0 time=15\n",
      "note_on channel=5 note=60 velocity=84 time=15\n",
      "note_on channel=5 note=60 velocity=0 time=20\n",
      "note_on channel=5 note=48 velocity=84 time=10\n",
      "note_on channel=5 note=48 velocity=0 time=10\n",
      "note_on channel=5 note=48 velocity=84 time=20\n",
      "note_on channel=5 note=48 velocity=0 time=15\n",
      "note_on channel=5 note=60 velocity=84 time=15\n",
      "note_on channel=5 note=60 velocity=0 time=20\n",
      "note_on channel=5 note=48 velocity=84 time=10\n",
      "note_on channel=5 note=48 velocity=0 time=20\n",
      "note_on channel=5 note=60 velocity=84 time=10\n",
      "note_on channel=5 note=60 velocity=0 time=10\n",
      "note_on channel=5 note=60 velocity=84 time=20\n",
      "note_on channel=5 note=60 velocity=0 time=15\n",
      "note_on channel=5 note=48 velocity=84 time=15\n",
      "note_on channel=5 note=48 velocity=0 time=20\n",
      "note_on channel=5 note=60 velocity=84 time=10\n",
      "note_on channel=5 note=60 velocity=0 time=20\n",
      "note_on channel=5 note=48 velocity=84 time=10\n",
      "note_on channel=5 note=48 velocity=0 time=10\n",
      "note_on channel=5 note=48 velocity=84 time=20\n",
      "note_on channel=5 note=48 velocity=0 time=15\n",
      "note_on channel=5 note=60 velocity=84 time=15\n",
      "note_on channel=5 note=60 velocity=0 time=15\n",
      "note_on channel=5 note=48 velocity=84 time=15\n",
      "note_on channel=5 note=48 velocity=0 time=20\n",
      "note_on channel=5 note=60 velocity=84 time=10\n",
      "note_on channel=5 note=60 velocity=0 time=10\n",
      "note_on channel=5 note=60 velocity=84 time=20\n",
      "note_on channel=5 note=60 velocity=0 time=15\n",
      "note_on channel=5 note=48 velocity=84 time=15\n",
      "note_on channel=5 note=48 velocity=0 time=15\n",
      "note_on channel=5 note=60 velocity=84 time=15\n",
      "note_on channel=5 note=60 velocity=0 time=20\n",
      "note_on channel=5 note=48 velocity=84 time=10\n",
      "note_on channel=5 note=48 velocity=0 time=10\n",
      "note_on channel=5 note=48 velocity=84 time=20\n",
      "note_on channel=5 note=48 velocity=0 time=15\n",
      "note_on channel=5 note=60 velocity=84 time=15\n",
      "note_on channel=5 note=60 velocity=0 time=15\n",
      "note_on channel=5 note=48 velocity=84 time=15\n",
      "note_on channel=5 note=48 velocity=0 time=20\n",
      "note_on channel=5 note=60 velocity=84 time=10\n",
      "note_on channel=5 note=60 velocity=0 time=10\n",
      "note_on channel=5 note=60 velocity=84 time=20\n",
      "note_on channel=5 note=60 velocity=0 time=15\n",
      "note_on channel=5 note=48 velocity=84 time=15\n",
      "note_on channel=5 note=48 velocity=0 time=20\n",
      "note_on channel=5 note=60 velocity=84 time=10\n",
      "note_on channel=5 note=60 velocity=0 time=15\n",
      "note_on channel=5 note=48 velocity=84 time=15\n",
      "note_on channel=5 note=48 velocity=0 time=10\n",
      "note_on channel=5 note=48 velocity=84 time=20\n",
      "note_on channel=5 note=48 velocity=0 time=15\n",
      "note_on channel=5 note=60 velocity=84 time=15\n",
      "note_on channel=5 note=60 velocity=0 time=15\n",
      "note_on channel=5 note=48 velocity=84 time=15\n",
      "note_on channel=5 note=48 velocity=0 time=20\n",
      "note_on channel=5 note=60 velocity=84 time=10\n",
      "note_on channel=5 note=60 velocity=0 time=10\n",
      "note_on channel=5 note=60 velocity=84 time=20\n",
      "note_on channel=5 note=60 velocity=0 time=15\n",
      "note_on channel=5 note=48 velocity=84 time=15\n",
      "note_on channel=5 note=48 velocity=0 time=20\n",
      "note_on channel=5 note=60 velocity=84 time=10\n",
      "note_on channel=5 note=60 velocity=0 time=15\n",
      "note_on channel=5 note=48 velocity=84 time=15\n",
      "note_on channel=5 note=48 velocity=0 time=10\n",
      "note_on channel=5 note=48 velocity=84 time=20\n",
      "note_on channel=5 note=48 velocity=0 time=15\n",
      "note_on channel=5 note=60 velocity=84 time=15\n",
      "note_on channel=5 note=60 velocity=0 time=15\n",
      "note_on channel=5 note=48 velocity=84 time=15\n",
      "note_on channel=5 note=48 velocity=0 time=20\n",
      "note_on channel=5 note=60 velocity=84 time=10\n",
      "note_on channel=5 note=60 velocity=0 time=10\n",
      "note_on channel=5 note=60 velocity=84 time=20\n",
      "note_on channel=5 note=60 velocity=0 time=15\n",
      "note_on channel=5 note=48 velocity=84 time=15\n",
      "note_on channel=5 note=48 velocity=0 time=20\n",
      "note_on channel=5 note=60 velocity=84 time=10\n",
      "note_on channel=5 note=60 velocity=0 time=20\n",
      "note_on channel=5 note=48 velocity=84 time=10\n",
      "note_on channel=5 note=48 velocity=0 time=10\n",
      "note_on channel=5 note=48 velocity=84 time=20\n",
      "note_on channel=5 note=48 velocity=0 time=15\n",
      "note_on channel=5 note=60 velocity=84 time=15\n",
      "note_on channel=5 note=60 velocity=0 time=15\n",
      "note_on channel=5 note=48 velocity=84 time=15\n",
      "note_on channel=5 note=48 velocity=0 time=15\n",
      "note_on channel=5 note=60 velocity=84 time=15\n",
      "note_on channel=5 note=60 velocity=0 time=10\n",
      "note_on channel=5 note=60 velocity=84 time=20\n",
      "note_on channel=5 note=60 velocity=0 time=15\n",
      "note_on channel=5 note=48 velocity=84 time=15\n",
      "note_on channel=5 note=48 velocity=0 time=15\n",
      "note_on channel=5 note=60 velocity=84 time=15\n",
      "note_on channel=5 note=60 velocity=0 time=20\n",
      "note_on channel=5 note=48 velocity=84 time=10\n",
      "note_on channel=5 note=48 velocity=0 time=5\n",
      "note_on channel=5 note=48 velocity=84 time=25\n",
      "note_on channel=5 note=48 velocity=0 time=15\n",
      "note_on channel=5 note=60 velocity=84 time=15\n",
      "note_on channel=5 note=60 velocity=0 time=15\n",
      "note_on channel=5 note=48 velocity=84 time=15\n",
      "note_on channel=5 note=48 velocity=0 time=20\n",
      "note_on channel=5 note=60 velocity=84 time=10\n",
      "note_on channel=5 note=60 velocity=0 time=5\n",
      "note_on channel=5 note=60 velocity=84 time=25\n",
      "note_on channel=5 note=60 velocity=0 time=15\n",
      "note_on channel=5 note=48 velocity=84 time=15\n",
      "note_on channel=5 note=48 velocity=0 time=20\n",
      "note_on channel=5 note=60 velocity=84 time=10\n",
      "note_on channel=5 note=60 velocity=0 time=15\n",
      "note_on channel=5 note=48 velocity=84 time=15\n",
      "note_on channel=5 note=48 velocity=0 time=10\n",
      "note_on channel=5 note=48 velocity=84 time=20\n",
      "note_on channel=5 note=48 velocity=0 time=20\n",
      "note_on channel=5 note=60 velocity=84 time=10\n",
      "note_on channel=5 note=60 velocity=0 time=15\n",
      "note_on channel=5 note=48 velocity=84 time=15\n",
      "note_on channel=5 note=48 velocity=0 time=20\n",
      "note_on channel=5 note=60 velocity=84 time=10\n",
      "note_on channel=5 note=60 velocity=0 time=10\n",
      "note_on channel=5 note=60 velocity=84 time=20\n",
      "note_on channel=5 note=60 velocity=0 time=15\n",
      "note_on channel=5 note=48 velocity=84 time=15\n",
      "note_on channel=5 note=48 velocity=0 time=20\n",
      "note_on channel=5 note=60 velocity=84 time=10\n",
      "note_on channel=5 note=60 velocity=0 time=20\n",
      "note_on channel=5 note=48 velocity=84 time=10\n",
      "note_on channel=5 note=48 velocity=0 time=15\n",
      "note_on channel=5 note=48 velocity=84 time=15\n",
      "note_on channel=5 note=48 velocity=0 time=15\n",
      "note_on channel=5 note=55 velocity=84 time=15\n",
      "note_on channel=5 note=55 velocity=94 time=0\n",
      "note_on channel=5 note=55 velocity=0 time=165\n",
      "note_on channel=5 note=55 velocity=0 time=5\n",
      "note_on channel=5 note=53 velocity=84 time=10\n",
      "note_on channel=5 note=53 velocity=94 time=0\n",
      "note_on channel=5 note=53 velocity=0 time=140\n",
      "note_on channel=5 note=53 velocity=0 time=10\n",
      "note_on channel=5 note=51 velocity=84 time=30\n",
      "note_on channel=5 note=51 velocity=94 time=0\n",
      "note_on channel=5 note=51 velocity=0 time=40\n",
      "note_on channel=5 note=51 velocity=0 time=5\n",
      "note_on channel=5 note=53 velocity=84 time=15\n",
      "note_on channel=5 note=53 velocity=94 time=0\n",
      "note_on channel=5 note=53 velocity=0 time=90\n",
      "note_on channel=5 note=53 velocity=0 time=5\n",
      "note_on channel=5 note=51 velocity=94 time=25\n",
      "note_on channel=5 note=51 velocity=0 time=15\n",
      "note_on channel=5 note=48 velocity=94 time=45\n",
      "note_on channel=5 note=36 velocity=94 time=0\n",
      "note_on channel=5 note=48 velocity=0 time=10\n",
      "note_on channel=5 note=36 velocity=0 time=5\n",
      "note_on channel=5 note=36 velocity=94 time=15\n",
      "note_on channel=5 note=48 velocity=94 time=0\n",
      "note_on channel=5 note=48 velocity=0 time=15\n",
      "note_on channel=5 note=36 velocity=0 time=0\n",
      "note_on channel=5 note=48 velocity=94 time=15\n",
      "note_on channel=5 note=36 velocity=94 time=0\n",
      "note_on channel=5 note=36 velocity=0 time=15\n",
      "note_on channel=5 note=48 velocity=0 time=0\n",
      "note_on channel=5 note=48 velocity=94 time=15\n",
      "note_on channel=5 note=36 velocity=94 time=0\n",
      "note_on channel=5 note=36 velocity=0 time=15\n",
      "note_on channel=5 note=48 velocity=0 time=0\n",
      "note_on channel=5 note=48 velocity=94 time=15\n",
      "note_on channel=5 note=36 velocity=94 time=0\n",
      "note_on channel=5 note=48 velocity=0 time=15\n",
      "note_on channel=5 note=36 velocity=0 time=5\n",
      "note_on channel=5 note=48 velocity=94 time=10\n",
      "note_on channel=5 note=36 velocity=94 time=0\n",
      "note_on channel=5 note=36 velocity=0 time=15\n",
      "note_on channel=5 note=48 velocity=0 time=0\n",
      "note_on channel=5 note=36 velocity=94 time=15\n",
      "note_on channel=5 note=48 velocity=94 time=0\n",
      "note_on channel=5 note=48 velocity=0 time=15\n",
      "note_on channel=5 note=36 velocity=0 time=5\n",
      "note_on channel=5 note=48 velocity=94 time=10\n",
      "note_on channel=5 note=36 velocity=94 time=0\n",
      "note_on channel=5 note=36 velocity=0 time=15\n",
      "note_on channel=5 note=48 velocity=0 time=0\n",
      "note_on channel=5 note=36 velocity=94 time=15\n",
      "note_on channel=5 note=48 velocity=94 time=0\n",
      "note_on channel=5 note=48 velocity=0 time=15\n",
      "note_on channel=5 note=36 velocity=0 time=5\n",
      "note_on channel=5 note=48 velocity=94 time=10\n",
      "note_on channel=5 note=36 velocity=94 time=0\n",
      "note_on channel=5 note=36 velocity=0 time=15\n",
      "note_on channel=5 note=48 velocity=0 time=0\n",
      "note_on channel=5 note=36 velocity=94 time=15\n",
      "note_on channel=5 note=48 velocity=94 time=0\n",
      "note_on channel=5 note=48 velocity=0 time=15\n",
      "note_on channel=5 note=36 velocity=0 time=5\n",
      "note_on channel=5 note=36 velocity=94 time=10\n",
      "note_on channel=5 note=48 velocity=94 time=0\n",
      "note_on channel=5 note=48 velocity=0 time=15\n",
      "note_on channel=5 note=43 velocity=94 time=15\n",
      "note_on channel=5 note=55 velocity=94 time=0\n",
      "note_on channel=5 note=36 velocity=0 time=5\n",
      "note_on channel=5 note=55 velocity=0 time=145\n",
      "note_on channel=5 note=43 velocity=0 time=15\n",
      "note_on channel=5 note=53 velocity=84 time=15\n",
      "note_on channel=5 note=53 velocity=94 time=0\n",
      "note_on channel=5 note=41 velocity=94 time=0\n",
      "note_on channel=5 note=53 velocity=0 time=140\n",
      "note_on channel=5 note=53 velocity=0 time=0\n",
      "note_on channel=5 note=41 velocity=0 time=5\n",
      "note_on channel=5 note=51 velocity=84 time=35\n",
      "note_on channel=5 note=39 velocity=94 time=0\n",
      "note_on channel=5 note=51 velocity=94 time=0\n",
      "note_on channel=5 note=51 velocity=0 time=30\n",
      "note_on channel=5 note=39 velocity=0 time=10\n",
      "note_on channel=5 note=51 velocity=0 time=0\n",
      "note_on channel=5 note=53 velocity=84 time=20\n",
      "note_on channel=5 note=53 velocity=94 time=0\n",
      "note_on channel=5 note=41 velocity=94 time=0\n",
      "note_on channel=5 note=41 velocity=0 time=80\n",
      "note_on channel=5 note=53 velocity=0 time=0\n",
      "note_on channel=5 note=53 velocity=0 time=10\n",
      "note_on channel=5 note=48 velocity=84 time=30\n",
      "note_on channel=5 note=51 velocity=94 time=0\n",
      "note_on channel=5 note=36 velocity=94 time=0\n",
      "note_on channel=5 note=51 velocity=0 time=15\n",
      "note_on channel=5 note=36 velocity=0 time=5\n",
      "note_on channel=5 note=48 velocity=0 time=10\n",
      "note_on channel=5 note=48 velocity=84 time=30\n",
      "note_on channel=5 note=48 velocity=94 time=0\n",
      "note_on channel=5 note=36 velocity=94 time=0\n",
      "note_on channel=5 note=36 velocity=0 time=15\n",
      "note_on channel=5 note=48 velocity=0 time=0\n",
      "note_on channel=5 note=48 velocity=94 time=15\n",
      "note_on channel=5 note=36 velocity=94 time=0\n",
      "note_on channel=5 note=48 velocity=0 time=15\n",
      "note_on channel=5 note=36 velocity=0 time=5\n",
      "note_on channel=5 note=36 velocity=94 time=10\n",
      "note_on channel=5 note=48 velocity=94 time=0\n",
      "note_on channel=5 note=48 velocity=0 time=15\n",
      "note_on channel=5 note=36 velocity=0 time=0\n",
      "note_on channel=5 note=48 velocity=94 time=15\n",
      "note_on channel=5 note=36 velocity=94 time=0\n",
      "note_on channel=5 note=48 velocity=0 time=10\n",
      "note_on channel=5 note=36 velocity=0 time=5\n",
      "note_on channel=5 note=36 velocity=94 time=15\n",
      "note_on channel=5 note=48 velocity=94 time=0\n",
      "note_on channel=5 note=48 velocity=0 time=15\n",
      "note_on channel=5 note=36 velocity=0 time=0\n",
      "note_on channel=5 note=48 velocity=94 time=15\n",
      "note_on channel=5 note=36 velocity=94 time=0\n",
      "note_on channel=5 note=36 velocity=0 time=15\n",
      "note_on channel=5 note=48 velocity=0 time=0\n",
      "note_on channel=5 note=36 velocity=94 time=15\n",
      "note_on channel=5 note=48 velocity=94 time=0\n",
      "note_on channel=5 note=48 velocity=0 time=10\n",
      "note_on channel=5 note=36 velocity=0 time=10\n",
      "note_on channel=5 note=48 velocity=94 time=10\n",
      "note_on channel=5 note=36 velocity=94 time=0\n",
      "note_on channel=5 note=36 velocity=0 time=15\n",
      "note_on channel=5 note=48 velocity=0 time=0\n",
      "note_on channel=5 note=48 velocity=94 time=15\n",
      "note_on channel=5 note=36 velocity=94 time=0\n",
      "note_on channel=5 note=48 velocity=0 time=15\n",
      "note_on channel=5 note=36 velocity=0 time=5\n",
      "note_on channel=5 note=48 velocity=94 time=10\n",
      "note_on channel=5 note=36 velocity=94 time=0\n",
      "note_on channel=5 note=36 velocity=0 time=15\n",
      "note_on channel=5 note=48 velocity=0 time=0\n",
      "note_on channel=5 note=48 velocity=94 time=15\n",
      "note_on channel=5 note=36 velocity=94 time=0\n",
      "note_on channel=5 note=36 velocity=0 time=20\n",
      "note_on channel=5 note=48 velocity=0 time=0\n",
      "note_on channel=5 note=48 velocity=0 time=5\n",
      "note_on channel=5 note=48 velocity=94 time=5\n",
      "note_on channel=5 note=36 velocity=94 time=0\n",
      "note_on channel=5 note=48 velocity=0 time=10\n",
      "note_on channel=5 note=36 velocity=0 time=5\n",
      "note_on channel=5 note=62 velocity=84 time=15\n",
      "note_on channel=5 note=62 velocity=0 time=25\n",
      "note_on channel=5 note=50 velocity=84 time=5\n",
      "note_on channel=5 note=50 velocity=0 time=30\n",
      "note_on channel=5 note=62 velocity=84 time=0\n",
      "note_on channel=5 note=62 velocity=0 time=10\n",
      "note_on channel=5 note=62 velocity=84 time=20\n",
      "note_on channel=5 note=62 velocity=0 time=20\n",
      "note_on channel=5 note=50 velocity=84 time=10\n",
      "note_on channel=5 note=50 velocity=0 time=20\n",
      "note_on channel=5 note=62 velocity=84 time=10\n",
      "note_on channel=5 note=62 velocity=0 time=30\n",
      "note_on channel=5 note=50 velocity=84 time=0\n",
      "note_on channel=5 note=50 velocity=0 time=10\n",
      "note_on channel=5 note=50 velocity=84 time=20\n",
      "note_on channel=5 note=50 velocity=0 time=20\n",
      "note_on channel=5 note=62 velocity=84 time=10\n",
      "note_on channel=5 note=62 velocity=0 time=25\n",
      "note_on channel=5 note=50 velocity=84 time=5\n",
      "note_on channel=5 note=50 velocity=0 time=25\n",
      "note_on channel=5 note=62 velocity=84 time=5\n",
      "note_on channel=5 note=62 velocity=0 time=10\n",
      "note_on channel=5 note=62 velocity=84 time=20\n",
      "note_on channel=5 note=62 velocity=0 time=20\n",
      "note_on channel=5 note=50 velocity=84 time=10\n",
      "note_on channel=5 note=50 velocity=0 time=20\n",
      "note_on channel=5 note=62 velocity=84 time=10\n",
      "note_on channel=5 note=62 velocity=0 time=30\n",
      "note_on channel=5 note=50 velocity=84 time=0\n",
      "note_on channel=5 note=50 velocity=0 time=10\n",
      "note_on channel=5 note=50 velocity=84 time=20\n",
      "note_on channel=5 note=50 velocity=0 time=15\n",
      "note_on channel=5 note=62 velocity=84 time=15\n",
      "note_on channel=5 note=62 velocity=0 time=20\n",
      "note_on channel=5 note=50 velocity=84 time=10\n",
      "note_on channel=5 note=50 velocity=0 time=20\n",
      "note_on channel=5 note=62 velocity=84 time=10\n",
      "note_on channel=5 note=62 velocity=0 time=10\n",
      "note_on channel=5 note=62 velocity=84 time=20\n",
      "note_on channel=5 note=62 velocity=0 time=20\n",
      "note_on channel=5 note=50 velocity=84 time=10\n",
      "note_on channel=5 note=50 velocity=0 time=20\n",
      "note_on channel=5 note=62 velocity=84 time=10\n",
      "note_on channel=5 note=62 velocity=0 time=30\n",
      "note_on channel=5 note=50 velocity=84 time=0\n",
      "note_on channel=5 note=50 velocity=0 time=10\n",
      "note_on channel=5 note=50 velocity=84 time=20\n",
      "note_on channel=5 note=50 velocity=0 time=15\n",
      "note_on channel=5 note=62 velocity=84 time=15\n",
      "note_on channel=5 note=62 velocity=0 time=20\n",
      "note_on channel=5 note=50 velocity=84 time=10\n",
      "note_on channel=5 note=50 velocity=0 time=20\n",
      "note_on channel=5 note=62 velocity=84 time=10\n",
      "note_on channel=5 note=62 velocity=0 time=10\n",
      "note_on channel=5 note=62 velocity=84 time=20\n",
      "note_on channel=5 note=62 velocity=0 time=15\n",
      "note_on channel=5 note=50 velocity=84 time=15\n",
      "note_on channel=5 note=50 velocity=0 time=20\n",
      "note_on channel=5 note=62 velocity=84 time=10\n",
      "note_on channel=5 note=62 velocity=0 time=25\n",
      "note_on channel=5 note=50 velocity=84 time=5\n",
      "note_on channel=5 note=50 velocity=0 time=5\n",
      "note_on channel=5 note=50 velocity=84 time=25\n",
      "note_on channel=5 note=50 velocity=0 time=15\n",
      "note_on channel=5 note=62 velocity=84 time=15\n",
      "note_on channel=5 note=62 velocity=0 time=20\n",
      "note_on channel=5 note=50 velocity=84 time=10\n",
      "note_on channel=5 note=50 velocity=0 time=20\n",
      "note_on channel=5 note=62 velocity=84 time=10\n",
      "note_on channel=5 note=62 velocity=0 time=10\n",
      "note_on channel=5 note=62 velocity=84 time=20\n",
      "note_on channel=5 note=62 velocity=0 time=15\n",
      "note_on channel=5 note=50 velocity=84 time=15\n",
      "note_on channel=5 note=50 velocity=0 time=15\n",
      "note_on channel=5 note=62 velocity=84 time=15\n",
      "note_on channel=5 note=62 velocity=0 time=25\n",
      "note_on channel=5 note=50 velocity=84 time=5\n",
      "note_on channel=5 note=50 velocity=0 time=10\n",
      "note_on channel=5 note=50 velocity=84 time=20\n",
      "note_on channel=5 note=50 velocity=0 time=15\n",
      "note_on channel=5 note=62 velocity=84 time=15\n",
      "note_on channel=5 note=62 velocity=0 time=20\n",
      "note_on channel=5 note=50 velocity=84 time=10\n",
      "note_on channel=5 note=50 velocity=0 time=20\n",
      "note_on channel=5 note=62 velocity=84 time=10\n",
      "note_on channel=5 note=62 velocity=0 time=10\n",
      "note_on channel=5 note=62 velocity=84 time=20\n",
      "note_on channel=5 note=62 velocity=0 time=15\n",
      "note_on channel=5 note=50 velocity=84 time=15\n",
      "note_on channel=5 note=50 velocity=0 time=20\n",
      "note_on channel=5 note=62 velocity=84 time=10\n",
      "note_on channel=5 note=62 velocity=0 time=25\n",
      "note_on channel=5 note=50 velocity=84 time=5\n",
      "note_on channel=5 note=50 velocity=0 time=10\n",
      "note_on channel=5 note=50 velocity=84 time=20\n",
      "note_on channel=5 note=50 velocity=0 time=15\n",
      "note_on channel=5 note=62 velocity=84 time=15\n",
      "note_on channel=5 note=62 velocity=0 time=20\n",
      "note_on channel=5 note=50 velocity=84 time=10\n",
      "note_on channel=5 note=50 velocity=0 time=20\n",
      "note_on channel=5 note=62 velocity=84 time=10\n",
      "note_on channel=5 note=62 velocity=0 time=10\n",
      "note_on channel=5 note=62 velocity=84 time=20\n",
      "note_on channel=5 note=62 velocity=0 time=20\n",
      "note_on channel=5 note=50 velocity=84 time=10\n",
      "note_on channel=5 note=50 velocity=0 time=20\n",
      "note_on channel=5 note=62 velocity=84 time=10\n",
      "note_on channel=5 note=62 velocity=0 time=25\n",
      "note_on channel=5 note=50 velocity=84 time=5\n",
      "note_on channel=5 note=50 velocity=0 time=10\n",
      "note_on channel=5 note=50 velocity=84 time=20\n",
      "note_on channel=5 note=50 velocity=0 time=20\n",
      "note_on channel=5 note=62 velocity=84 time=10\n",
      "note_on channel=5 note=62 velocity=0 time=20\n",
      "note_on channel=5 note=50 velocity=84 time=10\n",
      "note_on channel=5 note=50 velocity=0 time=20\n",
      "note_on channel=5 note=62 velocity=84 time=10\n",
      "note_on channel=5 note=62 velocity=0 time=10\n",
      "note_on channel=5 note=62 velocity=84 time=20\n",
      "note_on channel=5 note=62 velocity=0 time=20\n",
      "note_on channel=5 note=50 velocity=84 time=10\n",
      "note_on channel=5 note=50 velocity=0 time=20\n",
      "note_on channel=5 note=62 velocity=84 time=10\n",
      "note_on channel=5 note=62 velocity=0 time=25\n",
      "note_on channel=5 note=50 velocity=84 time=5\n",
      "note_on channel=5 note=50 velocity=0 time=10\n",
      "note_on channel=5 note=50 velocity=84 time=20\n",
      "note_on channel=5 note=50 velocity=0 time=15\n",
      "note_on channel=5 note=62 velocity=84 time=15\n",
      "note_on channel=5 note=62 velocity=0 time=20\n",
      "note_on channel=5 note=50 velocity=84 time=10\n",
      "note_on channel=5 note=50 velocity=0 time=20\n",
      "note_on channel=5 note=62 velocity=84 time=10\n",
      "note_on channel=5 note=62 velocity=0 time=10\n",
      "note_on channel=5 note=62 velocity=84 time=20\n",
      "note_on channel=5 note=62 velocity=0 time=20\n",
      "note_on channel=5 note=50 velocity=84 time=10\n",
      "note_on channel=5 note=50 velocity=0 time=20\n",
      "note_on channel=5 note=62 velocity=84 time=10\n",
      "note_on channel=5 note=62 velocity=0 time=20\n",
      "note_on channel=5 note=50 velocity=84 time=10\n",
      "note_on channel=5 note=50 velocity=0 time=15\n",
      "note_on channel=5 note=50 velocity=84 time=15\n",
      "note_on channel=5 note=50 velocity=0 time=15\n",
      "note_on channel=5 note=62 velocity=84 time=15\n",
      "note_on channel=5 note=62 velocity=0 time=20\n",
      "note_on channel=5 note=50 velocity=84 time=10\n",
      "note_on channel=5 note=50 velocity=0 time=20\n",
      "note_on channel=5 note=62 velocity=84 time=10\n",
      "note_on channel=5 note=62 velocity=0 time=10\n",
      "note_on channel=5 note=62 velocity=84 time=20\n",
      "note_on channel=5 note=62 velocity=0 time=20\n",
      "note_on channel=5 note=50 velocity=84 time=10\n",
      "note_on channel=5 note=50 velocity=0 time=20\n",
      "note_on channel=5 note=62 velocity=84 time=10\n",
      "note_on channel=5 note=62 velocity=0 time=20\n",
      "note_on channel=5 note=50 velocity=84 time=10\n",
      "note_on channel=5 note=50 velocity=0 time=10\n",
      "note_on channel=5 note=50 velocity=84 time=20\n",
      "note_on channel=5 note=50 velocity=0 time=15\n",
      "note_on channel=5 note=62 velocity=84 time=15\n",
      "note_on channel=5 note=62 velocity=0 time=20\n",
      "note_on channel=5 note=50 velocity=84 time=10\n",
      "note_on channel=5 note=50 velocity=0 time=20\n",
      "note_on channel=5 note=62 velocity=84 time=10\n",
      "note_on channel=5 note=62 velocity=0 time=10\n",
      "note_on channel=5 note=62 velocity=84 time=20\n",
      "note_on channel=5 note=62 velocity=0 time=15\n",
      "note_on channel=5 note=50 velocity=84 time=15\n",
      "note_on channel=5 note=50 velocity=0 time=20\n",
      "note_on channel=5 note=62 velocity=84 time=10\n",
      "note_on channel=5 note=62 velocity=0 time=25\n",
      "note_on channel=5 note=50 velocity=84 time=5\n",
      "note_on channel=5 note=50 velocity=0 time=10\n",
      "note_on channel=5 note=50 velocity=84 time=20\n",
      "note_on channel=5 note=50 velocity=0 time=15\n",
      "note_on channel=5 note=62 velocity=84 time=15\n",
      "note_on channel=5 note=62 velocity=0 time=20\n",
      "note_on channel=5 note=50 velocity=84 time=10\n",
      "note_on channel=5 note=50 velocity=0 time=20\n",
      "note_on channel=5 note=62 velocity=84 time=10\n",
      "note_on channel=5 note=62 velocity=0 time=10\n",
      "note_on channel=5 note=62 velocity=84 time=20\n",
      "note_on channel=5 note=62 velocity=0 time=15\n",
      "note_on channel=5 note=50 velocity=84 time=15\n",
      "note_on channel=5 note=50 velocity=0 time=25\n",
      "note_on channel=5 note=62 velocity=84 time=5\n",
      "note_on channel=5 note=62 velocity=0 time=25\n",
      "note_on channel=5 note=50 velocity=84 time=5\n",
      "note_on channel=5 note=50 velocity=0 time=10\n",
      "note_on channel=5 note=50 velocity=84 time=20\n",
      "note_on channel=5 note=50 velocity=0 time=15\n",
      "note_on channel=5 note=62 velocity=84 time=15\n",
      "note_on channel=5 note=62 velocity=0 time=20\n",
      "note_on channel=5 note=50 velocity=84 time=10\n",
      "note_on channel=5 note=50 velocity=0 time=20\n",
      "note_on channel=5 note=62 velocity=84 time=10\n",
      "note_on channel=5 note=62 velocity=0 time=10\n",
      "note_on channel=5 note=62 velocity=84 time=20\n",
      "note_on channel=5 note=62 velocity=0 time=20\n",
      "note_on channel=5 note=50 velocity=84 time=10\n",
      "note_on channel=5 note=50 velocity=0 time=20\n",
      "note_on channel=5 note=62 velocity=84 time=10\n",
      "note_on channel=5 note=62 velocity=0 time=25\n",
      "note_on channel=5 note=50 velocity=84 time=5\n",
      "note_on channel=5 note=50 velocity=0 time=15\n",
      "note_on channel=5 note=50 velocity=84 time=15\n",
      "note_on channel=5 note=50 velocity=0 time=15\n",
      "note_on channel=5 note=62 velocity=84 time=15\n",
      "note_on channel=5 note=62 velocity=0 time=20\n",
      "note_on channel=5 note=50 velocity=84 time=10\n",
      "note_on channel=5 note=50 velocity=0 time=20\n",
      "note_on channel=5 note=62 velocity=84 time=10\n",
      "note_on channel=5 note=62 velocity=0 time=10\n",
      "note_on channel=5 note=62 velocity=84 time=20\n",
      "note_on channel=5 note=62 velocity=0 time=15\n",
      "note_on channel=5 note=50 velocity=84 time=15\n",
      "note_on channel=5 note=50 velocity=0 time=20\n",
      "note_on channel=5 note=62 velocity=84 time=10\n",
      "note_on channel=5 note=62 velocity=0 time=20\n",
      "note_on channel=5 note=50 velocity=84 time=10\n",
      "note_on channel=5 note=50 velocity=0 time=10\n",
      "note_on channel=5 note=50 velocity=84 time=20\n",
      "note_on channel=5 note=50 velocity=0 time=15\n",
      "note_on channel=5 note=62 velocity=84 time=15\n",
      "note_on channel=5 note=62 velocity=0 time=15\n",
      "note_on channel=5 note=50 velocity=84 time=15\n",
      "note_on channel=5 note=50 velocity=0 time=20\n",
      "note_on channel=5 note=62 velocity=84 time=10\n",
      "note_on channel=5 note=62 velocity=0 time=10\n",
      "note_on channel=5 note=62 velocity=84 time=20\n",
      "note_on channel=5 note=62 velocity=0 time=20\n",
      "note_on channel=5 note=50 velocity=84 time=10\n",
      "note_on channel=5 note=50 velocity=0 time=20\n",
      "note_on channel=5 note=62 velocity=84 time=10\n",
      "note_on channel=5 note=62 velocity=0 time=25\n",
      "note_on channel=5 note=50 velocity=84 time=5\n",
      "note_on channel=5 note=50 velocity=0 time=10\n",
      "note_on channel=5 note=50 velocity=84 time=20\n",
      "note_on channel=5 note=50 velocity=0 time=20\n",
      "note_on channel=5 note=62 velocity=84 time=10\n",
      "note_on channel=5 note=62 velocity=0 time=20\n",
      "note_on channel=5 note=50 velocity=84 time=10\n",
      "note_on channel=5 note=50 velocity=0 time=20\n",
      "note_on channel=5 note=62 velocity=84 time=10\n",
      "note_on channel=5 note=62 velocity=0 time=15\n",
      "note_on channel=5 note=62 velocity=84 time=15\n",
      "note_on channel=5 note=62 velocity=0 time=20\n",
      "note_on channel=5 note=50 velocity=84 time=10\n",
      "note_on channel=5 note=50 velocity=0 time=20\n",
      "note_on channel=5 note=62 velocity=84 time=10\n",
      "note_on channel=5 note=62 velocity=0 time=25\n",
      "note_on channel=5 note=50 velocity=84 time=5\n",
      "note_on channel=5 note=50 velocity=0 time=10\n",
      "note_on channel=5 note=50 velocity=84 time=20\n",
      "note_on channel=5 note=50 velocity=0 time=20\n",
      "note_on channel=5 note=62 velocity=84 time=10\n",
      "note_on channel=5 note=62 velocity=0 time=20\n",
      "note_on channel=5 note=50 velocity=84 time=10\n",
      "note_on channel=5 note=50 velocity=0 time=20\n",
      "note_on channel=5 note=62 velocity=84 time=10\n",
      "note_on channel=5 note=62 velocity=0 time=10\n",
      "note_on channel=5 note=62 velocity=84 time=20\n",
      "note_on channel=5 note=62 velocity=0 time=15\n",
      "note_on channel=5 note=50 velocity=84 time=15\n",
      "note_on channel=5 note=50 velocity=0 time=20\n",
      "note_on channel=5 note=62 velocity=84 time=10\n",
      "note_on channel=5 note=62 velocity=0 time=25\n",
      "note_on channel=5 note=50 velocity=84 time=5\n",
      "note_on channel=5 note=50 velocity=0 time=10\n",
      "note_on channel=5 note=50 velocity=84 time=20\n",
      "note_on channel=5 note=50 velocity=0 time=15\n",
      "note_on channel=5 note=62 velocity=84 time=15\n",
      "note_on channel=5 note=62 velocity=0 time=20\n",
      "note_on channel=5 note=50 velocity=84 time=10\n",
      "note_on channel=5 note=50 velocity=0 time=20\n",
      "note_on channel=5 note=62 velocity=84 time=10\n",
      "note_on channel=5 note=62 velocity=0 time=10\n",
      "note_on channel=5 note=62 velocity=84 time=20\n",
      "note_on channel=5 note=62 velocity=0 time=20\n",
      "note_on channel=5 note=50 velocity=84 time=10\n",
      "note_on channel=5 note=50 velocity=0 time=20\n",
      "note_on channel=5 note=62 velocity=84 time=10\n",
      "note_on channel=5 note=62 velocity=0 time=20\n",
      "note_on channel=5 note=50 velocity=84 time=10\n",
      "note_on channel=5 note=50 velocity=0 time=10\n",
      "note_on channel=5 note=50 velocity=84 time=20\n",
      "note_on channel=5 note=50 velocity=0 time=15\n",
      "note_on channel=5 note=62 velocity=84 time=15\n",
      "note_on channel=5 note=62 velocity=0 time=20\n",
      "note_on channel=5 note=50 velocity=84 time=10\n",
      "note_on channel=5 note=50 velocity=0 time=20\n",
      "note_on channel=5 note=62 velocity=84 time=10\n",
      "note_on channel=5 note=62 velocity=0 time=15\n",
      "note_on channel=5 note=62 velocity=84 time=15\n",
      "note_on channel=5 note=62 velocity=0 time=20\n",
      "note_on channel=5 note=50 velocity=84 time=10\n",
      "note_on channel=5 note=50 velocity=0 time=25\n",
      "note_on channel=5 note=62 velocity=84 time=5\n",
      "note_on channel=5 note=62 velocity=0 time=20\n",
      "note_on channel=5 note=50 velocity=84 time=10\n",
      "note_on channel=5 note=50 velocity=0 time=10\n",
      "note_on channel=5 note=50 velocity=84 time=20\n",
      "note_on channel=5 note=50 velocity=0 time=15\n",
      "note_on channel=5 note=62 velocity=84 time=15\n",
      "note_on channel=5 note=62 velocity=0 time=20\n",
      "note_on channel=5 note=50 velocity=84 time=10\n",
      "note_on channel=5 note=50 velocity=0 time=20\n",
      "note_on channel=5 note=62 velocity=84 time=10\n",
      "note_on channel=5 note=62 velocity=0 time=10\n",
      "note_on channel=5 note=62 velocity=84 time=20\n",
      "note_on channel=5 note=62 velocity=0 time=15\n",
      "note_on channel=5 note=50 velocity=84 time=15\n",
      "note_on channel=5 note=50 velocity=0 time=20\n",
      "note_on channel=5 note=62 velocity=84 time=10\n",
      "note_on channel=5 note=62 velocity=0 time=25\n",
      "note_on channel=5 note=50 velocity=84 time=5\n",
      "note_on channel=5 note=50 velocity=0 time=5\n",
      "note_on channel=5 note=50 velocity=84 time=25\n",
      "note_on channel=5 note=50 velocity=0 time=15\n",
      "note_on channel=5 note=62 velocity=84 time=15\n",
      "note_on channel=5 note=62 velocity=0 time=20\n",
      "note_on channel=5 note=50 velocity=84 time=10\n",
      "note_on channel=5 note=50 velocity=0 time=15\n",
      "note_on channel=5 note=62 velocity=84 time=15\n",
      "note_on channel=5 note=62 velocity=0 time=10\n",
      "note_on channel=5 note=62 velocity=84 time=20\n",
      "note_on channel=5 note=62 velocity=0 time=20\n",
      "note_on channel=5 note=50 velocity=84 time=10\n",
      "note_on channel=5 note=50 velocity=0 time=20\n",
      "note_on channel=5 note=62 velocity=84 time=10\n",
      "note_on channel=5 note=62 velocity=0 time=20\n",
      "note_on channel=5 note=50 velocity=84 time=10\n",
      "note_on channel=5 note=50 velocity=0 time=10\n",
      "note_on channel=5 note=50 velocity=84 time=20\n",
      "note_on channel=5 note=50 velocity=0 time=15\n",
      "note_on channel=5 note=62 velocity=84 time=15\n",
      "note_on channel=5 note=62 velocity=0 time=20\n",
      "note_on channel=5 note=50 velocity=84 time=10\n",
      "note_on channel=5 note=50 velocity=0 time=20\n",
      "note_on channel=5 note=62 velocity=84 time=10\n",
      "note_on channel=5 note=62 velocity=0 time=10\n",
      "note_on channel=5 note=62 velocity=84 time=20\n",
      "note_on channel=5 note=62 velocity=0 time=20\n",
      "note_on channel=5 note=50 velocity=84 time=10\n",
      "note_on channel=5 note=50 velocity=0 time=20\n",
      "note_on channel=5 note=62 velocity=84 time=10\n",
      "note_on channel=5 note=62 velocity=0 time=20\n",
      "note_on channel=5 note=50 velocity=84 time=10\n",
      "note_on channel=5 note=50 velocity=0 time=10\n",
      "note_on channel=5 note=50 velocity=84 time=20\n",
      "note_on channel=5 note=50 velocity=0 time=15\n",
      "note_on channel=5 note=62 velocity=84 time=15\n",
      "note_on channel=5 note=62 velocity=0 time=20\n",
      "note_on channel=5 note=50 velocity=84 time=10\n",
      "note_on channel=5 note=50 velocity=0 time=15\n",
      "note_on channel=5 note=62 velocity=84 time=15\n",
      "note_on channel=5 note=62 velocity=0 time=10\n",
      "note_on channel=5 note=62 velocity=84 time=20\n",
      "note_on channel=5 note=62 velocity=0 time=20\n",
      "note_on channel=5 note=50 velocity=84 time=10\n",
      "note_on channel=5 note=50 velocity=0 time=20\n",
      "note_on channel=5 note=62 velocity=84 time=10\n",
      "note_on channel=5 note=62 velocity=0 time=20\n",
      "note_on channel=5 note=50 velocity=84 time=10\n",
      "note_on channel=5 note=50 velocity=0 time=10\n",
      "note_on channel=5 note=50 velocity=84 time=20\n",
      "note_on channel=5 note=50 velocity=0 time=15\n",
      "note_on channel=5 note=62 velocity=84 time=15\n",
      "note_on channel=5 note=62 velocity=0 time=20\n",
      "note_on channel=5 note=50 velocity=84 time=10\n",
      "note_on channel=5 note=50 velocity=0 time=15\n",
      "note_on channel=5 note=62 velocity=84 time=15\n",
      "note_on channel=5 note=62 velocity=0 time=10\n",
      "note_on channel=5 note=62 velocity=84 time=20\n",
      "note_on channel=5 note=62 velocity=0 time=15\n",
      "note_on channel=5 note=50 velocity=84 time=15\n",
      "note_on channel=5 note=50 velocity=0 time=20\n",
      "note_on channel=5 note=62 velocity=84 time=10\n",
      "note_on channel=5 note=62 velocity=0 time=25\n",
      "note_on channel=5 note=50 velocity=84 time=5\n",
      "note_on channel=5 note=50 velocity=0 time=10\n",
      "note_on channel=5 note=50 velocity=84 time=20\n",
      "note_on channel=5 note=50 velocity=0 time=15\n",
      "note_on channel=5 note=62 velocity=84 time=15\n",
      "note_on channel=5 note=62 velocity=0 time=15\n",
      "note_on channel=5 note=50 velocity=84 time=15\n",
      "note_on channel=5 note=50 velocity=0 time=15\n",
      "note_on channel=5 note=62 velocity=84 time=15\n",
      "note_on channel=5 note=62 velocity=0 time=10\n",
      "note_on channel=5 note=62 velocity=84 time=20\n",
      "note_on channel=5 note=62 velocity=0 time=20\n",
      "note_on channel=5 note=50 velocity=84 time=10\n",
      "note_on channel=5 note=50 velocity=0 time=15\n",
      "note_on channel=5 note=62 velocity=84 time=15\n",
      "note_on channel=5 note=62 velocity=0 time=25\n",
      "note_on channel=5 note=50 velocity=84 time=5\n",
      "note_on channel=5 note=50 velocity=0 time=5\n",
      "note_on channel=5 note=50 velocity=84 time=25\n",
      "note_on channel=5 note=50 velocity=0 time=15\n",
      "note_on channel=5 note=62 velocity=84 time=15\n",
      "note_on channel=5 note=62 velocity=0 time=20\n",
      "note_on channel=5 note=50 velocity=84 time=10\n",
      "note_on channel=5 note=50 velocity=0 time=20\n",
      "note_on channel=5 note=62 velocity=84 time=10\n",
      "note_on channel=5 note=62 velocity=0 time=15\n",
      "note_on channel=5 note=62 velocity=84 time=15\n",
      "note_on channel=5 note=62 velocity=0 time=20\n",
      "note_on channel=5 note=50 velocity=84 time=10\n",
      "note_on channel=5 note=50 velocity=0 time=20\n",
      "note_on channel=5 note=62 velocity=84 time=10\n",
      "note_on channel=5 note=62 velocity=0 time=20\n",
      "note_on channel=5 note=50 velocity=84 time=10\n",
      "note_on channel=5 note=50 velocity=0 time=5\n",
      "note_on channel=5 note=50 velocity=84 time=25\n",
      "note_on channel=5 note=50 velocity=0 time=10\n",
      "note_on channel=5 note=62 velocity=84 time=20\n",
      "note_on channel=5 note=62 velocity=0 time=20\n",
      "note_on channel=5 note=50 velocity=84 time=10\n",
      "note_on channel=5 note=50 velocity=0 time=20\n",
      "note_on channel=5 note=62 velocity=84 time=10\n",
      "note_on channel=5 note=62 velocity=0 time=10\n",
      "note_on channel=5 note=62 velocity=84 time=20\n",
      "note_on channel=5 note=62 velocity=0 time=20\n",
      "note_on channel=5 note=50 velocity=84 time=10\n",
      "note_on channel=5 note=50 velocity=0 time=20\n",
      "note_on channel=5 note=62 velocity=84 time=10\n",
      "note_on channel=5 note=62 velocity=0 time=25\n",
      "note_on channel=5 note=50 velocity=84 time=5\n",
      "note_on channel=5 note=50 velocity=0 time=10\n",
      "note_on channel=5 note=50 velocity=84 time=20\n",
      "note_on channel=5 note=50 velocity=0 time=20\n",
      "note_on channel=5 note=62 velocity=84 time=10\n",
      "note_on channel=5 note=62 velocity=0 time=20\n",
      "note_on channel=5 note=50 velocity=84 time=10\n",
      "note_on channel=5 note=50 velocity=0 time=20\n",
      "note_on channel=5 note=62 velocity=84 time=10\n",
      "note_on channel=5 note=62 velocity=0 time=15\n",
      "note_on channel=5 note=62 velocity=84 time=15\n",
      "note_on channel=5 note=62 velocity=0 time=20\n",
      "note_on channel=5 note=50 velocity=84 time=10\n",
      "note_on channel=5 note=50 velocity=0 time=20\n",
      "note_on channel=5 note=62 velocity=84 time=10\n",
      "note_on channel=5 note=62 velocity=0 time=25\n",
      "note_on channel=5 note=50 velocity=84 time=5\n",
      "note_on channel=5 note=50 velocity=0 time=10\n",
      "note_on channel=5 note=50 velocity=84 time=20\n",
      "note_on channel=5 note=50 velocity=0 time=15\n",
      "note_on channel=5 note=62 velocity=84 time=15\n",
      "note_on channel=5 note=62 velocity=0 time=20\n",
      "note_on channel=5 note=50 velocity=84 time=10\n",
      "note_on channel=5 note=50 velocity=0 time=15\n",
      "note_on channel=5 note=62 velocity=84 time=15\n",
      "note_on channel=5 note=62 velocity=0 time=15\n",
      "note_on channel=5 note=62 velocity=84 time=15\n",
      "note_on channel=5 note=62 velocity=0 time=20\n",
      "note_on channel=5 note=50 velocity=84 time=10\n",
      "note_on channel=5 note=50 velocity=0 time=20\n",
      "note_on channel=5 note=62 velocity=84 time=10\n",
      "note_on channel=5 note=62 velocity=0 time=25\n",
      "note_on channel=5 note=50 velocity=84 time=5\n",
      "note_on channel=5 note=50 velocity=0 time=10\n",
      "note_on channel=5 note=50 velocity=84 time=20\n",
      "note_on channel=5 note=50 velocity=0 time=15\n",
      "note_on channel=5 note=62 velocity=84 time=15\n",
      "note_on channel=5 note=62 velocity=0 time=20\n",
      "note_on channel=5 note=50 velocity=84 time=10\n",
      "note_on channel=5 note=50 velocity=0 time=15\n",
      "note_on channel=5 note=62 velocity=84 time=15\n",
      "note_on channel=5 note=62 velocity=0 time=15\n",
      "note_on channel=5 note=62 velocity=84 time=15\n",
      "note_on channel=5 note=62 velocity=0 time=20\n",
      "note_on channel=5 note=50 velocity=84 time=10\n",
      "note_on channel=5 note=50 velocity=0 time=20\n",
      "note_on channel=5 note=62 velocity=84 time=10\n",
      "note_on channel=5 note=62 velocity=0 time=25\n",
      "note_on channel=5 note=50 velocity=84 time=5\n",
      "note_on channel=5 note=50 velocity=0 time=10\n",
      "note_on channel=5 note=50 velocity=84 time=20\n",
      "note_on channel=5 note=50 velocity=0 time=20\n",
      "note_on channel=5 note=62 velocity=84 time=10\n",
      "note_on channel=5 note=62 velocity=0 time=20\n",
      "note_on channel=5 note=50 velocity=84 time=10\n",
      "note_on channel=5 note=50 velocity=0 time=20\n",
      "note_on channel=5 note=62 velocity=84 time=10\n",
      "note_on channel=5 note=62 velocity=0 time=10\n",
      "note_on channel=5 note=62 velocity=84 time=20\n",
      "note_on channel=5 note=62 velocity=0 time=20\n",
      "note_on channel=5 note=50 velocity=84 time=10\n",
      "note_on channel=5 note=50 velocity=0 time=15\n",
      "note_on channel=5 note=62 velocity=84 time=15\n",
      "note_on channel=5 note=62 velocity=0 time=25\n",
      "note_on channel=5 note=50 velocity=84 time=5\n",
      "note_on channel=5 note=50 velocity=0 time=5\n",
      "note_on channel=5 note=50 velocity=84 time=25\n",
      "note_on channel=5 note=50 velocity=0 time=15\n",
      "note_on channel=5 note=62 velocity=84 time=15\n",
      "note_on channel=5 note=62 velocity=0 time=20\n",
      "note_on channel=5 note=50 velocity=84 time=10\n",
      "note_on channel=5 note=50 velocity=0 time=20\n",
      "note_on channel=5 note=62 velocity=84 time=10\n",
      "note_on channel=5 note=62 velocity=0 time=10\n",
      "note_on channel=5 note=62 velocity=84 time=20\n",
      "note_on channel=5 note=62 velocity=0 time=20\n",
      "note_on channel=5 note=50 velocity=84 time=10\n",
      "note_on channel=5 note=50 velocity=0 time=20\n",
      "note_on channel=5 note=62 velocity=84 time=10\n",
      "note_on channel=5 note=62 velocity=0 time=30\n",
      "note_on channel=5 note=50 velocity=84 time=0\n",
      "note_on channel=5 note=50 velocity=0 time=10\n",
      "note_on channel=5 note=50 velocity=84 time=20\n",
      "note_on channel=5 note=50 velocity=0 time=15\n",
      "note_on channel=5 note=62 velocity=84 time=15\n",
      "note_on channel=5 note=62 velocity=0 time=0\n",
      "note_on channel=5 note=50 velocity=84 time=0\n",
      "note_on channel=5 note=62 velocity=84 time=0\n",
      "note_on channel=5 note=62 velocity=0 time=65\n",
      "note_on channel=5 note=50 velocity=0 time=0\n",
      "note_on channel=5 note=50 velocity=84 time=415\n",
      "note_on channel=5 note=62 velocity=84 time=0\n",
      "note_on channel=5 note=62 velocity=0 time=65\n",
      "note_on channel=5 note=50 velocity=0 time=0\n",
      "<meta message end_of_track time=0>\n",
      "Track 8: Split Chan 16 \n",
      "<meta message midi_port port=0 time=0>\n",
      "<meta message track_name name='Split Chan 16 ' time=0>\n",
      "control_change channel=6 control=0 value=4 time=0\n",
      "program_change channel=6 program=125 time=0\n",
      "control_change channel=6 control=7 value=127 time=0\n",
      "control_change channel=6 control=10 value=64 time=0\n",
      "control_change channel=6 control=0 value=4 time=1560\n",
      "program_change channel=6 program=125 time=0\n",
      "note_on channel=6 note=60 velocity=127 time=0\n",
      "note_on channel=6 note=60 velocity=0 time=90\n",
      "note_on channel=6 note=60 velocity=127 time=1830\n",
      "note_on channel=6 note=60 velocity=0 time=90\n",
      "note_on channel=6 note=60 velocity=127 time=15273\n",
      "note_on channel=6 note=60 velocity=0 time=78\n",
      "note_on channel=6 note=62 velocity=127 time=22959\n",
      "note_on channel=6 note=62 velocity=0 time=90\n",
      "note_on channel=6 note=62 velocity=127 time=1710\n",
      "note_on channel=6 note=62 velocity=0 time=90\n",
      "note_on channel=6 note=62 velocity=127 time=1830\n",
      "note_on channel=6 note=62 velocity=0 time=90\n",
      "note_on channel=6 note=62 velocity=127 time=1830\n",
      "note_on channel=6 note=62 velocity=0 time=90\n",
      "<meta message end_of_track time=0>\n",
      "Track 9: TWO STEPPIN DUO\n",
      "<meta message midi_port port=0 time=0>\n",
      "<meta message track_name name='TWO STEPPIN DUO' time=0>\n",
      "<meta message end_of_track time=0>\n",
      "Track 10: Formatted for Cakewalk\n",
      "<meta message midi_port port=0 time=0>\n",
      "<meta message track_name name='Formatted for Cakewalk' time=0>\n",
      "<meta message end_of_track time=0>\n",
      "Track 11: & ROLAND SCC1\n",
      "<meta message midi_port port=0 time=0>\n",
      "<meta message track_name name='& ROLAND SCC1' time=0>\n",
      "<meta message end_of_track time=0>\n",
      "Track 12: Sleeping Bag - ZZ Top\n",
      "<meta message midi_port port=0 time=0>\n",
      "<meta message track_name name='Sleeping Bag - ZZ Top' time=0>\n",
      "<meta message end_of_track time=0>\n"
     ]
    }
   ],
   "source": [
    "from mido import MidiFile\n",
    "\n",
    "mid = MidiFile('data/ZZ_Top_-_Sleeping_Bag.mid')\n",
    "\n",
    "for i, track in enumerate(mid.tracks):\n",
    "    print('Track {}: {}'.format(i, track.name))\n",
    "    for msg in track:\n",
    "        print(msg)"
   ]
  },
  {
   "cell_type": "markdown",
   "metadata": {},
   "source": [
    "MIDI note"
   ]
  }
 ],
 "metadata": {
  "kernelspec": {
   "display_name": "Python 3",
   "language": "python",
   "name": "python3"
  },
  "language_info": {
   "codemirror_mode": {
    "name": "ipython",
    "version": 3
   },
   "file_extension": ".py",
   "mimetype": "text/x-python",
   "name": "python",
   "nbconvert_exporter": "python",
   "pygments_lexer": "ipython3",
   "version": "3.7.7"
  }
 },
 "nbformat": 4,
 "nbformat_minor": 4
}
